<svg xmlns="http://www.w3.org/2000/svg" xmlns:xlink="http://www.w3.org/1999/xlink" width="1132" height="290.687" viewBox="0 0 1132 290.687"><defs><clipPath id="a"><rect width="873.38" height="230.129" fill="none"/></clipPath><clipPath id="b"><rect width="60.237" height="63.24" fill="#12263f"/></clipPath><clipPath id="c"><rect width="63.961" height="64.017" fill="#12263f"/></clipPath><clipPath id="d"><rect width="93.404" height="92.436" fill="#12263f"/></clipPath><clipPath id="e"><rect width="96.936" height="92.712" fill="#12263f"/></clipPath><clipPath id="f"><rect width="71.297" height="86.13" fill="#12263f"/></clipPath></defs><g transform="translate(-239 -5582.313)"><g transform="translate(385.691 5582.313)"><line transform="translate(208.944 148.779)" fill="none" stroke="#000" stroke-linecap="round" stroke-linejoin="round" stroke-width="1"/><line x2="93.228" transform="translate(217.823 148.779)" fill="none" stroke="#000" stroke-linecap="round" stroke-linejoin="round" stroke-width="1" stroke-dasharray="0 6.167"/><line transform="translate(315.49 148.779)" fill="none" stroke="#000" stroke-linecap="round" stroke-linejoin="round" stroke-width="1"/><line transform="translate(495.467 148.779)" fill="none" stroke="#000" stroke-linecap="round" stroke-linejoin="round" stroke-width="1"/><line x2="93.228" transform="translate(504.346 148.779)" fill="none" stroke="#000" stroke-linecap="round" stroke-linejoin="round" stroke-width="1" stroke-dasharray="0 6.167"/><line transform="translate(602.014 148.779)" fill="none" stroke="#000" stroke-linecap="round" stroke-linejoin="round" stroke-width="1"/><g clip-path="url(#a)"><path d="M227.019,210.5H10.618V26.107h216.4c9.124,0,16.521,8.3,16.521,18.549v147.3c0,10.246-7.4,18.551-16.521,18.551" transform="translate(296.924 11.482)" fill="#e8e8e8"/><path d="M227.019,210.5H10.618V26.107h216.4c9.124,0,16.521,8.3,16.521,18.549v147.3c0,10.246-7.4,18.551-16.521,18.551" transform="translate(591.168 11.482)" fill="#e8e8e8"/><path d="M227.019,210.5H10.618V26.107h216.4c9.124,0,16.521,8.3,16.521,18.549v147.3c0,10.246-7.4,18.551-16.521,18.551" transform="translate(4.67 11.482)" fill="#e8e8e8"/><path d="M19.84,110.709V44.418h-7.83A13.513,13.513,0,0,1,7.625,50.1a13.171,13.171,0,0,1-6.079,2.6v7.491a13.405,13.405,0,0,0,4.592-.847,8.2,8.2,0,0,0,3.614-2.39v53.754Z" transform="translate(0.68 19.536)" fill="none" stroke="#12263f" stroke-miterlimit="10" stroke-width="1"/><path d="M178.851,37.948A33.116,33.116,0,1,1,145.735,4.832a33.116,33.116,0,0,1,33.116,33.116" transform="translate(96.345 2.125)" fill="#fb8c00"/><g transform="translate(214.952 2.638)"><rect width="7.355" height="3.29" transform="matrix(0.894, -0.447, 0.447, 0.894, 47.079, 6.753)" fill="#12263f"/><rect width="3.29" height="7.357" transform="matrix(0.447, -0.894, 0.894, 0.447, 47.078, 29.436)" fill="#12263f"/><rect width="6.689" height="3.29" transform="translate(49.458 16.449)" fill="#12263f"/><rect width="3.29" height="7.356" transform="translate(1.019 6.406) rotate(-63.435)" fill="#12263f"/><rect width="7.357" height="3.29" transform="translate(1.018 29.782) rotate(-26.565)" fill="#12263f"/><rect width="6.689" height="3.29" transform="translate(0 16.449)" fill="#12263f"/><rect width="9.87" height="3.29" transform="translate(23.14 52.857)" fill="#12263f"/><path d="M161.309,19.926A18.093,18.093,0,1,0,134.99,36.02v5.29H131.7V44.6h3.29v6.8h16.45V44.6h3.29V41.31h-3.29V36.02a18.1,18.1,0,0,0,9.868-16.094M148.15,48.109h-9.87V44.6h9.87Zm-6.58-24.893a1.645,1.645,0,1,1,1.646,1.646,1.647,1.647,0,0,1-1.646-1.646m3.29,18.094V27.868a4.935,4.935,0,1,0-3.29,0V41.31h-3.29v-7.4l-.983-.432a14.8,14.8,0,1,1,11.837,0l-.983.432v7.4Z" transform="translate(-115.142 -1.832)" fill="#12263f"/></g><path d="M230.561,110.927v-7.9H215.277q1.656-7.153,7.228-15.773,3.05-4.706,6.173-10.765a30.348,30.348,0,0,0,3.124-14.1q0-8.038-2.936-13.043a10.854,10.854,0,0,0-3.99-3.99,11.593,11.593,0,0,0-5.759-1.431,19.155,19.155,0,0,0-5.458.678,10.581,10.581,0,0,0-6.38,5.533q-2.317,4.328-2.315,16.638v4.065H214.6V62.442a35.527,35.527,0,0,1,.3-5.083q.715-4.743,3.726-4.743,3.613,0,3.614,8.527t-2.936,13.344q-1.205,1.7-3.8,6.174t-2.749,4.705a67.659,67.659,0,0,0-5.363,11.425,31.478,31.478,0,0,0-1.713,10.22v3.915Z" transform="translate(90.146 19.318)" fill="none" stroke="#12263f" stroke-miterlimit="10" stroke-width="1"/><path d="M393.85,37.948A33.116,33.116,0,1,1,360.735,4.832,33.115,33.115,0,0,1,393.85,37.948" transform="translate(181.746 2.125)" fill="#fb8c00"/><path d="M435.768,91.992a29.967,29.967,0,0,0-1.581-10.616,10.291,10.291,0,0,0-5.346-5.872,8.882,8.882,0,0,0,5.12-4.95,22.028,22.028,0,0,0,1.695-9.166q0-8.81-3.539-13.138t-11.048-4.328q-7.512,0-10.709,4.2t-3.2,13.269v2.07h9.749v-2q0-4.894.959-6.869a3.433,3.433,0,0,1,3.369-1.977,3.789,3.789,0,0,1,3.52,1.882q1.11,1.883,1.11,7.342t-1.317,7.848q-1.317,2.391-4.855,2.39h-2.786v7.679h2.861q3.613,0,4.857,2.711t1.241,9.091q0,6.38-.959,8.921a3.721,3.721,0,0,1-3.821,2.541q-2.862,0-3.708-2.109t-.847-7.566V88.755h-9.449v4.328q0,9.676,3.106,14.136t10.842,4.461q7.736,0,11.235-4.875T435.768,91.992Z" transform="translate(179.042 19.318)" fill="none" stroke="#12263f" stroke-miterlimit="10" stroke-width="1"/><path d="M596.851,37.948A33.116,33.116,0,1,1,563.735,4.832a33.115,33.115,0,0,1,33.116,33.116" transform="translate(266.958 2.125)" fill="#fb8c00"/><g transform="translate(512.097 1.018)"><g clip-path="url(#b)"><path d="M46.646,63.24a1.525,1.525,0,0,1-1.089-1.715c.047-1.161,0-2.326.014-3.489a4.4,4.4,0,0,1,4.69-4.651c2.517.091,3.908-1,3.786-3.86-.115-2.694-.027-5.4-.024-8.1,0-1.212.416-1.625,1.619-1.631.585,0,1.17,0,1.755,0l.143-.209c-.624-.569-1.254-1.131-1.87-1.707A9.864,9.864,0,0,1,52.463,30.7c-.2-6.421-3.579-10.651-9.294-13.29-.131.161-.235.3-.345.424a1.243,1.243,0,0,1-1.644.34,1.214,1.214,0,0,1-.416-1.669c.442-.807.946-1.581,1.422-2.37.055-.092.1-.189.19-.348-.2-.022-.361-.054-.519-.054-1.737,0-3.475,0-5.212,0-1.573,0-2.081-.89-1.295-2.268q2.363-4.144,4.729-8.286c.106-.186.2-.377.331-.623a3.732,3.732,0,0,0-.424-.055c-1.693,0-3.387-.016-5.08.014a.864.864,0,0,0-.653.361q-3.305,6.875-6.56,13.774a2.217,2.217,0,0,0-.093.363c1.716,0,3.382,0,5.049,0,1.413,0,1.81.395,1.718,1.823-.191,3-.414,5.994-.635,9.134.177-.224.288-.34.372-.473.6-.947,1.175-1.9,1.783-2.844a1.271,1.271,0,0,1,1.8-.516,1.255,1.255,0,0,1,.308,1.8q-2.366,3.838-4.769,7.652a1.176,1.176,0,0,1-1.46.59,1.215,1.215,0,0,1-.855-1.387q.308-4.531.62-9.061c.094-1.377.19-2.754.289-4.191-.211-.017-.4-.045-.591-.046a23.608,23.608,0,0,1-2.571-.021,2.967,2.967,0,0,0-2.785,1.168c-2.831,3.25-4.782,6.878-4.962,11.267a16.017,16.017,0,0,0,2.028,8.2c1.328,2.522,2.683,5.03,3.987,7.565a19.734,19.734,0,0,1,2.149,9.065c.008,1.58-.02,3.161.01,4.74a1.633,1.633,0,0,1-1.052,1.759h-.4A1.6,1.6,0,0,1,26.576,61.5c.012-2.061-.006-4.125-.086-6.184A16.733,16.733,0,0,0,24.4,48.182c-1.351-2.584-2.78-5.13-4.058-7.749a17.478,17.478,0,0,1,.777-17.4c.825-1.41,1.924-2.66,2.878-4a3.219,3.219,0,0,0,.338-.8c.117-.327.177-.678.323-.99.824-1.765,1.667-3.521,2.542-5.363-.672-.117-1.269-.267-1.873-.319-5.814-.5-10.771,1.229-14.552,5.776a13.472,13.472,0,0,0-3.038,8.647,9.653,9.653,0,0,1-3.081,7.03c-.639.62-1.266,1.251-2.044,2.021.773,0,1.335,0,1.9,0,1.291,0,1.7.4,1.705,1.683.005,2.94.012,5.881,0,8.821a2.577,2.577,0,0,0,1.22,2.529,5.345,5.345,0,0,0,2.2.5,5.411,5.411,0,0,1,3.229.927,4.624,4.624,0,0,1,1.815,3.9c0,.83,0,1.66,0,2.575,1.18,0,2.295,0,3.41,0,1.168,0,1.752.408,1.759,1.222s-.6,1.249-1.743,1.251c-1.429,0-2.859.008-4.288,0-1.2-.008-1.618-.43-1.623-1.632,0-1.141,0-2.282,0-3.423A2.055,2.055,0,0,0,9.871,51.07a6.052,6.052,0,0,1-4.258-1.233,4.8,4.8,0,0,1-1.836-3.58c-.063-2.632-.035-5.266-.045-7.9,0-.257,0-.514,0-.8-.623-.042-1.171-.048-1.71-.121A2.288,2.288,0,0,1,.476,33.789a24.552,24.552,0,0,1,2.369-2.468,7.319,7.319,0,0,0,2.41-5.363A16.259,16.259,0,0,1,7.91,17.072,17.746,17.746,0,0,1,19.374,9.4a18.37,18.37,0,0,1,8.365.073.59.59,0,0,0,.808-.39c1.242-2.661,2.521-5.306,3.754-7.971A1.678,1.678,0,0,1,34.032,0c2.726.037,5.453.011,8.18.015,1.546,0,2.04.87,1.266,2.227q-2.363,4.143-4.732,8.284c-.116.2-.216.415-.37.712h3.761c.814,0,1.628-.025,2.441.009a1.241,1.241,0,0,1,1.082,1.958c-.191.345-.409.676-.613,1.014s-.4.674-.557.93c1.339.849,2.724,1.587,3.95,2.53a15.846,15.846,0,0,1,6.473,12.472,8.252,8.252,0,0,0,2.8,6.275,9.1,9.1,0,0,1,1.023,1.026c.521.634,1,1.3,1.5,1.956v.922c-.572,1.837-2.031,2.084-3.724,1.944v.793c0,2.412.011,4.825,0,7.237a5.236,5.236,0,0,1-3.057,5.036,6.991,6.991,0,0,1-3.155.5,2.011,2.011,0,0,0-2.242,2.233c-.013,1.14,0,2.281,0,3.421,0,1.077-.183,1.345-1.142,1.742Z" transform="translate(0 -0.001)" fill="#12263f"/><path d="M171,425.434a1.252,1.252,0,0,1-1.234,1.262,1.279,1.279,0,0,1-1.252-1.249,1.2,1.2,0,0,1,1.192-1.212,1.262,1.262,0,0,1,1.294,1.2" transform="translate(-146.282 -368.258)" fill="#12263f"/><path d="M292.452,151.3a1.2,1.2,0,0,1-1.247,1.247,1.289,1.289,0,0,1-1.219-1.234,1.233,1.233,0,1,1,2.466-.013" transform="translate(-251.722 -130.265)" fill="#12263f"/></g></g><g transform="translate(798.305 0.27)"><g clip-path="url(#c)"><path d="M89.078,64.017a1.516,1.516,0,0,1-.816-1.464,8.164,8.164,0,0,0-.5-2.439c-1.25-3.088-2.585-6.141-3.877-9.213a5.271,5.271,0,0,1-.087-3.907q1.233-3.522,2.456-7.047c.049-.142.083-.29.129-.453a6.285,6.285,0,0,1-3.908-6.229c.141-2.978,1.831-4.9,4.676-5.927-.2-.214-.366-.389-.533-.558Q84.1,24.251,81.58,21.724c-.8-.8-.8-1.257.015-2.071q2.494-2.5,4.993-5.005c.169-.17.332-.346.56-.585A6.536,6.536,0,0,1,82.93,10.3a6.192,6.192,0,0,1-.317-3.921,6.4,6.4,0,0,1,12.4-.211c.194-.178.367-.326.528-.487q2.57-2.571,5.137-5.144c.713-.712,1.221-.717,1.931-.007q3.185,3.181,6.364,6.37a1.215,1.215,0,0,1,.467,1.237c-.154.548-.6.71-1.107.823a4.28,4.28,0,0,0,.01,8.385,4.285,4.285,0,0,0,4.993-3.167c.026-.108.04-.219.067-.327a1.065,1.065,0,0,1,1.931-.562c1.55,1.531,3.081,3.081,4.621,4.623.6.6,1.2,1.193,1.789,1.795.747.756.752,1.237.01,1.985q-2.538,2.555-5.085,5.1c-.169.169-.33.345-.516.54,2.976,1.116,4.708,3.139,4.652,6.33-.055,3.165-1.848,5.112-4.811,6.134,0,1.74-.1,3.5.024,5.249.2,2.693-1.606,4.628-4.854,3.816a7.779,7.779,0,0,1-3.132-1.554c-.114-.094-.237-.176-.356-.263l-.2.1c.29.793.584,1.584.868,2.378a26.675,26.675,0,0,1,1.123,3.258,8.906,8.906,0,0,1-.712,5.661,11.238,11.238,0,0,1-.624,1.252,4.349,4.349,0,0,0-.665,2.859,1.323,1.323,0,0,1-.79,1.467h-.666a1.73,1.73,0,0,1-.7-1.477,7.22,7.22,0,0,1,1.137-4.239,7.7,7.7,0,0,0,.027-7.771,10.08,10.08,0,0,1-1.148-4.881c.021-4.14,0-8.279.01-12.419A3.354,3.354,0,0,0,104.588,31a3.178,3.178,0,0,0-5.632,2.092q-.014,7.178,0,14.355a3.482,3.482,0,0,1-.027.732,1.067,1.067,0,0,1-2.1-.016A3.206,3.206,0,0,1,96.8,47.5c0-3.294,0-6.588-.008-9.882a1.249,1.249,0,0,0-.173-.74c-.463-.561-.988-1.071-1.554-1.67-.091.22-.124.293-.153.368a6.321,6.321,0,0,1-6,4.389c-.426.021-.506.254-.61.553-.839,2.414-1.683,4.826-2.518,7.241a3.175,3.175,0,0,0,.073,2.345c1.284,3.028,2.548,6.065,3.865,9.078a7.87,7.87,0,0,1,.714,3.356,1.614,1.614,0,0,1-.694,1.479ZM107.56,32.765c.142-.125.224-.191.3-.264.491-.47.923-1.1,1.751-.751s.7,1.081.7,1.772a4.157,4.157,0,1,0,8.306-.195,4.126,4.126,0,0,0-4.405-3.953c-.659.033-1.221.015-1.526-.623s.034-1.13.493-1.586c1.971-1.959,3.927-3.933,5.887-5.9.169-.169.327-.349.439-.469l-4.575-4.6a6.287,6.287,0,0,1-4.784,3.36,6.4,6.4,0,0,1-5.638-1.946A6.553,6.553,0,0,1,106.088,7.4l-4.58-4.585c-.1.094-.277.258-.448.429q-2.947,2.948-5.9,5.892a1.987,1.987,0,0,1-.808.543c-.856.226-1.4-.4-1.327-1.454a4.179,4.179,0,0,0-2.317-4.1,4.276,4.276,0,0,0-4.726.638,4.262,4.262,0,0,0-1.106,4.527,4.143,4.143,0,0,0,3.8,2.753c.222,0,.445,0,.666-.011a1.149,1.149,0,0,1,.885,2.053q-3.04,3.044-6.078,6.09c-.166.166-.32.343-.591.635a7.606,7.606,0,0,1,.732.567q2.858,2.849,5.7,5.714a3.578,3.578,0,0,1,.527.6,1.085,1.085,0,0,1-.858,1.667c-.308.022-.621-.031-.931-.026a4.226,4.226,0,1,0,4.284,3.857,1.217,1.217,0,0,1,.622-1.4c.616-.3,1.059.013,1.472.431.506.512,1.019,1.018,1.677,1.675a5.628,5.628,0,0,1,1.385-4.508,5.289,5.289,0,0,1,4.227-1.74,5.42,5.42,0,0,1,5.161,5.123m.723,2.619-.214-.065c-.192.369-.537.734-.549,1.109-.058,1.755-.057,3.513-.015,5.269a5.319,5.319,0,0,0,4.947,5.185c.807.062,1.363-.29,1.376-1,.035-1.954.012-3.908.012-5.9a6.588,6.588,0,0,1-5.557-4.607" transform="translate(-70.168 0)" fill="#12263f"/><path d="M423.649,152.636a1.4,1.4,0,0,1-1.462.8c-1.906-.03-3.813-.007-5.719-.012-.846,0-1.333-.4-1.333-1.059s.491-1.054,1.335-1.056c1.929,0,3.858.016,5.786-.011a1.365,1.365,0,0,1,1.394.8Z" transform="translate(-359.688 -131.092)" fill="#12263f"/><path d="M4.2,153.465c-1,0-2,.009-3,0a1.064,1.064,0,1,1-.007-2.11q3.062-.015,6.125,0a1.06,1.06,0,1,1,.007,2.108c-1.043.015-2.086,0-3.129,0" transform="translate(0 -131.13)" fill="#12263f"/><path d="M414.061,247.532c-.029,1.023-.822,1.507-1.543,1.145s-1.428-.8-2.137-1.212c-1.093-.631-2.189-1.258-3.276-1.9-.682-.4-.883-.993-.555-1.547s.92-.663,1.62-.263c1.73.988,3.464,1.972,5.17,3a3.27,3.27,0,0,1,.72.777" transform="translate(-352.117 -210.991)" fill="#12263f"/><path d="M15.862,34.526a9.64,9.64,0,0,1,.9.382q2.572,1.47,5.132,2.958a1.115,1.115,0,0,1,.6,1.546,1.073,1.073,0,0,1-1.613.3c-1.753-1-3.5-2.017-5.246-3.028-.465-.269-.8-.68-.593-1.2a3.852,3.852,0,0,1,.827-.958" transform="translate(-12.972 -29.915)" fill="#12263f"/><path d="M414.143,36.84a2.31,2.31,0,0,1-.57.7c-1.806,1.086-3.634,2.136-5.468,3.175a1.027,1.027,0,0,1-1.45-.352,1.046,1.046,0,0,1,.44-1.48c1.8-1.057,3.6-2.108,5.416-3.132a1.082,1.082,0,0,1,1.631,1.087" transform="translate(-352.209 -30.84)" fill="#12263f"/><path d="M22.654,244.781a2.517,2.517,0,0,1-.609.74c-1.782,1.075-3.589,2.109-5.4,3.137a1.041,1.041,0,0,1-1.5-.34,1.028,1.028,0,0,1,.452-1.471c1.794-1.056,3.592-2.1,5.4-3.129a1.089,1.089,0,0,1,1.655,1.063" transform="translate(-12.988 -211.023)" fill="#12263f"/></g></g></g></g><text transform="translate(427 5655)" fill="#12263f" font-size="18" font-family="Roboto-Black, Roboto" font-weight="800"><tspan x="0" y="0">INICIO</tspan></text><text transform="translate(727 5655)" fill="#12263f" font-size="18" font-family="Roboto-Black, Roboto" font-weight="800"><tspan x="0" y="0">DESAROLLO Y NUDO</tspan></text><text transform="translate(1014 5655)" fill="#12263f" font-size="18" font-family="Roboto-Black, Roboto" font-weight="800"><tspan x="0" y="0">Desenlace</tspan></text><text transform="translate(427 5674)" fill="#12263f" font-size="16" font-family="Roboto-Regular, Roboto"><tspan x="0" y="17">Se nos presentan los </tspan><tspan x="0" y="40">personajes y otros </tspan><tspan x="0" y="63">detalles.</tspan></text><text transform="translate(727 5674)" fill="#12263f" font-size="16" font-family="Roboto-Regular, Roboto"><tspan x="0" y="17">Se desarrolla el </tspan><tspan x="0" y="40">conflicto. Se genera la </tspan><tspan x="0" y="63">tensión y suceden los </tspan><tspan x="0" y="86">hechos más </tspan><tspan x="0" y="109">importantes.</tspan></text><text transform="translate(1014 5674)" fill="#12263f" font-size="16" font-family="Roboto-Regular, Roboto"><tspan x="0" y="17">Se resuelve el </tspan><tspan x="0" y="40">conflicto. Aquí se suele </tspan><tspan x="0" y="63">dar el climax.</tspan></text><line x2="778.94" transform="translate(403.86 5835.773)" fill="none" stroke="#e8e8e8" stroke-miterlimit="10" stroke-width="2"/><path d="M90.017,157.031a7.2,7.2,0,1,1-7.2-7.2,7.2,7.2,0,0,1,7.2,7.2" transform="translate(418.95 5678.742)" fill="#fb8c00"/><path d="M297.017,157.031a7.2,7.2,0,1,1-7.2-7.2,7.2,7.2,0,0,1,7.2,7.2" transform="translate(509.992 5678.742)" fill="#fb8c00"/><path d="M501.017,157.031a7.2,7.2,0,1,1-7.2-7.2,7.2,7.2,0,0,1,7.2,7.2" transform="translate(599.714 5678.742)" fill="#fb8c00"/><text transform="translate(239 5703)" fill="#1565c0" font-size="16" font-family="Roboto-Black, Roboto" font-weight="800"><tspan x="0" y="0">SITUACIÓN INICIAL</tspan></text><text transform="translate(444 5869)" fill="#12263f" font-size="16" font-family="Roboto-Black, Roboto" font-weight="800"><tspan x="0" y="0">Había una vez…</tspan></text><text transform="translate(751 5869)" fill="#12263f" font-size="16" font-family="Roboto-Black, Roboto" font-weight="800"><tspan x="0" y="0">… entonces…</tspan></text><text transform="translate(1042 5869)" fill="#12263f" font-size="16" font-family="Roboto-Black, Roboto" font-weight="800"><tspan x="0" y="0">…finalmente...</tspan></text><text transform="translate(1238 5703)" fill="#1565c0" font-size="16" font-family="Roboto-Black, Roboto" font-weight="800"><tspan x="0" y="0">SITUACIÓN FINAL</tspan></text><text transform="translate(277 5782)" fill="#12263f" font-size="16" font-family="Roboto-Regular, Roboto"><tspan x="0" y="0">RUPTURA DEL</tspan><tspan x="0" y="18">EQUILIBRIO</tspan></text><text transform="translate(1239 5782)" fill="#12263f" font-size="16" font-family="Roboto-Regular, Roboto"><tspan x="0" y="0">VUELTA AL </tspan><tspan x="0" y="18">EQUILIBRIO</tspan></text><g transform="translate(537.526 5720.005)"><g transform="translate(0 0)" clip-path="url(#d)"><path d="M5.51,1.8a6.916,6.916,0,0,0,.712,9.668c2.035,1.832,2.239,2.646,1.425,4.274A9.786,9.786,0,0,0,6.63,20.524c0,1.73-.509,3.155-1.425,3.562-.814.305-1.425.916-1.425,1.425,0,1.425,6.31.1,8.04-1.73.916-.916,1.018-1.425.407-1.018-1.832,1.018-1.628-.916.2-2.442,1.221-1.018,1.527-1.018,1.628.1,0,.814.509.2,1.018-1.323,1.323-3.46,3.664-4.376,4.987-1.832.611,1.221,2.646,2.137,5.6,2.646,2.544.305,4.885,1.119,5.19,1.628s1.119.509,1.934-.2c1.73-1.425,3.053.407,2.035,2.85-.509,1.425-.712,1.425-1.527.2s-1.018-1.018-1.018.712c0,2.748,2.646,2.137,3.562-.814.916-2.646-1.119-4.987-4.478-5.088-1.425,0-2.035-.305-1.425-.611,1.018-.305.916-1.119-.2-3.358C28.1,12.077,26.373,11.161,22,11.161a14.549,14.549,0,0,1-5.088-1.018C14.771,8.922,14.262,5.462,16.3,4.75c.814-.305.712-1.018-.712-2.646C13.143-.542,7.851-.746,5.51,1.8M10.6,6.276c-.305.712-.509.2-.509-1.221s.2-1.934.509-1.323a5.372,5.372,0,0,1,0,2.544M7.342,9.126q.763,2.6-.305,1.527A11.575,11.575,0,0,1,5.307,7.09q-.763-2.6.305-1.527a10.494,10.494,0,0,1,1.73,3.562m8.243,3.257c.407.712.305,1.018-.1.509-.509-.407-1.527.712-2.239,2.442-.712,1.832-1.628,2.951-2.035,2.544-.407-.305-.1-1.221.509-1.832a4.8,4.8,0,0,0,1.221-3.053c0-2.137,1.527-2.442,2.646-.611m11.4,4.376c.916.916-3.46-.2-6.615-1.73-1.323-.611-2.341-1.527-2.341-1.934,0-.814,7.633,2.239,8.956,3.664m.305-2.85c1.323,1.527,1.221,1.527-1.119.305-3.46-1.73-3.664-2.035-1.832-2.035a4.141,4.141,0,0,1,2.951,1.73m-17.1,2.341A5.491,5.491,0,0,1,8.563,19c-.509.305-.814.2-.509-.305a15.105,15.105,0,0,0,1.119-2.748c.916-2.442,1.628-2.239,1.018.305" transform="translate(0.067 0)" fill="#12263f"/><path d="M21.78,24.374a5.835,5.835,0,0,0,1.832,1.73c1.527,1.323,1.628,1.221.305-.407s-2.137-2.137-2.137-1.323" transform="translate(0.385 0.425)" fill="#12263f"/><path d="M3.78,27.672A9.242,9.242,0,0,0,5.815,29c1.527.814,2.035.814,2.035-.305,0-.712-.916-1.323-2.035-1.323s-2.035.1-2.035.305" transform="translate(0.067 0.484)" fill="#12263f"/><path d="M19.78,28.876c0,.916,4.885,1.221,5.5.305.2-.407-.916-.712-2.544-.814s-2.951.2-2.951.509" transform="translate(0.35 0.502)" fill="#12263f"/><path d="M31.015,29.184c-.1,2.035-4.58,5.394-6.106,4.478-1.628-1.018-2.341,2.85-.712,4.071a4.417,4.417,0,0,1,1.628,3.257,3.83,3.83,0,0,0,1.018,2.748c1.221.712.407-3.765-1.119-6.819-.712-1.221-.407-1.832,1.018-2.341,2.646-.814,5.5-4.173,4.885-5.8-.407-.916-.611-.712-.611.407" transform="translate(0.412 0.499)" fill="#12263f"/><path d="M8.657,32.584a5.355,5.355,0,0,1,.1,3.969,30.266,30.266,0,0,0-.814,7.531c-.1,4.58-.407,5.292-1.73,4.783-1.527-.611-1.527-.407-.305,1.119S7.131,51.615,5.5,51c-1.527-.611-1.628-.407-.712,1.323A4,4,0,0,1,5.3,55.381c-.305.611-.2,1.018.2,1.018.509,0,.712,1.934.509,4.173-.305,3.257-.1,4.071.814,3.46,1.018-.611,1.221.1.712,3.46-.611,5.088.2,9.057,1.425,7.022.712-1.018.916-.814.916.611,0,1.527-.611,1.73-2.951,1.425-3.867-.611-3.053.814.916,1.73,1.73.407,3.053,1.221,3.053,1.832,0,.814.305.916.814.2,1.119-1.73,6.31-1.73,6.92,0,.407.814,1.018,1.527,1.628,1.527.509,0,.712-.407.305-1.018-.305-.509.916-1.425,2.748-1.934,2.646-.712,2.85-.916,1.018-1.018a13.289,13.289,0,0,1-4.478-1.221c-1.527-.814-1.934-.814-1.425,0,.407.611,0,1.119-.814,1.119-.916,0-1.628-.509-1.628-1.018,0-.611-1.119-.814-2.544-.407-2.341.611-2.544.407-2.544-3.053,0-2.239-.509-3.664-1.221-3.664-.916,0-1.018-.305-.2-.814C11,67.8,12.219,62.5,10.9,62.5c-.509,0-1.018-1.425-1.018-3.155s-.407-2.85-1.018-2.442c-.509.305-1.018-.305-1.018-1.425,0-2.951,2.035-2.646,4.885.611,1.323,1.628,1.832,2.035,1.221.814-.509-1.119-1.527-3.358-2.137-5.088-.611-1.832-1.323-2.544-1.73-1.832s-.611-2.035-.509-6c.2-3.969.509-7.531.814-7.734.305-.305,2.035-.1,3.867.407a11.409,11.409,0,0,0,5.8.305c2.137-.611,1.934-.712-1.425-.814A13.406,13.406,0,0,1,11.1,33.4c-2.748-2.137-3.257-2.341-2.442-.814" transform="translate(0.074 0.559)" fill="#12263f"/><path d="M17.78,33.375c0,.2.712.712,1.628,1.018.814.305,1.221.2.916-.407-.611-1.018-2.544-1.425-2.544-.611" transform="translate(0.315 0.583)" fill="#12263f"/><path d="M65.547,36.692c-3.46,1.628-5.19,4.376-2.85,4.376.814,0,1.425-.509,1.323-1.221-.407-1.425,4.071-3.867,5.9-3.155,2.85,1.119,1.323,12.518-2.442,18.318-1.119,1.832-1.832,2.137-3.46,1.221a8.9,8.9,0,0,1-3.053-3.765c-.611-1.73-1.221-2.239-1.527-1.425s.611,2.646,1.934,4.071c4.173,4.58,3.257,5.7-4.783,6.31-6.717.509-7.124.611-6.819,2.748.2,1.628-.2,2.341-1.425,2.341-1.119,0-1.527-.611-1.119-2.035.712-2.646-1.934-2.748-3.358-.1a14.549,14.549,0,0,0-1.018,5.088c0,2.646-.407,3.053-3.257,3.46-1.832.2-.712.407,2.442.407,5.7,0,5.8,0,4.376-2.137-2.035-2.85-1.934-4.58.305-4.071a7.352,7.352,0,0,0,4.274-.509c1.425-.509,1.934-1.018,1.323-1.018a1.52,1.52,0,0,1-1.323-1.425c0-1.119,2.137-1.425,9.159-1.323,5.088.1,9.159-.2,9.159-.712,0-.916,4.274-.916,6.513-.1.916.305,1.628,1.119,1.628,1.628,0,1.934,5.5,16.385,5.8,15.367.2-.509-.814-4.274-2.239-8.142a55.849,55.849,0,0,1-2.544-8.345c0-.611,1.73-2.035,3.969-3.053,4.071-2.137,10.279-9.465,10.279-12.314,0-2.035-5.5-7.327-9.668-9.465-4.681-2.341-8.04-3.155-7.226-1.832.407.611.2,1.119-.305,1.119-.611,0-1.119-.407-1.119-.814,0-1.527-5.5-1.119-8.854.509m16.792,2.341c5.292,2.85,8.65,5.9,7.836,7.124-.407.712-1.832-.1-3.562-2.035-1.832-2.035-3.358-2.951-4.173-2.442-.814.407-1.018.305-.509-.407.407-.712.509-1.221.2-1.221A12.167,12.167,0,0,1,80.1,39.44c-1.221-.509-1.527-.2-1.018,1.221.611,1.73.509,1.73-.916-.1-3.257-4.071-1.628-4.681,4.173-1.527m-7.429,0c.305.509.1,1.018-.407,1.018a1.115,1.115,0,0,1-1.119-1.018c0-.611.2-1.018.407-1.018.305,0,.814.407,1.119,1.018M84.577,43.1c0,.509-.712,1.018-1.527,1.018a1.684,1.684,0,0,0-1.527,1.73c0,1.527-.2,1.628-1.018.305-.712-1.119-.305-1.832,1.323-2.748,2.748-1.527,2.748-1.527,2.748-.305m-6.615,4.783c-.305,1.527-.1,2.341.712,2.442,1.018,0,1.018.2.1.611a2.323,2.323,0,0,0-1.323,2.137c0,1.425-.2,1.527-1.018.2-1.119-1.832-1.934-1.018-2.646,2.646A9.113,9.113,0,0,1,72.162,59.9c-.814.712-.916.509-.509-.611a3.4,3.4,0,0,0-.611-2.951c-.916-1.018-.916-1.119.1-.611.712.407,1.221.1,1.221-.814a1.98,1.98,0,0,0-1.119-1.832c-.814-.305-.712-.916.305-1.934A3.12,3.12,0,0,0,72.67,48.6c-.2-.712.305-1.425,1.221-1.832.916-.305,1.425-.2,1.119.2a2.526,2.526,0,0,0,.407,2.137c.611,1.018,1.018.814,1.527-1.018.509-1.425.305-2.544-.407-2.748a1.632,1.632,0,0,1-1.119-1.425c0-.611.611-.509,1.628.305a3.337,3.337,0,0,1,.916,3.664m1.119,11.195c-1.119,2.951-1.73.611-.916-3.358.712-3.664.814-3.765,1.119-1.119a12.174,12.174,0,0,1-.2,4.478m-2.951-1.527c-.305.814-.611.509-.611-.611-.1-1.119.2-1.73.509-1.323a2.062,2.062,0,0,1,.1,1.934M68.6,57.86c-.305.916-.814,1.425-1.018,1.119-.305-.305-.2-.916.2-1.527.916-1.628,1.527-1.323.814.407" transform="translate(0.685 0.624)" fill="#12263f"/><path d="M11.883,38.47c-.509,1.73.1,7.022.814,8.549.712,1.119.916,1.018,1.425-.305.407-.916.2-1.628-.305-1.628s-1.119-1.73-1.323-3.867c-.2-2.035-.509-3.358-.611-2.748" transform="translate(0.207 0.678)" fill="#12263f"/><path d="M14.78,39.985A1,1,0,0,0,15.7,41a2.183,2.183,0,0,0,1.628-1.018c.305-.611-.1-1.018-.916-1.018-.916,0-1.628.407-1.628,1.018" transform="translate(0.262 0.69)" fill="#12263f"/><path d="M56.79,43.981c-.916.611-.712,1.323.814,2.85,1.221,1.221,2.442,1.73,2.748,1.221.407-.611-.1-1.323-.916-1.628-.916-.305-1.628-1.119-1.628-1.628,0-.611.611-.814,1.323-.509a3,3,0,0,0,2.646-.305c.916-.509.407-.814-1.221-.814a9,9,0,0,0-3.765.814" transform="translate(0.995 0.764)" fill="#12263f"/><path d="M22.793,46.493c-1.119,1.323-1.018,1.425.407.916.916-.305,1.628-1.018,1.628-1.527,0-1.323-.611-1.119-2.035.611" transform="translate(0.39 0.797)" fill="#12263f"/><path d="M27.19,52.547c.611,2.544,1.221,4.173,1.425,3.562.611-1.628-.814-8.142-1.73-8.142-.407,0-.305,2.035.305,4.58" transform="translate(0.471 0.849)" fill="#12263f"/><path d="M64.282,49.985c-.305.509-.1,1.018.407,1.018a1.115,1.115,0,0,0,1.119-1.018c0-.611-.2-1.018-.407-1.018-.305,0-.814.407-1.119,1.018" transform="translate(1.135 0.867)" fill="#12263f"/><path d="M33.6,53.5c3.155,3.867,4.173,6.615,2.442,6.615a3.825,3.825,0,0,1-1.832-.916c-.509-.611-.916.1-1.018,1.934s.305,2.748.916,2.341.814,0,.407,1.018c-.509,1.425,0,1.73,2.85,1.425,2.544-.1,3.46-.611,3.053-1.527a8.6,8.6,0,0,1-.509-1.832c0-.305-.916,0-1.934.611-2.748,1.425-3.969-.712-1.527-2.544,2.137-1.527,4.478-.305,4.478,2.137,0,.814.509,1.425,1.018,1.425,2.442,0,.611-3.053-5.292-8.65-4.58-4.58-5.394-5.088-3.053-2.035" transform="translate(0.572 0.913)" fill="#12263f"/><path d="M1.282,53.985c-.305.611.1.712.916.407,1.832-.712,2.137-1.425.712-1.425a1.935,1.935,0,0,0-1.628,1.018" transform="translate(0.021 0.937)" fill="#12263f"/><path d="M1.3,56.982c-1.628.712-1.73.916-.305.916a2.785,2.785,0,0,0,2.341-.916c.712-1.119.712-1.119-2.035,0" transform="translate(0 0.994)" fill="#12263f"/><path d="M18.24,57.67c1.221,2.239-.407,3.664-2.239,2.137-1.527-1.221-1.628-1.119-.305.509a3.153,3.153,0,0,0,3.155,1.221,1.885,1.885,0,0,1,2.442,1.119c.407,1.221.2,1.527-.916,1.018-1.73-.611-2.137.916-.407,2.035.611.305,1.832-.1,2.748-1.018,1.527-1.527,1.425-1.934-1.73-4.987-1.934-1.73-3.155-2.646-2.748-2.035" transform="translate(0.261 1.017)" fill="#12263f"/><path d="M59.78,58.985A1.094,1.094,0,0,0,60.8,60a1.02,1.02,0,0,0,1.018-1.018A.961.961,0,0,0,60.8,57.967a1.02,1.02,0,0,0-1.018,1.018" transform="translate(1.058 1.026)" fill="#12263f"/><path d="M28.98,60.994c0,1.425.2,1.934.509,1.221a5.372,5.372,0,0,0,0-2.544c-.305-.611-.509-.1-.509,1.323" transform="translate(0.513 1.052)" fill="#12263f"/><path d="M71.9,62.476a29.133,29.133,0,0,0,1.527,4.173,42.952,42.952,0,0,1,2.137,10.177c.611,6.106.509,6.513-1.323,6.513a38.972,38.972,0,0,0-5.19.611c-2.442.509-3.155.2-3.562-1.221-.407-1.628-.509-1.527-.611.305-.1,1.73.509,2.341,1.934,2.341,1.119,0,2.035.712,2.035,1.527a1.565,1.565,0,0,1-1.527,1.527c-.814,0-1.527.407-1.527,1.018,0,2.035,4.58.305,4.885-1.832.509-3.46,3.46-2.85,3.053.509-.2,2.035.2,2.951,1.527,3.155.916.2,1.73-.1,1.73-.712s-.814-.814-1.73-.407c-1.73.611-1.73.509,0-1.425a11.892,11.892,0,0,1,5.8-2.748c4.478-.712,5.394-1.527,3.969-3.664-.712-1.323-.916-1.221-.916.2a1.791,1.791,0,0,1-1.934,1.832,11.094,11.094,0,0,0-3.358.509c-1.018.407-1.323-.916-1.425-5.5a32.635,32.635,0,0,0-1.221-8.956,36.482,36.482,0,0,1-1.628-5.7c-.407-1.527-1.119-2.748-1.628-2.748-.611,0-1.018.2-1.018.509" transform="translate(1.148 1.097)" fill="#12263f"/><path d="M61.515,65.674c4.478.305,5.292.712,5.7,2.646l.407,2.239.2-2.239a2.73,2.73,0,0,1,2.442-2.646c1.221-.2-1.425-.407-5.9-.407-5.292.1-6.31.2-2.85.407" transform="translate(1.053 1.155)" fill="#12263f"/><path d="M5.08,69.514c0,2.239.2,3.053.407,1.73a13.627,13.627,0,0,0,0-4.071c-.305-.916-.509.1-.407,2.341" transform="translate(0.089 1.183)" fill="#12263f"/><path d="M29.933,68.084a2.966,2.966,0,0,1-1.73,2.341c-1.119.407-1.527,1.628-1.221,4.376.305,3.562.712,4.071,4.885,5.6,7.938,3.155,12.009,2.137,14.858-3.562l1.628-3.257L45.5,76.938c-4.071,4.58-8.752,5.088-13.942,1.527-4.885-3.46-4.58-5.7.814-6.411,2.951-.407,3.562-.712,2.239-1.221a8.465,8.465,0,0,0-2.442-.712c-.407,0-1.018-.814-1.425-1.832-.611-1.527-.814-1.527-.814-.2" transform="translate(0.476 1.188)" fill="#12263f"/><path d="M65.98,77.994c0,1.425.2,1.934.509,1.221a5.372,5.372,0,0,0,0-2.544c-.305-.611-.509-.1-.509,1.323" transform="translate(1.167 1.352)" fill="#12263f"/><path d="M13.319,84.1c.712,2.137.611,2.239-.916,1.018-1.425-1.221-1.628-1.221-1.018.305.611,1.628,3.969,2.239,4.783.814.2-.407-.509-1.527-1.628-2.544-1.934-1.934-1.934-1.832-1.221.407" transform="translate(0.196 1.457)" fill="#12263f"/><path d="M19.488,83.576a1.548,1.548,0,0,1,.611,2.035c-.407,1.018.2,1.425,2.137,1.425,1.425,0,2.646-.305,2.646-.611,0-1.119-3.46-3.358-5.088-3.358-.916,0-1.018.2-.305.509" transform="translate(0.337 1.47)" fill="#12263f"/></g></g><g transform="translate(843.853 5726.21)"><g clip-path="url(#e)"><path d="M71.32,4.07c-2.3,4.517-3.779,5.715-7.005,5.715-1.29,0-2.12-1.106-2.857-3.687L60.351,2.318,59.245,4.991c-2.028,4.609-2.4,7.19-.553,3.41,1.014-2.028,1.936-3.042,2.028-2.3.645,4.056.461,6.176-.461,6.176-2.765-.092-4.517.369-3.963.83.369.369-.461,1.843-1.659,3.318-1.29,1.475-2.3,3.318-2.3,4.056s-1.843,5.07-4.148,9.678c-2.3,4.517-3.963,8.664-3.687,9.125.737,1.106,5.162-1.106,7.005-3.41,1.106-1.383.922-1.383-.83.092-1.936,1.659-2.028,1.659-1.475.184a2.149,2.149,0,0,0-.277-2.3c-.922-.553,1.383-6.452,5.991-15.67,1.659-3.41,4.24-5.53,5.438-4.424.369.461.092,1.106-.553,1.475-.83.553-.922,1.014-.184,1.383.553.369,1.014.184,1.014-.461,0-.737.737-.461,1.843.553,1.751,1.659,1.843,1.567,2.4-1.2.83-3.871,2.489-5.254,4.885-3.963,1.106.645,1.659,1.567,1.383,2.4-.461,1.014-.184,1.2.922.83.83-.369,1.383-.83,1.106-1.106-.277-.184.277-1.567,1.29-2.857,1.29-1.936,1.567-3.41,1.2-6.36-.277-2.212-.83-4.148-1.29-4.424C73.9-.17,72.61,1.581,71.32,4.07m3.318,1.2c.277,3.226.184,3.5-.83,2.12-.645-.922-1.2-1.2-1.2-.737a7.811,7.811,0,0,1-1.29,2.765c-1.2,1.475-1.2,1.106,0-2.3,2.3-6.913,2.765-7.1,3.318-1.843" transform="translate(-3.48 0)" fill="#12263f"/><path d="M78.522,12.533a3.117,3.117,0,0,0-1.014,3.226c.461,1.2.369,1.475-.369,1.014s-.922-.184-.461.83c.737,2.212,2.212-.277,1.567-2.765l-.461-1.843,1.2,1.843c1.014,1.567,3.5,2.95,3.5,1.936,0-.184-.553-1.567-1.106-3.042-1.106-2.581-1.29-2.673-2.857-1.2" transform="translate(-5.981 -0.906)" fill="#12263f"/><path d="M68,15.537a1.01,1.01,0,0,0,1.014.922c.461,0,.645-.461.369-.922-.277-.553-.737-.922-1.014-.922-.184,0-.369.369-.369.922" transform="translate(-5.322 -1.144)" fill="#12263f"/><path d="M79,20.83c0,1.29.461,2.581,1.014,2.857,1.383.922,1.659.369,1.106-2.581C80.475,17.972,79,17.788,79,20.83" transform="translate(-6.183 -1.46)" fill="#12263f"/><path d="M74.694,22.213c.277.645.83.922,1.29.645s.553.092.277.83a1.575,1.575,0,0,0,1.106,1.936c1.106.461,1.383.184.922-.922a9.281,9.281,0,0,1-.553-2.581c0-.553-.737-1.106-1.751-1.106s-1.567.461-1.29,1.2" transform="translate(-5.84 -1.645)" fill="#12263f"/><path d="M64.008,27.218c-1.843,1.843-4.885,4.7-6.913,6.36L53.5,36.619l4.148-3.042c5.991-4.424,12.167-9.955,10.784-9.863-.553.092-2.581,1.659-4.424,3.5" transform="translate(-4.187 -1.856)" fill="#12263f"/><path d="M73,27.674c0,1.843.461,3.595,1.014,3.871.645.461.737-.461.277-2.95-.83-4.7-1.29-4.977-1.29-.922" transform="translate(-5.713 -1.944)" fill="#12263f"/><path d="M83.1,27.1c0,1.014.277,1.29.553.553a1.867,1.867,0,0,0-.092-1.751c-.277-.369-.553.184-.461,1.2" transform="translate(-6.502 -2.018)" fill="#12263f"/><path d="M69.423,28.1c.277,1.014.83,2.765,1.106,3.963.369,1.29.277,1.936-.277,1.567-.461-.277-1.106-1.843-1.475-3.5-.461-2.4-.83-2.765-1.475-1.659a6.9,6.9,0,0,0-.922,3.042,15.924,15.924,0,0,1-1.843,5.162,72.988,72.988,0,0,0-3.595,10.139L59.1,53.447l3.226,3.595c3.226,3.5,3.5,6.176.553,5.07-1.2-.461-1.106-.184.277,1.383,1.751,1.936,2.857,2.489,1.843,1.014a1.121,1.121,0,0,1,.461-1.475c.461-.277,1.106.645,1.383,2.028,1.014,4.517,2.4,6.729,1.659,2.581a42.347,42.347,0,0,1-.461-6.452c.092-2.12-.092-2.4-.737-1.383s-.922.645-.922-1.475c0-3.595,2.3-5.991,3.134-3.318a25.879,25.879,0,0,1,.553,6.268,65.006,65.006,0,0,0,.737,9.955c1.2,7.65-.922,17.513-3.963,18.619-2.489,1.014-2.489-.184,0-3.779,1.936-2.857,2.3-4.517,2.212-9.125l-.184-5.623-.645,5.715c-.645,6.176-4.424,13.181-6.913,13.181-.737,0-1.383.461-1.383,1.014,0,.645,1.014.83,2.489.553a9.423,9.423,0,0,1,4.977.737c1.843,1.014,3.779,1.106,8.757.369,3.5-.461,6.729-1.29,7.282-1.843,1.106-1.106,4.056-15.762,4.056-20.923.092-2.857.553-4.056,1.751-4.424C98,62.849,100.394,59.07,101.316,46.442c.645-9.4,0-12.812-1.659-8.48a18.2,18.2,0,0,0-1.014,3.318,14.672,14.672,0,0,1-2.765,3.779L93.2,48.286l.553-7.558.553-7.65-5.254-2.3a59.159,59.159,0,0,0-5.623-2.3c-.277,0-.461,1.659-.461,3.779,0,2.581.369,3.5,1.106,3.042s.922,1.383.461,7.005c-.277,4.332-.922,7.927-1.567,8.3-.83.461-.83,1.2-.092,2.489.461,1.014.83,4.977.737,8.849s.184,6.636.553,6.268c1.014-1.014,1.383-13.918.461-14.471-.83-.553.092-5.991,1.2-7.282.461-.461.83,2.212.83,6.176,0,6.36.184,7.1,1.936,7.65,1.475.553,1.659.83.737,1.383a2.2,2.2,0,0,1-1.843.461c-.277-.277-.83,2.857-1.106,6.913C85.554,79.9,83.8,88.658,82.236,89.948a6.322,6.322,0,0,1-3.318,1.2c-1.567,0-1.659-.184-.645-.83,2.3-1.475,2.4-11.706.184-17.605-1.106-2.95-1.751-3.871-1.383-2.212.369,2.4.092,2.95-1.475,3.41-1.475.369-1.843.184-1.475-.83.277-.83.184-1.106-.461-.83a1.642,1.642,0,0,0-.461,1.936c.277.737.092,1.29-.369,1.29-1.014,0-1.2-2.765-.369-4.977a1.5,1.5,0,0,1,1.936-.83c1.014.369,1.29.184.83-.461-.369-.553,0-2.212.737-3.595,1.2-2.212,1.383-2.3,1.475-.737.092,1.751.092,1.751,1.014.092.737-1.2.737-1.843-.092-2.4-.737-.461-.645-.83.369-1.2.922-.369,1.475-1.659,1.475-3.41,0-1.475.461-2.765.922-2.765.553,0,.922-.645.922-1.475,0-1.29-.184-1.383-1.567-.277-1.383,1.2-1.383,1.106-.369-.737,1.659-3.318,2.12-20.278.461-21.845a5.729,5.729,0,0,1-1.383-3.042c0-1.475-.092-1.475-.83.184-1.2,2.765-1.106,4.148.277,3.595.922-.369,1.29,1.2,1.29,7.005.092,5.991-.277,7.835-1.751,9.678-1.29,1.659-1.475,2.673-.83,3.963.553,1.014.553,3.042-.092,5.715-1.659,7.19-2.581,8.849-4.424,8.849-1.659,0-1.843-.645-1.843-5.715,0-3.226.553-6.821,1.383-8.3a7.331,7.331,0,0,0,.83-4.332c-.461-1.383,1.475-4.424,2.857-4.332,1.843.092,2.3-.092,2.3-1.014,0-.645-.922-.83-2.3-.553-1.843.277-2.3.092-2.12-1.106.184-.83.737-1.475,1.2-1.475A8.485,8.485,0,0,0,77.9,38.884c1.567-.922,1.567-1.106.277-1.2a2.328,2.328,0,0,0-1.936,1.106c-.277.645-.369-1.106-.184-3.963s-.092-5.807-.553-6.452c-.553-.922-.83-.645-.737,1.014a39.366,39.366,0,0,1-.922,7.374c-.553,2.765-1.2,6.637-1.475,8.48-.645,4.332-3.226,4.885-3.226.737,0-1.567.369-2.765.83-2.765s.645.922.277,2.028c-.277,1.2-.092,1.751.461,1.383s1.014-2.765,1.014-5.254c.092-2.673-.277-4.424-.83-4.148-.461.369-.83.092-.83-.461s.645-1.2,1.383-1.475c1.014-.461,1.106-1.014.461-2.212a8.322,8.322,0,0,1-.922-3.595,3.293,3.293,0,0,0-1.014-2.489q-.968-.553-.553,1.106M89.7,32.893a5,5,0,0,1,1.567,2.12c0,.461-.737.461-1.567.184-1.383-.553-1.475-.369-.553.737.83,1.014.645,1.29-1.29,1.475-1.475,0-1.936-.184-1.29-.645.922-.461.83-.83-.277-1.2a3.275,3.275,0,0,1-1.475-2.857c0-1.843.369-2.212,1.659-1.751A13.579,13.579,0,0,1,89.7,32.893M68.225,37.317V44.6c0,4.793-.184,5.254-1.383,4.148-1.014-1.106-1.106-2.212-.461-5.07a22.248,22.248,0,0,0,.369-6.913c-.461-2.489-.369-2.95.461-2.212a3.681,3.681,0,0,1,1.014,2.765M91.729,41c-.83.83-1.659,1.29-1.936,1.014-.277-.184.184-1.106,1.014-1.843a5.779,5.779,0,0,0,1.475-3.134c.092-1.2.277-1.106.553.461A4.479,4.479,0,0,1,91.729,41M88.5,42.939c0,3.226-.277,4.056-.922,3.042-1.2-1.843-1.2-7.374,0-7.374.553,0,.922,1.936.922,4.332m9.217,3.871c-1.567,2.489-3.5,4.793-4.332,5.07-.83.369-1.2.83-.922,1.2.369.277.184,1.106-.369,1.751-.83,1.014-.645,1.383.461,1.843,1.475.553,1.475.737,0,2.3-1.751,1.936-.553,2.489,1.29.645.83-.83,1.106-.83,1.106.184,0,.737.737-.092,1.659-1.843,2.028-3.871,1.567-5.346-.83-3.134-2.765,2.489-2.857,1.014-.092-2.028a28.725,28.725,0,0,0,3.595-4.977l1.106-2.3v2.489c.184,6.083-5.162,16.13-7.927,15.116a1.347,1.347,0,0,0-1.659.369,2.7,2.7,0,0,1-2.12.922c-1.383-.092-1.29-.277.277-1.475,1.014-.737,1.843-1.751,1.843-2.212a2.258,2.258,0,0,1,.737-1.475c1.567-1.567.461-2.4-1.2-.83-1.014.922-1.843,1.383-1.843.922,0-.369.737-1.29,1.659-1.936,1.106-.922,1.2-1.2.277-1.29-.922,0-.922-.461.369-2.4,1.383-2.12,1.383-2.489.092-4.517a9.193,9.193,0,0,1-1.475-3.687c0-1.383.184-1.383,1.383-.092a4.925,4.925,0,0,1,1.383,2.765c0,.83.369,1.475.83,1.475,1.29,0,6.544-6.637,6.637-8.3,0-.922.184-1.014.553-.184.277.645-.83,3.134-2.489,5.623M64.17,46.719c-1.106,1.106-1.659-.737-.922-3.226l.737-2.581.369,2.581a6.347,6.347,0,0,1-.184,3.226m.369,5.438c0,2.581-.277,3.134-.922,2.12-.737-1.106-.922-1.106-.922-.092s-.277,1.014-1.29.092c-1.475-1.106-.922-4.056.461-3.134.461.277,1.106-.184,1.383-.922.922-2.3,1.29-1.751,1.29,1.936m6.176.461c-.277.737-.553.461-.553-.553-.092-1.014.184-1.567.461-1.2a1.867,1.867,0,0,1,.092,1.751m19.633-.737c0,.277-.369.737-.922,1.014-.461.277-.922.092-.922-.369a1.01,1.01,0,0,1,.922-1.014c.553,0,.922.184.922.369M79.01,58.148c-.277.737-.553.461-.553-.553-.092-1.014.184-1.567.461-1.2a1.867,1.867,0,0,1,.092,1.751m-13.55-.184c0,.461-.184.922-.369.922-.277,0-.737-.461-1.014-.922-.277-.553-.092-.922.369-.922a.947.947,0,0,1,1.014.922m13.273,18.9C79.194,78.8,78.549,89.3,77.9,89.3c-.092,0-1.843.645-3.779,1.475L70.53,92.252l1.659-1.843c1.659-1.843,1.659-1.843-.369-1.383-1.843.461-1.936.277-1.383-1.659.277-1.2,1.014-4.24,1.567-6.637.737-3.134,1.567-4.7,2.95-5.254,2.95-1.2,3.134-1.106,3.779,1.383" transform="translate(-4.625 -2.093)" fill="#12263f"/><path d="M88,32.982c0,.184.645.645,1.475.922.737.277,1.106.184.83-.369-.553-.922-2.3-1.29-2.3-.553" transform="translate(-6.887 -2.551)" fill="#12263f"/><path d="M95.487,64.537c-.277.461-.184.922.369.922a2.153,2.153,0,0,0,1.475-.922c.277-.553.184-.922-.369-.922a1.88,1.88,0,0,0-1.475.922" transform="translate(-7.461 -4.979)" fill="#12263f"/><path d="M11.522,34.842C7.19,36.87,0,48.115,0,53.093c0,1.936,6.452,5.991,10.876,6.913,1.659.369,3.226.922,3.41,1.29.83,1.383-1.383,10.6-3.687,15.3-2.673,5.438-2.857,6.821-.922,6.821a3.428,3.428,0,0,1,2.3,1.751,4.719,4.719,0,0,0,3.41,2.12c2.212.277,2.581.737,2.857,3.779.277,3.687,2.3,5.346,4.148,3.5.737-.737.737-1.014-.184-1.014-.83,0-1.106-.83-.83-2.3.277-1.29.184-2.3-.277-2.3-.369,0-.922.922-1.106,2.028-.369,1.843-.369,1.751-.553-.461-.092-2.12.277-2.489,2.212-2.489,2.028,0,2.3.369,2.3,3.226,0,3.5,2.028,5.254,3.963,3.318.737-.737.645-1.014-.553-1.014a1.6,1.6,0,0,1-1.567-1.751,11.8,11.8,0,0,0-.553-3.226c-.83-2.212,1.751-1.843,5.53.737,2.765,1.843,3.871,2.12,6.729,1.383,5.07-1.106,10.508-8.2,6.36-8.2-.737,0-1.751-1.29-2.3-2.765a6.56,6.56,0,0,0-1.29-2.765c-.184,0-.277,1.2-.092,2.765.277,2.673.184,2.765-3.318,2.765-2.028,0-3.687-.369-3.687-.83,0-1.2,2.4-2.95,3.779-2.673.737.184,1.29-.461,1.29-1.567a2.045,2.045,0,0,0-1.936-2.12,6.883,6.883,0,0,1-3.41-1.843c-1.29-1.475-6.176-9.955-6.176-10.692,0-.922,3.226.184,3.318,1.106.277,2.212.369,2.4,1.475,1.29.83-.83.645-1.475-.553-2.857-1.567-1.659-1.567-1.843.092-2.765,1.475-.922,1.475-1.2.277-2.028-1.29-.922-1.2-1.567.83-5.623,1.936-3.963,2.12-5.07,1.29-8.111-.737-3.042-.645-3.779.83-4.977,3.41-2.95,2.12-3.41-14.01-4.7-4.056-.277-6.913-.092-8.757.737m4.793,3.134c-.277.922-.461.369-.461-1.106,0-1.567.184-2.212.461-1.659a6.965,6.965,0,0,1,0,2.765M28.758,36.5a7.62,7.62,0,0,0,4.148.277l2.581-.645-2.12,2.4c-1.843,2.028-2.028,2.581-1.106,4.424,1.014,1.751.922,2.3-.553,3.318a5.8,5.8,0,0,1-3.871.922c-1.106-.184-2.3,0-2.673.553-.369.645.922.737,3.687.369l4.24-.645-1.014,2.3c-.553,1.29-1.383,2.3-1.843,2.3-1.567,0-6.268-2.765-6.268-3.687,0-.553-.645-.922-1.383-.922-1.475,0-5.07-6.36-5.07-9.033,0-2.857,1.936-4.056,5.991-3.318A19.975,19.975,0,0,1,28.758,36.5m-16.407.369c-.369.737-.737,1.383-.922,1.383s-.369-.645-.369-1.383.369-1.383.922-1.383c.461,0,.645.645.369,1.383M9.586,44.428c-.184,3.871,0,7.466.461,8.019,1.29,1.751,2.028,6.083,1.014,6.083-1.751,0-9.4-3.963-9.863-5.07-.645-1.843,2.765-8.111,4.609-8.388,2.3-.277,3.226-1.29,1.29-1.29-.83,0-1.567-.184-1.567-.461a36.219,36.219,0,0,1,4.148-5.991c.092,0,0,3.226-.092,7.1M16.5,43.046c0,2.857-.092,2.857-.922.922-.461-1.2-.645-2.581-.277-3.042.922-1.475,1.29-.83,1.2,2.12m3.687,5.9a2.73,2.73,0,0,0-.369,2.4c.277.737,0,1.383-.645,1.383-.737,0-1.29-1.383-1.29-3.5-.184-3.134,0-3.41,1.567-2.4,1.106.645,1.383,1.383.737,2.12m-1.659,8.3c.645.737,1.29,1.106,1.567.83.277-.184-.092-1.014-.737-1.843s-.922-1.659-.553-2.028c.277-.277.553,0,.553.737,0,1.014.184,1.014.83.092.461-.83.737-.277.83,1.567.092,4.148-3.042,3.871-4.517-.369C15.854,54.475,14.748,53,14.1,53s-1.2-.737-1.2-1.659c0-1.29.184-1.383.922-.184.737,1.106.922.922,1.014-.922.092-1.751.369-1.383,1.383,1.751a19.5,19.5,0,0,0,2.3,5.254M23.5,53.646c1.475,3.5,1.383,4.793-.277,2.857-1.106-1.475-2.489-6.268-1.659-6.268.277,0,1.2,1.475,1.936,3.41m2.4-1.2c1.106-.645,4.793.553,4.056,1.29a2.3,2.3,0,0,1-3.41-.277c-.461-.553-.737-.369-.737.461,0,1.2-.092,1.2-.922,0a5.851,5.851,0,0,1-.83-2.3c0-.553.277-.369.553.277.184.553.83.922,1.29.553m-9.31,7.282c0,.461-.369.461-.922.184a2.862,2.862,0,0,1-.922-2.12c0-1.383.184-1.383.922-.184a6.332,6.332,0,0,1,.922,2.12m9.77,5.254a82.358,82.358,0,0,0,3.5,11.43,68.736,68.736,0,0,1,2.4,7.005c0,1.475-9.31,4.056-11.8,3.226-1.29-.369-1.475-1.383-1.29-4.793.461-6.637,1.106-7.743,2.4-3.963.645,1.751,1.567,3.134,2.212,2.95a18.88,18.88,0,0,0,2.212-.461c.553-.092,1.2.553,1.475,1.383.184,1.2-.184,1.475-1.659,1.2-1.29-.277-1.843,0-1.567.737.184.645,1.2,1.2,2.3,1.383q4.148.691-.277-8.572a48.08,48.08,0,0,1-3.134-10.692l-.922-5.9.277,5.807A27.628,27.628,0,0,0,24.7,75.03c1.936,3.595,1.843,4.7-.369,4.7-2.581,0-5.254-17.974-2.95-19.541,2.581-1.567,3.963-.277,4.977,4.793M30.878,71.8c1.29,1.936,2.12,4.24,1.843,4.977-.645,1.751-1.751.645-3.042-3.042a42.459,42.459,0,0,0-1.659-4.609c-.922-2.4-.092-1.659,2.857,2.673M18.343,74.661c-.092,2.12-.277,2.3-.553.645-.184-1.106-1.014-2.028-1.843-2.028a.88.88,0,0,0-.922,1.29c.277.737.092,1.475-.461,1.659-.645.277-.83,1.106-.461,2.028s1.2,1.475,1.936,1.2c1.567-.645,2.3,1.014,1.567,3.595-.553,1.936-.645,1.936-4.332.369L9.494,81.759l2.765-5.991c2.489-5.254,3.042-5.9,4.517-4.977a4.153,4.153,0,0,1,1.567,3.871m25.9,9.863c0,.461-1.014,1.843-2.3,2.95-2.673,2.489-8.757,3.134-8.757.922,0-.737-.369-1.29-.922-1.29a1.01,1.01,0,0,1-.922-1.014.508.508,0,0,1,.83-.461c.461.277,1.106-.184,1.475-1.106.645-1.475.737-1.383,1.383.277.645,1.475.83,1.567.83.277.092-2.3,8.388-2.857,8.388-.553" transform="translate(0 -2.66)" fill="#12263f"/><path d="M26,38.537a.991.991,0,0,0,.922.922.924.924,0,0,0,.922-.922.871.871,0,0,0-.922-.922.924.924,0,0,0-.922.922" transform="translate(-2.035 -2.944)" fill="#12263f"/><path d="M40,91.471a2.153,2.153,0,0,0,.922,1.475c.553.277.922.184.922-.369a1.88,1.88,0,0,0-.922-1.475c-.461-.277-.922-.184-.922.369" transform="translate(-3.131 -7.118)" fill="#12263f"/><path d="M79.1,36.1c0,1.014.277,1.29.553.553a1.867,1.867,0,0,0-.092-1.751c-.277-.369-.553.184-.461,1.2" transform="translate(-6.189 -2.723)" fill="#12263f"/><path d="M85.106,41.433c-.092,1.843-.369,4.793-.645,6.452L84,51.019l1.014-3.042a21.6,21.6,0,0,0,.553-6.452l-.369-3.41Z" transform="translate(-6.574 -2.983)" fill="#12263f"/><path d="M76.3,49.005c-1.659,1.29-1.659,1.29.369.737,1.106-.277,2.028-.83,2.028-1.29,0-1.106-.277-1.014-2.4.553" transform="translate(-5.877 -3.734)" fill="#12263f"/><path d="M76.471,57.4c-.369,1.567-.461,3.134-.184,3.318.184.277.645-.922,1.014-2.489.737-3.871,0-4.609-.83-.83" transform="translate(-5.958 -4.298)" fill="#12263f"/><path d="M73.559,58.018A7.281,7.281,0,0,0,73.1,60.6c0,.645.461.092.922-1.106s.737-2.4.461-2.581c-.184-.184-.553.277-.922,1.106" transform="translate(-5.719 -4.451)" fill="#12263f"/><path d="M82.946,60.6a21.277,21.277,0,0,1-1.106,5.346c-1.29,3.779-.737,4.424,1.014,1.2a8.517,8.517,0,0,0,.83-5.715c-.461-2.581-.645-2.765-.737-.83" transform="translate(-6.35 -4.641)" fill="#12263f"/><path d="M73.2,64.958c0,1.475.184,2.028.461,1.106a6.965,6.965,0,0,0,0-2.765c-.277-.553-.461.092-.461,1.659" transform="translate(-5.729 -4.939)" fill="#12263f"/><path d="M59.868,65.919c2.489,2.673,3.871,3.226,1.567.645-.922-.922-1.29-2.028-.922-2.3.277-.369-.184-.645-1.106-.645-1.567,0-1.475.277.461,2.3" transform="translate(-4.564 -4.979)" fill="#12263f"/><path d="M75.281,65a2.831,2.831,0,0,0-.092,1.936c.277.277.737-.369,1.014-1.475.553-2.12-.092-2.489-.922-.461" transform="translate(-5.874 -4.982)" fill="#12263f"/><path d="M64.487,70.537a2.153,2.153,0,0,0,1.475.922c.553,0,.645-.461.369-.922a1.88,1.88,0,0,0-1.475-.922c-.553,0-.645.369-.369.922" transform="translate(-5.035 -5.448)" fill="#12263f"/><path d="M83.1,72.1c0,1.014.277,1.29.553.553a1.867,1.867,0,0,0-.092-1.751c-.277-.369-.553.184-.461,1.2" transform="translate(-6.502 -5.54)" fill="#12263f"/><path d="M86.2,75.958c0,1.475.184,2.028.461,1.106a6.965,6.965,0,0,0,0-2.765c-.277-.553-.461.092-.461,1.659" transform="translate(-6.746 -5.8)" fill="#12263f"/><path d="M83.849,76.448c0,.645-.461.83-1.106.461-.737-.461-.83,0-.461,1.567a24.943,24.943,0,0,1,.737,3.595c.092.737.461-.277.83-2.3s.553-3.871.369-4.056-.369.092-.369.737" transform="translate(-6.423 -5.921)" fill="#12263f"/><path d="M55.843,95.092c-.922,1.2-.922,1.567.184,2.3,1.936,1.2,2.673,1.014,2.673-.645,0-.83-.461-1.106-1.106-.737s-.737.277-.369-.461A1.167,1.167,0,0,1,58.7,95a1.016,1.016,0,0,0,1.383-.461c.922-1.475-2.857-1.014-4.24.553" transform="translate(-4.318 -7.329)" fill="#12263f"/></g></g><g transform="translate(1149.102 5728.347)"><g clip-path="url(#f)"><path d="M26,.444c4.192.242,5.4.725,7.416,2.579,1.37,1.29,2.5,2.015,2.5,1.693,0-.4-1.129-1.612-2.5-2.741C31.318.122,30.27-.12,26,.041L21,.2Z" transform="translate(-4.072 0)" fill="#12263f"/><path d="M19.5,3.419c0,.4,2.176.645,4.756.645,2.741.081,5.32.484,6.046,1.129.725.564,1.29.725,1.29.242,0-.4-1.129-1.209-2.5-1.693-2.9-.967-9.592-1.209-9.592-.322" transform="translate(-3.782 -0.556)" fill="#12263f"/><path d="M29.073,9.06c.322.645.645,1.209.806,1.209S30.2,9.7,30.2,9.06s-.322-1.209-.806-1.209c-.4,0-.564.564-.322,1.209" transform="translate(-5.616 -1.523)" fill="#12263f"/><path d="M12.335,11.227c-3.063,1.612-3.063,3.869,0,3.144,2.1-.4,2.338-.242,3.063,2.741.806,2.9.725,3.386-.806,4.836s-1.854,1.451-3.3.4c-3.3-2.5-4.756-2.821-2.015-.484,1.532,1.29,2.579,2.66,2.338,2.982-.322.242-1.773-.564-3.3-1.935L5.483,20.5,3.629,22.431c-2.5,2.66-3.063,1.935-.806-1.209.967-1.29,2.1-2.176,2.579-1.935.564.4.645.161.322-.4-.806-1.209-3.3.887-5,4.03C-.8,25.9.163,26.3,3.145,24.044l2.5-1.854,2.418,1.854L10.4,25.978l-1.935,2.1c-1.693,1.773-1.773,2.257-.806,2.821a5.741,5.741,0,0,0,1.612.806c.484,0,.967,4.917.967,8.786,0,1.935,0,1.935,1.935-.4A39.371,39.371,0,0,0,15.4,35.893a4.379,4.379,0,0,1,2.418-1.773c.645,0,1.129-.4,1.129-.806,0-1.129-.887-.967-2.5.484-1.209,1.129-1.532,1.048-3.3-.645a19.2,19.2,0,0,0-3.547-2.741c-1.451-.806-1.209-1.209,2.741-5.078,2.257-2.257,4.514-4.111,4.917-4.111.725,0,9.592,9.512,11.688,12.575.725.967,1.048,1.935.806,2.176s.242.645,1.048.887c2.9.967,10.882,16.121,9.35,17.734-1.128,1.129-1.854.322-1.854-1.935,0-2.338-1.048-3.224-2.015-1.612a2.314,2.314,0,0,1-1.773.806c-.967,0-1.129-.564-.645-2.9.484-2.66.322-2.9-.967-2.338-3.708,1.532-4.514,1.532-4.111-.081.242-.806.725-2.176,1.048-2.982.645-1.612-1.209-1.854-3.789-.484-1.29.725-1.935.645-2.9-.4-1.209-1.129-1.048-1.451,1.048-3.708,2.338-2.418,2.338-2.418.4-2.418-1.048,0-1.612.242-1.37.564.322.242-.081,1.29-.967,2.176-3.466,3.869-4.917,7.658-4.917,13.3,0,6.287,1.37,9.673,4.917,12.172,3.063,2.257,2.982,1.693-.4-1.854-2.741-2.9-3.708-5.8-3.708-10.882,0-2.741.081-2.741,1.532-1.451a13.019,13.019,0,0,1,2.5,5c.887,2.982,2.015,4.514,5.8,7.658,6.69,5.562,8.222,5.32,5.965-1.048-.645-1.773-.725-2.821-.242-2.5q.725.363.242-.484a1.02,1.02,0,0,0-1.29-.484.888.888,0,0,1-1.209-.4,10.092,10.092,0,0,0-3.063-2.1L25.8,54.916l2.9,2.5c2.9,2.418,5.159,6.449,4.595,8.141-.4,1.37-8.222-5.481-9.592-8.544a12.356,12.356,0,0,1-1.048-5.4c.161-1.532.081-2.176-.322-1.532-.564.725-1.048.645-2.1-.564-1.532-1.693-1.37-4.03.322-6.529.725-1.048,1.048-.967,2.257.484,2.015,2.338,14.509,12.414,15.477,12.414a.744.744,0,0,1,.806.725,7.831,7.831,0,0,0,.564,2.176c.322.967.242,1.209-.4.806s-.967,0-.967,1.048c0,.967.564,1.693,1.209,1.693,1.29,0,1.693,3.627.564,5.481-.967,1.451-9.35.645-12.01-1.048-1.532-1.048-1.935-1.048-1.693-.242,1.209,3.627,20.635,4.111,22.892.564.322-.564-.081-.725-1.128-.4-1.29.4-1.693.161-2.015-1.29-.322-1.612-.322-1.612-.484.322-.081,1.935-.4,2.257-2.338,2.257-2.1,0-2.257-.242-1.935-2.66a23.659,23.659,0,0,0-.484-6.046c-.887-3.627-.081-5,1.854-3.386.725.564,1.209.645,1.612,0,.242-.4-.081-.806-.887-.806-.967,0-1.129-.242-.484-1.048,3.3-4.111,0-13.381-7.9-22.167-2.66-2.982-4.836-5.643-4.836-6.046,0-.322.564-.806,1.29-1.129.806-.322,2.418.725,4.595,2.741,3.063,2.9,10.721,6.529,11.688,5.481.4-.4.242-.484-4.836-2.015-1.693-.484-4.353-2.418-6.449-4.675-1.935-2.1-3.789-3.789-4.272-3.789a.883.883,0,0,1-.806-.887c0-.484-1.209-1.854-2.66-3.144-2.015-1.693-2.821-2.015-3.708-1.29-.725.645-1.29.645-1.612.161-.564-.887-3.708-.887-3.708.081a.693.693,0,0,1-.645.645c-.4,0-1.209-1.693-1.854-3.789-1.37-4.272-1.935-4.675-4.917-2.982m3.386.161c0,.4-.887,1.129-2.015,1.612-2.257,1.048-2.821-.081-.564-1.37,1.693-1.048,2.579-1.129,2.579-.242m2.015,8.061c-.725.725-1.29-.4-1.693-3.547l-.322-3.144L16.929,15.9c.645,1.773,1.048,3.386.806,3.547m7.335,2.176c1.209,2.015,2.821,3.708,3.466,3.708.725.081.242.322-1.129.645-2.257.484-4.03-.242-4.272-1.773,0-.4-1.048-1.451-2.257-2.338-2.015-1.612-2.1-1.773-.645-2.821,2.1-1.532,2.257-1.451,4.836,2.579m5.965,7.738c0,.4-.564.725-1.209.725-1.209,0-1.612-.967-.725-1.854.645-.645,1.935.081,1.935,1.129m1.612,2.257a1.65,1.65,0,0,1-2.418,1.29.98.98,0,0,1-.4-1.29c.645-.967,2.821-.967,2.821,0m-19.829,5.8-1.532,1.693-.564-2.66c-.725-3.627,0-4.433,2.015-2.418,1.693,1.612,1.693,1.693.081,3.386m22.651-4.111c.564.887-3.547,2.741-4.353,1.935-.484-.484,2.176-2.741,3.224-2.741a1.768,1.768,0,0,1,1.129.806m0,3.224a1.883,1.883,0,0,1-1.29.806c-.484,0-.564-.4-.322-.806a1.644,1.644,0,0,1,1.29-.806c.484,0,.564.322.322.806m4.111,3.144a3.077,3.077,0,0,1-2.257.887c-1.693,0-1.693-.081-.242-1.612,1.532-1.693,3.547-1.048,2.5.725M39.1,41.7c0,.242-.322.645-.806.887-.4.242-.806.081-.806-.322a.883.883,0,0,1,.806-.887c.484,0,.806.161.806.322M28.456,45c-.887,1.854-1.048,1.935-2.176.806s-1.128-1.37-.081-2.015c2.338-1.532,3.3-.967,2.257,1.209m13.864.4c0,.4-.564.564-1.209.322-.645-.322-.967-.806-.725-1.209.484-.887,1.935-.161,1.935.887m-.806,2.338a1.533,1.533,0,0,1-.806,1.29c-.4.242-.806-.081-.806-.725,0-.725.4-1.29.806-1.29a.744.744,0,0,1,.806.725m-8.544,1.29c-.322.645-.806.967-1.209.725-.887-.484-.161-1.935.887-1.935.4,0,.564.564.322,1.209m4.514,3.627a.808.808,0,0,1-.806.806.867.867,0,0,1-.806-.806.808.808,0,0,1,.806-.806.762.762,0,0,1,.806.806" transform="translate(-0.002 -1.997)" fill="#12263f"/><path d="M30.081,26.594c-.242.4.081.887.725,1.129.725.322.967.081.645-.725-.484-1.29-.806-1.37-1.37-.4" transform="translate(-5.818 -5.03)" fill="#12263f"/><path d="M8.5,16.178a4.622,4.622,0,0,0,1.451,1.37c1.209,1.048,1.29.967.242-.322S8.5,15.533,8.5,16.178" transform="translate(-1.648 -3.079)" fill="#12263f"/><path d="M1.532,19.616,0,21.47l1.854-1.532a9.8,9.8,0,0,0,1.773-1.854c0-.645-.645-.161-2.1,1.532" transform="translate(0 -3.454)" fill="#12263f"/><path d="M71.4,38.611c-3.144,1.451-5.643,2.821-5.4,3.063.322.242,2.66-.564,5.32-1.854a42.851,42.851,0,0,1,5.239-2.338c.242,0-.242,1.048-1.048,2.418-1.129,2.015-1.935,2.418-4.433,2.418-1.773,0-3.063.4-3.063.887q0,.967,2.9.484a32.243,32.243,0,0,1,6.852,0c3.466.4,3.789.564,2.579,1.532-1.693,1.29-2.982,1.451-2.257.322.725-1.209-.564-.887-2.418.484-1.532,1.29-1.532,1.29.4.725s1.935-.564.645.967c-1.612,1.773-1.854,3.95-.645,4.675.564.322.725-.161.4-1.37-.484-1.854.322-2.579,6.852-6.287,1.773-1.048.484-1.773-4.03-2.257l-4.03-.4,1.532-2.1c3.466-5.078,3.063-5.159-5.4-1.37" transform="translate(-12.795 -6.971)" fill="#12263f"/><path d="M24.482,40.77a2.793,2.793,0,0,1-2.176.322c-.484-.242-.806.081-.806.725,0,1.451,1.29,1.693,2.015.484.806-1.29,2.015-.967,1.532.4-.322.725-.081,1.209.564,1.209s1.209-.887,1.209-2.015c.161-2.176-.161-2.338-2.338-1.129" transform="translate(-4.169 -7.761)" fill="#12263f"/><path d="M63.6,46.877A2.893,2.893,0,0,1,62.79,49.7a3.5,3.5,0,0,0-1.29,1.935c0,.564.322.564.967-.081,1.37-1.37,2.257-1.209,1.773.4-.242.806.081.564.725-.484l1.128-1.854.564,1.854c.4,1.37.725,1.612,1.048.806.564-1.37-1.935-6.287-3.466-6.852-.887-.322-1.048.081-.645,1.451" transform="translate(-11.927 -8.789)" fill="#12263f"/><path d="M74.239,47.454a4.255,4.255,0,0,0,2.015,0c.484-.242.081-.4-1.048-.4s-1.532.161-.967.4" transform="translate(-14.348 -9.124)" fill="#12263f"/><path d="M73.5,50.463c0,.887.322,1.612.725,1.612s.564-.725.322-1.612-.564-1.612-.725-1.612-.322.725-.322,1.612" transform="translate(-14.254 -9.474)" fill="#12263f"/><path d="M11,52.66a18.329,18.329,0,0,0-.4,3.466c.081.887.4.161.806-1.532.806-3.386.484-5-.4-1.935" transform="translate(-2.056 -9.897)" fill="#12263f"/><path d="M15.8,55.307c0,2.015.161,2.821.322,1.773a13.66,13.66,0,0,0,0-3.627c-.161-.967-.322-.161-.322,1.854" transform="translate(-3.064 -10.287)" fill="#12263f"/><path d="M75.5,57.864c0,1.129.4,2.1.806,2.1.484,0,.806-.725.806-1.532a2.544,2.544,0,0,0-.806-2.1c-.484-.322-.806.4-.806,1.532" transform="translate(-14.641 -10.909)" fill="#12263f"/><path d="M30.087,61.159c.161,3.144.242,3.224,1.209,1.532.725-1.129.645-1.773-.242-2.579-.967-.967-1.128-.806-.967,1.048" transform="translate(-5.824 -11.544)" fill="#12263f"/><path d="M33.733,60.463a6.164,6.164,0,0,0,1.854,1.612c.242,0-.242-.725-1.048-1.612a6.164,6.164,0,0,0-1.854-1.612c-.242,0,.242.725,1.048,1.612" transform="translate(-6.326 -11.413)" fill="#12263f"/><path d="M12.112,60.593c0,.564-.322.725-.806.484-.484-.322-.806.484-.806,1.935,0,3.547,1.612,10.479,2.579,11.043.484.322.645-.081.4-.967-1.37-4.514-1.612-6.207-.645-5.643.564.4.887,0,.887-1.048a13.463,13.463,0,0,1,.484-3.063c.322-1.048,0-.887-1.209.564-1.773,2.1-2.257,1.048-.806-1.773.484-.887.645-1.773.4-2.1-.242-.242-.484,0-.484.564" transform="translate(-2.036 -11.623)" fill="#12263f"/><path d="M68.5,61.29a5.484,5.484,0,0,0,.806,2.015c.4.645.806.806.806.4a5,5,0,0,0-.806-2.015c-.4-.645-.806-.887-.806-.4" transform="translate(-13.284 -11.836)" fill="#12263f"/><path d="M18.6,63.967a11.5,11.5,0,0,0,.725,3.95c.484,1.048.564.4.242-2.015-.564-4.272-1.048-5.32-.967-1.935" transform="translate(-3.605 -12.015)" fill="#12263f"/><path d="M71.5,63.139c0,1.532,1.37,2.257,1.854,1.048.242-.564.484.081.484,1.532.081,3.224.887,5.159,1.773,4.595.4-.242.967.161,1.209.806.564,1.532,1.935.887,1.935-.806,0-.645-.322-1.048-.725-.806-.564.4-2.5-3.224-2.821-5.32-.242-1.773-3.708-2.741-3.708-1.048" transform="translate(-13.866 -12.074)" fill="#12263f"/><path d="M77.6,63.473a8.533,8.533,0,0,0,.725,2.257c.645,1.532.725,1.532.725-.161.081-.967-.242-2.015-.725-2.257-.4-.242-.806-.242-.725.161" transform="translate(-15.046 -12.246)" fill="#12263f"/><path d="M37.591,64.093c.161.081.967.725,1.773,1.29,1.209.967,1.37.967.887-.242a2,2,0,0,0-1.773-1.29c-.645,0-1.048.081-.887.242" transform="translate(-7.283 -12.382)" fill="#12263f"/><path d="M66.7,65.55c0,1.129.161,1.532.4.967a4.255,4.255,0,0,0,0-2.015c-.242-.484-.4-.081-.4,1.048" transform="translate(-12.935 -12.47)" fill="#12263f"/><path d="M64.035,67.729a32.549,32.549,0,0,1,.564,7.013c0,2.176.242,3.708.645,3.466.967-.645.161-11.769-.887-12.817-.725-.645-.725-.081-.322,2.338" transform="translate(-12.366 -12.633)" fill="#12263f"/><path d="M16.7,67.55c0,1.128.161,1.532.4.967a4.255,4.255,0,0,0,0-2.015c-.242-.484-.4-.081-.4,1.048" transform="translate(-3.239 -12.858)" fill="#12263f"/><path d="M58.843,68.984c-1.451,2.1-1.451,2.1.161,1.209,1.37-.725,1.693-.645,2.015.564.242.725.4.161.484-1.29.081-3.063-.645-3.224-2.66-.484" transform="translate(-11.204 -13.001)" fill="#12263f"/><path d="M71.784,69.876c-.725,2.821-.645,4.433.322,15.477.484,5.481,1.29,10.56,1.773,11.285.725,1.209.806,1.209.4-.4-.725-2.66-1.854-24.021-1.37-26.439.484-2.579-.484-2.5-1.128.081" transform="translate(-13.827 -13.168)" fill="#12263f"/><path d="M43.067,71.149a2.839,2.839,0,0,0,.242,2.338,9.081,9.081,0,0,1,1.128,3.3c.242,1.854.322,1.532.4-1.209.161-4.111-.887-6.69-1.773-4.433" transform="translate(-8.326 -13.635)" fill="#12263f"/><path d="M68.268,72.139c.4,1.693.564,1.854.806.725a2.667,2.667,0,0,0-.484-2.257c-.484-.484-.564,0-.322,1.532" transform="translate(-13.213 -13.658)" fill="#12263f"/><path d="M55.7,73.55c0,1.128.161,1.532.4.967a4.255,4.255,0,0,0,0-2.015c-.242-.484-.4-.081-.4,1.048" transform="translate(-10.802 -14.021)" fill="#12263f"/><path d="M14.761,75.333c.161,2.579.887,3.547,6.126,7.9,5.643,4.756,8.706,6.529,10.8,6.368.564,0-.161-.564-1.612-1.209-2.66-1.129-4.836-3.466-2.418-2.5,1.935.725,1.693,0-.322-1.129-1.209-.645-1.532-.645-1.209,0,.887,1.37-.4,1.048-2.1-.484a15.643,15.643,0,0,0-3.3-2.176c-.967-.484-2.741-2.9-3.95-5.32L14.6,72.351Z" transform="translate(-2.831 -14.031)" fill="#12263f"/><path d="M57.5,74.28a1.212,1.212,0,1,0,1.209-1.129A1.162,1.162,0,0,0,57.5,74.28" transform="translate(-11.151 -14.186)" fill="#12263f"/><path d="M62.467,77.474c.322,3.3.4,3.3.645.645.161-1.451,0-2.982-.4-3.386s-.484.887-.242,2.741" transform="translate(-12.088 -14.478)" fill="#12263f"/><path d="M73.5,74.415a4.939,4.939,0,0,0,.806,1.854c.645.967.806.887.806-.645,0-.967-.322-1.773-.806-1.773-.4,0-.806.242-.806.564" transform="translate(-14.254 -14.322)" fill="#12263f"/><path d="M76.273,76.269c-.242,1.29-.081,2.418.322,2.418.322,0,.645-1.129.645-2.418a4.926,4.926,0,0,0-.322-2.418,5.073,5.073,0,0,0-.645,2.418" transform="translate(-14.769 -14.322)" fill="#12263f"/><path d="M17.5,75.1c0,.887,2.418,5.4,2.821,5.4.484,0-1.29-4.192-2.176-5.239-.322-.4-.645-.484-.645-.161" transform="translate(-3.394 -14.526)" fill="#12263f"/><path d="M20.5,76.622a10.144,10.144,0,0,0,1.612,2.5c1.29,1.612,1.532,1.693,1.048.4-.484-1.451-.4-1.532.967-.4,1.451,1.128,1.451,1.128,0-.887-1.37-1.854-3.627-2.821-3.627-1.612" transform="translate(-3.976 -14.755)" fill="#12263f"/><path d="M47.5,78.657a.867.867,0,0,0,.806.806.808.808,0,0,0,.806-.806.762.762,0,0,0-.806-.806.808.808,0,0,0-.806.806" transform="translate(-9.212 -15.097)" fill="#12263f"/><path d="M67.6,79.175c0,.887.242,1.129.484.484A1.633,1.633,0,0,0,68,78.127c-.242-.322-.484.161-.4,1.048" transform="translate(-13.106 -15.131)" fill="#12263f"/><path d="M68.344,84.212a7.89,7.89,0,0,0-.564,3.869c.242.967.4.645.484-.806,0-1.29.4-2.1.887-1.773s.806-.4.806-1.532c0-2.741-.4-2.66-1.612.242" transform="translate(-13.128 -15.897)" fill="#12263f"/><path d="M34.35,84.657a5.484,5.484,0,0,0,2.015.806c.484,0,.242-.4-.4-.806a5,5,0,0,0-2.015-.806c-.4,0-.242.4.4.806" transform="translate(-6.541 -16.261)" fill="#12263f"/><path d="M60.968,84.586c-.242.4-2.5,1.209-5.078,1.773-2.5.564-3.95,1.129-3.144,1.37.725.161,1.209.564,1.048.887-.242.322.725.4,2.176.161l2.579-.4-2.418-.484c-2.176-.484-2.015-.564,1.854-1.129,2.741-.4,4.192-1.048,4.192-1.773,0-1.29-.484-1.451-1.209-.4" transform="translate(-10.186 -16.27)" fill="#12263f"/><path d="M65.6,85.175c0,.887.242,1.129.484.484A1.633,1.633,0,0,0,66,84.127c-.242-.322-.484.161-.4,1.048" transform="translate(-12.718 -16.295)" fill="#12263f"/><path d="M30.856,86.06a5.64,5.64,0,0,0,2.257,1.209c.484,0,.081-.564-.806-1.209a5.64,5.64,0,0,0-2.257-1.209c-.484,0-.081.564.806,1.209" transform="translate(-5.787 -16.455)" fill="#12263f"/><path d="M42.189,88.473a13.66,13.66,0,0,0,3.627,0c.967-.161.161-.322-1.854-.322s-2.821.161-1.773.322" transform="translate(-8.092 -17.095)" fill="#12263f"/><path d="M70.285,90.672a7.042,7.042,0,0,0,.645,2.821,6.863,6.863,0,0,0,.322-2.821c0-1.532-.322-2.821-.645-2.821s-.484,1.29-.322,2.821" transform="translate(-13.618 -17.037)" fill="#12263f"/><path d="M65.28,90.366a5.642,5.642,0,0,0,.645,3.466c1.048,1.854,1.129,1.773.645-1.29-.645-3.869-.806-4.111-1.29-2.176" transform="translate(-12.644 -17.295)" fill="#12263f"/><path d="M39.971,91.06c.806.967.645,1.29-.887,1.935-1.854.645-1.854.725.725,1.209,1.37.322,2.579.887,2.579,1.128,0,.322.967.645,2.1.645,2.821.242,3.144.725,1.612,2.9-1.693,2.338-1.693,3.869,0,1.773,1.129-1.451,1.209-1.451.806.484-.242,1.129-.242,1.532,0,.967.242-.484.806-.806,1.209-.564.806.564,4.03-.967,3.789-1.854a8.756,8.756,0,0,1,.484-2.579c.645-1.935.725-1.935,1.37-.4.564,1.612.645,1.612.645-.081.081-2.338-.564-2.741-2.982-1.854-1.37.564-2.338.484-2.9-.081-.4-.4-2.579-.806-4.756-.806-2.338,0-3.708-.322-3.386-.806a2.367,2.367,0,0,1,2.015-.806,2.31,2.31,0,0,0,1.935-1.209c.322-.967-.242-1.209-2.5-1.209-2.418,0-2.741.161-1.854,1.209m11.446,5.4c-1.129,1.129-3.386,1.612-3.386.645,0-.4.806-.887,1.854-1.048a19.819,19.819,0,0,0,2.176-.484c.161,0-.081.322-.645.887" transform="translate(-7.325 -17.425)" fill="#12263f"/><path d="M48.705,90.454a6.091,6.091,0,0,0,2.418,0c.484-.242-.081-.4-1.451-.4-1.29,0-1.773.161-.967.4" transform="translate(-9.369 -17.463)" fill="#12263f"/><path d="M58.5,92.06c0,.645.4,1.209.806,1.209.564,0,.645,1.451.322,4.192-.4,2.982-.322,3.95.4,3.547,1.29-.806,1.209-8.544-.081-8.544-.725,0-.645-.322.161-.806,1.048-.645.967-.806-.161-.806A1.36,1.36,0,0,0,58.5,92.06" transform="translate(-11.345 -17.618)" fill="#12263f"/><path d="M51.189,92.473a13.659,13.659,0,0,0,3.627,0c.967-.161.161-.322-1.854-.322s-2.821.161-1.773.322" transform="translate(-9.838 -17.871)" fill="#12263f"/><path d="M62.5,93.556c0,.887.322,1.451.806,1.129a1.27,1.27,0,0,0,.242-1.612c-.564-1.693-1.048-1.532-1.048.484" transform="translate(-12.12 -17.824)" fill="#12263f"/><path d="M68.7,93.961c0,1.29.161,1.773.4.967a6.091,6.091,0,0,0,0-2.418c-.242-.484-.4.081-.4,1.451" transform="translate(-13.323 -17.907)" fill="#12263f"/><path d="M70.5,97.839c0,1.773.242,2.176.887,1.532s.645-1.29,0-2.418c-.725-1.29-.806-1.129-.887.887" transform="translate(-13.672 -18.641)" fill="#12263f"/><path d="M40.734,97.747c-1.129,3.386-1.854,7.174-1.37,7.174.564,0,2.5-7.5,2.015-7.98-.161-.161-.484.161-.645.806" transform="translate(-7.604 -18.792)" fill="#12263f"/><path d="M44.315,100.383c-.967,1.935-1.048,2.741-.081,2.176.725-.484,1.773-3.708,1.209-3.708-.161,0-.645.725-1.129,1.532" transform="translate(-8.445 -19.17)" fill="#12263f"/><path d="M62.5,100.463c0,.887.4,1.612.806,1.612.484,0,.806.564.806,1.37,0,.725.161,1.128.4.887.645-.645-.484-5.481-1.29-5.481-.4,0-.725.725-.725,1.612" transform="translate(-12.12 -19.17)" fill="#12263f"/><path d="M66.5,100.454c0,.967.484,1.693,1.209,1.693.645,0,1.209-.322,1.209-.725a3.321,3.321,0,0,0-1.209-1.693c-1.048-.806-1.209-.725-1.209.725" transform="translate(-12.896 -19.241)" fill="#12263f"/></g></g></g></svg>