<svg id="Grupo_879403" data-name="Grupo 879403" xmlns="http://www.w3.org/2000/svg" width="35.404" height="61.802" viewBox="0 0 35.404 61.802">
  <g id="Grupo_152551" data-name="Grupo 152551" transform="translate(0 61.802) rotate(-90)">
    <rect id="Rectángulo_45220" data-name="Rectángulo 45220" width="47.625" height="24.483" transform="translate(61.802 24.483) rotate(180)" fill="#fff"/>
    <g id="Grupo_152556" data-name="Grupo 152556" transform="translate(0 13.562)">
      <rect id="Rectángulo_45221" data-name="Rectángulo 45221" width="4.16" height="4.16" transform="translate(35.363 17.682)" fill="#12263f"/>
      <rect id="Rectángulo_45222" data-name="Rectángulo 45222" width="4.16" height="4.16" transform="translate(26.522 17.682)" fill="#12263f"/>
      <rect id="Rectángulo_45223" data-name="Rectángulo 45223" width="4.16" height="4.16" transform="translate(17.682 17.682)" fill="#12263f"/>
      <rect id="Rectángulo_45224" data-name="Rectángulo 45224" width="4.16" height="4.16" transform="translate(8.841 17.682)" fill="#12263f"/>
      <rect id="Rectángulo_45225" data-name="Rectángulo 45225" width="4.16" height="4.16" transform="translate(0 17.682)" fill="#12263f"/>
      <rect id="Rectángulo_45232" data-name="Rectángulo 45232" width="4.16" height="4.16" transform="translate(35.363 8.841)" fill="#12263f"/>
      <rect id="Rectángulo_45233" data-name="Rectángulo 45233" width="4.16" height="4.16" transform="translate(26.522 8.841)" fill="#12263f"/>
      <rect id="Rectángulo_45234" data-name="Rectángulo 45234" width="4.16" height="4.16" transform="translate(17.682 8.841)" fill="#12263f"/>
      <rect id="Rectángulo_45235" data-name="Rectángulo 45235" width="4.16" height="4.16" transform="translate(8.841 8.841)" fill="#12263f"/>
      <rect id="Rectángulo_45236" data-name="Rectángulo 45236" width="4.16" height="4.16" transform="translate(0 8.841)" fill="#12263f"/>
      <rect id="Rectángulo_45243" data-name="Rectángulo 45243" width="4.16" height="4.16" transform="translate(35.363)" fill="#12263f"/>
      <rect id="Rectángulo_45244" data-name="Rectángulo 45244" width="4.16" height="4.16" transform="translate(26.522)" fill="#12263f"/>
      <rect id="Rectángulo_45245" data-name="Rectángulo 45245" width="4.16" height="4.16" transform="translate(17.682)" fill="#12263f"/>
      <rect id="Rectángulo_45246" data-name="Rectángulo 45246" width="4.16" height="4.16" transform="translate(8.841)" fill="#12263f"/>
      <rect id="Rectángulo_45247" data-name="Rectángulo 45247" width="4.16" height="4.16" fill="#12263f"/>
    </g>
  </g>
</svg>
