<svg xmlns="http://www.w3.org/2000/svg" xmlns:xlink="http://www.w3.org/1999/xlink" width="205.962" height="176.901" viewBox="0 0 205.962 176.901">
  <defs>
    <clipPath id="clip-path">
      <rect id="Rectángulo_296237" data-name="Rectángulo 296237" width="124.134" height="124.142" fill="#12263f"/>
    </clipPath>
  </defs>
  <g id="Grupo_879724" data-name="Grupo 879724" transform="translate(44.926 44.403)">
    <rect id="Rectángulo_49533" data-name="Rectángulo 49533" width="144.8" height="111.233" transform="translate(16.236 21.265)" fill="#ffde96"/>
    <g id="Grupo_169217" data-name="Grupo 169217" transform="translate(-44.926 -44.403)">
      <rect id="Rectángulo_49754" data-name="Rectángulo 49754" width="166.13" height="153.889" transform="translate(0 0)" fill="none"/>
      <g id="Grupo_882419" data-name="Grupo 882419" transform="translate(12.837 12.859)">
        <g id="Grupo_882418" data-name="Grupo 882418" clip-path="url(#clip-path)">
          <path id="Trazado_599394" data-name="Trazado 599394" d="M124.135,106.676c-1.107,2.416-3.049,3.037-5.593,3.013-9.938-.1-19.877-.039-29.816-.039h-1.59c.1.429.162.766.267,1.087,1.11,3.366,2.253,6.722,3.322,10.1a2.79,2.79,0,0,1,.081,1.962,3.127,3.127,0,0,1-1.835,1.267,1.714,1.714,0,0,1-1.938-1.3c-.5-1.359-.954-2.737-1.413-4.112q-1.357-4.068-2.692-8.143c-.176-.538-.372-.879-1.063-.875-5.7.033-11.393.021-17.09.027a3.2,3.2,0,0,0-.477.092c-.018.408-.051.833-.054,1.259-.019,3.394-.024,6.787-.056,10.181a5.314,5.314,0,0,1-.208,1.548,2.014,2.014,0,0,1-3.825-.024,5.815,5.815,0,0,1-.189-1.671c.029-3.313.087-6.625.134-9.938.006-.435,0-.87,0-1.393-.5-.026-.892-.063-1.285-.063-5.373,0-10.747.02-16.12-.025a1.385,1.385,0,0,0-1.584,1.178c-1.2,3.759-2.486,7.49-3.742,11.23a7.1,7.1,0,0,1-.286.795,2.071,2.071,0,0,1-2.478,1.226,1.948,1.948,0,0,1-1.393-2.362c.339-1.446.837-2.856,1.3-4.27,1.074-3.251,2.168-6.495,3.258-9.741.624-1.858,1.106-2.2,3.088-2.2h79.07v-4.114h-69.4q-3.227,0-3.166-2.106c.041-1.383,1.04-2.032,3.134-2.032h65.28V22.854H8.352q0,37.142,0,74.254c1.762.544,2.417,1.367,2.111,2.654-.33,1.391-1.322,1.769-4.182,1.6a2.056,2.056,0,0,1-2.124-1.9,12.044,12.044,0,0,1-.024-1.332q0-36.907,0-73.814V22.9C.971,22.127.007,20.887.007,17.681c0-1.091-.018-2.182.007-3.272a4.016,4.016,0,0,1,3.628-4,15.728,15.728,0,0,1,1.813-.082q19.151-.007,38.3,0h1.762c0-.889.053-1.681-.009-2.464C45.2,4.008,46.659,1.283,50.431,0H73.706c3.771,1.283,5.227,4.007,4.922,7.854-.062.783-.009,1.575-.009,2.464h1.76c12.725,0,25.45.039,38.175-.033,2.535-.014,4.485.629,5.58,3.049v6.3a4.706,4.706,0,0,1-4.069,3.2V97.208c2.121.122,3.3,1.392,4.069,3.165ZM4.176,18.534H119.93V14.606H4.176Zm45.511-8.36H74.449c0-1.192,0-2.241,0-3.29-.008-2.028-.727-2.745-2.794-2.752-2.949-.01-5.9,0-8.846,0-3.514,0-7.028-.015-10.542.007-1.809.012-2.564.8-2.578,2.6-.009,1.128,0,2.256,0,3.439" transform="translate(0)" fill="#12263f"/>
          <path id="Trazado_599395" data-name="Trazado 599395" d="M30.326,358.086a14.139,14.139,0,0,1-2.867-1.6c-1.971-1.789-3.821-3.715-5.671-5.632s-1.8-4.279.131-6.23c2.98-3.016,5.993-6,8.99-9q8.906-8.91,17.822-17.81a9.175,9.175,0,0,1,2.126-1.561q5.6-2.983,11.259-5.865c2.845-1.442,5.765-.217,6.283,2.721a5.221,5.221,0,0,1-.543,3c-1.98,4.01-4.082,7.961-6.167,11.918a5.734,5.734,0,0,1-1.04,1.324q-13.394,13.417-26.8,26.823a6.485,6.485,0,0,1-3.524,1.915M36.274,347.5l20.177-20.149L51,321.9,30.822,342.081l5.452,5.423M59.22,323.766l5.119-9.826-9.813,5.127,4.694,4.7M33.165,350.888l-5.655-5.646-2.547,2.508,5.562,5.554,2.639-2.416" transform="translate(-15.472 -234.532)" fill="#12263f"/>
          <path id="Trazado_599396" data-name="Trazado 599396" d="M211.335,110.739c3.592,0,7.184-.01,10.776,0,3.02.011,4.651,1.6,4.671,4.6q.043,6.78,0,13.561c-.019,3-1.669,4.608-4.673,4.611q-10.836.011-21.673,0c-3.025,0-4.705-1.689-4.713-4.731q-.016-6.659,0-13.319c.007-3.045,1.676-4.717,4.716-4.727,3.632-.012,7.265,0,10.9,0m-11.344,16.645,7.608-5.278-7.608-5.253Zm22.592-10.558-7.634,5.285,7.634,5.289ZM217.9,129.25c-1.784-1.238-3.29-2.287-4.8-3.331-1.836-1.269-1.837-1.266-3.655-.007l-4.818,3.337Zm-13.35-14.336c2.244,1.554,4.191,2.916,6.16,4.247.223.151.663.28.834.166,2.089-1.39,4.146-2.828,6.442-4.412Z" transform="translate(-148.171 -83.835)" fill="#12263f"/>
          <path id="Trazado_599397" data-name="Trazado 599397" d="M355.947,255.511c3.715,0,7.43-.008,11.146,0,2.609.007,4.346,1.521,4.395,4.122q.137,7.266,0,14.536c-.051,2.57-1.821,4.105-4.425,4.109q-11.085.017-22.17,0a4.168,4.168,0,0,1-4.446-4.383q-.062-7.026,0-14.053a4.152,4.152,0,0,1,4.478-4.33c3.675-.01,7.35,0,11.024,0M344.733,272.7c2.139-2.677,4.045-5.08,5.97-7.467,1.546-1.918,2.829-1.909,4.389.031,2.151,2.674,4.273,5.369,6.436,8.033a1.956,1.956,0,0,0,1.107.791c1.518.092,3.044.037,4.6.037v-6.287a7.15,7.15,0,0,1-6.053-2.056,7.651,7.651,0,0,1-2.1-6.056H344.733Zm8.156-3.513-3.856,4.843h7.711l-3.855-4.843m10.671-9.511a2.931,2.931,0,0,0,2.844,4.045c.323-.027.857-.413.88-.67.1-1.1.042-2.223.042-3.375Z" transform="translate(-257.719 -193.441)" fill="#12263f"/>
          <path id="Trazado_599398" data-name="Trazado 599398" d="M66.541,110.738c3.675,0,7.35-.013,11.025,0,2.75.012,4.412,1.6,4.435,4.323q.06,7.026,0,14.053c-.022,2.761-1.727,4.392-4.518,4.4q-10.964.017-21.929,0a4.233,4.233,0,0,1-4.6-4.6q-.019-6.845,0-13.69a4.144,4.144,0,0,1,4.434-4.482c3.715-.019,7.431,0,11.146,0M55.187,127.912c.348-.394.534-.589.7-.8,1.766-2.2,3.524-4.415,5.3-6.615,1.587-1.972,2.864-1.962,4.467.035,2.122,2.643,4.221,5.3,6.357,7.936.284.351.71.8,1.093.821,1.556.093,3.121.039,4.682.039v-6.244a7.305,7.305,0,0,1-6.13-2.113,7.667,7.667,0,0,1-2.058-6.02H55.187Zm4.367,1.322h7.7L63.4,124.428l-3.845,4.807m14.5-14.315a2.924,2.924,0,0,0,2.738,4.025c.363-.01.983-.46,1.019-.762a27.9,27.9,0,0,0,.049-3.263Z" transform="translate(-38.573 -83.833)" fill="#12263f"/>
          <path id="Trazado_599399" data-name="Trazado 599399" d="M355.978,133.518c-3.635,0-7.269.01-10.9,0a4.247,4.247,0,0,1-4.61-4.6q-.034-6.784,0-13.569c.012-2.925,1.679-4.6,4.572-4.605q10.964-.016,21.928,0c2.892,0,4.547,1.56,4.581,4.445q.082,6.9,0,13.811c-.032,2.921-1.729,4.513-4.665,4.52-3.634.009-7.269,0-10.9,0m11.289-4.261v-14.33h-4.605c1.231,3.734.564,6.9-2.744,9.107a6.672,6.672,0,0,1-7.858-.034c-3.273-2.221-3.923-5.4-2.679-9.054h-4.629v14.311Zm-8.17-11.336a3.249,3.249,0,0,0-3.147-3.045,3.139,3.139,0,0,0-2.966,3.192,3.025,3.025,0,0,0,3.048,2.94,3.122,3.122,0,0,0,3.065-3.087" transform="translate(-257.747 -83.834)" fill="#12263f"/>
          <path id="Trazado_599400" data-name="Trazado 599400" d="M218.1,273.825c-1.979-1.373-3.948-2.762-5.953-4.1a1.187,1.187,0,0,0-.949.075c-.433.2-.794.552-1.209.8a2.075,2.075,0,0,1-2.831-.365,2,2,0,0,1,.23-2.826,3.7,3.7,0,0,1,.808-.448l-7.7-5.331c-.09.68-.13,1.153-.218,1.616a1.889,1.889,0,0,1-1.929,1.666c-1,.041-1.906-.463-1.958-1.43a19.923,19.923,0,0,1,.247-5.48,3.469,3.469,0,0,1,3.643-2.488q11.451-.068,22.9,0a3.926,3.926,0,0,1,4.022,4q.1,7.389-.008,14.781a3.962,3.962,0,0,1-4.18,3.96q-8.422.038-16.843,0a2.161,2.161,0,0,1-2.439-2.121,2.128,2.128,0,0,1,2.4-2.014c3.514-.023,7.028-.009,10.542-.01h1.306l.121-.285m4.916-12.24-7.6,5.284,7.6,5.261Zm-17.607-1.95-.12.227c2,1.385,4,2.789,6.03,4.129a1.2,1.2,0,0,0,1.032-.124c1.218-.782,2.392-1.631,3.581-2.457.76-.528,1.519-1.057,2.551-1.775Z" transform="translate(-148.625 -193.418)" fill="#12263f"/>
          <path id="Trazado_599401" data-name="Trazado 599401" d="M55.162,259.718v14.344c.471.023.9.059,1.321.061,2.3.008,4.6-.017,6.9.018a2.091,2.091,0,0,1,2.27,2.016,2.144,2.144,0,0,1-2.326,2.11c-2.786.027-5.573.046-8.358-.009a4.068,4.068,0,0,1-4.026-4.033q-.084-7.328,0-14.657a4.073,4.073,0,0,1,4.235-4.058q11.265-.023,22.531,0a4.016,4.016,0,0,1,4.249,4.138c.055,2.1.04,4.2.009,6.3a2.109,2.109,0,0,1-2.1,2.309,2.159,2.159,0,0,1-2.033-2.4c-.023-2.014-.006-4.03-.006-6.132Z" transform="translate(-38.539 -193.434)" fill="#12263f"/>
          <path id="Trazado_599402" data-name="Trazado 599402" d="M66.556,221.454c4.36,0,8.72.007,13.08-.006a2.233,2.233,0,0,1,2.166,1.035,2.053,2.053,0,0,1-1.576,3.077,12.47,12.47,0,0,1-1.573.03q-12.232,0-24.464,0c-.323,0-.647.013-.969-.006a2.138,2.138,0,0,1-2.167-2.139,2.057,2.057,0,0,1,2.18-1.975c4.44-.025,8.881-.01,13.322-.01v-.007" transform="translate(-38.651 -167.654)" fill="#12263f"/>
          <path id="Trazado_599403" data-name="Trazado 599403" d="M356.193,221.445q6.3,0,12.594,0a5.068,5.068,0,0,1,1.324.079,1.93,1.93,0,0,1,1.516,2.059,1.979,1.979,0,0,1-1.791,1.959,19.881,19.881,0,0,1-2.177.037q-12.231,0-24.461,0c-1.945,0-3.075-1.4-2.373-2.91a2.218,2.218,0,0,1,2.29-1.232c4.359.02,8.719.008,13.078.008" transform="translate(-257.873 -167.645)" fill="#12263f"/>
          <path id="Trazado_599404" data-name="Trazado 599404" d="M356.143,370.372h-13.2a1.994,1.994,0,0,1-2.137-1.586,1.875,1.875,0,0,1,.976-2.244,2.625,2.625,0,0,1,1.27-.28q13.2-.023,26.4,0a2.064,2.064,0,1,1,.012,4.11c-4.44.016-8.881.006-13.321.006" transform="translate(-257.957 -277.279)" fill="#12263f"/>
          <path id="Trazado_599405" data-name="Trazado 599405" d="M211.384,221.454c4.359,0,8.719.009,13.079-.006a2.1,2.1,0,0,1,2.329,1.506,2.027,2.027,0,0,1-2.044,2.622c-1.411.05-2.825.015-4.238.015q-11.081,0-22.162,0c-1.612,0-2.65-.988-2.477-2.292.153-1.161,1-1.831,2.434-1.836,4.36-.014,8.72,0,13.079,0" transform="translate(-148.275 -167.654)" fill="#12263f"/>
          <path id="Trazado_599406" data-name="Trazado 599406" d="M226.784,370.37q-5.392,0-10.783,0c-1.685,0-2.577-.706-2.6-2.024-.021-1.334.873-2.095,2.523-2.1q10.844-.01,21.688,0c1.665,0,2.546.742,2.534,2.082s-.893,2.036-2.58,2.039q-5.392.008-10.783,0" transform="translate(-161.563 -277.275)" fill="#12263f"/>
          <path id="Trazado_599407" data-name="Trazado 599407" d="M54.154,370.356c-2.072.008-3.077-.647-3.11-2.015-.034-1.406,1.007-2.1,3.15-2.1.442,0,.887-.017,1.327.02a2.047,2.047,0,0,1-.04,4.091c-.44.033-.884.005-1.327.005" transform="translate(-38.644 -277.27)" fill="#12263f"/>
          <rect id="Rectángulo_296236" data-name="Rectángulo 296236" width="115.754" height="3.928" transform="translate(4.176 14.606)" fill="#b2ebf2"/>
          <path id="Trazado_599408" data-name="Trazado 599408" d="M204.532,23.03c0-1.183-.007-2.311,0-3.439.015-1.8.77-2.587,2.578-2.6,3.514-.022,7.028-.007,10.542-.007,2.949,0,5.9-.007,8.846,0,2.067.007,2.785.724,2.794,2.752,0,1.048,0,2.1,0,3.29Z" transform="translate(-154.845 -12.855)" fill="#26aab7"/>
          <path id="Trazado_599409" data-name="Trazado 599409" d="M68.641,385.261l-5.452-5.423,20.178-20.182,5.451,5.455L68.641,385.261" transform="translate(-47.839 -272.289)" fill="#fb8c00"/>
          <path id="Trazado_599410" data-name="Trazado 599410" d="M165.463,336.716l-4.694-4.7,9.813-5.127-5.119,9.826" transform="translate(-121.715 -247.482)" fill="#f6f6f6"/>
          <path id="Trazado_599411" data-name="Trazado 599411" d="M47.273,461.392l-2.639,2.416-5.562-5.554,2.547-2.508,5.655,5.646" transform="translate(-29.58 -345.036)" fill="#fff"/>
          <path id="Trazado_599417" data-name="Trazado 599417" d="M379.757,311.834l3.855,4.843H375.9l3.856-4.843" transform="translate(-284.587 -236.083)" fill="#12263f"/>
        </g>
      </g>
    </g>
  </g>
</svg>
