<svg xmlns="http://www.w3.org/2000/svg" width="413" height="319.455" viewBox="0 0 413 319.455">
  <g id="Grupo_884968" data-name="Grupo 884968" transform="translate(-215 -6838.32)">
    <rect id="Rectángulo_295308" data-name="Rectángulo 295308" width="413" height="251" transform="translate(215 6853)" fill="#fff7ee"/>
    <g id="Design_team-amico" data-name="Design team-amico" transform="translate(244.823 6814.185)">
      <g id="freepik--Floor--inject-14" transform="translate(27.435 157.387)" opacity="0.12">
        <path id="Trazado_127814" data-name="Trazado 127814" d="M294.55,244.088c-62.981-36.331-164.765-36.331-227.332,0S4.97,339.411,67.93,375.77s164.765,36.367,227.339,0S357.53,280.455,294.55,244.088Z" transform="translate(-20.5 -216.84)" fill="#727997"/>
      </g>
      <g id="freepik--Shadows--inject-14" transform="translate(31.224 195.614)" opacity="0.2">
        <path id="Trazado_127816" data-name="Trazado 127816" d="M46.856,416.839c14.96-8.655,39.223-8.655,54.14,0s14.817,22.689-.171,31.344-39.223,8.655-54.14,0S31.861,425.494,46.856,416.839Z" transform="translate(-35.553 -306.699)" fill="#727997"/>
        <path id="Trazado_127817" data-name="Trazado 127817" d="M118.174,314.038c-14.126-8.164-36.965-8.164-51.006,0s-13.962,21.371.171,29.542,36.965,8.157,51.006,0S132.308,322.223,118.174,314.038Z" transform="translate(-41.632 -277.237)" fill="#727997"/>
        <path id="Trazado_127818" data-name="Trazado 127818" d="M175.255,399.228c15.865-9.154,41.5-9.154,57.26,0s15.672,24.014-.185,33.175-41.5,9.154-57.26,0S159.39,408.382,175.255,399.228Z" transform="translate(-72.298 -301.526)" fill="#727997"/>
        <path id="Trazado_127819" data-name="Trazado 127819" d="M172.44,270.079l175.7,100.737,9.012-5.25L181.409,264.85Z" transform="translate(-74.926 -264.85)" fill="#727997"/>
      </g>
      <g id="freepik--light-bulb--inject-14" transform="translate(44.49 32.968)">
        <g id="freepik--freepik--light-bulb--inject-77--inject-14">
          <g id="freepik--freepik--Idea--inject-77--inject-14">
            <g id="freepik--freepik--light--inject-77--inject-14" transform="translate(8.612 8.484)">
              <path id="Trazado_127820" data-name="Trazado 127820" d="M91.478,84.092a1.163,1.163,0,1,1,0-.028Z" transform="translate(-72.334 -58.313)" fill="#37474f"/>
              <path id="Trazado_127821" data-name="Trazado 127821" d="M86.443,85.5c-1.624-.2-2.137-1.425-1.154-2.736a5.656,5.656,0,0,1,4.723-1.995c1.624.2,2.137,1.425,1.154,2.721A5.7,5.7,0,0,1,86.443,85.5Z" transform="translate(-71.594 -57.738)" fill="#455a64"/>
              <path id="Trazado_127822" data-name="Trazado 127822" d="M85.9,84.477c-1.674-.214-2.208-1.467-1.2-2.849a5.87,5.87,0,0,1,4.873-2.073c1.674.214,2.208,1.467,1.183,2.849A5.8,5.8,0,0,1,85.9,84.477Z" transform="translate(-71.422 -57.388)" fill="#37474f"/>
              <path id="Trazado_127823" data-name="Trazado 127823" d="M85.353,83.472c-1.724-.214-2.272-1.5-1.2-2.849a6,6,0,0,1,4.987-2.137c1.724.207,2.28,1.5,1.24,2.892a6.02,6.02,0,0,1-5.022,2.094Z" transform="translate(-71.253 -57.08)" fill="#455a64"/>
              <path id="Trazado_127824" data-name="Trazado 127824" d="M84.751,82.363c-1.774-.214-2.337-1.553-1.261-2.978a6.2,6.2,0,0,1,5.193-2.2c1.774.221,2.344,1.553,1.261,2.985A6.2,6.2,0,0,1,84.751,82.363Z" transform="translate(-71.063 -56.705)" fill="#37474f"/>
              <path id="Trazado_127825" data-name="Trazado 127825" d="M84.17,81.265c-1.845-.242-2.394-1.581-1.3-3.049a6.333,6.333,0,0,1,5.286-2.223c1.809.214,2.394,1.581,1.289,3.042A6.312,6.312,0,0,1,84.17,81.265Z" transform="translate(-70.881 -56.363)" fill="#455a64"/>
              <path id="Trazado_127826" data-name="Trazado 127826" d="M72.488,49.26a10.173,10.173,0,0,0-5.421,13.321v.043c3.142,7.444,9.8,6.077,11.12,9.069a1.752,1.752,0,0,0,1.51.919,5.492,5.492,0,0,0,4.573-1.938,1.767,1.767,0,0,0,.378-1.71h0c-1.282-3,4.338-6.846,1.175-14.3a10.173,10.173,0,0,0-13.336-5.421Z" transform="translate(-66.267 -48.443)" fill="#fb8c00"/>
              <path id="Trazado_127828" data-name="Trazado 127828" d="M85.171,80.119c-1.161-.164-1.567-1.026-.869-1.959a4.125,4.125,0,0,1,3.448-1.425c1.161.164,1.553,1.033.841,1.98A4.1,4.1,0,0,1,85.171,80.119Z" transform="translate(-71.355 -56.577)" fill="#727997"/>
              <path id="Trazado_127829" data-name="Trazado 127829" d="M85.2,73.521a.342.342,0,0,1-.442-.171,24.719,24.719,0,0,1-1.61-5.635A12.218,12.218,0,0,1,83,66.027a5.136,5.136,0,0,1-.99-.057,5.941,5.941,0,0,1-1.7-.541A6.183,6.183,0,0,1,79.51,67a5.365,5.365,0,0,1-.648.712A14.642,14.642,0,0,1,79.965,69a24.555,24.555,0,0,1,2.928,5.086.342.342,0,0,1-.192.449.356.356,0,0,1-.449-.2A24.15,24.15,0,0,0,79.4,69.425a11.086,11.086,0,0,0-1.1-1.282,2.173,2.173,0,0,1-2,.228,1.1,1.1,0,0,1-.712-1.254A.919.919,0,0,1,76.3,66.4a2.622,2.622,0,0,1,2.023.862,3.718,3.718,0,0,0,.584-.67,5.314,5.314,0,0,0,.762-1.532,2.529,2.529,0,0,1-1.225-1.589.976.976,0,0,1,1.71-.712,2.5,2.5,0,0,1,.292,1.988,5.478,5.478,0,0,0,1.624.52,4.125,4.125,0,0,0,.89,0,2.643,2.643,0,0,1,.791-2.052.926.926,0,0,1,1.026,0,1.1,1.1,0,0,1,.42,1.368,2.18,2.18,0,0,1-1.553,1.282,12.11,12.11,0,0,0,.157,1.681,24.22,24.22,0,0,0,1.567,5.464.356.356,0,0,1-.171.463ZM76.4,67.11a.242.242,0,0,0-.128.192c-.064.278.214.435.3.47a1.361,1.361,0,0,0,1.161-.1,1.952,1.952,0,0,0-1.282-.584Zm7.309-1.931a1.425,1.425,0,0,0,.876-.776c0-.085.121-.392-.128-.541a.221.221,0,0,0-.271,0C83.976,63.976,83.77,64.41,83.713,65.179Zm-4.367-2.03a.235.235,0,0,0-.171.278h0a1.667,1.667,0,0,0,.712.94,1.7,1.7,0,0,0-.2-1.147.242.242,0,0,0-.321-.078Z" transform="translate(-68.943 -52.466)" fill="#fff"/>
            </g>
            <path id="Trazado_127830" data-name="Trazado 127830" d="M71.926,42.8a.5.5,0,0,1-.15.1.67.67,0,0,1-.876-.349l-1.375-3.191a.655.655,0,0,1,.321-.869h0a.67.67,0,0,1,.876.356L72.1,42.029A.712.712,0,0,1,71.926,42.8Z" transform="translate(-58.574 -37.081)" fill="#fb8c00"/>
            <path id="Trazado_127831" data-name="Trazado 127831" d="M62.937,49.941a.663.663,0,0,1-.8,0l-2.785-2.066a.67.67,0,0,1,.791-1.076l2.785,2.066a.67.67,0,0,1,.135.933A.413.413,0,0,1,62.937,49.941Z" transform="translate(-55.597 -39.458)" fill="#fb8c00"/>
            <path id="Trazado_127832" data-name="Trazado 127832" d="M58.7,60.62a.67.67,0,0,1-.5.142l-3.441-.4a.663.663,0,0,1-.584-.712.712.712,0,0,1,.712-.591l3.448.4a.663.663,0,0,1,.584.712A.648.648,0,0,1,58.7,60.62Z" transform="translate(-54.177 -43.013)" fill="#fb8c00"/>
            <path id="Trazado_127833" data-name="Trazado 127833" d="M60.378,71.4a.413.413,0,0,1-.128.121L57.065,72.9a.655.655,0,0,1-.869-.328h0a.663.663,0,0,1,.328-.876h0l3.17-1.425a.67.67,0,0,1,.712,1.133Z" transform="translate(-54.741 -46.213)" fill="#fb8c00"/>
            <path id="Trazado_127834" data-name="Trazado 127834" d="M102.983,52.994a.712.712,0,0,1-.128.121l-3.234,1.346a.663.663,0,1,1-.52-1.218l3.184-1.382a.663.663,0,0,1,.862.378.67.67,0,0,1-.185.755Z" transform="translate(-66.978 -40.929)" fill="#fb8c00"/>
            <path id="Trazado_127835" data-name="Trazado 127835" d="M93.136,45.4a.67.67,0,0,1-.947-.926l2.073-2.778a.648.648,0,0,1,.912-.142h0a.663.663,0,0,1,.142.919h0l-2.073,2.785a.52.52,0,0,1-.107.142Z" transform="translate(-65.073 -37.94)" fill="#fb8c00"/>
            <path id="Trazado_127836" data-name="Trazado 127836" d="M83.132,41.14a.67.67,0,0,1-1.083-.6l.435-3.419a.663.663,0,0,1,1.318.15L83.4,40.72a.634.634,0,0,1-.264.42Z" transform="translate(-62.193 -36.534)" fill="#fb8c00"/>
          </g>
        </g>
      </g>
      <g id="freepik--Screen--inject-14" transform="translate(130.042 24.135)">
        <path id="Trazado_127848" data-name="Trazado 127848" d="M347.837,262.234l.235-131.938a10.151,10.151,0,0,0-4.609-7.993L179.8,28.027a3.339,3.339,0,0,0-3.263-.342l4.844-2.8h0a3.217,3.217,0,0,1,3.362.271L348.4,119.4a10.166,10.166,0,0,1,4.616,7.993l-.192,131.981a3.341,3.341,0,0,1-1.232,2.885h0l-.256.15-4.78,2.785A3.326,3.326,0,0,0,347.837,262.234Z" transform="translate(-174.923 -24.248)" fill="#727997"/>
        <path id="Trazado_127849" data-name="Trazado 127849" d="M181.384,24.855h0a3.217,3.217,0,0,1,3.362.271L348.4,119.387a9.7,9.7,0,0,1,3.562,3.939l-4.951,2.849a9.653,9.653,0,0,0-3.526-3.932L179.8,28.018a3.339,3.339,0,0,0-3.263-.342Z" transform="translate(-174.923 -24.239)" fill="#fff" opacity="0.3"/>
        <path id="Trazado_127850" data-name="Trazado 127850" d="M421.661,167.3l-.192,131.981a3.341,3.341,0,0,1-1.232,2.885h0l-.256.15L415.2,305.1a3.266,3.266,0,0,0,1.332-2.956l.185-131.938a8.955,8.955,0,0,0-1.083-4.061l4.951-2.849a9.033,9.033,0,0,1,1.076,4Z" transform="translate(-243.568 -64.163)" fill="#fff" opacity="0.2"/>
        <path id="Trazado_127851" data-name="Trazado 127851" d="M347.412,141.086l-.228,125.983a3.275,3.275,0,0,1-1.332,2.956l-.071.043h-.036a3.316,3.316,0,0,1-3.206-.363L178.886,175.48a10.194,10.194,0,0,1-4.616-7.993l.221-126.147Z" transform="translate(-174.27 -29.084)" fill="#727997"/>
        <path id="Trazado_127852" data-name="Trazado 127852" d="M347.412,141.086l-.228,125.983a3.275,3.275,0,0,1-1.332,2.956l-.071.043h-.036a3.316,3.316,0,0,1-3.206-.363L178.886,175.48a10.194,10.194,0,0,1-4.616-7.993l.221-126.147Z" transform="translate(-174.27 -29.084)" opacity="0.2"/>
        <path id="Trazado_127853" data-name="Trazado 127853" d="M203.16,181.864l.185-104.7L344.1,158.085l-.185,104.548Z" transform="translate(-182.58 -39.387)" fill="#fff"/>
        <path id="Trazado_127854" data-name="Trazado 127854" d="M284.97,189.856l.078-54.126,62.411,35.875-.085,54.062Z" transform="translate(-206.11 -56.233)" fill="#fb8c00"/>
        <path id="Trazado_127855" data-name="Trazado 127855" d="M174.6,31.84a3.261,3.261,0,0,1,1.332-2.949h0a3.285,3.285,0,0,1,3.263.342l163.71,94.2a10.151,10.151,0,0,1,4.609,8.028v5.991L174.59,37.725Z" transform="translate(-174.362 -25.418)" fill="#727997"/>
        <path id="Trazado_127856" data-name="Trazado 127856" d="M174.6,31.84a3.261,3.261,0,0,1,1.332-2.949h0a3.285,3.285,0,0,1,3.263.342l163.71,94.2a10.151,10.151,0,0,1,4.609,8.028v5.991L174.59,37.725Z" transform="translate(-174.362 -25.418)" opacity="0.3"/>
        <g id="Grupo_72213" data-name="Grupo 72213" transform="translate(4.331 8.644)" opacity="0.39">
          <path id="Trazado_127857" data-name="Trazado 127857" d="M191.291,42.031c-.712-.4-1.261-.078-1.261.712a2.743,2.743,0,0,0,1.254,2.18c.712.406,1.268.078,1.268-.712A2.778,2.778,0,0,0,191.291,42.031Z" transform="translate(-183.134 -37.877)" fill="#fff"/>
          <path id="Trazado_127858" data-name="Trazado 127858" d="M186.491,39.239c-.712-.406-1.261-.085-1.261.712a2.764,2.764,0,0,0,1.261,2.187c.712.4,1.268.078,1.268-.712a2.771,2.771,0,0,0-1.268-2.187Z" transform="translate(-181.754 -37.073)" fill="#fff"/>
          <path id="Trazado_127859" data-name="Trazado 127859" d="M181.611,36.441c-.712-.4-1.261-.078-1.261.712a2.743,2.743,0,0,0,1.254,2.18c.712.406,1.268.085,1.268-.712A2.792,2.792,0,0,0,181.611,36.441Z" transform="translate(-180.35 -36.269)" fill="#fff"/>
        </g>
        <path id="Trazado_127860" data-name="Trazado 127860" d="M191.071,102.5l-.021,6.575.021-6.575Z" transform="translate(-179.096 -46.675)" fill="#fff"/>
        <path id="Trazado_127861" data-name="Trazado 127861" d="M188.73,113.945l-5.72-3.305h0l5.72,3.305-.014,6.575h0Z" transform="translate(-176.784 -49.016)" fill="#fff"/>
        <rect id="Rectángulo_32480" data-name="Rectángulo 32480" height="6.604" transform="translate(6.199 70.718) rotate(-60)" fill="#fff"/>
        <rect id="Rectángulo_32481" data-name="Rectángulo 32481" height="6.604" transform="translate(6.108 103.813) rotate(-60)" fill="#fff"/>
        <path id="Trazado_127862" data-name="Trazado 127862" d="M183.09,81.55l5.727,3.305L183.09,81.55Z" transform="translate(-176.807 -40.649)" fill="#fff"/>
        <path id="Trazado_127863" data-name="Trazado 127863" d="M186.48,87.05l3.305,1.909-.021,6.575.021-6.575Z" transform="translate(-177.782 -42.231)" fill="#fff"/>
        <path id="Trazado_127864" data-name="Trazado 127864" d="M183.06,94.32l5.72,3.305-5.72-3.305Z" transform="translate(-176.798 -44.322)" fill="#fff"/>
        <path id="Trazado_127865" data-name="Trazado 127865" d="M183.02,107.09l5.72,3.305-5.72-3.305Z" transform="translate(-176.787 -47.995)" fill="#fff"/>
        <path id="Trazado_127866" data-name="Trazado 127866" d="M186.2,184.59l3.305,1.909-.021,6.575h0l.021-6.575Z" transform="translate(-177.701 -70.286)" fill="#fff"/>
        <rect id="Rectángulo_32482" data-name="Rectángulo 32482" height="6.604" transform="translate(6.163 85.611) rotate(-60)" fill="#fff"/>
        <rect id="Rectángulo_32483" data-name="Rectángulo 32483" height="6.604" transform="translate(6.137 94.709) rotate(-60)" fill="#fff"/>
        <path id="Trazado_127867" data-name="Trazado 127867" d="M183.041,97.87l5.72,3.3-.021,6.575-5.72-3.305Z" transform="translate(-176.787 -45.343)" fill="#fff"/>
        <path id="Trazado_127868" data-name="Trazado 127868" d="M188.71,120.521l-5.72-3.305L183,110.64l5.72,3.305Z" transform="translate(-176.778 -49.016)" fill="#fff"/>
        <path id="Trazado_127869" data-name="Trazado 127869" d="M182.871,157.09l5.72,3.305-.021,6.575-5.72-3.305Z" transform="translate(-176.738 -62.377)" fill="#fff"/>
        <path id="Trazado_127870" data-name="Trazado 127870" d="M188.54,179.733l-5.72-3.3.014-6.575,5.727,3.305Z" transform="translate(-176.729 -66.05)" fill="#fff"/>
        <path id="Trazado_127871" data-name="Trazado 127871" d="M182.911,144.32l5.72,3.3-.021,6.575-5.72-3.305Z" transform="translate(-176.749 -58.704)" fill="#fff"/>
        <path id="Trazado_127872" data-name="Trazado 127872" d="M180.15,187.059l9.41,5.428.135-47.2-9.41-5.435Zm1.916-25.831,5.7,3.305h0v6.575l-5.7-3.305Zm5.756-8.321-5.7-3.305v-6.568h0l5.7,3.3h0Zm0,9.1-5.7-3.305v-6.575h0l5.7,3.305h0Zm-.05,18.194h0l-5.7-3.305v-6.568l2.415,1.425,3.305,1.909v6.575ZM182.031,186v-6.575l5.7,3.305V189.3Z" transform="translate(-175.961 -57.418)" fill="#727997"/>
        <path id="Trazado_127873" data-name="Trazado 127873" d="M180.36,115.059l9.4,5.435.135-47.209-9.41-5.435Zm7.672-34.144-5.7-3.305h0V71.034l5.7,3.305Zm0,9.1-5.7-3.305h0V80.131l2.422,1.425,3.305,1.909Zm0,9.1-5.7-3.3h0V89.235l5.7,3.3h0Zm0,9.1h0l-5.7-3.305V98.332h0l5.7,3.305Zm0,9.1-5.7-3.305v-6.575h0l5.7,3.305h0Z" transform="translate(-176.022 -36.709)" fill="#727997"/>
        <path id="Trazado_127874" data-name="Trazado 127874" d="M180.15,187.059l9.41,5.428.135-47.2-9.41-5.435Zm1.916-25.831,5.7,3.305h0v6.575l-5.7-3.305Zm5.756-8.321-5.7-3.305v-6.568h0l5.7,3.3h0Zm0,9.1-5.7-3.305v-6.575h0l5.7,3.305h0Zm-.05,18.194h0l-5.7-3.305v-6.568l2.415,1.425,3.305,1.909v6.575ZM182.031,186v-6.575l5.7,3.305V189.3Z" transform="translate(-175.961 -57.418)" fill="#455a64"/>
        <path id="Trazado_127875" data-name="Trazado 127875" d="M180.36,115.059l9.4,5.435.135-47.209-9.41-5.435Zm7.672-34.144-5.7-3.305h0V71.034l5.7,3.305Zm0,9.1-5.7-3.305h0V80.131l2.422,1.425,3.305,1.909Zm0,9.1-5.7-3.3h0V89.235l5.7,3.3h0Zm0,9.1h0l-5.7-3.305V98.332h0l5.7,3.305Zm0,9.1-5.7-3.305v-6.575h0l5.7,3.305h0Z" transform="translate(-176.022 -36.709)" fill="#455a64"/>
        <path id="Trazado_127876" data-name="Trazado 127876" d="M183.06,91.665l.014-6.575,2.422,1.4L188.8,88.4l-.021,6.575-5.72-3.305Z" transform="translate(-176.798 -41.667)" fill="#fff"/>
        <path id="Trazado_127877" data-name="Trazado 127877" d="M180.54,66.372l.014-3.662,9.41,5.428-.014,3.669-9.41-5.435Z" transform="translate(-176.073 -35.23)" fill="#fff"/>
        <path id="Trazado_127878" data-name="Trazado 127878" d="M183.09,78.9l.021-6.575,5.72,3.305-.014,6.575L183.09,78.9Z" transform="translate(-176.807 -37.994)" fill="#fff"/>
        <path id="Trazado_127879" data-name="Trazado 127879" d="M182.964,123.41h0l5.727,3.305h0l-.021,6.575-5.72-3.305Z" transform="translate(-176.767 -52.689)" fill="#fff"/>
        <path id="Trazado_127880" data-name="Trazado 127880" d="M182.78,189.205l.021-6.575,2.415,1.4,3.305,1.909-.021,6.575h0Z" transform="translate(-176.718 -69.723)" fill="#fff"/>
        <path id="Trazado_127881" data-name="Trazado 127881" d="M188.485,198.705l-.014,6.575-5.72-3.305.014-6.575Z" transform="translate(-176.709 -73.396)" fill="#fff"/>
        <path id="Trazado_127882" data-name="Trazado 127882" d="M332.909,253.314l-.014,3L284.71,228.089l.014-3Z" transform="translate(-206.036 -81.935)" fill="#37474f"/>
        <ellipse id="Elipse_4782" data-name="Elipse 4782" cx="4.709" cy="8.128" rx="4.709" ry="8.128" transform="matrix(0.865, -0.502, 0.502, 0.865, 27.884, 130.899)" fill="#e0e0e0"/>
        <path id="Trazado_127883" data-name="Trazado 127883" d="M222.664,181.225a12.666,12.666,0,0,1,5.749,9.973c-.014,3.676-2.6,5.136-5.784,3.3a12.666,12.666,0,0,1-5.749-9.973C216.894,180.847,219.445,179.415,222.664,181.225Z" transform="translate(-186.526 -69.094)" fill="#e0e0e0"/>
        <path id="Trazado_127884" data-name="Trazado 127884" d="M244.664,193.92a12.666,12.666,0,0,1,5.749,9.973c-.014,3.676-2.6,5.136-5.784,3.3a12.665,12.665,0,0,1-5.749-9.973C238.894,193.542,241.445,192.082,244.664,193.92Z" transform="translate(-192.854 -72.742)" fill="#e0e0e0"/>
        <path id="Trazado_127885" data-name="Trazado 127885" d="M266.542,230.2a12.684,12.684,0,0,1,5.749,9.973c-.007,3.676-2.6,5.136-5.792,3.3a12.666,12.666,0,0,1-5.749-9.973C260.757,229.822,263.35,228.362,266.542,230.2Z" transform="translate(-199.144 -83.177)" fill="#e0e0e0"/>
        <ellipse id="Elipse_4783" data-name="Elipse 4783" cx="4.709" cy="8.128" rx="4.709" ry="8.128" transform="matrix(0.865, -0.502, 0.502, 0.865, 59.271, 132.2)" fill="#e0e0e0"/>
        <ellipse id="Elipse_4784" data-name="Elipse 4784" cx="4.709" cy="8.128" rx="4.709" ry="8.128" transform="matrix(0.865, -0.502, 0.502, 0.865, 43.55, 139.951)" fill="#e0e0e0"/>
        <path id="Trazado_127886" data-name="Trazado 127886" d="M413.343,115.611,351.63,79.964a1.24,1.24,0,0,0-1.254-.121h0l-4.616,3.305h0a1.254,1.254,0,0,1,1.24.128l61.748,35.654a3.89,3.89,0,0,1,1.724,3.02l-.242,55.13a1.232,1.232,0,0,1-.492,1.111h0l4.673-3.348h0a1.282,1.282,0,0,0,.449-1.083l.242-55.13a3.89,3.89,0,0,0-1.76-3.02Z" transform="translate(-223.595 -40.125)" fill="#727997"/>
        <path id="Trazado_127887" data-name="Trazado 127887" d="M409.9,178.451l.242-55.159a3.89,3.89,0,0,0-1.76-3.049L346.639,84.625a1.254,1.254,0,0,0-1.24-.128,1.225,1.225,0,0,0-.527,1.147l-.242,55.13a3.89,3.89,0,0,0,1.76,3.049l61.748,35.619a1.2,1.2,0,0,0,1.275.1,1.232,1.232,0,0,0,.492-1.09Z" transform="translate(-223.27 -41.466)" fill="#455a64"/>
        <g id="Grupo_72214" data-name="Grupo 72214" transform="translate(125.278 80.259)" opacity="0.3">
          <path id="Trazado_127888" data-name="Trazado 127888" d="M355.836,140.084l-.014,6.54-5.692-3.284.021-6.54Z" transform="translate(-350.13 -136.8)"/>
        </g>
        <g id="Grupo_72215" data-name="Grupo 72215" transform="translate(125.278 92.491)" opacity="0.3">
          <path id="Trazado_127889" data-name="Trazado 127889" d="M355.836,157.261l-.014,6.532-5.692-3.284.021-6.54Z" transform="translate(-350.13 -153.97)"/>
        </g>
        <path id="Trazado_127890" data-name="Trazado 127890" d="M363.826,161.867l-.014,6.54-5.692-3.284.021-6.532Z" transform="translate(-227.15 -62.808)" fill="#fff"/>
        <g id="Grupo_72216" data-name="Grupo 72216" transform="translate(134.339 87.483)" opacity="0.5">
          <path id="Trazado_127891" data-name="Trazado 127891" d="M396.709,166.48l-.007,2.55L362.85,149.49l.007-2.55Z" transform="translate(-362.85 -146.94)" fill="#fff"/>
        </g>
        <g id="Grupo_72217" data-name="Grupo 72217" transform="translate(125.306 70.236)" opacity="0.3">
          <path id="Trazado_127892" data-name="Trazado 127892" d="M355.876,126.014l-.014,6.532-5.692-3.284.021-6.532Z" transform="translate(-350.17 -122.73)"/>
        </g>
        <g id="Grupo_72218" data-name="Grupo 72218" transform="translate(134.396 67.422)" opacity="0.5">
          <path id="Trazado_127893" data-name="Trazado 127893" d="M396.789,138.327l-.007,2.55-33.852-19.54.007-2.557Z" transform="translate(-362.93 -118.78)" fill="#fff"/>
        </g>
        <g id="Grupo_72219" data-name="Grupo 72219" transform="translate(134.368 77.46)" opacity="0.5">
          <path id="Trazado_127894" data-name="Trazado 127894" d="M396.749,152.41l-.007,2.55L362.89,135.42l.007-2.55Z" transform="translate(-362.89 -132.87)" fill="#fff"/>
        </g>
        <g id="Grupo_72220" data-name="Grupo 72220" transform="translate(125.335 60.206)" opacity="0.3">
          <path id="Trazado_127895" data-name="Trazado 127895" d="M355.916,111.934l-.014,6.54-5.692-3.284.021-6.54Z" transform="translate(-350.21 -108.65)"/>
        </g>
        <path id="Trazado_127896" data-name="Trazado 127896" d="M426.374,152.606l-.021,6.54L414.67,152.4l.021-6.54Z" transform="translate(-243.416 -59.147)" fill="#fff"/>
        <path id="Trazado_127897" data-name="Trazado 127897" d="M426.294,180.766l-.021,6.532-11.683-6.746.021-6.532Z" transform="translate(-243.393 -67.246)" fill="#fff"/>
        <path id="Trazado_127898" data-name="Trazado 127898" d="M426.334,166.686l-.021,6.54L414.63,166.48l.021-6.54Z" transform="translate(-243.404 -63.196)" fill="#fff"/>
        <g id="Grupo_72221" data-name="Grupo 72221" transform="translate(148.907 57.877)" opacity="0.3">
          <path id="Trazado_127899" data-name="Trazado 127899" d="M419.51,126.3a3.889,3.889,0,0,1,1.76,3.028v5.279L383.3,112.682v-7.3Z" transform="translate(-383.3 -105.38)"/>
        </g>
        <path id="Trazado_127900" data-name="Trazado 127900" d="M369.939,102.274,348.767,90.05l-.007,2.415,21.179,12.224Z" transform="translate(-224.458 -43.094)" fill="#fff"/>
        <path id="Trazado_127901" data-name="Trazado 127901" d="M426.79,133.08v.684l4.267,2.465v-.684Z" transform="translate(-246.902 -55.471)" fill="#fff"/>
        <path id="Trazado_127902" data-name="Trazado 127902" d="M426.78,138.677l4.26,2.458.007-.67L426.78,138Z" transform="translate(-246.899 -56.886)" fill="#fff"/>
        <path id="Trazado_127903" data-name="Trazado 127903" d="M426.79,135.4l4.26,2.458.007-.677-4.267-2.465Z" transform="translate(-246.902 -55.942)" fill="#fff"/>
        <path id="Trazado_127904" data-name="Trazado 127904" d="M426.78,137.037l4.267,2.458v-.67l-4.267-2.465Z" transform="translate(-246.899 -56.414)" fill="#fff"/>
        <path id="Trazado_127905" data-name="Trazado 127905" d="M413.343,115.611,351.63,79.964a1.24,1.24,0,0,0-1.254-.121h0l-4.616,3.305h0a1.254,1.254,0,0,1,1.24.128l61.748,35.654a3.669,3.669,0,0,1,1.346,1.51l4.851-2.785a3.9,3.9,0,0,0-1.6-2.045Z" transform="translate(-223.595 -40.125)" fill="#37474f"/>
        <path id="Trazado_127906" data-name="Trazado 127906" d="M435.871,135.755a3.484,3.484,0,0,1,.413,1.539l-.242,55.13a1.232,1.232,0,0,1-.492,1.111h0l4.673-3.348h0a1.282,1.282,0,0,0,.449-1.083l.242-55.13a3.048,3.048,0,0,0-.192-1Z" transform="translate(-249.421 -55.439)" fill="#263238"/>
        <path id="Trazado_127907" data-name="Trazado 127907" d="M279.458,59.992,217.71,24.374a1.261,1.261,0,0,0-1.254-.128h0l-4.616,3.313h0a1.254,1.254,0,0,1,1.24.128L274.828,63.34a3.89,3.89,0,0,1,1.76,3.049L276.345,91.6a1.247,1.247,0,0,1-.484,1.111h0l4.673-3.348h0a1.289,1.289,0,0,0,.442-1.076l.242-25.218a3.89,3.89,0,0,0-1.76-3.077Z" transform="translate(-185.076 -24.135)" fill="#727997"/>
        <path id="Trazado_127908" data-name="Trazado 127908" d="M276.035,92.913l.242-25.211a3.89,3.89,0,0,0-1.76-3.049L212.769,29.035a1.254,1.254,0,0,0-1.24-.128,1.24,1.24,0,0,0-.527,1.14l-.242,25.218a3.89,3.89,0,0,0,1.76,3.049l61.748,35.619a1.218,1.218,0,0,0,1.282.1,1.247,1.247,0,0,0,.484-1.118Z" transform="translate(-184.766 -25.477)" fill="#455a64"/>
        <g id="Grupo_72222" data-name="Grupo 72222" transform="translate(30.034 19.245)" opacity="0.5">
          <path id="Trazado_127909" data-name="Trazado 127909" d="M224.295,55.674l-.029,9.012-7.836-4.524.021-9.012Z" transform="translate(-216.43 -51.15)" fill="#fff"/>
        </g>
        <g id="Grupo_72223" data-name="Grupo 72223" transform="translate(42.258 26.012)" opacity="0.5">
          <path id="Trazado_127910" data-name="Trazado 127910" d="M241.455,65.174l-.029,9.019-7.836-4.524.021-9.019Z" transform="translate(-233.59 -60.65)" fill="#fff"/>
        </g>
        <g id="Grupo_72224" data-name="Grupo 72224" transform="translate(54.475 32.78)" opacity="0.5">
          <path id="Trazado_127911" data-name="Trazado 127911" d="M258.6,74.681l-.021,9.012-7.843-4.524.028-9.019Z" transform="translate(-250.74 -70.15)" fill="#fff"/>
        </g>
        <g id="Grupo_72225" data-name="Grupo 72225" transform="translate(66.699 39.554)" opacity="0.5">
          <path id="Trazado_127912" data-name="Trazado 127912" d="M275.765,84.184l-.021,9.012L267.9,88.672l.029-9.012Z" transform="translate(-267.9 -79.66)" fill="#fff"/>
        </g>
        <g id="Grupo_72226" data-name="Grupo 72226" transform="translate(78.924 46.322)" opacity="0.5">
          <path id="Trazado_127913" data-name="Trazado 127913" d="M292.925,93.684,292.9,102.7l-7.836-4.531.029-9.012Z" transform="translate(-285.06 -89.16)" fill="#fff"/>
        </g>
        <g id="Grupo_72227" data-name="Grupo 72227" transform="translate(53.528 18.247)" opacity="0.3">
          <path id="Trazado_127914" data-name="Trazado 127914" d="M285.634,70.672a3.89,3.89,0,0,1,1.76,3.049v5.272L249.41,57.052v-7.3Z" transform="translate(-249.41 -49.75)"/>
        </g>
        <path id="Trazado_127915" data-name="Trazado 127915" d="M236.079,46.644,214.907,34.42l-.007,2.415,21.172,12.224Z" transform="translate(-185.956 -27.093)" fill="#fff"/>
        <path id="Trazado_127916" data-name="Trazado 127916" d="M292.927,77.45l-.007.684,4.267,2.458v-.677Z" transform="translate(-208.397 -39.47)" fill="#fff"/>
        <path id="Trazado_127917" data-name="Trazado 127917" d="M292.91,83.047l4.267,2.458v-.67L292.91,82.37Z" transform="translate(-208.394 -40.885)" fill="#fff"/>
        <path id="Trazado_127918" data-name="Trazado 127918" d="M292.92,79.774l4.267,2.458v-.677L292.92,79.09Z" transform="translate(-208.397 -39.942)" fill="#fff"/>
        <path id="Trazado_127919" data-name="Trazado 127919" d="M292.91,81.407l4.267,2.458v-.67l-4.26-2.465Z" transform="translate(-208.394 -40.413)" fill="#fff"/>
        <path id="Trazado_127920" data-name="Trazado 127920" d="M279.458,59.992,217.71,24.374a1.261,1.261,0,0,0-1.254-.128h0l-4.616,3.313h0a1.254,1.254,0,0,1,1.24.128L274.828,63.34a3.668,3.668,0,0,1,1.346,1.51l4.88-2.814a3.875,3.875,0,0,0-1.6-2.045Z" transform="translate(-185.076 -24.135)" fill="#37474f"/>
        <path id="Trazado_127921" data-name="Trazado 127921" d="M302.023,80.125a3.484,3.484,0,0,1,.413,1.539l-.242,25.211a1.247,1.247,0,0,1-.484,1.111h0l4.673-3.348h0a1.289,1.289,0,0,0,.442-1.076l.242-25.218a3.048,3.048,0,0,0-.192-1Z" transform="translate(-210.925 -39.438)" fill="#263238"/>
        <path id="Trazado_127922" data-name="Trazado 127922" d="M413.328,215.982,351.58,180.364a1.261,1.261,0,0,0-1.254-.128h0l-4.616,3.313h0a1.254,1.254,0,0,1,1.24.128L408.7,219.33a3.889,3.889,0,0,1,1.76,3.049l-.242,84.359a1.232,1.232,0,0,1-.492,1.111h0L414.4,304.5h0a1.282,1.282,0,0,0,.449-1.083l.242-84.359a3.889,3.889,0,0,0-1.76-3.077Z" transform="translate(-223.581 -69.002)" fill="#727997"/>
        <path id="Trazado_127923" data-name="Trazado 127923" d="M409.9,308.037l.242-84.359a3.889,3.889,0,0,0-1.76-3.049l-61.748-35.654a1.254,1.254,0,0,0-1.24-.128,1.225,1.225,0,0,0-.527,1.14l-.242,84.366a3.889,3.889,0,0,0,1.76,3.049l61.748,35.619a1.2,1.2,0,0,0,1.275.1,1.232,1.232,0,0,0,.492-1.083Z" transform="translate(-223.27 -70.329)" fill="#727997"/>
        <g id="Grupo_72228" data-name="Grupo 72228" transform="translate(148.893 129.377)" opacity="0.3">
          <path id="Trazado_127924" data-name="Trazado 127924" d="M419.5,226.665a3.889,3.889,0,0,1,1.76,3.049v5.272L383.28,213.052v-7.3Z" transform="translate(-383.28 -205.75)"/>
        </g>
        <path id="Trazado_127925" data-name="Trazado 127925" d="M429.677,315.28h0l-.42-.72-.776.449.776-.449Z" transform="translate(-247.388 -107.669)" fill="none"/>
        <path id="Trazado_127926" data-name="Trazado 127926" d="M429.747,289.407h0l-.413-.727-.784.449.784-.449Z" transform="translate(-247.408 -100.226)" fill="none"/>
        <path id="Trazado_127927" data-name="Trazado 127927" d="M427.32,276.96l-.42.242.42-.242Z" transform="translate(-246.933 -96.855)" fill="none"/>
        <path id="Trazado_127928" data-name="Trazado 127928" d="M380.937,277.961l-1.2-2.066.42-.235-.42.235,1.2,2.066Z" transform="translate(-233.369 -96.481)" fill="none"/>
        <path id="Trazado_127929" data-name="Trazado 127929" d="M427.415,344.762l-.285-.492-.42.242.42-.242Z" transform="translate(-246.879 -116.215)" fill="none"/>
        <path id="Trazado_127930" data-name="Trazado 127930" d="M428,314.646l-.776-1.346-.42.235.42-.235Z" transform="translate(-246.905 -107.307)" fill="none"/>
        <path id="Trazado_127931" data-name="Trazado 127931" d="M380.13,286.11l.776,1.354.784-.456.413.727h0l-.413-.727-.784.456-.776-1.354-.42.242h0Z" transform="translate(-233.36 -99.486)" fill="none"/>
        <rect id="Rectángulo_32484" data-name="Rectángulo 32484" height="0.484" transform="translate(146.613 168.066)" fill="none"/>
        <path id="Trazado_127932" data-name="Trazado 127932" d="M382.5,319.069h0l-.413-.719-.784.449.784-.449Z" transform="translate(-233.818 -108.76)" fill="none"/>
        <path id="Trazado_127933" data-name="Trazado 127933" d="M379.62,317.325l.42-.235h0l-.42.235.762,1.311Z" transform="translate(-233.334 -108.397)" fill="none"/>
        <path id="Trazado_127934" data-name="Trazado 127934" d="M429.174,345.537l.413.719-.413-.727-.784.456h0Z" transform="translate(-247.362 -116.577)" fill="none"/>
        <path id="Trazado_127935" data-name="Trazado 127935" d="M426.88,287.662h0l.413-.242Z" transform="translate(-246.928 -99.863)" fill="none"/>
        <path id="Trazado_127936" data-name="Trazado 127936" d="M429.4,264.68l-.784.442.784-.442Z" transform="translate(-247.428 -93.323)" fill="none"/>
        <path id="Trazado_127937" data-name="Trazado 127937" d="M352.9,267.73l-4.331-2.5-.014,5.264,4.331,2.5Z" transform="translate(-224.398 -93.481)" fill="#fff"/>
        <path id="Trazado_127938" data-name="Trazado 127938" d="M352.925,257.27l-4.331-2.5-.014,5.264,4.331,2.5Z" transform="translate(-224.406 -90.472)" fill="#fff"/>
        <path id="Trazado_127939" data-name="Trazado 127939" d="M369.939,202.627,348.767,190.41l-.007,2.415,21.179,12.224Z" transform="translate(-224.458 -71.96)" fill="#fff"/>
        <path id="Trazado_127940" data-name="Trazado 127940" d="M429.334,265.03l-.413-.712-.784.442-.776-1.339-.42.228,1.2,2.066Z" transform="translate(-246.945 -92.96)" fill="#fff"/>
        <path id="Trazado_127941" data-name="Trazado 127941" d="M352.973,241.85l-4.338-2.5-.014,5.264,4.331,2.508Z" transform="translate(-224.418 -86.037)" fill="#fff"/>
        <path id="Trazado_127942" data-name="Trazado 127942" d="M353,231.39l-4.338-2.5-.014,5.264,4.338,2.508Z" transform="translate(-224.427 -83.028)" fill="#fff"/>
        <path id="Trazado_127943" data-name="Trazado 127943" d="M348.7,215.33l-.014,5.272,54.026,31.188.014-5.264Z" transform="translate(-224.438 -79.128)" fill="#727997"/>
        <path id="Trazado_127944" data-name="Trazado 127944" d="M424.53,264.384l5.813,3.355v-5.264l-5.813-3.355Zm2.137-2.2.776,1.339.784-.442h0l.413.712-1.2.712-1.2-2.066Z" transform="translate(-246.252 -91.723)" fill="#727997"/>
        <path id="Trazado_127945" data-name="Trazado 127945" d="M348.734,204.32l-.014,5.264,54.026,31.195.014-5.264Z" transform="translate(-224.447 -75.961)" fill="#727997"/>
        <path id="Trazado_127946" data-name="Trazado 127946" d="M429.364,254.014l-.413-.719-.784.442-.776-1.346-.42.242,1.2,2.059Z" transform="translate(-246.954 -89.788)" fill="#fff"/>
        <path id="Trazado_127947" data-name="Trazado 127947" d="M424.56,253.374l5.813,3.355v-5.264l-5.813-3.355Zm2.137-2.215.776,1.346.784-.442.413.712-1.2.712L426.3,251.4Z" transform="translate(-246.26 -88.557)" fill="#727997"/>
        <path id="Trazado_127948" data-name="Trazado 127948" d="M382.2,251.4l-.413-.72-.784.449-.776-1.346-.42.235,1.2,2.066Z" transform="translate(-233.389 -89.037)" fill="#fff"/>
        <path id="Trazado_127949" data-name="Trazado 127949" d="M383.213,254.11v-5.264L377.4,245.49v5.264Zm-3.676-5.564.776,1.346.784-.449.413.712-1.2.712-1.2-2.066Z" transform="translate(-232.696 -87.803)" fill="#727997"/>
        <path id="Trazado_127950" data-name="Trazado 127950" d="M357.8,249.914l13.941,8.05h0l.014-5.264-13.941-8.05Z" transform="translate(-227.058 -87.561)" fill="#727997"/>
        <path id="Trazado_127951" data-name="Trazado 127951" d="M371.785,242.24l-13.941-8.05-.014,5.272,13.941,8.043Z" transform="translate(-227.067 -84.553)" fill="#727997"/>
        <path id="Trazado_127952" data-name="Trazado 127952" d="M380.98,262.541l1.2-.684-.413-.72-.784.442-.776-1.339-.413.235Z" transform="translate(-233.383 -92.045)" fill="#fff"/>
        <path id="Trazado_127953" data-name="Trazado 127953" d="M377.37,261.229l5.813,3.355V259.32l-5.8-3.32h0v5.264Zm2.137-2.208h0l.776,1.339.784-.442.413.712-1.2.712-1.19-2.066h0Z" transform="translate(-232.687 -90.826)" fill="#727997"/>
        <path id="Trazado_127954" data-name="Trazado 127954" d="M424.46,288.4l5.813,3.355V286.5l-5.813-3.355Zm1.724-1.973.413-.242.776,1.346.784-.449.413.712h0l-1.2.712-1.19-2.066Z" transform="translate(-246.232 -98.632)" fill="#727997"/>
        <path id="Trazado_127955" data-name="Trazado 127955" d="M424.42,303.874l5.813,3.355v-5.264l-5.813-3.355Zm2.137-2.208.776,1.346.776-.449.42.712-1.2.712-1.2-2.066Z" transform="translate(-246.22 -103.082)" fill="#727997"/>
        <path id="Trazado_127956" data-name="Trazado 127956" d="M424.39,314.279l5.813,3.355v-5.272L424.4,309Zm2.137-2.215.776,1.346.784-.449.413.712h0l-1.2.712-1.2-2.059Z" transform="translate(-246.211 -106.07)" fill="#727997"/>
        <path id="Trazado_127957" data-name="Trazado 127957" d="M404.834,297.71l-.014,5.272,13.941,8.05h0l.014-5.272Z" transform="translate(-240.583 -102.823)" fill="#727997"/>
        <path id="Trazado_127958" data-name="Trazado 127958" d="M404.864,287.26l-.014,5.264,13.941,8.05.014-5.264Z" transform="translate(-240.591 -99.817)" fill="#727997"/>
        <path id="Trazado_127959" data-name="Trazado 127959" d="M404.9,271.84l-.014,5.264,13.941,8.05.021-5.264Z" transform="translate(-240.603 -95.382)" fill="#727997"/>
        <path id="Trazado_127960" data-name="Trazado 127960" d="M404.934,261.38l-.014,5.264,13.941,8.05.014-5.264Z" transform="translate(-240.611 -92.373)" fill="#727997"/>
        <path id="Trazado_127961" data-name="Trazado 127961" d="M429.294,278.584l-.413-.719-.784.449-.776-1.354-.42.242,1.2,2.066Z" transform="translate(-246.933 -96.855)" fill="#fff"/>
        <path id="Trazado_127962" data-name="Trazado 127962" d="M424.51,272.68v5.264l5.813,3.355v-5.264Zm2.137,3.049h0l.776,1.354.784-.449.413.712-1.2.712-1.2-2.066Z" transform="translate(-246.246 -95.624)" fill="#727997"/>
        <path id="Trazado_127963" data-name="Trazado 127963" d="M395.71,271.8l4.338,2.5.014-5.264-4.338-2.5Z" transform="translate(-237.962 -93.858)" fill="#fff"/>
        <path id="Trazado_127964" data-name="Trazado 127964" d="M400.093,258.58l-4.338-2.5-.014,5.264,4.331,2.508Z" transform="translate(-237.971 -90.849)" fill="#fff"/>
        <path id="Trazado_127965" data-name="Trazado 127965" d="M428.07,289.728l1.2-.684h0l-.413-.727-.784.449-.776-1.346-.413.242h0Z" transform="translate(-246.928 -99.863)" fill="#fff"/>
        <path id="Trazado_127966" data-name="Trazado 127966" d="M357.76,265.334l13.941,8.05h0l.014-5.264-13.941-8.05Z" transform="translate(-227.047 -91.997)" fill="#727997"/>
        <path id="Trazado_127967" data-name="Trazado 127967" d="M377.33,276.634l5.813,3.355v-5.264l-5.813-3.355Zm2.137-2.208.776,1.346.776-.449.42.712-1.2.712h0l-1.2-2.066Z" transform="translate(-232.676 -95.247)" fill="#727997"/>
        <path id="Trazado_127968" data-name="Trazado 127968" d="M380.937,277.961h0l1.2-.684-.42-.719-.776.449-.777-1.346-.42.235Z" transform="translate(-233.369 -96.481)" fill="#fff"/>
        <path id="Trazado_127969" data-name="Trazado 127969" d="M380.907,287.464l-.776-1.354-.42.242,1.2,2.066,1.2-.684-.413-.727Z" transform="translate(-233.36 -99.486)" fill="#fff"/>
        <path id="Trazado_127970" data-name="Trazado 127970" d="M377.3,287.094h0l5.813,3.355v-5.264L377.3,281.83h0Zm2.137-2.215.776,1.354.784-.456.413.712h0l-1.2.712-1.2-2.066h0Z" transform="translate(-232.667 -98.255)" fill="#727997"/>
        <path id="Trazado_127971" data-name="Trazado 127971" d="M363.471,293.835l.014-5.264-4.331-2.5-.014,5.264Z" transform="translate(-227.444 -99.475)" fill="#fff"/>
        <path id="Trazado_127972" data-name="Trazado 127972" d="M357.73,275.794l13.941,8.05h0l.014-5.264h0l-13.941-8.05Z" transform="translate(-227.038 -95.005)" fill="#727997"/>
        <path id="Trazado_127973" data-name="Trazado 127973" d="M368.955,308.025h0L348.474,296.2l-.014,5.264,20.481,11.825.014-5.264Z" transform="translate(-224.372 -102.389)" fill="#727997"/>
        <path id="Trazado_127974" data-name="Trazado 127974" d="M380.382,318.636l.435.755,1.2-.684-.413-.719-.784.449-.776-1.346-.42.235Z" transform="translate(-233.334 -108.397)" fill="#fff"/>
        <path id="Trazado_127975" data-name="Trazado 127975" d="M377.23,312.8v5.264h0l5.813,3.355v-5.264Zm2.137,3.056h0l.762,1.361.784-.449.413.712h0l-1.2.712-.435-.755-.762-1.311Z" transform="translate(-232.647 -107.163)" fill="#727997"/>
        <path id="Trazado_127976" data-name="Trazado 127976" d="M416.045,335.215,395.564,323.39l-.014,5.264,20.481,11.825h0Z" transform="translate(-237.916 -110.209)" fill="#727997"/>
        <path id="Trazado_127977" data-name="Trazado 127977" d="M348.7,215.33l-.014,5.272,54.026,31.188.014-5.264Z" transform="translate(-224.438 -79.128)" opacity="0.3"/>
        <path id="Trazado_127978" data-name="Trazado 127978" d="M348.734,204.32l-.014,5.264,54.026,31.195.014-5.264Z" transform="translate(-224.447 -75.961)" opacity="0.3"/>
        <path id="Trazado_127979" data-name="Trazado 127979" d="M357.8,249.914l13.941,8.05h0l.014-5.264-13.941-8.05Z" transform="translate(-227.058 -87.561)" opacity="0.3"/>
        <path id="Trazado_127980" data-name="Trazado 127980" d="M371.785,242.24l-13.941-8.05-.014,5.272,13.941,8.043Z" transform="translate(-227.067 -84.553)" opacity="0.3"/>
        <path id="Trazado_127981" data-name="Trazado 127981" d="M404.834,297.71l-.014,5.272,13.941,8.05h0l.014-5.272Z" transform="translate(-240.583 -102.823)" opacity="0.3"/>
        <path id="Trazado_127982" data-name="Trazado 127982" d="M404.864,287.26l-.014,5.264,13.941,8.05.014-5.264Z" transform="translate(-240.591 -99.817)" opacity="0.3"/>
        <path id="Trazado_127983" data-name="Trazado 127983" d="M404.9,271.84l-.014,5.264,13.941,8.05.021-5.264Z" transform="translate(-240.603 -95.382)" opacity="0.3"/>
        <path id="Trazado_127984" data-name="Trazado 127984" d="M404.934,261.38l-.014,5.264,13.941,8.05.014-5.264Z" transform="translate(-240.611 -92.373)" opacity="0.3"/>
        <path id="Trazado_127985" data-name="Trazado 127985" d="M357.76,265.334l13.941,8.05h0l.014-5.264-13.941-8.05Z" transform="translate(-227.047 -91.997)" opacity="0.3"/>
        <path id="Trazado_127986" data-name="Trazado 127986" d="M357.73,275.794l13.941,8.05h0l.014-5.264h0l-13.941-8.05Z" transform="translate(-227.038 -95.005)" opacity="0.3"/>
        <path id="Trazado_127987" data-name="Trazado 127987" d="M368.955,308.025h0L348.474,296.2l-.014,5.264,20.481,11.825.014-5.264Z" transform="translate(-224.372 -102.389)" opacity="0.3"/>
        <path id="Trazado_127988" data-name="Trazado 127988" d="M416.045,335.215,395.564,323.39l-.014,5.264,20.481,11.825h0Z" transform="translate(-237.916 -110.209)" opacity="0.3"/>
        <path id="Trazado_127989" data-name="Trazado 127989" d="M424.32,340v5.264h0l5.813,3.355v-5.264Zm2.137,3.049.285.492.492.862.784-.456.413.712-1.2.712-1.2-2.066Z" transform="translate(-246.191 -114.987)" fill="#727997"/>
        <path id="Trazado_127990" data-name="Trazado 127990" d="M424.53,264.384l5.813,3.355v-5.264l-5.813-3.355Zm2.137-2.2.776,1.339.784-.442h0l.413.712-1.2.712-1.2-2.066Z" transform="translate(-246.252 -91.723)" opacity="0.4"/>
        <path id="Trazado_127991" data-name="Trazado 127991" d="M424.56,253.374l5.813,3.355v-5.264l-5.813-3.355Zm2.137-2.215.776,1.346.784-.442.413.712-1.2.712L426.3,251.4Z" transform="translate(-246.26 -88.557)" opacity="0.4"/>
        <path id="Trazado_127992" data-name="Trazado 127992" d="M383.213,254.11v-5.264L377.4,245.49v5.264Zm-3.676-5.564.776,1.346.784-.449.413.712-1.2.712-1.2-2.066Z" transform="translate(-232.696 -87.803)" opacity="0.4"/>
        <path id="Trazado_127993" data-name="Trazado 127993" d="M377.37,261.229l5.813,3.355V259.32l-5.8-3.32h0v5.264Zm2.137-2.208h0l.776,1.339.784-.442.413.712-1.2.712-1.19-2.066h0Z" transform="translate(-232.687 -90.826)" opacity="0.4"/>
        <path id="Trazado_127994" data-name="Trazado 127994" d="M424.46,288.4l5.813,3.355V286.5l-5.813-3.355Zm1.724-1.973.413-.242.776,1.346.784-.449.413.712h0l-1.2.712-1.19-2.066Z" transform="translate(-246.232 -98.632)" opacity="0.4"/>
        <path id="Trazado_127995" data-name="Trazado 127995" d="M424.42,303.874l5.813,3.355v-5.264l-5.813-3.355Zm2.137-2.208.776,1.346.776-.449.42.712-1.2.712-1.2-2.066Z" transform="translate(-246.22 -103.082)" opacity="0.4"/>
        <path id="Trazado_127996" data-name="Trazado 127996" d="M424.39,314.279l5.813,3.355v-5.272L424.4,309Zm2.137-2.215.776,1.346.784-.449.413.712h0l-1.2.712-1.2-2.059Z" transform="translate(-246.211 -106.07)" opacity="0.4"/>
        <path id="Trazado_127997" data-name="Trazado 127997" d="M424.51,272.68v5.264l5.813,3.355v-5.264Zm2.137,3.049h0l.776,1.354.784-.449.413.712-1.2.712-1.2-2.066Z" transform="translate(-246.246 -95.624)" opacity="0.4"/>
        <path id="Trazado_127998" data-name="Trazado 127998" d="M377.33,276.634l5.813,3.355v-5.264l-5.813-3.355Zm2.137-2.208.776,1.346.776-.449.42.712-1.2.712h0l-1.2-2.066Z" transform="translate(-232.676 -95.247)" opacity="0.4"/>
        <path id="Trazado_127999" data-name="Trazado 127999" d="M377.3,287.094h0l5.813,3.355v-5.264L377.3,281.83h0Zm2.137-2.215.776,1.354.784-.456.413.712h0l-1.2.712-1.2-2.066h0Z" transform="translate(-232.667 -98.255)" opacity="0.4"/>
        <path id="Trazado_128000" data-name="Trazado 128000" d="M377.23,312.8v5.264h0l5.813,3.355v-5.264Zm2.137,3.056h0l.762,1.361.784-.449.413.712h0l-1.2.712-.435-.755-.762-1.311Z" transform="translate(-232.647 -107.163)" opacity="0.4"/>
        <path id="Trazado_128001" data-name="Trazado 128001" d="M424.32,340v5.264h0l5.813,3.355v-5.264Zm2.137,3.049.285.492.492.862.784-.456.413.712-1.2.712-1.2-2.066Z" transform="translate(-246.191 -114.987)" opacity="0.4"/>
        <path id="Trazado_128002" data-name="Trazado 128002" d="M429.1,345.894l-.413-.719-.784.449h0l-.492-.862-.285-.492-.42.242,1.2,2.066Z" transform="translate(-246.879 -116.215)" fill="#fff"/>
        <path id="Trazado_128003" data-name="Trazado 128003" d="M395.64,297.682l4.331,2.5.014-5.264-4.331-2.508Z" transform="translate(-237.942 -101.298)" fill="#fff"/>
        <path id="Trazado_128004" data-name="Trazado 128004" d="M395.67,287.222l4.331,2.5.014-5.264-4.331-2.508Z" transform="translate(-237.951 -98.29)" fill="#fff"/>
        <path id="Trazado_128005" data-name="Trazado 128005" d="M429.224,304.467l-.413-.72-.784.449-.776-1.346-.42.235,1.19,2.066Z" transform="translate(-246.913 -104.301)" fill="#fff"/>
        <path id="Trazado_128006" data-name="Trazado 128006" d="M429.194,314.917h0l-.42-.72-.776.449-.776-1.346-.42.235L428,315.6Z" transform="translate(-246.905 -107.307)" fill="#fff"/>
        <path id="Trazado_128007" data-name="Trazado 128007" d="M352.853,282.43l-4.331-2.5-.021,5.264,4.338,2.5Z" transform="translate(-224.383 -97.709)" fill="#fff"/>
        <path id="Trazado_128008" data-name="Trazado 128008" d="M383.08,305.154l4.331,2.5.014-5.264-4.331-2.5Z" transform="translate(-234.33 -103.45)" fill="#fff"/>
        <path id="Trazado_128009" data-name="Trazado 128009" d="M393.7,311.284l4.338,2.508.014-5.264-4.338-2.508Z" transform="translate(-237.384 -105.213)" fill="#fff"/>
        <path id="Trazado_128010" data-name="Trazado 128010" d="M415.8,318.77l-.014,5.272,4.331,2.5.014-5.264Z" transform="translate(-243.738 -108.88)" fill="#fff"/>
        <path id="Trazado_128011" data-name="Trazado 128011" d="M426.41,330.174l4.345,2.508.014-5.264-4.338-2.508Z" transform="translate(-246.793 -110.646)" fill="#fff"/>
        <path id="Trazado_128012" data-name="Trazado 128012" d="M426.79,233.44v.684l4.267,2.458V235.9Z" transform="translate(-246.902 -84.337)" fill="#fff"/>
        <path id="Trazado_128013" data-name="Trazado 128013" d="M426.78,239.037l4.26,2.458.007-.677-4.267-2.458Z" transform="translate(-246.899 -85.752)" fill="#fff"/>
        <path id="Trazado_128014" data-name="Trazado 128014" d="M426.79,235.764l4.26,2.458.007-.677-4.267-2.465Z" transform="translate(-246.902 -84.809)" fill="#fff"/>
        <path id="Trazado_128015" data-name="Trazado 128015" d="M426.78,237.4l4.267,2.458v-.67l-4.267-2.465Z" transform="translate(-246.899 -85.28)" fill="#fff"/>
        <path id="Trazado_128016" data-name="Trazado 128016" d="M413.328,215.982,351.58,180.364a1.261,1.261,0,0,0-1.254-.128h0l-4.616,3.313h0a1.254,1.254,0,0,1,1.24.128L408.7,219.33a3.626,3.626,0,0,1,1.346,1.51l4.851-2.785A3.875,3.875,0,0,0,413.328,215.982Z" transform="translate(-223.581 -69.002)" fill="#fff" opacity="0.3"/>
        <path id="Trazado_128017" data-name="Trazado 128017" d="M435.871,236.115a3.484,3.484,0,0,1,.413,1.539l-.242,84.359a1.232,1.232,0,0,1-.492,1.111h0l4.673-3.348h0a1.282,1.282,0,0,0,.449-1.083l.242-84.359a3.048,3.048,0,0,0-.192-1Z" transform="translate(-249.421 -84.305)" fill="#fff" opacity="0.2"/>
        <path id="Trazado_128018" data-name="Trazado 128018" d="M318.342,271.821l-.007,3.006-33.7-19.868.007-3Z" transform="translate(-206.015 -89.664)" fill="#37474f"/>
        <path id="Trazado_128019" data-name="Trazado 128019" d="M309.877,252.893l-.007,3L284.68,240.946l.007-3.006Z" transform="translate(-206.027 -85.631)" fill="#37474f"/>
        <path id="Trazado_128020" data-name="Trazado 128020" d="M332.852,273.761l-.007,3L284.66,248.536l.007-3.006Z" transform="translate(-206.021 -87.814)" fill="#37474f"/>
        <path id="Trazado_128021" data-name="Trazado 128021" d="M332.892,259.744l-.014,3L284.7,234.512l.007-2.992Z" transform="translate(-206.033 -83.785)" fill="#37474f"/>
      </g>
      <g id="freepik--character-1--inject-14" transform="translate(47.341 64.138)">
        <path id="Trazado_128022" data-name="Trazado 128022" d="M167.325,131.818s.506-2.137-.841-2.436c0,0,1.161-2.451-.306-2.935s-3.32,4.417-5.471,6.411c-.392.442-2.906,2.714-3.241,1.98h0l-3.455,1.332a6.626,6.626,0,0,1-.976,2.764c-3.7,5.642-7.929,8.363-11.084,12.381l-3.063-2.971-5.827,8.1,5.7,4.274a6.411,6.411,0,0,0,9.125-1.553l10.529-15.672a5.506,5.506,0,0,1,1.745-1.646c1.674-.99,4.9-3,6.091-4.467C167.923,135.415,168.123,133.243,167.325,131.818Z" transform="translate(-79.716 -93.556)" fill="#ffc3c2"/>
        <path id="Trazado_128023" data-name="Trazado 128023" d="M116.21,137.848c5.834-.256,13.749,9.2,18.208,13.663-.342,5.457-6.212,9.04-6.212,9.04a126.647,126.647,0,0,1-12-9.382Z" transform="translate(-74.869 -96.844)" fill="#1565c0"/>
        <path id="Trazado_128024" data-name="Trazado 128024" d="M116.21,137.848c5.834-.256,13.749,9.2,18.208,13.663-.342,5.457-6.212,9.04-6.212,9.04a126.647,126.647,0,0,1-12-9.382Z" transform="translate(-74.869 -96.968)" fill="#fff" opacity="0.3"/>
        <path id="Trazado_128025" data-name="Trazado 128025" d="M177.632,80.29l18.137,38.853L164,127.748,145.86,88.9Z" transform="translate(-83.398 -80.29)" fill="#727997"/>
        <g id="Grupo_72229" data-name="Grupo 72229" transform="translate(62.462)" opacity="0.3">
          <path id="Trazado_128026" data-name="Trazado 128026" d="M177.632,80.29l18.137,38.853L164,127.748,145.86,88.9Z" transform="translate(-145.86 -80.29)" fill="#fff"/>
        </g>
        <path id="Trazado_128027" data-name="Trazado 128027" d="M198.012,115.492l.456.983a1.425,1.425,0,0,1-.435,1.076,2.194,2.194,0,0,1-2.736.4,3.89,3.89,0,0,1-.848-.712,3.241,3.241,0,0,1-.62,1.325,2.287,2.287,0,0,1-1.261.8,3.341,3.341,0,0,1-2.629-.413l-.335-.214a7.216,7.216,0,0,1-2.422-3.013,5.613,5.613,0,0,1-.663-3.483,2.458,2.458,0,0,1,1.973-1.881,4.808,4.808,0,0,1,1.282-.142,3.769,3.769,0,0,1,1.232.221l-1.9-4.068a3.947,3.947,0,0,0-1.211-1.66l-.107-.071a1.546,1.546,0,0,0-1.19-.178,1.083,1.083,0,0,0-.826.776,1.332,1.332,0,0,1,.449.171,1.76,1.76,0,0,1,.4.306,3.234,3.234,0,0,1,.648.947,2.757,2.757,0,0,1,.3,1.717,1.118,1.118,0,0,1-.848.912,1.66,1.66,0,0,1-1.268-.2c-.078-.043-.157-.1-.235-.15a4.139,4.139,0,0,1-1.261-1.624,4.808,4.808,0,0,1-.477-2.137,3.063,3.063,0,0,1,.712-1.923,3.989,3.989,0,0,1,2.137-1.218,4.274,4.274,0,0,1,3.384.37l.114.071a7.523,7.523,0,0,1,2.686,3.362l3.79,8.114a2.906,2.906,0,0,0,1.076,1.339A1.489,1.489,0,0,0,198.012,115.492Zm-4.83.769a1.254,1.254,0,0,0,.321-.477l-1.425-2.971a2.714,2.714,0,0,0-.712-.228,1.645,1.645,0,0,0-.648,0,.869.869,0,0,0-.641.784,2.935,2.935,0,0,0,.37,1.638,3.17,3.17,0,0,0,.983,1.268,1.5,1.5,0,0,0,.192.128,1.3,1.3,0,0,0,1,.157,1.054,1.054,0,0,0,.506-.3" transform="translate(-94.218 -86.492)" fill="#fff"/>
        <path id="Trazado_128028" data-name="Trazado 128028" d="M182.929,118.452a3.063,3.063,0,0,1,.085.983l-5.279,1.425a4.039,4.039,0,0,1-.712-.8,5.7,5.7,0,0,1-.62-1.033c.712-.207.883-.791.42-1.774a11.461,11.461,0,0,0-.8-1.425l-.42-.613-4.36,1.19.185.67a9.039,9.039,0,0,0,.456,1.425,2.386,2.386,0,0,0,.89,1.111,1.361,1.361,0,0,0,1.076.114,5.171,5.171,0,0,1,.385,1.1,3.063,3.063,0,0,1,.085.983l-4.338,1.175a3.861,3.861,0,0,1-.748-.8,6.171,6.171,0,0,1-.62-1.04,1.083,1.083,0,0,0,.755-.776,3.127,3.127,0,0,0,0-1.66l-3.726-15.672a4.616,4.616,0,0,0-2.137.135,5.058,5.058,0,0,1-.563-2.337l5.336-1.425,11.719,16.385a4.53,4.53,0,0,0,1.375,1.346,1.667,1.667,0,0,0,1.254.285,5.136,5.136,0,0,1,.306,1.026Zm-12.41-4.538,3.512-.947-4.93-7.216a10.928,10.928,0,0,0-1.183-1.425l2.6,9.61" transform="translate(-88.31 -85.789)" fill="#fff"/>
        <path id="Trazado_128029" data-name="Trazado 128029" d="M117.349,312.13c-.107,2.479,0,5.393,0,5.393l-1.425.078a3.491,3.491,0,0,0-3.092,2.3v.093a1.361,1.361,0,0,1-1.681.833h0a1.354,1.354,0,0,1-.819-.712l-.712-6.226Z" transform="translate(-72.974 -146.974)" fill="#ffc3c2"/>
        <path id="Trazado_128030" data-name="Trazado 128030" d="M119.5,339.262c3.776,1.617,9.553,1.931,11.954-1.923v1.04c-2.4,3.854-8.178,3.562-11.954,1.931s-2.949-4.274-6.333-5.7a9.139,9.139,0,0,1-3.305-2.087,11.244,11.244,0,0,0-.114-1.133,11.4,11.4,0,0,0,3.419,2.173C116.553,335.016,115.727,337.652,119.5,339.262Z" transform="translate(-73.011 -152.513)" fill="#37474f"/>
        <path id="Trazado_128031" data-name="Trazado 128031" d="M109.69,324.636a5.528,5.528,0,0,0,0-2.23,1.183,1.183,0,0,1,.171-.983l.285-.278.135,1.147a1.354,1.354,0,0,0,2.5-.121v-.093a3.491,3.491,0,0,1,3.092-2.3l1.425-.078a1.061,1.061,0,0,1,1.033.648,23.964,23.964,0,0,0,8.214,9.517c2.137-.05,4.8,1.731,4.8,3.9v.214c-2.4,3.854-8.178,3.562-11.954,1.923s-2.949-4.274-6.333-5.663a11.4,11.4,0,0,1-3.419-2.173A12.111,12.111,0,0,1,109.69,324.636Z" transform="translate(-72.952 -149.15)" fill="#1565c0"/>
        <path id="Trazado_128032" data-name="Trazado 128032" d="M119.7,329.7a.477.477,0,0,1-.712-.577,5.485,5.485,0,0,1,4.93-2.137,8.713,8.713,0,0,0,.62.712,5.272,5.272,0,0,0-4.837,2Z" transform="translate(-75.657 -151.239)" fill="#fff"/>
        <path id="Trazado_128033" data-name="Trazado 128033" d="M117.571,327.319a.463.463,0,0,1-.663.064.477.477,0,0,1-.078-.662,5.749,5.749,0,0,1,5.143-2.223c.178.271.37.541.563.8A5.329,5.329,0,0,0,117.571,327.319Z" transform="translate(-75.019 -150.523)" fill="#fff"/>
        <path id="Trazado_128034" data-name="Trazado 128034" d="M121.838,331.974a.484.484,0,0,1-.67.064.477.477,0,0,1-.078-.663,5.457,5.457,0,0,1,4.8-2.173c.242.256.492.5.712.712A5.272,5.272,0,0,0,121.838,331.974Z" transform="translate(-76.245 -151.879)" fill="#fff"/>
        <path id="Trazado_128035" data-name="Trazado 128035" d="M130.661,334c2.137-.05,4.8,1.731,4.8,3.9v.214c-2.365,3.8-8.007,3.562-11.783,1.995C123.972,334.9,128.952,333.957,130.661,334Z" transform="translate(-77.018 -153.264)" fill="#fff"/>
        <path id="Trazado_128036" data-name="Trazado 128036" d="M124.069,334.154a.477.477,0,0,1-.67.064.484.484,0,0,1-.078-.662,5.492,5.492,0,0,1,4.816-2.173c.3.271.6.52.9.755A5.328,5.328,0,0,0,124.069,334.154Z" transform="translate(-76.887 -152.507)" fill="#fff"/>
        <path id="Trazado_128037" data-name="Trazado 128037" d="M89.179,318.57c-.107,2.479,0,5.4,0,5.4l-1.425.078a3.491,3.491,0,0,0-3.092,2.294v.093a1.354,1.354,0,0,1-1.681.833h0a1.346,1.346,0,0,1-.819-.712l-.712-6.226Z" transform="translate(-64.871 -148.826)" fill="#ffc3c2"/>
        <path id="Trazado_128038" data-name="Trazado 128038" d="M91.332,345.709c3.768,1.61,9.553,1.923,11.954-1.931v1.047c-2.4,3.854-8.185,3.562-11.954,1.923s-2.949-4.274-6.333-5.7a9.19,9.19,0,0,1-3.305-2.08c0-.306-.064-.712-.114-1.14A11.505,11.505,0,0,0,85,340.01C88.383,341.463,87.578,344.092,91.332,345.709Z" transform="translate(-64.909 -154.366)" fill="#37474f"/>
        <path id="Trazado_128039" data-name="Trazado 128039" d="M81.52,331.079a5.478,5.478,0,0,0,0-2.223,1.19,1.19,0,0,1,.171-.99l.278-.278.142,1.154a1.361,1.361,0,0,0,2.5-.128v-.093a3.491,3.491,0,0,1,3.092-2.294l1.425-.078a1.04,1.04,0,0,1,1.033.648,24.013,24.013,0,0,0,8.214,9.517c2.137-.05,4.8,1.724,4.8,3.89v.214c-2.4,3.854-8.185,3.562-11.954,1.931s-2.949-4.274-6.333-5.663a11.5,11.5,0,0,1-3.419-2.18A12.11,12.11,0,0,1,81.52,331.079Z" transform="translate(-64.849 -151.005)" fill="#727997"/>
        <path id="Trazado_128040" data-name="Trazado 128040" d="M91.5,336.143a.484.484,0,0,1-.67.057.463.463,0,0,1-.078-.655,5.45,5.45,0,0,1,4.93-2.137c.2.249.406.492.62.712a5.279,5.279,0,0,0-4.8,2.023Z" transform="translate(-67.517 -153.085)" fill="#fff"/>
        <path id="Trazado_128041" data-name="Trazado 128041" d="M89.431,333.781a.477.477,0,0,1-.712-.6,5.749,5.749,0,0,1,5.115-2.194c.178.271.37.534.563.8a5.329,5.329,0,0,0-4.965,1.988Z" transform="translate(-66.947 -152.39)" fill="#fff"/>
        <path id="Trazado_128042" data-name="Trazado 128042" d="M93.658,338.421a.484.484,0,0,1-.67.057.477.477,0,0,1-.078-.663,5.457,5.457,0,0,1,4.8-2.173c.242.256.492.506.712.748A5.243,5.243,0,0,0,93.658,338.421Z" transform="translate(-68.139 -153.732)" fill="#fff"/>
        <path id="Trazado_128043" data-name="Trazado 128043" d="M102.491,340.42c2.137-.05,4.8,1.724,4.8,3.89v.214c-2.365,3.8-8.007,3.562-11.783,1.995C95.8,341.331,100.782,340.4,102.491,340.42Z" transform="translate(-68.916 -155.11)" fill="#fff"/>
        <path id="Trazado_128044" data-name="Trazado 128044" d="M95.931,340.6a.477.477,0,0,1-.712-.6,5.478,5.478,0,0,1,4.816-2.18c.3.271.6.52.9.762A5.329,5.329,0,0,0,95.931,340.6Z" transform="translate(-68.817 -154.359)" fill="#fff"/>
        <path id="Trazado_128045" data-name="Trazado 128045" d="M112.956,202.18l-.712,48.178-2.272,33.717c-5.756,3.64-11.7.192-11.7.192-2.18-15.979-2.265-25.852-1.076-32.5l-.712-25.724L95.361,252.63,89.933,286.7c-5.906,3.833-12.324-.114-12.324-.114,0-12.246-1.254-26.8,2.137-35.619a193.825,193.825,0,0,1,1.638-48.27Z" transform="translate(-63.701 -115.349)" fill="#37474f"/>
        <path id="Trazado_128046" data-name="Trazado 128046" d="M106.6,220.98l-2.386,9.681.342,12.424,3.562-20.018c5.136-2.009,5.806-4.837,5.806-4.837a15.779,15.779,0,0,1-7.323,2.75Z" transform="translate(-71.418 -119.965)" opacity="0.3"/>
        <path id="Trazado_128047" data-name="Trazado 128047" d="M84.405,142.526c8.349-3.918,14.611-4.374,21.435-4.666,10.215,6.575,6.411,12.053,6.219,20.837a121.481,121.481,0,0,0,3.149,28.694c-13.385,10.686-31.1,8.178-35.148,5.613C81.015,166.846,79.868,144.371,84.405,142.526Z" transform="translate(-64.472 -96.849)" fill="#1565c0"/>
        <path id="Trazado_128048" data-name="Trazado 128048" d="M84.405,142.526c8.349-3.918,14.611-4.374,21.435-4.666,10.215,6.575,6.411,12.053,6.219,20.837a121.481,121.481,0,0,0,3.149,28.694c-13.385,10.686-31.1,8.178-35.148,5.613C81.015,166.846,79.868,144.371,84.405,142.526Z" transform="translate(-64.472 -96.973)" fill="#fff" opacity="0.6"/>
        <path id="Trazado_128049" data-name="Trazado 128049" d="M112.844,112.378a6.96,6.96,0,0,0,1.931-9.175,3.747,3.747,0,0,0,1.831-1.724,2.016,2.016,0,0,0-2.622-2.693,2.849,2.849,0,0,0-1.133-3.305,2.671,2.671,0,0,0-3.334.613,1.809,1.809,0,0,0-1.24-1.781,3.726,3.726,0,0,0-2.308.142c-.712.256-1.425.627-2.187.862a17.353,17.353,0,0,1-3.939.506,7.936,7.936,0,0,0-3.8,1.012,3.408,3.408,0,0,0-1.5,3.854,2.194,2.194,0,0,0-1.581-.841,2.137,2.137,0,0,0-1.617.712c.826.513,1.631,1.061,2.458,1.574a2.244,2.244,0,0,0-2.529,1.012,5.044,5.044,0,0,0-.442,2.664,35.618,35.618,0,0,0,1.831,10.208c.563,1.7,2.137,4.595,3.747,5.378Z" transform="translate(-67.564 -84.289)" fill="#263238"/>
        <path id="Trazado_128050" data-name="Trazado 128050" d="M112.461,107.11a8.8,8.8,0,0,1-5.849,2.458,23.3,23.3,0,0,1-6.041-1.2,4.588,4.588,0,0,1-1.361,2.515,5.243,5.243,0,0,1-2.849,1.225,18.044,18.044,0,0,1,0,5.606,1.047,1.047,0,0,1-.712.862c-.67.2-1.111-.484-1.425-1.04a4.474,4.474,0,0,0-1.425-1.617,2.244,2.244,0,0,0-2.094-.214,2.18,2.18,0,0,0-1.1,1.346,4.025,4.025,0,0,0-.085,1.774,5.328,5.328,0,0,0,1.154,2.714,3.662,3.662,0,0,0,2.579,1.332,2.657,2.657,0,0,0,2.486-1.225l.043.185a7.126,7.126,0,0,0,.271.862,7.423,7.423,0,0,0,5.421,4.645c1.261.264,2.657.513,4.082.712.712.107,1.425.207,2.137.292a5.072,5.072,0,0,0,5.606-4.153C114.2,118.793,114.52,112.474,112.461,107.11Z" transform="translate(-67.174 -88.004)" fill="#ffc3c2"/>
        <path id="Trazado_128051" data-name="Trazado 128051" d="M98.68,129v9.446a10.429,10.429,0,0,0,7.6,4.21,3.726,3.726,0,0,0,2.728-.712,2.208,2.208,0,0,0-.278-3.5,1.211,1.211,0,0,1-.549-1.012v-3.07c-1.425-.214-2.849-.463-4.082-.712A7.423,7.423,0,0,1,98.68,129Z" transform="translate(-69.827 -94.3)" fill="#ffc3c2"/>
        <path id="Trazado_128052" data-name="Trazado 128052" d="M105.066,135.887a20.773,20.773,0,0,0,3.191.563v-1.916c-1.425-.214-2.849-.463-4.082-.712a7.4,7.4,0,0,1-5.236-4.231,7.587,7.587,0,0,0,1.909,3.947,9.1,9.1,0,0,0,4.217,2.351Z" transform="translate(-69.902 -94.47)" fill="#ffa8a7"/>
        <path id="Trazado_128053" data-name="Trazado 128053" d="M115.12,118.44l3.469,4.2-3.184,1.126Z" transform="translate(-74.556 -91.263)" fill="#ffa8a7"/>
        <path id="Trazado_128054" data-name="Trazado 128054" d="M108.25,118.8a.947.947,0,1,0,.28-.672.955.955,0,0,0-.28.672Z" transform="translate(-72.58 -91.093)" fill="#263238"/>
        <path id="Trazado_128055" data-name="Trazado 128055" d="M119.469,118.4a.955.955,0,1,0,.45-.9A.955.955,0,0,0,119.469,118.4Z" transform="translate(-75.806 -90.954)" fill="#263238"/>
        <path id="Trazado_128056" data-name="Trazado 128056" d="M118.76,112.543l2.55.292a1.354,1.354,0,0,0-1.069-1.126A1.624,1.624,0,0,0,118.76,112.543Z" transform="translate(-75.603 -89.327)" fill="#263238"/>
        <path id="Trazado_128057" data-name="Trazado 128057" d="M109.785,112.632l-2.465.712a1.346,1.346,0,0,1,.855-1.289,1.61,1.61,0,0,1,1.61.577Z" transform="translate(-72.312 -89.416)" fill="#263238"/>
        <path id="Trazado_128058" data-name="Trazado 128058" d="M109.963,127.85l2.657,1.289a1.738,1.738,0,0,1-2.016.577,1.581,1.581,0,0,1-.641-1.866Z" transform="translate(-73.046 -93.97)" fill="#ffa8a7"/>
        <path id="Trazado_128059" data-name="Trazado 128059" d="M109.963,127.85l2.657,1.289a1.738,1.738,0,0,1-2.016.577,1.581,1.581,0,0,1-.641-1.866Z" transform="translate(-73.046 -93.97)" opacity="0.3"/>
        <path id="Trazado_128060" data-name="Trazado 128060" d="M111.524,129.98a1.624,1.624,0,0,1-.926-.085,1.425,1.425,0,0,1-.712-1.425,1.646,1.646,0,0,1,1.047.363A1.681,1.681,0,0,1,111.524,129.98Z" transform="translate(-73.047 -94.148)" fill="#ffa8a7"/>
        <path id="Trazado_128061" data-name="Trazado 128061" d="M70.831,198.8,59.048,178.143a8.313,8.313,0,0,1-.207-6.96L65.4,155.768a20.089,20.089,0,0,1,11.4-10.935l1.653-.613c.94,9.261-1.852,13.7-10.315,29.763,0,0,4.459,14.96,7.943,21.642a25.154,25.154,0,0,1,7.451,5.4,1.354,1.354,0,0,1,.078,1.781h0a1.254,1.254,0,0,1-1.56.335c-1.133-.584-2.265-1.19-3.405-1.767a36.708,36.708,0,0,0,4.424,7.323,1.382,1.382,0,0,1-.085,1.8h0a1.361,1.361,0,0,1-1.211.42l-3.69-.541a6.668,6.668,0,0,1-4.987-3.662,22.725,22.725,0,0,1-2.258-7.907Z" transform="translate(-58.178 -98.678)" fill="#ffc3c2"/>
        <path id="Trazado_128062" data-name="Trazado 128062" d="M79.826,144.18c-7.174,2.458-11.234,4.089-16.926,19.533,2.849,4.41,10.686,3.811,10.686,3.811C83.794,152.13,79.826,144.18,79.826,144.18Z" transform="translate(-59.536 -98.667)" fill="#1565c0"/>
        <path id="Trazado_128063" data-name="Trazado 128063" d="M79.826,144.18c-7.174,2.458-11.234,4.089-16.926,19.533,2.849,4.41,10.686,3.811,10.686,3.811C83.794,152.13,79.826,144.18,79.826,144.18Z" transform="translate(-59.536 -98.791)" fill="#fff" opacity="0.3"/>
        <path id="Trazado_128064" data-name="Trazado 128064" d="M165.916,136.141a1,1,0,0,1,.043-.662c.549-1.923,1.1-3.747.05-4.509a.591.591,0,0,0-.876.264c-.42.9-1.425,2.522-1.98,3.6a10.415,10.415,0,0,0-.712,2.65l3.455-1.332Z" transform="translate(-88.166 -94.838)" fill="#ffc3c2"/>
      </g>
      <g id="freepik--character-3--inject-14" transform="translate(36.946 156.219)">
        <path id="Trazado_128065" data-name="Trazado 128065" d="M146.057,257.787c-.164-.6.121-3.348-.541-3.818s.577-1.46,1.781-.47S146.057,257.787,146.057,257.787Z" transform="translate(-72.851 -222.068)" fill="#ffa8a7"/>
        <path id="Trazado_128066" data-name="Trazado 128066" d="M147.47,229.283l.064,21.571,8.178-4.723-.057-21.571Z" transform="translate(-73.466 -213.867)" fill="#f0f0f0"/>
        <path id="Trazado_128067" data-name="Trazado 128067" d="M148.66,230.354l.014,4.174,6.49-3.747-.007-4.182Z" transform="translate(-73.809 -214.454)" fill="#727997"/>
        <path id="Trazado_128068" data-name="Trazado 128068" d="M148.68,237.577l.014,4.182,6.49-3.747-.007-4.182Z" transform="translate(-73.814 -216.533)" fill="#727997"/>
        <path id="Trazado_128069" data-name="Trazado 128069" d="M148.7,244.807l.014,4.182,6.49-3.747-.007-4.182Z" transform="translate(-73.82 -218.613)" fill="#727997"/>
        <path id="Trazado_128070" data-name="Trazado 128070" d="M148.72,252.044l.014,4.175,6.49-3.754-.007-4.175Z" transform="translate(-73.826 -220.692)" fill="#727997"/>
        <g id="Grupo_72230" data-name="Grupo 72230" transform="translate(74.851 12.146)" opacity="0.6">
          <path id="Trazado_128071" data-name="Trazado 128071" d="M148.66,230.354l.014,4.174,6.49-3.747-.007-4.182Z" transform="translate(-148.66 -226.6)" fill="#fff"/>
        </g>
        <g id="Grupo_72231" data-name="Grupo 72231" transform="translate(74.866 17.297)" opacity="0.4">
          <path id="Trazado_128072" data-name="Trazado 128072" d="M148.68,237.577l.014,4.182,6.49-3.747-.007-4.182Z" transform="translate(-148.68 -233.83)" fill="#fff"/>
        </g>
        <g id="Grupo_72232" data-name="Grupo 72232" transform="translate(74.88 22.447)" opacity="0.2">
          <path id="Trazado_128073" data-name="Trazado 128073" d="M148.7,244.807l.014,4.182,6.49-3.747-.007-4.182Z" transform="translate(-148.7 -241.06)" fill="#fff"/>
        </g>
        <path id="Trazado_128074" data-name="Trazado 128074" d="M65.722,256.536l-11.868,26.9,6.048,6.625-2.137,9.047L45.8,288.729a6.447,6.447,0,0,1-1.581-7.658l9.631-19.946a8.214,8.214,0,0,1,7.544-4.645Z" transform="translate(-43.587 -223.047)" fill="#41becb"/>
        <path id="Trazado_128075" data-name="Trazado 128075" d="M54.61,297.665a8.582,8.582,0,0,0,2.422-3.305l1.047,1.154A5.4,5.4,0,0,1,54.61,297.665Z" transform="translate(-46.757 -233.943)" opacity="0.3"/>
        <path id="Trazado_128076" data-name="Trazado 128076" d="M86.471,456.453a5.286,5.286,0,0,0,3.8,2.294,17.394,17.394,0,0,0,5.215-.328,34.316,34.316,0,0,1,7.786-.2,41.012,41.012,0,0,0,4.851.342,7.672,7.672,0,0,0,4.552-1.425,4.631,4.631,0,0,0,1.71-2.906,4.374,4.374,0,0,1-1.71,3.918,7.73,7.73,0,0,1-4.552,1.425,41.036,41.036,0,0,1-4.851-.349,34.316,34.316,0,0,0-7.786.2,19.383,19.383,0,0,1-5.343.456,5.21,5.21,0,0,1-3.8-2.251Z" transform="translate(-55.887 -279.926)" fill="#263238"/>
        <path id="Trazado_128077" data-name="Trazado 128077" d="M112.128,451.562c-1.425,0-.919-2.137-2.308-3.562.563,0,1.133.036,1.7.036C112.8,449.824,113.1,451.562,112.128,451.562Z" transform="translate(-62.637 -278.134)" fill="#fff"/>
        <path id="Trazado_128078" data-name="Trazado 128078" d="M107.8,451.231c-1.425,0-1.076-2.565-2.515-4.061a7.976,7.976,0,0,0,1,.285c.285.064.57.114.862.157C108.432,449.428,108.795,451.231,107.8,451.231Z" transform="translate(-61.334 -277.896)" fill="#fff"/>
        <path id="Trazado_128079" data-name="Trazado 128079" d="M88.017,445.442a1.93,1.93,0,0,1,.755-1.183l7.836-.2a6.71,6.71,0,0,0,3.263,2.237c1.425,1.5,1.054,4.061,2.515,4.061.99,0,.627-1.8-.655-3.619.456.071.912.114,1.368.143,1.425,1.425.855,3.562,2.308,3.562.976,0,.634-1.76-.613-3.562h1.1a5.939,5.939,0,0,0,1-.057c2.892,2.287,3.134,4.759,2.764,8.648a9.775,9.775,0,0,1-1.5.157,41.006,41.006,0,0,1-4.851-.342,34.316,34.316,0,0,0-7.786.2,17.41,17.41,0,0,1-5.215.328,5.3,5.3,0,0,1-3.8-2.294Z" transform="translate(-55.93 -277.001)" fill="#26aab7"/>
        <path id="Trazado_128080" data-name="Trazado 128080" d="M115.15,447.936a12.339,12.339,0,0,1,3.932,0,4.694,4.694,0,0,1,3.562,3.077,3.477,3.477,0,0,1,.057,1.382,4.63,4.63,0,0,1-1.71,2.906,6.8,6.8,0,0,1-3.049,1.282C118.284,452.659,118.042,450.187,115.15,447.936Z" transform="translate(-64.17 -278.071)" fill="#fff"/>
        <path id="Trazado_128081" data-name="Trazado 128081" d="M97.715,440.89v3.783a1.56,1.56,0,0,1-1.56,1.56H92.223a2.55,2.55,0,0,1-2.55-2.472l-.093-2.85Z" transform="translate(-56.816 -276.089)" fill="#ffa8a7"/>
        <path id="Trazado_128082" data-name="Trazado 128082" d="M64.219,434.218a2.906,2.906,0,0,0,2.379,1.667,4.986,4.986,0,0,0,3.02-.712c1.361-.862,1.888-2.223,2.849-3.455a21.186,21.186,0,0,1,3.284-3.206,10.807,10.807,0,0,0,3.134-3.64,4.694,4.694,0,0,0,.378-1.332,4.744,4.744,0,0,1-.378,2.565,10.785,10.785,0,0,1-3.134,3.633,20.917,20.917,0,0,0-3.284,3.213c-.933,1.225-1.425,2.586-2.849,3.448a4.986,4.986,0,0,1-3.02.712,2.906,2.906,0,0,1-2.379-1.667,6.454,6.454,0,0,1-.142-2.137A2.614,2.614,0,0,0,64.219,434.218Z" transform="translate(-49.471 -271.099)" fill="#263238"/>
        <path id="Trazado_128083" data-name="Trazado 128083" d="M74.815,425.886a1,1,0,0,1,.185.648.713.713,0,0,1-.427.492.969.969,0,0,1-.883-.228,5.073,5.073,0,0,1-.613-.712,4.616,4.616,0,0,0-2.016-1.475,4.723,4.723,0,0,0-1.211-.264l.983-.9a4.872,4.872,0,0,1,3.982,2.458Z" transform="translate(-51.141 -271.073)" fill="#fff"/>
        <path id="Trazado_128084" data-name="Trazado 128084" d="M75.082,422.313a4.987,4.987,0,0,1,2.194,2.023.969.969,0,0,1,.185.641.656.656,0,0,1-.427.492.933.933,0,0,1-.9-.228,4.983,4.983,0,0,1-.613-.712,4.552,4.552,0,0,0-4-1.738l.969-.883A4.922,4.922,0,0,1,75.082,422.313Z" transform="translate(-51.621 -270.62)" fill="#fff"/>
        <path id="Trazado_128085" data-name="Trazado 128085" d="M73.77,420.136a10.215,10.215,0,0,1,3.085-2.059,4.1,4.1,0,0,1,4.274.584,3.683,3.683,0,0,1,.94,3.177,4.7,4.7,0,0,1-.378,1.332,6.8,6.8,0,0,1-.969,1.546C80.345,421.333,77.375,419.752,73.77,420.136Z" transform="translate(-52.268 -269.426)" fill="#fff"/>
        <path id="Trazado_128086" data-name="Trazado 128086" d="M64.139,430.177a6.988,6.988,0,0,1,.769-3.305l1.909-2,1.361-1.24a4.722,4.722,0,0,1,1.211.264,4.616,4.616,0,0,1,2.016,1.475,5.073,5.073,0,0,0,.613.712.969.969,0,0,0,.883.228.712.712,0,0,0,.427-.492,1,1,0,0,0-.185-.648,4.873,4.873,0,0,0-3.982-2.458l.221-.2a4.552,4.552,0,0,1,4,1.738,4.986,4.986,0,0,0,.613.712.933.933,0,0,0,.883.228.655.655,0,0,0,.427-.492.969.969,0,0,0-.185-.641,4.987,4.987,0,0,0-2.194-2.023,4.922,4.922,0,0,0-2.579-.42h0l.584-.527c3.6-.385,6.54,1.2,6.917,4.581a15.839,15.839,0,0,1-2.137,2.094,21.186,21.186,0,0,0-3.284,3.206c-.933,1.232-1.425,2.593-2.849,3.455a4.986,4.986,0,0,1-3.02.712,2.907,2.907,0,0,1-2.379-1.667,2.614,2.614,0,0,1-.142-.883A22.612,22.612,0,0,1,64.139,430.177Z" transform="translate(-49.469 -270.377)" fill="#26aab7"/>
        <path id="Trazado_128087" data-name="Trazado 128087" d="M71.207,425.48l-.221,4.06c-2.565,1.475-5.257.67-6.155-.264l-.171-3.8Z" transform="translate(-49.648 -271.657)" fill="#ffa8a7"/>
        <path id="Trazado_128088" data-name="Trazado 128088" d="M63.755,302.911a3.961,3.961,0,0,0,.392-.641,36.9,36.9,0,0,0,26.422,3.006c1.874,13.934,3.483,37.521,2.493,53.086-.819,18.116-4.153,43.768-4.153,43.768-4.353,1.3-7.615.506-8.841-.435-1.425-17.973-4.645-30.29-2.18-42.18-1.638-8.306-2.7-18.742-2.7-18.742l-1.261,18.358L69.654,391.4a7.608,7.608,0,0,1-7.63-.385c-3.092-18.45-4.274-30.96-1.546-40.121C56.368,320.6,56.161,312.87,63.755,302.911Z" transform="translate(-47.632 -236.218)" fill="#37474f"/>
        <path id="Trazado_128089" data-name="Trazado 128089" d="M75.147,345.02l-2.28-9.56a13.434,13.434,0,0,1-9-5.82A18.329,18.329,0,0,0,74.9,333.522l2.08,15.124-.449,6.461-.178-2.351a48.947,48.947,0,0,0-1.2-7.736Z" transform="translate(-49.421 -244.091)" opacity="0.3"/>
        <path id="Trazado_128090" data-name="Trazado 128090" d="M80.4,256.447l6.646,1.3c1.467,2.693,2.963,5.215,4.431,7.9,1.1,2.023,2.244,4.182,2.137,6.483a6.6,6.6,0,0,1-3.975,5.7l3.455,22.881c-8.976,8.15-32.057,2.322-34.863-.093,1.2-6.112,3.847-8.548,5.229-14.96,1.1-5.136-1.054-10.764-1.425-12.452a39.95,39.95,0,0,1-1.118-7.437,13.165,13.165,0,0,1,1.774-7.259l.036-.064a8.128,8.128,0,0,1,8.164-3.5Z" transform="translate(-47.799 -222.573)" fill="#26aab7"/>
        <path id="Trazado_128091" data-name="Trazado 128091" d="M72.692,216.292a11.184,11.184,0,0,0-4.858,9.831c.142,2.2.955,4.367.712,6.554-.15,1.289-.655,2.593-.321,3.84a4.018,4.018,0,0,0,2.094,2.372c.962.5,3.206.37,4.274.584,3.241,2.949,7.309,1.845,9.895-.784s6.76-12.516,6.76-12.516a13.535,13.535,0,0,0,2.045-6.447,5.407,5.407,0,0,0-.933-3.669,2.592,2.592,0,0,0-3.434-.634c.962-.712.271-2.458-.712-3.149a4.16,4.16,0,0,0-3.512-.264,33.261,33.261,0,0,1-3.462,1.126c-1.574.285-3.2-.071-4.787.1S72.849,214.7,72.692,216.292Z" transform="translate(-50.556 -210.18)" fill="#37474f"/>
        <path id="Trazado_128092" data-name="Trazado 128092" d="M101.582,236.13l2.023,3.519-2.215.819Z" transform="translate(-60.213 -217.195)" fill="#ff9192"/>
        <path id="Trazado_128093" data-name="Trazado 128093" d="M94.582,230.916c-.328-3.085-1.232-5.991-3.241-7.466a16.634,16.634,0,0,1-2.308,11.035,4.894,4.894,0,0,0-1.5-2.643,2.793,2.793,0,0,0-2.849-.613,2.849,2.849,0,0,0-1.425,1.574,3.747,3.747,0,0,0,4.68,4.951,7.2,7.2,0,0,1-5.535,5.6,9.26,9.26,0,0,1-5.364-.513L76.21,247c3.384,3.612,9.168,1.183,9.168,1.183l.762-4.089c6.654.4,7.28.285,8.007-3.384A35.9,35.9,0,0,0,94.582,230.916Z" transform="translate(-52.97 -213.548)" fill="#ffa8a7"/>
        <path id="Trazado_128094" data-name="Trazado 128094" d="M85.219,240.634c-.043,1.254,0,2.451-.057,3.7a9.888,9.888,0,0,0,.385,3.911,3.419,3.419,0,0,0,2.9,2.351,8.89,8.89,0,0,1-8.007,1.425,8.684,8.684,0,0,1-5.649-5.7,6.618,6.618,0,0,0,1.888,5.407,7.886,7.886,0,0,1-7.067-1.553,7.687,7.687,0,0,1-2.629-6.646,25.6,25.6,0,0,1,1.517-4.987,6.866,6.866,0,0,0,.064-5.086,45.883,45.883,0,0,0,5.158,5.3,14.247,14.247,0,0,0,6.2,3.384,6.333,6.333,0,0,0,2.636.1,4.986,4.986,0,0,0,2.664-1.61Z" transform="translate(-50.303 -216.427)" fill="#37474f"/>
        <path id="Trazado_128095" data-name="Trazado 128095" d="M75.831,221.385a6.411,6.411,0,0,1-6.447,6.447,6.22,6.22,0,0,1-1.51-.185v-.221a11.184,11.184,0,0,1,4.858-9.831,2.579,2.579,0,0,1,.6-1.325,6.411,6.411,0,0,1,2.5,5.115Z" transform="translate(-50.568 -211.482)" opacity="0.2"/>
        <circle id="Elipse_4785" data-name="Elipse 4785" cx="6.454" cy="6.454" r="6.454" transform="translate(11.908 2.869) rotate(-12.84)" fill="#37474f"/>
        <path id="Trazado_128096" data-name="Trazado 128096" d="M138.223,267.732a130.029,130.029,0,0,1-14.247,18.308,3.5,3.5,0,0,1-4.424.47c-7.238-4.773-13.222-12.865-13.222-12.865l7.836-5.393,6.789,8.826,12.823-12.637.848-7.017a1.71,1.71,0,0,1,1.026-1.375l3.619-1.574a1.731,1.731,0,0,1,1.346,0l2.137.883a.926.926,0,0,1,.392,1.425h0a.919.919,0,0,1-1.012.342l-1.04-.306,2.451,1.824a1.931,1.931,0,0,1,.784,1.553v1.261a1.923,1.923,0,0,1-.862,1.61l-.3.2a1,1,0,0,1-1.425-.349h0C141.286,265.531,138.223,267.732,138.223,267.732Z" transform="translate(-61.633 -222.432)" fill="#ffa8a7"/>
        <path id="Trazado_128097" data-name="Trazado 128097" d="M153.335,257.359l-.655-.435a1.054,1.054,0,0,0-.8-.157l-2.992.591,2.8-.962a1.076,1.076,0,0,1,1.2.363Z" transform="translate(-73.875 -223.008)" fill="#f28f8f"/>
        <path id="Trazado_128098" data-name="Trazado 128098" d="M156,265.205c.278-.983.435-2.3,0-2.785l1.225.67-.135,1.254Z" transform="translate(-75.92 -224.756)" fill="#f28f8f"/>
        <path id="Trazado_128099" data-name="Trazado 128099" d="M133.478,276.27a1.574,1.574,0,0,0-1.482.392l-1.8,1.717a1.6,1.6,0,0,0-.47,1.375v.164l.52-.492a8.064,8.064,0,0,1,5.7,8.442l-.9,1.147a1.589,1.589,0,0,0,1.51-.57l2.237-2.849a1.567,1.567,0,0,0,.342-1.054C139.041,282.76,138.35,277.488,133.478,276.27Z" transform="translate(-68.357 -228.726)" fill="#fff"/>
        <path id="Trazado_128100" data-name="Trazado 128100" d="M133.478,276.27a1.574,1.574,0,0,0-1.482.392l-1.8,1.717a1.6,1.6,0,0,0-.47,1.375v.164l.52-.492a8.064,8.064,0,0,1,5.7,8.442l-.9,1.147a1.589,1.589,0,0,0,1.51-.57l2.237-2.849a1.567,1.567,0,0,0,.342-1.054C139.041,282.76,138.35,277.488,133.478,276.27Z" transform="translate(-68.357 -228.726)" fill="#f0f0f0"/>
        <path id="Trazado_128101" data-name="Trazado 128101" d="M120.9,274.363l-.52.492-2.137,2.044-.762-1.175-8.755-11.4a14.532,14.532,0,0,0-9.759-5.564L97.8,258.62s-2.344,9.845,2.686,15.323l9.617,10.18a37.954,37.954,0,0,0,6.411,4.951,4.481,4.481,0,0,0,5.963-1l4.146-5.264A8.1,8.1,0,0,0,120.9,274.363Z" transform="translate(-59.023 -223.663)" fill="#41becb"/>
      </g>
      <g id="freepik--character-2--inject-14" transform="translate(132.969 72.831)">
        <path id="Trazado_128102" data-name="Trazado 128102" d="M194.7,145.692l2.572,2.386-4.431,24.662L190.1,188.819l-9.41,1.1,3.847-17.175,7.288-28.431Z" transform="translate(-179.044 -107.396)" fill="#9c5756"/>
        <path id="Trazado_128103" data-name="Trazado 128103" d="M190.328,203.652c-6.483-2.408-10.757,1-10.757,1l-1.061,27.54,11.583-6.625Z" transform="translate(-178.417 -124.217)" fill="#727997"/>
        <path id="Trazado_128104" data-name="Trazado 128104" d="M190.328,203.652c-6.483-2.408-10.757,1-10.757,1l-1.061,27.54,11.583-6.625Z" transform="translate(-178.417 -124.217)" fill="#0b3c73"/>
        <path id="Trazado_128105" data-name="Trazado 128105" d="M190.328,203.652c-6.483-2.408-10.757,1-10.757,1l-1.061,27.54,11.583-6.625Z" transform="translate(-178.417 -120.271)" fill="#1565c0" opacity="0.1"/>
        <path id="Trazado_128106" data-name="Trazado 128106" d="M202.287,92.754c-1.061-.613-1.931-.114-1.938,1.111L200,133.459a4.274,4.274,0,0,0,1.931,3.341l47.636,27.5c1.061.62,1.931.121,1.938-1.1l.342-39.579a4.274,4.274,0,0,0-1.931-3.341Z" transform="translate(-184.598 -92.492)" fill="#1565c0"/>
        <path id="Trazado_128107" data-name="Trazado 128107" d="M242.77,207.538,253,204.126l6.732-25.425a3.847,3.847,0,0,0-.192-2.23l-.712-1.774a7.273,7.273,0,0,1-.52-2.942l.128-3.882a1.2,1.2,0,0,1,1.19-1.154h0a1.183,1.183,0,0,1,1.161.976l.613,3.377,1.425,1.638,1.154-4.623V162.06l3.049,4.388a5.343,5.343,0,0,1,.869,3.89l-1.218,7.387L263.4,206.313a11.4,11.4,0,0,1-7.231,9.346L245.427,219.8Z" transform="translate(-196.9 -112.502)" fill="#9c5756"/>
        <path id="Trazado_128108" data-name="Trazado 128108" d="M211.927,442.1c.556,1.745,2.465,2.743,4.274,2.892a20.6,20.6,0,0,0,5.435-.712c4.032-.712,7.922,0,11.947-.1a16.871,16.871,0,0,0,3.925-.427,6.525,6.525,0,0,0,3.362-1.98,4.374,4.374,0,0,0,.962-2.1,4.153,4.153,0,0,1-.962,3.284,6.525,6.525,0,0,1-3.362,1.98,17.258,17.258,0,0,1-3.925.427c-4.025.093-7.914-.634-11.947.1a22.066,22.066,0,0,1-5.435.712,4.684,4.684,0,0,1-4.274-2.885,4.544,4.544,0,0,1-.142-1.859,3.689,3.689,0,0,0,.142.67Z" transform="translate(-187.977 -192.35)" fill="#263238"/>
        <path id="Trazado_128109" data-name="Trazado 128109" d="M212.031,435.571l.712-3.662a5.3,5.3,0,0,1,.62-1.866,1.838,1.838,0,0,1,1.631-.933c2.208-.292,5.314-1.1,7.124.171A16.491,16.491,0,0,0,232,432.13a34.272,34.272,0,0,1,5.464-.214c1.809.228,3.7,1.225,4.239,2.971a3.455,3.455,0,0,1,.093,1.6,4.374,4.374,0,0,1-.962,2.1,6.525,6.525,0,0,1-3.362,1.98,16.872,16.872,0,0,1-3.925.427c-4.025.093-7.914-.627-11.947.1a22.063,22.063,0,0,1-5.435.712,4.69,4.69,0,0,1-4.274-2.892,3.691,3.691,0,0,1-.142-.677A8.9,8.9,0,0,1,212.031,435.571Z" transform="translate(-187.974 -189.163)" fill="#37474f"/>
        <path id="Trazado_128110" data-name="Trazado 128110" d="M223.491,424.17l.157,4.773a1.9,1.9,0,0,1-1.752,1.952,30.976,30.976,0,0,1-4.816-.043,2.721,2.721,0,0,1-2.458-2.529l-.192-3.526Z" transform="translate(-188.749 -187.892)" fill="#9c5756"/>
        <path id="Trazado_128111" data-name="Trazado 128111" d="M183.381,415.774a3.726,3.726,0,0,0,.634,1.973,3.562,3.562,0,0,0,2.258,1.268,5.7,5.7,0,0,0,5.592-2.3c.6-.869.94-1.895,1.51-2.785a12.758,12.758,0,0,1,3.134-3.049,13.258,13.258,0,0,0,3.156-3.02,4.46,4.46,0,0,0,.606-4.039,2.958,2.958,0,0,1,.3.506A4.588,4.588,0,0,1,200,408.6a13.536,13.536,0,0,1-3.22,3.184,12.922,12.922,0,0,0-3.206,3.142c-.577.919-.926,1.973-1.539,2.849a5.784,5.784,0,0,1-5.7,2.379,3.7,3.7,0,0,1-2.3-1.311,4.445,4.445,0,0,1-.663-2.743A2.46,2.46,0,0,1,183.381,415.774Z" transform="translate(-179.811 -182.039)" fill="#263238"/>
        <path id="Trazado_128112" data-name="Trazado 128112" d="M184.831,408.856c1.425-2.543,4.445-4.4,6.753-6.2a8.684,8.684,0,0,1,4.474-2.03,4.2,4.2,0,0,1,4.167,2.137.763.763,0,0,1,.05.135,4.46,4.46,0,0,1-.606,4.039,13.259,13.259,0,0,1-3.156,3.02,12.759,12.759,0,0,0-3.134,3.049c-.57.89-.912,1.916-1.51,2.785a5.7,5.7,0,0,1-5.592,2.3,3.562,3.562,0,0,1-2.258-1.268,3.726,3.726,0,0,1-.634-1.973,5.481,5.481,0,0,1,0-.712A11.2,11.2,0,0,1,184.831,408.856Z" transform="translate(-179.816 -181.112)" fill="#37474f"/>
        <path id="Trazado_128113" data-name="Trazado 128113" d="M191.369,409.09v4.338a7.266,7.266,0,0,1-6.753-.292l-.406-3.911Z" transform="translate(-180.057 -183.555)" fill="#9c5756"/>
        <path id="Trazado_128114" data-name="Trazado 128114" d="M182.27,298.58c-1.3,3.9.3,22.454,1.054,40.249-2.849,6.725-2.059,25.816-.435,39.373,0,0,5.7,1.852,10.764.121l3.562-37.542.89-21.157s1.6,18.771,3.448,30.81c-1.731,9.218-2.422,10.515.306,39.515,0,0,7.074,2.358,12.281-.2,2.422-39.843,1.532-76.16,1.069-89.217Z" transform="translate(-179.256 -151.769)" fill="#727997"/>
        <path id="Trazado_128115" data-name="Trazado 128115" d="M182.27,298.58c-1.3,3.9.3,22.454,1.054,40.249-2.849,6.725-2.059,25.816-.435,39.373,0,0,5.7,1.852,10.764.121l3.562-37.542.89-21.157s1.6,18.771,3.448,30.81c-1.731,9.218-2.422,10.515.306,39.515,0,0,7.074,2.358,12.281-.2,2.422-39.843,1.532-76.16,1.069-89.217Z" transform="translate(-179.256 -151.769)" opacity="0.3"/>
        <path id="Trazado_128116" data-name="Trazado 128116" d="M199.615,336.616l.712-17.247c-4.459,0-8.6-3.334-11.747-6.49a19.977,19.977,0,0,0,8.883,7.765Z" transform="translate(-181.314 -155.882)" opacity="0.3"/>
        <path id="Trazado_128117" data-name="Trazado 128117" d="M215.01,281.42c-19.9,8.335-32.769.8-34.536-3.113.919-13.756-2.337-29.841-2.08-36.673s1.083-14.532,11.683-12.994l11.27,1.1,5.7,1.389,6.86,14.247Z" transform="translate(-178.38 -131.595)" fill="#1565c0"/>
        <path id="Trazado_128118" data-name="Trazado 128118" d="M191.285,208.955a2.985,2.985,0,0,1-2.2-.712,2.18,2.18,0,0,1-.527-1.888,2.066,2.066,0,0,1-1.51-1.225,2.344,2.344,0,0,1,.349-2.059,3.476,3.476,0,0,1-2.237-1.831,3.633,3.633,0,0,1-.1-2.971,3.206,3.206,0,0,1-2.251-2.237,3.476,3.476,0,0,1,.634-3.213,4.338,4.338,0,0,1-.506-4.317,4.6,4.6,0,0,1,3.711-2.5,4.445,4.445,0,0,1,1.425-3.989,4.274,4.274,0,0,1,4.1-.8,3.932,3.932,0,0,1,6.561-1.126,2.992,2.992,0,0,1,2.657-.976,3.092,3.092,0,0,1,2.4,1.581,4.025,4.025,0,0,1,5.7,3.854,2.386,2.386,0,0,1,1.7,2.344,2.529,2.529,0,0,1-1.966,2.265,56.22,56.22,0,0,1-5.286,15.48c-1.118,2.137-2.486,4.374-4.652,5.507C196.963,211.37,193.287,210.672,191.285,208.955Z" transform="translate(-179.588 -117.31)" fill="#263238"/>
        <path id="Trazado_128119" data-name="Trazado 128119" d="M191.285,208.955a2.985,2.985,0,0,1-2.2-.712,2.18,2.18,0,0,1-.527-1.888,2.066,2.066,0,0,1-1.51-1.225,2.344,2.344,0,0,1,.349-2.059,3.476,3.476,0,0,1-2.237-1.831,3.633,3.633,0,0,1-.1-2.971,3.206,3.206,0,0,1-2.251-2.237,3.476,3.476,0,0,1,.634-3.213,4.338,4.338,0,0,1-.506-4.317,4.6,4.6,0,0,1,3.711-2.5,4.445,4.445,0,0,1,1.425-3.989,4.274,4.274,0,0,1,4.1-.8,3.932,3.932,0,0,1,6.561-1.126,2.992,2.992,0,0,1,2.657-.976,3.092,3.092,0,0,1,2.4,1.581,4.025,4.025,0,0,1,5.7,3.854,2.386,2.386,0,0,1,1.7,2.344,2.529,2.529,0,0,1-1.966,2.265,56.22,56.22,0,0,1-5.286,15.48c-1.118,2.137-2.486,4.374-4.652,5.507C196.963,211.37,193.287,210.672,191.285,208.955Z" transform="translate(-179.588 -117.31)" fill="#263238"/>
        <path id="Trazado_128120" data-name="Trazado 128120" d="M221.051,203.28l2.337,4.053-2.557.947Z" transform="translate(-190.59 -124.358)" fill="#f28f8f"/>
        <path id="Trazado_128121" data-name="Trazado 128121" d="M221.051,203.28l2.337,4.053-2.557.947Z" transform="translate(-190.59 -124.358)" fill="#803837"/>
        <path id="Trazado_128122" data-name="Trazado 128122" d="M212.749,193.36a37.813,37.813,0,0,1,.67,17.239,5.863,5.863,0,0,1-1.069,2.728,4.274,4.274,0,0,1-2.963,1.368,13.086,13.086,0,0,1-3.327-.321v5.279c-4.011.94-8.128,1.318-11.27-1.1v-5.4a14.312,14.312,0,0,0,7,.435c2.764-1.489,3.32-6.547,2.935-7.879a2.08,2.08,0,0,1-2.137.755,2.849,2.849,0,0,1-1.8-1.425,5.856,5.856,0,0,1-.67-2.244,4.1,4.1,0,0,1,.406-2.785,2.906,2.906,0,0,1,3.134-1.054,4.488,4.488,0,0,1,2.643,2.2,7.617,7.617,0,0,1,.463,1.012.627.627,0,0,0,1.211-.157,8.378,8.378,0,0,0-.791-4.417,3.049,3.049,0,0,0,2.258-1.382,2.85,2.85,0,0,0,.442-2.536A8.627,8.627,0,0,0,212.749,193.36Z" transform="translate(-183.1 -121.505)" fill="#9c5756"/>
        <path id="Trazado_128123" data-name="Trazado 128123" d="M198.562,141.79l2.066-5.336.933-4.189a1.069,1.069,0,0,0-.712-1.247h0a1.061,1.061,0,0,0-1.354.67l-.784,2.272V127.55l-2.679,4.794a4.21,4.21,0,0,0-.513,2.365l-.52,8.449Z" transform="translate(-183.16 -102.576)" fill="#9c5756"/>
        <path id="Trazado_128124" data-name="Trazado 128124" d="M216.148,229.977c6.34-2.1,17.624-5.507,17.624-5.507,5.065,5.108,4.638,13.357,4.638,13.357l-15.38,6.411C208.355,248.876,206.218,233.261,216.148,229.977Z" transform="translate(-187.49 -130.453)" fill="#0b3c73"/>
        <path id="Trazado_128125" data-name="Trazado 128125" d="M216.148,229.977c6.34-2.1,17.624-5.507,17.624-5.507,5.065,5.108,4.638,13.357,4.638,13.357l-15.38,6.411C208.355,248.876,206.218,233.261,216.148,229.977Z" transform="translate(-187.49 -126.506)" fill="#1565c0" opacity="0.1"/>
        <path id="Trazado_128126" data-name="Trazado 128126" d="M219.142,121.15,206.2,131.337l-.029,9.959,43.042,24.848.029-9.952-8.2-16.292-7.366,5.72,2.6,8.085-3.776-7.181Z" transform="translate(-186.373 -100.735)" fill="#fff"/>
        <path id="Trazado_128127" data-name="Trazado 128127" d="M242.736,127.987c-2.023-1.168-3.669-.228-3.676,2.1a8.057,8.057,0,0,0,3.654,6.333c2.023,1.168,3.676.228,3.683-2.1A8.078,8.078,0,0,0,242.736,127.987Z" transform="translate(-195.833 -102.557)" fill="#fff"/>
      </g>
    </g>
  </g>
</svg>
