<svg xmlns="http://www.w3.org/2000/svg" xmlns:xlink="http://www.w3.org/1999/xlink" width="205.962" height="176.901" viewBox="0 0 205.962 176.901">
  <defs>
    <clipPath id="clip-path">
      <rect id="Rectángulo_296231" data-name="Rectángulo 296231" width="120.093" height="130.606" fill="#12263f"/>
    </clipPath>
  </defs>
  <g id="Grupo_879715" data-name="Grupo 879715" transform="translate(44.926 44.403)">
    <rect id="Rectángulo_49533" data-name="Rectángulo 49533" width="144.8" height="111.233" transform="translate(16.236 21.265)" fill="#ffde96"/>
    <g id="Grupo_169217" data-name="Grupo 169217" transform="translate(-44.926 -44.403)">
      <rect id="Rectángulo_49754" data-name="Rectángulo 49754" width="166.13" height="153.889" transform="translate(0 0)" fill="none"/>
      <g id="Grupo_882415" data-name="Grupo 882415" transform="translate(20.142 12.835)">
        <g id="Grupo_882415-2" data-name="Grupo 882415" clip-path="url(#clip-path)">
          <path id="Trazado_599365" data-name="Trazado 599365" d="M16.538,28.748V110.4H79.479c0-.726,0-1.443,0-2.16a2.488,2.488,0,0,1,2.3-2.6,2.417,2.417,0,0,1,2.7,2.247,22.319,22.319,0,0,1-.088,4.336,4.023,4.023,0,0,1-3.963,3.285c-3.458.014-6.916,0-10.374,0-17.992,0-35.984-.03-53.976.033A4.52,4.52,0,0,1,11.4,110.92q.073-41.353.03-82.707a4.236,4.236,0,0,1,4.526-4.534q4.135-.007,8.271,0H25l.387-4.88h-.7l-14.872,0c-3.057,0-4.741,1.693-4.741,4.763q0,48.717,0,97.435a4.236,4.236,0,0,0,3.287,4.441,5.058,5.058,0,0,0,1.149.1q38.415.007,76.829,0a4.173,4.173,0,0,0,4.518-4.514c.014-5.054,0-10.109.008-15.163a2.518,2.518,0,0,1,2.976-2.7,2.393,2.393,0,0,1,2.056,2.284c.014,5.562.073,11.125-.027,16.686-.071,3.969-3.568,7.71-7.546,8.32a11.931,11.931,0,0,1-1.8.142q-38.523.01-77.047.006a9.2,9.2,0,0,1-9.274-7.492A9.948,9.948,0,0,1,.008,121.1Q-.005,72.2,0,23.3a9.244,9.244,0,0,1,7.77-9.421,10.728,10.728,0,0,1,1.95-.118q8.851-.012,17.7.005a1.592,1.592,0,0,0,1.264-.518,12.247,12.247,0,0,1,8.718-3.828c.145,0,.289-.011.434-.02a.881.881,0,0,0,.154-.066,10.028,10.028,0,0,1,4.482-7.671A9.751,9.751,0,0,1,48.736.027a10.221,10.221,0,0,1,9.2,9.238c1.275.211,2.554.326,3.778.646a11.394,11.394,0,0,1,5.464,3.267,1.783,1.783,0,0,0,1.452.588q8.923-.026,17.847-.007a9.161,9.161,0,0,1,9.167,7.071,8.178,8.178,0,0,1,.242,1.932q.023,13.821.008,27.642a2.507,2.507,0,0,1-2.027,2.55,2.476,2.476,0,0,1-2.8-1.548,4.189,4.189,0,0,1-.2-1.417q-.017-13.313-.011-26.626A4.169,4.169,0,0,0,87.8,18.977a4.832,4.832,0,0,0-1.286-.174q-7.8-.017-15.6,0a3.412,3.412,0,0,0-.343.033l.326,4.813c.23.01.487.031.743.032,2.781,0,5.562,0,8.343,0a4.271,4.271,0,0,1,4.555,4.532q.024,9.214,0,18.428c0,2.079-1.667,3.373-3.435,2.707a2.476,2.476,0,0,1-1.624-2.487q0-8.561,0-17.122V28.8c-.238-.019-.444-.049-.65-.05-2.66,0-5.32.006-7.98-.011a.861.861,0,0,0-.852.478A5.69,5.69,0,0,1,64.887,32.1H31.08a5.82,5.82,0,0,1-5.18-2.911.952.952,0,0,0-.643-.425c-2.876-.028-5.753-.019-8.719-.019m31.423-1.7h9.429c2.442,0,4.884.005,7.326,0,.8,0,1.022-.217,1.027-.977.011-1.5.046-3-.016-4.5A7.338,7.338,0,0,0,59.9,14.691a26.221,26.221,0,0,0-4.184-.208,2.607,2.607,0,0,1-2.849-2.833c-.017-.749,0-1.5-.082-2.244a4.98,4.98,0,0,0-4.481-4.323,4.787,4.787,0,0,0-5.1,3.889,14.7,14.7,0,0,0-.133,2.6,2.608,2.608,0,0,1-2.908,2.909c-1.015.013-2.033-.027-3.046.027a7.407,7.407,0,0,0-6.805,6.262,46.7,46.7,0,0,0-.149,4.847c-.02,1.257.165,1.432,1.4,1.432q8.2,0,16.393,0" transform="translate(0 0.001)" fill="#12263f"/>
          <path id="Trazado_599366" data-name="Trazado 599366" d="M430.168,294.6c.949-.958,1.886-1.868,2.771-2.826a1.1,1.1,0,0,0,.225-.863c-.451-1.949-.959-3.885-1.435-5.828a2.521,2.521,0,0,1,.81-2.753,2.534,2.534,0,0,1,4.087,1.457c.272,1.12.564,2.235.9,3.556.581-.628,1.08-1.12,1.512-1.665a.947.947,0,0,0,.082-.711c-.466-1.946-.969-3.883-1.439-5.828a2.515,2.515,0,0,1,2.768-3.3,2.463,2.463,0,0,1,2.122,1.992c.49,1.916.978,3.832,1.434,5.756a.849.849,0,0,0,.739.736c1.925.45,3.841.937,5.756,1.428a2.582,2.582,0,0,1,2.05,2.559,2.526,2.526,0,0,1-2.191,2.427A3.742,3.742,0,0,1,449,290.6c-1.875-.449-3.747-.914-5.611-1.409a.84.84,0,0,0-.95.255c-.415.435-.88.822-1.469,1.364,1.336.332,2.471.6,3.6.9a2.572,2.572,0,0,1,2.024,2.579,2.511,2.511,0,0,1-3.139,2.343q-2.989-.716-5.966-1.481a.9.9,0,0,0-1.014.261c-.885.925-1.813,1.809-2.756,2.74,5.172,6.716,6.9,14.188,4.856,22.391a24.282,24.282,0,0,1-10.29,14.587,25.279,25.279,0,1,1,1.878-40.527m-3.747,3.615a20.187,20.187,0,1,0,2.065,30.223c7.915-8.03,7.14-19.915,1.689-26.44l-4.716,4.661a13.716,13.716,0,1,1-3.78-3.689l4.742-4.754m-8.467,8.6a8.516,8.516,0,0,0-10.749,2.517,8.681,8.681,0,0,0,12.93,11.5,8.468,8.468,0,0,0,1.449-10.578c-.132.159-.243.316-.377.45-1.741,1.745-3.475,3.5-5.231,5.225a2.5,2.5,0,0,1-3.775-.1,2.576,2.576,0,0,1,.263-3.533c1.8-1.816,3.625-3.615,5.49-5.472" transform="translate(-332.457 -235.797)" fill="#12263f"/>
          <path id="Trazado_599367" data-name="Trazado 599367" d="M195.715,287.278H180.631a7.438,7.438,0,0,1-1.381-14.792,18.4,18.4,0,0,1,1.88-.1q14.939-.008,29.878,0a7.481,7.481,0,0,1,7.392,5.683,7.314,7.314,0,0,1-3.907,8.374,8.52,8.52,0,0,1-3.4.8c-5.123.083-10.249.036-15.374.036m0-5.07q7.654,0,15.308,0a2.383,2.383,0,1,0,0-4.759q-15.272-.012-30.543.016a3.053,3.053,0,0,0-1.492.448,2.238,2.238,0,0,0-.919,2.6,2.326,2.326,0,0,0,2.338,1.7q7.654.008,15.308,0" transform="translate(-147.778 -232.86)" fill="#12263f"/>
          <path id="Trazado_599368" data-name="Trazado 599368" d="M172.86,659.994q7.72,0,15.441,0a2.507,2.507,0,0,1,1.277,4.693,3.358,3.358,0,0,1-1.453.353q-15.3.03-30.592.012a2.58,2.58,0,0,1-2.726-2.2,2.511,2.511,0,0,1,1.759-2.745,3.732,3.732,0,0,1,1.07-.115q7.612-.01,15.224,0" transform="translate(-132.322 -564.225)" fill="#12263f"/>
          <path id="Trazado_599369" data-name="Trazado 599369" d="M171.055,425.063c4.449,0,8.9-.007,13.348,0a2.533,2.533,0,1,1,.224,5.062c-.556.018-1.112,0-1.668,0q-12.731,0-25.462,0a2.537,2.537,0,0,1-2.538-1.677,2.357,2.357,0,0,1,.8-2.788,3.5,3.5,0,0,1,1.8-.577c4.5-.047,8.995-.026,13.493-.026" transform="translate(-132.337 -363.381)" fill="#12263f"/>
          <path id="Trazado_599370" data-name="Trazado 599370" d="M170.088,508.325c-4.254,0-8.508.005-12.763,0a2.5,2.5,0,0,1-1.03-4.8,3.465,3.465,0,0,1,1.263-.248q12.545-.021,25.09-.008a2.581,2.581,0,0,1,2.734,2.188,2.511,2.511,0,0,1-1.751,2.753,3.708,3.708,0,0,1-1.071.116q-6.236.011-12.473,0" transform="translate(-132.325 -430.235)" fill="#12263f"/>
          <path id="Trazado_599371" data-name="Trazado 599371" d="M170.08,586.794c-4.229,0-8.458.01-12.687-.005a2.5,2.5,0,0,1-2.414-3.391,2.469,2.469,0,0,1,2.42-1.615c2.441-.01,4.882,0,7.322,0q9.026,0,18.052,0a2.434,2.434,0,0,1,2.391,1.436,2.389,2.389,0,0,1-.348,2.707,2.531,2.531,0,0,1-2.123.884c-4.2-.015-8.41-.007-12.615-.007" transform="translate(-132.349 -497.357)" fill="#12263f"/>
          <path id="Trazado_599372" data-name="Trazado 599372" d="M225.679,56.971q-8.2,0-16.393,0c-1.237,0-1.422-.175-1.4-1.432a46.711,46.711,0,0,1,.149-4.847,7.406,7.406,0,0,1,6.805-6.262c1.013-.054,2.03-.015,3.046-.027a2.608,2.608,0,0,0,2.908-2.909,14.694,14.694,0,0,1,.133-2.6,4.787,4.787,0,0,1,5.1-3.889,4.98,4.98,0,0,1,4.481,4.323c.086.741.065,1.5.082,2.244a2.607,2.607,0,0,0,2.849,2.833,26.221,26.221,0,0,1,4.184.208,7.338,7.338,0,0,1,5.827,6.877c.062,1.5.027,3,.016,4.5-.005.76-.231.974-1.027.977-2.442.009-4.884,0-7.326,0h-9.429" transform="translate(-177.718 -29.924)" fill="#636363"/>
          <path id="Trazado_599373" data-name="Trazado 599373" d="M456.193,405.266l-4.742,4.755a13.8,13.8,0,1,0,3.78,3.689l4.716-4.661c5.451,6.524,6.226,18.41-1.689,26.44a20.21,20.21,0,1,1-2.065-30.223" transform="translate(-362.229 -342.85)" fill="#e8e8e8"/>
          <path id="Trazado_599374" data-name="Trazado 599374" d="M515.6,483.785c-1.865,1.857-3.686,3.656-5.49,5.472a2.576,2.576,0,0,0-.263,3.533,2.5,2.5,0,0,0,3.775.1c1.756-1.729,3.491-3.481,5.231-5.226.134-.134.245-.292.377-.45a8.468,8.468,0,0,1-1.449,10.578,8.681,8.681,0,0,1-12.93-11.5,8.516,8.516,0,0,1,10.749-2.517" transform="translate(-430.107 -412.771)" fill="#b2ebf2"/>
          <path id="Trazado_599375" data-name="Trazado 599375" d="M225.729,312.006q-7.654,0-15.308,0a2.326,2.326,0,0,1-2.338-1.7,2.238,2.238,0,0,1,.919-2.6,3.055,3.055,0,0,1,1.492-.447q15.272-.039,30.543-.016a2.383,2.383,0,1,1,0,4.759q-7.654.007-15.308,0" transform="translate(-177.797 -262.658)" fill="#fb8c00"/>
        </g>
      </g>
    </g>
  </g>
</svg>
