<svg xmlns="http://www.w3.org/2000/svg" xmlns:xlink="http://www.w3.org/1999/xlink" width="104.251" height="104.252" viewBox="0 0 104.251 104.252">
  <defs>
    <radialGradient id="radial-gradient" cx="0.076" cy="0.019" r="1.465" gradientTransform="translate(0.001)" gradientUnits="objectBoundingBox">
      <stop offset="0" stop-color="#f6f6f7"/>
      <stop offset="0.477" stop-color="#f9f9fa"/>
      <stop offset="0.715" stop-color="#fff"/>
    </radialGradient>
  </defs>
  <g id="Grupo_161721" data-name="Grupo 161721" transform="translate(0 0)">
    <g id="Grupo_42274" data-name="Grupo 42274" transform="translate(0 0)">
      <g id="Grupo_18423" data-name="Grupo 18423" transform="translate(0 0)">
        <g id="Grupo_18421" data-name="Grupo 18421">
          <g id="Grupo_18420" data-name="Grupo 18420">
            <g id="Grupo_18419" data-name="Grupo 18419">
              <path id="Trazado_40936" data-name="Trazado 40936" d="M298.874,2197.844a52.125,52.125,0,1,1-52.125-52.124A52.124,52.124,0,0,1,298.874,2197.844Z" transform="translate(-194.623 -2145.721)" fill="#fff"/>
            </g>
          </g>
        </g>
        <path id="Trazado_40937" data-name="Trazado 40937" d="M298.4,2197.326a52.124,52.124,0,1,0-52.125,52.126A51.917,51.917,0,0,0,298.4,2197.326Z" transform="translate(-194.145 -2145.202)" fill="url(#radial-gradient)"/>
        <path id="Trazado_40938" data-name="Trazado 40938" d="M281.847,2193.134a39.787,39.787,0,1,0-39.787,39.788A39.641,39.641,0,0,0,281.847,2193.134Z" transform="translate(-189.776 -2140.837)" fill="none" stroke="#1565c0" stroke-miterlimit="10" stroke-width="4"/>
        <g id="Grupo_18422" data-name="Grupo 18422" transform="translate(9.235 29.265)">
          <path id="Trazado_40939" data-name="Trazado 40939" d="M290.291,2164.488a52.131,52.131,0,0,1-89.746,51.908,51.966,51.966,0,0,0,89.746-51.908Z" transform="translate(-200.545 -2164.488)" fill="#eceef0"/>
        </g>
      </g>
    </g>
    <g id="DoXuLb.tif" transform="translate(989.322 4290.559)">
      <g id="Grupo_155885" data-name="Grupo 155885" transform="translate(-959.962 -4263.433)">
        <path id="Trazado_198331" data-name="Trazado 198331" d="M-959.962-4233.683a6.644,6.644,0,0,1,1.138-.569c.717-.205,1.459-.323,2.254-.491-.515-.751-.99-1.437-1.457-2.127a.893.893,0,0,1,.119-1.389q1.129-1.137,2.267-2.267a.862.862,0,0,1,1.31-.121c.706.477,1.405.964,2.182,1.5.172-.823.333-1.585.49-2.347.172-.834.326-.986,1.151-1.1a15.114,15.114,0,0,1,1.4-5.686,15.574,15.574,0,0,1,12.174-9.158,31.41,31.41,0,0,1,3.531-.135,1.412,1.412,0,0,0,.717-.2c.714-.5,1.4-1.042,2.1-1.559a.859.859,0,0,1,1.395.194q.9,1.176,1.773,2.367a.875.875,0,0,0,.954.448.869.869,0,0,0,.665-.865c.112-.9.259-1.786.378-2.68.13-.968.435-1.193,1.414-1.049,1.445.212,2.891.413,4.337.613.754.1,1.02.4.935,1.146-.114.994-.266,1.984-.406,2.975a.851.851,0,0,0,.4.975.9.9,0,0,0,1.047-.17q1.159-.879,2.325-1.746c.616-.456,1-.4,1.462.21q1.4,1.847,2.781,3.706a.886.886,0,0,1-.22,1.461c-.772.586-1.545,1.171-2.327,1.744A.89.89,0,0,0-914.1-4249c.117.433.467.561.861.616.975.136,1.95.27,2.925.407a.858.858,0,0,1,.842,1.048c-.215,1.643-.452,3.283-.7,4.921a.852.852,0,0,1-1.019.707c-.992-.134-1.983-.274-2.97-.436a.893.893,0,0,0-1.035.359.892.892,0,0,0,.143,1.088c.58.756,1.147,1.521,1.717,2.286.478.641.433,1.033-.19,1.5q-1.848,1.4-3.707,2.778a.9.9,0,0,1-1.466-.228c-.583-.774-1.167-1.548-1.743-2.328a.876.876,0,0,0-.962-.437.883.883,0,0,0-.651.836q-.212,1.486-.425,2.972a.872.872,0,0,1-1.134.827q-2.266-.321-4.533-.633c-.817-.112-1.074-.453-.956-1.266.135-.925.263-1.852.4-2.777a.93.93,0,0,0-.369-1.042.878.878,0,0,0-1.084.154c-.757.579-1.521,1.148-2.286,1.717a.909.909,0,0,1-1.506-.206q-1.4-1.846-2.782-3.7a.882.882,0,0,1,.21-1.434q1.156-.882,2.327-1.744a.9.9,0,0,0,.456-1,.907.907,0,0,0-.9-.636c-.945-.114-1.886-.259-2.827-.4-.712-.1-.989-.429-.9-1.137q.307-2.342.663-4.678c.113-.737.444-.955,1.213-.852q1.463.2,2.923.421a.827.827,0,0,0,.924-.4.812.812,0,0,0-.094-.963c-.582-.775-1.173-1.543-1.738-2.331a7.789,7.789,0,0,1-.484-.918,11.619,11.619,0,0,0-3.429.446,14.033,14.033,0,0,0-10.4,11.813,13.761,13.761,0,0,0,6.184,13.695,6.161,6.161,0,0,1,2.778,3.609,8.451,8.451,0,0,1,.179,1.706c.028.969,0,1.94.01,2.909a1.66,1.66,0,0,0,1.789,1.781q3.255.01,6.51,0a1.646,1.646,0,0,0,1.751-1.763c.006-1.052-.007-2.1,0-3.156a5.61,5.61,0,0,1,2.173-4.5c.739-.6,1.536-1.123,2.333-1.7l1.116,1.243c-.606.458-1.15.937-1.757,1.314a4.374,4.374,0,0,0-2.193,4.125c.027.937.008,1.874,0,2.811a3.191,3.191,0,0,1-1.365,2.654.7.7,0,0,0-.312.655c.011,1.332.008,2.663,0,3.995a3.308,3.308,0,0,1-2.647,3.49.478.478,0,0,0-.12.08h-4.538a.447.447,0,0,0-.117-.083,3.352,3.352,0,0,1-2.64-3.5c0-1.331-.008-2.662.006-3.993a.693.693,0,0,0-.317-.651,2.933,2.933,0,0,1-1.284-2.076c-.086-.779-.06-1.571-.081-2.357,0-.164,0-.327,0-.491a7.519,7.519,0,0,0-1.119,1c-.532.534-.831.557-1.464.124-.674-.461-1.345-.925-2.053-1.412-.047.139-.087.226-.107.317-.166.769-.321,1.54-.493,2.308a.825.825,0,0,1-.929.752q-1.577.007-3.154,0c-.574,0-.814-.2-.953-.782-.035-.143-.062-.288-.093-.432-.155-.709-.31-1.417-.477-2.18-.735.506-1.394.964-2.058,1.417s-.945.428-1.5-.128q-1.065-1.061-2.126-2.125c-.567-.569-.594-.844-.146-1.5.459-.673.923-1.343,1.428-2.079-.822-.172-1.581-.292-2.316-.5a5.854,5.854,0,0,1-1.086-.564Zm44.885-3.791c-.5-.676-.973-1.3-1.432-1.936a2.345,2.345,0,0,1-.493-1.929,2.558,2.558,0,0,1,3.18-2.069c.666.129,1.348.181,2.077.274l.47-3.243c-.709-.1-1.4-.229-2.094-.3a2.647,2.647,0,0,1-2.36-1.781,2.442,2.442,0,0,1,.9-2.789c.619-.5,1.264-.975,1.932-1.487l-1.982-2.637c-.712.53-1.364,1.052-2.053,1.519a2.336,2.336,0,0,1-2.844-.02,2.394,2.394,0,0,1-1.061-2.466c.118-.771.206-1.546.313-2.357-.9-.141-1.763-.278-2.632-.412-.1-.015-.2,0-.295-.01-.264-.036-.366.045-.394.339-.061.633-.18,1.26-.282,1.889a2.452,2.452,0,0,1-2.058,2.248,2.548,2.548,0,0,1-2.62-1.155c-.431-.587-.877-1.163-1.325-1.754l-2.62,1.975c.079.126.125.211.183.289.467.63.99,1.228,1.393,1.9a2.4,2.4,0,0,1-.116,2.766,2.42,2.42,0,0,1-2.346,1.051c-.807-.076-1.607-.231-2.466-.36l-.464,3.275,2.4.333a2.644,2.644,0,0,1,2.1,1.895,2.6,2.6,0,0,1-.952,2.666c-.63.464-1.252.939-1.931,1.449l1.98,2.642c.713-.529,1.373-1.033,2.048-1.516a2.313,2.313,0,0,1,2.011-.363,2.576,2.576,0,0,1,1.88,3.194c-.109.669-.195,1.342-.292,2.018,1,.153,1.913.29,2.828.439.3.049.469-.063.507-.363.072-.567.15-1.134.207-1.7a2.652,2.652,0,0,1,1.981-2.412,2.563,2.563,0,0,1,2.731,1.1c.439.6.9,1.184,1.353,1.784Zm-28.246,13.056,1.768-1.769c-.453-1.572-1.882-2.194-3.045-3.094a5.117,5.117,0,0,1-5.848,2.5,4.956,4.956,0,0,1-3.684-4.577c-.045-2.951,1.559-4.685,4.359-5.347l-.593-2.47a1.216,1.216,0,0,0-.087.2,1.676,1.676,0,0,1-2.81,1.119c-.532-.345-1.052-.709-1.562-1.054l-1.488,1.486c.4.6.831,1.189,1.2,1.819a1.658,1.658,0,0,1-1.086,2.521c-.677.156-1.358.3-2.041.445v1.943c.64.143,1.26.276,1.877.419a1.689,1.689,0,0,1,1.089,2.83c-.356.52-.707,1.044-1.013,1.5l1.469,1.538c.551-.381,1.094-.772,1.652-1.14a1.694,1.694,0,0,1,2.695,1.083c.149.662.289,1.325.43,1.97h1.946c.148-.667.282-1.3.433-1.937a1.672,1.672,0,0,1,2.779-1.055Zm-9.076-7.224a3.284,3.284,0,0,0,2.548,3.214,3.333,3.333,0,0,0,3.72-1.661.542.542,0,0,0-.091-.762,13.28,13.28,0,0,1-2.558-3.658.7.7,0,0,0-.925-.439A3.331,3.331,0,0,0-952.4-4231.642Z" transform="translate(959.962 4261.21)" fill="#12263f"/>
        <path id="Trazado_198332" data-name="Trazado 198332" d="M-936.326-4217.309l5.875,4.193-.978,1.378-5.88-4.2Z" transform="translate(939.548 4221.868)" fill="#12263f"/>
        <path id="Trazado_198333" data-name="Trazado 198333" d="M-864.638-4263l1.634-.433,1.719,6.723-1.638.417Z" transform="translate(874.06 4263.433)" fill="#12263f"/>
        <path id="Trazado_198334" data-name="Trazado 198334" d="M-944.6-4133.838l.413,1.642-6.719,1.678-.4-1.643Z" transform="translate(952.159 4146.646)" fill="#12263f"/>
        <path id="Trazado_198335" data-name="Trazado 198335" d="M-550.082-3899.041l-1.083,1.3-5.035-4.193,1.076-1.305Z" transform="translate(596.106 3938.841)" fill="#12263f"/>
        <path id="Trazado_198336" data-name="Trazado 198336" d="M-536.664-3947.682v1.68c-.136.014-.261.037-.387.037-1.673,0-3.346-.009-5.019.01-.37,0-.474-.109-.474-.474,0-1.252-.012-1.252,1.214-1.252h4.666Z" transform="translate(583.8 3978.89)" fill="#12263f"/>
        <path id="Trazado_198337" data-name="Trazado 198337" d="M-591.669-3874.067h-1.674a3.465,3.465,0,0,1-.042-.378c0-1.674.007-3.348-.009-5.022,0-.358.089-.483.466-.482,1.258,0,1.258-.012,1.258,1.257Z" transform="translate(629.624 3917.851)" fill="#12263f"/>
        <path id="Trazado_198338" data-name="Trazado 198338" d="M-650.015-4176.109a6.67,6.67,0,0,1-6.82,6.683,6.676,6.676,0,0,1-6.612-6.772,6.7,6.7,0,0,1,6.4-6.675A6.716,6.716,0,0,1-650.015-4176.109Zm-11.713-.113a5.02,5.02,0,0,0,4.942,5.092,5.05,5.05,0,0,0,5.073-4.763,5.016,5.016,0,0,0-4.84-5.28A5.01,5.01,0,0,0-661.728-4176.223Z" transform="translate(692.755 4190.843)" fill="#12263f"/>
      </g>
    </g>
  </g>
</svg>
