<svg xmlns="http://www.w3.org/2000/svg" width="331.502" height="307.025" viewBox="0 0 331.502 307.025">
  <g id="Grupo_879731" data-name="Grupo 879731" transform="translate(-274 -7259)">
    <rect id="Rectángulo_31425" data-name="Rectángulo 31425" width="306" height="286" transform="translate(274 7259)" fill="none"/>
    <g id="Grupo_73112" data-name="Grupo 73112" transform="translate(262.757 7248.582)">
      <path id="Trazado_107859" data-name="Trazado 107859" d="M250.989,245.365l-10.65-6.139a10.768,10.768,0,0,0-10.764.005l-59.084,34.241-5.213-3-42.77,25.023,4.937,2.844-69.939,40.38a3.589,3.589,0,0,0,0,6.217l10.763,6.214a10.768,10.768,0,0,0,10.774,0l69.9-40.424,8.169,4.705a21.535,21.535,0,0,0,21.515-.011l25.126-14.507a4.786,4.786,0,0,0,0-8.292l-11.778-6.781,9.919-5.756,3.439-2,45.667-26.5A3.589,3.589,0,0,0,250.989,245.365Z" transform="translate(-21.39 -56.571)" fill="#e0e0e0" opacity="0.311"/>
      <g id="Grupo_73039" data-name="Grupo 73039" transform="translate(232.243 25.351)">
        <g id="Grupo_73038" data-name="Grupo 73038" transform="translate(46 24)">
          <g id="Grupo_73027" data-name="Grupo 73027">
            <g id="Grupo_73025" data-name="Grupo 73025">
              <g id="Grupo_73024" data-name="Grupo 73024">
                <g id="Grupo_73023" data-name="Grupo 73023" style="isolation: isolate">
                  <g id="Grupo_73018" data-name="Grupo 73018" transform="translate(2.4 4.13)">
                    <path id="Trazado_107874" data-name="Trazado 107874" d="M288.108,24.814l2.079-1.208-.122,74.162-2.079,1.208Z" transform="translate(-287.986 -23.606)" fill="#f0f0f0"/>
                  </g>
                  <g id="Grupo_73019" data-name="Grupo 73019" transform="translate(2.4 78.293)">
                    <path id="Trazado_107875" data-name="Trazado 107875" d="M287.986,131.34l2.079-1.208L314,143.873l-2.08,1.209Z" transform="translate(-287.986 -130.132)" fill="#f5f5f5"/>
                  </g>
                  <g id="Grupo_73020" data-name="Grupo 73020" transform="translate(0 1.208)">
                    <path id="Trazado_107876" data-name="Trazado 107876" d="M284.676,19.409l28.724,16.5-.137,79.661-28.724-16.5Zm26.2,92.034L311,37.281,287.06,23.54,286.938,97.7l23.939,13.741" transform="translate(-284.538 -19.409)" fill="#e0e0e0"/>
                  </g>
                  <g id="Grupo_73021" data-name="Grupo 73021" transform="translate(0.138)">
                    <path id="Trazado_107877" data-name="Trazado 107877" d="M284.736,18.882l2.079-1.208,28.724,16.5-2.079,1.208Z" transform="translate(-284.736 -17.673)" fill="#f5f5f5"/>
                  </g>
                  <g id="Grupo_73022" data-name="Grupo 73022" transform="translate(28.724 16.504)">
                    <path id="Trazado_107878" data-name="Trazado 107878" d="M325.934,42.588l2.079-1.208-.137,79.66-2.079,1.208Z" transform="translate(-325.797 -41.379)" fill="#f0f0f0"/>
                  </g>
                </g>
              </g>
            </g>
            <g id="Grupo_73026" data-name="Grupo 73026" transform="translate(2.4 27.228)">
              <path id="Trazado_107879" data-name="Trazado 107879" d="M287.992,57.992l2.08-1.209,21.977,12.641v2.4Z" transform="translate(-287.988 -56.784)" fill="#f5f5f5"/>
              <path id="Trazado_107880" data-name="Trazado 107880" d="M287.99,58.519h0l24.056,13.837V75.1L287.986,61.278Z" transform="translate(-287.986 -57.311)" fill="#e0e0e0"/>
              <rect id="Rectángulo_32266" data-name="Rectángulo 32266" height="27.752" transform="translate(0.004 1.209) rotate(-60.093)" fill="#e0e0e0"/>
            </g>
          </g>
          <g id="Grupo_73037" data-name="Grupo 73037" transform="translate(26.339 15.136)">
            <g id="Grupo_73035" data-name="Grupo 73035">
              <g id="Grupo_73034" data-name="Grupo 73034">
                <g id="Grupo_73033" data-name="Grupo 73033" style="isolation: isolate">
                  <g id="Grupo_73028" data-name="Grupo 73028" transform="translate(2.4 4.13)">
                    <path id="Trazado_107881" data-name="Trazado 107881" d="M325.941,46.556l2.079-1.209-.122,74.162-2.08,1.208Z" transform="translate(-325.819 -45.347)" fill="#f0f0f0"/>
                  </g>
                  <g id="Grupo_73029" data-name="Grupo 73029" transform="translate(2.4 78.293)">
                    <path id="Trazado_107882" data-name="Trazado 107882" d="M325.819,153.081l2.08-1.208,23.939,13.741-2.079,1.208Z" transform="translate(-325.819 -151.873)" fill="#f5f5f5"/>
                  </g>
                  <g id="Grupo_73030" data-name="Grupo 73030" transform="translate(0 1.208)">
                    <path id="Trazado_107883" data-name="Trazado 107883" d="M322.509,41.15l28.724,16.5-.137,79.661-28.724-16.5Zm26.2,92.034.122-74.162L324.893,45.281l-.122,74.162,23.939,13.741" transform="translate(-322.371 -41.15)" fill="#e0e0e0"/>
                  </g>
                  <g id="Grupo_73031" data-name="Grupo 73031" transform="translate(0.138)">
                    <path id="Trazado_107884" data-name="Trazado 107884" d="M322.569,40.623l2.079-1.209,28.724,16.5-2.079,1.208Z" transform="translate(-322.569 -39.414)" fill="#f5f5f5"/>
                  </g>
                  <g id="Grupo_73032" data-name="Grupo 73032" transform="translate(28.724 16.504)">
                    <path id="Trazado_107885" data-name="Trazado 107885" d="M363.767,64.329l2.079-1.208-.137,79.66-2.079,1.208Z" transform="translate(-363.63 -63.12)" fill="#f0f0f0"/>
                  </g>
                </g>
              </g>
            </g>
            <g id="Grupo_73036" data-name="Grupo 73036" transform="translate(2.4 27.228)">
              <path id="Trazado_107886" data-name="Trazado 107886" d="M325.825,79.733l2.079-1.208,21.977,12.641v2.4Z" transform="translate(-325.821 -78.525)" fill="#f5f5f5"/>
              <path id="Trazado_107887" data-name="Trazado 107887" d="M325.823,80.26h0L349.88,94.1v2.746L325.819,83.019Z" transform="translate(-325.819 -79.052)" fill="#e0e0e0"/>
              <rect id="Rectángulo_32267" data-name="Rectángulo 32267" height="27.752" transform="translate(0.005 1.209) rotate(-60.093)" fill="#e0e0e0"/>
            </g>
          </g>
        </g>
      </g>
      <g id="Grupo_73102" data-name="Grupo 73102" transform="translate(44.182 23.418)">
        <g id="Grupo_73061" data-name="Grupo 73061" transform="translate(0 0)">
          <g id="Grupo_73060" data-name="Grupo 73060">
            <g id="Grupo_73058" data-name="Grupo 73058" transform="translate(69.344 177.961)">
              <g id="Grupo_73056" data-name="Grupo 73056">
                <path id="Trazado_107914" data-name="Trazado 107914" d="M216.335,306.4,195.85,318.124a19.42,19.42,0,0,1-19.342-.031l-15.2-8.76a5.827,5.827,0,0,1-2.917-5.04l-.014-10.369-3.171,1.832v9.013a6.8,6.8,0,0,0,3.4,5.89l18.048,10.4a19.121,19.121,0,0,0,19.044.03l20.634-11.807A7.723,7.723,0,0,0,220.1,301.1,7.652,7.652,0,0,1,216.335,306.4Z" transform="translate(-155.206 -271.963)" fill="#1565c0"/>
                <path id="Trazado_107915" data-name="Trazado 107915" d="M216.335,306.4,195.85,318.124a19.42,19.42,0,0,1-19.342-.031l-15.2-8.76a5.827,5.827,0,0,1-2.917-5.04l-.014-10.369-3.171,1.832v9.013a6.8,6.8,0,0,0,3.4,5.89l18.048,10.4a19.121,19.121,0,0,0,19.044.03l20.634-11.807A7.723,7.723,0,0,0,220.1,301.1,7.652,7.652,0,0,1,216.335,306.4Z" transform="translate(-155.206 -271.963)" opacity="0.1"/>
                <path id="Trazado_107916" data-name="Trazado 107916" d="M162.171,303.354l15.2,8.76a19.42,19.42,0,0,0,19.342.031L217.2,300.424a5.595,5.595,0,0,0,.138-10.523L200.53,279.82a6.8,6.8,0,0,1-3.3-5.829v-8.007L159.24,287.945l.014,10.369A5.827,5.827,0,0,0,162.171,303.354Z" transform="translate(-156.069 -265.984)" fill="#1565c0"/>
              </g>
              <g id="Grupo_73057" data-name="Grupo 73057">
                <path id="Trazado_107917" data-name="Trazado 107917" d="M161.308,309.333a5.827,5.827,0,0,1-2.917-5.04l-.014-10.369-3.171,1.832v9.013a6.8,6.8,0,0,0,3.4,5.89l6.4,3.69v-2.881Z" transform="translate(-155.206 -271.963)" opacity="0.4"/>
                <path id="Trazado_107918" data-name="Trazado 107918" d="M162.171,303.354l3.7,2.135h0l39.66-22.667-5.005-3a6.8,6.8,0,0,1-3.3-5.829v-8.007L159.24,287.945l.014,10.369A5.827,5.827,0,0,0,162.171,303.354Z" transform="translate(-156.069 -265.984)" opacity="0.3"/>
              </g>
            </g>
            <g id="Grupo_73059" data-name="Grupo 73059">
              <path id="Trazado_107919" data-name="Trazado 107919" d="M77.533,346.36v0c-.015-.007-.03-.013-.044-.02Z" transform="translate(-69.231 -105.218)" fill="#ffa8a7"/>
              <path id="Trazado_107920" data-name="Trazado 107920" d="M73.482,276.929,73.19,147.007a12.775,12.775,0,0,1,5.8-10.039l161.5-93a4.122,4.122,0,0,1,4.1-.424L238.5,40.019v0c-1.063-.674-2.562-.619-4.224.341l-161.5,93a12.774,12.774,0,0,0-5.8,10.04l.292,129.922a4.165,4.165,0,0,0,1.547,3.624h0l.006,0a2.791,2.791,0,0,0,.325.188l6,3.492A4.087,4.087,0,0,1,73.482,276.929Z" transform="translate(-66.983 -39.573)" fill="#1565c0"/>
              <path id="Trazado_107921" data-name="Trazado 107921" d="M238.867,40.019v0c-1.063-.674-2.562-.619-4.224.341l-161.5,93a12.181,12.181,0,0,0-4.441,4.949l6.213,3.592a12.158,12.158,0,0,1,4.435-4.94l161.5-93a4.122,4.122,0,0,1,4.1-.424Z" transform="translate(-67.352 -39.573)" fill="#fff" opacity="0.3"/>
              <path id="Trazado_107922" data-name="Trazado 107922" d="M66.983,170.289l.292,129.922a4.165,4.165,0,0,0,1.547,3.624h0l.006,0a2.791,2.791,0,0,0,.325.188l6,3.492a4.087,4.087,0,0,1-1.668-3.708L73.19,173.89a11.411,11.411,0,0,1,1.361-5.1L68.338,165.2A11.414,11.414,0,0,0,66.983,170.289Z" transform="translate(-66.983 -66.456)" opacity="0.2"/>
              <path id="Trazado_107923" data-name="Trazado 107923" d="M293.01,44.669l-.03-.017.028.019Z" transform="translate(-115.345 -40.66)" fill="#ffa8a7"/>
              <path id="Trazado_107924" data-name="Trazado 107924" d="M248.005,48.27a4.083,4.083,0,0,0-1.669-3.707l-.027-.019-.039-.022a4.122,4.122,0,0,0-4.1.424l-161.5,93a12.775,12.775,0,0,0-5.8,10.039l.292,129.922a4.087,4.087,0,0,0,1.668,3.708c.031.019.06.037.091.053.014.008.029.013.044.02a4.161,4.161,0,0,0,4.031-.457l161.5-93a12.786,12.786,0,0,0,5.8-10.04Zm-8.373,134.992L80.9,274.667l-.283-126.7a7.222,7.222,0,0,1,2.926-5.052L242.276,51.512l.283,126.7A7.222,7.222,0,0,1,239.632,183.262Z" transform="translate(-68.673 -40.552)" fill="#1565c0"/>
              <path id="Trazado_107925" data-name="Trazado 107925" d="M243.913,53.516l-4.108,2.37.274,122.322a7.219,7.219,0,0,1-2.927,5.053L82.529,272.3l.009,4.374,158.73-91.4a7.222,7.222,0,0,0,2.927-5.053Z" transform="translate(-70.31 -42.557)" fill="#1565c0"/>
              <path id="Trazado_107926" data-name="Trazado 107926" d="M243.913,53.516l-4.108,2.37.274,122.322a7.219,7.219,0,0,1-2.927,5.053L82.529,272.3l.009,4.374,158.73-91.4a7.222,7.222,0,0,0,2.927-5.053Z" transform="translate(-70.31 -42.557)" opacity="0.3"/>
              <path id="Trazado_107927" data-name="Trazado 107927" d="M240,178.853,239.73,56.531,85.107,145.567a7.222,7.222,0,0,0-2.926,5.052l.274,122.323,154.622-89.036A7.219,7.219,0,0,0,240,178.853Z" transform="translate(-70.235 -43.202)" fill="#263238"/>
            </g>
          </g>
        </g>
        <g id="Grupo_73101" data-name="Grupo 73101" transform="translate(24.826 19.579)">
          <g id="Grupo_73063" data-name="Grupo 73063">
            <g id="Grupo_73062" data-name="Grupo 73062" transform="translate(0)">
              <path id="Trazado_107928" data-name="Trazado 107928" d="M104.711,288.826l-.276-122.8a12.078,12.078,0,0,1,5.478-9.489l152.642-87.9a3.9,3.9,0,0,1,3.873-.4L260.68,64.9v0c-1.006-.638-2.422-.585-3.993.322l-152.642,87.9a12.074,12.074,0,0,0-5.478,9.489l.276,122.8a3.936,3.936,0,0,0,1.462,3.425h0l.006,0a2.589,2.589,0,0,0,.307.177l5.669,3.3A3.863,3.863,0,0,1,104.711,288.826Z" transform="translate(-98.568 -64.482)" fill="#455a64"/>
              <path id="Trazado_107929" data-name="Trazado 107929" d="M261.029,64.9v0c-1.006-.638-2.422-.585-3.993.322L104.4,153.133a11.508,11.508,0,0,0-4.2,4.678l5.872,3.395a11.5,11.5,0,0,1,4.192-4.669L262.9,68.634a3.9,3.9,0,0,1,3.873-.4Z" transform="translate(-98.917 -64.482)" fill="#fff" opacity="0.2"/>
            </g>
            <path id="Trazado_107930" data-name="Trazado 107930" d="M98.568,188.032l.276,122.8a3.936,3.936,0,0,0,1.462,3.425h0l.006,0a2.591,2.591,0,0,0,.307.177l5.669,3.3a3.863,3.863,0,0,1-1.577-3.5l-.276-122.8a10.8,10.8,0,0,1,1.287-4.82l-5.872-3.395A10.785,10.785,0,0,0,98.568,188.032Z" transform="translate(-98.568 -89.891)" fill="#fff" opacity="0.1"/>
          </g>
          <path id="Trazado_107931" data-name="Trazado 107931" d="M106.052,177.017l.26,115.681a3.863,3.863,0,0,0,1.577,3.5l.086.05c.013.007.028.012.042.019a3.933,3.933,0,0,0,3.811-.431l152.642-87.9a12.086,12.086,0,0,0,5.478-9.489l-.261-115.873Z" transform="translate(-100.169 -68.354)" fill="#455a64"/>
          <path id="Trazado_107932" data-name="Trazado 107932" d="M116.066,185.252,264,99.87l.23,102.3a4.75,4.75,0,0,1-1.554,2.668L116.3,289.13Z" transform="translate(-102.312 -72.055)" fill="#455a64"/>
          <path id="Trazado_107933" data-name="Trazado 107933" d="M106.052,177.017l.26,115.681a3.863,3.863,0,0,0,1.577,3.5l.086.05c.013.007.028.012.042.019a3.933,3.933,0,0,0,3.811-.431l152.642-87.9a12.086,12.086,0,0,0,5.478-9.489l-.261-115.873Z" transform="translate(-100.169 -68.354)" fill="#fff" opacity="0.2"/>
          <g id="Grupo_73076" data-name="Grupo 73076" transform="translate(11.641 21.57)">
            <g id="Grupo_73066" data-name="Grupo 73066" transform="translate(18.143)">
              <g id="Grupo_73064" data-name="Grupo 73064">
                <path id="Trazado_107934" data-name="Trazado 107934" d="M269.862,92.275c1.414-.816,2.569-.163,2.573,1.467a5.637,5.637,0,0,1-2.557,4.428L139.034,173.808c-1.414.817-2.569.163-2.573-1.466a5.637,5.637,0,0,1,2.556-4.428Z" transform="translate(-136.461 -91.924)" fill="#455a64"/>
              </g>
              <g id="Grupo_73065" data-name="Grupo 73065" opacity="0.8">
                <path id="Trazado_107935" data-name="Trazado 107935" d="M269.862,92.275c1.414-.816,2.569-.163,2.573,1.467a5.637,5.637,0,0,1-2.557,4.428L139.034,173.808c-1.414.817-2.569.163-2.573-1.466a5.637,5.637,0,0,1,2.556-4.428Z" transform="translate(-136.461 -91.924)" fill="#fff"/>
              </g>
            </g>
            <g id="Grupo_73075" data-name="Grupo 73075" transform="translate(0 80.726)">
              <g id="Grupo_73070" data-name="Grupo 73070">
                <g id="Grupo_73067" data-name="Grupo 73067" transform="translate(0 7.654)">
                  <path id="Trazado_107936" data-name="Trazado 107936" d="M114.857,204.4a.192.192,0,0,1,.174-.023c.105.05.114.233.017.41l-.827,1.519,2.79-1.611c.142-.082.259-.016.259.148a.572.572,0,0,1-.257.446l-2.79,1.611.832.562c.1.064.09.257-.014.428a.521.521,0,0,1-.173.178.174.174,0,0,1-.19.014l-1.232-.829a.156.156,0,0,1-.05-.064.262.262,0,0,1-.019-.1.441.441,0,0,1,.016-.108.554.554,0,0,1,.049-.123l1.225-2.254A.525.525,0,0,1,114.857,204.4Z" transform="translate(-113.378 -204.367)" fill="#455a64"/>
                </g>
                <g id="Grupo_73068" data-name="Grupo 73068" transform="translate(6.123 3.586)">
                  <path id="Trazado_107937" data-name="Trazado 107937" d="M123.57,199.226a.182.182,0,0,1,.19-.015l1.231.829a.208.208,0,0,1,.05.064.327.327,0,0,1,.017.1.446.446,0,0,1-.016.108.607.607,0,0,1-.047.121l-1.225,2.255a.527.527,0,0,1-.19.205.191.191,0,0,1-.174.023c-.1-.05-.112-.233-.017-.41l.828-1.52-2.79,1.611c-.141.082-.258.016-.259-.148a.567.567,0,0,1,.257-.445l2.79-1.611-.834-.56c-.1-.065-.089-.258.014-.428A.513.513,0,0,1,123.57,199.226Z" transform="translate(-121.168 -199.191)" fill="#455a64"/>
                </g>
                <g id="Grupo_73069" data-name="Grupo 73069" transform="translate(12.088)">
                  <path id="Trazado_107938" data-name="Trazado 107938" d="M130.348,195.273a1.329,1.329,0,0,1,.857-.207.571.571,0,0,1,.253-.4l.013-.006c.141-.075.252,0,.246.165l-.021.659a.568.568,0,0,1-.246.425l-.563.353-.011.006c-.138.079-.25.022-.257-.134a.561.561,0,0,1,.2-.413,1,1,0,0,0-.464.146,2.378,2.378,0,0,0-1.078,1.866c0,.685.489.96,1.085.616a2.365,2.365,0,0,0,.949-1.2.56.56,0,0,1,.226-.286.232.232,0,0,1,.123-.035c.125.006.172.158.1.341a3.493,3.493,0,0,1-1.4,1.769c-.881.509-1.6.1-1.6-.912A3.514,3.514,0,0,1,130.348,195.273Z" transform="translate(-128.757 -194.628)" fill="#455a64"/>
                </g>
              </g>
              <g id="Grupo_73074" data-name="Grupo 73074" opacity="0.7">
                <g id="Grupo_73071" data-name="Grupo 73071" transform="translate(0 7.654)">
                  <path id="Trazado_107939" data-name="Trazado 107939" d="M114.857,204.4a.192.192,0,0,1,.174-.023c.105.05.114.233.017.41l-.827,1.519,2.79-1.611c.142-.082.259-.016.259.148a.572.572,0,0,1-.257.446l-2.79,1.611.832.562c.1.064.09.257-.014.428a.521.521,0,0,1-.173.178.174.174,0,0,1-.19.014l-1.232-.829a.156.156,0,0,1-.05-.064.262.262,0,0,1-.019-.1.441.441,0,0,1,.016-.108.554.554,0,0,1,.049-.123l1.225-2.254A.525.525,0,0,1,114.857,204.4Z" transform="translate(-113.378 -204.367)" fill="#fff"/>
                </g>
                <g id="Grupo_73072" data-name="Grupo 73072" transform="translate(6.123 3.586)">
                  <path id="Trazado_107940" data-name="Trazado 107940" d="M123.57,199.226a.182.182,0,0,1,.19-.015l1.231.829a.208.208,0,0,1,.05.064.327.327,0,0,1,.017.1.446.446,0,0,1-.016.108.607.607,0,0,1-.047.121l-1.225,2.255a.527.527,0,0,1-.19.205.191.191,0,0,1-.174.023c-.1-.05-.112-.233-.017-.41l.828-1.52-2.79,1.611c-.141.082-.258.016-.259-.148a.567.567,0,0,1,.257-.445l2.79-1.611-.834-.56c-.1-.065-.089-.258.014-.428A.513.513,0,0,1,123.57,199.226Z" transform="translate(-121.168 -199.191)" fill="#fff"/>
                </g>
                <g id="Grupo_73073" data-name="Grupo 73073" transform="translate(12.088)">
                  <path id="Trazado_107941" data-name="Trazado 107941" d="M130.348,195.273a1.329,1.329,0,0,1,.857-.207.571.571,0,0,1,.253-.4l.013-.006c.141-.075.252,0,.246.165l-.021.659a.568.568,0,0,1-.246.425l-.563.353-.011.006c-.138.079-.25.022-.257-.134a.561.561,0,0,1,.2-.413,1,1,0,0,0-.464.146,2.378,2.378,0,0,0-1.078,1.866c0,.685.489.96,1.085.616a2.365,2.365,0,0,0,.949-1.2.56.56,0,0,1,.226-.286.232.232,0,0,1,.123-.035c.125.006.172.158.1.341a3.493,3.493,0,0,1-1.4,1.769c-.881.509-1.6.1-1.6-.912A3.514,3.514,0,0,1,130.348,195.273Z" transform="translate(-128.757 -194.628)" fill="#fff"/>
                </g>
              </g>
            </g>
          </g>
          <path id="Trazado_107942" data-name="Trazado 107942" d="M269.667,72.7a3.86,3.86,0,0,0-1.578-3.5c-.009-.005-.017-.013-.027-.018l-.036-.021a3.9,3.9,0,0,0-3.873.4l-152.642,87.9a12.078,12.078,0,0,0-5.478,9.489l.016,7.119L269.682,79.629Z" transform="translate(-100.165 -65.408)" fill="#455a64"/>
          <path id="Trazado_107943" data-name="Trazado 107943" d="M269.667,72.7a3.86,3.86,0,0,0-1.578-3.5c-.009-.005-.017-.013-.027-.018l-.036-.021a3.9,3.9,0,0,0-3.873.4l-152.642,87.9a12.078,12.078,0,0,0-5.478,9.489l.016,7.119L269.682,79.629Z" transform="translate(-100.165 -65.408)" opacity="0.3"/>
          <g id="Grupo_73080" data-name="Grupo 73080" transform="translate(11.641 92.099)" opacity="0.5">
            <g id="Grupo_73077" data-name="Grupo 73077" transform="translate(0 4.727)">
              <path id="Trazado_107944" data-name="Trazado 107944" d="M114.872,187.875c.828-.478,1.5-.094,1.5.858a3.294,3.294,0,0,1-1.494,2.588c-.828.478-1.5.094-1.5-.858A3.294,3.294,0,0,1,114.872,187.875Z" transform="translate(-113.378 -187.669)" fill="#fff"/>
            </g>
            <g id="Grupo_73078" data-name="Grupo 73078" transform="translate(4.094 2.364)">
              <path id="Trazado_107945" data-name="Trazado 107945" d="M120.08,184.868c.828-.478,1.5-.094,1.5.858a3.291,3.291,0,0,1-1.493,2.588c-.828.478-1.5.094-1.5-.858A3.294,3.294,0,0,1,120.08,184.868Z" transform="translate(-118.586 -184.663)" fill="#fff"/>
            </g>
            <g id="Grupo_73079" data-name="Grupo 73079" transform="translate(8.188)">
              <path id="Trazado_107946" data-name="Trazado 107946" d="M125.288,181.861c.828-.478,1.5-.094,1.5.858a3.291,3.291,0,0,1-1.493,2.588c-.828.478-1.5.094-1.5-.858A3.291,3.291,0,0,1,125.288,181.861Z" transform="translate(-123.795 -181.656)" fill="#fff"/>
            </g>
          </g>
          <g id="Grupo_73084" data-name="Grupo 73084" transform="translate(11.641 92.099)">
            <g id="Grupo_73081" data-name="Grupo 73081" transform="translate(0 4.727)">
              <path id="Trazado_107947" data-name="Trazado 107947" d="M114.872,187.875c.828-.478,1.5-.094,1.5.858a3.294,3.294,0,0,1-1.494,2.588c-.828.478-1.5.094-1.5-.858A3.294,3.294,0,0,1,114.872,187.875Z" transform="translate(-113.378 -187.669)" fill="#455a64"/>
            </g>
            <g id="Grupo_73082" data-name="Grupo 73082" transform="translate(4.094 2.364)">
              <path id="Trazado_107948" data-name="Trazado 107948" d="M120.08,184.868c.828-.478,1.5-.094,1.5.858a3.291,3.291,0,0,1-1.493,2.588c-.828.478-1.5.094-1.5-.858A3.294,3.294,0,0,1,120.08,184.868Z" transform="translate(-118.586 -184.663)" fill="#455a64"/>
            </g>
            <g id="Grupo_73083" data-name="Grupo 73083" transform="translate(8.188)">
              <path id="Trazado_107949" data-name="Trazado 107949" d="M125.288,181.861c.828-.478,1.5-.094,1.5.858a3.291,3.291,0,0,1-1.493,2.588c-.828.478-1.5.094-1.5-.858A3.291,3.291,0,0,1,125.288,181.861Z" transform="translate(-123.795 -181.656)" fill="#455a64"/>
            </g>
          </g>
          <g id="Grupo_73085" data-name="Grupo 73085" transform="translate(13.772 35.246)">
            <path id="Trazado_107950" data-name="Trazado 107950" d="M285.839,152.748l-.094-41.854a1.572,1.572,0,0,0-2.356-1.359L219.556,146.3a3.931,3.931,0,0,0-1.969,3.406v41.914a1.572,1.572,0,0,0,2.356,1.362l63.927-36.814A3.929,3.929,0,0,0,285.839,152.748Z" transform="translate(-137.81 -109.324)" fill="#37474f"/>
            <path id="Trazado_107951" data-name="Trazado 107951" d="M189.158,162.662l-71.1,40.945a3.929,3.929,0,0,0-1.968,3.414l.094,41.853a1.572,1.572,0,0,0,2.356,1.359l71.006-40.89a3.93,3.93,0,0,0,1.969-3.406V164.024A1.572,1.572,0,0,0,189.158,162.662Z" transform="translate(-116.09 -120.692)" fill="#37474f"/>
            <path id="Trazado_107952" data-name="Trazado 107952" d="M189.158,162.662l-71.1,40.945a3.929,3.929,0,0,0-1.968,3.414l.094,41.853a1.572,1.572,0,0,0,2.356,1.359l71.006-40.89a3.93,3.93,0,0,0,1.969-3.406V164.024A1.572,1.572,0,0,0,189.158,162.662Z" transform="translate(-116.09 -120.692)" fill="#fff" opacity="0.1"/>
            <path id="Trazado_107953" data-name="Trazado 107953" d="M217.587,213.684v43.094a1.572,1.572,0,0,0,2.356,1.362L284.4,221.022a4.75,4.75,0,0,0,1.554-2.668l-.093-41.272a1.572,1.572,0,0,0-2.356-1.359Z" transform="translate(-137.81 -123.487)" fill="#37474f"/>
            <path id="Trazado_107954" data-name="Trazado 107954" d="M217.587,213.684v43.094a1.572,1.572,0,0,0,2.356,1.362L284.4,221.022a4.75,4.75,0,0,0,1.554-2.668l-.093-41.272a1.572,1.572,0,0,0-2.356-1.359Z" transform="translate(-137.81 -123.487)" fill="#fff" opacity="0.1"/>
            <path id="Trazado_107955" data-name="Trazado 107955" d="M116.238,273.227l.092,40.765a1.572,1.572,0,0,0,2.356,1.359l70.891-40.824a3.931,3.931,0,0,0,1.969-3.406V230.3a1.572,1.572,0,0,0-2.356-1.362l-70.983,40.877A3.931,3.931,0,0,0,116.238,273.227Z" transform="translate(-116.122 -134.874)" fill="#37474f"/>
          </g>
          <g id="Grupo_73088" data-name="Grupo 73088" transform="translate(29.784 101.223)">
            <path id="Trazado_107956" data-name="Trazado 107956" d="M152.224,226.642l-7.6,5.721a18.867,18.867,0,0,0-7.466,13.68l-.7,9.452,41.83-24.089-2.267-3.364a10.218,10.218,0,0,0-10.737-4.252l-4.275.971Z" transform="translate(-136.461 -199.741)" fill="#fff"/>
            <g id="Grupo_73087" data-name="Grupo 73087" transform="translate(10.866)">
              <path id="Trazado_107957" data-name="Trazado 107957" d="M150.594,212.923a2.481,2.481,0,0,1,1.223-1.279,1.811,1.811,0,0,1,.364-.137,2.288,2.288,0,0,1,2.034.68,3.958,3.958,0,0,1,.991,1.971,15.773,15.773,0,0,1,.247,2.22,26.783,26.783,0,0,0,.612,3.912,4.982,4.982,0,0,0,2.533,3.31l.087.046a15.362,15.362,0,0,0,5.915,1.572l-.009,1.754v.49c1.632,2.221,2.087,6.464-2.212,5.2s-7.1-4.129-7.1-6.94c-.024-1.186-.057-2.712-.087-4.075-.041-1.835-.076-3.371-.076-3.371a2.394,2.394,0,0,1-1.57.821,2.116,2.116,0,0,1-.824-.042,3.1,3.1,0,0,1-1.836-1.569,5.739,5.739,0,0,1-.587-2.392A4.8,4.8,0,0,1,150.594,212.923Z" transform="translate(-150.285 -197.158)" fill="#8c5c5b"/>
              <path id="Trazado_107958" data-name="Trazado 107958" d="M152.295,202.954a5.314,5.314,0,0,1,3.381-1.794l17.66,1.639c2.036,4.315.41,7.168.41,7.168.275,6.582.5,10.766-2.391,12.152a13.529,13.529,0,0,1-6.449.894,15.361,15.361,0,0,1-5.916-1.572l-.094-.05a4.991,4.991,0,0,1-2.532-3.324,26.827,26.827,0,0,1-.607-3.894,15.77,15.77,0,0,0-.247-2.22,3.958,3.958,0,0,0-.991-1.971,2.288,2.288,0,0,0-2.034-.68,1.813,1.813,0,0,0-.364.137C151.619,206.514,151.471,203.98,152.295,202.954Z" transform="translate(-150.59 -194.953)" fill="#263238"/>
              <path id="Trazado_107959" data-name="Trazado 107959" d="M160.288,204.024a6.1,6.1,0,0,1-.233,3.7,26.494,26.494,0,0,0-1.122,3.593,5.845,5.845,0,0,0,.486,3.627,4.26,4.26,0,0,0,2.815,2.246c1.9.4,3.751-.7,5.654-1.073a7.908,7.908,0,0,1,5.315.94.921.921,0,0,0,1.389-.735c.226-3.788.223-9.724-.338-12.512Z" transform="translate(-152.115 -195.52)" fill="#8c5c5b"/>
              <path id="Trazado_107960" data-name="Trazado 107960" d="M173.456,198.337l2.2-1.525a4.648,4.648,0,0,1-.839,4.321,6.969,6.969,0,0,1-3.87,2.279,14.722,14.722,0,0,1-4.551.208,33.624,33.624,0,0,1-6.571-1.2,5.262,5.262,0,0,1-2.581-1.355,3.415,3.415,0,0,1-.135-4.024,5.123,5.123,0,0,1,3.63-2.1,13.884,13.884,0,0,1,4.369.344,13.3,13.3,0,0,0,4.37.314A4.567,4.567,0,0,0,173,193.263C174.235,195.269,173.456,198.337,173.456,198.337Z" transform="translate(-151.618 -193.263)" fill="#263238"/>
              <g id="Grupo_73086" data-name="Grupo 73086" transform="translate(10.433 11.538)">
                <path id="Trazado_107961" data-name="Trazado 107961" d="M171.02,212.628l3.221,3.9-2.955,1.044Z" transform="translate(-165.155 -208.945)" fill="#f28f8f"/>
                <path id="Trazado_107962" data-name="Trazado 107962" d="M171.02,212.628l3.221,3.9-2.955,1.044Z" transform="translate(-165.155 -208.945)" fill="#7d4b4a"/>
                <path id="Trazado_107963" data-name="Trazado 107963" d="M167.915,221.383l2.488.766a1.532,1.532,0,0,1-1.677.771A1.381,1.381,0,0,1,167.915,221.383Z" transform="translate(-164.488 -210.819)" fill="#f28f8f"/>
                <path id="Trazado_107964" data-name="Trazado 107964" d="M167.915,221.383l2.488.766a1.532,1.532,0,0,1-1.677.771A1.381,1.381,0,0,1,167.915,221.383Z" transform="translate(-164.488 -210.819)" fill="#7d4b4a"/>
                <path id="Trazado_107965" data-name="Trazado 107965" d="M169.545,222.978a1.406,1.406,0,0,1-.815.049,1.246,1.246,0,0,1-.808-1.123,1.419,1.419,0,0,1,1.623,1.074Z" transform="translate(-164.492 -210.927)" fill="#f28f8f"/>
                <path id="Trazado_107966" data-name="Trazado 107966" d="M165.446,213.463a.885.885,0,1,0,.836-.931A.884.884,0,0,0,165.446,213.463Z" transform="translate(-163.962 -208.925)" fill="#263238"/>
                <path id="Trazado_107967" data-name="Trazado 107967" d="M174.862,212.592a.885.885,0,1,0,.836-.931A.884.884,0,0,0,174.862,212.592Z" transform="translate(-165.977 -208.738)" fill="#263238"/>
                <path id="Trazado_107968" data-name="Trazado 107968" d="M175.715,208.235l2.031,1.249a1.261,1.261,0,0,0-.457-1.365A1.5,1.5,0,0,0,175.715,208.235Z" transform="translate(-166.16 -207.943)" fill="#263238"/>
                <path id="Trazado_107969" data-name="Trazado 107969" d="M165.544,208.642l-1.886,1.46a1.262,1.262,0,0,1,.308-1.407A1.5,1.5,0,0,1,165.544,208.642Z" transform="translate(-163.558 -208.05)" fill="#263238"/>
              </g>
              <path id="Trazado_107970" data-name="Trazado 107970" d="M159.177,226.227a5.62,5.62,0,0,1-1.03-2.139,4.967,4.967,0,0,0,2.133,2.213l.087.046a15.362,15.362,0,0,0,5.916,1.572l-.008,1.513a15.053,15.053,0,0,1-3.5-.733A7.893,7.893,0,0,1,159.177,226.227Z" transform="translate(-151.967 -199.859)" fill="#7d4b4a"/>
            </g>
          </g>
          <g id="Grupo_73094" data-name="Grupo 73094" transform="translate(112.265 106.128)">
            <g id="Grupo_73089" data-name="Grupo 73089" transform="translate(0 24.227)">
              <path id="Trazado_107971" data-name="Trazado 107971" d="M254.615,233.05l-7.894,5.943a11.791,11.791,0,0,0-4.683,8.822l-.641,12.635,38.385-22.1-5.632-5.538a8.646,8.646,0,0,0-7.977-2.266l-2.77.629Z" transform="translate(-241.397 -230.326)" fill="#1565c0"/>
              <path id="Trazado_107972" data-name="Trazado 107972" d="M254.615,233.05l-7.894,5.943a11.791,11.791,0,0,0-4.683,8.822l-.641,12.635,38.385-22.1-5.632-5.538a8.646,8.646,0,0,0-7.977-2.266l-2.77.629Z" transform="translate(-241.397 -230.326)" opacity="0.2"/>
            </g>
            <g id="Grupo_73093" data-name="Grupo 73093" transform="translate(7.113)">
              <path id="Trazado_107973" data-name="Trazado 107973" d="M273.317,216.8a6.606,6.606,0,0,0,1.84-8.714,3.591,3.591,0,0,0,1.739-1.64,1.921,1.921,0,0,0-2.495-2.561,2.7,2.7,0,0,0-1.076-3.15,2.546,2.546,0,0,0-3.166.586,1.723,1.723,0,0,0-1.177-1.694,3.487,3.487,0,0,0-2.194.138c-.706.242-1.372.593-2.082.818a16.084,16.084,0,0,1-3.74.476,7.558,7.558,0,0,0-3.612.964,3.24,3.24,0,0,0-1.421,3.663,2.072,2.072,0,0,0-1.5-.8,2.011,2.011,0,0,0-1.539.653c.787.487,1.548,1.012,2.334,1.5a2.127,2.127,0,0,0-2.4.957,4.811,4.811,0,0,0-.424,2.535,33.956,33.956,0,0,0,1.739,9.7c.538,1.618,1.316,3.332,2.848,4.078Z" transform="translate(-250.864 -199.503)" fill="#263238"/>
              <g id="Grupo_73090" data-name="Grupo 73090" transform="translate(5.017 19.32)">
                <path id="Trazado_107974" data-name="Trazado 107974" d="M265.923,229.847l-.346,3.868a1.462,1.462,0,0,0,.219.853,2.188,2.188,0,0,1-.341,2.527,2.911,2.911,0,0,1-1.728.586,8.364,8.364,0,0,1-6.391-2.466,1.826,1.826,0,0,1-.506-1.324l.254-9.808Z" transform="translate(-256.829 -224.083)" fill="#ffa8a7"/>
                <path id="Trazado_107975" data-name="Trazado 107975" d="M258.123,224.729l8.061,5.256-.307,3.43a12.69,12.69,0,0,1-5.243-2.187A7.185,7.185,0,0,1,258.123,224.729Z" transform="translate(-257.091 -224.221)" fill="#f28f8f"/>
              </g>
              <g id="Grupo_73092" data-name="Grupo 73092" transform="translate(0 8.686)">
                <path id="Trazado_107976" data-name="Trazado 107976" d="M273.346,211.195a34.589,34.589,0,0,1-.868,13.414,10.527,10.527,0,0,1-1.065,2.755,4.461,4.461,0,0,1-2.174,1.932,6.907,6.907,0,0,1-3.6.009,18.1,18.1,0,0,1-6.334-1.943,6.149,6.149,0,0,1-3.225-5.444,3.8,3.8,0,0,1-3.634.2,3.858,3.858,0,0,1-1.993-3.08,2.379,2.379,0,0,1,3.969-2.248,7.931,7.931,0,0,1,1.477,1.724,2.619,2.619,0,0,0,.736.787.9.9,0,0,0,1.016-.012,1.334,1.334,0,0,0,.288-1.107l-.128-2.807a1.12,1.12,0,0,1,.623-1.045,2.752,2.752,0,0,0,1.258-1.446,5.717,5.717,0,0,0,.355-1.69.691.691,0,0,1,.946-.589A20.688,20.688,0,0,0,273.346,211.195Z" transform="translate(-250.446 -210.554)" fill="#ffa8a7"/>
                <g id="Grupo_73091" data-name="Grupo 73091" transform="translate(11.36 3.552)">
                  <path id="Trazado_107977" data-name="Trazado 107977" d="M271.591,220.031l2.525,4.25-3.01.565Z" transform="translate(-266.227 -216.135)" fill="#f28f8f"/>
                  <path id="Trazado_107978" data-name="Trazado 107978" d="M267.4,228.02l2.288,1.112a1.5,1.5,0,0,1-1.735.494A1.35,1.35,0,0,1,267.4,228.02Z" transform="translate(-265.42 -217.844)" fill="#f28f8f"/>
                  <path id="Trazado_107979" data-name="Trazado 107979" d="M267.4,228.02l2.288,1.112a1.5,1.5,0,0,1-1.735.494A1.35,1.35,0,0,1,267.4,228.02Z" transform="translate(-265.42 -217.844)" opacity="0.3"/>
                  <path id="Trazado_107980" data-name="Trazado 107980" d="M268.745,229.809a1.379,1.379,0,0,1-.794-.075,1.217,1.217,0,0,1-.612-1.206,1.386,1.386,0,0,1,1.405,1.28Z" transform="translate(-265.421 -217.953)" fill="#f28f8f"/>
                  <path id="Trazado_107981" data-name="Trazado 107981" d="M266.176,220.034a.865.865,0,1,0,.947-.773A.865.865,0,0,0,266.176,220.034Z" transform="translate(-265.171 -215.969)" fill="#263238"/>
                  <path id="Trazado_107982" data-name="Trazado 107982" d="M275.4,220.606a.865.865,0,1,0,.947-.773A.865.865,0,0,0,275.4,220.606Z" transform="translate(-267.145 -216.091)" fill="#263238"/>
                  <path id="Trazado_107983" data-name="Trazado 107983" d="M276.9,216.527l1.774,1.511a1.233,1.233,0,0,0-.237-1.387A1.46,1.46,0,0,0,276.9,216.527Z" transform="translate(-267.468 -215.351)" fill="#263238"/>
                  <path id="Trazado_107984" data-name="Trazado 107984" d="M266.98,215.4l-2.04,1.126a1.233,1.233,0,0,1,.509-1.313A1.459,1.459,0,0,1,266.98,215.4Z" transform="translate(-264.899 -215.074)" fill="#263238"/>
                </g>
              </g>
            </g>
          </g>
          <g id="Grupo_73096" data-name="Grupo 73096" transform="translate(34.43 150.091)">
            <path id="Trazado_107985" data-name="Trazado 107985" d="M176.223,269.6c-.337.788-1.264,1.164-1.71,1.9a1.832,1.832,0,1,0,3.209,1.758,5.167,5.167,0,0,1,.01,2.1,2.038,2.038,0,0,1-1.309,1.533,3.715,3.715,0,0,1-2.344,6.307,5.775,5.775,0,0,1-2.556,5.1,8.278,8.278,0,0,1-5.531,1.287,18.112,18.112,0,0,1-5.541-1.626,19.972,19.972,0,0,1-8.417,1.256,7.745,7.745,0,0,1-4.972-1.982c-1.257-1.321-1.55-3.673-.207-4.905a2.79,2.79,0,0,1-2.859.029,2.43,2.43,0,0,1,.423-4.463,2.121,2.121,0,0,1-.97-1.919A1.983,1.983,0,0,1,144.8,274.4a1.728,1.728,0,0,0,.469,1.776,1.613,1.613,0,0,0,1.768.082,2.164,2.164,0,0,0,.907-1.527,7.376,7.376,0,0,0-.034-1.828,13.538,13.538,0,0,1,.605-6.243,6.33,6.33,0,0,1,4.517-4.039,10.406,10.406,0,0,1,12.14-6.944,6.9,6.9,0,0,1,4.974,3.691,11.325,11.325,0,0,1,2.751-.233,3.641,3.641,0,0,1,2.476.917,2.222,2.222,0,0,1,.543,2.472c-.275.567-.863,1.076-.722,1.69.12.528.722.786,1.011,1.243a1.605,1.605,0,0,1,.031,1.469,4.987,4.987,0,0,1-.882,1.241c-.307.354-.631.817-.459,1.253C175.081,269.877,175.982,270.031,176.223,269.6Z" transform="translate(-142.445 -255.436)" fill="#263238"/>
            <path id="Trazado_107986" data-name="Trazado 107986" d="M171.353,297.173a3.833,3.833,0,0,1-2.474.659,13.872,13.872,0,0,1-11.049-5.481l2.455-.213v-7.9l8.534,3.294V292.1H171a6.292,6.292,0,0,1,1.047,1.853A3,3,0,0,1,171.353,297.173Z" transform="translate(-145.68 -261.6)" fill="#f28f8f"/>
            <path id="Trazado_107987" data-name="Trazado 107987" d="M161.715,284.534c2.557,4.962,4.148,5.069,7.936,5.512V287.6Z" transform="translate(-146.511 -261.663)" fill="#d96e6e"/>
            <path id="Trazado_107988" data-name="Trazado 107988" d="M175.84,269.32a30.927,30.927,0,0,1,.135,11.348,6.039,6.039,0,0,1-1.775,3.811c-1.379,1.107-3.349.942-5.1.719a20.365,20.365,0,0,1-5.618-1.262,6.863,6.863,0,0,1-3.943-3.982,2.476,2.476,0,0,1-2.994-.484,4.4,4.4,0,0,1-1.1-3.009,2.889,2.889,0,0,1,1.085-2.626,2.26,2.26,0,0,1,1.958-.083,4.829,4.829,0,0,1,1.633,1.18,3.363,3.363,0,0,0,.779.667.96.96,0,0,0,.978.006,1.424,1.424,0,0,0,.417-1.151,10.7,10.7,0,0,1,1.141-5,4.109,4.109,0,0,1,4.329-2.117,10.144,10.144,0,0,0,2.243.733,3.59,3.59,0,0,0,1.78-.584l.031-.017A2.6,2.6,0,0,1,175.84,269.32Z" transform="translate(-145.168 -257.921)" fill="#f28f8f"/>
            <g id="Grupo_73095" data-name="Grupo 73095" transform="translate(20.472 12.546)">
              <path id="Trazado_107989" data-name="Trazado 107989" d="M174.434,275.855l2.27,3.821-2.706.508Z" transform="translate(-169.612 -272.352)" fill="#f28f8f"/>
              <path id="Trazado_107990" data-name="Trazado 107990" d="M174.434,275.855l2.27,3.821-2.706.508Z" transform="translate(-169.612 -272.352)" fill="#d96e6e"/>
              <path id="Trazado_107991" data-name="Trazado 107991" d="M170.663,283.038l2.056,1a1.346,1.346,0,0,1-1.559.443A1.212,1.212,0,0,1,170.663,283.038Z" transform="translate(-168.886 -273.889)" fill="#f28f8f"/>
              <path id="Trazado_107992" data-name="Trazado 107992" d="M170.663,283.038l2.056,1a1.346,1.346,0,0,1-1.559.443A1.212,1.212,0,0,1,170.663,283.038Z" transform="translate(-168.886 -273.889)" fill="#d96e6e"/>
              <path id="Trazado_107993" data-name="Trazado 107993" d="M171.875,284.647a1.236,1.236,0,0,1-.714-.067,1.1,1.1,0,0,1-.55-1.084,1.246,1.246,0,0,1,1.265,1.151Z" transform="translate(-168.887 -273.987)" fill="#f28f8f"/>
              <path id="Trazado_107994" data-name="Trazado 107994" d="M171.875,284.647a1.236,1.236,0,0,1-.714-.067,1.1,1.1,0,0,1-.55-1.084,1.246,1.246,0,0,1,1.265,1.151Z" transform="translate(-168.887 -273.987)" fill="#c75555"/>
              <path id="Trazado_107995" data-name="Trazado 107995" d="M169.565,275.858a.777.777,0,1,0,.851-.695A.777.777,0,0,0,169.565,275.858Z" transform="translate(-168.662 -272.203)" fill="#263238"/>
              <path id="Trazado_107996" data-name="Trazado 107996" d="M177.858,276.372a.777.777,0,1,0,.852-.7A.777.777,0,0,0,177.858,276.372Z" transform="translate(-170.437 -272.313)" fill="#263238"/>
              <path id="Trazado_107997" data-name="Trazado 107997" d="M179.212,272.7l1.595,1.358a1.107,1.107,0,0,0-.213-1.247A1.31,1.31,0,0,0,179.212,272.7Z" transform="translate(-170.727 -271.647)" fill="#263238"/>
              <path id="Trazado_107998" data-name="Trazado 107998" d="M170.289,271.694l-1.834,1.013a1.108,1.108,0,0,1,.457-1.18A1.314,1.314,0,0,1,170.289,271.694Z" transform="translate(-168.417 -271.398)" fill="#263238"/>
            </g>
            <path id="Trazado_107999" data-name="Trazado 107999" d="M177.291,294.234l.68,8.519,5.783-3.33C182.535,296.329,180.639,294.234,177.291,294.234Z" transform="translate(-149.844 -263.739)" fill="#f28f8f"/>
            <path id="Trazado_108000" data-name="Trazado 108000" d="M171.141,294.234h-2.124a6.291,6.291,0,0,1,1.047,1.853,3,3,0,0,1-.7,3.225,3.833,3.833,0,0,1-2.474.659,13.872,13.872,0,0,1-11.049-5.481l-7.291.631s.163,15.371.122,17.592a15.226,15.226,0,0,0,.243,3.229l27-15.55A22.385,22.385,0,0,0,171.141,294.234Z" transform="translate(-143.695 -263.739)" fill="#1565c0"/>
            <path id="Trazado_108001" data-name="Trazado 108001" d="M171.141,294.234h-2.124a6.291,6.291,0,0,1,1.047,1.853,3,3,0,0,1-.7,3.225,3.833,3.833,0,0,1-2.474.659,13.872,13.872,0,0,1-11.049-5.481l-7.291.631s.163,15.371.122,17.592a15.226,15.226,0,0,0,.243,3.229l27-15.55A22.385,22.385,0,0,0,171.141,294.234Z" transform="translate(-143.695 -263.739)" fill="#fff" opacity="0.6"/>
            <path id="Trazado_108002" data-name="Trazado 108002" d="M147.231,295.362c-7,2.37-5.361,8.323-1.8,14.7.89,1.592,1.96,3.554,3.066,5.6l7.531-4.337C153.328,304.7,149.618,296.572,147.231,295.362Z" transform="translate(-142.372 -263.98)" fill="#f28f8f"/>
          </g>
          <g id="Grupo_73100" data-name="Grupo 73100" transform="translate(111.78 58.926)">
            <path id="Trazado_108003" data-name="Trazado 108003" d="M274.888,175.033a33.212,33.212,0,0,1,2.3,4.718l2.793-1.609-2.551-4.976a4.715,4.715,0,0,0-5.186-2.46l-.883.189A16.068,16.068,0,0,1,274.888,175.033Z" transform="translate(-247.325 -146.116)" fill="#455a64"/>
            <path id="Trazado_108004" data-name="Trazado 108004" d="M249.292,185.967a3.732,3.732,0,0,0-2.1-2.132,3.637,3.637,0,0,0-3.084.529,6.059,6.059,0,0,0-.95.791,11.788,11.788,0,0,0-1.76,6.2v8.116l9.217-5.308q-.33-2.6-.659-5.2A11.059,11.059,0,0,0,249.292,185.967Z" transform="translate(-240.914 -148.916)" fill="#455a64"/>
            <path id="Trazado_108005" data-name="Trazado 108005" d="M268.956,175.113a16.068,16.068,0,0,0-3.526-4.138l-6.13,1.315-6.264,2.606-5.893,3.917a11.781,11.781,0,0,0-3.5,3.622,6.059,6.059,0,0,1,.95-.791,3.637,3.637,0,0,1,3.084-.529,3.732,3.732,0,0,1,2.1,2.132,11.059,11.059,0,0,1,.667,3q.329,2.6.659,5.2l20.159-11.609A33.2,33.2,0,0,0,268.956,175.113Z" transform="translate(-241.393 -146.197)" fill="#455a64"/>
            <path id="Trazado_108006" data-name="Trazado 108006" d="M274.888,175.033a33.212,33.212,0,0,1,2.3,4.718l2.793-1.609-2.551-4.976a4.715,4.715,0,0,0-5.186-2.46l-.883.189A16.068,16.068,0,0,1,274.888,175.033Z" transform="translate(-247.325 -146.116)" fill="#fff" opacity="0.3"/>
            <path id="Trazado_108007" data-name="Trazado 108007" d="M249.292,185.967a3.732,3.732,0,0,0-2.1-2.132,3.637,3.637,0,0,0-3.084.529,6.059,6.059,0,0,0-.95.791,11.788,11.788,0,0,0-1.76,6.2v8.116l9.217-5.308q-.33-2.6-.659-5.2A11.059,11.059,0,0,0,249.292,185.967Z" transform="translate(-240.914 -148.916)" fill="#fff" opacity="0.3"/>
            <path id="Trazado_108008" data-name="Trazado 108008" d="M268.956,175.113a16.068,16.068,0,0,0-3.526-4.138l-6.13,1.315-6.264,2.606-5.893,3.917a11.781,11.781,0,0,0-3.5,3.622,6.059,6.059,0,0,1,.95-.791,3.637,3.637,0,0,1,3.084-.529,3.732,3.732,0,0,1,2.1,2.132,11.059,11.059,0,0,1,.667,3q.329,2.6.659,5.2l20.159-11.609A33.2,33.2,0,0,0,268.956,175.113Z" transform="translate(-241.393 -146.197)" fill="#fff" opacity="0.4"/>
            <g id="Grupo_73099" data-name="Grupo 73099">
              <path id="Trazado_108009" data-name="Trazado 108009" d="M268.045,154.612a7.79,7.79,0,0,0,.939-9.782,2.63,2.63,0,0,0-.472-5.036,7.489,7.489,0,0,0-2.835.4,13.774,13.774,0,0,1-4.876,0c-1.618-.234-3.22-.584-4.85-.7a9.876,9.876,0,0,0-4.8.682,5.373,5.373,0,0,0-3.105,3.566,3.744,3.744,0,0,0-3.558,1.489,6.262,6.262,0,0,0-1.17,3.654c-.053,1.3.128,2.6.194,3.894a8.814,8.814,0,0,1-.49,3.837c-.585,1.4-1.747,2.549-2.119,4.024a4.044,4.044,0,0,0,4.954,4.9,10.749,10.749,0,0,1-.376-3.158c.123,1.43,1.55,2.547,2.9,3.028a11.346,11.346,0,0,0,4.262.373l5.05-.2,5.882-.231a8.018,8.018,0,0,0,3.076-.53,5.253,5.253,0,0,0,2.739-4.52A13.675,13.675,0,0,0,268.045,154.612Z" transform="translate(-240.781 -139.45)" fill="#263238"/>
              <g id="Grupo_73097" data-name="Grupo 73097" transform="translate(11.643 19.762)">
                <path id="Trazado_108010" data-name="Trazado 108010" d="M264.011,168.19v5.37s4.39,2.806,2.541,4.291c-3.486,2.8-10.958-4.321-10.958-4.321v-8.937Z" transform="translate(-255.594 -164.593)" fill="#ffa8a7"/>
                <path id="Trazado_108011" data-name="Trazado 108011" d="M255.594,164.593c1.291,3.847,6,6.764,8.417,7.347v-3.75Z" transform="translate(-255.594 -164.593)" fill="#f28f8f"/>
              </g>
              <path id="Trazado_108012" data-name="Trazado 108012" d="M254.922,154.106a8.093,8.093,0,0,1,.094,2.023,2.382,2.382,0,0,1-.67,1.351,1.505,1.505,0,0,1-1.362.4,2.638,2.638,0,0,0-5.12-1.252,3.309,3.309,0,0,0,.552,2.746,6.211,6.211,0,0,0,2.2,1.837,2.234,2.234,0,0,0,2.661-1.044c2.566,3.252,7.04,5.693,11.231,5.342a6,6,0,0,0,3.188-1.124c1.585-1.228,1.7-3.079,1.9-4.906a25.974,25.974,0,0,0-.053-6.971,13.708,13.708,0,0,0-4.406-8.389C263.706,151.048,257.353,153.6,254.922,154.106Z" transform="translate(-242.274 -140.45)" fill="#ffa8a7"/>
              <g id="Grupo_73098" data-name="Grupo 73098" transform="translate(16.11 9.588)">
                <path id="Trazado_108013" data-name="Trazado 108013" d="M267.977,155.823l2.87,3.538-2.669.918Z" transform="translate(-262.711 -152.542)" fill="#f28f8f"/>
                <path id="Trazado_108014" data-name="Trazado 108014" d="M265.113,163.683l2.234.709a1.379,1.379,0,0,1-1.515.681A1.243,1.243,0,0,1,265.113,163.683Z" transform="translate(-262.095 -154.224)" fill="#f28f8f"/>
                <path id="Trazado_108015" data-name="Trazado 108015" d="M265.113,163.683l2.234.709a1.379,1.379,0,0,1-1.515.681A1.243,1.243,0,0,1,265.113,163.683Z" transform="translate(-262.095 -154.224)" opacity="0.3"/>
                <path id="Trazado_108016" data-name="Trazado 108016" d="M266.568,165.133a1.273,1.273,0,0,1-.734.038,1.123,1.123,0,0,1-.719-1.018,1.278,1.278,0,0,1,1.453.98Z" transform="translate(-262.099 -154.322)" fill="#f28f8f"/>
                <path id="Trazado_108017" data-name="Trazado 108017" d="M262.949,156.533a.8.8,0,1,0,.76-.832A.8.8,0,0,0,262.949,156.533Z" transform="translate(-261.635 -152.516)" fill="#263238"/>
                <path id="Trazado_108018" data-name="Trazado 108018" d="M271.436,155.821a.8.8,0,1,0,.76-.832A.8.8,0,0,0,271.436,155.821Z" transform="translate(-263.451 -152.364)" fill="#263238"/>
                <path id="Trazado_108019" data-name="Trazado 108019" d="M272.24,151.9l1.82,1.14a1.136,1.136,0,0,0-.4-1.233A1.346,1.346,0,0,0,272.24,151.9Z" transform="translate(-263.623 -151.649)" fill="#263238"/>
                <path id="Trazado_108020" data-name="Trazado 108020" d="M263.074,152.193l-1.71,1.3a1.137,1.137,0,0,1,.288-1.265A1.346,1.346,0,0,1,263.074,152.193Z" transform="translate(-261.277 -151.726)" fill="#263238"/>
              </g>
            </g>
          </g>
        </g>
      </g>
      <g id="Grupo_73104" data-name="Grupo 73104" transform="translate(248.421 102.891)">
        <g id="Grupo_73103" data-name="Grupo 73103">
          <path id="Trazado_108021" data-name="Trazado 108021" d="M341.631,159.781l0,0Z" transform="translate(-337.247 -143.064)" fill="none"/>
          <path id="Trazado_108022" data-name="Trazado 108022" d="M335.744,151.765a3.13,3.13,0,0,1,1.172-1.189l25.642-14.542c1.413-.81,4.756.289,4.756,2.559v18.441a3.147,3.147,0,0,1-1.586,2.733l-11.943,6.825,1.651-.943-1.032,2.925a.173.173,0,0,1-.214.106l0,.012c-.182-.094-.993-.529-1.454-.835l-.008,0-.031-.02,0-.006a.159.159,0,0,1-.041-.037l-.253-.411-12.318,6.892a3.109,3.109,0,0,1-4.754-2.56v-18.4A3.135,3.135,0,0,1,335.744,151.765Z" transform="translate(-335.335 -135.769)" fill="#1565c0"/>
          <path id="Trazado_108023" data-name="Trazado 108023" d="M360.111,181.365a.159.159,0,0,0,.041.037l0,.006.031.02.008,0c.461.306,1.272.741,1.454.835l0-.012a.166.166,0,0,1-.1-.072l-1-1.619.2-.113h0l-.879.5Z" transform="translate(-342.785 -149.344)" fill="#fff" opacity="0.2"/>
          <path id="Trazado_108024" data-name="Trazado 108024" d="M339.052,153.544a3.2,3.2,0,0,1,.843-1.055l0,0a2.907,2.907,0,0,1,.382-.261l25.642-14.541a1.049,1.049,0,0,1,1.571.91c0-2.27-3.343-3.369-4.756-2.559l-25.642,14.541a3.13,3.13,0,0,0-1.172,1.189Z" transform="translate(-335.513 -135.769)" fill="#fff" opacity="0.4"/>
          <path id="Trazado_108025" data-name="Trazado 108025" d="M338.519,180.341V161.935a2.745,2.745,0,0,1,.025-.372,3.257,3.257,0,0,1,.329-1.039l-3.13-1.778a3.135,3.135,0,0,0-.409,1.541v18.4a3.109,3.109,0,0,0,4.754,2.56A1.049,1.049,0,0,1,338.519,180.341Z" transform="translate(-335.335 -142.749)" fill="#fff" opacity="0.2"/>
        </g>
      </g>
      <g id="Grupo_879732" data-name="Grupo 879732" transform="translate(238.785 181.989)">
        <path id="Trazado_108362" data-name="Trazado 108362" d="M329.1,360.276c0,.973-1.3,1.946-2.987,2.922l-18.98,10.958-.005-2.02a.975.975,0,0,0-.176-.537l14.22-8.211a.821.821,0,0,0,.48-.685q0-2.17-.012-4.34a.823.823,0,0,0-.479-.681l-46.966-27.294a2.632,2.632,0,0,0-2.358,0l-43.116,24.893a.832.832,0,0,0-.486.689l.01,3.259-1.16-.674a3.313,3.313,0,0,1-1.934-2.72q.005,2.17.012,4.339a3.317,3.317,0,0,0,1.936,2.722l48.65,28.273a10.451,10.451,0,0,0,9.449,0l40.926-23.629c1.692-.976,2.99-1.949,2.986-2.923Q329.1,362.446,329.1,360.276Z" transform="translate(-225.148 -328.321)" fill="#aebfcf"/>
        <g id="Grupo_73350" data-name="Grupo 73350">
          <path id="Trazado_108363" data-name="Trazado 108363" d="M321.636,357.683,274.67,330.389a2.632,2.632,0,0,0-2.358,0L229.2,355.279a.727.727,0,0,0-.008,1.368l46.967,27.294a2.65,2.65,0,0,0,2.363,0l43.116-24.893A.725.725,0,0,0,321.636,357.683Z" transform="translate(-225.626 -328.321)" fill="#b2ebf2"/>
          <g id="Grupo_73346" data-name="Grupo 73346" transform="translate(37.564 24.996)">
            <path id="Trazado_108364" data-name="Trazado 108364" d="M268.535,357.624l18.887-.709-1.285,10.938Z" transform="translate(-268.535 -356.915)" fill="#12263f"/>
          </g>
          <g id="Grupo_73347" data-name="Grupo 73347" transform="translate(29.145 16.886)">
            <path id="Trazado_108365" data-name="Trazado 108365" d="M264.9,351.045c8.079-4.664,21.177-4.664,29.207,0s7.981,12.25-.1,16.913-21.18,4.666-29.2,0S256.819,355.706,264.9,351.045Zm27.543,16c7.208-4.16,7.246-10.928.085-15.09s-18.846-4.162-26.053,0-7.246,10.93-.086,15.092,18.847,4.161,26.054,0Z" transform="translate(-258.81 -347.547)" fill="#12263f"/>
          </g>
          <g id="Grupo_73348" data-name="Grupo 73348" transform="translate(72.933 42.306)">
            <path id="Trazado_108366" data-name="Trazado 108366" d="M313.955,377.355a4.088,4.088,0,0,1,3.713,0c1.023.594,1.012,1.556-.017,2.151l-3.793,2.19a4.069,4.069,0,0,1-3.707,0,1.134,1.134,0,0,1,.011-2.148Z" transform="translate(-309.385 -376.908)" fill="#114269"/>
          </g>
          <g id="Grupo_73349" data-name="Grupo 73349">
            <path id="Trazado_108367" data-name="Trazado 108367" d="M268.033,329.172a10.458,10.458,0,0,1,9.454,0L327.8,358.412c2.592,1.506.918,3-1.69,4.509L285.182,386.55a10.448,10.448,0,0,1-9.449,0l-48.651-28.273c-2.59-1.506-2.577-3.973.026-5.476Zm53.124,28.234-46.966-27.294a2.633,2.633,0,0,0-2.358,0L228.718,355a.727.727,0,0,0-.008,1.368l46.967,27.294a2.648,2.648,0,0,0,2.362,0l43.117-24.893a.725.725,0,0,0,0-1.365Zm-14.813,15.539c1.029-.595,1.041-1.557.017-2.151a4.088,4.088,0,0,0-3.712,0l-3.794,2.19a1.134,1.134,0,0,0-.011,2.148,4.069,4.069,0,0,0,3.707,0l3.793-2.19Z" transform="translate(-225.148 -328.044)" fill="#f8f9fc"/>
          </g>
        </g>
      </g>
      <path id="Trazado_107857" data-name="Trazado 107857" d="M349.6,394.353c-11.842-6.837-30.981-6.837-42.747,0s-11.7,17.923.139,24.761,30.982,6.837,42.749,0S361.448,401.191,349.6,394.353Z" transform="translate(-73.273 -129.635)" fill="#e0e0e0" opacity="0.52"/>
      <g id="Grupo_73111" data-name="Grupo 73111" transform="translate(232.076 141.859)">
        <path id="Trazado_108026" data-name="Trazado 108026" d="M370.349,268.049l4.338,8.379-3.94,6.6,4.356,6.891,6.579-10.213a5.738,5.738,0,0,0,.672-4.717,80.418,80.418,0,0,0-4.274-11.634Z" transform="translate(-329.41 -228.824)" fill="#ffa8a7"/>
        <path id="Trazado_108027" data-name="Trazado 108027" d="M373.861,267.306l-3.512,2.133,3.3,6.365q.1-3.744.2-7.487Q373.854,267.812,373.861,267.306Z" transform="translate(-329.41 -230.213)" opacity="0.2"/>
        <path id="Trazado_108028" data-name="Trazado 108028" d="M365.034,245.513c4.991-.929,7.844.735,12.064,12.027-1.723,3.863-9.033,5.289-9.033,5.289Z" transform="translate(-327.541 -222.474)" fill="#1565c0"/>
        <path id="Trazado_108029" data-name="Trazado 108029" d="M371.6,255.562c-1-3.071-3.533-5.313-6.11-7.319l2.734,15.623a23,23,0,0,0,3.879-1.2q.014-.525.027-1.052A17.954,17.954,0,0,0,371.6,255.562Z" transform="translate(-327.702 -223.511)" opacity="0.2"/>
        <g id="Grupo_73106" data-name="Grupo 73106" transform="translate(6.868 131.735)">
          <path id="Trazado_108030" data-name="Trazado 108030" d="M340.736,427.1a4.344,4.344,0,0,1-3.119,1.88,14.317,14.317,0,0,1-4.28-.272,28.358,28.358,0,0,0-6.387-.163,33.491,33.491,0,0,1-3.974.284,6.3,6.3,0,0,1-3.735-1.183,3.806,3.806,0,0,1-1.4-2.384,3.6,3.6,0,0,0,1.4,3.215,6.3,6.3,0,0,0,3.735,1.183,33.357,33.357,0,0,0,3.974-.284,28.363,28.363,0,0,1,6.387.163,15.071,15.071,0,0,0,4.381.373,4.346,4.346,0,0,0,3.119-1.881Z" transform="translate(-317.806 -417.485)" fill="#263238"/>
          <g id="Grupo_73105" data-name="Grupo 73105" transform="translate(0 1.835)">
            <path id="Trazado_108031" data-name="Trazado 108031" d="M329.006,422.6c1.192,0,.754-1.764,1.888-2.945-.462.027-.925.034-1.388.033C328.487,421.159,328.2,422.6,329.006,422.6Z" transform="translate(-321.578 -417.35)" fill="#fff"/>
            <path id="Trazado_108032" data-name="Trazado 108032" d="M332.824,422.253c1.2,0,.884-2.1,2.062-3.328a7.905,7.905,0,0,1-.816.235c-.235.053-.471.093-.709.128C332.311,420.774,332.009,422.253,332.824,422.253Z" transform="translate(-322.921 -417.092)" fill="#fff"/>
            <path id="Trazado_108033" data-name="Trazado 108033" d="M341.577,417.229a1.62,1.62,0,0,0-.62-.971l-6.441-.161a5.529,5.529,0,0,1-2.673,1.833c-1.178,1.226-.863,3.328-2.062,3.328-.814,0-.512-1.479.538-2.965-.373.055-.748.091-1.125.112-1.134,1.181-.7,2.945-1.888,2.945-.8,0-.519-1.444.5-2.912-.3,0-.6,0-.9-.009-.273,0-.548-.023-.823-.045-2.368,1.873-2.57,3.9-2.264,7.093a8.536,8.536,0,0,0,1.234.129,33.479,33.479,0,0,0,3.974-.284,28.362,28.362,0,0,1,6.387.163,14.313,14.313,0,0,0,4.279.272,4.345,4.345,0,0,0,3.119-1.88Z" transform="translate(-319.878 -416.098)" fill="#455a64"/>
            <path id="Trazado_108034" data-name="Trazado 108034" d="M324,419.552a10.138,10.138,0,0,0-3.22,0,3.834,3.834,0,0,0-2.9,2.522,2.855,2.855,0,0,0-.051,1.133,3.805,3.805,0,0,0,1.4,2.384,5.558,5.558,0,0,0,2.5,1.054C321.435,423.457,321.637,421.425,324,419.552Z" transform="translate(-317.803 -417.265)" fill="#fff"/>
          </g>
          <path id="Trazado_108035" data-name="Trazado 108035" d="M340.1,413.268v3.1a1.275,1.275,0,0,0,1.275,1.275h3.247a2.092,2.092,0,0,0,2.091-2.024l.077-2.354Z" transform="translate(-325.641 -413.268)" fill="#ffa8a7"/>
        </g>
        <g id="Grupo_73108" data-name="Grupo 73108" transform="translate(30.436 118.223)">
          <path id="Trazado_108036" data-name="Trazado 108036" d="M366.5,406.379a2.387,2.387,0,0,1-1.954,1.368,4.11,4.11,0,0,1-2.472-.608c-1.117-.709-1.553-1.826-2.315-2.832a16.968,16.968,0,0,0-2.693-2.63,8.891,8.891,0,0,1-2.574-2.984,3.974,3.974,0,0,1-.305-1.094,3.891,3.891,0,0,0,.305,2.1,8.9,8.9,0,0,0,2.574,2.984,16.941,16.941,0,0,1,2.693,2.63c.762,1.006,1.2,2.122,2.315,2.832a4.11,4.11,0,0,0,2.472.608,2.386,2.386,0,0,0,1.954-1.367,5.361,5.361,0,0,0,.117-1.73A2.15,2.15,0,0,1,366.5,406.379Z" transform="translate(-354.151 -394.247)" fill="#263238"/>
          <g id="Grupo_73107" data-name="Grupo 73107">
            <path id="Trazado_108037" data-name="Trazado 108037" d="M361.82,399.543a.8.8,0,0,0-.157.53.55.55,0,0,0,.351.4.774.774,0,0,0,.724-.187,3.775,3.775,0,0,0,.5-.6,3.743,3.743,0,0,1,2.647-1.428l-.805-.735a3.97,3.97,0,0,0-3.263,2.017Z" transform="translate(-356.789 -394.222)" fill="#fff"/>
            <path id="Trazado_108038" data-name="Trazado 108038" d="M361.111,396.489a4.069,4.069,0,0,0-1.8,1.656.808.808,0,0,0-.157.53.55.55,0,0,0,.352.4.772.772,0,0,0,.724-.187,3.771,3.771,0,0,0,.5-.6,3.74,3.74,0,0,1,3.285-1.424l-.8-.726A4.063,4.063,0,0,0,361.111,396.489Z" transform="translate(-355.908 -393.727)" fill="#fff"/>
            <path id="Trazado_108039" data-name="Trazado 108039" d="M360.959,394.385a8.4,8.4,0,0,0-2.528-1.689,3.358,3.358,0,0,0-3.475.48,3.008,3.008,0,0,0-.77,2.606,3.976,3.976,0,0,0,.305,1.094,5.685,5.685,0,0,0,.8,1.266C355.6,395.368,358.007,394.069,360.959,394.385Z" transform="translate(-354.15 -392.429)" fill="#fff"/>
            <path id="Trazado_108040" data-name="Trazado 108040" d="M367.181,402.877a5.794,5.794,0,0,0-.63-2.712l-1.566-1.642-1.117-1.018a3.744,3.744,0,0,0-2.647,1.428,3.781,3.781,0,0,1-.5.6.774.774,0,0,1-.724.187.55.55,0,0,1-.351-.4.8.8,0,0,1,.157-.53,3.97,3.97,0,0,1,3.263-2.017l-.182-.165a3.739,3.739,0,0,0-3.285,1.424,3.779,3.779,0,0,1-.5.6.772.772,0,0,1-.724.187.551.551,0,0,1-.352-.4.808.808,0,0,1,.157-.53,4,4,0,0,1,3.91-2l-.03-.027q-.237-.217-.479-.431c-2.952-.316-5.36.982-5.67,3.756a13.324,13.324,0,0,0,1.775,1.718,16.966,16.966,0,0,1,2.693,2.63c.762,1.006,1.2,2.122,2.315,2.832a4.11,4.11,0,0,0,2.472.608,2.387,2.387,0,0,0,1.954-1.368,2.144,2.144,0,0,0,.117-.724A19.371,19.371,0,0,0,367.181,402.877Z" transform="translate(-354.768 -393.465)" fill="#455a64"/>
          </g>
          <path id="Trazado_108041" data-name="Trazado 108041" d="M364.579,399.381l.184,3.33a4.436,4.436,0,0,0,5.048-.215l.138-3.114Z" transform="translate(-357.817 -394.873)" fill="#ffa8a7"/>
        </g>
        <path id="Trazado_108042" data-name="Trazado 108042" d="M359.214,286.208a3.007,3.007,0,0,1-.318-1.146l-.179-2.858-20.364,1.308c-.269,1.428-.542,3.178-.808,5.159A30.29,30.29,0,0,0,359.214,286.208Z" transform="translate(-317.876 -235.451)" fill="#ffa8a7"/>
        <path id="Trazado_108043" data-name="Trazado 108043" d="M344.727,246.962l-5.449,1.071c-1.2,2.2-2.432,4.274-3.636,6.478-.907,1.66-1.841,3.425-1.772,5.316a5.432,5.432,0,0,0,2.148,4.052,2.406,2.406,0,0,1,.992,2.109l-.506,5.974c8.558,2.615,19.017.317,21.315-1.664.676-3.119,1.273-6.434,1.95-9.553.72-3.322,1.445-6.686.408-10.162a7.185,7.185,0,0,0-.819-1.77h0a6.808,6.808,0,0,0-6.827-3.092Z" transform="translate(-316.583 -222.594)" fill="#1565c0"/>
        <path id="Trazado_108044" data-name="Trazado 108044" d="M335.785,258.926c-.047.086-.1.171-.143.257-.907,1.66-1.841,3.425-1.772,5.316a5.432,5.432,0,0,0,2.148,4.053,2.406,2.406,0,0,1,.992,2.109l-.169,1.994a71.745,71.745,0,0,0,4.984-11.84Z" transform="translate(-316.583 -227.267)" opacity="0.2"/>
        <path id="Trazado_108045" data-name="Trazado 108045" d="M358.287,288.9a3.269,3.269,0,0,1-.316-.521,30.29,30.29,0,0,1-21.669,2.463c-1.536,11.424-2.855,30.769-2.044,43.531.673,14.856,3.407,35.894,3.407,35.894,3.566,1.069,6.24.416,7.25-.357,1.189-14.738,3.8-24.84,1.782-34.587,1.347-6.814,2.219-15.372,2.219-15.372l1.03,15.055,3.486,26.465a6.251,6.251,0,0,0,6.26-.316c2.536-15.134,3.486-25.389,1.268-32.9C364.346,303.421,364.519,297.067,358.287,288.9Z" transform="translate(-316.634 -237.623)" fill="#455a64"/>
        <path id="Trazado_108046" data-name="Trazado 108046" d="M358.5,325.645l1.868-7.841a10.988,10.988,0,0,0,7.376-4.772,15,15,0,0,1-9.041,3.188l-1.7,12.4.362,5.3.146-1.928A40.6,40.6,0,0,1,358.5,325.645Z" transform="translate(-324.716 -246.29)" opacity="0.3"/>
        <g id="Grupo_73109" data-name="Grupo 73109" transform="translate(19.296 0.001)">
          <path id="Trazado_108047" data-name="Trazado 108047" d="M339.781,219.82a9.458,9.458,0,0,1-1.068-5.019,5.415,5.415,0,0,1,2.631-4.243,3.832,3.832,0,0,1,4.71.825,8.753,8.753,0,0,1,12.929,8.38c-.119,1.8-.779,3.579-.576,5.374a8.537,8.537,0,0,1,.259,3.151,3.267,3.267,0,0,1-1.714,1.94c-.787.41-2.629.3-3.5.484-2.655,2.414-5.993,1.51-8.114-.646S339.781,219.82,339.781,219.82Z" transform="translate(-337.57 -210.101)" fill="#37474f"/>
          <path id="Trazado_108048" data-name="Trazado 108048" d="M338.629,228.789l-1.659,2.884,1.817.672Z" transform="translate(-336.97 -216.671)" fill="#ff9192"/>
          <path id="Trazado_108049" data-name="Trazado 108049" d="M339.173,223.485c.267-2.53,1.007-4.915,2.654-6.125a13.664,13.664,0,0,0,1.9,9.052,3.965,3.965,0,0,1,1.226-2.169,2.285,2.285,0,0,1,2.357-.5,2.324,2.324,0,0,1,1.185,1.291,3.072,3.072,0,0,1-3.84,4.058,5.9,5.9,0,0,0,4.536,4.595,7.606,7.606,0,0,0,4.4-.418l.686,3.409c-2.776,2.961-7.518.971-7.518.971l-.625-3.354c-5.459.324-5.968.231-6.569-2.776A29.416,29.416,0,0,1,339.173,223.485Z" transform="translate(-337.701 -212.653)" fill="#ffa8a7"/>
          <path id="Trazado_108050" data-name="Trazado 108050" d="M357.506,218.328a9.584,9.584,0,0,1,4.345-5.19,9.166,9.166,0,0,1,3.508,7.694c-.119,1.8-.779,3.579-.576,5.374a8.536,8.536,0,0,1,.259,3.151,3.267,3.267,0,0,1-1.714,1.94c-.787.41-2.629.3-3.5.484-.115.1-.232.194-.349.286a26.561,26.561,0,0,1-2.161-5.543A14.21,14.21,0,0,1,357.506,218.328Z" transform="translate(-343.946 -211.169)" opacity="0.3"/>
          <path id="Trazado_108051" data-name="Trazado 108051" d="M359.758,215.542a6.957,6.957,0,0,1,13.263-.164c1.646,4.985-2.572,10.284-1.65,15.452.332,1.861,1.317,3.557,1.654,5.417a8.025,8.025,0,0,1-6.926,9.4,4.742,4.742,0,0,0,.532-4.954,22.444,22.444,0,0,0-2.919-4.4C359.523,230.549,357.7,222.349,359.758,215.542Z" transform="translate(-344.683 -210.277)" fill="#37474f"/>
        </g>
        <g id="Grupo_73110" data-name="Grupo 73110" transform="translate(0 14.977)">
          <path id="Trazado_108052" data-name="Trazado 108052" d="M329.906,243.659c-5.823,1.178-11.719,16.072-11.719,16.072l-5.559-15.568,1.193-5.827a1.861,1.861,0,0,0-.075-1.008l-1.321-3.625a.769.769,0,0,0-.892-.486h0a.769.769,0,0,0-.567.969l.988,3.323-1.573-2.985a1.029,1.029,0,0,0-1.411-.42l-1.229.683a1.03,1.03,0,0,0-.41,1.382l1.38,2.6c-1.558,4.464-.169,5.77-.169,5.77l2.638,16.541a7.576,7.576,0,0,0,6.231,6.279h0a7.585,7.585,0,0,0,7.623-3.375C333.609,250.676,338.37,242.128,329.906,243.659Z" transform="translate(-307.211 -233.198)" fill="#ffa8a7"/>
          <path id="Trazado_108053" data-name="Trazado 108053" d="M322.5,276.223a16.677,16.677,0,0,1,.884-3.132l-.676-1.9A5.467,5.467,0,0,0,322.5,276.223Z" transform="translate(-312.404 -246.558)" opacity="0.2"/>
          <path id="Trazado_108054" data-name="Trazado 108054" d="M337.107,249.2c-2.58.715-5.412,2.066-9.417,9.933.449,5.672,8.816,4.244,8.816,4.244,2.211-4.211,4.592-8.6,5.06-10.671C342.348,249.257,340.781,248.46,337.107,249.2Z" transform="translate(-314.411 -238.735)" fill="#1565c0"/>
        </g>
      </g>
      <g id="Grupo_879733" data-name="Grupo 879733" transform="translate(-273.268 -5.957)">
        <path id="Trazado_105722" data-name="Trazado 105722" d="M474.448,298.671l-40.8,23.557-71.57-41.321,40.8-23.557Z" transform="translate(0)" fill="#fff"/>
        <path id="Trazado_105723" data-name="Trazado 105723" d="M362.076,280.645v1.172l71.57,41.321v-1.172Z" transform="translate(0 0.263)" fill="#efe8eb"/>
        <path id="Trazado_105724" data-name="Trazado 105724" d="M473.65,298.211v1.172l-40.8,23.557v-1.172Z" transform="translate(0.798 0.461)" fill="#e0d1db"/>
        <path id="Trazado_105725" data-name="Trazado 105725" d="M408.829,264.256l-34.036,19.651-5.855-3.381,33.9-19.571Z" transform="translate(0.077 0.041)" fill="#1565c0"/>
        <g id="Grupo_71633" data-name="Grupo 71633" transform="translate(378.895 266.623)">
          <path id="Trazado_105726" data-name="Trazado 105726" d="M413.418,267.115l-1.1-.6-6.007,3.468,1.068.617Z" transform="translate(-378.396 -266.52)" fill="#26aab7"/>
          <path id="Trazado_105727" data-name="Trazado 105727" d="M378.707,286.057l1.1.6,26.9-15.528-1.068-.617Z" transform="translate(-378.707 -266.475)" fill="#26aab7"/>
          <path id="Trazado_105728" data-name="Trazado 105728" d="M415.8,268.507l-1.1-.6-5.995,3.461,1.068.617Z" transform="translate(-378.369 -266.504)" fill="#26aab7"/>
          <path id="Trazado_105729" data-name="Trazado 105729" d="M381.094,287.448l1.1.6,26.907-15.535-1.068-.617Z" transform="translate(-378.68 -266.459)" fill="#26aab7"/>
          <path id="Trazado_105730" data-name="Trazado 105730" d="M383.48,288.786l1.1.6,26.872-15.514-1.068-.617Z" transform="translate(-378.653 -266.444)" fill="#26aab7"/>
          <path id="Trazado_105731" data-name="Trazado 105731" d="M418.191,269.844l-1.1-.6-6.03,3.482,1.068.617Z" transform="translate(-378.342 -266.489)" fill="#26aab7"/>
          <path id="Trazado_105732" data-name="Trazado 105732" d="M385.867,290.171l1.1.6,26.878-15.518-1.068-.617Z" transform="translate(-378.626 -266.428)" fill="#26aab7"/>
          <path id="Trazado_105733" data-name="Trazado 105733" d="M420.578,271.229l-1.1-.6-6.024,3.478,1.068.617Z" transform="translate(-378.315 -266.473)" fill="#26aab7"/>
          <path id="Trazado_105734" data-name="Trazado 105734" d="M422.965,272.567l-1.1-.6-6.06,3.5,1.068.617Z" transform="translate(-378.289 -266.458)" fill="#26aab7"/>
          <path id="Trazado_105735" data-name="Trazado 105735" d="M388.254,291.508l1.1.6,26.842-15.5-1.068-.617Z" transform="translate(-378.599 -266.413)" fill="#26aab7"/>
          <path id="Trazado_105736" data-name="Trazado 105736" d="M425.352,273.958l-1.1-.6-6.048,3.492,1.068.617Z" transform="translate(-378.262 -266.443)" fill="#26aab7"/>
          <path id="Trazado_105737" data-name="Trazado 105737" d="M390.641,292.9l1.1.6,26.854-15.5-1.068-.617Z" transform="translate(-378.573 -266.397)" fill="#26aab7"/>
          <path id="Trazado_105738" data-name="Trazado 105738" d="M393.027,294.236l1.1.6,26.819-15.484-1.068-.617Z" transform="translate(-378.546 -266.382)" fill="#26aab7"/>
          <path id="Trazado_105739" data-name="Trazado 105739" d="M427.739,275.3l-1.1-.6-6.083,3.512,1.068.617Z" transform="translate(-378.236 -266.428)" fill="#26aab7"/>
          <path id="Trazado_105740" data-name="Trazado 105740" d="M395.305,295.649l1.1.6,26.9-15.533-1.068-.617Z" transform="translate(-378.52 -266.367)" fill="#26aab7"/>
          <path id="Trazado_105741" data-name="Trazado 105741" d="M430.016,276.708l-1.1-.6-6,3.463,1.068.617Z" transform="translate(-378.209 -266.412)" fill="#26aab7"/>
          <path id="Trazado_105742" data-name="Trazado 105742" d="M432.4,278.045l-1.1-.6-6.034,3.484,1.068.617Z" transform="translate(-378.182 -266.396)" fill="#26aab7"/>
          <path id="Trazado_105743" data-name="Trazado 105743" d="M397.692,296.986l1.1.6,26.868-15.512-1.068-.617Z" transform="translate(-378.493 -266.351)" fill="#26aab7"/>
          <path id="Trazado_105744" data-name="Trazado 105744" d="M428.064,283.455,427,282.838l-9.831,5.676h0l-17.085,9.864,1.1.6,16.8-9.7h0Z" transform="translate(-378.466 -266.336)" fill="#26aab7"/>
          <path id="Trazado_105745" data-name="Trazado 105745" d="M434.789,279.437l-1.1-.6-6.022,3.477,1.068.617Z" transform="translate(-378.155 -266.381)" fill="#26aab7"/>
          <path id="Trazado_105746" data-name="Trazado 105746" d="M437.176,280.774l-1.1-.6-6.058,3.5,1.068.617Z" transform="translate(-378.129 -266.366)" fill="#26aab7"/>
          <path id="Trazado_105747" data-name="Trazado 105747" d="M402.465,299.715l1.1.6,26.844-15.5-1.068-.617Z" transform="translate(-378.439 -266.32)" fill="#26aab7"/>
          <path id="Trazado_105748" data-name="Trazado 105748" d="M439.4,282.193l-1.1-.6-5.94,3.429,1.068.617Z" transform="translate(-378.102 -266.35)" fill="#26aab7"/>
          <path id="Trazado_105749" data-name="Trazado 105749" d="M404.689,301.135l1.1.6,26.963-15.567-1.068-.617Z" transform="translate(-378.414 -266.305)" fill="#26aab7"/>
          <path id="Trazado_105750" data-name="Trazado 105750" d="M463.158,295.852l-1.1-.6-5.99,3.459,1.068.617Z" transform="translate(-377.835 -266.196)" fill="#26aab7"/>
          <path id="Trazado_105751" data-name="Trazado 105751" d="M428.448,314.793l1.1.6,26.912-15.537-1.068-.617Z" transform="translate(-378.146 -266.151)" fill="#26aab7"/>
          <path id="Trazado_105752" data-name="Trazado 105752" d="M430.834,316.13l1.1.6,26.876-15.517-1.068-.617Z" transform="translate(-378.12 -266.136)" fill="#26aab7"/>
          <path id="Trazado_105753" data-name="Trazado 105753" d="M465.545,297.189l-1.1-.6-6.026,3.479,1.068.617Z" transform="translate(-377.809 -266.181)" fill="#26aab7"/>
        </g>
        <g id="Grupo_71634" data-name="Grupo 71634" transform="translate(417.241 290.667)">
          <path id="Trazado_105754" data-name="Trazado 105754" d="M429.6,310.647l-1.441.832-11.531-6.657,1.441-.832Z" transform="translate(-416.626 -290.141)" fill="#ffaf04"/>
          <path id="Trazado_105755" data-name="Trazado 105755" d="M432.633,308.855l-1.441.832-8.405-4.853,1.441-.832Z" transform="translate(-416.557 -290.141)" fill="#ffaf04"/>
          <path id="Trazado_105756" data-name="Trazado 105756" d="M435.789,307.006l-1.441.832-6.309-3.643,1.441-.832Z" transform="translate(-416.497 -290.148)" fill="#ffaf04"/>
          <path id="Trazado_105757" data-name="Trazado 105757" d="M438.8,305.315l-1.441.832-9.925-5.73,1.441-.832Z" transform="translate(-416.504 -290.191)" fill="#ffaf04"/>
          <path id="Trazado_105758" data-name="Trazado 105758" d="M441.8,303.507l-1.441.832-4.278-2.47,1.441-.832Z" transform="translate(-416.407 -290.174)" fill="#ffaf04"/>
          <path id="Trazado_105759" data-name="Trazado 105759" d="M445.03,301.7l-1.441.832-8.443-4.874,1.441-.832Z" transform="translate(-416.417 -290.222)" fill="#ff9201"/>
          <path id="Trazado_105760" data-name="Trazado 105760" d="M447.97,299.973l-1.441.832-6.309-3.642,1.441-.832Z" transform="translate(-416.36 -290.227)" fill="#ff9201"/>
          <path id="Trazado_105761" data-name="Trazado 105761" d="M451.022,298.308l-1.441.832L435.7,291.127l1.441-.832Z" transform="translate(-416.411 -290.295)" fill="#ff9201"/>
          <path id="Trazado_105762" data-name="Trazado 105762" d="M454.049,296.511l-1.441.832-10.01-5.779,1.441-.832Z" transform="translate(-416.333 -290.29)" fill="#ff9201"/>
          <path id="Trazado_105763" data-name="Trazado 105763" d="M457.164,294.638l-1.441.832L451.445,293l1.441-.832Z" transform="translate(-416.234 -290.274)" fill="#ff9201"/>
          <path id="Trazado_105764" data-name="Trazado 105764" d="M459.474,293.458l-33.82,19.526.433.25,33.82-19.526Z" transform="translate(-416.524 -290.26)" fill="#261822"/>
        </g>
        <path id="Trazado_105765" data-name="Trazado 105765" d="M414.483,299.617l-1.1-.6-5.99,3.459,1.068.617Z" transform="translate(0.511 0.47)" fill="#ffaf04"/>
        <path id="Trazado_105766" data-name="Trazado 105766" d="M416.925,301.047l-1.1-.6-5.99,3.459,1.068.617Z" transform="translate(0.538 0.486)" fill="#ffaf04"/>
      </g>
    </g>
    <g id="Grupo_73259" data-name="Grupo 73259" transform="translate(482.887 7294)">
      <g id="Grupo_73255" data-name="Grupo 73255" transform="translate(0 21.144)">
        <path id="Trazado_108268" data-name="Trazado 108268" d="M203.18,95.869l-3.373-1.959-.119-42.076,3.373,1.959Z" transform="translate(-199.687 -51.834)" fill="#d3830d"/>
      </g>
      <g id="Grupo_73256" data-name="Grupo 73256">
        <path id="Trazado_108269" data-name="Trazado 108269" d="M203.06,50.516l-3.373-1.959,36.618-21.144,3.376,1.961Z" transform="translate(-199.687 -27.413)" fill="#d3830d"/>
      </g>
      <g id="Grupo_73257" data-name="Grupo 73257" transform="translate(3.373 1.961)">
        <path id="Trazado_108270" data-name="Trazado 108270" d="M240.2,29.678l.118,42.079L203.7,92.9l-.12-42.075Z" transform="translate(-203.583 -29.678)" fill="#fbab20"/>
      </g>
      <g id="Grupo_73258" data-name="Grupo 73258" transform="translate(8.708 18.349)">
        <path id="Trazado_108271" data-name="Trazado 108271" d="M232.583,48.728l-10.958,6.326a2.167,2.167,0,0,0-.955,1.587l-.126,1.519-2.051,1.184v-.516l.861-.5V57.247l-.861.5L216.32,59l-.862.5v1.084l.862-.5V60.6l-2.132,1.231V60.6l-2.913,1.682v1.226l-.63.365a2,2,0,0,0-.9,1.557v15.01c0,.571.4.8.9.519l9.347-5.4,12.591-7.27a2,2,0,0,0,.9-1.558V49.247C233.483,48.675,233.078,48.442,232.583,48.728ZM221.615,73.322c-3.461,2-6.268.379-6.268-3.618a13.854,13.854,0,0,1,6.268-10.856c3.461-2,6.268-.377,6.268,3.619A13.852,13.852,0,0,1,221.615,73.322Z" transform="translate(-209.745 -48.606)" fill="#fdfffe"/>
        <path id="Trazado_108272" data-name="Trazado 108272" d="M227.793,64.839c0-3.275-2.3-4.6-5.134-2.965a11.348,11.348,0,0,0-5.135,8.894c0,3.274,2.3,4.6,5.135,2.964A11.35,11.35,0,0,0,227.793,64.839Z" transform="translate(-210.789 -50.292)" fill="#fdfffe"/>
      </g>
    </g>
    <g id="Grupo_73260" data-name="Grupo 73260" transform="translate(292.81 7346.551)">
      <path id="Trazado_108273" data-name="Trazado 108273" d="M121.465,65.054l.124,43.737L83.525,130.768,83.4,87.029Z" transform="translate(-79.895 -63.015)" fill="#b0c0d2"/>
      <path id="Trazado_108274" data-name="Trazado 108274" d="M117.419,62.7l3.5,2.038L82.859,86.713l.122,43.739-3.5-2.038-.126-43.736Z" transform="translate(-79.351 -62.699)" fill="#12263f"/>
      <path id="Trazado_108275" data-name="Trazado 108275" d="M115.106,86.113l-4.324,2.5-5.233,3.021-4.788,2.764-5.233,3.021-.576.332-.008-.038,12.112-10.067h0l4.675-3.887h0l2.818-2.343a2.733,2.733,0,0,0,.984-2.344l-.577-2.7a.886.886,0,0,0-.154-.344l-.005-.008a.635.635,0,0,0-.125-.126.1.1,0,0,0-.018-.015.621.621,0,0,0-.138-.074l-.042-.013a.619.619,0,0,0-.141-.029.628.628,0,0,0-.07,0,.794.794,0,0,0-.134.009c-.034.005-.07.016-.106.025s-.077.02-.119.035-.1.045-.146.07c-.031.016-.061.029-.092.048a1.9,1.9,0,0,0-.248.176l-2.345,1.949h0L91.952,93.965a2.735,2.735,0,0,0-.984,2.344l.577,2.7a1.056,1.056,0,0,0,.055.163l.235,1.1v21.794c0,.821.582,1.155,1.291.745l21.979-12.689a2.863,2.863,0,0,0,1.291-2.235V86.859C116.4,86.039,115.816,85.7,115.106,86.113Zm-3.463,2.993,3.535,2.041a.563.563,0,0,1-.072.059l-5.146,2.971-3.55-2.05Zm-10.021,5.785,3.55,2.049L99.94,99.962l-3.551-2.049Zm-8.5,9a.264.264,0,0,1-.43-.248v-2.338l2.455,1.417Zm-.3-5.459,2.693-6.417,5.112-4.249-2.7,6.445L92.9,98.393A.493.493,0,0,1,92.825,98.436Zm21.539-17.887-1.977,1.644,1.871-4.457.435,2.032A.923.923,0,0,1,114.365,80.549Zm-6.653,5.531L102.6,90.328l2.706-6.445,5.111-4.249Zm1.532,20.334-5.257,6.54c-1.544,1.92-2.806,1.808-2.806-.251v-7.009c0-2.058,1.262-3.629,2.806-3.491l5.257.469C110.787,102.81,110.787,104.494,109.244,106.414Z" transform="translate(-80.906 -64.452)" fill="#fdfffe"/>
    </g>
  </g>
</svg>
