<svg id="Grupo_879966" data-name="Grupo 879966" xmlns="http://www.w3.org/2000/svg" xmlns:xlink="http://www.w3.org/1999/xlink" width="82.166" height="99.22" viewBox="0 0 82.166 99.22">
  <defs>
    <clipPath id="clip-path">
      <rect id="Rectángulo_295391" data-name="Rectángulo 295391" width="82.166" height="99.22" fill="#12263f"/>
    </clipPath>
  </defs>
  <g id="Grupo_879966-2" data-name="Grupo 879966" clip-path="url(#clip-path)">
    <path id="Trazado_597982" data-name="Trazado 597982" d="M54.511,78.023c.244-2.912.357-5.841.762-8.73A5.938,5.938,0,0,1,63.3,64.608a6,6,0,0,1,3.859,6.253c-.3,4.916-.618,9.831-.936,14.855,2.535.64,4.86,1.719,5.87,4.123a5.167,5.167,0,0,0,3.943,3.424,6.576,6.576,0,0,1,5.1,6.445c.074,7.906-.031,15.821-.366,23.72a18.484,18.484,0,0,1-3.676,10.047,13.793,13.793,0,0,1-7.035,5.049H72c17.552,0,7.567,0,25.119,0,.516,0,1.123-.159,1.526.057.522.28,1.224.871,1.214,1.314-.01.464-.708,1.017-1.227,1.329-.339.2-.9.053-1.354.053H29.667c-.4,0-.893.142-1.185-.037a10.645,10.645,0,0,1-1.494-1.323,7.247,7.247,0,0,1,1.442-1.346c.4-.214,1.01-.049,1.527-.049,21.453,0-1.844,0,19.609,0h1.716c-4.581-2.013-6.808-6.026-8.847-10.2-2.94-6.021-5.855-12.055-8.832-18.058-1.219-2.458-2.625-4.823-3.848-7.28A25.907,25.907,0,0,1,27.717,98.1c-.91-3.489,1.159-6.179,4.757-6.369a10.469,10.469,0,0,1,9.956,5.258,24.489,24.489,0,0,0,2.243,3.373c-.29-2.312-.575-4.623-.87-6.934-.877-6.878-1.825-13.748-2.608-20.637A5.79,5.79,0,0,1,45.743,66.4a5.97,5.97,0,0,1,6.832,3.356,13.058,13.058,0,0,1,.677,2.824c.334,1.832.62,3.673.926,5.511ZM66,90.1c-.1,1.158-.212,2.291-.288,3.426-.145,2.173-.252,4.35-.4,6.523-.095,1.348-.66,2.4-2.176,2.346-1.491-.058-2.049-1.062-1.974-2.474.043-.8.071-1.6.125-2.4q.909-13.383,1.822-26.765c.089-1.322-.4-2.307-1.844-2.386-1.345-.073-1.947.811-2.054,2.046-.154,1.77-.254,3.544-.389,5.316q-.77,10.116-1.549,20.231c-.1,1.329-.559,2.391-2.115,2.407-1.46.014-1.946-1.007-2.149-2.231-1.3-7.852-2.615-15.7-3.873-23.56-.222-1.389-.745-2.354-2.274-2.163-1.472.183-1.721,1.236-1.548,2.549.91,6.929,1.788,13.862,2.68,20.792.388,3.011.836,6.016,1.156,9.034a3.921,3.921,0,0,1-2.9,4.32q-2.728.791-4.261-2.2a37.029,37.029,0,0,0-2.918-5.437,12.335,12.335,0,0,0-3.968-3.3c-.854-.457-2.176-.042-3.286-.02a11.7,11.7,0,0,0,.587,3.074c1.232,2.513,2.754,4.883,4,7.391,2.922,5.9,5.7,11.872,8.635,17.766a73.561,73.561,0,0,0,4.079,7.15,6.135,6.135,0,0,0,5.821,2.929c3.95-.171,7.914-.1,11.869-.03,3.61.066,6.367-1.485,7.721-4.695a28.114,28.114,0,0,0,2.378-8.864c.4-6.227.227-12.493.272-18.742a12.192,12.192,0,0,0-.148-2.4,3.193,3.193,0,0,0-3.746-2.657c0,2.277.055,4.569-.034,6.856a2.917,2.917,0,0,1-.755,1.956,2.138,2.138,0,0,1-1.979.312,3.225,3.225,0,0,1-1.331-2.132c-.141-3.378-.042-6.765-.074-10.149-.02-2.083-.971-3.246-3.106-3.822" transform="translate(-17.698 -42.116)" fill="#12263f"/>
    <path id="Trazado_597983" data-name="Trazado 597983" d="M95.045,28.939c-.755-.667-1.54-1.3-2.255-2.01a1.883,1.883,0,0,1-.161-2.893,1.924,1.924,0,0,1,3.024.082c1.921,1.889,3.835,3.786,5.714,5.716a2.043,2.043,0,0,1-.037,3.181q-2.776,2.817-5.579,5.608c-.936.937-2.012,1.226-3.035.256-1.1-1.048-.814-2.173.2-3.14.648-.617,1.359-1.168,2.042-1.749l-.281-.564h-1.96q-18.574,0-37.148,0c-.573,0-1.149.015-1.718-.037a1.863,1.863,0,0,1-1.9-2.015,1.841,1.841,0,0,1,1.961-1.947c.515-.023,1.032-.014,1.547-.014H94.763l.281-.473" transform="translate(-34.065 -15.305)" fill="#12263f"/>
    <path id="Trazado_597984" data-name="Trazado 597984" d="M18.051,10.507c.749.671,1.529,1.312,2.24,2.021a1.891,1.891,0,0,1,.175,2.895,1.919,1.919,0,0,1-3.022-.065q-2.883-2.83-5.715-5.712a2.033,2.033,0,0,1,.017-3.176Q14.587,3.6,17.459.758A1.909,1.909,0,0,1,20.362.6a1.9,1.9,0,0,1-.09,3.013c-.68.661-1.454,1.227-2.186,1.834l.341.595h1.958q18.654,0,37.307,0c2.506,0,3.484.588,3.457,2.064-.025,1.423-.932,1.951-3.36,1.951H18.328l-.277.453" transform="translate(-7.197 0)" fill="#12263f"/>
    <path id="Trazado_597985" data-name="Trazado 597985" d="M193.967,105.3c.663.261,2.632-.724,2.62,1.183s-2.028.769-3.257,1.415a4.923,4.923,0,0,1-.043,1.684,5.66,5.66,0,0,1-1.127,1.428,6.233,6.233,0,0,1-1.136-1.453,4.432,4.432,0,0,1-.041-1.593c-1.039-.856-3.239.58-3.184-1.559.046-1.79,1.9-.846,2.974-1.285.731-.883-.67-3.135,1.546-3.007.533.031.964,1.8,1.646,3.188" transform="translate(-123.152 -66.956)" fill="#fb8c00"/>
    <path id="Trazado_597986" data-name="Trazado 597986" d="M19.682,215.007c.6-1-.58-3.024,1.359-3.032,1.974-.009.691,2.049,1.349,3.026.96.6,3.1-.6,3.056,1.443-.038,1.93-2.069.679-3.175,1.389a6.475,6.475,0,0,1-.139,1.88c-.172.482-.735.823-1.124,1.227-.369-.372-.916-.685-1.064-1.131a7.4,7.4,0,0,1-.15-1.944c-.995-.837-3.2.618-3.127-1.545.069-1.9,2.078-.722,3.015-1.314" transform="translate(-10.928 -139.006)" fill="#12263f"/>
    <path id="Trazado_597987" data-name="Trazado 597987" d="M4.287,80.446a2.239,2.239,0,0,1-2.206,2.18A2.174,2.174,0,0,1,.007,80.337a2.075,2.075,0,0,1,2.1-2.078,2.176,2.176,0,0,1,2.18,2.187" transform="translate(0 -51.317)" fill="#12263f"/>
    <path id="Trazado_597988" data-name="Trazado 597988" d="M211.661,237.136a2.251,2.251,0,0,1,2.179,2.217,2.208,2.208,0,0,1-2.268,2.121,2.123,2.123,0,0,1-2.074-2.128,2.183,2.183,0,0,1,2.164-2.21" transform="translate(-137.379 -155.506)" fill="#12263f"/>
    <path id="Trazado_597989" data-name="Trazado 597989" d="M75.181,97.992c2.136.576,3.087,1.74,3.106,3.822.032,3.383-.067,6.771.074,10.149a3.225,3.225,0,0,0,1.331,2.132,2.138,2.138,0,0,0,1.979-.312,2.917,2.917,0,0,0,.755-1.956c.089-2.287.034-4.579.034-6.856a3.193,3.193,0,0,1,3.746,2.657,12.192,12.192,0,0,1,.148,2.4c-.045,6.25.133,12.515-.272,18.742a28.114,28.114,0,0,1-2.378,8.864c-1.354,3.21-4.111,4.761-7.721,4.695-3.956-.073-7.919-.141-11.869.03a6.135,6.135,0,0,1-5.821-2.929,73.562,73.562,0,0,1-4.08-7.15c-2.934-5.894-5.713-11.865-8.635-17.766-1.242-2.508-2.765-4.878-4-7.391A11.7,11.7,0,0,1,41,104.045c1.111-.022,2.432-.437,3.286.02a12.335,12.335,0,0,1,3.968,3.3,37.028,37.028,0,0,1,2.918,5.438q1.538,2.981,4.261,2.2a3.921,3.921,0,0,0,2.9-4.32c-.32-3.018-.768-6.023-1.156-9.034-.892-6.931-1.77-13.864-2.68-20.792-.172-1.314.076-2.367,1.548-2.549,1.529-.19,2.052.774,2.274,2.164,1.258,7.858,2.571,15.708,3.873,23.56.2,1.223.689,2.245,2.149,2.231,1.556-.015,2.013-1.077,2.115-2.407Q67.227,93.735,68,83.619c.135-1.772.235-3.546.389-5.316.107-1.235.71-2.119,2.054-2.046,1.44.078,1.933,1.064,1.844,2.386q-.9,13.383-1.822,26.765c-.054.8-.082,1.6-.125,2.4-.075,1.413.483,2.416,1.974,2.474,1.516.059,2.081-1,2.176-2.346.152-2.173.26-4.349.4-6.523.076-1.135.19-2.268.288-3.426" transform="translate(-26.884 -50.004)" fill="#f3f9ff"/>
  </g>
</svg>
