<svg xmlns="http://www.w3.org/2000/svg" width="114.998" height="115.003" viewBox="0 0 114.998 115.003">
  <g id="observacion-4" transform="translate(-0.002)">
    <g id="Grupo_56707" data-name="Grupo 56707" transform="translate(2.248 2.246)">
      <path id="Trazado_143774" data-name="Trazado 143774" d="M40.544,81.315,30.352,71.123l-26.1,26.1a7.207,7.207,0,0,0,10.192,10.192Z" transform="translate(-2.151 0.989)" fill="#636363" fill-rule="evenodd"/>
      <path id="Trazado_143775" data-name="Trazado 143775" d="M29.125,71.469,39.317,81.661l7.941-7.941A41.06,41.06,0,0,1,37.067,63.527Z" transform="translate(-0.924 0.643)" fill="#fb0" fill-rule="evenodd"/>
      <path id="Trazado_143776" data-name="Trazado 143776" d="M70.563,83.828a40.84,40.84,0,1,0-40.839-40.84A40.918,40.918,0,0,0,70.563,83.828Z" transform="translate(-0.897 -2.148)" fill="#1565c0" fill-rule="evenodd"/>
      <path id="Trazado_143777" data-name="Trazado 143777" d="M70.172,74.452A31.855,31.855,0,1,0,38.317,42.6,31.917,31.917,0,0,0,70.172,74.452Z" transform="translate(-0.506 -1.758)" fill="#ddf7fd" fill-rule="evenodd"/>
      <g id="Grupo_56706" data-name="Grupo 56706" transform="translate(33.729 18.379)">
        <path id="Trazado_143778" data-name="Trazado 143778" d="M51.99,37.7a8.984,8.984,0,1,0-8.984-8.984A9,9,0,0,0,51.99,37.7Z" transform="translate(-34.021 -19.728)" fill="#f4cdac" fill-rule="evenodd"/>
        <path id="Trazado_143779" data-name="Trazado 143779" d="M52.381,54.883H34.412a17.969,17.969,0,0,1,35.937,0Z" transform="translate(-34.412 -18.946)" fill="#26aab7" fill-rule="evenodd"/>
        <path id="Trazado_143780" data-name="Trazado 143780" d="M86.364,37.7a8.984,8.984,0,1,0-8.984-8.984A9,9,0,0,0,86.364,37.7Z" transform="translate(-32.458 -19.728)" fill="#f4cdac" fill-rule="evenodd"/>
        <path id="Trazado_143781" data-name="Trazado 143781" d="M86.755,54.883H68.786a17.969,17.969,0,0,1,35.937,0Z" transform="translate(-32.849 -18.946)" fill="#b2ebf2" fill-rule="evenodd"/>
        <path id="Trazado_143782" data-name="Trazado 143782" d="M69.177,46.289a8.984,8.984,0,1,0-8.984-8.984A9,9,0,0,0,69.177,46.289Z" transform="translate(-33.24 -19.337)" fill="#f4cdac" fill-rule="evenodd"/>
        <path id="Trazado_143783" data-name="Trazado 143783" d="M69.568,63.476H51.6a17.969,17.969,0,1,1,35.937,0Z" transform="translate(-33.631 -18.555)" fill="#1565c0" fill-rule="evenodd"/>
      </g>
    </g>
    <g id="Grupo_56708" data-name="Grupo 56708" transform="translate(0.002)">
      <path id="Trazado_143784" data-name="Trazado 143784" d="M71.914,0A42.956,42.956,0,0,0,48.892,6.663a2.246,2.246,0,1,0,2.4,3.8,38.605,38.605,0,0,1,58.227,41.312,20.145,20.145,0,0,0-3.534-7.411c.017-.433.028-.862.028-1.274a34.1,34.1,0,0,0-68.178-1.311c-.024.65-.039,1.729-.016,2.61a20.148,20.148,0,0,0-3.515,7.386,38.654,38.654,0,0,1,4.98-29.3,2.246,2.246,0,0,0-3.8-2.4,43.052,43.052,0,0,0,.025,46.051l-6.652,6.652,0,0,0,0-26.1,26.1a9.475,9.475,0,0,0-.014,13.355l.014.014a9.464,9.464,0,0,0,13.369,0l26.1-26.1h0l6.654-6.654A43.08,43.08,0,1,0,71.914,0Zm11.23,29.609a6.738,6.738,0,1,1,6.741,6.738H89.88A6.746,6.746,0,0,1,83.145,29.609Zm17,4.549a29.393,29.393,0,0,1,1.208,5.77,20.186,20.186,0,0,0-3.845-2.085A11.284,11.284,0,0,0,100.147,34.158ZM71.917,45.331h-.006a6.738,6.738,0,1,1,.006,0ZM53.949,36.348h-.005a6.738,6.738,0,1,1,.005,0Zm-7.629,1.5a20.185,20.185,0,0,0-3.847,2.086,29.716,29.716,0,0,1,1.2-5.8A11.274,11.274,0,0,0,46.319,37.843Zm7.625,3h0a15.689,15.689,0,0,1,7.544,1.929,11.27,11.27,0,0,0,2.8,4.058,20.333,20.333,0,0,0-9.173,7.489H38.383A15.748,15.748,0,0,1,53.944,40.84ZM52.856,58.808a20.1,20.1,0,0,0-1.138,5.9,29.587,29.587,0,0,1-4.889-5.9Zm10.073,8.984a2.246,2.246,0,0,0,0-4.492H56.352a15.747,15.747,0,0,1,15.56-13.476h0A15.747,15.747,0,0,1,87.477,63.3H80.9a2.246,2.246,0,0,0,0,4.492h7.29a29.458,29.458,0,0,1-32.546,0ZM92.11,64.713a20.086,20.086,0,0,0-1.138-5.9H97A29.577,29.577,0,0,1,92.11,64.713Zm-3.4-10.4a20.334,20.334,0,0,0-9.173-7.489,11.271,11.271,0,0,0,2.8-4.058,15.694,15.694,0,0,1,7.544-1.929h0a15.747,15.747,0,0,1,15.56,13.476Zm-.343-35.833A11.245,11.245,0,0,0,78.653,29.61s0,0,0,.006a11.206,11.206,0,0,0-13.477,0V29.61a11.245,11.245,0,0,0-9.789-11.135,29.685,29.685,0,0,1,32.984.009ZM12.954,109.062a4.966,4.966,0,0,1-7,.011l-.012-.012a4.983,4.983,0,0,1,0-7.015L30.45,77.534l7.016,7.016ZM40.642,81.374l-7.016-7.016,4.531-4.531a43.476,43.476,0,0,0,7.016,7.016Zm31.273.305A38.648,38.648,0,0,1,36.672,58.808h4.981a34.1,34.1,0,0,0,60.523,0h4.981A38.647,38.647,0,0,1,71.914,81.679Z" transform="translate(-0.002)"/>
      <path id="Trazado_143785" data-name="Trazado 143785" d="M41.261,15.934A2.246,2.246,0,1,0,39.6,12.176h0a2.246,2.246,0,0,0,1.662,3.756Z" transform="translate(1.772 0.52)"/>
      <path id="Trazado_143786" data-name="Trazado 143786" d="M71.13,62.792a2.246,2.246,0,0,0-2.246-2.246h0a2.246,2.246,0,1,0,2.248,2.246Z" transform="translate(3.028 2.754)"/>
    </g>
  </g>
</svg>
