<svg xmlns="http://www.w3.org/2000/svg" width="140.665" height="122.378" viewBox="0 0 140.665 122.378">
  <g id="Grupo_884967" data-name="Grupo 884967" transform="translate(-1031.001 -7401.51)">
    <g id="pantalla" transform="translate(1031.001 7417.51)">
      <path id="Trazado_143818" data-name="Trazado 143818" d="M24.166,2.148H93.42v102.08H24.166Zm0,0" fill="#fb0" fill-rule="evenodd"/>
      <path id="Trazado_143819" data-name="Trazado 143819" d="M13.157,12.156H24.166V94.222H13.157Zm0,0" fill="#ffda73" fill-rule="evenodd"/>
      <path id="Trazado_143820" data-name="Trazado 143820" d="M2.148,22.965H13.157V83.412H2.148Zm0,0" fill="#ffda73" fill-rule="evenodd"/>
      <path id="Trazado_143821" data-name="Trazado 143821" d="M76.5,72.875l31.354,31.354ZM58.792,30.132A25.039,25.039,0,1,1,33.755,55.17,25.038,25.038,0,0,1,58.792,30.132Zm0,0" fill="#1565c0" fill-rule="evenodd"/>
      <path id="Trazado_143822" data-name="Trazado 143822" d="M109.371,102.71l-13.8-13.8V2.148A2.148,2.148,0,0,0,93.42,0H24.166a2.148,2.148,0,0,0-2.148,2.148v7.859H13.157a2.149,2.149,0,0,0-2.148,2.148v8.66H2.148A2.149,2.149,0,0,0,0,22.965V83.412a2.148,2.148,0,0,0,2.148,2.148h8.86v8.661a2.149,2.149,0,0,0,2.148,2.148h8.861v7.859a2.148,2.148,0,0,0,2.148,2.148H93.42a2.148,2.148,0,0,0,2.148-2.148V94.984l10.764,10.764a2.149,2.149,0,1,0,3.038-3.039ZM4.3,81.264V25.113h6.711V81.264ZM15.305,92.073V14.3h6.712V92.073ZM91.272,102.08H26.314V4.3H91.272V84.611l-11.8-11.8A27.185,27.185,0,0,0,47.2,30.575a2.149,2.149,0,0,0,1.835,3.886,22.685,22.685,0,0,1,9.76-2.18A22.89,22.89,0,1,1,35.9,55.17a22.679,22.679,0,0,1,2.18-9.76A2.148,2.148,0,1,0,34.2,43.575a26.939,26.939,0,0,0-2.592,11.6A27.174,27.174,0,0,0,76.43,75.844L91.273,90.687V102.08Zm0,0" fill-rule="evenodd"/>
      <path id="Trazado_143823" data-name="Trazado 143823" d="M71.265,65.746A2.148,2.148,0,0,0,73.414,63.6V51.584a2.148,2.148,0,1,0-4.3,0V63.6A2.149,2.149,0,0,0,71.265,65.746Zm0,0" fill-rule="evenodd"/>
      <path id="Trazado_143824" data-name="Trazado 143824" d="M54.636,65.746A2.149,2.149,0,0,0,56.784,63.6V49.2a2.148,2.148,0,0,0-4.3,0V63.6A2.148,2.148,0,0,0,54.636,65.746Zm0,0" fill-rule="evenodd"/>
      <path id="Trazado_143825" data-name="Trazado 143825" d="M46.321,65.746A2.149,2.149,0,0,0,48.469,63.6V55.619a2.148,2.148,0,0,0-4.3,0V63.6A2.148,2.148,0,0,0,46.321,65.746Zm0,0" fill-rule="evenodd"/>
      <path id="Trazado_143826" data-name="Trazado 143826" d="M62.951,65.746A2.149,2.149,0,0,0,65.1,63.6V42.781a2.148,2.148,0,1,0-4.3,0V63.6A2.148,2.148,0,0,0,62.951,65.746Zm0,0" fill-rule="evenodd"/>
      <path id="Trazado_143827" data-name="Trazado 143827" d="M41.088,39.614a2.149,2.149,0,1,0-2.148-2.148A2.153,2.153,0,0,0,41.088,39.614Zm0,0" fill-rule="evenodd"/>
    </g>
    <g id="mira" transform="translate(1106.788 7401.403)">
      <path id="Trazado_143734" data-name="Trazado 143734" d="M33.321,50.262c-14.23,0-23.21-7.446-31.172-16.63C10.111,24.446,19.09,17,33.321,17s23.21,7.446,31.172,16.631C56.53,42.816,47.55,50.262,33.321,50.262Zm0,0" transform="translate(-0.881 -6.929)" fill="#1565c0" fill-rule="evenodd"/>
      <path id="Trazado_143735" data-name="Trazado 143735" d="M43.029,50.26c9.48,0,17.213-7.469,17.213-16.626S52.51,17.008,43.029,17.008,25.817,24.477,25.817,33.634,33.549,50.26,43.029,50.26Zm0,0" transform="translate(-10.59 -6.933)" fill="#b2ebf2" fill-rule="evenodd"/>
      <path id="Trazado_143736" data-name="Trazado 143736" d="M91.067,71.38A1.267,1.267,0,0,0,89.8,72.647V80H82.45a1.267,1.267,0,1,0,0,2.534h8.618a1.267,1.267,0,0,0,1.267-1.267V72.647A1.267,1.267,0,0,0,91.067,71.38Zm0,0" transform="translate(-33.301 -29.236)" fill-rule="evenodd"/>
      <path id="Trazado_143737" data-name="Trazado 143737" d="M11.177,11.259a1.267,1.267,0,0,0,1.267-1.267V2.642h7.35a1.267,1.267,0,0,0,0-2.534H11.177A1.267,1.267,0,0,0,9.91,1.375V9.992A1.267,1.267,0,0,0,11.177,11.259Zm0,0" transform="translate(-4.065)" fill-rule="evenodd"/>
      <path id="Trazado_143738" data-name="Trazado 143738" d="M19.794,80h-7.35V72.647a1.267,1.267,0,0,0-2.534,0v8.618a1.267,1.267,0,0,0,1.267,1.267h8.617a1.267,1.267,0,0,0,0-2.534Zm0,0" transform="translate(-4.065 -29.236)" fill-rule="evenodd"/>
      <path id="Trazado_143739" data-name="Trazado 143739" d="M82.45,2.642H89.8v7.35a1.267,1.267,0,0,0,2.534,0V1.375A1.267,1.267,0,0,0,91.067.107H82.45a1.267,1.267,0,1,0,0,2.534Zm0,0" transform="translate(-33.301)" fill-rule="evenodd"/>
      <path id="Trazado_143740" data-name="Trazado 143740" d="M64.569,31.92c-1.254-1.446-2.424-2.725-3.578-3.909a1.267,1.267,0,1,0-1.815,1.769c.894.918,1.8,1.9,2.752,2.97C57.292,37.995,52.046,42.9,45.181,45.7a17.478,17.478,0,0,0,0-25.892,34.372,34.372,0,0,1,6.5,3.535,1.267,1.267,0,0,0,1.437-2.088,35.356,35.356,0,0,0-20.683-6.4A35.143,35.143,0,0,0,13.851,19.9C9.351,22.6,5.174,26.308.31,31.92a1.266,1.266,0,0,0,0,1.66c1.254,1.447,2.423,2.724,3.573,3.9A1.267,1.267,0,0,0,5.7,35.716c-.891-.915-1.8-1.892-2.747-2.966C7.586,27.505,12.832,22.6,19.7,19.8a17.479,17.479,0,0,0,0,25.892,34.351,34.351,0,0,1-6.5-3.538,1.267,1.267,0,0,0-1.437,2.088,35.358,35.358,0,0,0,20.688,6.4A35.148,35.148,0,0,0,51.027,45.6c4.5-2.7,8.677-6.4,13.541-12.017A1.267,1.267,0,0,0,64.569,31.92Zm-48.075.83c0-8.469,7.153-15.359,15.945-15.359s15.945,6.89,15.945,15.359S41.232,48.109,32.439,48.109,16.494,41.219,16.494,32.75Zm0,0" transform="translate(0 -6.048)" fill-rule="evenodd"/>
      <path id="Trazado_143741" data-name="Trazado 143741" d="M50.76,47a5.934,5.934,0,1,0-6.1-5.931A6.022,6.022,0,0,0,50.76,47Zm0-9.329a3.4,3.4,0,1,1-3.562,3.4A3.486,3.486,0,0,1,50.76,37.675Zm0,0" transform="translate(-18.321 -14.37)" fill-rule="evenodd"/>
      <path id="Trazado_143742" data-name="Trazado 143742" d="M46.779,55.778A11.658,11.658,0,0,0,58.6,44.317a1.267,1.267,0,1,0-2.534,0,9.294,9.294,0,0,1-18.573,0,1.267,1.267,0,0,0-2.534,0A11.658,11.658,0,0,0,46.779,55.778Zm0,0" transform="translate(-14.34 -17.615)" fill-rule="evenodd"/>
      <path id="Trazado_143743" data-name="Trazado 143743" d="M14.744,56.758a1.267,1.267,0,1,0-1.267,1.267A1.27,1.27,0,0,0,14.744,56.758Zm0,0" transform="translate(-5.008 -22.718)" fill-rule="evenodd"/>
      <path id="Trazado_143744" data-name="Trazado 143744" d="M93.487,31.867A1.267,1.267,0,1,0,94.754,30.6,1.27,1.27,0,0,0,93.487,31.867Zm0,0" transform="translate(-38.348 -12.508)" fill-rule="evenodd"/>
    </g>
  </g>
</svg>
