<svg xmlns="http://www.w3.org/2000/svg" width="96.084" height="119.129" viewBox="0 0 96.084 119.129">
  <g id="anfitrion" transform="translate(-49.522)">
    <g id="Grupo_83444" data-name="Grupo 83444" transform="translate(51.267 1.745)">
      <g id="Grupo_83442" data-name="Grupo 83442" transform="translate(12.937 51.212)">
        <path id="Trazado_143870" data-name="Trazado 143870" d="M112.624,270.949V248.374a9.307,9.307,0,0,1,6.779-8.957l14.207-4.009,8.523-7.8H149.4l8.952,7.86,9.584,2.679,4.6,1.751c4.021,1.124,4.475,4.323,4.475,8.5v22.558Z" transform="translate(-112.624 -227.603)" fill="#636363"/>
      </g>
      <path id="Trazado_143872" data-name="Trazado 143872" d="M151.056,441.385h-71.6a2.327,2.327,0,0,1-2.327-2.327V422.247h76.258v16.811A2.327,2.327,0,0,1,151.056,441.385Z" transform="translate(-72.447 -325.746)" fill="#b2ebf2"/>
      <path id="Trazado_143874" data-name="Trazado 143874" d="M238.013,237.452l-1.006,1.737.337,2.037L234.03,259.94l-3.4-2.327-4.32,2.327-3.29-18.5.24-2.576-.933-1.323,1.768-21.251h12.057Z" transform="translate(-183.868 -167.709)" fill="#f2fbff"/>
      <path id="Trazado_143875" data-name="Trazado 143875" d="M218.934,214.568h17.013v13.143H218.934Z" transform="translate(-181.261 -166.389)" fill="#f6a96c"/>
      <path id="Trazado_143876" data-name="Trazado 143876" d="M243.292,326.237l-3.843,18.07h7.716Z" transform="translate(-197.003 -252.075)" fill="#7ae582"/>
      <path id="Trazado_143877" data-name="Trazado 143877" d="M248.557,283.464l.779,2.917-2.957,5.573-2.907-5.495.762-2.957,2.128-2.527.024-.024.024.024Z" transform="translate(-200.09 -217.326)" fill="#fb8c00"/>
      <path id="Trazado_143878" data-name="Trazado 143878" d="M237.463,270.95l-.189,8.446-.668,3.774-4.231-4.465-2.94-5.429-2.924,5.508-4.226,4.6-.693-3.9-.223-8.532Z" transform="translate(-183.13 -209.652)" fill="#dff6fd"/>
      <path id="Trazado_143879" data-name="Trazado 143879" d="M140.308,412.437H59.348a2.327,2.327,0,0,1-2.327-2.327v-3.885a2.327,2.327,0,0,1,2.327-2.327h80.96a2.327,2.327,0,0,1,2.327,2.327v3.885A2.327,2.327,0,0,1,140.308,412.437Z" transform="translate(-57.021 -311.667)" fill="#fb0"/>
      <path id="Trazado_143880" data-name="Trazado 143880" d="M245.726,275.79l-1.547,2.918-2.084-2.2a1.163,1.163,0,0,0-1.7.013l-2.081,2.263-1.564-2.957,4.456-4.854.023-.023.023.023Z" transform="translate(-194.931 -209.652)" fill="#7ae582"/>
      <path id="Trazado_143881" data-name="Trazado 143881" d="M416.613,406.227v3.886a2.328,2.328,0,0,1-2.327,2.327h-9.307a2.328,2.328,0,0,0,2.327-2.327v-3.886a2.328,2.328,0,0,0-2.327-2.327h9.307A2.328,2.328,0,0,1,416.613,406.227Z" transform="translate(-324.018 -311.668)" fill="#fb0"/>
      <path id="Trazado_143882" data-name="Trazado 143882" d="M206.569,225.614l8.6,10.519.024.028-.024.025-7.809,8.509-4.54-10.813Z" transform="translate(-168.896 -174.865)" fill="#f2fbff"/>
      <path id="Trazado_143883" data-name="Trazado 143883" d="M264.388,225.614l-8.365,10.519-.024.028.024.025,7.824,8.422,4.525-10.671Z" transform="translate(-209.702 -174.865)" fill="#f2fbff"/>
      <path id="Trazado_143884" data-name="Trazado 143884" d="M326.646,99.868l-3.226,2.327v12.072h3.226a6.037,6.037,0,0,0,3.1-11.218C328.838,102.507,327.778,99.868,326.646,99.868Z" transform="translate(-261.436 -78.376)" fill="#f6a96c"/>
      <path id="Trazado_143885" data-name="Trazado 143885" d="M154.806,99.868l3.226,2.327v12.072h-3.226a6.037,6.037,0,0,1-3.095-11.22C152.616,102.506,153.675,99.868,154.806,99.868Z" transform="translate(-127.422 -78.376)" fill="#ffbd86"/>
      <path id="Trazado_143886" data-name="Trazado 143886" d="M198.7,95.555a18.726,18.726,0,0,1-2.328.309A17.224,17.224,0,0,1,181.48,78.8V70.505a17.225,17.225,0,0,1,14.9-17.067,18.73,18.73,0,0,1,2.316.311c9.511,0,14.894,7.245,14.894,16.756V78.8C213.6,88.31,208.212,95.555,198.7,95.555Z" transform="translate(-152.522 -42.738)" fill="#fed2a4"/>
      <path id="Trazado_143887" data-name="Trazado 143887" d="M265.038,70.05v8.295a17.222,17.222,0,0,1-17.222,17.22,17.443,17.443,0,0,1-2.327-.156,17.225,17.225,0,0,0,14.9-17.064V70.05a17.222,17.222,0,0,0-14.9-17.064,17.447,17.447,0,0,1,2.327-.156,17.218,17.218,0,0,1,17.222,17.22Z" transform="translate(-201.637 -42.283)" fill="#ffbd86"/>
      <path id="Trazado_143888" data-name="Trazado 143888" d="M186.207,7.965a2.815,2.815,0,0,0-2.141.671c-.141.145-.316.007-.5.05a1,1,0,0,1-.929-.253A3.257,3.257,0,0,0,180.35,7.5a18.936,18.936,0,0,0-18.939,18.939v5.734a5.985,5.985,0,0,1,3.095-.854h2.029a16.925,16.925,0,0,1,.7-2.267,1.164,1.164,0,0,1,1.086-.74h5.37a9.93,9.93,0,0,0,9.723-7.918,9.931,9.931,0,0,0,9.723,7.918h2.973l2.164-2.327a1.164,1.164,0,0,1,1.086.741,17.019,17.019,0,0,1,.7,2.266h2.264c1.131,0-.136.311.768.854V26.72C203.1,16.105,196.822,7.965,186.207,7.965Z" transform="translate(-137.122 -7.5)" fill="#918291"/>
      <path id="Trazado_143889" data-name="Trazado 143889" d="M278.483,26.719v5.454a5.982,5.982,0,0,0-3.095-.854h-2.266a16.948,16.948,0,0,0-.7-2.266,1.163,1.163,0,0,0-1.084-.742h-2.159V26.719A19.227,19.227,0,0,0,256.619,8.687a1.008,1.008,0,0,0,.5-.282,2.978,2.978,0,0,1,2.141-.905,19.22,19.22,0,0,1,19.221,19.219Z" transform="translate(-210.178 -7.5)" fill="#7a6d79"/>
    </g>
    <g id="Grupo_83445" data-name="Grupo 83445" transform="translate(49.522 0)">
      <path id="Trazado_143890" data-name="Trazado 143890" d="M215.7,131.434a1.745,1.745,0,0,0-1.745,1.745V135.4a1.745,1.745,0,1,0,3.49,0v-2.217A1.745,1.745,0,0,0,215.7,131.434Z" transform="translate(-175.695 -100.853)"/>
      <path id="Trazado_143891" data-name="Trazado 143891" d="M284.791,137.141a1.745,1.745,0,0,0,1.745-1.745v-2.217a1.745,1.745,0,1,0-3.49,0V135.4A1.745,1.745,0,0,0,284.791,137.141Z" transform="translate(-228.711 -100.853)"/>
      <path id="Trazado_143892" data-name="Trazado 143892" d="M242.567,190.128a1.745,1.745,0,0,0-1.229-3.267,7.794,7.794,0,0,1-5.94.019,1.745,1.745,0,1,0-1.325,3.229,10.96,10.96,0,0,0,4.191.839,12.169,12.169,0,0,0,4.3-.82Z" transform="translate(-190.303 -143.298)"/>
      <path id="Trazado_143893" data-name="Trazado 143893" d="M107.091,72l3.854-9.09,12.707,3.552a7.587,7.587,0,0,1,5.526,7.283V78.59a1.745,1.745,0,1,0,3.49,0V73.746A11.088,11.088,0,0,0,124.592,63.1L111.17,59.35l-2.873-6a18.966,18.966,0,0,0,8.045-13.968h.135a7.779,7.779,0,0,0,4.84-13.871V20.965A20.988,20.988,0,0,0,100.352,0,4.692,4.692,0,0,0,97.47.978,4.979,4.979,0,0,0,94.5,0,20.681,20.681,0,0,0,73.811,20.684v4.824a7.779,7.779,0,0,0,4.74,13.87A18.966,18.966,0,0,0,86.627,53.37L83.936,59.3,70.51,63.091a11.092,11.092,0,0,0-8.051,10.636v18.5H53.594A4.077,4.077,0,0,0,49.522,96.3v3.885a4.077,4.077,0,0,0,4.072,4.072H54.2v10.8a4.077,4.077,0,0,0,4.072,4.072h53.861a1.745,1.745,0,1,0,0-3.49H58.271a.582.582,0,0,1-.582-.582v-10.8H68.152a1.745,1.745,0,1,0,0-3.49H53.594a.582.582,0,0,1-.582-.582V96.3a.582.582,0,0,1,.582-.582h87.94a.582.582,0,0,1,.582.582v3.885a.582.582,0,0,1-.582.582H78.286a1.745,1.745,0,1,0,0,3.49h59.152v10.8a.582.582,0,0,1-.582.582H122.266a1.745,1.745,0,1,0,0,3.49h14.591a4.077,4.077,0,0,0,4.072-4.072v-10.8h.606a4.076,4.076,0,0,0,4.072-4.072V96.3a4.076,4.076,0,0,0-4.072-4.072h-8.866V86.2a1.745,1.745,0,1,0-3.49,0v6.036h-9.942V84.347a1.745,1.745,0,1,0-3.49,0v7.885H103.511Zm-9.519-6.388,2.367,2.547-2.38,4.485L95.2,68.192Zm5.971,6.427-2.276,12.851-1.8-8.4,2.986-5.628ZM90.286,68.39l-3.191-7.6,2.274-5.013,5.886,7.2ZM92.7,70.922l2.948,5.573-1.781,8.373L91.6,72.119Zm4.864,13.342,1.708,7.968h-3.4Zm7.295-15.937-4.992-5.373,5.718-7.191,2.44,5.1Zm11.62-32.437h-.065V29.513a19.2,19.2,0,0,0-.128-2.2h.193a4.258,4.258,0,0,1,2.2.6c.016.01.033.016.049.025l.038.027a4.292,4.292,0,0,1-2.283,7.925ZM77.3,20.684A17.191,17.191,0,0,1,94.5,3.49a1.514,1.514,0,0,1,1.065.435,2.716,2.716,0,0,0,1.914.779h.036a2.785,2.785,0,0,0,1.95-.837,1.237,1.237,0,0,1,.892-.377,17.5,17.5,0,0,1,17.475,17.475v2.971a7.8,7.8,0,0,0-1.35-.117h-.936q-.184-.582-.4-1.153a2.927,2.927,0,0,0-2.713-1.854h-5.136a8.206,8.206,0,0,1-8.014-6.524,1.745,1.745,0,0,0-3.419,0,8.206,8.206,0,0,1-8.014,6.524H82.47a2.928,2.928,0,0,0-2.712,1.853q-.222.571-.406,1.154h-.7a7.8,7.8,0,0,0-1.35.118ZM74.36,31.6a4.27,4.27,0,0,1,2.04-3.654l.021-.014.035-.018a4.257,4.257,0,0,1,2.153-.6,19.163,19.163,0,0,0-.128,2.2v6.369A4.293,4.293,0,0,1,74.36,31.6Zm7.611,6.207V29.513a15.588,15.588,0,0,1,.374-3.4c.007-.032.011-.064.017-.1s.014-.037.018-.057a15.162,15.162,0,0,1,.493-1.661H87.84a11.719,11.719,0,0,0,9.723-5.221,11.719,11.719,0,0,0,9.723,5.22h4.735a15.323,15.323,0,0,1,.492,1.661c.005.022.015.041.02.063.006.039.011.077.02.116a15.583,15.583,0,0,1,.368,3.371v8.294a15.476,15.476,0,1,1-30.952,0ZM97.446,56.773a19,19,0,0,0,3.077-.253l-2.978,3.745L94.5,56.544A19.018,19.018,0,0,0,97.446,56.773Zm-9.383,15.4,3.567,20.063H79.382V84.346a1.745,1.745,0,0,0-3.49,0v7.885H65.949v-18.5a7.59,7.59,0,0,1,5.508-7.278l12.721-3.59Z" transform="translate(-49.522 0)"/>
    </g>
  </g>
</svg>
