<svg xmlns="http://www.w3.org/2000/svg" width="92.178" height="92.178" viewBox="0 0 92.178 92.178"><g transform="translate(-621.88 -949.836)"><g transform="translate(620.88 948.836)"><g transform="translate(39.655 2.487)"><path d="M38,22.814V6.46A4.454,4.454,0,0,1,42.46,2H58.814V7.947H60.3a4.46,4.46,0,1,1,0,8.92H58.814v5.947H52.867a4.46,4.46,0,1,0-8.92,0Z" transform="translate(-21.646 -2)" fill="#fb0"/><path d="M58.814,68.814H42.46V62.867a4.46,4.46,0,0,1,0-8.92V48h5.947a4.46,4.46,0,1,0,8.92,0h5.947V64.354A4.454,4.454,0,0,1,58.814,68.814Z" transform="translate(-21.646 20.39)" fill="#fb0"/><path d="M27,49.46h5.947a4.46,4.46,0,0,1,8.92,0h5.947v5.947a4.46,4.46,0,0,0,0,8.92v5.947H31.46A4.454,4.454,0,0,1,27,65.814Z" transform="translate(-27 18.93)" fill="#fb0"/><path d="M27,53.328V38.46A4.454,4.454,0,0,1,31.46,34H47.814v5.947a4.46,4.46,0,0,1,0,8.92v5.947H41.867a4.46,4.46,0,0,0-8.92,0H27Z" transform="translate(-27 13.576)" fill="#fb0"/></g><path d="M70.761,33.381A13.381,13.381,0,0,1,58.332,46.717l-5.412,4.5V45.988A13.377,13.377,0,1,1,70.761,33.381Z" transform="translate(20.93 9.248)" fill="#fffae7"/><path d="M25.407,34V70.425a5.209,5.209,0,0,1-5.2,5.2,5.229,5.229,0,0,1-5.2-5.2V39.947h4.46V34Z" transform="translate(6.814 16.063)" fill="#636363"/><path d="M18.407,38V68.478a5.209,5.209,0,0,1-5.2,5.2,5.229,5.229,0,0,1-5.2-5.2V38Z" transform="translate(3.407 18.01)" fill="#636363"/><path d="M22.867,24V44.814H8V37.381h8.177a3.717,3.717,0,1,0,0-7.434H8V24Z" transform="translate(3.407 11.195)" fill="#e6e9ed"/><path d="M10.92,40.655H19.1a3.717,3.717,0,1,1,0,7.434H7.947A5.945,5.945,0,0,1,2,42.142v-4.46A14.873,14.873,0,0,1,16.867,22.814h5.947l16.354-1.487V5.717a3.717,3.717,0,1,1,7.434,0V23.379A5.94,5.94,0,0,1,41.25,29.3l-9.515.952V49.576H25.788V34.708H10.92Z" transform="translate(0.487 0.487)" fill="#1565c0"/><circle cx="8.92" cy="8.92" r="8.92" transform="translate(12.894 5.46)" fill="#f0d0b4"/><path d="M61.682,55.3a2.973,2.973,0,1,1-5.947,0V53.814H49.788V50.652a5.947,5.947,0,0,0,0-11.516V33H31.947A5.953,5.953,0,0,0,26,38.947V71.655A5.953,5.953,0,0,0,31.947,77.6H64.655A5.953,5.953,0,0,0,70.6,71.655V53.814h-8.92ZM28.973,38.947a2.976,2.976,0,0,1,2.973-2.973H46.814V41.92H48.3a2.973,2.973,0,1,1,0,5.947H46.814v5.947H43.652a5.947,5.947,0,0,0-11.516,0H28.973Zm2.973,35.682a2.976,2.976,0,0,1-2.973-2.973V56.788H34.92V55.3a2.973,2.973,0,0,1,5.947,0v1.487h5.947V59.95a5.947,5.947,0,0,0,0,11.516v3.162Zm32.52-17.841h3.162V71.655a2.976,2.976,0,0,1-2.973,2.973H49.788V68.682H48.3a2.973,2.973,0,0,1,0-5.947h1.487V56.788H52.95a5.947,5.947,0,0,0,11.516,0Z" transform="translate(12.169 15.576)"/><path d="M45.92,23.3a2.973,2.973,0,1,1,5.947,0v1.487h8.92V18.841a5.947,5.947,0,0,0,0-11.894V1H42.947A5.953,5.953,0,0,0,37,6.947V24.788h8.92Zm-2.785-1.487H39.973V6.947a2.976,2.976,0,0,1,2.973-2.973H57.814V9.92h2.973a2.973,2.973,0,0,1,0,5.947H57.814v5.947H54.652a5.947,5.947,0,0,0-11.516,0Z" transform="translate(17.523 0)"/><path d="M54.46,23A4.466,4.466,0,0,0,50,27.46v1.487h2.973V27.46a1.487,1.487,0,1,1,2.973,0v.256a1.492,1.492,0,0,1-.436,1.051L54.28,30a4.427,4.427,0,0,0-1.307,3.153v1.742h2.973V33.152a1.492,1.492,0,0,1,.436-1.051l1.231-1.231a4.427,4.427,0,0,0,1.307-3.153V27.46A4.466,4.466,0,0,0,54.46,23Z" transform="translate(23.851 10.708)"/><path d="M52,33h2.973v2.973H52Z" transform="translate(24.824 15.576)"/><path d="M57.867,19A14.859,14.859,0,0,0,51.92,47.48v7.4l7.49-6.241A14.86,14.86,0,0,0,57.867,19Zm.844,26.718-.479.033-3.339,2.783V45.419l-.99-.349a11.9,11.9,0,1,1,4.808.648Z" transform="translate(20.443 8.761)"/><path d="M44,58h2.973v2.973H44Z" transform="translate(20.93 27.744)"/><path d="M48,58h2.973v2.973H48Z" transform="translate(22.877 27.744)"/><path d="M29,51h2.973v2.973H29Z" transform="translate(13.629 24.337)"/><path d="M29,55h2.973v2.973H29Z" transform="translate(13.629 26.284)"/><path d="M41,5h2.973V7.973H41Z" transform="translate(19.47 1.947)"/><path d="M45,5h2.973V7.973H45Z" transform="translate(21.417 1.947)"/><path d="M30,37h2.973v2.973H30Z" transform="translate(14.116 17.523)"/><path d="M34,37h2.973v2.973H34Z" transform="translate(16.063 17.523)"/><path d="M48.576,23.866V6.2a5.2,5.2,0,1,0-10.407,0V20.457l-8.546.781a10.407,10.407,0,1,0-14.833.8A16.366,16.366,0,0,0,1,38.169v4.46a7.442,7.442,0,0,0,7.434,7.434H9.92V86.488a6.663,6.663,0,0,0,11.894,4.154,6.663,6.663,0,0,0,11.894-4.154V32.08l8.174-.818a7.412,7.412,0,0,0,6.693-7.4Zm-34.2-9.485a7.434,7.434,0,1,1,7.434,7.434A7.442,7.442,0,0,1,14.381,14.381Zm5.2,35.682a5.2,5.2,0,1,0,0-10.407h-6.69V36.682H24.788V54.523H12.894v-4.46ZM16.611,90.2a3.72,3.72,0,0,1-3.717-3.717V57.5h7.434V86.488A3.72,3.72,0,0,1,16.611,90.2Zm10.407,0A3.72,3.72,0,0,1,23.3,86.488V57.5h4.46V51.549h2.973V86.488A3.72,3.72,0,0,1,27.018,90.2Zm3.717-60.815V48.576H27.761V33.708H9.92v5.947H6.947v2.973H19.584a2.23,2.23,0,1,1,0,4.46H8.434a4.466,4.466,0,0,1-4.46-4.46v-4.46A13.4,13.4,0,0,1,17.354,24.788l4.377,0c.028,0,.055,0,.083,0s.056,0,.086,0h1.536l17.706-1.61V6.2a2.23,2.23,0,1,1,4.46,0V23.866A4.445,4.445,0,0,1,41.587,28.3Z" transform="translate(0)"/></g></g></svg>