<svg xmlns="http://www.w3.org/2000/svg" width="96.431" height="96.431" viewBox="0 0 96.431 96.431"><g transform="translate(-1057 -948.836)"><g transform="translate(888.846 479.686)"><path d="M216.081,486.834l3.111-1.555v4.666l5.428.9a4.66,4.66,0,0,1,3.9,4.6V505.5H203.638V495.452a4.659,4.659,0,0,1,3.9-4.6l5.428-.9v-3.111l.156-.746a6.257,6.257,0,0,0,2.955.746Zm0,0" transform="translate(-1.266 -0.576)" fill="#ffc200"/><path d="M185.436,486.834l3.111-1.555v4.666l5.428.9a4.66,4.66,0,0,1,3.9,4.6V505.5H172.993V495.452a4.659,4.659,0,0,1,3.9-4.6l5.428-.9v-3.111l.155-.746a6.264,6.264,0,0,0,2.956.746Zm0,0" transform="translate(-0.173 -0.576)" fill="#6bbcb1"/><path d="M222.532,476.985V480.1a6.222,6.222,0,0,1-12.443,0v-3.111a6.222,6.222,0,1,1,12.443,0Zm0,0" transform="translate(-1.497 -0.058)" fill="#f0d0b4"/><path d="M191.887,476.985V480.1a6.221,6.221,0,0,1-12.443,0v-3.111a6.221,6.221,0,1,1,12.443,0Zm0,0" transform="translate(-0.403 -0.058)" fill="#f0d0b4"/><path d="M233.536,506.247H169.767v59.1h93.32v-59.1Zm0,0" transform="translate(-0.058 -1.324)" fill="#e6e9ed"/><rect width="6.221" height="6.221" transform="translate(235.034 475.372)" fill="#6bbcb1"/><rect width="9.332" height="6.221" transform="translate(233.478 487.814)" fill="#6bbcb1"/><path d="M258.708,539.433v-6.222L255.1,532.5a15.7,15.7,0,0,0-1.7-4.106l2.038-3.064-4.4-4.4-3.065,2.037a15.778,15.778,0,0,0-3.266-1.461h-9.332a15.81,15.81,0,0,0-3.267,1.461l-3.064-2.037-4.4,4.4,2.038,3.064a15.707,15.707,0,0,0-1.7,4.106l-3.607.716v6.222l3.607.716a15.707,15.707,0,0,0,1.7,4.106l-2.038,3.064,4.4,4.4,3.064-2.038a15.681,15.681,0,0,0,4.107,1.7l.716,3.608h6.221l.715-3.608a15.66,15.66,0,0,0,4.106-1.7l3.065,2.038,4.4-4.4-2.038-3.064a15.7,15.7,0,0,0,1.7-4.106Zm-9.378-2.286a3.542,3.542,0,0,1-.063.591c0,.031-.015.063-.015.094-.032.217-.078.435-.124.637a9.1,9.1,0,0,1-.778,2.116c-.094.155-.171.31-.264.466a6.214,6.214,0,0,1-.435.669,9.323,9.323,0,0,1-2.208,2.208,6.064,6.064,0,0,1-.669.436c-.156.094-.311.171-.467.264a9.06,9.06,0,0,1-2.116.777c-.2.047-.419.094-.637.124-.031,0-.062.016-.094.016a3.63,3.63,0,0,1-.591.063,7.15,7.15,0,0,1-.825.046,9.34,9.34,0,0,1-9.332-9.333,7.165,7.165,0,0,1,.046-.823,3.541,3.541,0,0,1,.063-.592c0-.031.015-.063.015-.094.032-.217.078-.435.124-.636a9.093,9.093,0,0,1,.778-2.117c.094-.154.171-.31.264-.466a6.2,6.2,0,0,1,.435-.669,9.168,9.168,0,0,1,2.94-2.675h9.332c.171.094.342.2.514.311.279.187.544.39.808.607.2.171.39.342.576.529a5.551,5.551,0,0,1,.5.543,2.227,2.227,0,0,1,.3.358,7.733,7.733,0,0,1,.7,1.043c.094.14.171.279.248.419.141.281.264.561.374.84.077.172.139.358.2.529a9.869,9.869,0,0,1,.405,2.038,7.733,7.733,0,0,1,.046.855,7.171,7.171,0,0,1-.046.825Zm0,0" transform="translate(-1.899 -1.848)" fill="#ffc200"/><rect width="9.332" height="31.107" transform="translate(233.478 494.036)" fill="#aab2bd"/><path d="M245.228,527.215v4.665l-4.666,6.222L235.9,531.88v-4.665Zm0,0" transform="translate(-2.418 -2.072)" fill="#6bbcb1"/><path d="M240.331,544.436A7.767,7.767,0,0,1,234,532.159l-2.534-1.8a10.877,10.877,0,0,0,15.172,15.171l-1.8-2.534a7.716,7.716,0,0,1-4.5,1.445Zm0,0" transform="translate(-2.187 -2.184)"/><path d="M250.587,503.368V498.7a6.228,6.228,0,0,0-6.222-6.221v-6.222H239.7v-3.111h3.111v-9.332h-9.332v9.332h3.111v3.111h-4.666v17.109h-3.111v-8.489a6.2,6.2,0,0,0-5.2-6.137l-4.133-.689v-1.794h-.048a7.75,7.75,0,0,0,3.158-6.221v-3.111a7.777,7.777,0,1,0-15.553,0v3.111a7.751,7.751,0,0,0,3.159,6.221h-.048v1.794l-4.133.689a6.2,6.2,0,0,0-5.2,6.137v8.489h-1.555v-8.489a6.2,6.2,0,0,0-5.2-6.137l-4.133-.689v-1.794h-.047a7.75,7.75,0,0,0,3.158-6.221v-3.111a7.777,7.777,0,1,0-15.553,0v3.111a7.748,7.748,0,0,0,3.159,6.221H180.6v1.794l-4.133.689a6.2,6.2,0,0,0-5.2,6.137v8.489h-3.111v62.214h96.431V503.368Zm-14-26.44h3.11v3.111h-3.11Zm4.665,12.443v3.111h-6.221V489.37Zm8.911,37.963a13.91,13.91,0,0,1,1.53,3.692l.241.95,3.315.662v3.673l-3.315.662-.241.951a13.955,13.955,0,0,1-1.53,3.692l-.5.841,1.875,2.817-2.6,2.6-2.817-1.876-.841.5a13.924,13.924,0,0,1-3.692,1.53l-.951.241-.662,3.317h-3.673l-.662-3.315-.95-.242A13.943,13.943,0,0,1,231,546.5l-.842-.5-2.817,1.876-2.6-2.6,1.877-2.817-.5-.842a13.877,13.877,0,0,1-1.53-3.692l-.242-.95-3.316-.663v-3.672l3.315-.662.241-.95a13.95,13.95,0,0,1,1.53-3.693l.5-.841-1.875-2.817,2.6-2.6,2.817,1.876.841-.5c.3-.175.612-.308.921-.462v8.335l6.221,8.3,6.222-8.3v-.5a7.736,7.736,0,0,1,.112,9.152l2.534,1.8a10.843,10.843,0,0,0-2.646-15.215v-3.574c.309.154.625.286.921.462l.841.5,2.817-1.875,2.6,2.6-1.875,2.817Zm-15.132-.635h6.221v2.592l-3.111,4.147-3.11-4.147Zm6.221-3.111h-6.221v-28h6.221Zm-31.107-46.66a4.666,4.666,0,1,1,9.333,0v3.111a4.666,4.666,0,0,1-9.333,0Zm-6.221,17.952a3.1,3.1,0,0,1,2.6-3.069l6.733-1.122v-3.03a7.773,7.773,0,0,0,3.111,0v3.03l6.733,1.121a3.1,3.1,0,0,1,2.6,3.07v8.489H203.927ZM180.6,476.927a4.666,4.666,0,1,1,9.332,0v3.111a4.666,4.666,0,0,1-9.332,0Zm-6.222,17.952a3.1,3.1,0,0,1,2.6-3.069l6.734-1.122v-3.03a7.773,7.773,0,0,0,3.111,0v3.03l6.733,1.121a3.1,3.1,0,0,1,2.6,3.07v8.489H174.375Zm87.1,67.592h-90.21V506.479h60.658v12.084a16.718,16.718,0,0,0-1.644.736l-3.334-2.222-6.2,6.2,2.223,3.334a17.053,17.053,0,0,0-1.117,2.692l-3.926.788v8.769l3.926.788a16.762,16.762,0,0,0,1.117,2.692l-2.223,3.333,6.2,6.2,3.334-2.224a17.019,17.019,0,0,0,2.692,1.118l.789,3.926h8.77l.787-3.926a16.854,16.854,0,0,0,2.692-1.118l3.334,2.224,6.2-6.2-2.223-3.333a17.092,17.092,0,0,0,1.117-2.692l3.926-.789v-8.77l-3.926-.788a16.764,16.764,0,0,0-1.117-2.692l2.223-3.333-6.2-6.2L246.01,519.3a16.734,16.734,0,0,0-1.644-.736V495.591a3.113,3.113,0,0,1,3.111,3.11v10.888a4.672,4.672,0,0,0,4.666,4.665h3.11v-3.11h-3.11a1.558,1.558,0,0,1-1.555-1.555v-3.111h10.887Zm0,0" transform="translate(0 0)"/><rect width="3.111" height="3.111" transform="translate(214.814 511.144)"/><rect width="3.111" height="3.111" transform="translate(208.593 511.144)"/><rect width="3.111" height="3.111" transform="translate(202.371 511.144)"/><path d="M205.8,534.888l3.98-7.96h8.371v-3.111H207.861L205.62,528.3l-5.227-9.148H174.6v3.111h23.983Zm0,0" transform="translate(-0.23 -1.784)"/><rect width="23.33" height="3.111" transform="translate(174.375 523.587)"/><rect width="23.33" height="3.111" transform="translate(174.375 529.809)"/><path d="M210.551,550.948H207.44v7.777h-3.11V546.282h-3.111v12.443h-3.111v-20.22H195v20.22h-3.111V546.282h-3.11v12.443h-3.111v-7.777h-3.111v7.777h-3.111v3.111h34.218v-3.111h-3.111Zm0,0" transform="translate(-0.403 -2.475)"/><rect width="3.111" height="3.111" transform="translate(255.253 556.249)"/><rect width="3.111" height="3.111" transform="translate(249.032 556.249)"/><rect width="3.111" height="3.111" transform="translate(242.81 556.249)"/></g></g></svg>