<svg id="Grupo_879749" data-name="Grupo 879749" xmlns="http://www.w3.org/2000/svg" xmlns:xlink="http://www.w3.org/1999/xlink" width="365.736" height="214.803" viewBox="0 0 365.736 214.803">
  <defs>
    <clipPath id="clip-path">
      <rect id="Rectángulo_57144" data-name="Rectángulo 57144" width="365.736" height="214.803" fill="none"/>
    </clipPath>
    <clipPath id="clip-path-6">
      <rect id="Rectángulo_57141" data-name="Rectángulo 57141" width="7.732" height="28.266" fill="none"/>
    </clipPath>
    <linearGradient id="linear-gradient" x1="0.5" x2="0.5" y2="1" gradientUnits="objectBoundingBox">
      <stop offset="0" stop-color="#278d7e"/>
      <stop offset="1" stop-color="#4fc1b1"/>
    </linearGradient>
    <linearGradient id="linear-gradient-5" x1="0.5" x2="0.5" y2="1" gradientUnits="objectBoundingBox">
      <stop offset="0" stop-color="#fdbe41"/>
      <stop offset="1" stop-color="#d09f40"/>
    </linearGradient>
  </defs>
  <g id="Grupo_177470" data-name="Grupo 177470" clip-path="url(#clip-path)">
    <g id="Grupo_177458" data-name="Grupo 177458">
      <g id="Grupo_177457" data-name="Grupo 177457" clip-path="url(#clip-path)">
        <path id="Trazado_226199" data-name="Trazado 226199" d="M25.944,156.843a1.767,1.767,0,0,0,.851-.3,1.609,1.609,0,0,0,.606-.887,2.617,2.617,0,0,0,.056-.7q0-.385,0-.816c.022-2.324.052-5.656.09-9.767q.017-1.547.036-3.236.01-.844.02-1.722a4.873,4.873,0,0,0-.025-.856,1.46,1.46,0,0,0-.379-.723,1.375,1.375,0,0,0-.725-.391,7.245,7.245,0,0,0-.906-.023l-1.908,0-3.984.007-17.738.013a1.441,1.441,0,0,0-1.4,1.323q-.019,1.159-.039,2.3-.033,2.3-.067,4.525C.39,148.563.346,151.425.3,154.152q-.008.51-.016,1.016a1.511,1.511,0,0,0,.215.882,1.381,1.381,0,0,0,.677.566,2.4,2.4,0,0,0,.913.092l3.758.007,6.745.019,9.766.049,2.655.029.69.015a1.309,1.309,0,0,1,.235.016,1.311,1.311,0,0,1-.235.016l-.69.016-2.655.029-9.766.051-6.745.019-3.758.008a2.649,2.649,0,0,1-1.013-.107,1.659,1.659,0,0,1-.817-.678A1.8,1.8,0,0,1,0,155.163q.006-.5.013-1.016c.036-2.727.073-5.589.113-8.555q.031-2.226.062-4.526.02-1.155.04-2.326a1.753,1.753,0,0,1,1.712-1.608l17.738.011,3.984.006,1.908,0a7.184,7.184,0,0,1,.955.032,1.636,1.636,0,0,1,.862.47,1.713,1.713,0,0,1,.443.853,4.925,4.925,0,0,1,.025.91q-.014.878-.029,1.722-.03,1.687-.057,3.236c-.079,4.11-.144,7.442-.189,9.766q-.01.432-.019.816a2.69,2.69,0,0,1-.074.722,1.658,1.658,0,0,1-.659.914,1.511,1.511,0,0,1-.651.246.893.893,0,0,1-.237,0" transform="translate(0 -54.582)" fill="#455a64"/>
        <path id="Trazado_226200" data-name="Trazado 226200" d="M22.6,149.554l3.288,2-3.358,1.971-3.359,1.97.071-3.966.07-3.966Z" transform="translate(-7.631 -58.732)" fill="#455a64"/>
        <path id="Trazado_226201" data-name="Trazado 226201" d="M522.438,47.537a6.074,6.074,0,0,0,3.619-5.619,5.708,5.708,0,1,0-11.392-.053,6.064,6.064,0,0,0,3.63,5.672c-8.766,1.321-8.369,10.848-8.369,10.848l20.729.1s.473-9.631-8.217-10.943" transform="translate(-202.962 -14.256)" fill="#b1daf6"/>
        <rect id="Rectángulo_57137" data-name="Rectángulo 57137" width="33.765" height="22.759" transform="translate(163.022 15.015) rotate(-5.419)" fill="#fff"/>
        <path id="Trazado_226202" data-name="Trazado 226202" d="M306.451,42.212s-.023-.146-.054-.419-.073-.686-.128-1.2c-.108-1.062-.265-2.6-.465-4.563-.389-3.942-.948-9.586-1.628-16.461l.137.113L270.7,22.9c-.033.037.265-.323.139-.167v.017l0,.024,0,.047.009.095.018.19.035.377.072.754q.071.752.142,1.5.142,1.494.281,2.968.278,2.945.547,5.793l1.023,10.891-.156-.129,24.2-2.224,6.931-.619,1.85-.158.48-.037a1.4,1.4,0,0,1,.169-.008.967.967,0,0,1-.15.023l-.464.052-1.818.19-6.891.693-24.278,2.374-.143.014-.013-.143c-.33-3.452-.68-7.1-1.043-10.889q-.271-2.844-.552-5.792-.14-1.473-.282-2.968-.07-.748-.142-1.5l-.072-.754-.036-.377-.017-.189-.009-.1,0-.047,0-.023v-.018c-.127.15.172-.212.143-.174L304.29,19.43l.125-.012.011.125c.628,6.912,1.144,12.588,1.5,16.551.172,1.953.306,3.484.4,4.541q.063.761.1,1.181c.02.265.024.4.024.4" transform="translate(-107.666 -7.729)" fill="#455a64"/>
        <path id="Trazado_226203" data-name="Trazado 226203" d="M304.425,19.645a2.2,2.2,0,0,1-.26.335l-.792.923-2.964,3.366-9.945,11.12-.089.1-.112-.072-.9-.571-13.158-8.44-3.968-2.588-1.07-.718a2.429,2.429,0,0,1-.362-.268,2.4,2.4,0,0,1,.4.215l1.1.668,4.021,2.5,13.207,8.363.9.571-.2.027,10.016-11.056,3.036-3.3.835-.885a2.235,2.235,0,0,1,.306-.294" transform="translate(-107.789 -7.819)" fill="#455a64"/>
        <path id="Trazado_226204" data-name="Trazado 226204" d="M190.534,58.544a15.217,15.217,0,0,0-.34-2.176,8.58,8.58,0,0,0-1-2.362,8.862,8.862,0,0,0-10.638-3.755,8.86,8.86,0,0,0-4.1,3.079,8.784,8.784,0,0,0,0,10.426,8.85,8.85,0,0,0,4.1,3.08,8.889,8.889,0,0,0,10.638-3.756,8.6,8.6,0,0,0,1-2.361,15.282,15.282,0,0,0,.34-2.176.494.494,0,0,1,.008.146c0,.115,0,.256-.006.428a4.064,4.064,0,0,1-.055.695,6.262,6.262,0,0,1-.169.937,8.464,8.464,0,0,1-.972,2.421,9.056,9.056,0,0,1-6.1,4.316,9.112,9.112,0,0,1-4.786-.378,9.105,9.105,0,0,1-4.245-3.17,9.067,9.067,0,0,1,0-10.79,9.116,9.116,0,0,1,4.245-3.169,9.11,9.11,0,0,1,4.786-.378,9.056,9.056,0,0,1,6.1,4.315,8.463,8.463,0,0,1,.972,2.421,6.255,6.255,0,0,1,.169.938,4.059,4.059,0,0,1,.055.695c0,.172,0,.313.006.428a.493.493,0,0,1-.008.146" transform="translate(-68.631 -19.68)" fill="#263238"/>
        <path id="Trazado_226205" data-name="Trazado 226205" d="M213.272,83.228c-.048.072-3.224-1.974-7.091-4.571s-6.965-4.759-6.917-4.831,3.222,1.974,7.091,4.571,6.965,4.759,6.917,4.831" transform="translate(-79.311 -29.384)" fill="#263238"/>
        <path id="Trazado_226206" data-name="Trazado 226206" d="M262.092,107.364l-7.03-7.563,2.277-2.116,4.853,5.221,10.192-10.027,2.18,2.215Z" transform="translate(-101.521 -36.968)" fill="#7f4fc7"/>
      </g>
    </g>
    <g id="Grupo_177460" data-name="Grupo 177460">
      <g id="Grupo_177459" data-name="Grupo 177459" clip-path="url(#clip-path)">
        <path id="Trazado_226207" data-name="Trazado 226207" d="M565.859,104.823s.115,0,.341,0l.42.014c.167.015.359.048.578.077a7.665,7.665,0,0,1,3.52,1.543,7.888,7.888,0,0,1,2.958,5.267,18.208,18.208,0,0,1,.059,1.873q0,.964.005,1.99,0,2.052.011,4.337t.01,4.788q0,1.251,0,2.554a9.239,9.239,0,0,1-.265,2.663,7.878,7.878,0,0,1-5.943,5.719,13.805,13.805,0,0,1-3.04.19l-26.871.018.11-.046-6.064,6.066-.268.268V135.7l.156.157a14.892,14.892,0,0,1-1.993-.073,7.893,7.893,0,0,1-1.932-.5,7.928,7.928,0,0,1-4.829-5.8,10.1,10.1,0,0,1-.156-1.909q0-.941,0-1.872,0-3.727,0-7.31,0-1.79,0-3.54a27.421,27.421,0,0,1,.108-3.474,7.908,7.908,0,0,1,6.628-6.589,23.594,23.594,0,0,1,3.1-.1l11.223.019,16.2.049,4.394.029,1.141.015c.257.005.389.016.389.016s-.132.01-.389.016l-1.141.015-4.394.029-16.2.049-11.223.019a23.463,23.463,0,0,0-3.056.1,7.608,7.608,0,0,0-6.386,6.372,27.414,27.414,0,0,0-.1,3.43q0,1.75,0,3.54,0,3.58,0,7.31a22.19,22.19,0,0,0,.152,3.721,7.872,7.872,0,0,0,1.6,3.35,7.79,7.79,0,0,0,3.045,2.219,7.561,7.561,0,0,0,1.857.482,14.628,14.628,0,0,0,1.953.07h.157v6.222l-.267-.111,6.066-6.064.046-.046h.064l26.871.018a13.569,13.569,0,0,0,2.983-.178,7.623,7.623,0,0,0,5.765-5.519,8.981,8.981,0,0,0,.266-2.6q0-1.3,0-2.554.005-2.5.01-4.788t.011-4.337q0-1.025.006-1.99a18.129,18.129,0,0,0-.046-1.855,7.761,7.761,0,0,0-6.327-6.771c-.217-.034-.407-.07-.573-.09l-.418-.028c-.224-.016-.339-.032-.339-.032" transform="translate(-208.035 -41.67)" fill="#263238"/>
        <path id="Trazado_226208" data-name="Trazado 226208" d="M552.364,131.044c-.027,0-.033-.154-.113-.408a1.732,1.732,0,0,0-.637-.879,1.627,1.627,0,0,0-1.519-.2,1.589,1.589,0,0,0,0,2.977,1.627,1.627,0,0,0,1.519-.2,1.732,1.732,0,0,0,.637-.879c.08-.254.086-.408.113-.408a.748.748,0,0,1,0,.437,1.721,1.721,0,0,1-.621,1.026,1.831,1.831,0,0,1-1.752.3,1.865,1.865,0,0,1,0-3.52,1.831,1.831,0,0,1,1.752.3,1.721,1.721,0,0,1,.621,1.026.748.748,0,0,1,0,.437" transform="translate(-218.415 -51.417)" fill="#263238"/>
        <path id="Trazado_226209" data-name="Trazado 226209" d="M565.622,130.914c-.027,0-.033-.154-.113-.408a1.732,1.732,0,0,0-.637-.879,1.627,1.627,0,0,0-1.519-.2,1.589,1.589,0,0,0,0,2.977,1.627,1.627,0,0,0,1.519-.2,1.732,1.732,0,0,0,.637-.879c.08-.254.086-.408.113-.408a.747.747,0,0,1,0,.437,1.718,1.718,0,0,1-.621,1.026,1.831,1.831,0,0,1-1.752.3,1.865,1.865,0,0,1,0-3.52,1.831,1.831,0,0,1,1.752.3,1.718,1.718,0,0,1,.621,1.026.747.747,0,0,1,0,.437" transform="translate(-223.692 -51.365)" fill="#263238"/>
        <path id="Trazado_226210" data-name="Trazado 226210" d="M578.88,130.914c-.027,0-.033-.154-.113-.408a1.732,1.732,0,0,0-.637-.879,1.627,1.627,0,0,0-1.519-.2,1.589,1.589,0,0,0,0,2.977,1.627,1.627,0,0,0,1.519-.2,1.732,1.732,0,0,0,.637-.879c.08-.254.086-.408.113-.408a.748.748,0,0,1,0,.437,1.718,1.718,0,0,1-.621,1.026,1.831,1.831,0,0,1-1.752.3,1.865,1.865,0,0,1,0-3.52,1.831,1.831,0,0,1,1.752.3,1.718,1.718,0,0,1,.621,1.026.748.748,0,0,1,0,.437" transform="translate(-228.969 -51.365)" fill="#263238"/>
        <path id="Trazado_226211" data-name="Trazado 226211" d="M82.96,59.021c0-5.168-5.43-8.442-10.966-5.851a6.289,6.289,0,0,0-2.912,2.792c-1.393,2.7-.778,5.779.485,8.337l4.308,10.92a1.857,1.857,0,0,0,3.46-.014l4.224-10.977a13.5,13.5,0,0,0,1.4-5.206m-5.2,4.5c-3.721,2.164-7.493-1.836-5.453-5.783a3.108,3.108,0,0,1,1.182-1.254c3.722-2.164,7.494,1.836,5.453,5.784a3.1,3.1,0,0,1-1.182,1.253" transform="translate(-27.18 -20.802)" fill="#12263f"/>
        <path id="Trazado_226212" data-name="Trazado 226212" d="M86.851,63.336l0,0h0s.029.068.074.2l.2.582.751,2.276c.653,2.008,1.609,4.948,2.838,8.727l.039.119-.124-.023L78.5,72.994l-.084-.015v-.085h0l.163.082a30.214,30.214,0,0,1-14.033,5.79,30.651,30.651,0,0,1-4.3.287,33.1,33.1,0,0,1-4.469-.374,32.259,32.259,0,0,1-4.538-1.015L49,76.843a8.426,8.426,0,0,1-1.106-.48l-1.1-.527a31.177,31.177,0,0,1-8.1-5.872A29.887,29.887,0,0,1,32.737,61.3,30.334,30.334,0,0,1,61.518,18.315a30.259,30.259,0,0,1,29.116,28.41,28.8,28.8,0,0,1-.824,9.26,29.531,29.531,0,0,1-2,5.537c-.3.606-.53,1.065-.7,1.354l-.262.46.23-.459c.163-.315.391-.772.675-1.382a30.524,30.524,0,0,0,1.936-5.539,28.892,28.892,0,0,0,.768-9.219,30.164,30.164,0,0,0-46.816-23.1,30.073,30.073,0,0,0-10.628,37.53A29.632,29.632,0,0,0,38.9,69.757a30.938,30.938,0,0,0,8.017,5.825l1.086.524a8.354,8.354,0,0,0,1.1.477l2.219.814a32.1,32.1,0,0,0,4.495,1.014,32.918,32.918,0,0,0,4.43.38,30.09,30.09,0,0,0,18.212-5.981l.163-.123v.2h0l-.083-.1,12.121,2.275-.085.1L87.8,66.416l-.714-2.288-.178-.588c-.039-.133-.055-.205-.055-.205h0" transform="translate(-11.938 -7.276)" fill="#263238"/>
        <path id="Trazado_226213" data-name="Trazado 226213" d="M426.105,39.509a4.76,4.76,0,0,1-.121-1.07,8.769,8.769,0,0,0-.144-1.285,12.613,12.613,0,0,0-.337-1.726,16.169,16.169,0,0,0-1.793-4.44,16.623,16.623,0,0,0-4.129-4.756,16.452,16.452,0,0,0-15.508-2.665,15.421,15.421,0,0,0-4.2,2.139,18.607,18.607,0,0,0-1.893,1.537,18.6,18.6,0,0,0-1.647,1.862,16.32,16.32,0,0,0-.471,19.347,15,15,0,0,0,3.372,3.568,15.415,15.415,0,0,0,4.086,2.342A16.577,16.577,0,0,0,423.3,47.9a16.165,16.165,0,0,0,2.005-4.348,12.512,12.512,0,0,0,.421-1.707,8.769,8.769,0,0,0,.206-1.276,4.761,4.761,0,0,1,.173-1.062,4.681,4.681,0,0,1,.013,1.079,7.571,7.571,0,0,1-.12,1.3,11.651,11.651,0,0,1-.345,1.758,15.833,15.833,0,0,1-1.915,4.527,17.054,17.054,0,0,1-11.689,7.9,17.213,17.213,0,0,1-9.034-.921,16.166,16.166,0,0,1-4.319-2.438,15.8,15.8,0,0,1-3.572-3.746,17.15,17.15,0,0,1,.5-20.42,15.784,15.784,0,0,1,3.749-3.567,16.2,16.2,0,0,1,4.432-2.226,17.215,17.215,0,0,1,9.067-.481,17.054,17.054,0,0,1,11.292,8.457,15.827,15.827,0,0,1,1.693,4.615,11.66,11.66,0,0,1,.259,1.773,7.528,7.528,0,0,1,.057,1.309,4.678,4.678,0,0,1-.065,1.077" transform="translate(-156.025 -8.713)" fill="#455a64"/>
        <path id="Trazado_226214" data-name="Trazado 226214" d="M425.6,33.267c.037.052-.267.316-.852.752l-1.082.777c-.215.147-.439.314-.689.47l-.828.433a18.991,18.991,0,0,1-9.892,2.491l-1.5-.067-1.437-.225c-.235-.04-.469-.071-.7-.117l-.671-.179c-.441-.122-.878-.226-1.294-.359a21.634,21.634,0,0,1-4.2-1.934c-2.255-1.363-3.352-2.6-3.267-2.683.091-.1,1.317.934,3.588,2.113a25.262,25.262,0,0,0,4.131,1.69c.4.117.824.205,1.248.315l.645.16.669.1,1.373.2,1.427.057a20.484,20.484,0,0,0,9.578-2.15l.838-.364c.255-.133.487-.276.71-.4l1.148-.633c.639-.338,1.012-.5,1.049-.45" transform="translate(-158.889 -12.983)" fill="#455a64"/>
        <path id="Trazado_226215" data-name="Trazado 226215" d="M398.35,64.417c-.037-.052.267-.315.852-.751l1.082-.777c.215-.147.439-.313.689-.47l.828-.433a18.991,18.991,0,0,1,9.892-2.491l1.5.067,1.437.225c.235.039.469.071.7.117l.671.179c.441.122.878.226,1.294.359a21.706,21.706,0,0,1,4.2,1.934c2.255,1.363,3.352,2.6,3.267,2.683-.091.1-1.317-.934-3.588-2.113a25.316,25.316,0,0,0-4.131-1.69c-.4-.117-.824-.205-1.248-.314l-.645-.16-.669-.1-1.373-.2-1.427-.057a20.476,20.476,0,0,0-9.578,2.151l-.838.364c-.255.134-.487.276-.71.4l-1.148.633c-.639.338-1.013.5-1.049.45" transform="translate(-158.551 -23.676)" fill="#455a64"/>
        <path id="Trazado_226216" data-name="Trazado 226216" d="M426.4,51.129c-.006.255-7.543.279-16.831.054s-16.816-.616-16.81-.871,7.541-.279,16.832-.054,16.815.616,16.809.871" transform="translate(-156.326 -19.942)" fill="#455a64"/>
        <path id="Trazado_226217" data-name="Trazado 226217" d="M419.271,56.16c-.255-.006-.279-7.54-.054-16.826s.615-16.811.871-16.8.279,7.539.054,16.828-.615,16.809-.87,16.8" transform="translate(-166.797 -8.967)" fill="#455a64"/>
        <path id="Trazado_226218" data-name="Trazado 226218" d="M413.876,56.128c-.063.1-1.917-1.159-4.056-4a22.628,22.628,0,0,1-3.007-5.459,20.3,20.3,0,0,1-1.3-7.539,19.3,19.3,0,0,1,1.7-7.462,23.386,23.386,0,0,1,3.286-5.291c2.266-2.738,4.134-3.951,4.2-3.854.091.1-1.6,1.482-3.682,4.257A25.2,25.2,0,0,0,407.992,32a19.381,19.381,0,0,0-1.556,7.141,20.477,20.477,0,0,0,1.177,7.228,24.293,24.293,0,0,0,2.74,5.374c1.947,2.867,3.617,4.281,3.523,4.382" transform="translate(-161.401 -8.961)" fill="#455a64"/>
        <path id="Trazado_226219" data-name="Trazado 226219" d="M420.85,22.534c.063-.1,1.917,1.159,4.056,4A22.628,22.628,0,0,1,427.913,32a20.3,20.3,0,0,1,1.3,7.539,19.3,19.3,0,0,1-1.7,7.462,23.372,23.372,0,0,1-3.286,5.291c-2.266,2.738-4.134,3.951-4.2,3.854-.091-.105,1.6-1.483,3.682-4.257a25.2,25.2,0,0,0,3.019-5.227,19.378,19.378,0,0,0,1.556-7.141,20.48,20.48,0,0,0-1.177-7.228,24.31,24.31,0,0,0-2.74-5.374c-1.947-2.867-3.617-4.281-3.523-4.382" transform="translate(-167.182 -8.967)" fill="#455a64"/>
        <path id="Trazado_226220" data-name="Trazado 226220" d="M383.9,55.445v0h0s-.071.023-.205.057l-.6.144-2.333.545-8.945,2.051-.122.028.034-.121c.909-3.283,2.02-7.3,3.291-11.885l.022-.082.085.007h0l-.1.156a30.213,30.213,0,0,1-4.52-14.493,30.6,30.6,0,0,1,.1-4.311,33.194,33.194,0,0,1,.77-4.418A32.213,32.213,0,0,1,372.8,18.7q.5-1.071,1.014-2.16a8.41,8.41,0,0,1,.577-1.06l.622-1.046a31.177,31.177,0,0,1,6.569-7.547,29.9,29.9,0,0,1,9.163-5.16,30.358,30.358,0,0,1,36.808,14.063,30.328,30.328,0,0,1-27.44,44.9,28.794,28.794,0,0,1-9.15-1.644,29.516,29.516,0,0,1-5.338-2.482c-.577-.347-1.013-.622-1.286-.817l-.435-.3.437.27c.3.19.735.458,1.317.794A30.5,30.5,0,0,0,391,58.93a28.893,28.893,0,0,0,9.115,1.584,30.165,30.165,0,0,0,27.167-44.578A30.073,30.073,0,0,0,390.848,2.014a29.626,29.626,0,0,0-9.077,5.1,30.942,30.942,0,0,0-6.515,7.467l-.618,1.035a8.289,8.289,0,0,0-.573,1.049l-1.009,2.139a32.073,32.073,0,0,0-1.409,4.387,32.878,32.878,0,0,0-.772,4.379,30.372,30.372,0,0,0-.106,4.275,30.063,30.063,0,0,0,4.444,14.4l.108.174-.2-.019h0l.107-.074L371.88,58.194l-.089-.093,8.96-1.982,2.342-.507.6-.126c.135-.027.209-.037.209-.037v0" transform="translate(-147.462 0)" fill="#263238"/>
      </g>
    </g>
    <g id="Grupo_177462" data-name="Grupo 177462">
      <g id="Grupo_177461" data-name="Grupo 177461" clip-path="url(#clip-path)">
        <path id="Trazado_226221" data-name="Trazado 226221" d="M428.051,115.679c-2.943.685-4.829,3.668-5.458,6.623s-.322,6.025-.6,9.033-1.336,6.206-3.868,7.855l2.52.729a6.882,6.882,0,0,1-2.961,3.794,5.615,5.615,0,0,0,3.443,1.173c-1.483.393-1.893,2.509-1.074,3.806a6.154,6.154,0,0,0,3.864,2.286,10.146,10.146,0,0,0,5.358.163,8.577,8.577,0,0,0,5.2-5.241,22.072,22.072,0,0,0,1.176-7.509,66.972,66.972,0,0,0-1.818-18.987,6.63,6.63,0,0,0-2.207-3.955c-1.268-.878-3.439-.523-3.82.973" transform="translate(-166.247 -45.764)" fill="#12263f"/>
        <path id="Trazado_226222" data-name="Trazado 226222" d="M481.559,239c-.7-2.664-4.77-17.648-8.407-27.439-4.037-10.866-12.368-13.107-12.368-13.107-18.751-6.4-35.6-6.436-53.6-.2-.576.179-1.135.37-1.672.579l-.059.02h0c-13.345,5.238-14.723,19.335-14.723,19.335L385.129,252.4a7.586,7.586,0,0,0-.134.82l-.054.324.023,0a8.01,8.01,0,0,0,4.586,7.725c7.837,3.608,15.316,2.752,21.742.1l-4.669,6.8h55.614l-3.718-8.991,1.237-5.407,8.614,10.366a8.024,8.024,0,0,0,3.965,2.586c9.931,1.154,11.538-13.638,9.67-22.243h0" transform="translate(-153.216 -77.062)" fill="#0b67d1"/>
        <path id="Trazado_226223" data-name="Trazado 226223" d="M466.988,194.346s-8.97,45.136-12.133,44.8S436.868,195.2,436.868,195.2s18.95-5.055,30.12-.853" transform="translate(-173.884 -76.69)" fill="#ffbe9d"/>
        <path id="Trazado_226224" data-name="Trazado 226224" d="M438.692,168c-.048-5.2-.193-10.666-.193-10.666s-6.7-1.071-8.141-9.8c-1.373-8.322-.117-27.564-.117-27.564A25.1,25.1,0,0,1,458.2,126.2l-.309,42.209c-.036,4.9-4.278,8.772-9.524,8.694-5.3-.079-9.627-4.154-9.673-9.1" transform="translate(-171.037 -47.008)" fill="#ffbe9d"/>
        <path id="Trazado_226225" data-name="Trazado 226225" d="M434.278,144.722a1.12,1.12,0,0,0,1.087,1.123,1.07,1.07,0,0,0,1.148-1.017,1.12,1.12,0,0,0-1.085-1.124,1.073,1.073,0,0,0-1.15,1.018" transform="translate(-172.853 -57.197)" fill="#263238"/>
        <path id="Trazado_226226" data-name="Trazado 226226" d="M431.813,143.287c.14.145.985-.488,2.19-.492,1.2-.022,2.092.593,2.222.445.064-.066-.079-.329-.466-.607a3.073,3.073,0,0,0-1.78-.537,2.951,2.951,0,0,0-1.742.574c-.369.287-.493.551-.424.616" transform="translate(-171.865 -56.557)" fill="#263238"/>
        <path id="Trazado_226227" data-name="Trazado 226227" d="M454.528,145.694a1.12,1.12,0,0,0,1.087,1.124,1.071,1.071,0,0,0,1.148-1.017,1.12,1.12,0,0,0-1.085-1.124,1.072,1.072,0,0,0-1.15,1.017" transform="translate(-180.913 -57.584)" fill="#263238"/>
        <path id="Trazado_226228" data-name="Trazado 226228" d="M452.71,143.887c.14.145.985-.488,2.19-.492,1.2-.022,2.092.593,2.223.445.063-.066-.078-.329-.467-.607a3.075,3.075,0,0,0-1.779-.537,2.951,2.951,0,0,0-1.742.574c-.368.287-.493.551-.424.616" transform="translate(-180.182 -56.796)" fill="#263238"/>
        <path id="Trazado_226229" data-name="Trazado 226229" d="M443.512,152.924a7.99,7.99,0,0,0-1.96-.341c-.308-.03-.6-.089-.653-.3a1.566,1.566,0,0,1,.2-.913l.9-2.35A40.323,40.323,0,0,0,444,142.879a40.428,40.428,0,0,0-2.5,5.967q-.449,1.237-.858,2.363a1.779,1.779,0,0,0-.152,1.209.772.772,0,0,0,.509.447,2.1,2.1,0,0,0,.523.07,7.86,7.86,0,0,0,1.985-.01" transform="translate(-175.304 -56.869)" fill="#263238"/>
        <path id="Trazado_226230" data-name="Trazado 226230" d="M444.307,181.16a22.22,22.22,0,0,0,11.678-3.191s-2.8,6.017-11.548,5.252Z" transform="translate(-176.845 -70.836)" fill="#eb996e"/>
        <path id="Trazado_226231" data-name="Trazado 226231" d="M446.344,163.84a2.17,2.17,0,0,1,1.942-.818,1.98,1.98,0,0,1,1.374.726,1.256,1.256,0,0,1,.1,1.436,1.458,1.458,0,0,1-1.578.409,4.564,4.564,0,0,1-1.546-.91,1.333,1.333,0,0,1-.346-.354.4.4,0,0,1,0-.449" transform="translate(-177.608 -64.882)" fill="#eb996e"/>
        <path id="Trazado_226232" data-name="Trazado 226232" d="M448.919,160.916c-.2-.01-.191,1.3-1.305,2.233s-2.507.8-2.517.983c-.017.082.312.252.9.265a3.261,3.261,0,0,0,2.1-.746,2.838,2.838,0,0,0,1.01-1.873c.047-.547-.1-.87-.191-.862" transform="translate(-177.159 -64.048)" fill="#263238"/>
        <path id="Trazado_226233" data-name="Trazado 226233" d="M452.828,115.826c-3.115,4.614-11.491,9.448-17.529,10.642.69-.943,4.371-3.3,5.062-4.246-2.71,2.1-6.591,4.911-10.23,5.161a2.213,2.213,0,0,1-1.256-.173,1.69,1.69,0,0,1-.662-1.36,36.461,36.461,0,0,1,.113-7.918,8.76,8.76,0,0,1,3.051-5.7c2.3-1.844,5.634-2.348,8.78-2.479a19.96,19.96,0,0,1,7.791.908c2.43.91,4.526,2.756,4.919,5.013" transform="translate(-170.373 -43.669)" fill="#12263f"/>
        <path id="Trazado_226234" data-name="Trazado 226234" d="M477.624,138.33a49.475,49.475,0,0,0,.769-5.852c.178-4.511,1.528-20.792-13.986-19.179l.878,4.378s-2.892,10.135,3.768,16.973c0,0-1.9,14.281,2.737,18.9,0,0,4.974-10.346,5.833-15.215" transform="translate(-184.845 -45.051)" fill="#12263f"/>
        <path id="Trazado_226235" data-name="Trazado 226235" d="M471.608,147.51a5.2,5.2,0,0,1,2.812.163,3.634,3.634,0,0,1,2.07,1.855,3.8,3.8,0,0,1,.041,2.791,6.433,6.433,0,0,1-1.577,2.359,4.363,4.363,0,0,1-1.689,1.135,2.079,2.079,0,0,1-1.947-.29" transform="translate(-187.596 -58.665)" fill="#ffbe9d"/>
        <path id="Trazado_226236" data-name="Trazado 226236" d="M472.685,154.029c-.107.036.3.6,1.155.362a1.837,1.837,0,0,0,1.05-.928,4.153,4.153,0,0,0,.456-1.552,2.441,2.441,0,0,0-.405-1.642,1.625,1.625,0,0,0-1.232-.718c-.878-.014-1.147.6-1.047.613.07.07.409-.246.986-.111a1.576,1.576,0,0,1,.984,1.8c-.1.962-.462,1.843-.973,2.066-.53.274-.916.033-.973.11" transform="translate(-188.123 -59.525)" fill="#eb996e"/>
        <path id="Trazado_226237" data-name="Trazado 226237" d="M420.857,260.36c-.087,0-.156-3.546-.156-7.92s.07-7.92.156-7.92.157,3.545.157,7.92-.07,7.92-.157,7.92" transform="translate(-167.449 -97.325)" fill="#263238"/>
        <path id="Trazado_226238" data-name="Trazado 226238" d="M452.856,243.909s-7.807.086-8.3,1.814c-.818,2.869.644,18.6.644,18.6l7.192,2.389s3.469-.8,1.868-7.472a48.791,48.791,0,0,0-4.755-12.008s9.558.267,9.291-1.868-5.939-1.451-5.939-1.451" transform="translate(-176.845 -97.04)" fill="#ffbe9d"/>
        <path id="Trazado_226239" data-name="Trazado 226239" d="M453.347,251.5c.43-.082,9.984-.873,9.384.655s-9.384,1.909-9.384,1.909Z" transform="translate(-180.443 -99.994)" fill="#ffbe9d"/>
        <path id="Trazado_226240" data-name="Trazado 226240" d="M482.254,213.262l-1.18,29.838-4.359,11.451-26.776.554-1.082-36.955Z" transform="translate(-178.656 -84.883)" fill="#263238"/>
        <path id="Trazado_226241" data-name="Trazado 226241" d="M422.473,261.445a1.627,1.627,0,0,1-.328.17l-.964.43-3.566,1.527L405.8,268.5l-6.518,2.678a37.678,37.678,0,0,0-5.2,2.394,10.1,10.1,0,0,0-2.912,2.477c-.551.724-.75,1.2-.783,1.18a1.63,1.63,0,0,1,.142-.341,5.7,5.7,0,0,1,.542-.911,9.729,9.729,0,0,1,2.894-2.594,35.6,35.6,0,0,1,5.21-2.471l6.509-2.7,11.847-4.843,3.6-1.435.986-.375a1.639,1.639,0,0,1,.352-.111" transform="translate(-155.382 -104.061)" fill="#263238"/>
        <path id="Trazado_226242" data-name="Trazado 226242" d="M446.582,280.867a5.177,5.177,0,0,1-.585.718c-.394.447-.978,1.082-1.731,1.835-1.5,1.518-3.664,3.512-6.155,5.6s-4.831,3.874-6.552,5.126c-.859.629-1.565,1.123-2.058,1.456a5.179,5.179,0,0,1-.784.491,5.235,5.235,0,0,1,.713-.59l2-1.534c1.685-1.3,3.995-3.11,6.484-5.189s4.67-4.043,6.2-5.515c.771-.731,1.378-1.34,1.8-1.761a5.287,5.287,0,0,1,.674-.634" transform="translate(-170.639 -111.791)" fill="#263238"/>
        <path id="Trazado_226243" data-name="Trazado 226243" d="M513.946,299.158c-.066.056-3.995-4.445-8.774-10.053s-8.6-10.2-8.535-10.257,3.993,4.444,8.774,10.054,8.6,10.2,8.535,10.256" transform="translate(-197.673 -110.988)" fill="#263238"/>
        <path id="Trazado_226244" data-name="Trazado 226244" d="M524.57,268.831a5.172,5.172,0,0,1-.87-.309c-.554-.216-1.345-.552-2.315-.987-1.939-.869-4.575-2.17-7.384-3.792s-5.252-3.262-6.973-4.508c-.861-.622-1.547-1.141-2.01-1.513a5.223,5.223,0,0,1-.7-.6,5.171,5.171,0,0,1,.775.5l2.065,1.43c1.749,1.2,4.2,2.8,7,4.418s5.411,2.945,7.321,3.863l2.269,1.076a5.208,5.208,0,0,1,.822.421" transform="translate(-200.729 -102.34)" fill="#263238"/>
        <path id="Trazado_226245" data-name="Trazado 226245" d="M513.751,256.266c-.086.011-.556-3.174-1.049-7.113s-.825-7.142-.739-7.153.556,3.174,1.049,7.114.825,7.141.739,7.152" transform="translate(-203.768 -96.322)" fill="#263238"/>
        <path id="Trazado_226246" data-name="Trazado 226246" d="M474.614,156.893a1.837,1.837,0,0,1-.247.382L473.6,158.3l-2.773,3.6-.023-.193,4.521,3.552.409.324-.22.025,3.912-4.9.021.182-2.945-2.4-.807-.683c-.183-.161-.276-.251-.268-.262a1.385,1.385,0,0,1,.317.2l.851.628,3.013,2.313.1.078-.081.1-3.869,4.935-.1.123-.123-.1-.409-.324-4.5-3.582-.109-.087.086-.107,2.862-3.526.822-.978a1.844,1.844,0,0,1,.314-.329" transform="translate(-187.282 -62.447)" fill="#263238"/>
        <path id="Trazado_226247" data-name="Trazado 226247" d="M482.78,263.189a106.151,106.151,0,0,1-12.927-1.385c-5.066-.809-5.011-1.269-4.831-1.847.485-1.556,8.957,1.084,7.437-.546s-10.706-2.016-10.134-3.62c.746-2.089,9.57.838,10.334,1.03.742.187,1.039-.912.341-1.048-1-.2-11.493-2.518-10.779-4.577.4-1.142,2.371-.185,2.371-.185s9.674,2.9,9.978,1.916-5.318-2.894-7.257-3.4c-1.916-.5-2.481-1.618-1.578-2.289.616-.457,6.588.946,8.494,1.49s7.114,2.129,5.127-.752c-.031-.046-.055-.091-.085-.137-2.033-2.784-2.678-5.6-2.309-6.544a1.191,1.191,0,0,1,2.142.007,1.209,1.209,0,0,1,.2.461c.014.075.051.17.073.25a17.18,17.18,0,0,0,1.756,3.064,9.3,9.3,0,0,0,2.193,2.267c.99.719,3.484,3.356,4.237,3.825" transform="translate(-183.961 -95.776)" fill="#ffbe9d"/>
      </g>
    </g>
    <g id="Grupo_177467" data-name="Grupo 177467">
      <g id="Grupo_177466" data-name="Grupo 177466" clip-path="url(#clip-path)">
        <path id="Trazado_226248" data-name="Trazado 226248" d="M185.39,179.369h0a10.565,10.565,0,0,1-10.369-10.243c-.141-4.692-.249-9.21-.249-9.21s-8.614-.8-9.246-9.324-.361-28.2-.361-28.2a29.7,29.7,0,0,1,30.021,1.906l1.324.9-.366,43.7a10.565,10.565,0,0,1-10.755,10.474" transform="translate(-65.717 -47.444)" fill="#b78876"/>
        <path id="Trazado_226249" data-name="Trazado 226249" d="M178.75,155.84a5.707,5.707,0,0,0-1.925-.285c-.31-.014-.555-.069-.588-.233a1.675,1.675,0,0,1,.166-.894l.782-2.445c1.074-3.481,1.8-6.345,1.624-6.4s-1.19,2.722-2.264,6.2l-.731,2.46a1.963,1.963,0,0,0-.089,1.288.8.8,0,0,0,.56.458,1.958,1.958,0,0,0,.529.036,5.692,5.692,0,0,0,1.937-.188" transform="translate(-69.91 -57.945)" fill="#263238"/>
        <path id="Trazado_226250" data-name="Trazado 226250" d="M183.537,164.387a28.734,28.734,0,0,1-5.659,2.029,3.253,3.253,0,0,0,3.911,1.056c2.5-1.092,1.748-3.086,1.748-3.086" transform="translate(-70.8 -65.43)" fill="#fff"/>
        <path id="Trazado_226251" data-name="Trazado 226251" d="M181.126,184.091a19.876,19.876,0,0,0,10.926-3.847s-2.25,6.3-10.81,6.058Z" transform="translate(-72.092 -71.741)" fill="#a36957"/>
        <path id="Trazado_226252" data-name="Trazado 226252" d="M216.461,145.806a1.288,1.288,0,0,1,1.231-1.291c1.592-.044,4.2.588,4.44,4.981.35,6.275-5.686,4.71-5.707,4.53-.016-.141.02-5.781.037-8.22" transform="translate(-86.14 -57.519)" fill="#b78876"/>
        <path id="Trazado_226253" data-name="Trazado 226253" d="M218.721,152.892c.026-.022.114.07.3.145a1.1,1.1,0,0,0,.818-.029,2.709,2.709,0,0,0,1.117-2.5,3.612,3.612,0,0,0-.393-1.548,1.266,1.266,0,0,0-.869-.793.558.558,0,0,0-.628.336c-.074.18-.028.3-.06.315-.016.017-.14-.1-.1-.359a.7.7,0,0,1,.225-.407.823.823,0,0,1,.6-.193,1.537,1.537,0,0,1,1.2.909,3.713,3.713,0,0,1,.476,1.728,2.841,2.841,0,0,1-1.444,2.8,1.171,1.171,0,0,1-1.009-.111c-.2-.144-.244-.282-.223-.295" transform="translate(-87.054 -58.852)" fill="#a36957"/>
        <path id="Trazado_226254" data-name="Trazado 226254" d="M169.638,147.755a1.159,1.159,0,0,0,1.2,1.087,1.108,1.108,0,0,0,1.117-1.126,1.159,1.159,0,0,0-1.2-1.088,1.11,1.11,0,0,0-1.118,1.128" transform="translate(-67.519 -58.361)" fill="#263238"/>
        <path id="Trazado_226255" data-name="Trazado 226255" d="M166.358,145.659c.154.14.984-.569,2.227-.654,1.241-.1,2.2.472,2.323.31.061-.072-.1-.333-.522-.595a3.173,3.173,0,0,0-1.873-.435,3.049,3.049,0,0,0-1.759.709c-.362.32-.472.6-.4.665" transform="translate(-66.206 -57.425)" fill="#263238"/>
        <path id="Trazado_226256" data-name="Trazado 226256" d="M190.17,147.4a1.159,1.159,0,0,0,1.2,1.087,1.108,1.108,0,0,0,1.117-1.126,1.159,1.159,0,0,0-1.2-1.088,1.109,1.109,0,0,0-1.118,1.128" transform="translate(-75.692 -58.219)" fill="#263238"/>
        <path id="Trazado_226257" data-name="Trazado 226257" d="M187.325,145.659c.154.14.984-.569,2.227-.654,1.241-.1,2.2.472,2.323.31.061-.072-.1-.333-.522-.595a3.179,3.179,0,0,0-1.873-.435,3.049,3.049,0,0,0-1.759.709c-.361.32-.471.6-.4.665" transform="translate(-74.551 -57.425)" fill="#263238"/>
        <path id="Trazado_226258" data-name="Trazado 226258" d="M200.614,118.1a7.469,7.469,0,0,0,1.42,8.007,29.493,29.493,0,0,1,2.625,2.5c1.509,2,1.262,4.76,1.5,7.257a4.831,4.831,0,0,0,1.231,3.171,2.044,2.044,0,0,0,3.032-.155,3.015,3.015,0,0,0,.313-1q.784-4.171,1.568-8.341a17.9,17.9,0,0,0,.424-6.315,8.917,8.917,0,0,0-11.14-7.083" transform="translate(-79.613 -46.104)" fill="#263238"/>
        <path id="Trazado_226259" data-name="Trazado 226259" d="M183.108,114.321a25.591,25.591,0,0,1-6.568-2.4,9.628,9.628,0,0,0-6.523-.741c-1.457.412-2.837,1.287-4.338,1.273s-2.826-.9-4.251-1.351a7.58,7.58,0,0,0-5.892.6,5.037,5.037,0,0,0-2.778,3.832c-.118,1.683,1.385,3.427,2.891,2.948-1.574.548-2.216,2.866-1.428,4.417a4.044,4.044,0,0,0,4.243,2,7.678,7.678,0,0,0,4.249-2.59,3.494,3.494,0,0,0,3.663,3.14,8.871,8.871,0,0,0,4.763-2.177,12.829,12.829,0,0,1,4.608-2.631,35.955,35.955,0,0,1,3.633-.268,3.822,3.822,0,0,0,3.082-1.823c.584-1.154,2.9-2.475,1.686-2.508" transform="translate(-60.799 -44.085)" fill="#263238"/>
        <path id="Trazado_226260" data-name="Trazado 226260" d="M174.707,127.93a6.8,6.8,0,0,0,.643.344,3.079,3.079,0,0,0,1.931-.007,5.166,5.166,0,0,0,1.244-.547c.421-.253.848-.575,1.3-.907a10.822,10.822,0,0,1,1.511-.965,4.351,4.351,0,0,1,1.891-.474c1.341-.024,2.553.338,3.65.238a3.3,3.3,0,0,0,2.457-1.333,3.632,3.632,0,0,0,.73-1.8c.048-.467,0-.73.032-.734.011,0,.028.062.053.187a2.4,2.4,0,0,1,.037.556,3.548,3.548,0,0,1-.674,1.928,3.587,3.587,0,0,1-1.04.985,3.513,3.513,0,0,1-1.57.5c-1.167.117-2.4-.241-3.665-.212a5.683,5.683,0,0,0-3.243,1.36c-.461.324-.9.642-1.342.9a5.164,5.164,0,0,1-1.318.538,3.059,3.059,0,0,1-2.036-.1,1.842,1.842,0,0,1-.468-.309c-.092-.089-.135-.139-.128-.147" transform="translate(-69.537 -48.455)" fill="#263238"/>
        <path id="Trazado_226261" data-name="Trazado 226261" d="M201.56,111.732a12.263,12.263,0,0,0,.174,2,12.238,12.238,0,0,0,.786,1.847,3.439,3.439,0,0,1-.96-3.845" transform="translate(-80.127 -44.472)" fill="#263238"/>
        <path id="Trazado_226262" data-name="Trazado 226262" d="M205.625,111.511c.066.069-.71.8-1.291,1.955s-.738,2.2-.833,2.19a5.03,5.03,0,0,1,2.124-4.145" transform="translate(-80.985 -44.382)" fill="#263238"/>
        <path id="Trazado_226263" data-name="Trazado 226263" d="M263.138,259.79l13.1,33.718H256.183l-9.348-24Z" transform="translate(-98.246 -103.402)" fill="#b78876"/>
        <path id="Trazado_226264" data-name="Trazado 226264" d="M125.371,184.12s-17.268,17.79-24.748,17.79c-2.443,0-4.359-29.628-4.388-38.169a11.026,11.026,0,0,1,1.681-3.067,14.276,14.276,0,0,1,2.17-2.4,14.938,14.938,0,0,1,3.389-2.187c1.168-.411,1.264-2.009.2-2.327s-4.307.736-7.21,3.489-2.033-3.407-1.757-5.657.8-9.243.179-9.857c-.917-.9-2.082-.064-2.306,2.188-.227,2.279-1.371,8.97-2.554,8.8-1.166-.169.4-11.608.4-11.608s.73-2.4-.629-2.646c-2.452-.441-3.217,11.817-3.261,12.985-.03.812-1.324.671-1.244-.2.082-.9,1.825-11.381-.666-11.854-1.912-.363-.724,10.08-2.294,12.086s-.09-8.032-1.934-8.3c-.685-.1-1.214-.081-1.231,5.784-.01,3.151,1.2,7.914.735,13.984.8,17.912-.082,68.224,19.853,62.26a100.491,100.491,0,0,0,36.9-20.918Z" transform="translate(-31.51 -55.109)" fill="#b78876"/>
        <path id="Trazado_226265" data-name="Trazado 226265" d="M236.29,240.8a3.323,3.323,0,0,1,.2.708c.107.46.245,1.129.4,1.958.311,1.658.676,3.963.96,6.524s.43,4.89.488,6.576c.029.843.042,1.526.037,2a3.364,3.364,0,0,1-.036.733,3.286,3.286,0,0,1-.085-.729l-.137-1.991c-.115-1.681-.3-4-.579-6.554s-.612-4.856-.866-6.521c-.12-.783-.22-1.442-.3-1.972a3.307,3.307,0,0,1-.076-.731" transform="translate(-94.046 -95.843)" fill="#263238"/>
        <path id="Trazado_226266" data-name="Trazado 226266" d="M138.5,269.523l55.216.282-1.861-11.657a89.926,89.926,0,0,0-.082-16.624l2.8,7.582,22.822-11.411s-8.3-22.122-15.24-29.614c-8.775-9.468-24.561-8.526-24.561-8.526L166.92,206.8l-9.818-6.915a47.715,47.715,0,0,0-15.172,4.413l-.506.147,0,.106c-5.791,3.027-14.051,10.4-21.922,17.555l9.084,8.844,10.062,9.372a8.335,8.335,0,0,1,1.719-.073c.171.99-1.873,29.273-1.873,29.273" transform="translate(-47.567 -79.417)" fill="#455a64"/>
        <g id="Grupo_177465" data-name="Grupo 177465" transform="translate(142.283 141.422)" opacity="0.2">
          <g id="Grupo_177464" data-name="Grupo 177464">
            <g id="Grupo_177463" data-name="Grupo 177463" clip-path="url(#clip-path-6)">
              <path id="Trazado_226267" data-name="Trazado 226267" d="M236.589,234.929l7.5,26.76-3.013,1.507-2.8-7.582s-2.717-15.864-1.694-20.685" transform="translate(-236.359 -234.929)"/>
            </g>
          </g>
        </g>
        <path id="Trazado_226268" data-name="Trazado 226268" d="M180.947,197.37v-2.889s8.622-.669,10.368,9.517c0,0,2.81-9.517,11.176-10.47l1.193,4.449s-3.963,12.393-4.539,12.5-7.829,2.224-7.829,2.224l-4.2-.954-4.668-5.313Z" transform="translate(-72.021 -77.028)" fill="#455a64"/>
        <path id="Trazado_226269" data-name="Trazado 226269" d="M212,200.351a3.043,3.043,0,0,1-.476.5c-.314.315-.774.764-1.314,1.344a30.676,30.676,0,0,0-3.738,4.917c-.264.43-.508.861-.737,1.276l-.138.25-.133-.25-2.452-4.593a2.032,2.032,0,0,0-.551-.628,1.231,1.231,0,0,0-.58-.212,1.328,1.328,0,0,0-.526.093c-.013,0,.139-.193.53-.2a1.288,1.288,0,0,1,.662.188,2.123,2.123,0,0,1,.636.653c.68,1.135,1.548,2.733,2.553,4.555h-.272c.229-.421.474-.858.742-1.292a26.552,26.552,0,0,1,3.846-4.908c.565-.565,1.05-.992,1.392-1.28a2.853,2.853,0,0,1,.558-.413" transform="translate(-80.144 -79.744)" fill="#263238"/>
        <path id="Trazado_226270" data-name="Trazado 226270" d="M180.019,201.2c.017-.013.163.142.411.434s.6.721,1.029,1.256c.858,1.068,2.027,2.557,3.3,4.213l.2.265-.261.02a10.824,10.824,0,0,0,.71-2.684,3.173,3.173,0,0,1,1.191-2.008,1.757,1.757,0,0,1,1.552-.2,1.13,1.13,0,0,1,.364.234c.065.075.094.116.087.123a2.639,2.639,0,0,0-.49-.245,1.687,1.687,0,0,0-1.394.267,3.03,3.03,0,0,0-1.034,1.892,10.266,10.266,0,0,1-.713,2.771l-.113.213-.148-.193-.2-.265c-1.275-1.656-2.416-3.167-3.229-4.27-.406-.551-.731-1-.95-1.316a2.183,2.183,0,0,1-.315-.509" transform="translate(-71.651 -80.084)" fill="#263238"/>
        <path id="Trazado_226271" data-name="Trazado 226271" d="M190.2,274.1a.646.646,0,0,1,0-.164c0-.126.01-.284.018-.479.024-.445.058-1.059.1-1.84.1-1.622.249-3.926.428-6.762.394-5.729.934-13.6,1.531-22.3.633-8.7,1.206-16.573,1.624-22.3.222-2.834.4-5.136.528-6.756.067-.778.12-1.392.159-1.835.02-.194.037-.351.049-.477a.665.665,0,0,1,.028-.162.65.65,0,0,1,0,.164c0,.126-.011.284-.018.479-.024.444-.058,1.059-.1,1.84-.1,1.621-.249,3.925-.429,6.761-.393,5.729-.934,13.6-1.531,22.306-.633,8.7-1.206,16.568-1.623,22.3-.222,2.834-.4,5.136-.528,6.756-.067.779-.12,1.393-.159,1.836-.02.2-.037.352-.049.477a.665.665,0,0,1-.028.162" transform="translate(-75.701 -83.991)" fill="#263238"/>
        <path id="Trazado_226272" data-name="Trazado 226272" d="M156.036,226.842a5.625,5.625,0,0,1-.053.957c-.053.669-.123,1.545-.207,2.6-.165,2.2-.332,5.234-.52,8.591s-.39,6.4-.612,8.593c-.106,1.1-.217,1.984-.306,2.595a5.722,5.722,0,0,1-.174.943,5.542,5.542,0,0,1,.053-.957c.053-.669.123-1.544.207-2.6.165-2.2.332-5.234.52-8.592s.39-6.4.612-8.592c.107-1.1.217-1.984.307-2.595a5.547,5.547,0,0,1,.174-.943" transform="translate(-61.357 -90.288)" fill="#263238"/>
        <path id="Trazado_226273" data-name="Trazado 226273" d="M195.455,208.509s-2.96,3.868-2.527,4.448,2.527,3.372,2.527,3.372h1.8s1.687-4.731,1.253-5.331a26.525,26.525,0,0,0-3.051-2.489" transform="translate(-76.772 -82.992)" fill="url(#linear-gradient)"/>
        <path id="Trazado_226274" data-name="Trazado 226274" d="M202.544,206.772l-3.268,2.557,1.253,2.4,3.362-2.478Z" transform="translate(-79.317 -82.3)" fill="url(#linear-gradient)"/>
        <path id="Trazado_226275" data-name="Trazado 226275" d="M188.758,207.562l2.98,2.489,1.652-2.489-3.763-2.859Z" transform="translate(-75.13 -81.477)" fill="url(#linear-gradient)"/>
        <path id="Trazado_226276" data-name="Trazado 226276" d="M194.147,221.179,189.6,261.9l4.474,14.163,5.966-14.034-3.927-41.338Z" transform="translate(-75.465 -87.841)" fill="url(#linear-gradient)"/>
        <path id="Trazado_226277" data-name="Trazado 226277" d="M244.059,208.374a4.154,4.154,0,0,0-.589-.4,2.549,2.549,0,0,0-1.87-.105,5.806,5.806,0,0,0-2.331,1.645,13.749,13.749,0,0,0-2.13,2.846,14.4,14.4,0,0,0-1.8,6.173c-.1,1.664.115,2.693.048,2.7a3.286,3.286,0,0,1-.157-.716,11.827,11.827,0,0,1-.113-1.994,13.726,13.726,0,0,1,1.753-6.318,13.313,13.313,0,0,1,2.2-2.9,5.832,5.832,0,0,1,2.473-1.654,2.583,2.583,0,0,1,1.991.211,1.711,1.711,0,0,1,.427.35c.08.1.113.155.1.161" transform="translate(-93.579 -82.608)" fill="#263238"/>
      </g>
    </g>
    <g id="Grupo_177469" data-name="Grupo 177469">
      <g id="Grupo_177468" data-name="Grupo 177468" clip-path="url(#clip-path)">
        <path id="Trazado_226278" data-name="Trazado 226278" d="M313.388,125.214a20.715,20.715,0,0,0-8.125,10.556,53.222,53.222,0,0,0-2.662,13.265,258.251,258.251,0,0,0-1.247,35.774c14.589,1.846,29.29,3.7,43.962,2.7-2.543-16.754-4.155-33.487-2.117-50.31" transform="translate(-119.885 -49.838)" fill="#263238"/>
        <path id="Trazado_226279" data-name="Trazado 226279" d="M323.219,296.57,312.6,275.088l4.054-15.71c.476,3.329.9,6.218.9,6.218l22.786-1.206a1.445,1.445,0,0,0,1.355-1.646l-4.453-31.427s-1.424-14.578-15.226-20h0l-.061-.021c-.555-.216-1.134-.414-1.729-.6-18.609-6.45-36.035-6.412-55.427.205,0,0-8.615,2.318-12.79,13.555s-8.439,27.76-8.439,27.76l19.346,6.832.128-3.266,4.276,16.348-9.378,23.814,32.717.808Z" transform="translate(-96.947 -81.954)" fill="url(#linear-gradient-5)"/>
        <path id="Trazado_226280" data-name="Trazado 226280" d="M241.993,282.521l-2.171,10.261a16.047,16.047,0,0,0,13.622,18.888l47.619,4.888a18.922,18.922,0,0,0,20.977-17.152L262,293.681l.376-5.761Z" transform="translate(-95.328 -112.45)" fill="url(#linear-gradient-5)"/>
        <path id="Trazado_226281" data-name="Trazado 226281" d="M342.37,292.992l3.7-.685s8.767-9.588,10.411-9.726c1.353-.113,8.811-.04,11.409-.011a.9.9,0,0,1,.023,1.807l-8.812.342-.042.709,8.824.117c.9.069,1.474,1.492-1.4,1.748l-7.38.262v.459l7.484,1.046c.378.053,1.373.246,1.382.628,0,0,.453.938-1.68,1.2-.732.092-7.228-.125-7.228-.125l.25.585,6.725,1.451a.956.956,0,0,1-.29,1.886l-7.186-.666-7.052,5.633h-9.429Z" transform="translate(-136.154 -112.45)" fill="#ffbe9d"/>
        <path id="Trazado_226282" data-name="Trazado 226282" d="M303.685,205.5s9.276,47.434,12.548,47.087,18.6-45.45,18.6-45.45-19.6-5.982-31.15-1.637" transform="translate(-120.874 -81.165)" fill="#fafafa"/>
        <path id="Trazado_226283" data-name="Trazado 226283" d="M371.78,273.163c-.087,0-.157-3.271-.157-7.306s.07-7.306.157-7.306.157,3.271.157,7.306-.07,7.306-.157,7.306" transform="translate(-147.915 -102.909)" fill="#263238"/>
        <path id="Trazado_226284" data-name="Trazado 226284" d="M277.271,273.9a14.048,14.048,0,0,1,.194-2.1c.16-1.295.4-3.08.689-5.05s.564-3.751.78-5.039a14.069,14.069,0,0,1,.414-2.073,14.163,14.163,0,0,1-.194,2.105c-.16,1.294-.4,3.079-.689,5.049s-.563,3.748-.78,5.035a14.185,14.185,0,0,1-.414,2.075" transform="translate(-110.356 -103.342)" fill="#263238"/>
        <path id="Trazado_226285" data-name="Trazado 226285" d="M321.76,328.262a2.316,2.316,0,0,1-.029-.439c0-.318-.012-.737-.02-1.26-.009-1.094,0-2.678.04-4.633.072-3.913.284-9.314.552-15.275s.515-11.362.645-15.27c.058-1.928.105-3.5.139-4.629.016-.522.028-.94.038-1.259a2.322,2.322,0,0,1,.034-.439,2.311,2.311,0,0,1,.029.439c.005.318.012.737.021,1.259.008,1.094,0,2.678-.04,4.634-.072,3.912-.284,9.314-.553,15.278s-.515,11.359-.644,15.267c-.058,1.928-.105,3.5-.14,4.629-.016.522-.028.94-.038,1.259a2.321,2.321,0,0,1-.034.439" transform="translate(-128.047 -113.46)" fill="#263238"/>
        <path id="Trazado_226286" data-name="Trazado 226286" d="M342.782,209.112c.016,0,.031.2.1.589a8.6,8.6,0,0,0,.474,1.638,18.248,18.248,0,0,0,1.2,2.422,33.053,33.053,0,0,1,1.707,3.178,7.66,7.66,0,0,1,.722,4.309,5.539,5.539,0,0,1-.967,2.269,15.164,15.164,0,0,1-1.7,1.964,30.2,30.2,0,0,0-3.611,4.144,9.842,9.842,0,0,0-1.863,5.45,6.735,6.735,0,0,0,.638,2.855,25.519,25.519,0,0,1,1.168,2.7,4.032,4.032,0,0,1,.19,1.462,3.033,3.033,0,0,1-.456,1.383,7.529,7.529,0,0,1-2,1.88l-7.542,5.557-5.1,3.725-1.4,1-.368.254a.588.588,0,0,1-.132.078s.035-.04.113-.1l.349-.279,1.362-1.047,5.041-3.8,7.5-5.612a7.3,7.3,0,0,0,1.921-1.806,2.729,2.729,0,0,0,.407-1.247,3.758,3.758,0,0,0-.181-1.35,25.641,25.641,0,0,0-1.16-2.664,7.043,7.043,0,0,1-.665-2.98,10.118,10.118,0,0,1,1.922-5.622,30.01,30.01,0,0,1,3.659-4.174,8,8,0,0,0,2.616-4.075,7.477,7.477,0,0,0-.67-4.177,34.534,34.534,0,0,0-1.656-3.18,17.353,17.353,0,0,1-1.162-2.465,7.72,7.72,0,0,1-.423-1.671,4.043,4.043,0,0,1-.04-.446.557.557,0,0,1,0-.153" transform="translate(-128.899 -83.232)" fill="#263238"/>
        <path id="Trazado_226287" data-name="Trazado 226287" d="M312.268,253.163a.53.53,0,0,1-.147-.016l-.426-.079a14.439,14.439,0,0,1-1.605-.44,16.112,16.112,0,0,1-5.293-3.037,15.724,15.724,0,0,1-2.812-3.168,15.884,15.884,0,0,1-2.044-4.412,16.158,16.158,0,0,1-.628-5.335,18.279,18.279,0,0,1,.378-2.821,6.462,6.462,0,0,0,.079-2.815,2.289,2.289,0,0,0-.73-1.137,3.84,3.84,0,0,0-1.236-.619c-.447-.152-.912-.275-1.361-.461a3.921,3.921,0,0,1-1.219-.79,4.792,4.792,0,0,1-1.239-2.488,10.188,10.188,0,0,1-.147-2.646,36.729,36.729,0,0,1,4.5-14.419c.358-.627.645-1.109.855-1.426l.237-.361a.525.525,0,0,1,.09-.117.5.5,0,0,1-.063.134l-.211.377c-.191.327-.462.817-.8,1.451a39.976,39.976,0,0,0-2.427,5.582,37.032,37.032,0,0,0-1.9,8.8,9.942,9.942,0,0,0,.152,2.567,4.5,4.5,0,0,0,1.161,2.329,3.619,3.619,0,0,0,1.123.724c.424.175.881.3,1.342.451a4.124,4.124,0,0,1,1.335.673,2.6,2.6,0,0,1,.833,1.292A6.724,6.724,0,0,1,300,233.91a18.069,18.069,0,0,0-.379,2.78,16,16,0,0,0,.6,5.24,15.592,15.592,0,0,0,4.724,7.493,16.551,16.551,0,0,0,5.188,3.089c.676.243,1.213.4,1.58.494l.417.11a.5.5,0,0,1,.14.048" transform="translate(-116.945 -82.222)" fill="#263238"/>
        <path id="Trazado_226288" data-name="Trazado 226288" d="M339.712,299.174l-39.889-1.289.06,13.236,26.41,5.808,18.583,2.967c11.55,0,20.787-10.6,19-22.01l-.049.013Z" transform="translate(-119.337 -118.565)" fill="url(#linear-gradient-5)"/>
        <path id="Trazado_226289" data-name="Trazado 226289" d="M350.693,298.917a3.221,3.221,0,0,1-.517.036l-1.483.042-5.454.1c-4.605.067-10.969.145-18,.078s-13.395-.323-17.992-.634c-2.3-.154-4.157-.3-5.439-.431l-1.475-.151a3.146,3.146,0,0,1-.512-.074,3.169,3.169,0,0,1,.518.011l1.48.092c1.284.092,3.144.206,5.442.332,4.6.254,10.954.473,17.982.542s13.387.023,17.992.013h5.455l1.483.016a3.182,3.182,0,0,1,.517.027" transform="translate(-119.337 -118.561)" fill="#263238"/>
        <path id="Trazado_226290" data-name="Trazado 226290" d="M281.8,292.992l-3.7-.685s-8.767-9.588-10.411-9.726c-1.353-.113-8.811-.04-11.409-.011a.9.9,0,0,0-.023,1.807l8.812.342.042.709-8.824.117c-.9.069-1.474,1.492,1.4,1.748l7.38.262v.459l-7.484,1.046c-.378.053-1.372.246-1.382.628,0,0-.453.938,1.68,1.2.732.092,7.228-.125,7.228-.125l-.25.585-6.725,1.451a.956.956,0,0,0,.29,1.886l7.186-.666,7.052,5.633h9.429Z" transform="translate(-101.651 -112.45)" fill="#ffbe9d"/>
        <path id="Trazado_226291" data-name="Trazado 226291" d="M344.61,328.435a2.432,2.432,0,0,1-.453-.027l-1.291-.138c-1.12-.125-2.739-.331-4.736-.607-3.994-.552-9.5-1.427-15.536-2.609s-11.466-2.455-15.373-3.452c-1.953-.5-3.529-.919-4.614-1.227l-1.248-.359a2.4,2.4,0,0,1-.429-.146,2.505,2.505,0,0,1,.446.085l1.262.3,4.637,1.129c3.918.941,9.346,2.175,15.38,3.36s11.524,2.089,15.508,2.7l4.72.706,1.283.2a2.426,2.426,0,0,1,.445.09" transform="translate(-119.777 -127.315)" fill="#263238"/>
        <path id="Trazado_226292" data-name="Trazado 226292" d="M299.957,311.36a10.281,10.281,0,0,1-.346-1.886c-.161-1.172-.329-2.8-.423-4.6s-.093-3.442-.053-4.625a10.258,10.258,0,0,1,.149-1.911,13.228,13.228,0,0,1,.072,1.912c.017,1.18.052,2.809.145,4.607s.226,3.421.33,4.6a13.294,13.294,0,0,1,.125,1.91" transform="translate(-119.053 -118.744)" fill="#263238"/>
        <path id="Trazado_226293" data-name="Trazado 226293" d="M306.974,312a1.714,1.714,0,0,1-.175-.5c-.1-.328-.21-.808-.334-1.406a34.168,34.168,0,0,1-.579-9.5c.052-.608.107-1.1.161-1.436a1.757,1.757,0,0,1,.113-.52,16.525,16.525,0,0,1-.052,1.97c-.045,1.213-.063,2.89.049,4.738s.334,3.51.527,4.708a17.039,17.039,0,0,1,.291,1.949" transform="translate(-121.708 -118.863)" fill="#263238"/>
        <path id="Trazado_226294" data-name="Trazado 226294" d="M301.367,301.721c.034.037-.2.2-.188.581a.715.715,0,0,0,.243.537.646.646,0,0,0,.987-.569.716.716,0,0,0-.343-.48c-.324-.2-.582-.081-.6-.128-.036-.02.243-.259.7-.069a.905.905,0,0,1,.527.627.915.915,0,0,1-1.459.84.907.907,0,0,1-.278-.769c.064-.489.411-.611.41-.569" transform="translate(-119.786 -120.012)" fill="#263238"/>
        <path id="Trazado_226295" data-name="Trazado 226295" d="M288.087,324.015a2.02,2.02,0,0,1-.41.013c-.268-.007-.663,0-1.171,0a31.86,31.86,0,0,0-4.281.4,63.3,63.3,0,0,0-6.232,1.384c-2.327.614-4.872,1.359-7.6,1.953a32.486,32.486,0,0,1-7.81.846,19.5,19.5,0,0,1-6.3-1.2,14.074,14.074,0,0,1-3.768-2.122,9.913,9.913,0,0,1-.875-.787,2.005,2.005,0,0,1-.278-.3c.026-.027.416.383,1.228.993a14.84,14.84,0,0,0,3.771,2.011,19.787,19.787,0,0,0,6.23,1.124,33.111,33.111,0,0,0,7.736-.864c2.709-.59,5.253-1.326,7.589-1.926a58.33,58.33,0,0,1,6.273-1.324,28.048,28.048,0,0,1,4.313-.3c.511.011.907.028,1.174.055a2.007,2.007,0,0,1,.408.05" transform="translate(-99.253 -128.923)" fill="#263238"/>
        <path id="Trazado_226296" data-name="Trazado 226296" d="M329.774,181.834c.949-5.29,2.044-10.841,2.044-10.841s7.017.069,10-8.578c2.841-8.246,4.894-28.083,4.894-28.083a25.958,25.958,0,0,0-29.583,1.508l-6.995,43.089c-.812,5,2.843,9.684,8.2,10.513h0c5.416.837,10.535-2.568,11.438-7.608" transform="translate(-123.394 -51.91)" fill="#ffbe9d"/>
        <path id="Trazado_226297" data-name="Trazado 226297" d="M360.773,160.777a1.158,1.158,0,0,1-1.3.957,1.107,1.107,0,0,1-1-1.235,1.159,1.159,0,0,1,1.3-.958,1.108,1.108,0,0,1,1,1.236" transform="translate(-142.677 -63.497)" fill="#263238"/>
        <path id="Trazado_226298" data-name="Trazado 226298" d="M362.771,158.934c-.167.124-.919-.668-2.148-.881-1.223-.231-2.236.243-2.342.069-.054-.078.137-.321.58-.538a3.175,3.175,0,0,1,1.908-.24,3.053,3.053,0,0,1,1.676.887c.326.356.407.648.326.7" transform="translate(-142.601 -62.607)" fill="#263238"/>
        <path id="Trazado_226299" data-name="Trazado 226299" d="M339.833,157.46a1.158,1.158,0,0,1-1.3.957,1.107,1.107,0,0,1-1-1.236,1.159,1.159,0,0,1,1.3-.958,1.108,1.108,0,0,1,1,1.236" transform="translate(-134.343 -62.177)" fill="#263238"/>
        <path id="Trazado_226300" data-name="Trazado 226300" d="M341.361,155.927c-.168.124-.92-.668-2.148-.881-1.224-.231-2.236.242-2.343.069-.053-.078.137-.321.581-.538a3.18,3.18,0,0,1,1.908-.239,3.053,3.053,0,0,1,1.676.887c.326.356.407.648.326.7" transform="translate(-134.079 -61.41)" fill="#263238"/>
        <path id="Trazado_226301" data-name="Trazado 226301" d="M349.074,166.61a8.25,8.25,0,0,1,2.058-.008c.319.023.627.013.717-.192a1.621,1.621,0,0,0-.045-.966q-.242-1.216-.507-2.551a41.758,41.758,0,0,1-.982-6.611,41.735,41.735,0,0,1,1.512,6.516c.162.893.318,1.743.465,2.558a1.846,1.846,0,0,1-.054,1.259.8.8,0,0,1-.6.368,2.16,2.16,0,0,1-.545-.02,8.128,8.128,0,0,1-2.021-.353" transform="translate(-138.94 -62.204)" fill="#263238"/>
        <path id="Trazado_226302" data-name="Trazado 226302" d="M338.725,194.331a22.977,22.977,0,0,1-11.353-5.276s1.814,6.62,10.863,7.356Z" transform="translate(-130.302 -75.248)" fill="#eb996e"/>
        <path id="Trazado_226303" data-name="Trazado 226303" d="M344.823,177.424a2.246,2.246,0,0,0-1.838-1.171,2.05,2.05,0,0,0-1.527.5,1.3,1.3,0,0,0-.355,1.446,1.507,1.507,0,0,0,1.537.69,4.711,4.711,0,0,0,1.734-.66,1.376,1.376,0,0,0,.414-.3.418.418,0,0,0,.079-.458" transform="translate(-135.729 -70.151)" fill="#eb996e"/>
        <path id="Trazado_226304" data-name="Trazado 226304" d="M342.591,173.792c.2.023-.031,1.357.943,2.5s2.419,1.25,2.4,1.438c0,.087-.362.2-.964.114a3.365,3.365,0,0,1-2.013-1.125,2.932,2.932,0,0,1-.706-2.083c.047-.566.254-.87.344-.846" transform="translate(-136.219 -69.173)" fill="#263238"/>
        <path id="Trazado_226305" data-name="Trazado 226305" d="M331.81,125.778c2.377,5.243,10.079,11.623,16.029,13.886-.541-1.081-3.885-4.125-4.425-5.206,2.4,2.609,5.869,6.149,9.536,7.033a2.291,2.291,0,0,0,1.31.041,1.749,1.749,0,0,0,.91-1.273,37.65,37.65,0,0,0,1.256-8.092,9.053,9.053,0,0,0-2.124-6.341c-2.027-2.279-5.338-3.37-8.522-4.049a20.643,20.643,0,0,0-8.1-.423c-2.635.507-5.092,2.026-5.884,4.259" transform="translate(-132.063 -48.206)" fill="#263238"/>
        <path id="Trazado_226306" data-name="Trazado 226306" d="M308.254,145.839a51.2,51.2,0,0,1,.229-6.1c.6-4.63,2.044-21.463,17.581-17.132l-1.654,4.312s1.194,10.834-6.782,16.652c0,0,.035,10.813-5.489,14.715,0,0-3.853-7.333-3.885-12.446" transform="translate(-122.692 -48.519)" fill="#263238"/>
        <path id="Trazado_226307" data-name="Trazado 226307" d="M320.469,156.416a5.384,5.384,0,0,0-2.9-.321,3.758,3.758,0,0,0-2.431,1.533,3.929,3.929,0,0,0-.525,2.839,6.643,6.643,0,0,0,1.2,2.678,4.5,4.5,0,0,0,1.525,1.45,2.153,2.153,0,0,0,2.035.042" transform="translate(-125.199 -62.099)" fill="#ffbe9d"/>
        <path id="Trazado_226308" data-name="Trazado 226308" d="M320.262,162.961c.1.055-.412.557-1.241.17a1.9,1.9,0,0,1-.91-1.128,4.285,4.285,0,0,1-.2-1.661,2.527,2.527,0,0,1,.7-1.6,1.68,1.68,0,0,1,1.38-.518c.9.138,1.066.806.962.807-.084.06-.375-.321-.986-.284a1.629,1.629,0,0,0-1.315,1.663,2.687,2.687,0,0,0,.634,2.275c.493.372.928.192.974.281" transform="translate(-126.533 -62.97)" fill="#eb996e"/>
        <path id="Trazado_226309" data-name="Trazado 226309" d="M311.869,170.3c-2.413,14.4-.447,29.108-.016,43.7a8.436,8.436,0,0,1-.582,4.11c-.961,1.885-3.2,2.8-5.308,2.93a44.5,44.5,0,0,1-6.317-.536q-.341-2.1-.682-4.2l-2.108,4.838q1.393-15.357,3.048-30.688" transform="translate(-118.156 -67.784)" fill="#263238"/>
      </g>
    </g>
  </g>
</svg>
