<svg id="Grupo_879965" data-name="Grupo 879965" xmlns="http://www.w3.org/2000/svg" xmlns:xlink="http://www.w3.org/1999/xlink" width="62.123" height="90.395" viewBox="0 0 62.123 90.395">
  <defs>
    <clipPath id="clip-path">
      <rect id="Rectángulo_295390" data-name="Rectángulo 295390" width="62.123" height="90.395" fill="#12263f"/>
    </clipPath>
  </defs>
  <g id="Grupo_879964" data-name="Grupo 879964" clip-path="url(#clip-path)">
    <path id="Trazado_597974" data-name="Trazado 597974" d="M1.941,90.395H0V72.034c.058-.223.128-.443.173-.669A12.408,12.408,0,0,1,8.76,61.408a14.65,14.65,0,0,1,4.063-.645c2.28-.1,4.569-.028,6.938-.028,0-1.667-.044-3.249.019-4.827a1.554,1.554,0,0,0-.821-1.549,22.2,22.2,0,0,1-10.476-19.1c-.077-5.148-.021-10.3-.013-15.446A19.78,19.78,0,0,1,28.269,0q6.836-.013,13.673,0c1.4,0,1.813.42,1.814,1.847,0,1.756,0,3.512,0,5.242a3.207,3.207,0,0,0,.346.118,11.292,11.292,0,0,1,9.534,11.407c0,5.5.017,11-.012,16.506a23.313,23.313,0,0,1-.283,3.688A22.414,22.414,0,0,1,42.9,54.551c-.222.143-.525.4-.53.606-.042,1.841-.024,3.683-.024,5.578,2.372,0,4.632,0,6.892,0A12.715,12.715,0,0,1,62.1,73.607c0,4.913-.017,9.827.018,14.74a2.23,2.23,0,0,1-.9,2.047H60.165a2.3,2.3,0,0,1-.929-2.131q.033-7.149,0-14.3a12.181,12.181,0,0,0-.282-2.707,9.8,9.8,0,0,0-9.726-7.668c-5.321-.029-10.643-.007-15.965-.007H32.49c0,2.372-.006,4.658.012,6.944a.8.8,0,0,0,.273.474c1.5,1.44,3.079,2.81,4.505,4.322a3.4,3.4,0,0,1,.163,4.474c-1.389,1.583-3,2.973-4.49,4.467a1.426,1.426,0,0,0-.444.82c-.052,1.086-.053,2.177-.011,3.264a2.161,2.161,0,0,1-.917,2.045H30.524a2.166,2.166,0,0,1-.916-2.043c.043-1.086.028-2.175,0-3.262a1.152,1.152,0,0,0-.3-.726c-1.488-1.455-3.058-2.83-4.486-4.34a3.377,3.377,0,0,1-.2-4.4c1.4-1.609,3.03-3.015,4.541-4.528a1.394,1.394,0,0,0,.437-.817c.044-1.439.02-2.88.02-4.32V63.583H28.78c-5.229,0-10.458-.011-15.687,0a9.889,9.889,0,0,0-10.245,10.3c-.005,4.791-.015,9.583.011,14.374a2.3,2.3,0,0,1-.919,2.131M13.5,44.045a19.5,19.5,0,0,0,35.172-.124c-4.756,5.45-10.552,8.347-17.63,8.344-7.1,0-12.884-2.937-17.542-8.22M39.456,56.366a22.861,22.861,0,0,1-16.773,0v4.263H39.456ZM35.287,77.685a2.632,2.632,0,0,0-.317-.6q-1.63-1.665-3.289-3.3a.847.847,0,0,0-1.318.053q-1.559,1.551-3.111,3.108a.907.907,0,0,0-.006,1.452c1.015,1.017,2.034,2.03,3.044,3.05a.945.945,0,0,0,1.523.006c1.015-1.017,2.038-2.025,3.038-3.056a3.671,3.671,0,0,0,.437-.714" transform="translate(0 0)" fill="#12263f"/>
    <path id="Trazado_597975" data-name="Trazado 597975" d="M10.974,386.3a2.3,2.3,0,0,0,.918-2.131c-.026-4.791-.017-9.583-.011-14.374a9.889,9.889,0,0,1,10.245-10.3c5.229-.013,10.458,0,15.687,0h.837v2.376c0,1.44.023,2.882-.021,4.321a1.394,1.394,0,0,1-.437.817c-1.511,1.514-3.143,2.919-4.541,4.528a3.377,3.377,0,0,0,.2,4.4c1.428,1.51,3,2.885,4.486,4.34a1.153,1.153,0,0,1,.3.725c.032,1.087.047,2.176,0,3.262a2.166,2.166,0,0,0,.916,2.043H22.266a2.213,2.213,0,0,0,.918-2.043c-.03-2.969-.009-5.938-.013-8.907,0-1.12-.5-1.752-1.389-1.779-.923-.028-1.476.627-1.478,1.779,0,2.969.017,5.938-.013,8.907a2.22,2.22,0,0,0,.917,2.043Z" transform="translate(-9.033 -295.903)" fill="#fff"/>
    <path id="Trazado_597976" data-name="Trazado 597976" d="M178.568,386.28a2.16,2.16,0,0,0,.917-2.045c-.043-1.087-.041-2.178.011-3.264a1.425,1.425,0,0,1,.444-.82c1.493-1.494,3.1-2.884,4.49-4.467a3.4,3.4,0,0,0-.163-4.474c-1.426-1.512-3-2.882-4.505-4.322a.8.8,0,0,1-.273-.474c-.018-2.286-.012-4.572-.012-6.944h.771c5.322,0,10.644-.022,15.965.007a9.805,9.805,0,0,1,9.726,7.668,12.182,12.182,0,0,1,.282,2.707q.04,7.149,0,14.3a2.3,2.3,0,0,0,.929,2.131h-8.822a2.226,2.226,0,0,0,.917-2.044c-.03-2.969-.008-5.938-.013-8.908,0-1.118-.508-1.752-1.393-1.777-.924-.027-1.473.625-1.474,1.78,0,2.969.017,5.939-.013,8.907a2.209,2.209,0,0,0,.918,2.042Z" transform="translate(-146.986 -295.886)" fill="#fff"/>
    <path id="Trazado_597977" data-name="Trazado 597977" d="M64.562,451.851a2.22,2.22,0,0,1-.918-2.043c.031-2.969.008-5.938.014-8.907,0-1.152.555-1.806,1.478-1.779.884.027,1.387.66,1.389,1.779,0,2.969-.017,5.939.013,8.907a2.213,2.213,0,0,1-.918,2.043Z" transform="translate(-52.388 -361.457)" fill="#12263f"/>
    <path id="Trazado_597978" data-name="Trazado 597978" d="M280.038,451.852a2.209,2.209,0,0,1-.918-2.042c.031-2.969.009-5.938.014-8.907,0-1.155.55-1.806,1.474-1.78.885.025,1.391.659,1.393,1.777.005,2.969-.016,5.939.013,8.908a2.226,2.226,0,0,1-.917,2.044Z" transform="translate(-229.753 -361.458)" fill="#12263f"/>
    <path id="Trazado_597979" data-name="Trazado 597979" d="M76.32,248.461c4.658,5.283,10.444,8.218,17.542,8.22,7.078,0,12.875-2.894,17.63-8.344a19.5,19.5,0,0,1-35.172.124" transform="translate(-62.822 -204.415)" fill="#fff"/>
    <path id="Trazado_597980" data-name="Trazado 597980" d="M145.021,318.7v4.268H128.248V318.7a22.861,22.861,0,0,0,16.773,0" transform="translate(-105.566 -262.332)" fill="#e8e8e8"/>
    <path id="Trazado_597981" data-name="Trazado 597981" d="M160.414,419.732a3.671,3.671,0,0,1-.437.714c-1,1.031-2.023,2.039-3.038,3.056a.945.945,0,0,1-1.523-.006c-1.011-1.021-2.029-2.034-3.044-3.05a.907.907,0,0,1,.006-1.452q1.556-1.554,3.111-3.108a.847.847,0,0,1,1.318-.053q1.664,1.631,3.289,3.3a2.632,2.632,0,0,1,.317.6" transform="translate(-125.126 -342.048)" fill="#fb8c00"/>
  </g>
</svg>
