<svg xmlns="http://www.w3.org/2000/svg" xmlns:xlink="http://www.w3.org/1999/xlink" width="331.298" height="313.519" viewBox="0 0 331.298 313.519">
  <defs>
    <clipPath id="clip-path">
      <rect id="Rectángulo_295379" data-name="Rectángulo 295379" width="322.037" height="313.519" fill="none"/>
    </clipPath>
    <clipPath id="clip-path-3">
      <rect id="Rectángulo_295326" data-name="Rectángulo 295326" width="11.986" height="7.873" fill="none"/>
    </clipPath>
    <clipPath id="clip-path-4">
      <rect id="Rectángulo_295327" data-name="Rectángulo 295327" width="7.758" height="20.463" fill="none"/>
    </clipPath>
    <clipPath id="clip-path-5">
      <rect id="Rectángulo_295328" data-name="Rectángulo 295328" width="7.758" height="20.464" fill="none"/>
    </clipPath>
    <clipPath id="clip-path-14">
      <rect id="Rectángulo_295338" data-name="Rectángulo 295338" width="32.431" height="31.187" fill="none"/>
    </clipPath>
    <clipPath id="clip-path-15">
      <path id="Trazado_597906" data-name="Trazado 597906" d="M126.06,408.479l11.048-19.136-11.048-6.379v6.672l-21.383,12.345v12.17l21.383-12.345Z" transform="translate(-104.677 -382.965)" fill="none"/>
    </clipPath>
    <linearGradient id="linear-gradient" x1="-0.726" y1="4.22" x2="-0.718" y2="4.22" gradientUnits="objectBoundingBox">
      <stop offset="0" stop-color="#fff"/>
      <stop offset="0.906"/>
      <stop offset="1"/>
    </linearGradient>
    <clipPath id="clip-path-17">
      <path id="Trazado_597907" data-name="Trazado 597907" d="M690.466,328.753l-11.048,19.136,11.048,6.378V347.6l21.383-12.345V323.08l-21.383,12.346Z" transform="translate(-679.418 -323.08)" fill="none"/>
    </clipPath>
    <linearGradient id="linear-gradient-2" x1="-5.422" y1="4.714" x2="-5.413" y2="4.714" xlink:href="#linear-gradient"/>
    <clipPath id="clip-path-18">
      <rect id="Rectángulo_295342" data-name="Rectángulo 295342" width="87.17" height="53.565" fill="none"/>
    </clipPath>
    <clipPath id="clip-path-19">
      <path id="Trazado_597908" data-name="Trazado 597908" d="M93.557,604.665c0-1.106-.776-1.554-1.733-1L6.387,652.989v4l85.436-49.325a3.831,3.831,0,0,0,1.733-3" transform="translate(-6.387 -603.427)" fill="none"/>
    </clipPath>
    <linearGradient id="linear-gradient-3" x1="0.052" y1="1.295" x2="0.055" y2="1.295" xlink:href="#linear-gradient"/>
    <clipPath id="clip-path-21">
      <path id="Trazado_597909" data-name="Trazado 597909" d="M657.181,373.7c0,1.106.776,1.554,1.733,1l85.436-49.325v-4L658.914,370.7a3.83,3.83,0,0,0-1.733,3" transform="translate(-657.181 -321.37)" fill="none"/>
    </clipPath>
    <linearGradient id="linear-gradient-4" x1="-2.22" y1="2.416" x2="-2.216" y2="2.416" xlink:href="#linear-gradient"/>
    <clipPath id="clip-path-22">
      <rect id="Rectángulo_295346" data-name="Rectángulo 295346" width="44.469" height="27.326" fill="none"/>
    </clipPath>
    <clipPath id="clip-path-23">
      <path id="Trazado_597910" data-name="Trazado 597910" d="M696.187,274.54c0,.564.4.793.884.511l43.585-25.163v-2.042l-43.585,25.163a1.955,1.955,0,0,0-.884,1.531" transform="translate(-696.187 -247.845)" fill="none"/>
    </clipPath>
    <linearGradient id="linear-gradient-5" x1="-4.689" y1="5.119" x2="-4.682" y2="5.119" xlink:href="#linear-gradient"/>
    <clipPath id="clip-path-25">
      <path id="Trazado_597911" data-name="Trazado 597911" d="M606.236,206.05c0,.564.4.793.884.511L650.705,181.4v-2.042L607.12,204.518a1.954,1.954,0,0,0-.884,1.531" transform="translate(-606.236 -179.355)" fill="none"/>
    </clipPath>
    <linearGradient id="linear-gradient-6" x1="-4.074" y1="5.655" x2="-4.067" y2="5.655" xlink:href="#linear-gradient"/>
    <clipPath id="clip-path-27">
      <path id="Trazado_597912" data-name="Trazado 597912" d="M668.451,141.083c0,.564.4.792.884.51L712.92,116.43v-2.042l-43.585,25.163a1.954,1.954,0,0,0-.884,1.531" transform="translate(-668.451 -114.388)" fill="none"/>
    </clipPath>
    <linearGradient id="linear-gradient-7" x1="-4.5" y1="6.163" x2="-4.493" y2="6.163" xlink:href="#linear-gradient"/>
    <clipPath id="clip-path-28">
      <rect id="Rectángulo_295352" data-name="Rectángulo 295352" width="58.087" height="35.694" fill="none"/>
    </clipPath>
    <clipPath id="clip-path-29">
      <path id="Trazado_597913" data-name="Trazado 597913" d="M141.821,428.352c0-.737-.517-1.035-1.155-.666L83.734,460.554v2.668l56.932-32.869a2.553,2.553,0,0,0,1.155-2" transform="translate(-83.734 -427.528)" fill="none"/>
    </clipPath>
    <linearGradient id="linear-gradient-8" x1="-0.364" y1="2.894" x2="-0.359" y2="2.894" xlink:href="#linear-gradient"/>
    <clipPath id="clip-path-30">
      <rect id="Rectángulo_295354" data-name="Rectángulo 295354" width="49.166" height="30.212" fill="none"/>
    </clipPath>
    <clipPath id="clip-path-31">
      <path id="Trazado_597914" data-name="Trazado 597914" d="M186.736,550.619c0-.623-.438-.876-.978-.564l-48.188,27.82v2.258l48.188-27.821a2.16,2.16,0,0,0,.978-1.693" transform="translate(-137.57 -549.921)" fill="none"/>
    </clipPath>
    <linearGradient id="linear-gradient-9" x1="-0.777" y1="2.517" x2="-0.771" y2="2.517" xlink:href="#linear-gradient"/>
    <clipPath id="clip-path-33">
      <path id="Trazado_597915" data-name="Trazado 597915" d="M49.166,385.028c0-.623-.437-.876-.978-.564L0,412.284v2.258l48.187-27.821a2.158,2.158,0,0,0,.978-1.693" transform="translate(0 -384.33)" fill="none"/>
    </clipPath>
    <linearGradient id="linear-gradient-10" x1="0.074" y1="3.688" x2="0.08" y2="3.688" xlink:href="#linear-gradient"/>
    <clipPath id="clip-path-34">
      <rect id="Rectángulo_295358" data-name="Rectángulo 295358" width="26.749" height="16.437" fill="none"/>
    </clipPath>
    <clipPath id="clip-path-35">
      <path id="Trazado_597916" data-name="Trazado 597916" d="M116.085,339.334c0-.339-.238-.477-.532-.307L89.336,354.163v1.228l26.217-15.136a1.176,1.176,0,0,0,.532-.921" transform="translate(-89.336 -338.954)" fill="none"/>
    </clipPath>
    <linearGradient id="linear-gradient-11" x1="-0.942" y1="7.198" x2="-0.931" y2="7.198" xlink:href="#linear-gradient"/>
    <clipPath id="clip-path-36">
      <rect id="Rectángulo_295359" data-name="Rectángulo 295359" width="3.282" height="4.239" fill="none"/>
    </clipPath>
    <clipPath id="clip-path-37">
      <rect id="Rectángulo_295360" data-name="Rectángulo 295360" width="3.282" height="4.238" fill="none"/>
    </clipPath>
    <clipPath id="clip-path-42">
      <rect id="Rectángulo_295365" data-name="Rectángulo 295365" width="1.5" height="1.936" fill="none"/>
    </clipPath>
    <clipPath id="clip-path-46">
      <rect id="Rectángulo_295369" data-name="Rectángulo 295369" width="1.499" height="1.936" fill="none"/>
    </clipPath>
    <clipPath id="clip-path-55">
      <path id="Trazado_108463" data-name="Trazado 108463" d="M306.816,263.985l-2.172,1.262a3.826,3.826,0,0,0,1.594-3.506l2.172-1.262A3.826,3.826,0,0,1,306.816,263.985Z" transform="translate(-304.645 -260.479)" fill="#ded2da"/>
    </clipPath>
    <clipPath id="clip-path-56">
      <path id="Trazado_108466" data-name="Trazado 108466" d="M270.6,189.346l2.173-1.262a3.855,3.855,0,0,1,3.886.381l-2.172,1.262A3.851,3.851,0,0,0,270.6,189.346Z" transform="translate(-270.604 -187.716)" fill="#f0f0f2"/>
    </clipPath>
    <clipPath id="clip-path-57">
      <path id="Trazado_108472" data-name="Trazado 108472" d="M301.4,205.445l2.172-1.262a12.007,12.007,0,0,1,5.446,9.432l-2.171,1.262A12,12,0,0,0,301.4,205.445Z" transform="translate(-301.4 -204.183)" fill="#f0f0f2"/>
    </clipPath>
    <clipPath id="clip-path-58">
      <rect id="Rectángulo_295386" data-name="Rectángulo 295386" width="52.232" height="88.177" fill="none"/>
    </clipPath>
    <clipPath id="clip-path-60">
      <rect id="Rectángulo_295381" data-name="Rectángulo 295381" width="24.726" height="40.555" fill="#ecedf4"/>
    </clipPath>
    <clipPath id="clip-path-61">
      <rect id="Rectángulo_295382" data-name="Rectángulo 295382" width="24.726" height="40.555" fill="none"/>
    </clipPath>
  </defs>
  <g id="Grupo_884947" data-name="Grupo 884947" transform="translate(-212.702 -3137)">
    <rect id="Rectángulo_295380" data-name="Rectángulo 295380" width="331" height="277" transform="translate(213 3137)" fill="#f2f8fe" opacity="0.72"/>
    <g id="Grupo_879937" data-name="Grupo 879937" transform="translate(212.702 3137)">
      <g id="Grupo_879936" data-name="Grupo 879936" clip-path="url(#clip-path)">
        <path id="Trazado_597811" data-name="Trazado 597811" d="M396.274,632.326l-13.28,10.4,27.791,14.72V634.682Z" transform="translate(-246.117 -406.342)" fill="#1e67bf"/>
        <g id="Grupo_879935" data-name="Grupo 879935">
          <g id="Grupo_879934" data-name="Grupo 879934" clip-path="url(#clip-path)">
            <path id="Trazado_597812" data-name="Trazado 597812" d="M472.464,555.089l-68.37,16.571v22.564l5.661,3.269v17.8h.023c.117,1.447,1.244,2.891,3.156,3.995a15.745,15.745,0,0,0,7.648,1.882,12.934,12.934,0,0,0,6.341-1.469,4.367,4.367,0,0,0,2.449-3.209c.011-.143.293-3.509,2.749-3.911a9.488,9.488,0,0,1,1.528-.14,8.337,8.337,0,0,1,4.285,1.414l.043-.065L457.1,624.83,525.476,585.7V563.132Z" transform="translate(-259.677 -356.708)"/>
            <path id="Trazado_597813" data-name="Trazado 597813" d="M295.926,685.457a6.359,6.359,0,0,0-2.986-.8l-10.675-7.086-19.575-11.331L185,688.454v22.564l53.013,30.636L315.7,696.876V674.311Z" transform="translate(-118.884 -428.135)" fill="#1e67bf"/>
            <path id="Trazado_597814" data-name="Trazado 597814" d="M295.926,622.321a6.367,6.367,0,0,0-2.986-.8,8.854,8.854,0,0,0-1.43.132c-1.98.324-2.234,3.323-2.236,3.357a4.952,4.952,0,0,1-2.754,3.688,13.548,13.548,0,0,1-6.646,1.552,16.375,16.375,0,0,1-7.956-1.964c-2.213-1.278-3.483-3.017-3.483-4.769,0-1.557.983-2.984,2.77-4.014a13.278,13.278,0,0,1,6.121-1.543c2.271-.057,5.641-.488,6.023-1.269s.324-1.309-1.085-2.257L262.689,603.1,185,647.882l53.013,30.635L315.7,633.739Z" transform="translate(-118.884 -387.563)" fill="#5099f1"/>
            <path id="Trazado_597815" data-name="Trazado 597815" d="M472.464,491.955l-68.37,39.134L423,542l-.145.02c1.823,1.132,2.437,1.944,1.756,3.332s-5.584,1.585-6.557,1.61a12.671,12.671,0,0,0-5.833,1.462,4.2,4.2,0,0,0-2.463,3.484c0,1.528,1.159,3.073,3.179,4.239a15.736,15.736,0,0,0,7.648,1.882,12.93,12.93,0,0,0,6.341-1.47,4.367,4.367,0,0,0,2.449-3.209c.011-.143.293-3.509,2.749-3.911a9.49,9.49,0,0,1,1.528-.14,8.336,8.336,0,0,1,4.285,1.414l.043-.065L457.1,561.7l68.372-39.135Z" transform="translate(-259.677 -316.137)" fill="#12263f"/>
            <path id="Trazado_597816" data-name="Trazado 597816" d="M276.486,272.126l-2.953-1.717-2.356-.838a10.276,10.276,0,0,1-1.752-.808l2.953,1.717a10.358,10.358,0,0,0,1.752.807Z" transform="translate(-173.136 -172.71)" fill="#c7deeb"/>
            <path id="Trazado_597817" data-name="Trazado 597817" d="M307.88,125.82l-2.955-1.717c3.813,2.215,6.178,6.919,6.2,13.6.038,13.448-9.451,29.885-21.155,36.641a24.887,24.887,0,0,1-3.865,1.818l-1.81.663-6.42,7.9,2.953,1.716,6.421-7.9,1.809-.663a25.141,25.141,0,0,0,3.866-1.819c11.7-6.758,21.192-23.194,21.155-36.642-.019-6.677-2.385-11.381-6.2-13.6" transform="translate(-178.565 -79.75)" fill="#c7deeb"/>
            <path id="Trazado_597818" data-name="Trazado 597818" d="M247.777,168.864c-4.219-2.926-6.8-8.537-6.824-16.318-.048-16.677,11.677-36.983,26.19-45.363,7.3-4.217,13.923-4.61,18.7-1.832l-2.955-1.716c-4.778-2.777-11.4-2.386-18.7,1.832-14.513,8.379-26.236,28.686-26.19,45.363.024,8.286,2.949,14.114,7.666,16.854q1.476.859,2.953,1.715-.424-.244-.847-.492l-2.522,16.844,2.953,1.716,2.558-17.078-2.955-1.715Z" transform="translate(-152.942 -65.458)" fill="#c7deeb"/>
            <path id="Trazado_597819" data-name="Trazado 597819" d="M294.35,176.332l-3.265-1.884-1.42,2.455,3.095,1.791a22.935,22.935,0,0,1,1.591-2.362" transform="translate(-186.142 -112.103)" fill="#c7deeb"/>
            <path id="Trazado_597820" data-name="Trazado 597820" d="M336.769,148.42l-1.844-1.19-3.262,5.652,1.844,1.191Z" transform="translate(-213.131 -94.612)" fill="#c7deeb"/>
            <path id="Trazado_597821" data-name="Trazado 597821" d="M318.254,150.477l-1.845-1.19-2.005,1.158v5.666l1.845,1.19c.342-.2-.169-2.2.16-2.349Z" transform="translate(-202.04 -95.934)" fill="#c7deeb"/>
            <path id="Trazado_597822" data-name="Trazado 597822" d="M346.729,168.534l-3.689,2.127a9.493,9.493,0,0,1,.323,2.132l1.845,1.19,3.366-4.259Z" transform="translate(-220.442 -108.302)" fill="#c7deeb"/>
            <path id="Trazado_597823" data-name="Trazado 597823" d="M281.062,206.444v2.316l1.845,1.19,3.689-4.444-1.845-1.19Z" transform="translate(-180.615 -131.296)" fill="#c7deeb"/>
            <path id="Trazado_597824" data-name="Trazado 597824" d="M304.057,172.025a16.179,16.179,0,0,0-7.32,12.671,6.565,6.565,0,0,0,1.929,4.6c1,1.188,2.3,1.141,2.3,3.184,0,1.371,0,4.36,0,4.36a1.024,1.024,0,0,0,.527,1.026l1.784,1.16,2.35-3.119a3.383,3.383,0,0,0,1.524-2.637v-4.359c0-2.044,1.295-3.494,2.3-5.839.967-2.265,1.925-4.618,1.925-6.819v-3.39l-2.53-1.539a5.406,5.406,0,0,0-4.785.7" transform="translate(-190.687 -109.905)" fill="#c7deeb"/>
            <path id="Trazado_597825" data-name="Trazado 597825" d="M294.828,180.233l1.42-2.456,3.265,1.884a23.084,23.084,0,0,0-1.59,2.362Z" transform="translate(-189.461 -114.242)" fill="#fff"/>
            <path id="Trazado_597826" data-name="Trazado 597826" d="M336.824,156.212l3.262-5.652,1.421.819-3.1,5.362a4.642,4.642,0,0,0-1.584-.529" transform="translate(-216.448 -96.752)" fill="#fff"/>
            <path id="Trazado_597827" data-name="Trazado 597827" d="M319.565,159.441v-5.666l2.006-1.158v5.666a10.081,10.081,0,0,0-1,.461c-.346.2-.672.462-1.006.7" transform="translate(-205.357 -98.074)" fill="#fff"/>
            <path id="Trazado_597828" data-name="Trazado 597828" d="M351.892,174.182l-3.366,1.941a9.468,9.468,0,0,0-.323-2.132l3.689-2.128Z" transform="translate(-223.76 -110.442)" fill="#fff"/>
            <path id="Trazado_597829" data-name="Trazado 597829" d="M289.915,207.646a15.755,15.755,0,0,0-.324,2.5l-3.365,1.942v-2.316Z" transform="translate(-183.933 -133.436)" fill="#fff"/>
            <path id="Trazado_597830" data-name="Trazado 597830" d="M301.9,188.027a6.564,6.564,0,0,0,1.93,4.6c1,1.188,2.3,1.141,2.3,3.184,0,1.371,0,4.359,0,4.359,0,.97.685,1.366,1.521.883l3.14-1.816a3.384,3.384,0,0,0,1.523-2.637v-4.36c0-2.044,1.295-3.493,2.3-5.839.967-2.265,1.924-4.618,1.924-6.819,0-4.666-3.279-6.556-7.315-4.225a16.18,16.18,0,0,0-7.32,12.671m1.135.77a14.307,14.307,0,0,1,5.6-11.632c-4.271,6.919-3.358,10.338-3.358,10.338Z" transform="translate(-194.005 -112.045)" fill="#fff"/>
            <path id="Trazado_597831" data-name="Trazado 597831" d="M272.456,110.269c-14.513,8.379-26.237,28.686-26.19,45.363.027,9.477,3.85,15.739,9.806,17.842l-2.558,17.078,14.332-17.642a30.168,30.168,0,0,0,4.78-2.249c14.513-8.379,26.243-28.7,26.2-45.373s-11.853-23.4-26.366-15.019m.155,54.581a25.1,25.1,0,0,1-3.865,1.819l-1.81.663-6.421,7.9,1.089-7.275-2.356-.84c-5.017-1.771-7.91-7.018-7.931-14.4-.039-13.443,9.451-29.878,21.155-36.636s21.255-1.314,21.293,12.128-9.451,29.884-21.155,36.642" transform="translate(-158.254 -68.543)" fill="#fff"/>
            <path id="Trazado_597832" data-name="Trazado 597832" d="M500.291,37.563c-.019-6.682-2.386-11.387-6.2-13.6l-2.954-1.716c3.811,2.215,6.179,6.92,6.2,13.6.021,7.38-2.828,15.947-7.818,23.492l-2.343,3.551,1.126,6-6.444-.474-1.807,1.425a32.242,32.242,0,0,1-3.862,2.643c-5.891,3.4-11.236,3.711-15.1,1.467l2.953,1.716c3.862,2.244,9.206,1.933,15.1-1.467A32.293,32.293,0,0,0,483,71.553l1.808-1.426,6.444.474-1.126-6,2.343-3.551c4.991-7.544,7.839-16.112,7.819-23.491" transform="translate(-296.304 -14.294)" fill="#c7deeb"/>
            <path id="Trazado_597833" data-name="Trazado 597833" d="M432.554,50.693c-.048-16.677,11.682-36.993,26.195-45.372,7.3-4.216,13.918-4.607,18.7-1.83L474.49,1.774C469.713-1,463.1-.611,455.8,3.6c-14.513,8.379-26.242,28.7-26.2,45.372.024,8.283,2.949,14.11,7.664,16.851l2.955,1.717c-4.717-2.741-7.641-8.568-7.664-16.851" transform="translate(-276.067 0)" fill="#c7deeb"/>
            <path id="Trazado_597834" data-name="Trazado 597834" d="M490.424,23.435C490.377,6.759,478.576.028,464.062,8.407S437.82,37.1,437.868,53.779s11.853,23.4,26.365,15.019a40.266,40.266,0,0,0,4.778-3.263L483.4,66.592l-2.651-14.071c5.931-8.967,9.706-19.61,9.679-29.086M476.332,59.394l-6.444-.474-1.808,1.426a32.258,32.258,0,0,1-3.863,2.643c-11.7,6.757-21.255,1.313-21.292-12.128s9.45-29.885,21.154-36.642,21.25-1.311,21.289,12.138c.02,7.379-2.828,15.947-7.819,23.491L475.206,53.4Z" transform="translate(-281.38 -3.087)" fill="#fff"/>
            <path id="Trazado_597835" data-name="Trazado 597835" d="M463.794,380.359l.042-.243-.12-.028c.027.09.052.181.078.271" transform="translate(-297.991 -244.25)" fill="#d88f69"/>
            <path id="Trazado_597836" data-name="Trazado 597836" d="M472.764,270.611a14.365,14.365,0,0,0-6.179,6.995,102.678,102.678,0,0,1-7.029,12.971c-1.368,2.075-3.642,5.378-4.957,7.83s-4.193,10.189-4.193,10.189,2.877-1.179,4.01.967a10.154,10.154,0,0,1,1.065,4.488s5.539-7.6,6.671-9.194,1.924-3.959,3.718-6.176c1-1.24,2.889-4.43,4.93-6.428-.283-6.443.234-16.7,1.965-21.642" transform="translate(-289.437 -173.899)" fill="#1d65bd"/>
            <path id="Trazado_597837" data-name="Trazado 597837" d="M454.143,377.281c-.929-1.759-3.03-1.284-3.755-1.056a4.834,4.834,0,0,0-.4.817c.061,0,2.517-.561,3.3.3s1.038,4.429,1.038,4.429l.8-1.264a9.652,9.652,0,0,0-.98-3.224" transform="translate(-289.165 -241.617)" fill="#e6f6ff"/>
            <path id="Trazado_597838" data-name="Trazado 597838" d="M472.439,327c-.311,0-3.845-1.026-3.845-1.026a15.17,15.17,0,0,1-1.405,7.433c-1.411,2.665-4.63,7.686-5.876,9.608.039.061.077.124.112.191a10.155,10.155,0,0,1,1.065,4.488s5.539-7.6,6.671-9.194,1.925-3.959,3.718-6.176c1-1.241,2.889-4.43,4.93-6.428-.04-.91-.064-1.9-.07-2.934a21.5,21.5,0,0,1-5.3,4.037" transform="translate(-296.446 -207.539)" fill="#034ba3"/>
            <path id="Trazado_597839" data-name="Trazado 597839" d="M514.307,380.76l-.5-14.047,3.073,3.606-.439,9.093Z" transform="translate(-330.179 -235.655)" fill="#00338b"/>
            <path id="Trazado_597840" data-name="Trazado 597840" d="M514.443,314.982a12.089,12.089,0,0,0,5.713,5.714,13.019,13.019,0,0,0,10.275.5c2.854-1.083,7.823-3,7.774-8.807,0,0-4.412-3.553-3.149-8.56S537.664,290,537.664,290l-2.9-12.2-4.572-4.071s-6.736,4.8-9.592,3.747-5.267-4.463-5.267-4.463l-3.789,6.558s.05,21.009.788,23.271,2.115,12.138,2.115,12.138" transform="translate(-328.723 -175.444)" fill="#e6f6ff"/>
            <path id="Trazado_597841" data-name="Trazado 597841" d="M532.365,546.855c-.3.3-2.9,4.13-5.917,5.56s-7.332,5.855-6.545,8.118,6.692-.2,8.61-1.18,7.517-3.991,7.517-3.991l.242-6.937Z" transform="translate(-334.036 -351.417)" fill="#313131"/>
            <path id="Trazado_597842" data-name="Trazado 597842" d="M528.514,574.862c-1.918.984-7.822,3.443-8.61,1.18a1.656,1.656,0,0,1-.07-.3,2,2,0,0,0,.07.929c.788,2.263,6.692-.2,8.61-1.181s7.517-3.991,7.517-3.991l-.222-.51c-1.053.565-5.6,3-7.295,3.872" transform="translate(-334.038 -366.927)" fill="#0b0b0b"/>
            <path id="Trazado_597843" data-name="Trazado 597843" d="M542.282,590.743s-2.657,4.132-3.936,5.756-3.836,7.478-2.41,8.216,4.919,1.081,8.51-1.919,4.477-7.872,5.067-9.5-.344-5.56-.344-5.56Z" transform="translate(-344.13 -377.691)" fill="#313131"/>
            <path id="Trazado_597844" data-name="Trazado 597844" d="M550.058,599.578a4.267,4.267,0,0,1-.2,1.329c-.59,1.624-1.475,6.494-5.067,9.5s-7.084,2.657-8.51,1.919a.622.622,0,0,1-.226-.2,1,1,0,0,0,.417.917c1.427.738,4.919,1.081,8.511-1.918s4.477-7.872,5.067-9.5a4.016,4.016,0,0,0,0-2.042" transform="translate(-344.48 -385.298)" fill="#0b0b0b"/>
            <path id="Trazado_597845" data-name="Trazado 597845" d="M584.994,382.131" transform="translate(-375.926 -245.563)" fill="#1c354e"/>
            <path id="Trazado_597846" data-name="Trazado 597846" d="M554.261,425.186c.886-5.264,4.97-25.957,4.6-32.1a21.189,21.189,0,0,0-2.562-9.116c-.113,5.584-4.962,7.46-7.768,8.525a12.655,12.655,0,0,1-8.827.065,72.719,72.719,0,0,0,1.793,8.938c.984,2.854.3,18.547.394,21.352s1.531,11.315,1.875,17.956-1.963,23.5-1.963,23.5a13.979,13.979,0,0,0,7.615-.922c2.411-1.034,4.474-5,4.474-5s1.7-16.034,1.8-19.872-2.309-8.068-1.424-13.332" transform="translate(-346.82 -246.745)" fill="#1d65bd"/>
            <path id="Trazado_597847" data-name="Trazado 597847" d="M584.994,382.131" transform="translate(-375.926 -245.563)" fill="#1c354e"/>
            <path id="Trazado_597848" data-name="Trazado 597848" d="M525.773,427.008c-.1-2.8.59-18.5-.394-21.352a72.716,72.716,0,0,1-1.793-8.938c.02.007.042.011.062.017-.493-.165-1-.355-1.509-.581a12.089,12.089,0,0,1-5.714-5.714,69.75,69.75,0,0,0-1.772,16.249,78.645,78.645,0,0,0,3,17.613c.763,3.013,6.853,14.725,9.995,20.663-.344-6.641-1.777-15.152-1.875-17.956" transform="translate(-330.705 -250.903)" fill="#044ca4"/>
            <path id="Trazado_597849" data-name="Trazado 597849" d="M540.172,255.731a14.292,14.292,0,0,1-2.607,3.314,16.259,16.259,0,0,1-7.472,3.74c-.346.265-.5.819.721,4.026.773,2.027,3.3,2.63,7,.2s4.26-5.317,4.26-5.317-2.063-3.16-1.907-5.959" transform="translate(-340.486 -164.337)" fill="#d9a782"/>
            <g id="Grupo_879791" data-name="Grupo 879791" transform="translate(189.607 91.395)" opacity="0.15" style="mix-blend-mode: multiply;isolation: isolate">
              <g id="Grupo_879790" data-name="Grupo 879790">
                <g id="Grupo_879789" data-name="Grupo 879789" clip-path="url(#clip-path-3)">
                  <path id="Trazado_597850" data-name="Trazado 597850" d="M540.619,255.731a14.292,14.292,0,0,1-2.607,3.314,16.259,16.259,0,0,1-7.472,3.74c.044.1.094.22.148.356a15.7,15.7,0,0,0,5.652-1.633c2.255-1.193,4.35.862,5.341,2.1a6.39,6.39,0,0,0,.844-1.914s-2.063-3.16-1.907-5.959" transform="translate(-530.54 -255.731)" fill="#d88f69"/>
                </g>
              </g>
            </g>
            <path id="Trazado_597851" data-name="Trazado 597851" d="M558.469,311.691c-1.749-4.3-3.412-5.02-3.2-9.545.185-3.955,4.877-18.871,4.877-18.871l.2-4.9c-3.716-4.372-7.785-5.493-10.807-7.766a20.4,20.4,0,0,1-3.24,6.689c-2.551,3.57-6.266,12.969-5.246,24.263s4.649,32.77,4.649,32.77,12.139-.356,15.489-9.172c0,0-.976-9.171-2.725-13.47" transform="translate(-347.579 -173.899)" fill="#367ed6"/>
            <path id="Trazado_597852" data-name="Trazado 597852" d="M511.186,281.35c1.7-9.245,4.484-13.868,4.484-13.868L509.3,268.6c-2.044,5.84-2.4,19.1-1.734,24.721s.894,13.805.894,17.886-.952,12.749-.952,12.749l3.27,4.068c1.494-10.363-1.289-37.43.408-46.675" transform="translate(-325.974 -171.888)" fill="#367ed6"/>
            <path id="Trazado_597853" data-name="Trazado 597853" d="M526.544,286.871l.918,3.419a62.561,62.561,0,0,0-2.179,13.249,172.293,172.293,0,0,0,.341,18.626l1.542,2.94,1.826-1.928s-.828-14.637-1.025-19.56a53.1,53.1,0,0,1,.912-13.079l2.649-1.874-2.186-3.16Z" transform="translate(-337.47 -183.47)" fill="#fb8c00"/>
            <path id="Trazado_597854" data-name="Trazado 597854" d="M545.549,266.745s-1.769,5.305-8.669,6.7l1.429,4.544s6.787-3.628,8.9-8.292Z" transform="translate(-345.007 -171.414)" fill="#fdfdfd"/>
            <path id="Trazado_597855" data-name="Trazado 597855" d="M526.576,273.016h-1.614a14.437,14.437,0,0,0,.931,8.126l3.161-3.662c-2.259-1.367-2.478-4.463-2.478-4.463" transform="translate(-337.18 -175.444)" fill="#fdfdfd"/>
            <path id="Trazado_597856" data-name="Trazado 597856" d="M548.317,266.964c-.157.012.186.219.113.618a76.458,76.458,0,0,1-4.328,9.669c-2.959,5.834-4.092,18.056-2.474,27.258,0,0,2.993-15.389,7.11-22.826L546.355,279l3.218-1.466,1.385-8.315s-1.683-2.327-2.641-2.254" transform="translate(-347.583 -171.554)" fill="#438be3"/>
            <path id="Trazado_597857" data-name="Trazado 597857" d="M517.673,268.871s-4.94,10.179-4.726,18.41c.205,7.829-.062,13.051-.062,13.051s-3.178-14.329-2.17-23.693l2.844-.52-1.768-2.931,4.858-6.226Z" transform="translate(-328.066 -171.554)" fill="#438be3"/>
            <path id="Trazado_597858" data-name="Trazado 597858" d="M530.262,212.618c-2.686-1.573-6.755-1.129-9.509,1a8.889,8.889,0,0,0-3.558,5.591c-.187,1.073-.449,2-.653,2.821s.693,1.773.693,1.773c-.832,1.19.037,3.839.267,4.482a1.483,1.483,0,0,0-.115.622.712.712,0,0,0,.551.638,14.548,14.548,0,0,1,.513,2.323c.04.649.088,2.815,2.628,2.7s6.105-1.844,8.295-3.827a16.9,16.9,0,0,0,4.835-9.618,8.426,8.426,0,0,0-3.946-8.5" transform="translate(-331.918 -136.026)" fill="#ffcda8"/>
            <path id="Trazado_597859" data-name="Trazado 597859" d="M517.85,248.67h0c.3-.879,1.088-2.261,1.273-3.142.238-1.14-2.07-2.121-2.07-2.121a3.542,3.542,0,0,0,.529.782c-.832,1.19.037,3.839.267,4.482" transform="translate(-332.266 -156.417)" fill="#d9a782"/>
            <path id="Trazado_597860" data-name="Trazado 597860" d="M531.822,212.618c-2.686-1.573-6.755-1.129-9.509,1a9.11,9.11,0,0,0-3.373,4.78A2.627,2.627,0,0,0,520.7,220c2.559.386,4.881-.549,6.181-.248.986.229,1.589,2.027,1.8,3.676s1.279,2.155,1.067,4.021c-.183,1.619-2.3,4.153-2.822,5.891a16.723,16.723,0,0,0,4-2.608,16.9,16.9,0,0,0,4.835-9.618,8.426,8.426,0,0,0-3.946-8.5" transform="translate(-333.478 -136.026)" fill="#ffcda8"/>
            <path id="Trazado_597861" data-name="Trazado 597861" d="M530.321,208.466a9.989,9.989,0,0,0-11.082.689,9.048,9.048,0,0,0-2.635,3.508c-.756,1.586-.576,4.713,3.038,4.77a26.946,26.946,0,0,0,6.437-1.006c2.194,1.236,1.5,3.534,1.827,4.267s.7,1.678,1.192,1.92c.3.148.821-.363.953-.535.319-.417,2.541-3.339,2.906.076a15.621,15.621,0,0,0,1.079-3.984,9.555,9.555,0,0,0,.066-1.637c.589-1.39.222-5.628-3.78-8.068" transform="translate(-331.746 -133.08)" fill="#12263f"/>
            <path id="Trazado_597862" data-name="Trazado 597862" d="M548.463,237.672c.331.734.7,1.678,1.192,1.92.3.148.821-.363.952-.535.32-.417,2.541-3.339,2.906.077a15.64,15.64,0,0,0,1.079-3.984,9.541,9.541,0,0,0,.066-1.638,19.236,19.236,0,0,1-6.425,2.129c.163.853.06,1.653.23,2.031" transform="translate(-352.302 -150.058)" fill="#281080"/>
            <path id="Trazado_597863" data-name="Trazado 597863" d="M522.233,266.432a12.542,12.542,0,0,0-.658-4.71c-.044-.134-.617.056-1.075-.065h0a14.517,14.517,0,0,1,.513,2.323,2.7,2.7,0,0,0,1.22,2.451" transform="translate(-334.481 -168.145)" fill="#d9a782"/>
            <path id="Trazado_597864" data-name="Trazado 597864" d="M554.969,249.188c.323.179,1.059.42,2.365-1.167s1.194-3,.472-3.423a1.169,1.169,0,0,0-1.7.466,37.1,37.1,0,0,0-1.137,4.124" transform="translate(-356.631 -157.056)" fill="#f2a983"/>
            <path id="Trazado_597865" data-name="Trazado 597865" d="M554.969,249.188c.323.179,1.059.42,2.365-1.167s1.194-3,.472-3.423a1.169,1.169,0,0,0-1.7.466,37.1,37.1,0,0,0-1.137,4.124" transform="translate(-356.631 -157.056)" fill="#ffcda8"/>
            <path id="Trazado_597866" data-name="Trazado 597866" d="M582.966,347.327s-.976-9.171-2.725-13.469-3.412-5.02-3.2-9.544c.185-3.956,4.876-18.872,4.876-18.872l.015-.336-5.025,4.239s-2.558,11.271-2.086,15.982c.429,4.3,5.79,17.689,4.238,27.21a11.936,11.936,0,0,0,3.908-5.21" transform="translate(-369.35 -196.066)" fill="#1d65bd"/>
            <path id="Trazado_597867" data-name="Trazado 597867" d="M581.161,291.013c-3.259.713-5.464,4.717-3.934,9.235s6.121,16.759,6.121,16.759L584,340.542s3.441,1.421,6.939,2.563c0,0,.639-21,.784-25.443s-3.351-16.9-4.3-19.964-3.352-7.322-6.267-6.685" transform="translate(-370.616 -186.968)" fill="#438be3"/>
            <path id="Trazado_597868" data-name="Trazado 597868" d="M597.236,429.872l-.129.8,6.426,2.524.1-.949c-2.945-.98-5.754-2.111-6.4-2.373" transform="translate(-383.71 -276.242)" fill="#e2e9ed"/>
            <path id="Trazado_597869" data-name="Trazado 597869" d="M585.6,432.107a7.32,7.32,0,0,0-3.02,2.2c-1.164,1.542-4.247,5.915-3.146,6.1s2.964-2.516,3.652-2.705,1.664.975,1.633,2.108-1.888,3.271-2.517,3.743-1.888.881-1.447,1.353,2.013.1,3.43,0a7.775,7.775,0,0,0,4.5-2.737,15.391,15.391,0,0,0,1.668-3.806c.156-.515.217-2.631.33-4.265Z" transform="translate(-372.203 -277.678)" fill="#ffcda8"/>
            <path id="Trazado_597870" data-name="Trazado 597870" d="M593.684,455.66c-.384.019-.969.97-1.669,1.628a34.875,34.875,0,0,1-2.833,2.093c.459-.052.947-.115,1.418-.146a7.777,7.777,0,0,0,4.5-2.737,10.69,10.69,0,0,0,1.072-2.1,22.66,22.66,0,0,1-2.486,1.264" transform="translate(-378.617 -292.001)" fill="#d9a782"/>
            <path id="Trazado_597871" data-name="Trazado 597871" d="M284.406,374.971l-2.161-3.443s-4.3,1.129-5.077,4.341-3.178,9.259-3.652,12.408-.987,13.082,1.154,14.022a6.353,6.353,0,0,0,5.771.034c1.885-.907,5.3-4.166,5.3-4.166Z" transform="translate(-175.496 -238.749)" fill="#e6f6ff"/>
            <path id="Trazado_597872" data-name="Trazado 597872" d="M285.64,405.991a28.313,28.313,0,0,1-.763,7.267c-.925,3.648-1.647,5.829-1.151,8.334.281,1.413-.587,2.711-.323,3.5a6.063,6.063,0,0,0,3.63-.61c1.885-.907,5.3-4.166,5.3-4.166l-.64-11.138Z" transform="translate(-182.086 -260.896)" fill="#c7deeb"/>
            <path id="Trazado_597873" data-name="Trazado 597873" d="M309.9,677.232s-.628,3.914,0,4.8a4.325,4.325,0,0,0,4.852.834c1.67-.991,1.809-1.747,3.58-3.349,1.683-1.522,4.249-2.956,4.938-5.276.531-1.788.094-3.9-.794-4.316s-4.383.628-6.158,2.191-6.418,5.117-6.418,5.117" transform="translate(-198.97 -430.444)" fill="#dee4f0"/>
            <path id="Trazado_597874" data-name="Trazado 597874" d="M323.406,679.724c-.69,2.321-3.255,3.755-4.938,5.277-1.771,1.6-1.91,2.358-3.58,3.349a4.325,4.325,0,0,1-4.852-.834,1.453,1.453,0,0,1-.205-.582,2.812,2.812,0,0,0,.083.813l.17,1.028a3.931,3.931,0,0,0,1.466.981,3.835,3.835,0,0,0,3.32-.235,25.692,25.692,0,0,0,2.826-2.64s-.006-.293-.009-.633c.224-.23.476-.481.782-.757,1.683-1.523,4.249-2.954,4.938-5.276a5.722,5.722,0,0,0,.222-1.851,5.659,5.659,0,0,1-.222,1.358" transform="translate(-199.101 -435.928)" fill="#000508"/>
            <path id="Trazado_597875" data-name="Trazado 597875" d="M366.971,709.822c-2.245-.5-9.322-.943-11.8-3.549l-9.891,3.234s-.672,3.144,0,4.806a12.587,12.587,0,0,0,4.671,1.259,21.535,21.535,0,0,1,6.154.358,19.336,19.336,0,0,0,9.3,0c3.01-.9,4.942-3.144,4.987-4.222s-1.169-1.393-3.415-1.887" transform="translate(-221.687 -453.861)" fill="#dee4f0"/>
            <path id="Trazado_597876" data-name="Trazado 597876" d="M370.793,721.555c-.071,1.085-1.995,3.3-4.983,4.2a19.337,19.337,0,0,1-9.3,0,21.528,21.528,0,0,0-6.154-.358,12.587,12.587,0,0,1-4.671-1.259c-.02-.049-.039-.1-.056-.152a3.333,3.333,0,0,0,.048.335l-.062,1.5a6.465,6.465,0,0,0,1.96.774c1.522.433,5.968.143,5.968.143s.007-.417.009-.822a13.124,13.124,0,0,1,3.065.4,19.379,19.379,0,0,0,9.3,0c3.011-.9,4.942-3.145,4.986-4.221a1.048,1.048,0,0,0-.108-.537" transform="translate(-222.099 -463.682)" fill="#000508"/>
            <path id="Trazado_597877" data-name="Trazado 597877" d="M328.482,304.642c1.909,1,3.33,3.759,3.813,5.961s0,2.764,0,2.764,1.534,1.336,1.365,1.771-1.529,1.456-1.529,1.456a7.926,7.926,0,0,1,.132,2.085,10.628,10.628,0,0,0-.541,2.829c.12.734-.023,2.023-.771,2.4s-4.021.121-4.335,1.108a46.473,46.473,0,0,0-.312,6.069s-5,3.323-9.449,1.126-2.772-6.884-2.772-6.884,1.349-2.467.754-4.157-3.22-4.729-2.718-9,2.742-6.6,6.785-8,6.733-1.021,9.58.472" transform="translate(-200.53 -194.905)" fill="#ffcda8"/>
            <path id="Trazado_597878" data-name="Trazado 597878" d="M339.85,350.317c.154-.486,1.03-.673,1.967-.779-1.491-.365-3.345-1.027-3.468-2.085-.205-1.781-.732-4.773-.732-4.773l-3.2,1.462s-.222,9.653-1.77,14.087a12.069,12.069,0,0,0,6.888-1.842,46.468,46.468,0,0,1,.312-6.069" transform="translate(-213.766 -220.211)" fill="#d9a782"/>
            <path id="Trazado_597879" data-name="Trazado 597879" d="M345.781,346.511c-.081-1.141-.457-1.783-1.53-1.371a2.428,2.428,0,0,0-.688,3.563c.961,1.256,2.537,2.352,2.218-2.192" transform="translate(-220.465 -221.711)" fill="#ffcda8"/>
            <path id="Trazado_597880" data-name="Trazado 597880" d="M323.634,300.394c-5.261.2-11.571,2.218-12.679,8.28s1.507,7.681,1.507,7.681c.6,1.226,1.237,2.208,1.492,2.938a3.068,3.068,0,0,1,.142,1.208,8.627,8.627,0,0,0,3.4.8c2.008-.114,2.078.365,3.151-1.6s2.17-4,3.724-3.791,2.6.594,2.808-.138a3.229,3.229,0,0,0,.162-1.621c-.07-.754,1.119-1.645,1.462-2.832s-1.1-2.4,0-3.518a10.177,10.177,0,0,0,1.665-1.724,1.782,1.782,0,0,0,.7-1.447c-.033-.936-2.274-4.435-7.534-4.238" transform="translate(-199.649 -193.032)" fill="#12263f"/>
            <path id="Trazado_597881" data-name="Trazado 597881" d="M327.571,333.767c1.552.2,2.6.594,2.808-.138a3.228,3.228,0,0,0,.162-1.621c-.07-.754,1.119-1.645,1.462-2.832a1.857,1.857,0,0,0-.04-1.006c-1.388,2.26-9.533,6.146-12.252,6.465a11.214,11.214,0,0,1-4.05-.426c.6,1.226,1.237,2.207,1.492,2.938a3.071,3.071,0,0,1,.142,1.208,8.619,8.619,0,0,0,3.4.8c2.008-.114,2.078.365,3.151-1.6s2.17-4,3.724-3.791" transform="translate(-202.849 -210.887)"/>
            <path id="Trazado_597882" data-name="Trazado 597882" d="M304.973,559.492s-.527,2.865,3.433,3.432c2.232.32,5.568-2.858,7.046-6.038a9.7,9.7,0,0,0,.715-5.083s-.306-13.538.808-18.43,4.489-23.438,4.489-23.438l-5.277-24.429h-10.2s-1.588,9.223-1.566,12.33c.036,4.933,1.71,12.019,1.566,19.674s-2.435,15.545-1.96,23.6.947,18.387.947,18.387" transform="translate(-195.33 -311.993)" fill="#0f2841"/>
            <path id="Trazado_597883" data-name="Trazado 597883" d="M347.5,493.7s4.957,19.384,3.57,28.93-3.741,29.424-4.034,34.213,3.3,12.215,3.3,12.215-8.985,4.5-16,4.1c0,0-1.7-19.438-.969-25.312s2.967-13.138,2.21-17.3-2.887-19.6-2.887-19.6a25.861,25.861,0,0,1-3.462-8.147c-.254-1.468-2.2-11.965,1.031-13.45,5.387-2.476,17.244,4.347,17.244,4.347" transform="translate(-211.044 -314.116)" fill="#1c354e"/>
            <path id="Trazado_597884" data-name="Trazado 597884" d="M321.653,408.327a79.3,79.3,0,0,1-.578-13.111c.128-4.691,1.729-12.728-7.748-18.8l-15.113-6.972s-2.655.129-4.519.386-5.849.563-5.977,4.876,2.185,15.5,4.178,18.453,4.684,9.769,4.591,11.439-3.691,9.639-2.278,9.961,9.053,4.407,13.937,5.628,14.36,1.837,14.406-1.064a98.148,98.148,0,0,0-.9-10.8" transform="translate(-184.888 -237.409)" fill="#e6f6ff"/>
            <path id="Trazado_597885" data-name="Trazado 597885" d="M361.375,418.343c.089-3.275.893-8.182-1.853-12.911a51.305,51.305,0,0,0-5.512,5.648c-.8,1.414-3.465-3.2-3.465-3.2s-.572,9.3.778,12.133,7.455,7.648,6.278,10.347-.119,5.592-.936,8.548a31.559,31.559,0,0,1-2.557,5.3c4.336.361,8.713.013,8.743-1.956a98.165,98.165,0,0,0-.9-10.8,79.26,79.26,0,0,1-.578-13.111" transform="translate(-225.188 -260.536)" fill="#c7deeb"/>
            <path id="Trazado_597886" data-name="Trazado 597886" d="M314.833,363.015a17.138,17.138,0,0,1,5.442,1.538c2.348,1.155,7.281,3.918,7.281,3.918l1.941,3.813s-8.182-1.643-13.98-4.815c-3.778-2.067-2.393-2.614-2.393-2.614Z" transform="translate(-201.059 -233.279)" fill="#fdfdfd"/>
            <path id="Trazado_597887" data-name="Trazado 597887" d="M442.673,378.014c-1.6,2.4-2.235,4.154-2.873,5.152a6.434,6.434,0,0,0-1.341,4.086c.065,1.864,2.5,7.606,4.02,7.833,1.2.18,1.986-1.06,2.244-1.856a5.236,5.236,0,0,0,.059-1.3,6.881,6.881,0,0,1-.511-2.665,18.28,18.28,0,0,0-.094-2.981c1.27-.807,1.484-1.338,2.213-3.313,0,0,.966-3.379-.538-4.72a2.668,2.668,0,0,0-3.178-.237" transform="translate(-281.757 -242.643)" fill="#ffcda8"/>
            <path id="Trazado_597888" data-name="Trazado 597888" d="M445.351,387.455l-5.285,1.248h0c-.089.164-.178.317-.264.454a6.432,6.432,0,0,0-1.341,4.086c.065,1.863,2.5,7.606,4.02,7.833,1.2.18,1.986-1.06,2.244-1.856a5.239,5.239,0,0,0,.059-1.3,6.878,6.878,0,0,1-.511-2.665,18.275,18.275,0,0,0-.094-2.981c1.27-.807,1.484-1.338,2.213-3.314a9.534,9.534,0,0,0,.282-1.671c-1-.895-1.091.056-1.319.163" transform="translate(-281.757 -248.635)" fill="#d9a782"/>
            <path id="Trazado_597889" data-name="Trazado 597889" d="M419.4,406.081s5.272-5.314,5.315-5.746-.673-2.371-.432-3.492.7-2.1.814-2.593.09-1.636,1.314-1.6.617,1.631.7,2.118-.292,1.389,1.61,1.022a17,17,0,0,0,3.473-.847c.465-.252,1.039-.016,1.315.9a1.068,1.068,0,0,1-.284,1.045s.544.568.464,1.03a3.065,3.065,0,0,1-.673,1.1,3.981,3.981,0,0,1-.267,2.124c-.469.937-1.71,3.085-3.1,3.581a11.968,11.968,0,0,0-3.363,2.732c-2.443,2.888-5.78,7.367-5.78,7.367Z" transform="translate(-269.509 -252.324)" fill="#ffcda8"/>
            <path id="Trazado_597890" data-name="Trazado 597890" d="M429.611,399.8h-.006c-.521,1.178.97,4.171.97,4.171.556,1.159-.128,3.3-1.721,4.8-2.23,2.1-7.618,6.51-7.618,6.51l.443,3.5s3.337-4.478,5.78-7.367a11.975,11.975,0,0,1,3.363-2.732c1.394-.5,2.635-2.644,3.1-3.58a3.982,3.982,0,0,0,.267-2.124,3.066,3.066,0,0,0,.673-1.1c.08-.463-.464-1.03-.464-1.03a1.069,1.069,0,0,0,.284-1.045c-.276-.917-.85-1.152-1.315-.9a7.6,7.6,0,0,1-1.734.5h0l-.029.005-.009,0c-.347.074-.744.153-1.187.24l-.069.013c-.143.029-.29.056-.446.086-.052.011-.1.02-.149.027s-.093.015-.137.021" transform="translate(-270.692 -256.28)" fill="#d9a782"/>
            <path id="Trazado_597891" data-name="Trazado 597891" d="M448.5,418.943c.011.306.153,1.015.83.829s1-1.063,1-1.063a1.438,1.438,0,0,0,.958-.788c.435-.733.64-1.786.129-1.986s-1.341.583-1.627,1.291c0,0-1.369-.1-1.292,1.716" transform="translate(-288.213 -267.266)" fill="#ffcda8"/>
            <path id="Trazado_597892" data-name="Trazado 597892" d="M445.225,391.942s.793,3.446.051,3.636c-1.393.357-1.839-2.223-2.1-2.977a8.68,8.68,0,0,1-.5-3.642,2.578,2.578,0,0,1,2.967-1.768c.407.071,2.55-.035,2.377.416-.605,1.605-1.514,3.644-2.8,4.334" transform="translate(-284.429 -248.788)" fill="#ffcda8"/>
            <path id="Trazado_597893" data-name="Trazado 597893" d="M366.509,408.648l9.761-10.171s2.858-.072,4.206,6.062c0,0-9.589,11.657-12.218,14.336s-5.437.654-8.883-2.564-13.64-15.6-13.877-19.172,1.638-6.561,3.036-7.4,5.889-.964,9.646,6.749a47.288,47.288,0,0,0,8.329,12.164" transform="translate(-222.008 -250.201)" fill="#e6f6ff"/>
            <g id="Grupo_879794" data-name="Grupo 879794" transform="translate(4.047 212.63)" opacity="0.1">
              <g id="Grupo_879793" data-name="Grupo 879793">
                <g id="Grupo_879792" data-name="Grupo 879792" clip-path="url(#clip-path-4)">
                  <path id="Trazado_597894" data-name="Trazado 597894" d="M11.324,597.12l4.018,6.832-4.018,11.472,3.739-2.159,4.018-11.472-4.018-6.832Z" transform="translate(-11.324 -594.961)" fill="#fff"/>
                </g>
              </g>
            </g>
            <g id="Grupo_879797" data-name="Grupo 879797" transform="translate(17.987 204.582)" opacity="0.2">
              <g id="Grupo_879796" data-name="Grupo 879796">
                <g id="Grupo_879795" data-name="Grupo 879795" clip-path="url(#clip-path-5)">
                  <path id="Trazado_597895" data-name="Trazado 597895" d="M50.33,574.6l4.018,6.832L50.33,592.9l3.74-2.159,4.018-11.472-4.018-6.832Z" transform="translate(-50.33 -572.44)" fill="#fff"/>
                </g>
              </g>
            </g>
            <g id="Grupo_879800" data-name="Grupo 879800" transform="translate(31.928 196.534)" opacity="0.4">
              <g id="Grupo_879799" data-name="Grupo 879799">
                <g id="Grupo_879798" data-name="Grupo 879798" clip-path="url(#clip-path-4)">
                  <path id="Trazado_597896" data-name="Trazado 597896" d="M89.337,552.08l4.018,6.833-4.018,11.472,3.739-2.159,4.018-11.472-4.018-6.832Z" transform="translate(-89.337 -549.921)" fill="#fff"/>
                </g>
              </g>
            </g>
            <g id="Grupo_879803" data-name="Grupo 879803" transform="translate(45.867 188.486)" opacity="0.6">
              <g id="Grupo_879802" data-name="Grupo 879802">
                <g id="Grupo_879801" data-name="Grupo 879801" clip-path="url(#clip-path-5)">
                  <path id="Trazado_597897" data-name="Trazado 597897" d="M128.341,529.561l4.019,6.832-4.018,11.472,3.74-2.159,4.018-11.472-4.018-6.832Z" transform="translate(-128.341 -527.402)" fill="#fff"/>
                </g>
              </g>
            </g>
            <g id="Grupo_879806" data-name="Grupo 879806" transform="translate(59.807 180.438)" opacity="0.8">
              <g id="Grupo_879805" data-name="Grupo 879805">
                <g id="Grupo_879804" data-name="Grupo 879804" clip-path="url(#clip-path-4)">
                  <path id="Trazado_597898" data-name="Trazado 597898" d="M167.347,507.042l4.018,6.832-4.018,11.472,3.739-2.159,4.018-11.472-4.018-6.832Z" transform="translate(-167.347 -504.883)" fill="#fff"/>
                </g>
              </g>
            </g>
            <path id="Trazado_597899" data-name="Trazado 597899" d="M206.355,484.521l4.018,6.833-4.018,11.472,3.74-2.159,4.018-11.472-4.018-6.832Z" transform="translate(-132.607 -309.973)" fill="#fff"/>
            <g id="Grupo_879809" data-name="Grupo 879809" transform="translate(298.575 51.434)" opacity="0.1">
              <g id="Grupo_879808" data-name="Grupo 879808">
                <g id="Grupo_879807" data-name="Grupo 879807" clip-path="url(#clip-path-4)">
                  <path id="Trazado_597900" data-name="Trazado 597900" d="M843.2,162.221l-4.018-6.832,4.018-11.472-3.739,2.159-4.018,11.472,4.018,6.832Z" transform="translate(-835.441 -143.917)" fill="#fff"/>
                </g>
              </g>
            </g>
            <g id="Grupo_879812" data-name="Grupo 879812" transform="translate(284.634 59.481)" opacity="0.2">
              <g id="Grupo_879811" data-name="Grupo 879811">
                <g id="Grupo_879810" data-name="Grupo 879810" clip-path="url(#clip-path-5)">
                  <path id="Trazado_597901" data-name="Trazado 597901" d="M804.193,184.74l-4.018-6.832,4.018-11.472-3.74,2.159-4.018,11.472,4.018,6.833Z" transform="translate(-796.434 -166.435)" fill="#fff"/>
                </g>
              </g>
            </g>
            <g id="Grupo_879815" data-name="Grupo 879815" transform="translate(270.693 67.53)" opacity="0.4">
              <g id="Grupo_879814" data-name="Grupo 879814">
                <g id="Grupo_879813" data-name="Grupo 879813" clip-path="url(#clip-path-4)">
                  <path id="Trazado_597902" data-name="Trazado 597902" d="M765.185,207.261l-4.019-6.832,4.018-11.472-3.739,2.159-4.018,11.472,4.018,6.833Z" transform="translate(-757.427 -188.956)" fill="#fff"/>
                </g>
              </g>
            </g>
            <g id="Grupo_879818" data-name="Grupo 879818" transform="translate(256.754 75.578)" opacity="0.6">
              <g id="Grupo_879817" data-name="Grupo 879817">
                <g id="Grupo_879816" data-name="Grupo 879816" clip-path="url(#clip-path-5)">
                  <path id="Trazado_597903" data-name="Trazado 597903" d="M726.18,229.779l-4.019-6.832,4.018-11.472-3.739,2.159-4.018,11.472,4.018,6.832Z" transform="translate(-718.422 -211.474)" fill="#fff"/>
                </g>
              </g>
            </g>
            <g id="Grupo_879821" data-name="Grupo 879821" transform="translate(242.814 83.626)" opacity="0.8">
              <g id="Grupo_879820" data-name="Grupo 879820">
                <g id="Grupo_879819" data-name="Grupo 879819" clip-path="url(#clip-path-4)">
                  <path id="Trazado_597904" data-name="Trazado 597904" d="M687.176,252.3l-4.018-6.832,4.018-11.472-3.739,2.159-4.018,11.472,4.018,6.833Z" transform="translate(-679.418 -233.995)" fill="#fff"/>
                </g>
              </g>
            </g>
            <path id="Trazado_597905" data-name="Trazado 597905" d="M648.168,274.819l-4.018-6.833,4.018-11.472-3.739,2.159-4.018,11.472,4.018,6.833Z" transform="translate(-411.537 -164.84)" fill="#fff"/>
            <g id="Grupo_879826" data-name="Grupo 879826" transform="translate(37.41 136.866)" style="mix-blend-mode: screen;isolation: isolate">
              <g id="Grupo_879825" data-name="Grupo 879825">
                <g id="Grupo_879824" data-name="Grupo 879824" clip-path="url(#clip-path-14)">
                  <g id="Grupo_879823" data-name="Grupo 879823">
                    <g id="Grupo_879822" data-name="Grupo 879822" clip-path="url(#clip-path-15)">
                      <rect id="Rectángulo_295337" data-name="Rectángulo 295337" width="43.743" height="43.298" transform="matrix(0.863, -0.505, 0.505, 0.863, -13.596, 7.958)" fill="url(#linear-gradient)"/>
                    </g>
                  </g>
                </g>
              </g>
            </g>
            <g id="Grupo_879831" data-name="Grupo 879831" transform="translate(242.814 115.464)" style="mix-blend-mode: screen;isolation: isolate">
              <g id="Grupo_879830" data-name="Grupo 879830">
                <g id="Grupo_879829" data-name="Grupo 879829" clip-path="url(#clip-path-14)">
                  <g id="Grupo_879828" data-name="Grupo 879828">
                    <g id="Grupo_879827" data-name="Grupo 879827" clip-path="url(#clip-path-17)">
                      <rect id="Rectángulo_295339" data-name="Rectángulo 295339" width="43.743" height="43.298" transform="matrix(0.863, -0.505, 0.505, 0.863, -13.596, 7.958)" fill="url(#linear-gradient-2)"/>
                    </g>
                  </g>
                </g>
              </g>
            </g>
            <g id="Grupo_879836" data-name="Grupo 879836" transform="translate(2.283 215.656)" style="mix-blend-mode: screen;isolation: isolate">
              <g id="Grupo_879835" data-name="Grupo 879835">
                <g id="Grupo_879834" data-name="Grupo 879834" clip-path="url(#clip-path-18)">
                  <g id="Grupo_879833" data-name="Grupo 879833" transform="translate(0 0)">
                    <g id="Grupo_879832" data-name="Grupo 879832" clip-path="url(#clip-path-19)">
                      <rect id="Rectángulo_295341" data-name="Rectángulo 295341" width="102.384" height="89.621" transform="translate(-22.98 12.564) rotate(-29.27)" fill="url(#linear-gradient-3)"/>
                    </g>
                  </g>
                </g>
              </g>
            </g>
            <g id="Grupo_879841" data-name="Grupo 879841" transform="translate(234.867 114.853)" style="mix-blend-mode: screen;isolation: isolate">
              <g id="Grupo_879840" data-name="Grupo 879840">
                <g id="Grupo_879839" data-name="Grupo 879839" clip-path="url(#clip-path-18)">
                  <g id="Grupo_879838" data-name="Grupo 879838">
                    <g id="Grupo_879837" data-name="Grupo 879837" clip-path="url(#clip-path-21)">
                      <rect id="Rectángulo_295343" data-name="Rectángulo 295343" width="102.384" height="89.621" transform="translate(-22.98 12.88) rotate(-29.27)" fill="url(#linear-gradient-4)"/>
                    </g>
                  </g>
                </g>
              </g>
            </g>
            <g id="Grupo_879846" data-name="Grupo 879846" transform="translate(248.807 88.576)" style="mix-blend-mode: screen;isolation: isolate">
              <g id="Grupo_879845" data-name="Grupo 879845">
                <g id="Grupo_879844" data-name="Grupo 879844" clip-path="url(#clip-path-22)">
                  <g id="Grupo_879843" data-name="Grupo 879843" transform="translate(0 0)">
                    <g id="Grupo_879842" data-name="Grupo 879842" clip-path="url(#clip-path-23)">
                      <rect id="Rectángulo_295345" data-name="Rectángulo 295345" width="52.231" height="45.72" transform="translate(-11.723 6.571) rotate(-29.27)" fill="url(#linear-gradient-5)"/>
                    </g>
                  </g>
                </g>
              </g>
            </g>
            <g id="Grupo_879851" data-name="Grupo 879851" transform="translate(216.66 64.099)" style="mix-blend-mode: screen;isolation: isolate">
              <g id="Grupo_879850" data-name="Grupo 879850">
                <g id="Grupo_879849" data-name="Grupo 879849" clip-path="url(#clip-path-22)">
                  <g id="Grupo_879848" data-name="Grupo 879848" transform="translate(0 0)">
                    <g id="Grupo_879847" data-name="Grupo 879847" clip-path="url(#clip-path-25)">
                      <rect id="Rectángulo_295347" data-name="Rectángulo 295347" width="52.231" height="45.72" transform="matrix(0.872, -0.489, 0.489, 0.872, -11.723, 6.571)" fill="url(#linear-gradient-6)"/>
                    </g>
                  </g>
                </g>
              </g>
            </g>
            <g id="Grupo_879856" data-name="Grupo 879856" transform="translate(238.895 40.881)" style="mix-blend-mode: screen;isolation: isolate">
              <g id="Grupo_879855" data-name="Grupo 879855">
                <g id="Grupo_879854" data-name="Grupo 879854" clip-path="url(#clip-path-22)">
                  <g id="Grupo_879853" data-name="Grupo 879853">
                    <g id="Grupo_879852" data-name="Grupo 879852" clip-path="url(#clip-path-27)">
                      <rect id="Rectángulo_295349" data-name="Rectángulo 295349" width="52.231" height="45.719" transform="matrix(0.872, -0.489, 0.489, 0.872, -11.723, 6.571)" fill="url(#linear-gradient-7)"/>
                    </g>
                  </g>
                </g>
              </g>
            </g>
            <g id="Grupo_879861" data-name="Grupo 879861" transform="translate(29.925 152.792)" style="mix-blend-mode: screen;isolation: isolate">
              <g id="Grupo_879860" data-name="Grupo 879860">
                <g id="Grupo_879859" data-name="Grupo 879859" clip-path="url(#clip-path-28)">
                  <g id="Grupo_879858" data-name="Grupo 879858" transform="translate(0 0)">
                    <g id="Grupo_879857" data-name="Grupo 879857" clip-path="url(#clip-path-29)">
                      <rect id="Rectángulo_295351" data-name="Rectángulo 295351" width="68.225" height="59.72" transform="translate(-15.313 8.372) rotate(-29.27)" fill="url(#linear-gradient-8)"/>
                    </g>
                  </g>
                </g>
              </g>
            </g>
            <g id="Grupo_879866" data-name="Grupo 879866" transform="translate(49.166 196.534)" style="mix-blend-mode: screen;isolation: isolate">
              <g id="Grupo_879865" data-name="Grupo 879865">
                <g id="Grupo_879864" data-name="Grupo 879864" clip-path="url(#clip-path-30)">
                  <g id="Grupo_879863" data-name="Grupo 879863" transform="translate(0 0)">
                    <g id="Grupo_879862" data-name="Grupo 879862" clip-path="url(#clip-path-31)">
                      <rect id="Rectángulo_295353" data-name="Rectángulo 295353" width="57.747" height="50.548" transform="matrix(0.872, -0.489, 0.489, 0.872, -12.961, 7.086)" fill="url(#linear-gradient-9)"/>
                    </g>
                  </g>
                </g>
              </g>
            </g>
            <g id="Grupo_879871" data-name="Grupo 879871" transform="translate(0 137.354)" style="mix-blend-mode: screen;isolation: isolate">
              <g id="Grupo_879870" data-name="Grupo 879870">
                <g id="Grupo_879869" data-name="Grupo 879869" clip-path="url(#clip-path-30)">
                  <g id="Grupo_879868" data-name="Grupo 879868" transform="translate(0 0)">
                    <g id="Grupo_879867" data-name="Grupo 879867" clip-path="url(#clip-path-33)">
                      <rect id="Rectángulo_295355" data-name="Rectángulo 295355" width="57.747" height="50.548" transform="translate(-12.961 7.086) rotate(-29.27)" fill="url(#linear-gradient-10)"/>
                    </g>
                  </g>
                </g>
              </g>
            </g>
            <g id="Grupo_879876" data-name="Grupo 879876" transform="translate(31.927 121.138)" style="mix-blend-mode: screen;isolation: isolate">
              <g id="Grupo_879875" data-name="Grupo 879875">
                <g id="Grupo_879874" data-name="Grupo 879874" clip-path="url(#clip-path-34)">
                  <g id="Grupo_879873" data-name="Grupo 879873" transform="translate(0 0)">
                    <g id="Grupo_879872" data-name="Grupo 879872" clip-path="url(#clip-path-35)">
                      <rect id="Rectángulo_295357" data-name="Rectángulo 295357" width="31.418" height="27.501" transform="translate(-7.052 3.855) rotate(-29.27)" fill="url(#linear-gradient-11)"/>
                    </g>
                  </g>
                </g>
              </g>
            </g>
            <g id="Grupo_879879" data-name="Grupo 879879" transform="translate(69.841 128.141)" opacity="0.5" style="mix-blend-mode: screen;isolation: isolate">
              <g id="Grupo_879878" data-name="Grupo 879878">
                <g id="Grupo_879877" data-name="Grupo 879877" clip-path="url(#clip-path-36)">
                  <path id="Trazado_597917" data-name="Trazado 597917" d="M198.705,359.724a3.629,3.629,0,0,1-1.641,2.843c-.907.523-1.641.1-1.641-.948a3.626,3.626,0,0,1,1.641-2.842c.906-.523,1.641-.1,1.641.947" transform="translate(-195.423 -358.553)" fill="#fff"/>
                </g>
              </g>
            </g>
            <g id="Grupo_879882" data-name="Grupo 879882" transform="translate(221.116 69.317)" opacity="0.5" style="mix-blend-mode: screen;isolation: isolate">
              <g id="Grupo_879881" data-name="Grupo 879881">
                <g id="Grupo_879880" data-name="Grupo 879880" clip-path="url(#clip-path-37)">
                  <path id="Trazado_597918" data-name="Trazado 597918" d="M621.985,195.129a3.629,3.629,0,0,1-1.641,2.843c-.907.524-1.641.1-1.641-.948a3.626,3.626,0,0,1,1.641-2.842c.906-.523,1.64-.1,1.641.947" transform="translate(-618.703 -193.957)" fill="#fff"/>
                </g>
              </g>
            </g>
            <g id="Grupo_879885" data-name="Grupo 879885" transform="translate(282.993 103.578)" opacity="0.5" style="mix-blend-mode: screen;isolation: isolate">
              <g id="Grupo_879884" data-name="Grupo 879884">
                <g id="Grupo_879883" data-name="Grupo 879883" clip-path="url(#clip-path-37)">
                  <path id="Trazado_597919" data-name="Trazado 597919" d="M795.124,290.993a3.629,3.629,0,0,1-1.641,2.843c-.907.524-1.641.1-1.641-.948a3.626,3.626,0,0,1,1.641-2.842c.906-.523,1.641-.1,1.641.947" transform="translate(-791.842 -289.822)" fill="#fff"/>
                </g>
              </g>
            </g>
            <g id="Grupo_879888" data-name="Grupo 879888" transform="translate(234.99 151.511)" opacity="0.5" style="mix-blend-mode: screen;isolation: isolate">
              <g id="Grupo_879887" data-name="Grupo 879887">
                <g id="Grupo_879886" data-name="Grupo 879886" clip-path="url(#clip-path-37)">
                  <path id="Trazado_597920" data-name="Trazado 597920" d="M660.807,425.113a3.629,3.629,0,0,1-1.641,2.843c-.907.523-1.641.1-1.641-.948a3.626,3.626,0,0,1,1.641-2.842c.906-.523,1.641-.1,1.641.947" transform="translate(-657.525 -423.942)" fill="#fff"/>
                </g>
              </g>
            </g>
            <g id="Grupo_879891" data-name="Grupo 879891" transform="translate(21.866 175.817)" opacity="0.5" style="mix-blend-mode: screen;isolation: isolate">
              <g id="Grupo_879890" data-name="Grupo 879890">
                <g id="Grupo_879889" data-name="Grupo 879889" clip-path="url(#clip-path-36)">
                  <path id="Trazado_597921" data-name="Trazado 597921" d="M64.466,493.126a3.629,3.629,0,0,1-1.641,2.843c-.907.524-1.641.1-1.641-.948a3.626,3.626,0,0,1,1.641-2.842c.906-.523,1.64-.1,1.641.947" transform="translate(-61.184 -491.954)" fill="#fff"/>
                </g>
              </g>
            </g>
            <g id="Grupo_879894" data-name="Grupo 879894" transform="translate(35.769 227.71)" opacity="0.5" style="mix-blend-mode: screen;isolation: isolate">
              <g id="Grupo_879893" data-name="Grupo 879893">
                <g id="Grupo_879892" data-name="Grupo 879892" clip-path="url(#clip-path-37)">
                  <path id="Trazado_597922" data-name="Trazado 597922" d="M103.367,638.326a3.629,3.629,0,0,1-1.641,2.843c-.907.524-1.641.1-1.641-.948a3.626,3.626,0,0,1,1.641-2.842c.906-.523,1.64-.1,1.641.947" transform="translate(-100.085 -637.154)" fill="#fff"/>
                </g>
              </g>
            </g>
            <g id="Grupo_879897" data-name="Grupo 879897" transform="translate(89.451 182.804)" opacity="0.5" style="mix-blend-mode: screen;isolation: isolate">
              <g id="Grupo_879896" data-name="Grupo 879896">
                <g id="Grupo_879895" data-name="Grupo 879895" clip-path="url(#clip-path-42)">
                  <path id="Trazado_597923" data-name="Trazado 597923" d="M251.794,512.039a1.657,1.657,0,0,1-.75,1.3c-.414.24-.75.046-.75-.433a1.658,1.658,0,0,1,.75-1.3c.414-.239.75-.045.75.433" transform="translate(-250.294 -511.504)" fill="#fff"/>
                </g>
              </g>
            </g>
            <g id="Grupo_879900" data-name="Grupo 879900" transform="translate(234.117 130.089)" opacity="0.5" style="mix-blend-mode: screen;isolation: isolate">
              <g id="Grupo_879899" data-name="Grupo 879899">
                <g id="Grupo_879898" data-name="Grupo 879898" clip-path="url(#clip-path-42)">
                  <path id="Trazado_597924" data-name="Trazado 597924" d="M656.583,364.539a1.658,1.658,0,0,1-.75,1.3c-.414.239-.75.045-.75-.433a1.657,1.657,0,0,1,.75-1.3c.414-.239.75-.045.75.433" transform="translate(-655.083 -364.003)" fill="#fff"/>
                </g>
              </g>
            </g>
            <g id="Grupo_879903" data-name="Grupo 879903" transform="translate(228.124 74.868)" opacity="0.5" style="mix-blend-mode: screen;isolation: isolate">
              <g id="Grupo_879902" data-name="Grupo 879902">
                <g id="Grupo_879901" data-name="Grupo 879901" clip-path="url(#clip-path-42)">
                  <path id="Trazado_597925" data-name="Trazado 597925" d="M639.812,210.025a1.657,1.657,0,0,1-.75,1.3c-.414.239-.75.046-.75-.433a1.657,1.657,0,0,1,.75-1.3c.414-.239.75-.045.75.433" transform="translate(-638.312 -209.489)" fill="#fff"/>
                </g>
              </g>
            </g>
            <g id="Grupo_879906" data-name="Grupo 879906" transform="translate(288.513 118.432)" opacity="0.5" style="mix-blend-mode: screen;isolation: isolate">
              <g id="Grupo_879905" data-name="Grupo 879905">
                <g id="Grupo_879904" data-name="Grupo 879904" clip-path="url(#clip-path-42)">
                  <path id="Trazado_597926" data-name="Trazado 597926" d="M808.788,331.92a1.658,1.658,0,0,1-.75,1.3c-.414.239-.75.045-.75-.433a1.657,1.657,0,0,1,.75-1.3c.414-.239.75-.045.75.433" transform="translate(-807.288 -331.385)" fill="#fff"/>
                </g>
              </g>
            </g>
            <g id="Grupo_879909" data-name="Grupo 879909" transform="translate(306.332 113.214)" opacity="0.5" style="mix-blend-mode: screen;isolation: isolate">
              <g id="Grupo_879908" data-name="Grupo 879908">
                <g id="Grupo_879907" data-name="Grupo 879907" clip-path="url(#clip-path-46)">
                  <path id="Trazado_597927" data-name="Trazado 597927" d="M858.647,317.32a1.658,1.658,0,0,1-.75,1.3c-.414.239-.75.045-.75-.433a1.657,1.657,0,0,1,.75-1.3c.414-.239.75-.045.75.433" transform="translate(-857.147 -316.784)" fill="#fff"/>
                </g>
              </g>
            </g>
            <g id="Grupo_879912" data-name="Grupo 879912" transform="translate(81.506 146.824)" opacity="0.5" style="mix-blend-mode: screen;isolation: isolate">
              <g id="Grupo_879911" data-name="Grupo 879911">
                <g id="Grupo_879910" data-name="Grupo 879910" clip-path="url(#clip-path-42)">
                  <path id="Trazado_597928" data-name="Trazado 597928" d="M229.562,411.364a1.658,1.658,0,0,1-.75,1.3c-.414.239-.75.045-.75-.433a1.657,1.657,0,0,1,.75-1.3c.414-.239.75-.045.75.433" transform="translate(-228.062 -410.829)" fill="#fff"/>
                </g>
              </g>
            </g>
            <g id="Grupo_879915" data-name="Grupo 879915" transform="translate(22.757 142.734)" opacity="0.5" style="mix-blend-mode: screen;isolation: isolate">
              <g id="Grupo_879914" data-name="Grupo 879914">
                <g id="Grupo_879913" data-name="Grupo 879913" clip-path="url(#clip-path-46)">
                  <path id="Trazado_597929" data-name="Trazado 597929" d="M65.177,399.919a1.657,1.657,0,0,1-.75,1.3c-.414.239-.75.046-.75-.433a1.657,1.657,0,0,1,.75-1.3c.414-.239.75-.045.75.433" transform="translate(-63.677 -399.383)" fill="#fff"/>
                </g>
              </g>
            </g>
            <g id="Grupo_879918" data-name="Grupo 879918" transform="translate(7.926 176.968)" opacity="0.5" style="mix-blend-mode: screen;isolation: isolate">
              <g id="Grupo_879917" data-name="Grupo 879917">
                <g id="Grupo_879916" data-name="Grupo 879916" clip-path="url(#clip-path-46)">
                  <path id="Trazado_597930" data-name="Trazado 597930" d="M23.678,495.71a1.658,1.658,0,0,1-.75,1.3c-.414.239-.75.045-.75-.433a1.657,1.657,0,0,1,.75-1.3c.414-.239.75-.045.75.433" transform="translate(-22.178 -495.175)" fill="#fff"/>
                </g>
              </g>
            </g>
            <g id="Grupo_879921" data-name="Grupo 879921" transform="translate(17.237 241.47)" opacity="0.5" style="mix-blend-mode: screen;isolation: isolate">
              <g id="Grupo_879920" data-name="Grupo 879920">
                <g id="Grupo_879919" data-name="Grupo 879919" clip-path="url(#clip-path-46)">
                  <path id="Trazado_597931" data-name="Trazado 597931" d="M49.732,676.193a1.658,1.658,0,0,1-.75,1.3c-.414.239-.75.046-.75-.433a1.657,1.657,0,0,1,.75-1.3c.414-.239.75-.045.75.433" transform="translate(-48.232 -675.658)" fill="#fff"/>
                </g>
              </g>
            </g>
            <g id="Grupo_879924" data-name="Grupo 879924" transform="translate(65.367 206.4)" opacity="0.5" style="mix-blend-mode: screen;isolation: isolate">
              <g id="Grupo_879923" data-name="Grupo 879923">
                <g id="Grupo_879922" data-name="Grupo 879922" clip-path="url(#clip-path-46)">
                  <path id="Trazado_597932" data-name="Trazado 597932" d="M184.4,578.064a1.657,1.657,0,0,1-.75,1.3c-.414.239-.75.046-.75-.433a1.657,1.657,0,0,1,.75-1.3c.414-.239.75-.045.75.433" transform="translate(-182.903 -577.529)" fill="#fff"/>
                </g>
              </g>
            </g>
            <g id="Grupo_879927" data-name="Grupo 879927" transform="translate(172.38 39.073)" opacity="0.5" style="mix-blend-mode: screen;isolation: isolate">
              <g id="Grupo_879926" data-name="Grupo 879926">
                <g id="Grupo_879925" data-name="Grupo 879925" clip-path="url(#clip-path-36)">
                  <path id="Trazado_597933" data-name="Trazado 597933" d="M485.618,110.5a3.629,3.629,0,0,1-1.641,2.843c-.907.524-1.641.1-1.641-.948a3.626,3.626,0,0,1,1.641-2.842c.906-.523,1.641-.1,1.641.947" transform="translate(-482.336 -109.332)" fill="#fff"/>
                </g>
              </g>
            </g>
            <path id="Trazado_597934" data-name="Trazado 597934" d="M487.606,110.548a3.629,3.629,0,0,1-1.684,2.817c-.915.509-1.643.074-1.626-.973a3.626,3.626,0,0,1,1.684-2.817c.913-.509,1.642-.074,1.626.972" transform="translate(-311.215 -70.278)" fill="#fff"/>
            <g id="Grupo_879930" data-name="Grupo 879930" transform="translate(177.741 33.713)" opacity="0.5" style="mix-blend-mode: screen;isolation: isolate">
              <g id="Grupo_879929" data-name="Grupo 879929">
                <g id="Grupo_879928" data-name="Grupo 879928" clip-path="url(#clip-path-36)">
                  <path id="Trazado_597935" data-name="Trazado 597935" d="M500.618,95.5a3.629,3.629,0,0,1-1.641,2.843c-.907.523-1.641.1-1.641-.948a3.626,3.626,0,0,1,1.641-2.842c.906-.523,1.641-.1,1.641.947" transform="translate(-497.336 -94.332)" fill="#fff"/>
                </g>
              </g>
            </g>
            <path id="Trazado_597936" data-name="Trazado 597936" d="M502.606,95.548a3.629,3.629,0,0,1-1.684,2.817c-.915.509-1.642.074-1.626-.973a3.626,3.626,0,0,1,1.684-2.817c.913-.509,1.642-.074,1.626.972" transform="translate(-320.854 -60.639)" fill="#fff"/>
            <g id="Grupo_879933" data-name="Grupo 879933" transform="translate(182.932 28.521)" opacity="0.5" style="mix-blend-mode: screen;isolation: isolate">
              <g id="Grupo_879932" data-name="Grupo 879932">
                <g id="Grupo_879931" data-name="Grupo 879931" clip-path="url(#clip-path-36)">
                  <path id="Trazado_597937" data-name="Trazado 597937" d="M515.144,80.976a3.629,3.629,0,0,1-1.641,2.843c-.907.524-1.641.1-1.641-.948a3.626,3.626,0,0,1,1.641-2.842c.906-.523,1.641-.1,1.641.947" transform="translate(-511.862 -79.805)" fill="#fff"/>
                </g>
              </g>
            </g>
            <path id="Trazado_597938" data-name="Trazado 597938" d="M517.132,81.022a3.629,3.629,0,0,1-1.684,2.817c-.915.509-1.643.074-1.626-.973a3.626,3.626,0,0,1,1.684-2.817c.914-.509,1.642-.074,1.627.972" transform="translate(-330.189 -51.304)" fill="#fff"/>
          </g>
        </g>
      </g>
    </g>
    <g id="Grupo_879938" data-name="Grupo 879938" transform="translate(-644.074 582.542)">
      <g id="Grupo_879365" data-name="Grupo 879365" transform="translate(1107.762 2816.785)">
        <g id="Grupo_73356" data-name="Grupo 73356" style="isolation: isolate">
          <g id="Grupo_73353" data-name="Grupo 73353" transform="translate(0 16.15)">
            <path id="Trazado_108368" data-name="Trazado 108368" d="M302.4,294.453v4.328l27.791,16.15V310.6Z" transform="translate(-302.402 -294.453)" fill="#d7cbd4"/>
          </g>
          <g id="Grupo_73354" data-name="Grupo 73354" transform="translate(27.791 16.15)">
            <path id="Trazado_108369" data-name="Trazado 108369" d="M336.575,310.6v4.328l27.972-16.15v-4.328Z" transform="translate(-336.575 -294.453)" fill="#ebe0e7"/>
          </g>
          <g id="Grupo_73355" data-name="Grupo 73355">
            <path id="Trazado_108370" data-name="Trazado 108370" d="M302.4,290.744l27.791,16.15,27.972-16.15-27.791-16.15Z" transform="translate(-302.402 -274.594)" fill="#f0f0f2"/>
          </g>
        </g>
      </g>
      <g id="Grupo_879366" data-name="Grupo 879366" transform="translate(1107.247 2811.032)">
        <g id="Grupo_73361" data-name="Grupo 73361" style="isolation: isolate">
          <g id="Grupo_73358" data-name="Grupo 73358" transform="translate(0 16.15)">
            <path id="Trazado_108371" data-name="Trazado 108371" d="M301.768,287.38v4.327l27.791,16.151v-4.328Z" transform="translate(-301.768 -287.38)" fill="#d7cbd4"/>
          </g>
          <g id="Grupo_73359" data-name="Grupo 73359" transform="translate(27.791 16.151)">
            <path id="Trazado_108372" data-name="Trazado 108372" d="M335.942,303.529v4.328l27.973-16.15V287.38Z" transform="translate(-335.942 -287.38)" fill="#ebe0e7"/>
          </g>
          <g id="Grupo_73360" data-name="Grupo 73360">
            <path id="Trazado_108373" data-name="Trazado 108373" d="M301.768,283.67l27.791,16.15,27.973-16.149L329.741,267.52Z" transform="translate(-301.768 -267.52)" fill="#f0f0f2"/>
          </g>
        </g>
      </g>
      <g id="Grupo_879367" data-name="Grupo 879367" transform="translate(1102.066 2807.712)">
        <g id="Grupo_73366" data-name="Grupo 73366" style="isolation: isolate">
          <g id="Grupo_73363" data-name="Grupo 73363" transform="translate(0 16.15)">
            <path id="Trazado_108374" data-name="Trazado 108374" d="M295.4,283.3v4.328l27.791,16.15v-4.327Z" transform="translate(-295.398 -283.296)" fill="#d7cbd4"/>
          </g>
          <g id="Grupo_73364" data-name="Grupo 73364" transform="translate(27.791 16.15)">
            <path id="Trazado_108375" data-name="Trazado 108375" d="M329.571,299.447v4.327l27.973-16.15V283.3Z" transform="translate(-329.571 -283.297)" fill="#ebe0e7"/>
          </g>
          <g id="Grupo_73365" data-name="Grupo 73365">
            <path id="Trazado_108376" data-name="Trazado 108376" d="M295.4,279.587l27.791,16.151,27.973-16.15-27.791-16.15Z" transform="translate(-295.398 -263.437)" fill="#f0f0f2"/>
          </g>
        </g>
      </g>
      <g id="Grupo_879368" data-name="Grupo 879368" transform="translate(1102.066 2802.198)">
        <g id="Grupo_73371" data-name="Grupo 73371" style="isolation: isolate">
          <g id="Grupo_73368" data-name="Grupo 73368" transform="translate(0 16.15)">
            <path id="Trazado_108377" data-name="Trazado 108377" d="M295.4,276.516v4.328l27.791,16.15v-4.327Z" transform="translate(-295.398 -276.516)" fill="#d7cbd4"/>
          </g>
          <g id="Grupo_73369" data-name="Grupo 73369" transform="translate(27.791 16.15)">
            <path id="Trazado_108378" data-name="Trazado 108378" d="M329.571,292.667v4.327l27.973-16.15v-4.328Z" transform="translate(-329.571 -276.516)" fill="#ebe0e7"/>
          </g>
          <g id="Grupo_73370" data-name="Grupo 73370">
            <path id="Trazado_108379" data-name="Trazado 108379" d="M295.4,272.807l27.791,16.151,27.973-16.15-27.791-16.15Z" transform="translate(-295.398 -256.657)" fill="#f0f0f2"/>
          </g>
        </g>
      </g>
      <g id="Grupo_879369" data-name="Grupo 879369" transform="translate(1102.066 2795.957)">
        <g id="Grupo_73376" data-name="Grupo 73376" style="isolation: isolate">
          <g id="Grupo_73373" data-name="Grupo 73373" transform="translate(0 16.15)">
            <path id="Trazado_108380" data-name="Trazado 108380" d="M295.4,268.842v4.328l27.791,16.15v-4.328Z" transform="translate(-295.398 -268.842)" fill="#d7cbd4"/>
          </g>
          <g id="Grupo_73374" data-name="Grupo 73374" transform="translate(27.791 16.15)">
            <path id="Trazado_108381" data-name="Trazado 108381" d="M329.571,284.992v4.328l27.973-16.15v-4.328Z" transform="translate(-329.571 -268.842)" fill="#ebe0e7"/>
          </g>
          <g id="Grupo_73375" data-name="Grupo 73375">
            <path id="Trazado_108382" data-name="Trazado 108382" d="M295.4,265.133l27.791,16.15,27.973-16.15-27.791-16.15Z" transform="translate(-295.398 -248.982)" fill="#f0f0f2"/>
          </g>
        </g>
      </g>
      <g id="Grupo_879370" data-name="Grupo 879370" transform="translate(1110.355 2804.911)">
        <path id="Trazado_108383" data-name="Trazado 108383" d="M324.273,269.818l-7.323-4.229-2.89.662a8.146,8.146,0,0,0-2.094.715q-.872.5-.581,1.147a5.732,5.732,0,0,0,1.667,1.386l-.566.327-6.9-3.982.565-.326a6.7,6.7,0,0,0,2.76.525,28.039,28.039,0,0,0,4.9-.781l23.958-5.27.29.168-9.525,14.132a5.844,5.844,0,0,0-1.284,2.772q.046.573.917,1.165l-.565.326-10.03-5.791.565-.326.413.238a5.468,5.468,0,0,0,2.033.786,1.717,1.717,0,0,0,1.04-.211,1.952,1.952,0,0,0,.473-.38,10.026,10.026,0,0,0,.688-.927Zm.612-.954,4.052-5.906-10.32,2.287Z" transform="translate(-305.59 -259.993)" fill="#fb8c00"/>
      </g>
    </g>
    <g id="Grupo_879939" data-name="Grupo 879939" transform="translate(475 3263.602)">
      <g id="Grupo_73423" data-name="Grupo 73423">
        <g id="Grupo_73422" data-name="Grupo 73422" style="isolation: isolate">
          <g id="Grupo_73412" data-name="Grupo 73412" transform="translate(40.531 82.898)" style="isolation: isolate">
            <path id="Trazado_108461" data-name="Trazado 108461" d="M306.816,263.985l-2.172,1.262a3.826,3.826,0,0,0,1.594-3.506l2.172-1.262A3.826,3.826,0,0,1,306.816,263.985Z" transform="translate(-304.645 -260.479)" fill="#ded2da"/>
            <g id="Grupo_73411" data-name="Grupo 73411" clip-path="url(#clip-path-55)">
              <g id="Grupo_73410" data-name="Grupo 73410" style="isolation: isolate">
                <path id="Trazado_108462" data-name="Trazado 108462" d="M306.239,261.741l2.172-1.262a3.826,3.826,0,0,1-1.594,3.506l-2.172,1.262A3.826,3.826,0,0,0,306.239,261.741Z" transform="translate(-304.645 -260.479)" fill="#ded2da"/>
              </g>
            </g>
          </g>
          <g id="Grupo_73415" data-name="Grupo 73415" transform="translate(1.749)" style="isolation: isolate">
            <path id="Trazado_108464" data-name="Trazado 108464" d="M270.6,189.346l2.173-1.262a3.855,3.855,0,0,1,3.886.381l-2.172,1.262A3.851,3.851,0,0,0,270.6,189.346Z" transform="translate(-270.604 -187.716)" fill="#f0f0f2"/>
            <g id="Grupo_73414" data-name="Grupo 73414" clip-path="url(#clip-path-56)">
              <g id="Grupo_73413" data-name="Grupo 73413" style="isolation: isolate">
                <path id="Trazado_108465" data-name="Trazado 108465" d="M270.6,189.346l2.173-1.262a3.855,3.855,0,0,1,3.886.381l-2.172,1.262A3.851,3.851,0,0,0,270.6,189.346Z" transform="translate(-270.604 -187.716)" fill="#f0f0f2"/>
              </g>
            </g>
          </g>
          <g id="Grupo_73416" data-name="Grupo 73416" transform="translate(42.125 28.193)">
            <path id="Trazado_108467" data-name="Trazado 108467" d="M306.2,213.724l2.171-1.262-.155,54.705-2.171,1.262Z" transform="translate(-306.044 -212.462)" fill="#ded2da"/>
          </g>
          <g id="Grupo_73417" data-name="Grupo 73417" transform="translate(5.636 0.749)">
            <path id="Trazado_108468" data-name="Trazado 108468" d="M274.016,189.635l2.172-1.262,31.2,18.012-2.172,1.262Z" transform="translate(-274.016 -188.373)" fill="#f0f0f2"/>
          </g>
          <g id="Grupo_73420" data-name="Grupo 73420" transform="translate(36.834 18.761)" style="isolation: isolate">
            <path id="Trazado_108469" data-name="Trazado 108469" d="M301.4,205.445l2.172-1.262a12.007,12.007,0,0,1,5.446,9.432l-2.171,1.262A12,12,0,0,0,301.4,205.445Z" transform="translate(-301.4 -204.183)" fill="#f0f0f2"/>
            <g id="Grupo_73419" data-name="Grupo 73419" clip-path="url(#clip-path-57)">
              <g id="Grupo_73418" data-name="Grupo 73418" style="isolation: isolate">
                <path id="Trazado_108470" data-name="Trazado 108470" d="M301.4,205.445l2.172-1.262a9.9,9.9,0,0,1,2.586,2.242l-2.171,1.262A9.9,9.9,0,0,0,301.4,205.445Z" transform="translate(-301.4 -204.183)" fill="#f0f0f2"/>
                <path id="Trazado_108471" data-name="Trazado 108471" d="M303.67,207.413l2.171-1.262a11.917,11.917,0,0,1,2.86,7.19L306.53,214.6A11.917,11.917,0,0,0,303.67,207.413Z" transform="translate(-301.084 -203.909)" fill="#f0f0f2"/>
              </g>
            </g>
          </g>
          <g id="Grupo_73421" data-name="Grupo 73421" transform="translate(0 1.262)">
            <path id="Trazado_108473" data-name="Trazado 108473" d="M305.9,207.585a12,12,0,0,1,5.446,9.432l-.155,54.705c-.01,3.469-2.462,4.867-5.482,3.124l-31.2-18.012a12,12,0,0,1-5.446-9.432l.155-54.705c.01-3.465,2.462-4.867,5.481-3.124Z" transform="translate(-269.069 -188.823)" fill="#f0eaee"/>
          </g>
        </g>
      </g>
      <g id="Grupo_73426" data-name="Grupo 73426" transform="translate(3.154 6.473)">
        <path id="Trazado_108474" data-name="Trazado 108474" d="M271.837,214.343v2.38l35.972,20.768v-2.38Z" transform="translate(-271.837 -190.48)" fill="#d7cbd4"/>
        <path id="Trazado_108475" data-name="Trazado 108475" d="M271.837,193.4v4.794l35.972,20.768v-4.794Z" transform="translate(-271.837 -193.398)" fill="#d7cbd4"/>
        <path id="Trazado_108476" data-name="Trazado 108476" d="M271.837,225.328v2.381l35.972,20.767V246.1Z" transform="translate(-271.837 -188.95)" fill="#d7cbd4"/>
        <path id="Trazado_108477" data-name="Trazado 108477" d="M271.837,221.666v2.38l35.972,20.768v-2.38Z" transform="translate(-271.837 -189.46)" fill="#d7cbd4"/>
        <path id="Trazado_108478" data-name="Trazado 108478" d="M271.837,218v2.38l35.972,20.768v-2.38Z" transform="translate(-271.837 -189.97)" fill="#d7cbd4"/>
        <g id="Grupo_73424" data-name="Grupo 73424" transform="translate(1.778 8.851)">
          <path id="Trazado_108479" data-name="Trazado 108479" d="M284.8,207.179v2.38L306,221.8v-2.381Z" transform="translate(-271.81 -200.328)" fill="#d7cbd4"/>
          <path id="Trazado_108480" data-name="Trazado 108480" d="M284.8,218.164v2.38L306,232.787v-2.38Z" transform="translate(-271.81 -198.798)" fill="#d7cbd4"/>
          <path id="Trazado_108481" data-name="Trazado 108481" d="M284.8,214.5v2.38L306,229.125v-2.38Z" transform="translate(-271.81 -199.308)" fill="#d7cbd4"/>
          <path id="Trazado_108482" data-name="Trazado 108482" d="M284.8,210.841v2.38L306,225.464v-2.381Z" transform="translate(-271.81 -199.818)" fill="#d7cbd4"/>
          <path id="Trazado_108483" data-name="Trazado 108483" d="M283.5,206.916l.134,3.38-.342-.2a6.3,6.3,0,0,0-.27-1.4,4.369,4.369,0,0,0-.742-1.317,4.515,4.515,0,0,0-1.219-.989l-1.718-.992v10.761a4.286,4.286,0,0,0,.243,1.761,2.68,2.68,0,0,0,1.053,1.044l.423.244v.384l-5.172-2.986v-.384l.433.25q.772.446,1.1.093a2.753,2.753,0,0,0,.2-1.4V204.4l-1.465-.846a4.544,4.544,0,0,0-1.216-.555.848.848,0,0,0-.8.3,2.153,2.153,0,0,0-.4,1.289l-.343-.2.145-3.221Z" transform="translate(-273.398 -201.166)" fill="#fb8c00"/>
        </g>
        <g id="Grupo_73425" data-name="Grupo 73425" transform="translate(0 41.054)">
          <path id="Trazado_108484" data-name="Trazado 108484" d="M293.042,241.674v2.381l-21.2-12.242v-2.38Z" transform="translate(-271.837 -229.432)" fill="#d7cbd4"/>
          <path id="Trazado_108485" data-name="Trazado 108485" d="M293.042,252.66v2.38l-21.2-12.243v-2.38Z" transform="translate(-271.837 -227.902)" fill="#d7cbd4"/>
          <path id="Trazado_108486" data-name="Trazado 108486" d="M293.042,249v2.38l-21.2-12.242v-2.38Z" transform="translate(-271.837 -228.412)" fill="#d7cbd4"/>
          <path id="Trazado_108487" data-name="Trazado 108487" d="M293.042,245.336v2.381l-21.2-12.242v-2.38Z" transform="translate(-271.837 -228.922)" fill="#d7cbd4"/>
          <path id="Trazado_108488" data-name="Trazado 108488" d="M302.531,247.64l.144,3.386-.342-.2a5.086,5.086,0,0,0-.4-1.745,3.938,3.938,0,0,0-.8-1.22,6.38,6.38,0,0,0-1.215-.848l-1.466-.847V256.93a4.537,4.537,0,0,0,.2,1.63,2.537,2.537,0,0,0,1.1,1.175l.432.25v.384l-5.172-2.986V257l.423.244q.711.41,1.053.171.243-.181.243-1.48V245.172l-1.718-.992a2.45,2.45,0,0,0-1.218-.417.89.89,0,0,0-.743.459,3.029,3.029,0,0,0-.27,1.09l-.342-.2.134-3.224Z" transform="translate(-268.968 -227.697)" fill="#fb8c00"/>
        </g>
      </g>
    </g>
    <g id="Grupo_879955" data-name="Grupo 879955" transform="translate(442.768 3165.54)">
      <g id="Grupo_879954" data-name="Grupo 879954" clip-path="url(#clip-path-58)">
        <g id="Grupo_879953" data-name="Grupo 879953">
          <g id="Grupo_879952" data-name="Grupo 879952" clip-path="url(#clip-path-58)">
            <g id="Grupo_879942" data-name="Grupo 879942" transform="translate(10.096 41.577)" opacity="0.4" style="mix-blend-mode: multiply;isolation: isolate">
              <g id="Grupo_879941" data-name="Grupo 879941">
                <g id="Grupo_879940" data-name="Grupo 879940" clip-path="url(#clip-path-60)">
                  <path id="Trazado_597939" data-name="Trazado 597939" d="M43.875,100.174a5.045,5.045,0,0,1,2.285,3.948L46.093,127.2c0,1.446-1.041,2.037-2.3,1.309L23.717,116.918a5.044,5.044,0,0,1-2.284-3.955L21.5,89.884c0-1.447,1.033-2.033,2.3-1.3Z" transform="translate(-21.433 -88.267)" fill="#ecedf4"/>
                </g>
              </g>
            </g>
            <path id="Trazado_597940" data-name="Trazado 597940" d="M27.28,108.054,7.2,96.461A1.617,1.617,0,0,0,5.57,96.3L1.556,98.635a1.62,1.62,0,0,1,1.632.16l20.077,11.592a5.045,5.045,0,0,1,2.285,3.948l-.066,23.079a1.6,1.6,0,0,1-.671,1.465l4.015-2.334a1.6,1.6,0,0,0,.672-1.465L29.563,112a5.041,5.041,0,0,0-2.284-3.948" transform="translate(-0.823 -50.858)" fill="#fff"/>
            <path id="Trazado_597941" data-name="Trazado 597941" d="M22.442,113.007a5.046,5.046,0,0,1,2.284,3.948l-.065,23.079c-.005,1.446-1.041,2.037-2.3,1.309L2.284,129.752A5.045,5.045,0,0,1,0,125.8l.065-23.079c0-1.447,1.033-2.033,2.3-1.3Z" transform="translate(0 -53.479)" fill="#fff"/>
            <g id="Grupo_879945" data-name="Grupo 879945" transform="translate(0 47.622)" opacity="0.2" style="mix-blend-mode: multiply;isolation: isolate">
              <g id="Grupo_879944" data-name="Grupo 879944">
                <g id="Grupo_879943" data-name="Grupo 879943" clip-path="url(#clip-path-61)">
                  <path id="Trazado_597942" data-name="Trazado 597942" d="M22.442,113.007a5.046,5.046,0,0,1,2.284,3.948l-.065,23.079c-.005,1.446-1.041,2.037-2.3,1.309L2.284,129.752A5.045,5.045,0,0,1,0,125.8l.065-23.079c0-1.447,1.033-2.033,2.3-1.3Z" transform="translate(0 -101.101)" fill="#438be3"/>
                </g>
              </g>
            </g>
            <path id="Trazado_597943" data-name="Trazado 597943" d="M31.092,138.543l-.778-.449c.436.252.792.046.792-.457v-.92a1.759,1.759,0,0,0-.792-1.373L27.991,134,27.978,134h0l-1.47-.848a7.081,7.081,0,0,0,.691-3.44c-.1-1.991-1.8-4.157-2.377-3.951s-.284,2.131-1,3.546a4.611,4.611,0,0,1-2.258,2l-.692-.4v7.476l1.384,3.317,7.367,4.253c.436.252.793.046.793-.457v-.921a1.76,1.76,0,0,0-.793-1.372l.939.542c.436.252.792.046.792-.457v-.921a1.756,1.756,0,0,0-.792-1.372l.531.307c.435.251.792.045.792-.458v-.92a1.756,1.756,0,0,0-.792-1.372" transform="translate(-11.039 -66.512)" fill="#12263f"/>
            <path id="Trazado_597944" data-name="Trazado 597944" d="M8.241,136.98a1.759,1.759,0,0,0,.793,1.373l2.456,1.418c.436.251.792.046.792-.457V130.96a1.758,1.758,0,0,0-.792-1.372l-2.456-1.418c-.436-.252-.792-.046-.792.457Z" transform="translate(-4.359 -67.74)" fill="#12263f"/>
            <g id="Grupo_879948" data-name="Grupo 879948" transform="translate(27.506)" opacity="0.4" style="mix-blend-mode: multiply;isolation: isolate">
              <g id="Grupo_879947" data-name="Grupo 879947">
                <g id="Grupo_879946" data-name="Grupo 879946" clip-path="url(#clip-path-60)">
                  <path id="Trazado_597945" data-name="Trazado 597945" d="M80.837,11.907a5.045,5.045,0,0,1,2.285,3.948l-.066,23.079c-.005,1.446-1.041,2.037-2.3,1.309L60.679,28.652A5.044,5.044,0,0,1,58.395,24.7L58.46,1.617c0-1.447,1.033-2.033,2.3-1.3Z" transform="translate(-58.395 0)" fill="#ecedf4"/>
                </g>
              </g>
            </g>
            <path id="Trazado_597946" data-name="Trazado 597946" d="M64.242,19.786,44.165,8.194a1.616,1.616,0,0,0-1.633-.16l-4.014,2.333a1.62,1.62,0,0,1,1.632.16L60.227,22.119a5.044,5.044,0,0,1,2.285,3.947l-.066,23.079a1.6,1.6,0,0,1-.671,1.465l4.014-2.334a1.6,1.6,0,0,0,.672-1.465l.065-23.079a5.042,5.042,0,0,0-2.284-3.948" transform="translate(-20.375 -4.167)" fill="#fff"/>
            <path id="Trazado_597947" data-name="Trazado 597947" d="M59.4,24.74a5.045,5.045,0,0,1,2.285,3.948l-.065,23.079c-.005,1.446-1.041,2.037-2.3,1.309L39.247,41.485a5.046,5.046,0,0,1-2.284-3.955l.065-23.079c0-1.447,1.033-2.033,2.3-1.3Z" transform="translate(-19.552 -6.789)" fill="#fff"/>
            <g id="Grupo_879951" data-name="Grupo 879951" transform="translate(17.411 6.045)" opacity="0.2" style="mix-blend-mode: multiply;isolation: isolate">
              <g id="Grupo_879950" data-name="Grupo 879950">
                <g id="Grupo_879949" data-name="Grupo 879949" clip-path="url(#clip-path-61)">
                  <path id="Trazado_597948" data-name="Trazado 597948" d="M59.4,24.74a5.045,5.045,0,0,1,2.285,3.948l-.065,23.079c-.005,1.446-1.041,2.037-2.3,1.309L39.247,41.485a5.046,5.046,0,0,1-2.284-3.955l.065-23.079c0-1.447,1.033-2.033,2.3-1.3Z" transform="translate(-36.963 -12.833)" fill="#438be3"/>
                </g>
              </g>
            </g>
            <path id="Trazado_597949" data-name="Trazado 597949" d="M61.773,46.561a13.493,13.493,0,0,0-.876-2.945l.823-.968L60.2,40.013l-1.25.229a13.367,13.367,0,0,0-2.113-2.231l-.3-1.866L54.383,34.9l-.3,1.518a4.469,4.469,0,0,0-2.113-.209l-1.25-1.673-1.521.879.823,1.919a4.467,4.467,0,0,0-.876,1.934l-1.465-.5v2.484l1.465,1.194a13.429,13.429,0,0,0,.876,2.946l-.823.968L50.719,49l1.25-.229A13.432,13.432,0,0,0,54.081,51l.3,1.866,2.152,1.242.3-1.518a4.455,4.455,0,0,0,2.113.208l1.25,1.673,1.522-.879L60.9,51.676a4.476,4.476,0,0,0,.876-1.934l1.465.5V47.756Zm-6.315,2.266a8.27,8.27,0,0,1-3.741-6.481c0-2.386,1.675-3.354,3.741-2.161A8.272,8.272,0,0,1,59.2,46.667c0,2.386-1.676,3.353-3.742,2.16" transform="translate(-25.22 -18.27)" fill="#438be3"/>
          </g>
        </g>
      </g>
    </g>
  </g>
</svg>
