<svg xmlns="http://www.w3.org/2000/svg" xmlns:xlink="http://www.w3.org/1999/xlink" width="329.496" height="259.728" viewBox="0 0 329.496 259.728">
  <defs>
    <linearGradient id="linear-gradient" x1="0.5" x2="0.5" y2="1" gradientUnits="objectBoundingBox">
      <stop offset="0" stop-color="#fff"/>
      <stop offset="1" stop-color="#f1f1f1"/>
    </linearGradient>
    <linearGradient id="linear-gradient-2" x1="0.5" x2="0.5" y2="1" gradientUnits="objectBoundingBox">
      <stop offset="0" stop-color="#f5f5f5"/>
      <stop offset="0.25" stop-color="#f5f5f5"/>
      <stop offset="1" stop-color="#a7b3cf"/>
    </linearGradient>
  </defs>
  <g id="Grupo_884967" data-name="Grupo 884967" transform="translate(5941.027 4823.381)">
    <g id="Grupo_879709" data-name="Grupo 879709" transform="translate(-5906.871 -4822.674)">
      <g id="Grupo_142568" data-name="Grupo 142568" transform="translate(0 0)">
        <g id="Grupo_54244" data-name="Grupo 54244" transform="translate(0 142.294)">
          <rect id="Rectángulo_29332" data-name="Rectángulo 29332" width="56.877" height="8.633" fill="none" stroke="#00223d" stroke-miterlimit="10" stroke-width="1"/>
          <rect id="Rectángulo_29333" data-name="Rectángulo 29333" width="56.877" height="8.633" transform="translate(0 12.805)" fill="none" stroke="#00223d" stroke-miterlimit="10" stroke-width="1"/>
          <rect id="Rectángulo_29334" data-name="Rectángulo 29334" width="56.877" height="8.633" transform="translate(0 25.61)" fill="none" stroke="#00223d" stroke-miterlimit="10" stroke-width="1"/>
          <rect id="Rectángulo_29335" data-name="Rectángulo 29335" width="56.877" height="8.633" transform="translate(0 38.415)" fill="none" stroke="#00223d" stroke-miterlimit="10" stroke-width="1"/>
        </g>
        <ellipse id="Elipse_4063" data-name="Elipse 4063" cx="29.377" cy="29.377" rx="29.377" ry="29.377" transform="translate(14.7 107.179) rotate(-80.44)" fill="none" stroke="#00223d" stroke-miterlimit="10" stroke-width="1"/>
        <circle id="Elipse_4064" data-name="Elipse 4064" cx="29.377" cy="29.377" r="29.377" transform="translate(119.824 41.545) rotate(-45)" fill="none" stroke="#00223d" stroke-miterlimit="10" stroke-width="1"/>
        <g id="Grupo_54253" data-name="Grupo 54253" transform="translate(64.73 76.184)">
          <g id="Grupo_54252" data-name="Grupo 54252" transform="translate(30.913 133.269)">
            <rect id="Rectángulo_29337" data-name="Rectángulo 29337" width="44.942" height="38.858" transform="translate(46.897)" fill="#fff"/>
            <path id="Trazado_116090" data-name="Trazado 116090" d="M360.5,384.176l-44.942-16.487v-6.814H360.5Z" transform="translate(-268.664 -360.875)" fill="#d9d9d9"/>
            <rect id="Rectángulo_29338" data-name="Rectángulo 29338" width="138.736" height="2.359" transform="translate(0 36.5)" fill="#fff"/>
          </g>
          <rect id="Rectángulo_29339" data-name="Rectángulo 29339" width="200.562" height="134.435" transform="translate(0 0)" fill="#afafaf"/>
          <rect id="Rectángulo_29340" data-name="Rectángulo 29340" width="39.795" height="6.025" transform="translate(26.347 128.41)" fill="#d9d9d9"/>
          <rect id="Rectángulo_29341" data-name="Rectángulo 29341" width="191.919" height="124.223" transform="translate(4.321 4.187)" fill="#091c38"/>
        </g>
        <g id="Grupo_54255" data-name="Grupo 54255" transform="translate(78.324 42.714)">
          <path id="Trazado_116091" data-name="Trazado 116091" d="M301.621,205.285H218.577V109.051h64.247L301.621,128Z" transform="translate(-218.577 -109.051)" fill="#dbdada"/>
          <line id="Línea_1587" data-name="Línea 1587" x2="61.826" transform="translate(5.743 7.158)" fill="none" stroke="#fff" stroke-miterlimit="10" stroke-width="0.742"/>
          <path id="Trazado_116092" data-name="Trazado 116092" d="M315.608,109.051,334.405,128h-18.8Z" transform="translate(-251.361 -109.051)" fill="#00223d"/>
          <g id="Grupo_54254" data-name="Grupo 54254" transform="translate(10.129 22.621)">
            <path id="Trazado_116093" data-name="Trazado 116093" d="M293.911,185.844H236.624a2.749,2.749,0,0,1-2.749-2.749h0a2.749,2.749,0,0,1,2.749-2.748h57.287a2.749,2.749,0,0,1,2.749,2.748h0A2.749,2.749,0,0,1,293.911,185.844Z" transform="translate(-233.875 -155.761)" fill="none" stroke="#fff" stroke-miterlimit="10" stroke-width="0.742"/>
            <path id="Trazado_116094" data-name="Trazado 116094" d="M293.911,160.318H236.624c-1.518,0-2.749-3.828-2.749-8.551h0c0-4.722,1.231-8.551,2.749-8.551h57.287c1.518,0,2.749,3.829,2.749,8.551h0C296.66,156.489,295.43,160.318,293.911,160.318Z" transform="translate(-233.875 -143.215)" fill="#fff"/>
            <path id="Trazado_116095" data-name="Trazado 116095" d="M293.911,202.234H236.624a2.749,2.749,0,0,1-2.749-2.749h0a2.749,2.749,0,0,1,2.749-2.749h57.287a2.749,2.749,0,0,1,2.749,2.749h0A2.749,2.749,0,0,1,293.911,202.234Z" transform="translate(-233.875 -161.298)" fill="none" stroke="#fff" stroke-miterlimit="10" stroke-width="0.742"/>
            <path id="Trazado_116096" data-name="Trazado 116096" d="M293.911,218.625H236.624a2.749,2.749,0,0,1-2.749-2.749h0a2.749,2.749,0,0,1,2.749-2.749h57.287a2.749,2.749,0,0,1,2.749,2.749h0A2.749,2.749,0,0,1,293.911,218.625Z" transform="translate(-233.875 -166.836)" fill="none" stroke="#fff" stroke-miterlimit="10" stroke-width="0.742"/>
            <path id="Trazado_116097" data-name="Trazado 116097" d="M293.911,235.015H236.624a2.749,2.749,0,0,1-2.749-2.749h0a2.749,2.749,0,0,1,2.749-2.749h57.287a2.749,2.749,0,0,1,2.749,2.749h0A2.749,2.749,0,0,1,293.911,235.015Z" transform="translate(-233.875 -172.374)" fill="none" stroke="#fff" stroke-miterlimit="10" stroke-width="0.742"/>
          </g>
          <ellipse id="Elipse_4065" data-name="Elipse 4065" cx="1.241" cy="1.241" rx="1.241" ry="1.241" transform="translate(8.288 2.254)" fill="none" stroke="#fff" stroke-miterlimit="10" stroke-width="0.742"/>
          <ellipse id="Elipse_4066" data-name="Elipse 4066" cx="1.241" cy="1.241" rx="1.241" ry="1.241" transform="translate(15.241 2.254)" fill="none" stroke="#fff" stroke-miterlimit="10" stroke-width="0.742"/>
          <ellipse id="Elipse_4067" data-name="Elipse 4067" cx="1.241" cy="1.241" rx="1.241" ry="1.241" transform="translate(22.193 2.254)" fill="none" stroke="#fff" stroke-miterlimit="10" stroke-width="0.742"/>
        </g>
        <path id="Trazado_116098" data-name="Trazado 116098" d="M475.571,172.287a29.786,29.786,0,0,0,0-9.56H467.1a21.386,21.386,0,0,0-2.772-6.676l5.989-5.989a29.986,29.986,0,0,0-6.76-6.76l-5.989,5.988a21.4,21.4,0,0,0-6.676-2.771V138.05a29.8,29.8,0,0,0-9.561,0v8.469a21.38,21.38,0,0,0-6.675,2.771L428.67,143.3a30,30,0,0,0-6.761,6.76l5.989,5.989a21.383,21.383,0,0,0-2.771,6.676h-8.469a29.791,29.791,0,0,0,0,9.56h8.469a21.384,21.384,0,0,0,2.771,6.676l-5.989,5.989a30.022,30.022,0,0,0,6.761,6.761l5.989-5.989a21.386,21.386,0,0,0,6.675,2.771v8.469a29.8,29.8,0,0,0,9.561,0v-8.469a21.384,21.384,0,0,0,6.676-2.771l5.989,5.989a30,30,0,0,0,6.76-6.761l-5.989-5.989a21.387,21.387,0,0,0,2.772-6.676Zm-29.457,7.763a12.543,12.543,0,1,1,12.543-12.543A12.543,12.543,0,0,1,446.114,180.049Z" transform="translate(-207.049 -87.331)" fill="#636363"/>
        <path id="Trazado_116099" data-name="Trazado 116099" d="M394.726,177.824a14,14,0,0,0,0-4.494h-3.98a10.055,10.055,0,0,0-1.3-3.137l2.815-2.815a14.1,14.1,0,0,0-3.177-3.178l-2.815,2.815a10.036,10.036,0,0,0-3.137-1.3v-3.98a14,14,0,0,0-4.494,0v3.98a10.044,10.044,0,0,0-3.137,1.3l-2.815-2.815a14.091,14.091,0,0,0-3.178,3.178l2.815,2.815a10.052,10.052,0,0,0-1.3,3.137h-3.98a14,14,0,0,0,0,4.494h3.98a10.052,10.052,0,0,0,1.3,3.137l-2.815,2.815a14.09,14.09,0,0,0,3.178,3.178l2.815-2.815a10.044,10.044,0,0,0,3.137,1.3v3.981a14.006,14.006,0,0,0,4.494,0v-3.981a10.036,10.036,0,0,0,3.137-1.3l2.815,2.815a14.1,14.1,0,0,0,3.177-3.178l-2.815-2.815a10.055,10.055,0,0,0,1.3-3.137Zm-13.844,3.648a5.9,5.9,0,1,1,5.895-5.895A5.895,5.895,0,0,1,380.882,181.473Z" transform="translate(-190.352 -84.076)" fill="#8ec8c8"/>
        <g id="Grupo_54256" data-name="Grupo 54256" transform="translate(148.832 28.2)">
          <path id="Trazado_116100" data-name="Trazado 116100" d="M466.489,113.806l-.977.5a3.526,3.526,0,0,1-1.61.389H423.849v3.893H463.9a3.535,3.535,0,0,1,1.61.388l.977.5a1.529,1.529,0,0,0,1.11.111l7.3-2.055V115.75l-7.3-2.055A1.526,1.526,0,0,0,466.489,113.806Z" transform="translate(-378.262 -110.245)" fill="#00223d"/>
          <path id="Trazado_116101" data-name="Trazado 116101" d="M441.1,115.236H423.849v3.893h7.089a17.391,17.391,0,0,0,6.886-1.422l3.481-1.5A.506.506,0,0,0,441.1,115.236Z" transform="translate(-378.262 -110.785)" fill="#091c38"/>
          <path id="Trazado_116102" data-name="Trazado 116102" d="M402.142,109.977l-44.472-1.461A2.587,2.587,0,0,0,355,111.1v7.62a2.587,2.587,0,0,0,2.672,2.586l44.472-1.461,1.581.867a1.765,1.765,0,0,0,2.614-1.548v-8.507a1.766,1.766,0,0,0-2.614-1.548Z" transform="translate(-354.999 -108.514)" fill="#69746b"/>
          <path id="Trazado_116103" data-name="Trazado 116103" d="M400.767,119.114H361.258a1.918,1.918,0,0,1-1.918-1.918h0a1.918,1.918,0,0,1,1.918-1.918h39.508a1.918,1.918,0,0,1,1.918,1.918h0A1.918,1.918,0,0,1,400.767,119.114Z" transform="translate(-356.466 -110.799)" fill="none" stroke="#fff" stroke-miterlimit="10" stroke-width="0.845"/>
        </g>
        <g id="Grupo_54257" data-name="Grupo 54257" transform="translate(78.324 187.378)">
          <rect id="Rectángulo_29342" data-name="Rectángulo 29342" width="83.044" height="17.216" fill="#1e61bf"/>
          <line id="Línea_1588" data-name="Línea 1588" x2="77.469" transform="translate(2.788 5.122)" fill="none" stroke="#091c38" stroke-miterlimit="10" stroke-width="0.742"/>
          <path id="Trazado_116104" data-name="Trazado 116104" d="M237.7,330.955a.878.878,0,1,1-.878-.878A.878.878,0,0,1,237.7,330.955Z" transform="translate(-224.445 -328.394)" fill="none" stroke="#091c38" stroke-miterlimit="10" stroke-width="0.742"/>
          <path id="Trazado_116105" data-name="Trazado 116105" d="M245.869,330.955a.878.878,0,1,1-.879-.878A.878.878,0,0,1,245.869,330.955Z" transform="translate(-227.204 -328.394)" fill="none" stroke="#091c38" stroke-miterlimit="10" stroke-width="0.742"/>
          <ellipse id="Elipse_4068" data-name="Elipse 4068" cx="0.878" cy="0.878" rx="0.878" ry="0.878" transform="translate(6.094 1.683)" fill="none" stroke="#091c38" stroke-miterlimit="10" stroke-width="0.742"/>
        </g>
        <g id="Grupo_54258" data-name="Grupo 54258" transform="translate(168.653 191.152)">
          <rect id="Rectángulo_29343" data-name="Rectángulo 29343" width="83.044" height="13.441" fill="#8ec8c8"/>
          <line id="Línea_1589" data-name="Línea 1589" x2="77.469" transform="translate(2.788 5.122)" fill="none" stroke="#fff" stroke-miterlimit="10" stroke-width="0.742"/>
          <path id="Trazado_116106" data-name="Trazado 116106" d="M365.96,336.655a.878.878,0,1,1-.879-.878A.879.879,0,0,1,365.96,336.655Z" transform="translate(-358.109 -334.094)" fill="none" stroke="#fff" stroke-miterlimit="10" stroke-width="0.742"/>
          <path id="Trazado_116107" data-name="Trazado 116107" d="M374.126,336.655a.878.878,0,1,1-.879-.878A.879.879,0,0,1,374.126,336.655Z" transform="translate(-360.868 -334.094)" fill="none" stroke="#fff" stroke-miterlimit="10" stroke-width="0.742"/>
          <path id="Trazado_116108" data-name="Trazado 116108" d="M382.291,336.655a.878.878,0,1,1-.878-.878A.878.878,0,0,1,382.291,336.655Z" transform="translate(-363.627 -334.094)" fill="none" stroke="#fff" stroke-miterlimit="10" stroke-width="0.742"/>
        </g>
        <g id="Grupo_54260" data-name="Grupo 54260" transform="translate(168.653 93.663)">
          <rect id="Rectángulo_29344" data-name="Rectángulo 29344" width="83.044" height="41.493" transform="translate(0 0)" fill="#fff"/>
          <line id="Línea_1590" data-name="Línea 1590" x2="77.469" transform="translate(2.788 5.122)" fill="none" stroke="#abc7ff" stroke-miterlimit="10" stroke-width="0.742"/>
          <ellipse id="Elipse_4069" data-name="Elipse 4069" cx="0.878" cy="0.878" rx="0.878" ry="0.878" transform="translate(6.094 1.683)" fill="none" stroke="#abc7ff" stroke-miterlimit="10" stroke-width="0.742"/>
          <ellipse id="Elipse_4070" data-name="Elipse 4070" cx="0.878" cy="0.878" rx="0.878" ry="0.878" transform="translate(11.501 1.683)" fill="none" stroke="#abc7ff" stroke-miterlimit="10" stroke-width="0.742"/>
          <path id="Trazado_116109" data-name="Trazado 116109" d="M382.291,189.419a.878.878,0,1,1-.878-.878A.878.878,0,0,1,382.291,189.419Z" transform="translate(-363.627 -186.858)" fill="none" stroke="#abc7ff" stroke-miterlimit="10" stroke-width="0.742"/>
          <g id="Grupo_54259" data-name="Grupo 54259" transform="translate(21.926 3.604)">
            <circle id="Elipse_4071" data-name="Elipse 4071" cx="13.856" cy="13.856" r="13.856" transform="translate(0 19.596) rotate(-45)" fill="#00223d"/>
            <path id="Trazado_116110" data-name="Trazado 116110" d="M410.736,222.864V213.4a.963.963,0,0,1,1.429-.843l8.565,4.734a.963.963,0,0,1,0,1.685l-8.565,4.734A.963.963,0,0,1,410.736,222.864Z" transform="translate(-395.757 -198.534)" fill="#fff"/>
          </g>
        </g>
        <g id="Grupo_54261" data-name="Grupo 54261" transform="translate(168.653 138.947)">
          <rect id="Rectángulo_29345" data-name="Rectángulo 29345" width="83.044" height="48.946" fill="#ffa726"/>
          <line id="Línea_1591" data-name="Línea 1591" x2="77.469" transform="translate(2.788 5.122)" fill="none" stroke="#fff" stroke-miterlimit="10" stroke-width="0.742"/>
          <path id="Trazado_116111" data-name="Trazado 116111" d="M365.96,257.811a.878.878,0,1,1-.879-.878A.879.879,0,0,1,365.96,257.811Z" transform="translate(-358.109 -255.25)" fill="none" stroke="#fff" stroke-miterlimit="10" stroke-width="0.742"/>
          <path id="Trazado_116112" data-name="Trazado 116112" d="M374.126,257.811a.878.878,0,1,1-.879-.878A.879.879,0,0,1,374.126,257.811Z" transform="translate(-360.868 -255.25)" fill="none" stroke="#fff" stroke-miterlimit="10" stroke-width="0.742"/>
          <path id="Trazado_116113" data-name="Trazado 116113" d="M382.291,257.811a.878.878,0,1,1-.878-.878A.878.878,0,0,1,382.291,257.811Z" transform="translate(-363.627 -255.25)" fill="none" stroke="#fff" stroke-miterlimit="10" stroke-width="0.742"/>
          <path id="Trazado_116114" data-name="Trazado 116114" d="M434.631,272.747H361.257a2.047,2.047,0,0,1-2.047-2.047h0a2.048,2.048,0,0,1,2.047-2.048h73.374a2.048,2.048,0,0,1,2.047,2.048h0A2.047,2.047,0,0,1,434.631,272.747Z" transform="translate(-356.422 -259.21)" fill="none" stroke="#fff" stroke-miterlimit="10" stroke-width="0.742"/>
          <path id="Trazado_116115" data-name="Trazado 116115" d="M434.631,285.458H361.257a2.048,2.048,0,0,1-2.047-2.048h0a2.048,2.048,0,0,1,2.047-2.048h73.374a2.048,2.048,0,0,1,2.047,2.048h0A2.048,2.048,0,0,1,434.631,285.458Z" transform="translate(-356.422 -263.504)" fill="none" stroke="#fff" stroke-miterlimit="10" stroke-width="0.742"/>
          <path id="Trazado_116116" data-name="Trazado 116116" d="M389.316,310.895H361.257a2.048,2.048,0,0,1-2.047-2.048h0a2.048,2.048,0,0,1,2.047-2.048h28.059a2.048,2.048,0,0,1,2.048,2.048h0A2.048,2.048,0,0,1,389.316,310.895Z" transform="translate(-356.422 -272.098)" fill="url(#linear-gradient)"/>
        </g>
        <g id="Grupo_54262" data-name="Grupo 54262" transform="translate(217.553 169.709)">
          <path id="Trazado_116117" data-name="Trazado 116117" d="M446.942,304.215l-18.09-.006,7.54,16.444,3.243-5.053,14.624,9.387,4.064-6.332L443.7,309.268Z" transform="translate(-428.851 -301.985)" fill="#0e2d59"/>
          <path id="Trazado_116118" data-name="Trazado 116118" d="M446.942,300.856l-18.09-.006,7.54,16.444,3.243-5.053,14.624,9.387,4.064-6.332L443.7,305.909Z" transform="translate(-428.851 -300.85)" fill="#fff"/>
        </g>
        <g id="Grupo_54272" data-name="Grupo 54272" transform="translate(78.324 143.401)">
          <rect id="Rectángulo_29347" data-name="Rectángulo 29347" width="83.044" height="39.523" fill="#fff"/>
          <line id="Línea_1603" data-name="Línea 1603" x2="77.469" transform="translate(2.788 5.122)" fill="none" stroke="#00223d" stroke-miterlimit="10" stroke-width="0.742"/>
          <ellipse id="Elipse_4076" data-name="Elipse 4076" cx="0.878" cy="0.878" rx="0.878" ry="0.878" transform="translate(6.094 1.683)" fill="none" stroke="#00223d" stroke-miterlimit="10" stroke-width="0.742"/>
          <path id="Trazado_116140" data-name="Trazado 116140" d="M237.7,264.538a.878.878,0,1,1-.878-.879A.878.878,0,0,1,237.7,264.538Z" transform="translate(-224.445 -261.976)" fill="none" stroke="#00223d" stroke-miterlimit="10" stroke-width="0.742"/>
          <path id="Trazado_116141" data-name="Trazado 116141" d="M245.869,264.538a.878.878,0,1,1-.879-.879A.878.878,0,0,1,245.869,264.538Z" transform="translate(-227.204 -261.976)" fill="none" stroke="#00223d" stroke-miterlimit="10" stroke-width="0.742"/>
          <g id="Grupo_54270" data-name="Grupo 54270" transform="translate(43.017 11.07)">
            <rect id="Rectángulo_29348" data-name="Rectángulo 29348" width="33.644" height="22.347" transform="translate(0)" fill="#d5f2e8"/>
            <path id="Trazado_116142" data-name="Trazado 116142" d="M283.545,277.837l12.876,12.995a5.555,5.555,0,0,0,7.892,0l12.876-12.995Z" transform="translate(-283.545 -277.837)" fill="#8ec8c8"/>
          </g>
          <g id="Grupo_54271" data-name="Grupo 54271" transform="translate(3.538 13.755)">
            <path id="Trazado_116143" data-name="Trazado 116143" d="M244.28,284.71H225.33a1.41,1.41,0,0,1-1.41-1.41h0a1.41,1.41,0,0,1,1.41-1.41H244.28a1.41,1.41,0,0,1,1.41,1.41h0A1.41,1.41,0,0,1,244.28,284.71Z" transform="translate(-223.92 -281.891)" fill="none" stroke="#00223d" stroke-miterlimit="10" stroke-width="0.742"/>
            <path id="Trazado_116144" data-name="Trazado 116144" d="M254.913,295.4H225.33a1.41,1.41,0,0,1-1.41-1.41h0a1.41,1.41,0,0,1,1.41-1.409h29.584a1.409,1.409,0,0,1,1.41,1.409h0A1.41,1.41,0,0,1,254.913,295.4Z" transform="translate(-223.92 -285.504)" fill="none" stroke="#00223d" stroke-miterlimit="10" stroke-width="0.742"/>
            <path id="Trazado_116145" data-name="Trazado 116145" d="M254.913,306.093H225.33a1.41,1.41,0,0,1-1.41-1.41h0a1.41,1.41,0,0,1,1.41-1.41h29.584a1.41,1.41,0,0,1,1.41,1.41h0A1.41,1.41,0,0,1,254.913,306.093Z" transform="translate(-223.92 -289.116)" fill="none" stroke="#00223d" stroke-miterlimit="10" stroke-width="0.742"/>
          </g>
        </g>
        <g id="Grupo_54274" data-name="Grupo 54274" transform="translate(154.892 136.925)">
          <ellipse id="Elipse_4077" data-name="Elipse 4077" cx="6.476" cy="6.476" rx="6.476" ry="6.476" fill="#1565c0"/>
          <g id="Grupo_54273" data-name="Grupo 54273" transform="translate(2.834 4)">
            <path id="Trazado_116146" data-name="Trazado 116146" d="M340.6,257.5v4.869H339.47v-3.964H338.5v-.9Z" transform="translate(-338.496 -257.421)" fill="#fff"/>
            <path id="Trazado_116147" data-name="Trazado 116147" d="M347.507,261.412v.918h-3.679v-.73l1.878-1.773c.432-.41.508-.661.508-.9,0-.382-.265-.6-.779-.6a1.191,1.191,0,0,0-1.009.487l-.82-.529a2.262,2.262,0,0,1,1.933-.9c1.085,0,1.809.556,1.809,1.439a1.944,1.944,0,0,1-.814,1.537l-1.12,1.057Z" transform="translate(-340.222 -257.378)" fill="#fff"/>
          </g>
        </g>
        <g id="Grupo_54275" data-name="Grupo 54275" transform="translate(181.911 201.518)">
          <rect id="Rectángulo_29349" data-name="Rectángulo 29349" width="57.325" height="38.797" fill="#525d54"/>
          <path id="Trazado_116148" data-name="Trazado 116148" d="M419.851,359.878h26.273V348.891H415.8Z" transform="translate(-388.798 -348.891)" fill="#69746b"/>
          <ellipse id="Elipse_4078" data-name="Elipse 4078" cx="6.484" cy="6.484" rx="6.484" ry="6.484" transform="translate(21.685 17.815)" fill="none" stroke="#fff" stroke-miterlimit="10" stroke-width="0.755"/>
          <path id="Trazado_116149" data-name="Trazado 116149" d="M419.758,382.311h-3.486v-3.486h-1.986v3.486H410.8V384.3h3.486v3.486h1.986V384.3h3.486Z" transform="translate(-387.11 -359.005)" fill="#fff"/>
        </g>
      </g>
    </g>
    <g id="Grupo_879708" data-name="Grupo 879708" transform="translate(-5941.028 -4779.864)">
      <g id="freepik--Character--inject-81" transform="translate(0 45.921)">
        <path id="Trazado_143908" data-name="Trazado 143908" d="M13691.574,5016.776s11.382,16,13.515,16.691c7.3,2.426,15.376-14.376,15.376-14.376l-4.341.955-7.969,5.027-8.7-11.892-7.885,4.537" transform="translate(-13624.236 -4975.877)" fill="#a57e6d"/>
        <path id="Trazado_143909" data-name="Trazado 143909" d="M13724.974,5044.875a1.832,1.832,0,0,1-.1-.778,5.333,5.333,0,0,1,1.287-3.5,1.96,1.96,0,0,1,.587-.52,7.039,7.039,0,0,0-1.77,4.794Z" transform="translate(-13642.732 -4990.822)" fill="#755246"/>
        <path id="Trazado_143910" data-name="Trazado 143910" d="M13728.693,5257.632l1.627,7.648,5.355.48,2.256-2.538-2.064-9.132Z" transform="translate(-13644.859 -5109.73)" fill="#a57e6d"/>
        <path id="Trazado_143911" data-name="Trazado 143911" d="M13655.295,5258.993c-.077.249,0,9.776,0,9.776l3,1.778,3.925-2.356.83-9.212Z" transform="translate(-13604.062 -5112.446)" fill="#a57e6d"/>
        <path id="Trazado_143912" data-name="Trazado 143912" d="M13639.885,5072.477a81.015,81.015,0,0,0-5.506,13.247c-1.654,5.959-3.232,9.363-1.531,14.714s3.975,25.627,5.094,30.978c.92,4.409,2.959,21.668,4.443,27.139h8.342l.848-61.281s14.832,34.414,16.533,38.546,6.688,21.774,6.688,21.774l8.633-1.333s-5.229-30.516-6.811-37.812-6.08-27.108-7.9-33.33-1.635-10.5-4.221-13.518Z" transform="translate(-13591.2 -5008.337)" fill="#12263f"/>
        <path id="Trazado_143913" data-name="Trazado 143913" d="M13677.837,5076.067a.371.371,0,0,1,.164-.116.853.853,0,0,1,.558,0,.828.828,0,0,1,.546.627.889.889,0,0,1-1.414.889.818.818,0,0,1-.323-.764.8.8,0,0,1,.239-.5c.093-.094.164-.111.173-.1a1.191,1.191,0,0,0-.248.609.66.66,0,0,0,.284.582.68.68,0,0,0,1.075-.672.66.66,0,0,0-.395-.511A1.126,1.126,0,0,0,13677.837,5076.067Z" transform="translate(-13616.34 -5010.727)" fill="#5e6178"/>
        <path id="Trazado_143914" data-name="Trazado 143914" d="M13677.741,5090.954a.97.97,0,0,1-.2.058,5.992,5.992,0,0,1-.595.1,8.2,8.2,0,0,1-2.222-.035,6.045,6.045,0,0,1-.734-.151.928.928,0,0,1-.368-.217.753.753,0,0,1-.2-.4c-.071-.573-.066-1.143-.1-1.778-.054-1.235-.106-2.59-.168-4-.113-2.849-.2-5.426-.254-7.292,0-.889-.04-1.653-.054-2.222v-.6a.682.682,0,0,1,0-.209.72.72,0,0,1,.031.209c0,.164.032.36.049.6.032.556.072,1.3.126,2.222.092,1.867.208,4.443.319,7.288.053,1.422.106,2.777.15,4,.031.609.022,1.222.075,1.737a.6.6,0,0,0,.445.489,5.736,5.736,0,0,0,.7.16,9.126,9.126,0,0,0,2.186.106A5.985,5.985,0,0,1,13677.741,5090.954Z" transform="translate(-13613.825 -5009.78)" fill="#5e6178"/>
        <path id="Trazado_143915" data-name="Trazado 143915" d="M13701.168,5083.515a1.361,1.361,0,0,1-.342.253,4.46,4.46,0,0,1-1.074.444,4.693,4.693,0,0,1-5.775-3.271c-.035-.123-.064-.247-.088-.373a4.474,4.474,0,0,1-.074-1.164,1.368,1.368,0,0,1,.074-.444,8.124,8.124,0,0,0,.162,1.551,4.672,4.672,0,0,0,5.576,3.549l.1-.025A8.229,8.229,0,0,0,13701.168,5083.515Z" transform="translate(-13625.477 -5012.425)" fill="#5e6178"/>
        <path id="Trazado_143916" data-name="Trazado 143916" d="M13685.929,5077.229a15.327,15.327,0,0,1-.119-3.729A14.9,14.9,0,0,1,13685.929,5077.229Z" transform="translate(-13621 -5009.391)" fill="#5e6178"/>
        <path id="Trazado_143917" data-name="Trazado 143917" d="M13689.356,5076.7a10.53,10.53,0,0,1,0-1.84,9.543,9.543,0,0,1,.106-1.835,5.915,5.915,0,0,1,.125,1.845A5.831,5.831,0,0,1,13689.356,5076.7Z" transform="translate(-13622.982 -5009.125)" fill="#5e6178"/>
        <path id="Trazado_143918" data-name="Trazado 143918" d="M13679.386,5079.107a1.172,1.172,0,0,1-.224.063l-.644.133c-.56.115-1.378.253-2.392.4a65.742,65.742,0,0,1-15.962.325c-1.019-.107-1.839-.213-2.4-.3l-.647-.106a.117.117,0,1,1,0-.053l.658.062c.563.063,1.39.142,2.407.227a75.709,75.709,0,0,0,15.924-.324c1.012-.125,1.835-.235,2.4-.324l.652-.09A1.334,1.334,0,0,1,13679.386,5079.107Z" transform="translate(-13604.965 -5012.505)" fill="#5e6178"/>
        <path id="Trazado_143919" data-name="Trazado 143919" d="M13649.808,5081.81a3.141,3.141,0,0,1-.641,1,6.185,6.185,0,0,1-5.163,2.221,3.171,3.171,0,0,1-1.17-.234c0-.04.444.062,1.178.071a6.636,6.636,0,0,0,5.03-2.173C13649.539,5082.183,13649.771,5081.81,13649.808,5081.81Z" transform="translate(-13597.156 -5014.008)" fill="#5e6178"/>
        <path id="Trazado_143920" data-name="Trazado 143920" d="M13682.961,5093.511c-.066,0-.144-2.173-.169-4.848s0-4.854.062-4.854.139,2.168.169,4.848S13683.022,5093.511,13682.961,5093.511Z" transform="translate(-13619.351 -5015.119)" fill="#5e6178"/>
        <path id="Trazado_143921" data-name="Trazado 143921" d="M13675.929,5121.681a17.507,17.507,0,0,1-.061-2.853,17.927,17.927,0,0,1,.168-2.848,35.32,35.32,0,0,1-.107,5.7Z" transform="translate(-13615.492 -5032.994)" fill="#5e6178"/>
        <path id="Trazado_143922" data-name="Trazado 143922" d="M13695.14,5116.049a9.423,9.423,0,0,1-1.393.253c-.861.138-2.054.329-3.36.57s-2.487.493-3.341.679a10.029,10.029,0,0,1-1.391.263,7.255,7.255,0,0,1,1.333-.445c.848-.227,2.026-.5,3.338-.747s2.511-.408,3.381-.5A7.482,7.482,0,0,1,13695.14,5116.049Z" transform="translate(-13620.949 -5033.027)" fill="#5e6178"/>
        <path id="Trazado_143923" data-name="Trazado 143923" d="M13696.037,5120.508a14.127,14.127,0,0,1-1.626.053c-1,0-2.392.048-3.92.128s-2.911.187-3.915.272a13.646,13.646,0,0,1-1.623.11,1.35,1.35,0,0,1,.444-.1c.276-.053.681-.111,1.179-.174,1-.128,2.386-.266,3.918-.346s2.929-.08,3.935-.053c.506,0,.889.031,1.19.049A1.493,1.493,0,0,1,13696.037,5120.508Z" transform="translate(-13620.558 -5035.44)" fill="#5e6178"/>
        <path id="Trazado_143924" data-name="Trazado 143924" d="M13658.671,5114.754a8.97,8.97,0,0,1-1.147-.444,27.439,27.439,0,0,0-2.786-.982,27.025,27.025,0,0,0-2.874-.658,8.654,8.654,0,0,1-1.21-.226,4.847,4.847,0,0,1,1.232.062,18.736,18.736,0,0,1,5.705,1.653A5.063,5.063,0,0,1,13658.671,5114.754Z" transform="translate(-13601.501 -5031.021)" fill="#5e6178"/>
        <path id="Trazado_143925" data-name="Trazado 143925" d="M13739.744,5272.73v.6s10.252,3.781,10.416,5.7l-20.125.475.115-6.705A11.6,11.6,0,0,0,13739.744,5272.73Z" transform="translate(-13645.606 -5120.085)" fill="#43a99b"/>
        <g id="Grupo_90184" data-name="Grupo 90184" transform="translate(86.068 154.783)" opacity="0.6">
          <path id="Trazado_143926" data-name="Trazado 143926" d="M13734.29,5277.564a.822.822,0,0,0-.548.951.792.792,0,0,0,.938.551.862.862,0,0,0,.572-1.009.827.827,0,0,0-1.039-.467" transform="translate(-13733.725 -5277.544)" fill="#ffbf9d"/>
        </g>
        <g id="Grupo_90185" data-name="Grupo 90185" transform="translate(84.446 157.804)" opacity="0.6">
          <path id="Trazado_143927" data-name="Trazado 143927" d="M13730.075,5285.954l.026-1.613,19.277.133s.89.37.823,1Z" transform="translate(-13730.075 -5284.341)" fill="#ffbf9d"/>
        </g>
        <path id="Trazado_143928" data-name="Trazado 143928" d="M13749.823,5274.095c0,.1-.488.15-.964.479s-.724.747-.817.711.045-.608.625-1S13749.846,5274,13749.823,5274.095Z" transform="translate(-13655.597 -5120.797)" fill="#344154"/>
        <path id="Trazado_143929" data-name="Trazado 143929" d="M13755.25,5276c.025.093-.395.271-.721.693s-.412.866-.51.866-.174-.555.24-1.075S13755.246,5275.891,13755.25,5276Z" transform="translate(-13658.89 -5121.878)" fill="#344154"/>
        <path id="Trazado_143930" data-name="Trazado 143930" d="M13759.556,5279.528c-.089.022-.236-.467,0-1.009s.694-.768.738-.688-.234.377-.444.826S13759.653,5279.515,13759.556,5279.528Z" transform="translate(-13661.938 -5122.911)" fill="#344154"/>
        <path id="Trazado_143931" data-name="Trazado 143931" d="M13656.918,5277.87s-5.333,3.791-7.934.507l-.675,1.6-3.04,11.336a1.521,1.521,0,0,0,.858,1.818,1.471,1.471,0,0,0,1.555-.3c2.2-2.088,10.249-9.825,10.167-10.874l-.029-2.782a1.415,1.415,0,0,0-.891-1.3Z" transform="translate(-13598.477 -5122.941)" fill="#43a99b"/>
        <g id="Grupo_90186" data-name="Grupo 90186" transform="translate(47.913 158.044)" opacity="0.6">
          <path id="Trazado_143932" data-name="Trazado 143932" d="M13647.865,5297.1l11.464-12.216v.609a1.652,1.652,0,0,1-.541,1.333c-.928,1.253-3.494,4.048-9.584,9.892a1.453,1.453,0,0,1-1.335.373Z" transform="translate(-13647.865 -5284.88)" fill="#ffbf9d"/>
        </g>
        <g id="Grupo_90187" data-name="Grupo 90187" transform="translate(57.333 156.104)" opacity="0.6">
          <path id="Trazado_143933" data-name="Trazado 143933" d="M13669.428,5280.647a.888.888,0,0,0-.25,1.16.864.864,0,0,0,1.152.258.933.933,0,0,0,.252-1.231.889.889,0,0,0-1.222-.133" transform="translate(-13669.061 -5280.517)" fill="#ffbf9d"/>
        </g>
        <path id="Trazado_143934" data-name="Trazado 143934" d="M13651.668,5296.234a4.464,4.464,0,0,0-1.257-1.124,5.136,5.136,0,0,0-1.648-.32c-.018-.089.169-.147.506-.2a2.32,2.32,0,0,1,1.285.235,2.223,2.223,0,0,1,.96.888C13651.682,5296.017,13651.705,5296.222,13651.668,5296.234Z" transform="translate(-13600.451 -5132.228)" fill="#344154"/>
        <path id="Trazado_143935" data-name="Trazado 143935" d="M13649.655,5301.322c-.071.062-.528-.4-1.271-.622s-1.378-.1-1.4-.187a1.6,1.6,0,0,1,1.492-.115C13649.317,5300.656,13649.726,5301.282,13649.655,5301.322Z" transform="translate(-13599.463 -5135.399)" fill="#344154"/>
        <path id="Trazado_143936" data-name="Trazado 143936" d="M13654.576,5290.676a14.115,14.115,0,0,0-1.893-1.093,17.258,17.258,0,0,0-2.129-.5,3.141,3.141,0,0,1,2.246.208A3.237,3.237,0,0,1,13654.576,5290.676Z" transform="translate(-13601.445 -5129.107)" fill="#344154"/>
        <path id="Trazado_143937" data-name="Trazado 143937" d="M13655.5,5284.224c-.035.089-.83-.245-1.863-.289s-1.847.2-1.878.115a3.564,3.564,0,0,1,3.741.173Z" transform="translate(-13602.112 -5126.127)" fill="#344154"/>
        <path id="Trazado_143938" data-name="Trazado 143938" d="M13652.259,5280.992a1.276,1.276,0,0,1,.079-.538,3.807,3.807,0,0,1,.689-1.333,1.642,1.642,0,0,1,.849-.653.583.583,0,0,1,.631.253.953.953,0,0,1,.107.675,2.081,2.081,0,0,1-2.146,1.556,2.408,2.408,0,0,1-2.095-1.676.812.812,0,0,1,.089-.688.577.577,0,0,1,.653-.191,2.051,2.051,0,0,1,.835.658,4.147,4.147,0,0,1,.761,1.275,1.258,1.258,0,0,1,.124.529,6.729,6.729,0,0,0-1.049-1.657,1.9,1.9,0,0,0-.746-.556.317.317,0,0,0-.355.1.569.569,0,0,0-.031.445,2.149,2.149,0,0,0,1.83,1.431,1.778,1.778,0,0,0,1.841-1.293.7.7,0,0,0-.049-.476.317.317,0,0,0-.348-.143,1.5,1.5,0,0,0-.732.538A5.683,5.683,0,0,0,13652.259,5280.992Z" transform="translate(-13601.322 -5123.215)" fill="#344154"/>
        <path id="Trazado_143939" data-name="Trazado 143939" d="M13679.927,4982.53c-.837-.667-1.813-1.133-2.667-1.755a6.343,6.343,0,0,1-1.87-3.315l-6.857.6a26.969,26.969,0,0,0-.89,8.314,5.263,5.263,0,0,0,1.032,3.347,5.876,5.876,0,0,0,3.556,1.439l6.256,1a3.818,3.818,0,0,0,2.223-.1,2.932,2.932,0,0,0,1.332-1.666A7.077,7.077,0,0,0,13679.927,4982.53Z" transform="translate(-13610.922 -4956.03)" fill="#344154"/>
        <path id="Trazado_143940" data-name="Trazado 143940" d="M13638.106,4961.875a22.831,22.831,0,0,1,.215-6.128,70.1,70.1,0,0,0,0-9.048,52.918,52.918,0,0,1,.163-9.012c.4-2.919,1.333-5.7,2.92-7.27a3.5,3.5,0,0,1,5.454.266l-.624,7.7a223.644,223.644,0,0,1,.338,32.827,17.318,17.318,0,0,1-6.336.062,1.332,1.332,0,0,1-1.155-.858,4.782,4.782,0,0,1,.234-2.342,7.2,7.2,0,0,0-.334-3.173A28.923,28.923,0,0,1,13638.106,4961.875Z" transform="translate(-13594.447 -4929.237)" fill="#344154"/>
        <path id="Trazado_143941" data-name="Trazado 143941" d="M13650.608,4932.142a5.351,5.351,0,0,1,2.223-1.333,1.81,1.81,0,0,1,1.039-.066.784.784,0,0,1,.583.782l-2.054,2.906a1.412,1.412,0,0,1-1.559.071,1.456,1.456,0,0,1-.854-.911A1.678,1.678,0,0,1,13650.608,4932.142Z" transform="translate(-13601.126 -4930.047)" fill="#5e6178"/>
        <path id="Trazado_143942" data-name="Trazado 143942" d="M13677.155,4996.9" transform="translate(-13616.226 -4966.831)" fill="#ffbe9d"/>
        <path id="Trazado_143943" data-name="Trazado 143943" d="M13665.917,4943.525a8.151,8.151,0,0,0-8.244-7.466,7.915,7.915,0,0,0-7.814,8.014c0,.106.008.212.011.318l1.52,17.775a1.54,1.54,0,0,0,.409.92,7.265,7.265,0,0,0,5.01,2.258,7.6,7.6,0,0,0,4.5-1.64,1.509,1.509,0,0,0,.572-1.4l-.555-4.582h0a10.536,10.536,0,0,0,1.177-.222c1-.409,3.443-1.173,3.555-5.2A80.963,80.963,0,0,0,13665.917,4943.525Z" transform="translate(-13601.058 -4933.028)" fill="#a57e6d"/>
        <path id="Trazado_143944" data-name="Trazado 143944" d="M13673.818,4960.573a4.766,4.766,0,0,1,1.125-.29c.178-.031.347-.08.369-.2a.919.919,0,0,0-.164-.516c-.2-.413-.414-.849-.64-1.3a23.264,23.264,0,0,1-1.472-3.417,23.994,23.994,0,0,1,1.751,3.293q.318.667.618,1.333a1.021,1.021,0,0,1,.146.684.443.443,0,0,1-.275.28,1.294,1.294,0,0,1-.3.067A4.788,4.788,0,0,1,13673.818,4960.573Z" transform="translate(-13613.935 -4943.467)" fill="#344154"/>
        <path id="Trazado_143945" data-name="Trazado 143945" d="M13681.372,4957.85a.641.641,0,0,1-.579.693.627.627,0,0,1-.719-.519v-.006a.648.648,0,0,1,.577-.7.63.63,0,0,1,.72.527Z" transform="translate(-13617.847 -4944.836)" fill="#344154"/>
        <path id="Trazado_143946" data-name="Trazado 143946" d="M13680.373,4954.859c-.062.111-.626-.253-1.332-.146s-1.138.6-1.231.512,0-.236.2-.445a1.535,1.535,0,0,1,.961-.538,1.563,1.563,0,0,1,1.08.245C13680.3,4954.633,13680.405,4954.806,13680.373,4954.859Z" transform="translate(-13616.568 -4943.122)" fill="#344154"/>
        <path id="Trazado_143947" data-name="Trazado 143947" d="M13666.529,4959.241a.64.64,0,0,1-.577.692.627.627,0,0,1-.72-.519v-.01a.638.638,0,0,1,.577-.692.631.631,0,0,1,.721.527Z" transform="translate(-13609.598 -4945.61)" fill="#344154"/>
        <path id="Trazado_143948" data-name="Trazado 143948" d="M13664.849,4956.147c-.085.106-.637-.333-1.4-.321s-1.307.444-1.392.342.039-.235.275-.444a1.764,1.764,0,0,1,2.226-.018C13664.8,4955.916,13664.889,4956.1,13664.849,4956.147Z" transform="translate(-13607.825 -4943.729)" fill="#344154"/>
        <path id="Trazado_143949" data-name="Trazado 143949" d="M13667.775,4983.188a11.467,11.467,0,0,1-6.311-1.3s1.409,3.422,6.468,2.569Z" transform="translate(-13607.508 -4958.492)" fill="#755246"/>
        <path id="Trazado_143950" data-name="Trazado 143950" d="M13671.857,4971.021a1.3,1.3,0,0,0-1.172-.377,1.177,1.177,0,0,0-.766.484.724.724,0,0,0,0,.827.892.892,0,0,0,.943.161,2.665,2.665,0,0,0,.854-.6.776.776,0,0,0,.187-.218.233.233,0,0,0,0-.257" transform="translate(-13612.134 -4952.231)" fill="#755246"/>
        <path id="Trazado_143951" data-name="Trazado 143951" d="M13665.242,4950.85c-.056.191-.761.169-1.574.343s-1.458.444-1.581.3c-.059-.075.039-.262.287-.445a2.707,2.707,0,0,1,1.148-.52,2.8,2.8,0,0,1,1.262.026C13665.094,4950.619,13665.263,4950.756,13665.242,4950.85Z" transform="translate(-13607.845 -4941.032)" fill="#344154"/>
        <path id="Trazado_143952" data-name="Trazado 143952" d="M13679.654,4951.444c-.138.165-.719.027-1.418.048s-1.27.165-1.416,0c-.063-.08.022-.239.27-.4a2.509,2.509,0,0,1,2.276-.021C13679.63,4951.2,13679.719,4951.364,13679.654,4951.444Z" transform="translate(-13616.027 -4941.223)" fill="#344154"/>
        <path id="Trazado_143953" data-name="Trazado 143953" d="M13655.5,4932.916a2.394,2.394,0,0,0-1.945-.755,9.126,9.126,0,0,0-7.682,5.194,10.324,10.324,0,0,0,.806,9.407l1.186.036c2.392-.5,5.466-7.8,8.307-12C13656.521,4934.268,13655.892,4933.4,13655.5,4932.916Z" transform="translate(-13598.405 -4930.858)" fill="#344154"/>
        <path id="Trazado_143954" data-name="Trazado 143954" d="M13674.413,4934.078c-1.506-1.284-3.865-2.769-6.395-1.355-.284.809.653,1.666,1.4,2.138,1.093.692,2.022,1.129,2.747,1.635,1.466,1.019,3.354,2.778,3.8,4.974.03.138.063,4.465.2,4.421s.538-5.333.578-6.572A5.834,5.834,0,0,0,13674.413,4934.078Z" transform="translate(-13611.121 -4930.855)" fill="#344154"/>
        <path id="Trazado_143955" data-name="Trazado 143955" d="M13649.032,4961.574c-.08-.026-3.111-.741-2.84,2.284a2.285,2.285,0,0,0,3.24,2.058C13649.429,4965.827,13649.032,4961.574,13649.032,4961.574Z" transform="translate(-13599.011 -4947.153)" fill="#a57e6d"/>
        <path id="Trazado_143956" data-name="Trazado 143956" d="M13649.392,4966.119a1.137,1.137,0,0,1-.133.089.514.514,0,0,1-.4.04,1.307,1.307,0,0,1-.7-1.115,1.726,1.726,0,0,1,.085-.769.613.613,0,0,1,.364-.444.267.267,0,0,1,.32.12c.049.08.035.142.053.146s.059-.058.021-.177a.327.327,0,0,0-.134-.183.387.387,0,0,0-.3-.049.744.744,0,0,0-.512.516,1.762,1.762,0,0,0-.11.858,1.364,1.364,0,0,0,.888,1.239.555.555,0,0,0,.476-.12C13649.392,4966.19,13649.4,4966.124,13649.392,4966.119Z" transform="translate(-13599.993 -4948.422)" fill="#755246"/>
        <path id="Trazado_143957" data-name="Trazado 143957" d="M13676.479,4937.67a3.315,3.315,0,0,1-.862.227,12.545,12.545,0,0,1-4.288,0,3.047,3.047,0,0,1-.863-.217,6,6,0,0,1,.891.089,19.355,19.355,0,0,0,2.122.115,18.4,18.4,0,0,0,2.125-.142A5.1,5.1,0,0,1,13676.479,4937.67Z" transform="translate(-13612.509 -4933.922)" fill="#5e6178"/>
        <path id="Trazado_143958" data-name="Trazado 143958" d="M13681.385,4941.735a1.682,1.682,0,0,1-.636.24,5.067,5.067,0,0,1-3.221-.289,1.715,1.715,0,0,1-.581-.347,6.941,6.941,0,0,0,4.438.4Z" transform="translate(-13616.11 -4935.961)" fill="#5e6178"/>
        <path id="Trazado_143959" data-name="Trazado 143959" d="M13646.285,4940.222c0-.04.663,0,1.71-.168a12.98,12.98,0,0,0,1.809-.418,16.975,16.975,0,0,0,2.111-.844,18.723,18.723,0,0,0,1.974-1.133,17.129,17.129,0,0,0,1.485-1.124c.8-.685,1.243-1.183,1.267-1.155a2.424,2.424,0,0,1-.29.36,5.288,5.288,0,0,1-.369.4c-.151.152-.32.325-.524.5a14.379,14.379,0,0,1-1.472,1.165,16.785,16.785,0,0,1-1.986,1.159,15.6,15.6,0,0,1-2.146.84,11.848,11.848,0,0,1-1.84.386,6.333,6.333,0,0,1-.72.063,3.931,3.931,0,0,1-.547,0A2.027,2.027,0,0,1,13646.285,4940.222Z" transform="translate(-13599.074 -4932.649)" fill="#5e6178"/>
        <path id="Trazado_143960" data-name="Trazado 143960" d="M13657.687,4937.81a2.394,2.394,0,0,1-.189.445,4.6,4.6,0,0,1-.258.511c-.111.191-.222.422-.382.653a12.587,12.587,0,0,1-1.173,1.582,13.394,13.394,0,0,1-1.752,1.658,13.147,13.147,0,0,1-2.044,1.289,12.312,12.312,0,0,1-1.832.729c-.261.088-.514.138-.728.2s-.4.083-.56.11a2.966,2.966,0,0,1-.484.058c0-.04.68-.142,1.732-.493a13.43,13.43,0,0,0,1.778-.755,12.926,12.926,0,0,0,3.74-2.906,13.57,13.57,0,0,0,1.191-1.538C13657.363,4938.419,13657.652,4937.81,13657.687,4937.81Z" transform="translate(-13600.186 -4934)" fill="#5e6178"/>
        <path id="Trazado_143961" data-name="Trazado 143961" d="M13664.135,4932.094a1.158,1.158,0,0,1,.609-.035,2.641,2.641,0,0,1,1.332.622,2.2,2.2,0,0,1,.294.316,1.738,1.738,0,0,1,.2.346,4.336,4.336,0,0,1,.249.613.9.9,0,0,1,.032.609c-.032,0-.023-.231-.156-.565a6.062,6.062,0,0,0-.281-.578,1.638,1.638,0,0,0-.187-.316,2.4,2.4,0,0,0-.271-.284,2.855,2.855,0,0,0-1.235-.63C13664.366,4932.112,13664.139,4932.125,13664.135,4932.094Z" transform="translate(-13608.991 -4930.79)" fill="#5e6178"/>
        <path id="Trazado_143962" data-name="Trazado 143962" d="M13645.9,4946.186a.535.535,0,0,0-.045-.155c-.031-.1-.084-.245-.142-.445a13.637,13.637,0,0,1-.444-1.622,11.658,11.658,0,0,1-.228-2.471,9.834,9.834,0,0,1,.506-2.982,7.746,7.746,0,0,1,.668-1.417,8.291,8.291,0,0,1,.889-1.168,10.05,10.05,0,0,1,1.88-1.613,14.473,14.473,0,0,1,1.443-.854l.409-.208a.62.62,0,0,0,.14-.08l-.148.054c-.1.044-.243.1-.423.187a12.138,12.138,0,0,0-1.475.817,9.909,9.909,0,0,0-1.924,1.609,8.3,8.3,0,0,0-.889,1.187,7.515,7.515,0,0,0-.685,1.444,9.637,9.637,0,0,0-.5,3.026,11.285,11.285,0,0,0,.257,2.489,11.451,11.451,0,0,0,.473,1.622c.065.19.132.329.168.444A.969.969,0,0,0,13645.9,4946.186Z" transform="translate(-13598.323 -4931.422)" fill="#5e6178"/>
        <path id="Trazado_143963" data-name="Trazado 143963" d="M13671.724,4971.63c0-.093-.688-.191-1.483-.546s-1.36-.889-1.405-.8a2.713,2.713,0,0,0,1.333,1.093A2.284,2.284,0,0,0,13671.724,4971.63Z" transform="translate(-13611.604 -4952.036)" fill="#344154"/>
        <path id="Trazado_143964" data-name="Trazado 143964" d="M13661.219,4990.645l-4.348-.515-10.277,1.329-5.25,2.923,9.119,3.844,6.637-1.358Z" transform="translate(-13596.327 -4963.07)" fill="#a57e6d"/>
        <path id="Trazado_143965" data-name="Trazado 143965" d="M13638.274,4992.588l-7.28,2.968,1.632,13.976s2.706-.969,4.159,6.092a65.379,65.379,0,0,1,1.476,11.581l26.477-.942s-.965-16.926-1.449-20.7l-1.777-14.411-6.829-1.143S13648.1,5001.128,13638.274,4992.588Z" transform="translate(-13590.577 -4963.003)" fill="#43a99b"/>
        <path id="Trazado_143966" data-name="Trazado 143966" d="M13697.046,4992.578s3.226-.231,5.777,4.23c1.938,3.4,2.621,4.706,2.621,4.706l-7.5,4.382-3-8.19Z" transform="translate(-13626.109 -4964.429)" fill="#43a99b"/>
        <path id="Trazado_143967" data-name="Trazado 143967" d="M13621.406,5002.38a16.331,16.331,0,0,0-4.444,3.773,48.423,48.423,0,0,0-3.387,6.035l8.889,4.941,1.333-2.538Z" transform="translate(-13580.899 -4969.876)" fill="#43a99b"/>
        <path id="Trazado_143968" data-name="Trazado 143968" d="M13635.232,5015.716c-.041,0,.191-.608.395-1.608a11.844,11.844,0,0,0,.236-1.777,13.637,13.637,0,0,0-.054-2.187,14.33,14.33,0,0,0-.445-2.142,11.954,11.954,0,0,0-.626-1.675c-.443-.925-.781-1.454-.745-1.476a1.681,1.681,0,0,1,.274.351,8.075,8.075,0,0,1,.617,1.054,11.049,11.049,0,0,1,.685,1.685,12.494,12.494,0,0,1,.445,2.182,12.147,12.147,0,0,1,.04,2.222,10.621,10.621,0,0,1-.289,1.777,8.386,8.386,0,0,1-.364,1.165A1.488,1.488,0,0,1,13635.232,5015.716Z" transform="translate(-13592.243 -4971.249)" fill="#344154"/>
        <path id="Trazado_143969" data-name="Trazado 143969" d="M13697.652,5000.671a30.07,30.07,0,0,0-1.011-2.964q-.691-1.412-1.517-2.747a3.077,3.077,0,0,1,.612.7,10.831,10.831,0,0,1,1.809,4.083A2.764,2.764,0,0,1,13697.652,5000.671Z" transform="translate(-13626.21 -4965.753)" fill="#344154"/>
        <path id="Trazado_143970" data-name="Trazado 143970" d="M13665.052,4990.06a.963.963,0,0,1-.071.228c-.062.142-.134.359-.268.623a10.662,10.662,0,0,1-1.333,2.105,11.751,11.751,0,0,1-2.724,2.493,11.513,11.513,0,0,1-12.142.289,10.732,10.732,0,0,1-2-1.489c-.218-.2-.364-.373-.471-.484s-.156-.178-.146-.183.24.218.68.6a11.73,11.73,0,0,0,2.013,1.413,11.956,11.956,0,0,0,3.4,1.271,11.165,11.165,0,0,0,8.537-1.6,12,12,0,0,0,2.715-2.418,11.8,11.8,0,0,0,1.369-2.043C13664.9,4990.354,13665.052,4990.056,13665.052,4990.06Z" transform="translate(-13598.86 -4963.03)" fill="#344154"/>
        <path id="Trazado_143971" data-name="Trazado 143971" d="M13650.353,4996.208a70.223,70.223,0,0,1-2.951-14.572c-.3-3.488-1.209-6.3-1.334-9.736l-1.985,3.516a95.893,95.893,0,0,0-2.173,13.429c-.13,1.417-.179,3,.745,4.084.742.888,2.022,1.292,2.432,2.359.443,1.155-.2,2.862.889,3.439a1.444,1.444,0,0,0,1.656-.414,4.232,4.232,0,0,0,.8-1.631c.1.889,1.144,1.831,1.818,1.231C13650.676,4997.51,13650.534,4996.786,13650.353,4996.208Z" transform="translate(-13596.603 -4952.941)" fill="#344154"/>
        <path id="Trazado_143972" data-name="Trazado 143972" d="M13540.587,5034.964h0a7.187,7.187,0,0,0,9.381,3.911q.3-.122.585-.271l99.031-51.647,12.646-18.327-21.743,3.32-96.757,54.011A7.185,7.185,0,0,0,13540.587,5034.964Z" transform="translate(-13540.047 -4951.124)" fill="#f6f6f6"/>
        <path id="Trazado_143973" data-name="Trazado 143973" d="M13543.73,5097.64a7.186,7.186,0,0,0-3.144,9h0a7.187,7.187,0,0,0,9.381,3.911c.2-.081.395-.172.585-.271Z" transform="translate(-13540.047 -5022.804)" fill="#344154"/>
        <g id="Grupo_90188" data-name="Grupo 90188" transform="translate(3.684 20.825)" opacity="0.4">
          <path id="Trazado_143974" data-name="Trazado 143974" d="M13645.086,4976.1l-96.752,54.011,1.164,2.16,97.135-53.287Z" transform="translate(-13548.334 -4976.1)" fill="#344154"/>
        </g>
        <g id="Grupo_90189" data-name="Grupo 90189" transform="translate(9.385 32.913)" opacity="0.4">
          <path id="Trazado_143975" data-name="Trazado 143975" d="M13659.615,5003.3l-98.451,52.491,1.121,2.076,99.031-51.647Z" transform="translate(-13561.164 -5003.3)" fill="#344154"/>
        </g>
        <g id="Grupo_90190" data-name="Grupo 90190" transform="translate(6.492 26.638)" opacity="0.4">
          <path id="Trazado_143976" data-name="Trazado 143976" d="M13652.088,4989.18l-97.434,53.4,1.551,2.879,97.539-53.3Z" transform="translate(-13554.654 -4989.18)" fill="#344154"/>
        </g>
        <g id="Grupo_90191" data-name="Grupo 90191" transform="translate(100.436 18.794)" opacity="0.4">
          <path id="Trazado_143977" data-name="Trazado 143977" d="M13775.156,4988.567l-9.1-15.007,13.31-2.031,4.094,5Z" transform="translate(-13766.057 -4971.529)" fill="#ffbf9d"/>
        </g>
        <path id="Trazado_143978" data-name="Trazado 143978" d="M13747.165,5014.752l1.777-1.876s-.209-4.27.521-5.333l.377-.631s-.377-2.076.738-2.555c.314-.787.725-1.106,1.279-.667,0,0-.312-1.564,1.146-1.778s1.875,6.408,1.875,6.408.73,2.968-.937,2.968a3.758,3.758,0,0,1-1.981,1.147s-.311,1.777-1.777,1.666Z" transform="translate(-13655.124 -4969.614)" fill="#a57e6d"/>
        <path id="Trazado_143979" data-name="Trazado 143979" d="M13751.5,5023.88a.559.559,0,0,1,.164.213,1.169,1.169,0,0,1,.083.733,1.625,1.625,0,0,1-.546.947,3.288,3.288,0,0,1-1.164.635,8.216,8.216,0,0,1-2.318.444,2.818,2.818,0,0,1-.979-.053,14.785,14.785,0,0,0,3.222-.627,3.327,3.327,0,0,0,1.1-.578,1.532,1.532,0,0,0,.528-.822A1.491,1.491,0,0,0,13751.5,5023.88Z" transform="translate(-13654.89 -4981.822)" fill="#755246"/>
        <path id="Trazado_143980" data-name="Trazado 143980" d="M13758.936,5011.367c-.072,0-.077-1.333-.392-2.924s-.813-2.826-.747-2.854a2.7,2.7,0,0,1,.387.783,11.867,11.867,0,0,1,.587,2.025,12.715,12.715,0,0,1,.227,2.1A2.69,2.69,0,0,1,13758.936,5011.367Z" transform="translate(-13661.027 -4971.659)" fill="#755246"/>
        <path id="Trazado_143981" data-name="Trazado 143981" d="M13756.028,5013.119c-.067,0-.19-1.294-.525-2.858s-.736-2.809-.676-2.831a10.034,10.034,0,0,1,.89,2.783A10.221,10.221,0,0,1,13756.028,5013.119Z" transform="translate(-13659.377 -4972.681)" fill="#755246"/>
        <path id="Trazado_143982" data-name="Trazado 143982" d="M13762.232,5020.118c.053-.036.271.373.129.889s-.534.764-.562.707a7.352,7.352,0,0,0,.34-.765C13762.25,5020.513,13762.171,5020.14,13762.232,5020.118Z" transform="translate(-13663.253 -4979.73)" fill="#755246"/>
        <path id="Trazado_143983" data-name="Trazado 143983" d="M13753.347,5016.749a8.6,8.6,0,0,1-.139-1.623,9.228,9.228,0,0,1-.066-1.626,4.321,4.321,0,0,1,.3,1.614A4.473,4.473,0,0,1,13753.347,5016.749Z" transform="translate(-13658.438 -4976.055)" fill="#755246"/>
        <path id="Trazado_143984" data-name="Trazado 143984" d="M13604.518,5024.45s-5.879,12.394-6.768,14.243-2.324,5.266,0,7.181,18.519,2.036,18.519,2.036l.8-6.529-10.665-2.581,6.266-9.408Z" transform="translate(-13571.406 -4982.139)" fill="#a57e6d"/>
        <path id="Trazado_143985" data-name="Trazado 143985" d="M13642.476,5056.986a5.359,5.359,0,0,1,1.405-1.849c1.018-.888,3.257-1.573,3.557-2.421s1.136-.187.937.866a10.741,10.741,0,0,1-1.512,2.44,4.293,4.293,0,0,0,2.711-.218c1.085-.622,4.89-1.746,5.278-1.213s-.536.8-.958,1.04c-.325.182-2.845,1.431-2.845,1.431a45.524,45.524,0,0,1,5.644.071c.632.24,0,.862-.334.889a8.21,8.21,0,0,0-1.665,1.333,2.275,2.275,0,0,1-1.521.613h-1.164l3.556.373s.607.56-.24.854c-.382.128-11.11,1.675-11.946,1.724-1.438.084-3.715.444-3.715.444l.578-6.666Z" transform="translate(-13595.394 -4997.629)" fill="#a57e6d"/>
        <path id="Trazado_143986" data-name="Trazado 143986" d="M13671.282,5065.19a7.625,7.625,0,0,1-2.4.715,7.777,7.777,0,0,1-2.49.147c0-.066,1.107-.133,2.449-.373S13671.261,5065.127,13671.282,5065.19Z" transform="translate(-13610.248 -5004.769)" fill="#755246"/>
      </g>
      <g id="freepik--speech-bubble--inject-81" transform="translate(302.207 0)">
        <path id="Trazado_143987" data-name="Trazado 143987" d="M13703.066,4931.354l2.789-4.924a13.2,13.2,0,1,1,3.16,3.516h0Z" transform="translate(-13703.066 -4906.301)" fill="url(#linear-gradient-2)"/>
        <path id="Trazado_143988" data-name="Trazado 143988" d="M13703.066,4931.347l5.967-1.333h.081l-.049-.067h0l-.077.071a13.2,13.2,0,0,0,6.328,2.666,11.918,11.918,0,0,0,2.089.107c.361,0,.726-.026,1.1-.058l1.111-.168a13.226,13.226,0,0,0,10.5-15.475c-.053-.265-.11-.529-.178-.79a12.965,12.965,0,0,0-2.83-5.431,13.27,13.27,0,0,0-5.084-3.631,13.5,13.5,0,0,0-5.918-.91,12.978,12.978,0,0,0-5.432,1.608,13.4,13.4,0,0,0-6.262,7.71,14.25,14.25,0,0,0-.573,4.293,13.124,13.124,0,0,0,1.979,6.541v-.053l-2.747,4.95,2.835-4.889v-.053a13.1,13.1,0,0,1-1.914-6.493,14.153,14.153,0,0,1,.587-4.239,13.228,13.228,0,0,1,6.184-7.63,12.856,12.856,0,0,1,5.334-1.569,13.265,13.265,0,0,1,5.825.889,13.047,13.047,0,0,1,5,3.555,12.75,12.75,0,0,1,2.787,5.333,13.347,13.347,0,0,1,.161,5.777,13.168,13.168,0,0,1-10.315,10.271l-1.1.168c-.365.031-.73.04-1.084.063a11.252,11.252,0,0,1-2.063-.1,13.105,13.105,0,0,1-6.283-2.6l-.328-.253.254.324h0l.029-.084Z" transform="translate(-13703.066 -4906.294)" fill="#344154"/>
        <path id="Trazado_143989" data-name="Trazado 143989" d="M13719.744,4931.069l1.844-1.844,3.556,3.159,6.98-6.714,1.713,1.84-8.956,8.429Z" transform="translate(-13712.332 -4917.06)" fill="#12263f"/>
      </g>
    </g>
  </g>
</svg>
