<svg xmlns="http://www.w3.org/2000/svg" xmlns:xlink="http://www.w3.org/1999/xlink" width="2097" height="779" viewBox="0 0 2097 779"><defs><clipPath id="a"><rect width="2097" height="381" transform="translate(0 0.288)" fill="#f8fbfe"/></clipPath><clipPath id="b"><rect width="2097" height="381" fill="#f8fbfe"/></clipPath></defs><g transform="translate(-136 -1395.288)"><g transform="translate(136 1395)" clip-path="url(#a)"><path d="M1840.359,941.157c412,93.244,866.366,146.83,1326.007,82.387,911.776-127.835,910.768-99.6,910.768-99.6v594.022H1053.877v-649.5S1371.15,834.965,1840.359,941.157Z" transform="translate(-1337.998 -734.71)" fill="#f8fbfe"/></g><g transform="translate(136 1793.288)" clip-path="url(#b)"><path d="M1840.359,1440.263c412-93.244,866.366-146.83,1326.007-82.387,911.776,127.835,910.768,99.6,910.768,99.6V863.452H1053.877v649.5S1371.15,1546.455,1840.359,1440.263Z" transform="translate(-1337.998 -1265.71)" fill="#f8fbfe"/></g></g></svg>