<svg xmlns="http://www.w3.org/2000/svg" xmlns:xlink="http://www.w3.org/1999/xlink" width="205.962" height="176.901" viewBox="0 0 205.962 176.901">
  <defs>
    <clipPath id="clip-path">
      <rect id="Rectángulo_296235" data-name="Rectángulo 296235" width="115.082" height="107.907" fill="#12263f"/>
    </clipPath>
  </defs>
  <g id="Grupo_879719" data-name="Grupo 879719" transform="translate(44.926 44.403)">
    <rect id="Rectángulo_49533" data-name="Rectángulo 49533" width="144.8" height="111.233" transform="translate(16.236 21.265)" fill="#ffde96"/>
    <g id="Grupo_169217" data-name="Grupo 169217" transform="translate(-44.926 -44.403)">
      <rect id="Rectángulo_49754" data-name="Rectángulo 49754" width="166.13" height="153.889" transform="translate(0 0)" fill="none"/>
      <g id="Grupo_882417" data-name="Grupo 882417" transform="translate(17.138 22.991)">
        <g id="Grupo_882416" data-name="Grupo 882416" clip-path="url(#clip-path)">
          <path id="Trazado_599376" data-name="Trazado 599376" d="M115.082,89.466a19.851,19.851,0,0,1-.858,2.047,6.647,6.647,0,0,1-5.969,3.764c-10.075.065-20.15.029-30.225.028-.183,0-.366-.02-.625-.035V91.708h5.717q12.135,0,24.271.011a3.7,3.7,0,0,0,3.511-1.8H77.386v-3.57H110.6c-.7-1.759-1.29-3.367-2-4.92-.131-.287-.757-.487-1.156-.489-6.255-.03-12.51-.021-18.765-.021H70.722c.9,2.184,1.866,4.278,2.635,6.442a40.922,40.922,0,0,1,2.148,15.689,5.2,5.2,0,0,1-5.248,4.836c-7.678.027-15.356.016-23.034.016q-20.844,0-41.687,0a5.265,5.265,0,0,1-5.521-5.6c0-1.2-.041-2.4.02-3.6A38.462,38.462,0,0,1,7.922,76.552c5.043-6.514,11.533-10.674,19.85-11.676.3-.036.589-.1.878-.156.331-1.784.328-1.781-1.242-2.694A21.113,21.113,0,0,1,18.8,52.816a2.064,2.064,0,0,0-1.1-.922A7.254,7.254,0,0,1,12.6,44.85c-.013-6.106-.027-12.213,0-18.319A16.105,16.105,0,0,1,28.33,10.8c6.18-.032,12.361-.071,18.54.01a15.594,15.594,0,0,1,13.813,7.971A1.8,1.8,0,0,0,62.524,19.8c1.9-.063,3.8-.02,5.814-.02,0-2.978-.015-5.852.007-8.725a20.672,20.672,0,0,1,.173-3.8A8.825,8.825,0,0,1,77.381.006q14.214-.015,28.428,0a8.908,8.908,0,0,1,9.065,7.036,1.759,1.759,0,0,0,.209.377V28.547A10.95,10.95,0,0,1,111.772,34c-.241.2-.278.739-.279,1.121q-.02,21.378-.008,42.756a2.758,2.758,0,0,0,.077,1c1.156,2.863,2.343,5.714,3.52,8.569Zm-7.259-12.135V35.961c-4.3,0-8.532-.021-12.762.021a5.644,5.644,0,0,0-2.145.459c-4.827,2.107-9.629,4.27-14.445,6.4-1.785.79-2.943.023-2.95-1.931-.006-1.682,0-3.364,0-5.04-.155-.064-.251-.112-.352-.143-4.474-1.393-6.837-4.585-6.84-9.238,0-1,0-2,0-3.059H62.67c.091,1.1.249,2.136.253,3.176q.036,9.157.01,18.315a7.258,7.258,0,0,1-4.948,6.92,2.592,2.592,0,0,0-1.323,1.143,20.326,20.326,0,0,1-8.616,9.036,2.03,2.03,0,0,0-1.188,2.689c1.232.2,2.494.345,3.723.625A29.383,29.383,0,0,1,67.635,76.59a1.746,1.746,0,0,0,1.584.755q13.425-.03,26.85-.014h11.754m-28.7-38.813c.475-.192.815-.317,1.145-.464,3.859-1.712,7.7-3.456,11.583-5.119a6.978,6.978,0,0,1,2.581-.538c3.781-.057,7.563-.018,11.346-.028a5.439,5.439,0,0,0,5.7-5.622q.03-8.764,0-17.527A5.419,5.419,0,0,0,105.894,3.6q-14.21-.032-28.421,0a5.385,5.385,0,0,0-5.538,5.549q-.045,8.82,0,17.64a5.422,5.422,0,0,0,5.18,5.574c1.495.138,2,.7,2.012,2.237.007,1.259,0,2.519,0,3.918m-19.853-.783c0-4.031.289-7.98-.065-11.87A12.226,12.226,0,0,0,47.2,14.439q-9.425-.256-18.862,0A12.087,12.087,0,0,0,16.426,25.31c-.405,4.04-.156,8.146-.195,12.222,0,.06.079.121.125.187H17.9c.425-1.271.821-1.6,1.793-1.769a31.045,31.045,0,0,0,5.027-1.044c5.2-1.86,10.346-3.86,15.5-5.839,1.819-.7,2.938.011,2.948,1.965,0,.96,0,1.92,0,3.033,1.23-.323,2.318-.569,3.38-.9a32.3,32.3,0,0,0,8.025-3.93,2.41,2.41,0,0,1,2.035-.156c.479.24.766,1.1.9,1.732a11.1,11.1,0,0,1,.035,2.239v4.682ZM14.424,84.547v19.674H28.551c.511-3.694,1-7.28,1.5-10.865.709-5.069,1.486-10.13,2.083-15.213a4.109,4.109,0,0,0-.837-2.865c-1.716-1.971-3.7-3.7-5.516-5.593a1.3,1.3,0,0,0-1.659-.387c-2.133.973-4.454,1.684-6.352,3C7.207,79.629,3.48,90.248,3.624,102.623a1.527,1.527,0,0,0,1.439,1.616c1.886.1,3.781.029,5.793.029V84.547Zm50.288,19.759c.5,0,.826,0,1.157,0,1.423,0,2.848.031,4.27-.025a1.728,1.728,0,0,0,1.777-1.907c.2-8.068-1.589-15.6-6.218-22.312A26.659,26.659,0,0,0,51.468,69.3a1.48,1.48,0,0,0-1.757.418c-1.534,1.641-3.093,3.271-4.768,4.764a4.8,4.8,0,0,0-1.5,4.736c.983,6.62,1.916,13.248,2.849,19.875.242,1.722.417,3.454.619,5.154H61.178V84.581h3.535ZM28.279,37.746a3.541,3.541,0,0,1,3.413,1.87,5.2,5.2,0,0,1,.44,4.331,3.67,3.67,0,0,1-3.374,2.813A3.64,3.64,0,0,1,25.425,43.9a5.356,5.356,0,0,1,1.72-5.809l-5.458,1.37c-.437,1.587-.842,1.89-2.532,1.892-.961,0-1.922,0-2.945,0,0,1.4-.082,2.669.02,3.926a3.329,3.329,0,0,0,2.993,3.164,2.86,2.86,0,0,1,2.64,2.129A17.189,17.189,0,0,0,40.75,60.859,16.884,16.884,0,0,0,53.776,50.324a2.424,2.424,0,0,1,2.251-1.817,3.422,3.422,0,0,0,3.265-3.16c.123-1.287.024-2.595.024-3.991-1.127,0-2.167,0-3.207,0-1.558-.005-2.162-.614-2.162-2.174,0-1.7,0-3.407,0-5.121a1.316,1.316,0,0,0-.323.038c-.266.137-.525.286-.788.428a26.458,26.458,0,0,1-10.993,3.212c-1.612.1-2.271-.564-2.283-2.156,0-.689,0-1.378,0-2.175L28.279,37.746m7.457,41.43L32.2,104.223H43.345L39.8,79.176ZM32.481,64.1a1.232,1.232,0,0,0,.767,1.768c1.331.578,2.593,1.316,3.918,1.91a1.657,1.657,0,0,0,1.212,0c1.292-.577,2.521-1.3,3.818-1.861.878-.382,1.216-.886.843-1.82a21.6,21.6,0,0,1-10.558.007m2.647,10.033c-.01,1.145.537,1.522,1.6,1.421.885-.084,1.791.042,2.672-.062a1.288,1.288,0,0,0,.835-.745,1.069,1.069,0,0,0-.312-.947c-2.038-1.595-2.05-1.581-4.207-.106-.212.145-.412.306-.591.44m-1.04-3.8-4.2-2.052-.285.379c.643.555,1.314,1.081,1.924,1.67,1.135,1.094,1.121,1.109,2.562,0m11.779-1.67-.261-.363L41.524,70.3c.951,1.1,1.661,1.072,2.455.067a14.763,14.763,0,0,1,1.889-1.715" transform="translate(0 0)" fill="#12263f"/>
          <path id="Trazado_599377" data-name="Trazado 599377" d="M268.643,157.965H256.889q-13.425,0-26.85.014a1.745,1.745,0,0,1-1.584-.754A29.384,29.384,0,0,0,211.4,145.969c-1.23-.281-2.491-.422-3.723-.625a2.03,2.03,0,0,1,1.187-2.689,20.327,20.327,0,0,0,8.616-9.036,2.593,2.593,0,0,1,1.323-1.143,7.259,7.259,0,0,0,4.948-6.92q.015-9.157-.01-18.315c0-1.04-.162-2.08-.253-3.176h5.658c0,1.056,0,2.057,0,3.059,0,4.654,2.366,7.845,6.84,9.238.1.032.2.08.352.143,0,1.677,0,3.359,0,5.041.007,1.954,1.165,2.722,2.95,1.931,4.816-2.131,9.618-4.295,14.445-6.4a5.644,5.644,0,0,1,2.145-.458c4.23-.042,8.461-.021,12.762-.021Zm-23.3-17.983c0-3.036.01-5.913,0-8.791a1.745,1.745,0,0,0-2-1.982,14.357,14.357,0,0,0-2.77.339,12.7,12.7,0,0,0-7.287,4.865,3.7,3.7,0,0,0-3.71-1.652c-2.165.1-4.339.021-6.51.018h-1.035v3.6h1.163c2.1,0,4.191-.01,6.286,0a1.974,1.974,0,0,1,1.886,2.356,22.5,22.5,0,0,0-.126,5.546c.943,6.117,7,10.566,13.423,10.065a12.712,12.712,0,0,0,11.47-12.057c.026-1.7-.555-2.3-2.25-2.308-2.8,0-5.6,0-8.532,0m10.55-14.124a12.4,12.4,0,0,0-6.879-2.057,1.682,1.682,0,0,0-1.857,1.679q-.05,5.506,0,11.012a1.565,1.565,0,0,0,1.633,1.66c3.67.048,7.34.043,11.01.018a1.626,1.626,0,0,0,1.7-1.714,10.278,10.278,0,0,0-.391-3.093c-.62-1.773-1.465-3.466-2.282-5.344a12.824,12.824,0,0,0,1.052-1.426,1.889,1.889,0,0,1,2.021-1.025c1.031.085,2.075.019,3.136.019V122c-1.718,0-3.369-.1-5,.046a3.457,3.457,0,0,0-1.959.989,26.73,26.73,0,0,0-2.184,2.825" transform="translate(-160.82 -80.634)" fill="#e8e8e8"/>
          <path id="Trazado_599378" data-name="Trazado 599378" d="M326.616,50.849c0-1.4.006-2.658,0-3.918-.009-1.539-.518-2.1-2.012-2.237a5.422,5.422,0,0,1-5.18-5.574q-.04-8.82,0-17.64a5.384,5.384,0,0,1,5.539-5.548q14.21-.039,28.421,0a5.419,5.419,0,0,1,5.588,5.621q.038,8.763,0,17.527a5.439,5.439,0,0,1-5.7,5.622c-3.782.01-7.564-.029-11.346.028a6.973,6.973,0,0,0-2.581.538c-3.88,1.663-7.725,3.407-11.583,5.119-.33.147-.67.272-1.145.464m-3.541-26.006h32.213V21.374H323.074Zm-.008,7.195h32.217V28.57H323.066Zm.005,7.195h32.217V35.763H323.072Z" transform="translate(-247.488 -12.33)" fill="#fff"/>
          <path id="Trazado_599379" data-name="Trazado 599379" d="M114.994,86.994h-1.733V82.312a11.09,11.09,0,0,0-.035-2.239c-.133-.635-.42-1.492-.9-1.732a2.41,2.41,0,0,0-2.035.156,32.285,32.285,0,0,1-8.025,3.93c-1.063.327-2.151.573-3.381.9,0-1.113,0-2.073,0-3.033-.01-1.955-1.129-2.664-2.948-1.965-5.155,1.98-10.3,3.98-15.5,5.84a31.051,31.051,0,0,1-5.027,1.044c-.972.173-1.368.5-1.793,1.769H72.076c-.046-.066-.126-.127-.125-.187.038-4.076-.211-8.182.195-12.222A12.087,12.087,0,0,1,84.056,63.7q9.426-.247,18.862,0a12.226,12.226,0,0,1,12.011,11.426c.354,3.89.065,7.839.065,11.87" transform="translate(-55.72 -49.258)" fill="#727997"/>
          <path id="Trazado_599380" data-name="Trazado 599380" d="M26.884,322.515H23.316v19.721c-2.012,0-3.907.066-5.793-.029a1.528,1.528,0,0,1-1.439-1.616c-.145-12.374,3.582-22.993,14.15-30.324,1.9-1.317,4.219-2.027,6.352-3a1.3,1.3,0,0,1,1.659.387c1.813,1.89,3.8,3.622,5.516,5.593a4.108,4.108,0,0,1,.837,2.865c-.6,5.083-1.374,10.144-2.083,15.213-.5,3.585-.993,7.171-1.5,10.865H26.884Z" transform="translate(-12.46 -237.967)" fill="#1565c0"/>
          <path id="Trazado_599381" data-name="Trazado 599381" d="M213.908,342.375V322.65h-3.535V342.31H196.11c-.2-1.7-.377-3.431-.619-5.154-.933-6.628-1.866-13.255-2.849-19.875a4.8,4.8,0,0,1,1.5-4.736c1.675-1.493,3.234-3.123,4.768-4.764a1.48,1.48,0,0,1,1.757-.418,26.66,26.66,0,0,1,14.231,10.766c4.629,6.71,6.415,14.244,6.218,22.312a1.728,1.728,0,0,1-1.777,1.907c-1.421.057-2.846.021-4.27.025-.331,0-.662,0-1.157,0" transform="translate(-149.195 -238.068)" fill="#1565c0"/>
          <path id="Trazado_599382" data-name="Trazado 599382" d="M83.96,152.718l11.28-4.338c0,.8,0,1.486,0,2.175.012,1.591.671,2.259,2.283,2.156a26.456,26.456,0,0,0,10.993-3.212c.263-.142.522-.292.788-.428a1.318,1.318,0,0,1,.323-.038c0,1.715,0,3.418,0,5.121,0,1.56.6,2.169,2.162,2.174,1.04,0,2.08,0,3.207,0,0,1.4.1,2.7-.024,3.991a3.422,3.422,0,0,1-3.265,3.16,2.424,2.424,0,0,0-2.251,1.817,16.884,16.884,0,0,1-13.026,10.535,17.189,17.189,0,0,1-18.886-10.284,2.86,2.86,0,0,0-2.64-2.129,3.329,3.329,0,0,1-2.993-3.164c-.1-1.257-.02-2.529-.02-3.926,1.022,0,1.984,0,2.945,0,1.69,0,2.094-.305,2.532-1.892l5.458-1.37a5.356,5.356,0,0,0-1.72,5.809,3.4,3.4,0,0,0,6.707.045,5.194,5.194,0,0,0-.439-4.331,3.541,3.541,0,0,0-3.413-1.87m22.333,4.441a15.449,15.449,0,0,0-1.344-3.092,3.04,3.04,0,0,0-5.053-.032,5.3,5.3,0,0,0,.11,6.52,3.055,3.055,0,0,0,4.713.169,6.263,6.263,0,0,0,1.574-3.565m-18.218,9.957a4.935,4.935,0,0,0,2.525,4.65,5.287,5.287,0,0,0,5.923-.148,4.878,4.878,0,0,0,2.3-4.465H95.387c-.05.061-.118.109-.137.171a1.867,1.867,0,0,1-1.708,1.54,1.82,1.82,0,0,1-1.847-1.352.746.746,0,0,0-.548-.379c-1-.038-2-.018-3.074-.018" transform="translate(-55.681 -114.972)" fill="#f3f9ff"/>
          <path id="Trazado_599383" data-name="Trazado 599383" d="M146.542,351.662H150.6l3.549,25.047H143c1.182-8.364,2.358-16.685,3.54-25.047" transform="translate(-110.805 -272.485)" fill="#1565c0"/>
          <path id="Trazado_599384" data-name="Trazado 599384" d="M143.863,284.658a21.6,21.6,0,0,0,10.558-.007c.373.934.035,1.438-.843,1.82-1.3.564-2.526,1.284-3.818,1.861a1.657,1.657,0,0,1-1.212,0c-1.325-.594-2.587-1.332-3.918-1.91a1.232,1.232,0,0,1-.767-1.768" transform="translate(-111.382 -220.562)" fill="#dee4f0"/>
          <path id="Trazado_599385" data-name="Trazado 599385" d="M156.021,323.949c.179-.133.379-.295.591-.44,2.157-1.476,2.169-1.489,4.207.105a1.069,1.069,0,0,1,.312.947,1.287,1.287,0,0,1-.835.745c-.881.1-1.787-.022-2.672.062-1.066.1-1.614-.275-1.6-1.421" transform="translate(-120.892 -249.82)" fill="#1565c0"/>
          <path id="Trazado_599386" data-name="Trazado 599386" d="M135.964,305.281c-1.442,1.106-1.427,1.091-2.562,0-.611-.589-1.281-1.115-1.924-1.67l.285-.379,4.2,2.052" transform="translate(-101.875 -234.957)" fill="#fff"/>
          <path id="Trazado_599387" data-name="Trazado 599387" d="M188.772,303.677a14.77,14.77,0,0,0-1.889,1.715c-.794,1-1.5,1.029-2.455-.067l4.082-2.011.261.363" transform="translate(-142.905 -235.023)" fill="#fff"/>
          <path id="Trazado_599388" data-name="Trazado 599388" d="M295.146,226.514c2.932,0,5.732,0,8.532,0,1.7,0,2.276.6,2.25,2.308a12.712,12.712,0,0,1-11.469,12.057c-6.423.5-12.48-3.947-13.423-10.065a22.491,22.491,0,0,1,.126-5.546,1.974,1.974,0,0,0-1.886-2.356c-2.1-.014-4.191,0-6.286,0h-1.162v-3.6h1.035c2.17,0,4.344.087,6.51-.017a3.7,3.7,0,0,1,3.71,1.652,12.7,12.7,0,0,1,7.287-4.865,14.353,14.353,0,0,1,2.77-.339,1.745,1.745,0,0,1,2,1.982c.014,2.877,0,5.755,0,8.791M284.4,227.751a8.983,8.983,0,0,0,8.5,9.533c4.3.273,8.747-3.215,9.083-7.182q-4.045,0-8.078,0c-1.8,0-2.354-.551-2.356-2.32,0-2.72,0-5.441,0-8.249a9.084,9.084,0,0,0-5.911,4.178l2.072,1.405c-1.35.963-1.866,2.337-3.305,2.636" transform="translate(-210.624 -167.166)" fill="#12263f"/>
          <path id="Trazado_599389" data-name="Trazado 599389" d="M392.106,187.471a26.742,26.742,0,0,1,2.184-2.825,3.454,3.454,0,0,1,1.959-.989c1.63-.142,3.281-.046,5-.046V187.2c-1.061,0-2.1.066-3.136-.019a1.889,1.889,0,0,0-2.021,1.025,12.821,12.821,0,0,1-1.052,1.426c.817,1.878,1.662,3.572,2.282,5.344a10.289,10.289,0,0,1,.391,3.093,1.626,1.626,0,0,1-1.7,1.714c-3.67.026-7.341.031-11.01-.017a1.565,1.565,0,0,1-1.633-1.66q-.056-5.506,0-11.012a1.682,1.682,0,0,1,1.857-1.679,12.405,12.405,0,0,1,6.879,2.056m.624,5.579c-.916.634-2.171-.006-3.522-1.64l.721-1.119-2.92-1.135v6.975h7.012l-1.292-3.081" transform="translate(-297.034 -142.247)" fill="#12263f"/>
          <rect id="Rectángulo_296232" data-name="Rectángulo 296232" width="32.213" height="3.468" transform="translate(75.586 9.044)" fill="#12263f"/>
          <rect id="Rectángulo_296233" data-name="Rectángulo 296233" width="32.217" height="3.467" transform="translate(75.578 16.24)" fill="#12263f"/>
          <rect id="Rectángulo_296234" data-name="Rectángulo 296234" width="32.217" height="3.469" transform="translate(75.584 23.433)" fill="#12263f"/>
          <path id="Trazado_599390" data-name="Trazado 599390" d="M199.109,172.036a6.263,6.263,0,0,1-1.574,3.565,3.055,3.055,0,0,1-4.713-.169,5.3,5.3,0,0,1-.11-6.52,3.041,3.041,0,0,1,5.053.032,15.449,15.449,0,0,1,1.344,3.092" transform="translate(-148.497 -129.849)" fill="#12263f"/>
          <path id="Trazado_599391" data-name="Trazado 599391" d="M143.876,231.578c1.071,0,2.074-.02,3.074.018a.746.746,0,0,1,.548.379,1.82,1.82,0,0,0,1.847,1.352,1.867,1.867,0,0,0,1.708-1.54c.019-.062.086-.11.137-.171h3.433a4.878,4.878,0,0,1-2.3,4.465,5.287,5.287,0,0,1-5.923.148,4.935,4.935,0,0,1-2.525-4.65" transform="translate(-111.481 -179.434)" fill="#12263f"/>
          <path id="Trazado_599392" data-name="Trazado 599392" d="M327.634,240.8c1.44-.3,1.956-1.672,3.305-2.636l-2.072-1.405a9.084,9.084,0,0,1,5.911-4.178c0,2.808,0,5.528,0,8.249,0,1.769.561,2.318,2.356,2.32q4.036,0,8.078,0c-.335,3.967-4.783,7.455-9.083,7.182a8.983,8.983,0,0,1-8.5-9.533" transform="translate(-253.855 -180.219)" fill="#fb8c00"/>
          <path id="Trazado_599393" data-name="Trazado 599393" d="M405.344,212.244l1.292,3.081h-7.012V208.35l2.92,1.135-.721,1.119c1.35,1.633,2.606,2.273,3.522,1.64" transform="translate(-309.649 -161.44)" fill="#26aab7"/>
        </g>
      </g>
    </g>
  </g>
</svg>
