<svg xmlns="http://www.w3.org/2000/svg" width="35.404" height="70.643" viewBox="0 0 35.404 70.643">
  <g id="Grupo_879730" data-name="Grupo 879730" transform="translate(0 0)">
    <g id="Grupo_152551" data-name="Grupo 152551" transform="translate(0 113.847) rotate(-90)">
      <rect id="Rectángulo_45220" data-name="Rectángulo 45220" width="47.221" height="24.483" transform="translate(113.847 24.483) rotate(180)" fill="#e8e8e8"/>
      <g id="Grupo_152556" data-name="Grupo 152556" transform="translate(-1 13.562)">
        <rect id="Rectángulo_45221" data-name="Rectángulo 45221" width="4.16" height="4.16" transform="translate(88.408 17.682)" fill="#1565c0"/>
        <rect id="Rectángulo_45222" data-name="Rectángulo 45222" width="4.16" height="4.16" transform="translate(79.568 17.682)" fill="#1565c0"/>
        <rect id="Rectángulo_45223" data-name="Rectángulo 45223" width="4.16" height="4.16" transform="translate(70.727 17.682)" fill="#1565c0"/>
        <rect id="Rectángulo_45224" data-name="Rectángulo 45224" width="4.16" height="4.16" transform="translate(61.886 17.682)" fill="#1565c0"/>
        <rect id="Rectángulo_45225" data-name="Rectángulo 45225" width="4.16" height="4.16" transform="translate(53.045 17.682)" fill="#1565c0"/>
        <rect id="Rectángulo_45226" data-name="Rectángulo 45226" width="4.16" height="4.16" transform="translate(44.204 17.682)" fill="#1565c0"/>
        <rect id="Rectángulo_45232" data-name="Rectángulo 45232" width="4.16" height="4.16" transform="translate(88.408 8.841)" fill="#1565c0"/>
        <rect id="Rectángulo_45233" data-name="Rectángulo 45233" width="4.16" height="4.16" transform="translate(79.568 8.841)" fill="#1565c0"/>
        <rect id="Rectángulo_45234" data-name="Rectángulo 45234" width="4.16" height="4.16" transform="translate(70.727 8.841)" fill="#1565c0"/>
        <rect id="Rectángulo_45235" data-name="Rectángulo 45235" width="4.16" height="4.16" transform="translate(61.886 8.841)" fill="#1565c0"/>
        <rect id="Rectángulo_45236" data-name="Rectángulo 45236" width="4.16" height="4.16" transform="translate(53.045 8.841)" fill="#1565c0"/>
        <rect id="Rectángulo_45237" data-name="Rectángulo 45237" width="4.16" height="4.16" transform="translate(44.204 8.841)" fill="#1565c0"/>
        <rect id="Rectángulo_45243" data-name="Rectángulo 45243" width="4.16" height="4.16" transform="translate(88.408)" fill="#1565c0"/>
        <rect id="Rectángulo_45244" data-name="Rectángulo 45244" width="4.16" height="4.16" transform="translate(79.568)" fill="#1565c0"/>
        <rect id="Rectángulo_45245" data-name="Rectángulo 45245" width="4.16" height="4.16" transform="translate(70.727)" fill="#1565c0"/>
        <rect id="Rectángulo_45246" data-name="Rectángulo 45246" width="4.16" height="4.16" transform="translate(61.886)" fill="#1565c0"/>
        <rect id="Rectángulo_45247" data-name="Rectángulo 45247" width="4.16" height="4.16" transform="translate(53.045)" fill="#1565c0"/>
        <rect id="Rectángulo_45248" data-name="Rectángulo 45248" width="4.16" height="4.16" transform="translate(44.204)" fill="#1565c0"/>
      </g>
    </g>
  </g>
</svg>
