<svg xmlns="http://www.w3.org/2000/svg" width="87.139" height="116" viewBox="0 0 87.139 116">
  <g id="observacion-3" transform="translate(-13.684)">
    <path id="Trazado_143745" data-name="Trazado 143745" d="M36.645,97.1v13.159H76.758V97.08l13.5-13.5-9.4-9.4H24.473l3.39,16.161" transform="translate(0.588 4.046)" fill="#26aab7"/>
    <path id="Trazado_143746" data-name="Trazado 143746" d="M76.715,79.825,66.033,91.072,56.1,81.021,46.169,91.072,35.487,79.825" transform="translate(1.189 4.354)" fill="#fb0"/>
    <path id="Trazado_143747" data-name="Trazado 143747" d="M91.516,58.414h.048a7.47,7.47,0,0,0,0-14.94c-.054,0-.107,0-.161,0H23.013c-.054,0-.107,0-.161,0a7.47,7.47,0,0,0,0,14.94H22.9" transform="translate(0.093 2.371)" fill="#f1b986"/>
    <path id="Trazado_143748" data-name="Trazado 143748" d="M89.413,25.062a336.948,336.948,0,0,0-65.18,0,231.065,231.065,0,0,0-1.49,40.526A19.119,19.119,0,0,0,40.952,83.713q15.871.749,31.742,0A19.119,19.119,0,0,0,90.9,65.588,231.02,231.02,0,0,0,89.413,25.062Z" transform="translate(0.478 1.281)" fill="#f1d0a5"/>
    <path id="Trazado_143750" data-name="Trazado 143750" d="M91.408,45.761c-15.311,0-38.831-9.914-48.913-14.51-3.042-1.388-4.862-2.29-4.862-2.29s-5.84,14.923-14.616,16.8c-.054,0-.106,0-.16,0a7.42,7.42,0,0,0-4.278,1.347c-2.9-20.855-6.147-34.4,1.171-38.467s12.329.948,12.329.948a79.708,79.708,0,0,1,17.43-6.223C61.516.571,77.447-.062,89.662,10.534c12.823,11.125,9.36,25.85,1.747,35.226Z" transform="translate(0.088 0.088)" fill="#091946"/>
    <path id="Trazado_143752" data-name="Trazado 143752" d="M39.96,95.969a22.574,22.574,0,0,1-6.647,4.5,6.875,6.875,0,0,1-3.75.476c-12.885-1.808-11.3-22.375-11.3-34.356a15.737,15.737,0,0,1,2.05-7.841c3.562-6.317,10.519-9.02,10.519-9.02l-.7,21.24s-2.454,12.812.952,16.217Z" transform="translate(0.246 2.712)" fill="#26aab7"/>
    <path id="Trazado_143754" data-name="Trazado 143754" d="M30.828,49.726l-.7,21.24L18.259,66.587C18.259,54.608,30.828,49.726,30.828,49.726Z" transform="translate(0.25 2.712)" fill="#f1d0a5"/>
    <path id="Trazado_143755" data-name="Trazado 143755" d="M71.255,95.97s5.877,5.877,10.4,4.973c12.884-1.808,11.3-22.377,11.3-34.356S80.382,49.725,80.382,49.725l.7,21.241s2.455,12.81-.951,16.216" transform="translate(3.14 2.712)" fill="#26aab7"/>
    <path id="Trazado_143756" data-name="Trazado 143756" d="M79.91,49.726l.7,21.24L92.48,66.587c0-11.978-12.57-16.861-12.57-16.861Z" transform="translate(3.612 2.712)" fill="#f1d0a5"/>
    <path id="Trazado_143757" data-name="Trazado 143757" d="M45.749,53.23h19.6V62.7h-19.6Z" transform="translate(1.749 2.903)" fill="#1565c0"/>
    <path id="Trazado_143758" data-name="Trazado 143758" d="M26.781,63.324c0-14.479,10.411-21.479,15.767-21.479a9.7,9.7,0,0,1,9.7,9.7v11.78" transform="translate(0.714 2.282)" fill="#1565c0"/>
    <circle id="Elipse_4269" data-name="Elipse 4269" cx="12.733" cy="12.733" r="12.733" transform="translate(27.495 52.874)" fill="#fb8c00"/>
    <circle id="Elipse_4270" data-name="Elipse 4270" cx="6.869" cy="6.869" r="6.869" transform="translate(33.358 58.737)" fill="#b1e4f9"/>
    <path id="Trazado_143759" data-name="Trazado 143759" d="M84.625,63.324c0-14.479-10.411-21.479-15.767-21.479a9.7,9.7,0,0,0-9.7,9.7v11.78" transform="translate(2.48 2.282)" fill="#1565c0"/>
    <circle id="Elipse_4271" data-name="Elipse 4271" cx="12.733" cy="12.733" r="12.733" transform="translate(61.64 52.874)" fill="#fb8c00"/>
    <circle id="Elipse_4272" data-name="Elipse 4272" cx="6.869" cy="6.869" r="6.869" transform="translate(67.504 58.737)" fill="#b1e4f9"/>
    <path id="Trazado_143760" data-name="Trazado 143760" d="M39.3,71.225a8.569,8.569,0,1,0-8.569-8.569A8.578,8.578,0,0,0,39.3,71.225Zm0-13.739a5.17,5.17,0,1,1-5.17,5.17A5.176,5.176,0,0,1,39.3,57.487Z" transform="translate(0.93 2.95)"/>
    <path id="Trazado_143761" data-name="Trazado 143761" d="M71.677,54.088a8.569,8.569,0,1,0,8.568,8.569,8.578,8.578,0,0,0-8.568-8.569Zm0,13.739a5.17,5.17,0,1,1,5.17-5.17A5.176,5.176,0,0,1,71.677,67.827Z" transform="translate(2.696 2.95)"/>
    <path id="Trazado_143762" data-name="Trazado 143762" d="M100.823,53.316a9.183,9.183,0,0,0-6.288-8.7A29.882,29.882,0,0,0,99.984,28.95c.256-7.43-2.9-14.212-9.123-19.611A37.861,37.861,0,0,0,71.524.565a56.909,56.909,0,0,0-19.318.6,83.252,83.252,0,0,0-19.817,6.5,11.987,11.987,0,0,0-3.091-1.6A12.344,12.344,0,0,0,19.013,7.24a8.913,8.913,0,0,0-3.089,2.829,1.7,1.7,0,0,0,2.815,1.9,5.475,5.475,0,0,1,1.924-1.762c6.051-3.364,10.139.507,10.3.665a1.7,1.7,0,0,0,2,.3A79.4,79.4,0,0,1,52.926,4.486,53.441,53.441,0,0,1,71.048,3.93a34.507,34.507,0,0,1,17.586,7.976c11.925,10.345,8.645,23.662,2.045,32.233-19.41-.446-51.873-16.448-52.2-16.612a1.7,1.7,0,0,0-2.338.9c-1.518,3.88-6.831,14.194-13.223,15.718a9.12,9.12,0,0,0-2.9.48c-.285-1.989-.568-3.9-.845-5.772-1.335-9.008-2.389-16.123-2.018-21.23a1.7,1.7,0,0,0-3.39-.247c-.4,5.48.68,12.759,2.046,21.974.339,2.288.688,4.646,1.037,7.12a9.165,9.165,0,0,0,1.81,14.95A17.473,17.473,0,0,0,16.809,69.3c0,1.12-.014,2.313-.029,3.575-.07,6.03-.158,13.535,1.28,19.708,1.775,7.621,5.633,11.91,11.466,12.749a6.7,6.7,0,0,0,1.263.117,10.878,10.878,0,0,0,4.745-1.284V114.3a1.7,1.7,0,0,0,1.7,1.7H77.347a1.7,1.7,0,0,0,1.7-1.7V104.148a10.674,10.674,0,0,0,4.754,1.3,6.757,6.757,0,0,0,1.275-.118,12.77,12.77,0,0,0,2.487-.612,1.7,1.7,0,1,0-1.151-3.2,9.389,9.389,0,0,1-1.858.451c-.032,0-.064.01-.1.016-2.95.59-7.5-3.15-8.862-4.508a1.7,1.7,0,0,0-2.4,2.4,26.414,26.414,0,0,0,2.455,2.1V112.6H58.989V89.512l7.024,7.108a1.7,1.7,0,0,0,1.209.505h.017a1.7,1.7,0,0,0,1.215-.529L78.862,85.639a20.916,20.916,0,0,0,4.5-2.119c-.123,3.565-.906,4.786-1.293,5.174a1.7,1.7,0,1,0,2.4,2.4c1.792-1.792,2.527-5.283,2.248-10.675-.116-2.252-.388-4.325-.589-5.636l8.279-3.054c0,.387.009.779.013,1.181.1,8.185.226,19.395-3.736,25.2a1.7,1.7,0,1,0,2.806,1.917c4.567-6.686,4.434-18.034,4.328-27.152-.014-1.262-.029-2.455-.029-3.574a17.472,17.472,0,0,0-1.851-7.874,9.161,9.161,0,0,0,4.882-8.109ZM41.51,83.3a17.507,17.507,0,0,1-10.158-3.865c.063-.812.143-1.584.227-2.279a14.421,14.421,0,0,0,22.977-9.846h5.489a14.421,14.421,0,0,0,22.978,9.846c.084.694.164,1.467.227,2.279A17.506,17.506,0,0,1,73.091,83.3c-10.478.5-21.1.5-31.581,0Zm11.743,3.746-5.871,5.941-5.974-6.29Q47.308,86.972,53.253,87.043ZM25.827,57.73c.469-.41.94-.783,1.4-1.123a27.757,27.757,0,0,0-1.431,9,14.368,14.368,0,0,0,.852,4.884l-6.391-2.357A15.152,15.152,0,0,1,25.827,57.73Zm37.513-1.6V53.826a8.008,8.008,0,0,1,8-8c2.123,0,5.618,1.472,8.641,4.76a19.4,19.4,0,0,1,2.184,2.88,14.4,14.4,0,0,0-18.824,2.85v-.184Zm26.511-8.621c.075,2.258.118,4.531.126,6.8a26.5,26.5,0,0,0-5.314-3.238A22.161,22.161,0,0,0,80.385,46.3,62.429,62.429,0,0,0,89.851,47.513ZM74.373,76.64A11.033,11.033,0,1,1,85.406,65.607,11.046,11.046,0,0,1,74.373,76.64ZM59.941,63.908H54.659V57.833h5.282Zm-30.747,1.7A11.033,11.033,0,1,1,40.228,76.64,11.046,11.046,0,0,1,29.194,65.607Zm22.067-9.473v.184a14.4,14.4,0,0,0-18.824-2.85,19.4,19.4,0,0,1,2.184-2.88c3.023-3.288,6.518-4.76,8.641-4.76a8.008,8.008,0,0,1,8,8ZM88.8,65.607a27.753,27.753,0,0,0-1.432-9c.434.321.878.672,1.322,1.057a15.178,15.178,0,0,1,5.647,10.471l-6.39,2.357A14.357,14.357,0,0,0,88.8,65.607ZM35.132,37.666a51.457,51.457,0,0,0,3.444-6.313A239.639,239.639,0,0,0,67.777,43a11.415,11.415,0,0,0-7.836,10.824v.608H54.659v-.608a11.41,11.41,0,0,0-11.4-11.4c-3.827,0-9.492,2.888-13.324,8.649a26.5,26.5,0,0,0-5.318,3.24c.008-2.387.055-4.783.138-7.171,3.63-1.245,7.113-4.426,10.373-9.481ZM17.176,53.316a5.78,5.78,0,0,1,4.162-5.541c-.1,3.264-.139,6.54-.1,9.778q-.405.477-.775.969a5.762,5.762,0,0,1-3.283-5.206ZM38.933,112.6V102.017a25.576,25.576,0,0,0,2.475-2.134,1.7,1.7,0,0,0-2.4-2.4c-1.358,1.358-5.9,5.1-8.862,4.508-.032-.006-.065-.012-.1-.017-10.189-1.43-10-17.4-9.867-29.059,0-.4.009-.794.013-1.182l8.28,3.054c-.2,1.311-.473,3.384-.589,5.636C27.6,85.813,28.338,89.3,30.13,91.1a1.7,1.7,0,0,0,2.4-2.4c-.388-.388-1.171-1.607-1.294-5.174a20.923,20.923,0,0,0,4.47,2.109L46.126,96.6a1.7,1.7,0,0,0,2.441.024l7.024-7.108V112.6ZM67.2,92.984l-5.87-5.941q5.937-.07,11.843-.348ZM94.142,58.522q-.37-.493-.777-.972c.034-3.254,0-6.53-.1-9.776a5.769,5.769,0,0,1,.882,10.748Z" transform="translate(0 0)"/>
  </g>
</svg>
