<svg xmlns="http://www.w3.org/2000/svg" width="90.07" height="90.07" viewBox="0 0 90.07 90.07"><g transform="translate(-214 -949.836)"><g transform="translate(214 949.836)"><path d="M0,0H12.937V21.286H0Z" transform="translate(17.485 67.025)" fill="#7ae582"/><path d="M45.773,77.223l-8.619,5.864v17.029h0a10.46,10.46,0,0,0,6.4,2.187H56.18a3.828,3.828,0,0,0,3.828-3.828V86.7a3.828,3.828,0,0,0-3.828-3.828H45.773V77.223Z" transform="translate(-6.732 -13.992)" fill="#fccd9d"/><g transform="translate(18.511 1.759)"><rect width="11.947" height="14.061" transform="translate(20.53 53.062)" fill="#3ca8f4"/><path d="M26.524,0A26.524,26.524,0,1,1,0,26.524,26.524,26.524,0,0,1,26.524,0Z" fill="#fb0"/><g transform="translate(8.048 8.048)"><circle cx="18.476" cy="18.476" r="18.476" fill="#fff"/><path d="M65.246,47.441a5.746,5.746,0,0,0-4.692-5.648l-3.347-.624-10.251,0-3.334.622a5.746,5.746,0,0,0-4.692,5.648v1.267a18.467,18.467,0,0,0,26.316,0V47.441Z" transform="translate(-33.612 -17.266)" fill="#29b39d"/><path d="M53.613,26.455h0a6.266,6.266,0,0,0-6.266,6.266v1.96a6.266,6.266,0,0,0,6.266,6.266h0a6.266,6.266,0,0,0,6.266-6.266V32.72A6.266,6.266,0,0,0,53.613,26.455Z" transform="translate(-35.137 -14.6)" fill="#fccd9d"/></g></g><path d="M74.558,33.626A1.76,1.76,0,0,0,72.4,34.858a24.748,24.748,0,1,1-.126-13.588,1.759,1.759,0,1,0,3.375-.993,28.29,28.29,0,1,0-34.883,35.2V62.3L35.328,66a1.755,1.755,0,0,0-1.426-.732H20.964a1.759,1.759,0,0,0-1.759,1.759V88.314a1.759,1.759,0,0,0,1.759,1.759H33.9a1.758,1.758,0,0,0,1.583-.995,12.26,12.26,0,0,0,4.818.995H52.928a5.594,5.594,0,0,0,5.587-5.587V72.714a5.582,5.582,0,0,0-2.289-4.506V55.49a28.273,28.273,0,0,0,19.563-19.7A1.759,1.759,0,0,0,74.558,33.626ZM32.142,86.554H22.724V68.787h9.419V86.554ZM55,84.486a2.071,2.071,0,0,1-2.069,2.069H40.3a8.753,8.753,0,0,1-4.641-1.342V70.029l5.1-3.47v2.327a1.759,1.759,0,0,0,1.759,1.759H52.928A2.071,2.071,0,0,1,55,72.714ZM52.708,67.127H44.28V56.238a28.4,28.4,0,0,0,8.428.007Z" transform="translate(-3.48 -0.003)"/><path d="M50.522,9.828A20.235,20.235,0,1,0,70.758,30.064,20.258,20.258,0,0,0,50.522,9.828Zm-11.4,32.451v-.516a3.988,3.988,0,0,1,3.256-3.919l2.509-.468a8.008,8.008,0,0,0,11.269,0l2.509.468a3.988,3.988,0,0,1,3.256,3.919v.518a16.684,16.684,0,0,1-22.8,0ZM55.028,31.668a4.507,4.507,0,0,1-9.013,0v-1.96a4.507,4.507,0,0,1,9.013,0ZM64.8,38.745a7.506,7.506,0,0,0-5.494-4.36l-1.164-.217a7.99,7.99,0,0,0,.4-2.5v-1.96a8.025,8.025,0,0,0-16.05,0v1.96a7.989,7.989,0,0,0,.4,2.5l-1.164.217a7.506,7.506,0,0,0-5.493,4.359,16.717,16.717,0,1,1,28.564,0Z" transform="translate(-5.487 -1.781)"/><path d="M99.728,0a1.759,1.759,0,0,0-1.759,1.759V3.946a1.759,1.759,0,1,0,3.518,0V1.759A1.759,1.759,0,0,0,99.728,0Z" transform="translate(-17.75)"/><path d="M99.728,12.8a1.759,1.759,0,0,0-1.759,1.759v2.187a1.759,1.759,0,1,0,3.518,0V14.557A1.759,1.759,0,0,0,99.728,12.8Z" transform="translate(-17.75 -2.319)"/><path d="M106.978,7.734h-2.187a1.759,1.759,0,0,0,0,3.518h2.187a1.759,1.759,0,0,0,0-3.518Z" transform="translate(-18.668 -1.401)"/><path d="M94.18,7.734H91.994a1.759,1.759,0,0,0,0,3.518H94.18a1.759,1.759,0,0,0,0-3.518Z" transform="translate(-16.349 -1.401)"/><path d="M9.494,57.069a1.759,1.759,0,0,0-1.759,1.759v2.187a1.759,1.759,0,0,0,3.518,0V58.829A1.759,1.759,0,0,0,9.494,57.069Z" transform="translate(-1.401 -10.34)"/><path d="M9.494,69.868a1.759,1.759,0,0,0-1.759,1.759v2.187a1.759,1.759,0,0,0,3.518,0V71.627A1.759,1.759,0,0,0,9.494,69.868Z" transform="translate(-1.401 -12.659)"/><path d="M16.744,64.8H14.557a1.759,1.759,0,1,0,0,3.518h2.187a1.759,1.759,0,1,0,0-3.518Z" transform="translate(-2.319 -11.741)"/><path d="M3.946,64.8H1.759a1.759,1.759,0,0,0,0,3.518H3.946a1.759,1.759,0,0,0,0-3.518Z" transform="translate(0 -11.741)"/><path d="M87,32.394a1.754,1.754,0,1,0,1.244.514A1.771,1.771,0,0,0,87,32.394Z" transform="translate(-15.445 -5.869)"/></g></g></svg>