<svg xmlns="http://www.w3.org/2000/svg" xmlns:xlink="http://www.w3.org/1999/xlink" width="354.521" height="244.553" viewBox="0 0 354.521 244.553">
  <defs>
    <clipPath id="clip-path">
      <rect id="Rectángulo_57231" data-name="Rectángulo 57231" width="329.359" height="244.553" fill="none"/>
    </clipPath>
    <clipPath id="clip-path-6">
      <rect id="Rectángulo_57225" data-name="Rectángulo 57225" width="46.844" height="5.875" fill="none"/>
    </clipPath>
    <clipPath id="clip-path-7">
      <rect id="Rectángulo_57226" data-name="Rectángulo 57226" width="13.595" height="23.939" fill="none"/>
    </clipPath>
    <clipPath id="clip-path-8">
      <rect id="Rectángulo_57227" data-name="Rectángulo 57227" width="7.638" height="27.137" fill="none"/>
    </clipPath>
  </defs>
  <g id="Grupo_879750" data-name="Grupo 879750" transform="translate(6.026)">
    <g id="Grupo_177601" data-name="Grupo 177601" transform="translate(0.106)" clip-path="url(#clip-path)">
      <rect id="Rectángulo_57205" data-name="Rectángulo 57205" width="4.702" height="23.399" transform="translate(295.253 18.732) rotate(-0.31)" fill="#e0e0e0"/>
      <rect id="Rectángulo_57206" data-name="Rectángulo 57206" width="12.178" height="12.918" transform="translate(254.515 18.834) rotate(-0.307)" fill="#ebebeb"/>
      <rect id="Rectángulo_57207" data-name="Rectángulo 57207" width="12.178" height="12.918" transform="translate(266.635 18.769) rotate(-0.307)" fill="#f5f5f5"/>
      <g id="Grupo_177583" data-name="Grupo 177583">
        <g id="Grupo_177582" data-name="Grupo 177582" clip-path="url(#clip-path)">
          <path id="Trazado_226656" data-name="Trazado 226656" d="M460.467,40.218q12.139.1,24.3-.112a.129.129,0,0,0,0-.259c-8.093-.045-16.206,0-24.3.148a.111.111,0,0,0,0,.222" transform="translate(-205.932 -17.817)" fill="#e0e0e0"/>
          <rect id="Rectángulo_57208" data-name="Rectángulo 57208" width="22.125" height="10.527" transform="matrix(1, -0.005, 0.005, 1, 246.923, 31.589)" fill="#ebebeb"/>
          <rect id="Rectángulo_57209" data-name="Rectángulo 57209" width="22.125" height="10.527" transform="matrix(1, -0.005, 0.005, 1, 268.943, 31.471)" fill="#f5f5f5"/>
          <path id="Trazado_226657" data-name="Trazado 226657" d="M446.723,62.036c14.7.166,29.447.017,44.144-.218a.13.13,0,0,0,0-.259c-14.7-.077-29.449-.069-44.144.255a.111.111,0,0,0,0,.222" transform="translate(-199.784 -27.519)" fill="#e0e0e0"/>
          <rect id="Rectángulo_57210" data-name="Rectángulo 57210" width="85.717" height="3.771" transform="translate(238.665 42.116)" fill="#e0e0e0"/>
          <rect id="Rectángulo_57211" data-name="Rectángulo 57211" width="3.48" height="12.869" transform="translate(252.699 43.929)" fill="#e0e0e0"/>
          <rect id="Rectángulo_57212" data-name="Rectángulo 57212" width="3.48" height="12.869" transform="translate(304.643 43.929)" fill="#e0e0e0"/>
          <rect id="Rectángulo_57213" data-name="Rectángulo 57213" width="4.702" height="32.182" transform="translate(299.842 10.007) rotate(-0.31)" fill="#ebebeb"/>
          <rect id="Rectángulo_57214" data-name="Rectángulo 57214" width="7.307" height="26.08" transform="translate(304.585 16.012) rotate(-0.308)" fill="#f5f5f5"/>
          <path id="Trazado_226658" data-name="Trazado 226658" d="M558.334,37.89a52.8,52.8,0,0,1-7.307,0,52.794,52.794,0,0,1,7.307,0" transform="translate(-246.491 -16.893)" fill="#e0e0e0"/>
          <path id="Trazado_226659" data-name="Trazado 226659" d="M558.334,35.907a52.792,52.792,0,0,1-7.307,0,52.8,52.8,0,0,1,7.307,0" transform="translate(-246.491 -16.005)" fill="#e0e0e0"/>
          <path id="Trazado_226660" data-name="Trazado 226660" d="M558.334,68.887a52.791,52.791,0,0,1-7.307,0,52.8,52.8,0,0,1,7.307,0" transform="translate(-246.491 -30.758)" fill="#e0e0e0"/>
          <path id="Trazado_226661" data-name="Trazado 226661" d="M558.334,66.9a52.8,52.8,0,0,1-7.307,0,52.791,52.791,0,0,1,7.307,0" transform="translate(-246.491 -29.872)" fill="#e0e0e0"/>
          <path id="Trazado_226662" data-name="Trazado 226662" d="M557.749,53.168c-.07,0-.127-2.631-.127-5.876s.056-5.877.127-5.877.127,2.631.127,5.877-.057,5.876-.127,5.876" transform="translate(-249.441 -18.526)" fill="#e0e0e0"/>
          <rect id="Rectángulo_57215" data-name="Rectángulo 57215" width="7.953" height="19.685" transform="translate(311.922 22.377)" fill="#ebebeb"/>
          <path id="Trazado_226663" data-name="Trazado 226663" d="M546.921,26.909a1.352,1.352,0,1,1-1.351-1.352,1.351,1.351,0,0,1,1.351,1.352" transform="translate(-243.445 -11.432)" fill="#e0e0e0"/>
          <rect id="Rectángulo_57216" data-name="Rectángulo 57216" width="0.836" height="19.145" transform="translate(301.707 19.193)" fill="#e0e0e0"/>
          <rect id="Rectángulo_57217" data-name="Rectángulo 57217" width="53.786" height="51.696" transform="translate(275.449 68.167)" fill="#fff"/>
          <rect id="Rectángulo_57218" data-name="Rectángulo 57218" width="53.786" height="3.872" transform="translate(275.449 68.166)" fill="#f5f5f5"/>
          <path id="Trazado_226664" data-name="Trazado 226664" d="M508.287,210.229H552.2v-8.216h-53.77v8.216h2.8" transform="translate(-222.961 -90.367)" fill="#ebebeb"/>
          <path id="Trazado_226665" data-name="Trazado 226665" d="M510.99,126.51a.724.724,0,1,1-.724-.723.723.723,0,0,1,.724.723" transform="translate(-227.934 -56.268)" fill="#fff"/>
          <path id="Trazado_226666" data-name="Trazado 226666" d="M503.054,126.51a.724.724,0,1,1-.723-.723.723.723,0,0,1,.723.723" transform="translate(-224.384 -56.268)" fill="#fff"/>
          <path id="Trazado_226667" data-name="Trazado 226667" d="M507.022,126.51a.724.724,0,1,1-.723-.723.723.723,0,0,1,.723.723" transform="translate(-226.159 -56.268)" fill="#fff"/>
          <path id="Trazado_226668" data-name="Trazado 226668" d="M583.5,141.174h0a3.409,3.409,0,1,1,3.409-3.409,3.41,3.41,0,0,1-3.409,3.409" transform="translate(-259.492 -60.101)" fill="#f5f5f5"/>
          <path id="Trazado_226669" data-name="Trazado 226669" d="M585.136,139.71a.544.544,0,1,0-.33,0,.947.947,0,0,0-.794.935h1.9a.948.948,0,0,0-.772-.931" transform="translate(-261.245 -62.021)" fill="#e0e0e0"/>
          <path id="Trazado_226670" data-name="Trazado 226670" d="M587.906,140.029a.078.078,0,0,1-.078-.078v-.873a.078.078,0,0,1,.157,0v.873a.078.078,0,0,1-.078.078" transform="translate(-262.953 -62.179)" fill="#e0e0e0"/>
          <path id="Trazado_226671" data-name="Trazado 226671" d="M587.989,139.946h-.873a.078.078,0,1,1,0-.156h.873a.078.078,0,1,1,0,.156" transform="translate(-262.6 -62.532)" fill="#e0e0e0"/>
          <path id="Trazado_226672" data-name="Trazado 226672" d="M542.139,168.775h0a9,9,0,1,1,9-9,9,9,0,0,1-9,9" transform="translate(-238.488 -67.444)" fill="#f5f5f5"/>
          <path id="Trazado_226673" data-name="Trazado 226673" d="M547.03,164.054a2.205,2.205,0,1,0-1.339-.014,3.842,3.842,0,0,0-3.221,3.79h7.688a3.843,3.843,0,0,0-3.129-3.775" transform="translate(-242.663 -71.459)" fill="#e0e0e0"/>
          <path id="Trazado_226674" data-name="Trazado 226674" d="M564.88,206.988a2.554,2.554,0,1,1-2.554-2.554,2.554,2.554,0,0,1,2.554,2.554" transform="translate(-250.403 -91.449)" fill="#e0e0e0"/>
          <path id="Trazado_226675" data-name="Trazado 226675" d="M563.7,209.28h-.66a.307.307,0,0,1-.307-.307v-.66a.306.306,0,0,1,.307-.307h.66a.306.306,0,0,1,.307.307v.66a.307.307,0,0,1-.307.307" transform="translate(-251.729 -93.047)" fill="#fff"/>
          <path id="Trazado_226676" data-name="Trazado 226676" d="M565.25,208.921v-.432l.322-.345a.069.069,0,0,1,.12.048v.981a.069.069,0,0,1-.117.051Z" transform="translate(-252.853 -93.099)" fill="#fff"/>
          <path id="Trazado_226677" data-name="Trazado 226677" d="M546.661,208.862a2.518,2.518,0,1,1,3.561,0,2.518,2.518,0,0,1-3.561,0" transform="translate(-244.208 -91.507)" fill="#e0e0e0"/>
          <path id="Trazado_226678" data-name="Trazado 226678" d="M548.33,209.167l.449-.106a.123.123,0,0,0,.095-.119v-.093s-.019-.157.129-.167c.106-.007.782,0,.782,0s.177,0,.174.137v.135a.105.105,0,0,0,.075.1l.487.147a.1.1,0,0,0,.127-.06l.062-.15a.2.2,0,0,0,.016-.087.424.424,0,0,0-.084-.225,1.838,1.838,0,0,0-1.42-.374c-.826.04-1.006.389-1.054.472a.357.357,0,0,0-.015.232l.036.086a.123.123,0,0,0,.142.072" transform="translate(-245.199 -93.179)" fill="#fff"/>
          <path id="Trazado_226679" data-name="Trazado 226679" d="M537.049,207.046a2.531,2.531,0,1,1-2.532-2.532,2.532,2.532,0,0,1,2.532,2.532" transform="translate(-237.973 -91.485)" fill="#e0e0e0"/>
          <path id="Trazado_226680" data-name="Trazado 226680" d="M534.91,209.142a.25.25,0,1,1,.249-.249.249.249,0,0,1-.249.249" transform="translate(-239.17 -93.332)" fill="#fff"/>
          <path id="Trazado_226681" data-name="Trazado 226681" d="M536.315,209.142a.25.25,0,1,1,.249-.249.249.249,0,0,1-.249.249" transform="translate(-239.798 -93.332)" fill="#fff"/>
          <path id="Trazado_226682" data-name="Trazado 226682" d="M537.819,209.142a.25.25,0,1,1,.249-.249.249.249,0,0,1-.249.249" transform="translate(-240.471 -93.332)" fill="#fff"/>
          <path id="Trazado_226683" data-name="Trazado 226683" d="M506.193,138.825a1.638,1.638,0,1,1-1.638-1.638,1.638,1.638,0,0,1,1.638,1.638" transform="translate(-224.97 -61.368)" fill="#e0e0e0"/>
          <path id="Trazado_226684" data-name="Trazado 226684" d="M517.3,139.555a32.278,32.278,0,0,1-6.084,0,32.271,32.271,0,0,1,6.084,0" transform="translate(-228.682 -62.363)" fill="#e0e0e0"/>
          <path id="Trazado_226685" data-name="Trazado 226685" d="M552.411,188.321c0,.08-5.494.144-12.269.144s-12.27-.064-12.27-.144,5.492-.144,12.27-.144,12.269.064,12.269.144" transform="translate(-236.133 -84.177)" fill="#e0e0e0"/>
          <path id="Trazado_226686" data-name="Trazado 226686" d="M552.067,174.92s0-.085-.007-.246,0-.4-.007-.715c0-.635-.008-1.565-.014-2.776-.008-2.431-.018-5.984-.032-10.507-.015-9.04-.037-21.948-.064-37.452l.124.124-53.781.02h0l.144-.144c-.007,18.889-.013,36.615-.018,51.7l-.125-.125,38.936.064,10.951.033,2.9.014.746.007c.168,0,.257.007.257.007s-.08,0-.243.007l-.733.007-2.871.014-10.923.033-39.016.064h-.125v-.125c0-15.081-.012-32.808-.018-51.7v-.144h.149l53.781.02h.124v.123c-.026,15.537-.048,28.471-.063,37.53-.014,4.511-.024,8.055-.032,10.48-.006,1.2-.011,2.122-.014,2.752,0,.305-.005.538-.007.7s-.007.233-.007.233" transform="translate(-222.831 -55.057)" fill="#ebebeb"/>
          <path id="Trazado_226687" data-name="Trazado 226687" d="M128.759,307.234H64.95V245.9h63.809Z" transform="translate(-29.054 -110)" fill="#fff"/>
          <rect id="Rectángulo_57219" data-name="Rectángulo 57219" width="63.809" height="4.593" transform="translate(35.896 135.904)" fill="#f5f5f5"/>
          <path id="Trazado_226688" data-name="Trazado 226688" d="M76.683,348.984h52.09v-9.747H64.984v9.747H68.31" transform="translate(-29.069 -151.751)" fill="#ebebeb"/>
          <path id="Trazado_226689" data-name="Trazado 226689" d="M79.891,249.665a.859.859,0,1,1-.858-.858.858.858,0,0,1,.858.858" transform="translate(-34.97 -111.299)" fill="#fff"/>
          <path id="Trazado_226690" data-name="Trazado 226690" d="M70.476,249.665a.859.859,0,1,1-.859-.858.858.858,0,0,1,.859.858" transform="translate(-30.758 -111.299)" fill="#fff"/>
          <path id="Trazado_226691" data-name="Trazado 226691" d="M75.184,249.665a.859.859,0,1,1-.858-.858.858.858,0,0,1,.858.858" transform="translate(-32.864 -111.299)" fill="#fff"/>
          <path id="Trazado_226692" data-name="Trazado 226692" d="M165.912,267.061h0a4.045,4.045,0,1,1,4.045-4.045,4.045,4.045,0,0,1-4.045,4.045" transform="translate(-72.408 -115.846)" fill="#f5f5f5"/>
          <path id="Trazado_226693" data-name="Trazado 226693" d="M167.852,265.324a.646.646,0,1,0-.392,0,1.125,1.125,0,0,0-.943,1.109h2.25a1.125,1.125,0,0,0-.916-1.1" transform="translate(-74.488 -118.123)" fill="#e0e0e0"/>
          <path id="Trazado_226694" data-name="Trazado 226694" d="M171.139,265.7a.093.093,0,0,1-.093-.093v-1.035a.093.093,0,1,1,.186,0v1.035a.093.093,0,0,1-.093.093" transform="translate(-76.514 -118.311)" fill="#e0e0e0"/>
          <path id="Trazado_226695" data-name="Trazado 226695" d="M171.238,265.6H170.2a.093.093,0,1,1,0-.186h1.036a.093.093,0,0,1,0,.186" transform="translate(-76.095 -118.73)" fill="#e0e0e0"/>
          <path id="Trazado_226696" data-name="Trazado 226696" d="M116.843,299.806h0a10.68,10.68,0,1,1,10.68-10.68,10.68,10.68,0,0,1-10.68,10.68" transform="translate(-47.49 -124.557)" fill="#f5f5f5"/>
          <path id="Trazado_226697" data-name="Trazado 226697" d="M122.646,294.206a2.615,2.615,0,1,0-1.588-.017,4.557,4.557,0,0,0-3.821,4.495h9.12a4.559,4.559,0,0,0-3.711-4.478" transform="translate(-52.444 -129.321)" fill="#e0e0e0"/>
          <path id="Trazado_226698" data-name="Trazado 226698" d="M143.822,345.139a3.03,3.03,0,1,1-3.03-3.03,3.029,3.029,0,0,1,3.03,3.03" transform="translate(-61.625 -153.036)" fill="#e0e0e0"/>
          <path id="Trazado_226699" data-name="Trazado 226699" d="M142.483,347.858h-.9a.307.307,0,0,1-.307-.307v-.9a.307.307,0,0,1,.307-.307h.9a.307.307,0,0,1,.307.307v.9a.307.307,0,0,1-.307.307" transform="translate(-63.198 -154.931)" fill="#fff"/>
          <path id="Trazado_226700" data-name="Trazado 226700" d="M144.262,347.432v-.512l.382-.41a.082.082,0,0,1,.142.056v1.164a.082.082,0,0,1-.138.06Z" transform="translate(-64.533 -154.992)" fill="#fff"/>
          <path id="Trazado_226701" data-name="Trazado 226701" d="M122.209,347.363a2.987,2.987,0,1,1,4.224,0,2.986,2.986,0,0,1-4.224,0" transform="translate(-54.276 -153.105)" fill="#e0e0e0"/>
          <path id="Trazado_226702" data-name="Trazado 226702" d="M124.189,347.724l.533-.125a.145.145,0,0,0,.112-.141v-.11s-.023-.186.153-.2c.126-.008.927,0,.927,0s.211,0,.207.162v.16a.124.124,0,0,0,.088.119l.578.175a.125.125,0,0,0,.151-.072l.074-.178a.237.237,0,0,0,.019-.1.505.505,0,0,0-.1-.267,2.184,2.184,0,0,0-1.685-.444c-.98.048-1.194.461-1.251.56a.421.421,0,0,0-.018.275l.043.1a.145.145,0,0,0,.167.086" transform="translate(-55.452 -155.088)" fill="#fff"/>
          <path id="Trazado_226703" data-name="Trazado 226703" d="M110.805,345.207a3,3,0,1,1-3-3,3,3,0,0,1,3,3" transform="translate(-46.88 -153.078)" fill="#e0e0e0"/>
          <path id="Trazado_226704" data-name="Trazado 226704" d="M108.268,347.695a.3.3,0,1,1,.3-.3.3.3,0,0,1-.3.3" transform="translate(-48.299 -155.269)" fill="#fff"/>
          <path id="Trazado_226705" data-name="Trazado 226705" d="M109.935,347.695a.3.3,0,1,1,.3-.3.3.3,0,0,1-.3.3" transform="translate(-49.045 -155.269)" fill="#fff"/>
          <path id="Trazado_226706" data-name="Trazado 226706" d="M111.718,347.695a.3.3,0,1,1,.3-.3.3.3,0,0,1-.3.3" transform="translate(-49.842 -155.269)" fill="#fff"/>
          <path id="Trazado_226707" data-name="Trazado 226707" d="M74.2,264.275a1.943,1.943,0,1,1-1.944-1.943,1.944,1.944,0,0,1,1.944,1.943" transform="translate(-31.453 -117.349)" fill="#e0e0e0"/>
          <path id="Trazado_226708" data-name="Trazado 226708" d="M87.376,265.162a22.763,22.763,0,0,1-3.609.144,22.762,22.762,0,0,1-3.609-.144,22.746,22.746,0,0,1,3.609-.144,22.748,22.748,0,0,1,3.609.144" transform="translate(-35.857 -118.55)" fill="#e0e0e0"/>
          <path id="Trazado_226709" data-name="Trazado 226709" d="M129.03,323.015c0,.08-6.518.144-14.555.144s-14.557-.064-14.557-.144,6.516-.144,14.557-.144,14.555.064,14.555.144" transform="translate(-44.696 -144.43)" fill="#e0e0e0"/>
          <path id="Trazado_226710" data-name="Trazado 226710" d="M128.642,307.118s0-.1-.007-.291,0-.477-.007-.847c0-.751-.008-1.853-.014-3.291-.007-2.881-.018-7.1-.032-12.463-.015-10.725-.037-26.041-.064-44.438l.124.123-63.8.02h-.006l.144-.144c-.007,22.407-.013,43.438-.019,61.329l-.125-.125,46.2.064,12.989.033,3.433.014.884.007c.2,0,.3.007.3.007s-.1.005-.29.007l-.87.007-3.409.014-12.961.033-46.278.064h-.125v-.125c-.006-17.891-.012-38.921-.019-61.329v-.144h.15l63.8.02h.124v.124c-.027,18.429-.048,33.773-.064,44.516-.014,5.354-.025,9.561-.032,12.435-.006,1.427-.011,2.522-.014,3.267q0,.545-.007.833c0,.186-.007.277-.007.277" transform="translate(-28.938 -109.884)" fill="#ebebeb"/>
        </g>
      </g>
      <g id="Grupo_177585" data-name="Grupo 177585">
        <g id="Grupo_177584" data-name="Grupo 177584" clip-path="url(#clip-path)">
          <path id="Trazado_226711" data-name="Trazado 226711" d="M374.448,180.344v28.544l-9.772,10.538h9.772v50.885h93.6V180.344Z" transform="translate(-163.131 -80.673)" fill="#fff"/>
          <rect id="Rectángulo_57221" data-name="Rectángulo 57221" width="93.605" height="6.738" transform="translate(211.351 99.769)" fill="#f5f5f5"/>
          <path id="Trazado_226712" data-name="Trazado 226712" d="M382.466,317.437v14.3h93.577v-14.3Z" transform="translate(-171.089 -141.999)" fill="#ebebeb"/>
          <path id="Trazado_226713" data-name="Trazado 226713" d="M404.334,186.038a1.259,1.259,0,1,1-1.26-1.259,1.259,1.259,0,0,1,1.26,1.259" transform="translate(-179.744 -82.657)" fill="#fff"/>
          <path id="Trazado_226714" data-name="Trazado 226714" d="M390.523,186.038a1.26,1.26,0,1,1-1.26-1.259,1.259,1.259,0,0,1,1.26,1.259" transform="translate(-173.566 -82.657)" fill="#fff"/>
          <path id="Trazado_226715" data-name="Trazado 226715" d="M397.429,186.038a1.259,1.259,0,1,1-1.26-1.259,1.259,1.259,0,0,1,1.26,1.259" transform="translate(-176.655 -82.657)" fill="#fff"/>
          <path id="Trazado_226716" data-name="Trazado 226716" d="M530.525,211.557h0a5.933,5.933,0,1,1,5.933-5.933,5.934,5.934,0,0,1-5.933,5.933" transform="translate(-234.665 -89.327)" fill="#ebebeb"/>
          <path id="Trazado_226717" data-name="Trazado 226717" d="M533.37,209.008a.946.946,0,1,0-.575-.006,1.65,1.65,0,0,0-1.383,1.627h3.3a1.65,1.65,0,0,0-1.343-1.621" transform="translate(-237.716 -92.668)" fill="#263238"/>
          <path id="Trazado_226718" data-name="Trazado 226718" d="M538.192,209.565a.136.136,0,0,1-.136-.137V207.91a.136.136,0,0,1,.273,0v1.519a.137.137,0,0,1-.137.137" transform="translate(-240.688 -92.943)" fill="#263238"/>
          <path id="Trazado_226719" data-name="Trazado 226719" d="M538.336,209.42h-1.519a.136.136,0,0,1,0-.272h1.519a.136.136,0,0,1,0,.272" transform="translate(-240.073 -93.558)" fill="#263238"/>
          <path id="Trazado_226720" data-name="Trazado 226720" d="M498.119,326.094a4.445,4.445,0,1,1-4.445-4.445,4.445,4.445,0,0,1,4.445,4.445" transform="translate(-218.847 -143.883)" fill="#12263f"/>
          <path id="Trazado_226721" data-name="Trazado 226721" d="M495.895,330.082h-.8a.71.71,0,0,1-.71-.71v-.8a.71.71,0,0,1,.71-.71h.8a.71.71,0,0,1,.71.71v.8a.71.71,0,0,1-.71.71" transform="translate(-221.154 -146.664)" fill="#fff"/>
          <path id="Trazado_226722" data-name="Trazado 226722" d="M498.764,329.458v-.751l.561-.6a.121.121,0,0,1,.209.082V329.9a.121.121,0,0,1-.2.088Z" transform="translate(-223.112 -146.755)" fill="#fff"/>
          <path id="Trazado_226723" data-name="Trazado 226723" d="M466.413,329.356a4.382,4.382,0,1,1,6.2,0,4.382,4.382,0,0,1-6.2,0" transform="translate(-208.066 -143.985)" fill="#eeac3a"/>
          <path id="Trazado_226724" data-name="Trazado 226724" d="M469.317,329.887l.781-.184a.213.213,0,0,0,.165-.208v-.161s-.034-.274.224-.291c.185-.012,1.361,0,1.361,0s.309-.006.3.238v.234a.182.182,0,0,0,.13.175l.847.256a.183.183,0,0,0,.222-.105l.108-.261a.345.345,0,0,0,.027-.151.73.73,0,0,0-.146-.392,3.2,3.2,0,0,0-2.47-.651c-1.439.07-1.753.676-1.835.821a.616.616,0,0,0-.027.4c.015.034.039.092.063.149a.214.214,0,0,0,.246.126" transform="translate(-209.791 -146.894)" fill="#fff"/>
          <path id="Trazado_226725" data-name="Trazado 226725" d="M449.684,326.195a4.406,4.406,0,1,1-4.406-4.406,4.406,4.406,0,0,1,4.406,4.406" transform="translate(-197.216 -143.946)" fill="#43a99b"/>
          <path id="Trazado_226726" data-name="Trazado 226726" d="M445.962,329.844a.434.434,0,1,1,.434-.434.434.434,0,0,1-.434.434" transform="translate(-199.298 -147.161)" fill="#fff"/>
          <path id="Trazado_226727" data-name="Trazado 226727" d="M448.408,329.844a.434.434,0,1,1,.434-.434.434.434,0,0,1-.434.434" transform="translate(-200.392 -147.161)" fill="#fff"/>
          <path id="Trazado_226728" data-name="Trazado 226728" d="M451.023,329.844a.434.434,0,1,1,.434-.434.434.434,0,0,1-.434.434" transform="translate(-201.562 -147.161)" fill="#fff"/>
          <path id="Trazado_226729" data-name="Trazado 226729" d="M397.621,208.832a2.851,2.851,0,1,1-2.851-2.851,2.851,2.851,0,0,1,2.851,2.851" transform="translate(-175.317 -92.141)" fill="#455a64"/>
          <path id="Trazado_226730" data-name="Trazado 226730" d="M420.609,211.953c0,.08-3.556.144-7.942.144s-7.942-.064-7.942-.144,3.556-.144,7.942-.144,7.942.064,7.942.144" transform="translate(-181.046 -94.748)" fill="#455a64"/>
          <path id="Trazado_226731" data-name="Trazado 226731" d="M374.339,180.421s.141,0,.426-.007l1.274-.007,4.989-.014,18.979-.032,67.936-.064h.124v.124c.006,26.173.013,57,.02,89.968v.144H461.15l-86.811-.016h-.054l-.037-.038h0l-.038-.038v-.053c.011-19.224.022-36.387.029-50.884l.1.1-9.772-.009h-.208l.141-.152,9.783-10.528-.02.051c.018-9.156.033-16.3.042-21.156.008-2.418.014-4.267.018-5.515q0-.927.008-1.4c0-.313.007-.469.007-.469s0,.165.007.483.005.794.008,1.418c0,1.252.01,3.107.019,5.532.009,4.847.024,11.975.041,21.111v.029l-.02.022-9.76,10.549-.066-.153,9.772-.008h.1v.1c.008,14.5.018,31.66.029,50.884l-.038-.091-.09-.037,86.811-.016h6.793l-.144.144c.007-32.97.014-63.795.02-89.968l.124.124-67.857-.064-19.007-.032-5.012-.014-1.289-.007c-.29,0-.439-.007-.439-.007" transform="translate(-162.989 -80.652)" fill="#263238"/>
          <path id="Trazado_226732" data-name="Trazado 226732" d="M491.6,264.2c0,.08-2.572.256-5.752.4s-5.762.187-5.765.108,2.572-.256,5.753-.4,5.762-.187,5.765-.108" transform="translate(-214.757 -118.167)" fill="#fff"/>
          <path id="Trazado_226733" data-name="Trazado 226733" d="M448.872,218.293c.5-2.766,1.168-5.608,2.872-7.844s4.718-3.7,7.381-2.8l3.284,1.9a100.322,100.322,0,0,1-4.631,22.48,4.913,4.913,0,0,1-1.024,1.99c-1.065,1.078-2.8.98-4.308.805-1.818-.21-3.941-.628-4.719-2.285a5.3,5.3,0,0,1-.282-2.6,100.7,100.7,0,0,1,1.426-11.646" transform="translate(-200.14 -92.766)" fill="#12263f"/>
          <path id="Trazado_226734" data-name="Trazado 226734" d="M469.622,215.469l-10.117-3.357c-3.275-.59-5.766,3.314-6.217,6.611a59.2,59.2,0,0,0-.731,10.933c.474,5.586,4.655,6.6,4.655,6.6a13.429,13.429,0,0,0-.327,4.2c.263,3.8,2.715,4.784,4.725,4.926,3.169.334,6.477-.67,6.841-3.837l2.765-23.982a1.948,1.948,0,0,0-1.594-2.1" transform="translate(-202.414 -94.857)" fill="#ffbe9d"/>
          <path id="Trazado_226735" data-name="Trazado 226735" d="M456.516,231.474a.71.71,0,0,0,.631.764.68.68,0,0,0,.777-.585.71.71,0,0,0-.63-.764.679.679,0,0,0-.778.585" transform="translate(-204.211 -103.281)" fill="#263238"/>
          <path id="Trazado_226736" data-name="Trazado 226736" d="M455.9,228.806c.081.1.647-.259,1.408-.2s1.293.48,1.382.392c.044-.038-.034-.212-.264-.407a1.948,1.948,0,0,0-1.1-.428,1.87,1.87,0,0,0-1.129.276c-.248.163-.339.324-.3.369" transform="translate(-203.933 -102.061)" fill="#263238"/>
          <path id="Trazado_226737" data-name="Trazado 226737" d="M469.019,233.186a.71.71,0,0,0,.631.764.679.679,0,0,0,.776-.585.71.71,0,0,0-.63-.764.679.679,0,0,0-.777.585" transform="translate(-209.804 -104.047)" fill="#263238"/>
          <path id="Trazado_226738" data-name="Trazado 226738" d="M469.678,230.2c.081.1.647-.259,1.409-.2s1.293.48,1.382.392c.044-.038-.033-.212-.264-.407a1.951,1.951,0,0,0-1.1-.428,1.877,1.877,0,0,0-1.13.276c-.247.163-.339.324-.3.369" transform="translate(-210.097 -102.685)" fill="#263238"/>
          <path id="Trazado_226739" data-name="Trazado 226739" d="M462.206,234.518a5.079,5.079,0,0,0-1.221-.314c-.193-.034-.374-.086-.4-.221a.99.99,0,0,1,.172-.568l.684-1.44a25.553,25.553,0,0,0,1.575-3.781,25.5,25.5,0,0,0-1.876,3.645q-.346.759-.66,1.45a1.128,1.128,0,0,0-.157.756.49.49,0,0,0,.3.308,1.323,1.323,0,0,0,.327.07,4.985,4.985,0,0,0,1.255.093" transform="translate(-205.907 -102.078)" fill="#263238"/>
          <path id="Trazado_226740" data-name="Trazado 226740" d="M460.95,254.7a14.928,14.928,0,0,0,7.855-1.41s-2.465,3.725-7.954,2.805Z" transform="translate(-206.152 -113.304)" fill="#eb996e"/>
          <path id="Trazado_226741" data-name="Trazado 226741" d="M469.017,226.1c.06.213.828.17,1.714.343.889.155,1.591.469,1.723.292.06-.085-.052-.289-.329-.511a3.038,3.038,0,0,0-2.619-.484c-.338.108-.514.259-.49.36" transform="translate(-209.804 -100.928)" fill="#12263f"/>
          <path id="Trazado_226742" data-name="Trazado 226742" d="M455.811,224.671c.154.185.817.053,1.6.1.785.027,1.438.222,1.6.052.073-.083-.019-.264-.3-.449a2.625,2.625,0,0,0-1.28-.379,2.571,2.571,0,0,0-1.3.255c-.29.158-.393.329-.326.419" transform="translate(-203.889 -100.199)" fill="#12263f"/>
          <path id="Trazado_226743" data-name="Trazado 226743" d="M462.85,211.591a8.736,8.736,0,0,0,1.569,1.867L467.2,216.2a16.739,16.739,0,0,0,4.124,3.221c.733.443,1.11,1.588,1.844,2.031.166.1.7.039.878.166-.034,1.236-.053,5.172-.066,6.74-.021,2.471-.9,9.054-.9,9.054h2.1a5.319,5.319,0,0,0,3.733-3.781,39.643,39.643,0,0,0,.346-4.9c.259-3.21-.37-6.461-.579-9.674a13.3,13.3,0,0,0-.63-3.832,10.386,10.386,0,0,0-3.415-4.252,14.042,14.042,0,0,0-5.575-2.9,7.883,7.883,0,0,0-6.094.946,1.32,1.32,0,0,0-.619.733c-.265.772.1,1.128.5,1.84M474.1,221.667c.077.149.017.533,0,0" transform="translate(-206.782 -92.976)" fill="#12263f"/>
          <path id="Trazado_226744" data-name="Trazado 226744" d="M482.7,234.362a1.615,1.615,0,0,1,2.454-1.2,2.214,2.214,0,0,1,.779,2.287c-.372,3.317-3.626,2.259-3.621,2.163,0-.059.222-1.875.388-3.246" transform="translate(-215.752 -104.184)" fill="#ffbe9d"/>
          <path id="Trazado_226745" data-name="Trazado 226745" d="M484.4,237.279c.016-.009.053.047.146.1a.582.582,0,0,0,.431.057,1.439,1.439,0,0,0,.805-1.209,1.92,1.92,0,0,0-.069-.846.673.673,0,0,0-.385-.492.3.3,0,0,0-.359.12c-.055.088-.041.156-.06.16s-.065-.064-.023-.2a.371.371,0,0,1,.154-.193.438.438,0,0,1,.329-.048.817.817,0,0,1,.546.582,1.978,1.978,0,0,1,.1.947,1.51,1.51,0,0,1-1,1.338.624.624,0,0,1-.518-.147c-.093-.094-.1-.17-.091-.175" transform="translate(-216.684 -104.998)" fill="#eb996e"/>
          <path id="Trazado_226746" data-name="Trazado 226746" d="M485.2,241.535a.655.655,0,1,1-.607-.7.655.655,0,0,1,.607.7" transform="translate(-216.457 -107.732)" fill="#263238"/>
          <path id="Trazado_226747" data-name="Trazado 226747" d="M465.427,242.337a1.519,1.519,0,0,1-.925,2.314.885.885,0,0,1-.571-.032,1.263,1.263,0,0,1-.551-.832l-.26-.815a.266.266,0,0,1,.258-.411l2-.334" transform="translate(-207.152 -108.355)" fill="#eb996e"/>
          <path id="Trazado_226748" data-name="Trazado 226748" d="M463.874,244.4a1.763,1.763,0,0,0,.9-.049,1.4,1.4,0,0,0,.827-.58,1.056,1.056,0,0,0,.163-.6,1.786,1.786,0,0,0-.111-.639,1.641,1.641,0,0,0-.333-.537l-.049-.052-.067.018c-1.333.367-2.367.527-2.36.584a8.006,8.006,0,0,0,2.42-.359l-.115-.034a1.467,1.467,0,0,1,.282.463,1.268,1.268,0,0,1-.016,1.041,1.291,1.291,0,0,1-.691.534c-.5.164-.856.165-.85.208" transform="translate(-207.044 -108.229)" fill="#263238"/>
          <path id="Trazado_226749" data-name="Trazado 226749" d="M470.543,215.234a19.471,19.471,0,0,1,5.211,5.557l-1.792,3.041c-3.046-.287-3.407-.6-5.553-2.778s-6.411-6.521-6.649-9.571a29.715,29.715,0,0,1,8.783,3.751" transform="translate(-206.559 -94.603)" fill="#12263f"/>
          <path id="Trazado_226750" data-name="Trazado 226750" d="M477.118,238.927a1.8,1.8,0,0,1,.146-.318c.107-.2.256-.5.444-.9a23.242,23.242,0,0,0,1.308-3.425,22.422,22.422,0,0,0,.875-5.35,14.569,14.569,0,0,0-.168-3.186,5.557,5.557,0,0,0-1.467-2.992,10.691,10.691,0,0,0-2.866-1.84,21.521,21.521,0,0,1-2.816-1.6,20.654,20.654,0,0,1-4.062-3.669,22.946,22.946,0,0,1-2.169-2.986c-.227-.371-.394-.666-.5-.869a1.8,1.8,0,0,1-.154-.314,1.77,1.77,0,0,1,.2.288c.12.195.3.48.541.841a25.746,25.746,0,0,0,2.222,2.919,21.094,21.094,0,0,0,4.057,3.591,21.691,21.691,0,0,0,2.8,1.571,10.821,10.821,0,0,1,2.937,1.885,5.791,5.791,0,0,1,1.534,3.129,14.522,14.522,0,0,1,.157,3.243,21.835,21.835,0,0,1-.938,5.394,20.911,20.911,0,0,1-1.394,3.417c-.2.386-.368.681-.49.876a1.745,1.745,0,0,1-.192.292" transform="translate(-208.317 -94.602)" fill="#fff"/>
          <path id="Trazado_226751" data-name="Trazado 226751" d="M479.9,220.907a5.569,5.569,0,0,0-1.057-2.312,7.78,7.78,0,0,0-2.08-1.819,28.432,28.432,0,0,0-3.062-1.546,20.793,20.793,0,0,1-5.272-3.4,17.078,17.078,0,0,1-1.355-1.339,3.15,3.15,0,0,1-.44-.543,4.079,4.079,0,0,1,.513.472c.322.311.79.758,1.4,1.27a22.655,22.655,0,0,0,5.261,3.308,25.989,25.989,0,0,1,3.081,1.58,7.65,7.65,0,0,1,2.1,1.912,4.835,4.835,0,0,1,.827,1.726,3.05,3.05,0,0,1,.083.515c.008.119.008.181,0,.182" transform="translate(-208.739 -93.914)" fill="#fff"/>
          <path id="Trazado_226752" data-name="Trazado 226752" d="M449.232,235.067a1.152,1.152,0,0,1-.011-.282c0-.213.012-.48.019-.806.023-.7.065-1.713.129-2.963.134-2.5.345-5.96.867-9.752a25.609,25.609,0,0,1,1.148-5.279,9.767,9.767,0,0,1,2.32-3.748,6.774,6.774,0,0,1,2.51-1.593,4.582,4.582,0,0,1,.785-.2,1.149,1.149,0,0,1,.281-.03c.006.027-.382.079-1.031.329a7.006,7.006,0,0,0-2.415,1.629,9.777,9.777,0,0,0-2.223,3.7,26.363,26.363,0,0,0-1.116,5.234c-.52,3.78-.759,7.231-.941,9.727-.088,1.221-.16,2.223-.212,2.958-.028.325-.05.591-.069.8a1.147,1.147,0,0,1-.041.279" transform="translate(-200.95 -94.121)" fill="#fff"/>
          <path id="Trazado_226753" data-name="Trazado 226753" d="M433,274.016s.6-4.784,2.9-7.175,11.955-5.387,11.955-5.387.4,3.412,2.709,4.235a6.247,6.247,0,0,0,7.015-1.537,11.223,11.223,0,0,0,2.242-4.6s11.524,1.061,13.4,4.221,4.31,15.4,4.31,15.4l-10.774,2.286.69,9.929-26.477.154-.819-8.785-7.794,1.113Z" transform="translate(-193.408 -116.104)" fill="#b0c0d2"/>
          <path id="Trazado_226754" data-name="Trazado 226754" d="M490.692,290.675a1.753,1.753,0,0,1-.039-.476c-.009-.306-.013-.748-.012-1.295,0-1.094.017-2.6.051-4.271s.08-3.178.125-4.271c.022-.546.045-.989.066-1.294a1.8,1.8,0,0,1,.057-.474,1.731,1.731,0,0,1,.038.475c.009.306.013.748.013,1.294,0,1.094-.018,2.6-.051,4.273s-.08,3.178-.125,4.271c-.022.547-.045.989-.066,1.294a1.815,1.815,0,0,1-.057.474" transform="translate(-219.478 -124.623)" fill="#263238"/>
          <path id="Trazado_226755" data-name="Trazado 226755" d="M441.656,284.745c.066-.019.738,2.119,1.5,4.776s1.329,4.826,1.263,4.845-.738-2.119-1.5-4.776-1.329-4.826-1.263-4.845" transform="translate(-197.563 -127.375)" fill="#263238"/>
          <path id="Trazado_226756" data-name="Trazado 226756" d="M498.648,265.808c.008.044-.511.139-1.3.438a9.368,9.368,0,0,0-4.847,4.216c-.406.737-.572,1.239-.615,1.224a1.092,1.092,0,0,1,.081-.364,6.011,6.011,0,0,1,.377-.942,8.548,8.548,0,0,1,4.944-4.3,6,6,0,0,1,.985-.243,1.09,1.09,0,0,1,.371-.03" transform="translate(-220.034 -118.9)" fill="#263238"/>
          <path id="Trazado_226757" data-name="Trazado 226757" d="M438.435,274.49a9.9,9.9,0,0,1,.77,3.032,9.9,9.9,0,0,1-.77-3.032" transform="translate(-196.117 -122.787)" fill="#263238"/>
          <path id="Trazado_226758" data-name="Trazado 226758" d="M469.031,278.589c.01.079-6.11.9-13.667,1.843s-13.695,1.635-13.7,1.557,6.109-.9,13.668-1.843,13.693-1.636,13.7-1.557" transform="translate(-197.568 -124.618)" fill="#fff"/>
          <path id="Trazado_226759" data-name="Trazado 226759" d="M501.614,277.939a94.653,94.653,0,0,1-10.129,2.507,94.827,94.827,0,0,1,10.129-2.507" transform="translate(-219.856 -124.327)" fill="#fff"/>
          <path id="Trazado_226760" data-name="Trazado 226760" d="M503.39,290c.017.078-2.619.707-5.887,1.4s-5.931,1.2-5.947,1.124,2.619-.707,5.888-1.405,5.93-1.2,5.947-1.124" transform="translate(-219.888 -129.721)" fill="#fff"/>
          <path id="Trazado_226761" data-name="Trazado 226761" d="M451.038,267.185c.02.077-2.515.793-5.662,1.6s-5.714,1.4-5.733,1.32,2.515-.793,5.662-1.6,5.713-1.4,5.733-1.32" transform="translate(-196.665 -119.517)" fill="#fff"/>
          <path id="Trazado_226762" data-name="Trazado 226762" d="M470.572,296.819c0,.08-5.478.469-12.245.87s-12.259.662-12.263.583,5.477-.469,12.246-.87,12.257-.662,12.262-.583" transform="translate(-199.538 -132.77)" fill="#fff"/>
          <path id="Trazado_226763" data-name="Trazado 226763" d="M435.049,290.18a25.48,25.48,0,0,1,4.316-.553,12.269,12.269,0,0,1-4.316.553" transform="translate(-194.61 -129.547)" fill="#fff"/>
          <path id="Trazado_226764" data-name="Trazado 226764" d="M472.5,311.509a4.679,4.679,0,0,1-.834.091l-2.277.151-7.51.5-7.505.588-2.275.179a4.653,4.653,0,0,1-.838.03,4.637,4.637,0,0,1,.827-.141c.534-.073,1.309-.166,2.267-.27,1.917-.209,4.569-.459,7.5-.672s5.595-.347,7.521-.416c.963-.034,1.743-.055,2.283-.06a4.644,4.644,0,0,1,.838.021" transform="translate(-201.863 -139.337)" fill="#fff"/>
          <path id="Trazado_226765" data-name="Trazado 226765" d="M436.114,294.665l-3.682.476-3.477-8.974-5.627,2.276s3.176,10.758,4.389,15.006l11.432-.013Z" transform="translate(-189.367 -128.011)" fill="#ffbe9d"/>
          <path id="Trazado_226766" data-name="Trazado 226766" d="M443.935,308.931a20.88,20.88,0,0,1-1.9-2.324,16.452,16.452,0,0,1-1.224-2.118c-.3-.628-.512-1.155-.653-1.52a3.411,3.411,0,0,0-.233-.564,2.53,2.53,0,0,0,.141.6,13.509,13.509,0,0,0,.585,1.562,14.842,14.842,0,0,0,1.193,2.172,19.267,19.267,0,0,0,1.9,2.362,10.19,10.19,0,0,1,1.387,1.616l.289-.012a10.856,10.856,0,0,0-1.491-1.77" transform="translate(-196.793 -135.275)" fill="#eb996e"/>
          <path id="Trazado_226767" data-name="Trazado 226767" d="M422.056,274.261a30.244,30.244,0,0,0-.324-5.033l-2.774-6.2s-.715-.438-1.056.8a3.244,3.244,0,0,0,.741,2.507l.085,1.623-1.123-.913-2.161-4.049s-1.488-2.948-1.875-2.48-.259,1.416.384,2.688l1.457,2.886s.22.512-.545-.231-2.426-4.344-2.77-4.793-.815-1.769-1.56-1.471.209,1.881.209,1.881l2.384,5.339s-1.382-2.022-1.632-2.363-.824-1.5-1.277-2.087-.947-.819-1.275-.678a.666.666,0,0,0-.413.814l2.544,4.415s1.272,1.98,1.271,2.131-1.109-.654-1.109-.654l-1.067-1.36s-1.154-2.037-1.76-1.926-.5.561-.5.561l2.144,3.708,3.109,4,3.325,3.3,1.921-.619Z" transform="translate(-182.468 -116.104)" fill="#ffbe9d"/>
          <path id="Trazado_226768" data-name="Trazado 226768" d="M422.4,279.149a7.693,7.693,0,0,0,.2-1.237,3.939,3.939,0,0,1,1.278-2.543,2.112,2.112,0,0,1,1.292-.492h.159l-.011-.172c-.049-.761-.022-1.486-.049-1.968s-.068-.784-.107-.777a4.058,4.058,0,0,0-.075.775,19.959,19.959,0,0,0-.062,2.017l.148-.172a2.332,2.332,0,0,0-1.492.541,3.239,3.239,0,0,0-1.005,1.4,5.136,5.136,0,0,0-.3,1.359,3.675,3.675,0,0,0,.024,1.266" transform="translate(-188.928 -121.656)" fill="#eb996e"/>
          <path id="Trazado_226769" data-name="Trazado 226769" d="M490.966,297.9l-2.049,9.86,9.619-.009c.369-1.4,2.38-11.963,2.38-11.963Z" transform="translate(-218.707 -132.317)" fill="#ffbe9d"/>
        </g>
      </g>
      <g id="Grupo_177587" data-name="Grupo 177587">
        <g id="Grupo_177586" data-name="Grupo 177586" clip-path="url(#clip-path)">
          <path id="Trazado_226770" data-name="Trazado 226770" d="M377.62,88.986H285.052V.015H377.62Z" transform="translate(-127.512 -0.007)" fill="#fff"/>
          <rect id="Rectángulo_57223" data-name="Rectángulo 57223" width="92.568" height="6.664" transform="translate(157.54 0.008)" fill="#f5f5f5"/>
          <path id="Trazado_226771" data-name="Trazado 226771" d="M377.642,135.415H285.1v14.14h4.825v13.191l12.148-13.191h75.569Z" transform="translate(-127.534 -60.575)" fill="#ebebeb"/>
          <path id="Trazado_226772" data-name="Trazado 226772" d="M377.527,74.976s.013.555.019,1.633.01,2.681.018,4.767.01,4.67.017,7.7v.035c-.113.109-.041.03-.071.055H376.4l-1.2,0-2.53,0-5.55.008-65.164.051.09-.039-12.142,13.2-.224.244v-.332c0-4.125,0-8.614,0-13.191l.134.134h-4.917l-.044-.054-.027-.034v-.048c0-20.175-.006-42.278-.009-65.334,0-8.023,0-15.93,0-23.638V0h.143L377.527.03h.114V.144c-.02,22.857-.038,41.563-.049,54.56-.013,6.494-.024,11.561-.031,15.008-.007,1.719-.013,3.034-.017,3.923s-.017,1.34-.017,1.34-.012-.455-.017-1.34-.009-2.2-.017-3.923c-.007-3.448-.018-8.514-.031-15.008-.012-13-.029-31.7-.049-54.56l.114.114L284.958.287,285.1.144c0,7.708,0,15.615,0,23.638,0,23.056-.006,45.159-.009,65.334l-.027-.081h0l-.108-.054,4.852,0h.134v.134c0,4.577,0,9.066,0,13.191l-.224-.087,12.153-13.186.036-.04h.054l65.164.051,5.55.008,2.53,0,1.2,0h1.106c-.019.024.066-.054-.037.054V89.08c.007-3.034.012-5.613.017-7.7s.014-3.686.018-4.767.019-1.633.019-1.633" transform="translate(-127.406 0)" fill="#263238"/>
          <path id="Trazado_226773" data-name="Trazado 226773" d="M306.726,5.47a1.245,1.245,0,1,1-1.246-1.245,1.245,1.245,0,0,1,1.246,1.245" transform="translate(-136.093 -1.89)" fill="#fff"/>
          <path id="Trazado_226774" data-name="Trazado 226774" d="M293.069,5.47a1.245,1.245,0,1,1-1.246-1.245,1.245,1.245,0,0,1,1.246,1.245" transform="translate(-129.984 -1.89)" fill="#fff"/>
          <path id="Trazado_226775" data-name="Trazado 226775" d="M299.9,5.47a1.245,1.245,0,1,1-1.246-1.245A1.245,1.245,0,0,1,299.9,5.47" transform="translate(-133.039 -1.89)" fill="#fff"/>
          <path id="Trazado_226776" data-name="Trazado 226776" d="M431.521,30.707h0a5.868,5.868,0,1,1,5.868-5.868,5.867,5.867,0,0,1-5.868,5.868" transform="translate(-190.407 -8.487)" fill="#ebebeb"/>
          <path id="Trazado_226777" data-name="Trazado 226777" d="M434.334,28.185a.936.936,0,1,0-.569-.006,1.631,1.631,0,0,0-1.368,1.609h3.265a1.633,1.633,0,0,0-1.329-1.6" transform="translate(-193.424 -11.79)" fill="#263238"/>
          <path id="Trazado_226778" data-name="Trazado 226778" d="M439.1,28.736a.135.135,0,0,1-.135-.135V27.1a.135.135,0,0,1,.27,0v1.5a.135.135,0,0,1-.135.135" transform="translate(-196.363 -12.062)" fill="#263238"/>
          <path id="Trazado_226779" data-name="Trazado 226779" d="M439.246,28.593h-1.5a.135.135,0,1,1,0-.269h1.5a.135.135,0,1,1,0,.269" transform="translate(-195.756 -12.67)" fill="#263238"/>
          <path id="Trazado_226780" data-name="Trazado 226780" d="M399.473,143.975a4.4,4.4,0,1,1-4.4-4.4,4.4,4.4,0,0,1,4.4,4.4" transform="translate(-174.764 -62.438)" fill="#12263f"/>
          <path id="Trazado_226781" data-name="Trazado 226781" d="M397.265,147.92h-.774a.71.71,0,0,1-.71-.71v-.774a.71.71,0,0,1,.71-.71h.774a.71.71,0,0,1,.71.71v.774a.71.71,0,0,1-.71.71" transform="translate(-177.045 -65.188)" fill="#fff"/>
          <path id="Trazado_226782" data-name="Trazado 226782" d="M400.111,147.3v-.743l.554-.594a.119.119,0,0,1,.207.081v1.688a.12.12,0,0,1-.2.088Z" transform="translate(-178.982 -65.278)" fill="#fff"/>
          <path id="Trazado_226783" data-name="Trazado 226783" d="M368.119,147.2a4.333,4.333,0,1,1,6.128,0,4.333,4.333,0,0,1-6.128,0" transform="translate(-164.103 -62.539)" fill="#eeac3a"/>
          <path id="Trazado_226784" data-name="Trazado 226784" d="M370.991,147.727l.773-.182a.212.212,0,0,0,.163-.206v-.159s-.033-.271.222-.287c.183-.012,1.345,0,1.345,0s.306-.006.3.235v.232a.18.18,0,0,0,.128.173l.838.254a.182.182,0,0,0,.219-.1l.107-.259a.346.346,0,0,0,.027-.149.732.732,0,0,0-.144-.387,3.166,3.166,0,0,0-2.443-.644c-1.423.069-1.733.669-1.814.812a.607.607,0,0,0-.027.4l.062.148a.211.211,0,0,0,.243.124" transform="translate(-165.809 -65.416)" fill="#fff"/>
          <path id="Trazado_226785" data-name="Trazado 226785" d="M351.575,144.075a4.357,4.357,0,1,1-4.357-4.357,4.357,4.357,0,0,1,4.357,4.357" transform="translate(-153.372 -62.5)" fill="#43a99b"/>
          <path id="Trazado_226786" data-name="Trazado 226786" d="M347.894,147.684a.429.429,0,1,1,.429-.429.43.43,0,0,1-.429.429" transform="translate(-155.431 -65.679)" fill="#fff"/>
          <path id="Trazado_226787" data-name="Trazado 226787" d="M350.312,147.684a.429.429,0,1,1,.429-.429.43.43,0,0,1-.429.429" transform="translate(-156.513 -65.679)" fill="#fff"/>
          <path id="Trazado_226788" data-name="Trazado 226788" d="M352.9,147.684a.429.429,0,1,1,.429-.429.429.429,0,0,1-.429.429" transform="translate(-157.67 -65.679)" fill="#fff"/>
          <path id="Trazado_226789" data-name="Trazado 226789" d="M298.47,26.664a2.819,2.819,0,1,1-2.82-2.82,2.82,2.82,0,0,1,2.82,2.82" transform="translate(-130.992 -10.666)" fill="#455a64"/>
          <path id="Trazado_226790" data-name="Trazado 226790" d="M317.586,28a47.752,47.752,0,0,1-5.235.144A47.756,47.756,0,0,1,307.114,28a95.468,95.468,0,0,1,10.472,0" transform="translate(-137.381 -12.462)" fill="#455a64"/>
          <path id="Trazado_226791" data-name="Trazado 226791" d="M335.925,33.664c.846-1.067,1.891-2.1,2.108-3.44.2-1.236-.342-2.59.213-3.712.682-1.382,2.642-1.651,3.492-2.936.412-.622.509-1.41.915-2.036a3.706,3.706,0,0,1,3.383-1.336c1.269.073,2.507.468,3.778.494,1.744.036,3.509-.618,5.2-.2,1.869.461,3.074,2.035,4.348,3.554l1.651,1.753a6.876,6.876,0,0,0,1.082.794,12.413,12.413,0,0,1,2.035,1.163,3.08,3.08,0,0,1,.014,4.441,3.293,3.293,0,0,1,2.374,3.118,9.456,9.456,0,0,1-.487,2.262,3.289,3.289,0,0,0,.048,2.27,1.446,1.446,0,0,0,1.927.723,3.464,3.464,0,0,1-1.775,2.4,2.07,2.07,0,0,0,1.421.55c-1.25,3.378-5,5.3-8.6,5.493s-7.106-1.009-10.507-2.193l-9.807-2.057c-.86-.154-1.263-1.171-1.292-2.044a6.975,6.975,0,0,0-.2-2.592c-.48-1.1-1.808-1.629-2.307-2.717-.568-1.238.139-2.682.985-3.749" transform="translate(-149.737 -9.033)" fill="#263238"/>
          <path id="Trazado_226792" data-name="Trazado 226792" d="M377.61,45.691A39.952,39.952,0,0,0,379,38.939a13.968,13.968,0,0,0-.9-6.774c-.138-.32-1.286-2.458-1.631-2.406-.247.038.5,2.048.382,2.27a11.84,11.84,0,0,0-.975,6.961,31.2,31.2,0,0,0,1.728,6.7" transform="translate(-168.083 -13.312)" fill="#263238"/>
          <path id="Trazado_226793" data-name="Trazado 226793" d="M363.254,34.4c-.109-5.77-3.559-10.517-9.325-10.247l-.531.056a10.318,10.318,0,0,0-9.235,10.512c.123,5,.323,10.525.636,13.182.649,5.5,6.247,5.776,6.247,5.776s.3,4.452.3,4.452l13.286-.94Z" transform="translate(-153.953 -10.798)" fill="#b28f83"/>
          <path id="Trazado_226794" data-name="Trazado 226794" d="M356.621,75.256a13.381,13.381,0,0,0,6.948-2.876s-1.3,4.19-6.847,4.273Z" transform="translate(-159.527 -32.378)" fill="#826a63"/>
          <path id="Trazado_226795" data-name="Trazado 226795" d="M347.965,51.168a.791.791,0,0,0,.842.714.756.756,0,0,0,.736-.795.791.791,0,0,0-.841-.714.757.757,0,0,0-.737.8" transform="translate(-155.654 -22.533)" fill="#263238"/>
          <path id="Trazado_226796" data-name="Trazado 226796" d="M346.719,46.383c.108.092.657-.412,1.5-.5s1.512.271,1.593.158c.04-.05-.078-.225-.37-.393a2.17,2.17,0,0,0-1.288-.253,2.085,2.085,0,0,0-1.184.524c-.239.227-.308.422-.255.463" transform="translate(-155.09 -20.301)" fill="#263238"/>
          <path id="Trazado_226797" data-name="Trazado 226797" d="M361.77,50.36a.791.791,0,0,0,.842.713.756.756,0,0,0,.736-.795.791.791,0,0,0-.841-.714.757.757,0,0,0-.737.8" transform="translate(-161.83 -22.171)" fill="#263238"/>
          <path id="Trazado_226798" data-name="Trazado 226798" d="M361.785,45.422c.108.092.659-.412,1.5-.5s1.512.271,1.593.158c.04-.05-.078-.225-.37-.394a2.172,2.172,0,0,0-1.288-.253,2.09,2.09,0,0,0-1.184.524c-.238.227-.307.422-.255.463" transform="translate(-161.83 -19.871)" fill="#263238"/>
          <path id="Trazado_226799" data-name="Trazado 226799" d="M355.744,52.837a5.63,5.63,0,0,0-1.4-.1c-.218,0-.427-.02-.479-.164a1.1,1.1,0,0,1,.077-.656l.465-1.713a28.537,28.537,0,0,0,.982-4.456,28.456,28.456,0,0,0-1.339,4.367c-.153.6-.3,1.172-.438,1.72a1.26,1.26,0,0,0-.022.86.544.544,0,0,0,.389.279,1.47,1.47,0,0,0,.372.012,5.527,5.527,0,0,0,1.393-.145" transform="translate(-158.139 -20.463)" fill="#263238"/>
          <path id="Trazado_226800" data-name="Trazado 226800" d="M360.172,59.162c-.139.007-.044.925-.761,1.66s-1.706.737-1.7.866c-.007.059.237.156.652.123a2.3,2.3,0,0,0,1.424-.671,2,2,0,0,0,.579-1.386c-.006-.387-.132-.6-.194-.592" transform="translate(-160.015 -26.465)" fill="#263238"/>
          <path id="Trazado_226801" data-name="Trazado 226801" d="M361.221,39.34c.107.222.941.023,1.947.038,1.006,0,1.837.2,1.947-.019.049-.1-.114-.307-.461-.5a3.388,3.388,0,0,0-2.967-.014c-.349.185-.514.385-.465.491" transform="translate(-161.581 -17.228)" fill="#263238"/>
          <path id="Trazado_226802" data-name="Trazado 226802" d="M346.8,41.191c.169.176.731-.085,1.431-.168.7-.108,1.308-.007,1.424-.223.05-.1-.064-.286-.343-.441a2.086,2.086,0,0,0-2.3.315c-.227.223-.287.43-.212.517" transform="translate(-155.122 -17.959)" fill="#263238"/>
          <path id="Trazado_226803" data-name="Trazado 226803" d="M378.673,49.9c.09-.05,3.666-1.518,3.943,2.26s-3.573,3.276-3.588,3.168-.355-5.428-.355-5.428" transform="translate(-169.392 -22.18)" fill="#b28f83"/>
          <path id="Trazado_226804" data-name="Trazado 226804" d="M381.212,54.782c.015-.013.069.041.184.084a.658.658,0,0,0,.493-.026,1.634,1.634,0,0,0,.647-1.516,2.19,2.19,0,0,0-.254-.929.762.762,0,0,0-.532-.469.336.336,0,0,0-.375.209c-.043.109-.013.183-.033.191s-.086-.057-.067-.216a.423.423,0,0,1,.132-.248.5.5,0,0,1,.357-.123.927.927,0,0,1,.73.535,2.245,2.245,0,0,1,.306,1.037,1.714,1.714,0,0,1-.841,1.7.707.707,0,0,1-.61-.056c-.124-.085-.15-.168-.137-.176" transform="translate(-170.526 -23.145)" fill="#826a63"/>
          <path id="Trazado_226805" data-name="Trazado 226805" d="M347.753,27.717c-.633-.3,1.075-2.4,2.535-3.176,2.206-1.178,5.635-2.035,7.768-1.576a9.127,9.127,0,0,1,6.159,3.887,14.9,14.9,0,0,1,2.158,7.484,4.528,4.528,0,0,1-.384,2.344c-.474.87-1.454,1.461-1.335,2.611a1.589,1.589,0,0,1-.318,1.179c-.644.78-1.535.144-1.969-.524a10.968,10.968,0,0,1-1.315-4.881,11.084,11.084,0,0,1,.008-3.611c.144-.642.4-1.256.512-1.906a2.275,2.275,0,0,0-.39-1.87,2.328,2.328,0,0,0-.327-.291A3.95,3.95,0,0,0,356.9,26.9c-2.08.89-5.643,2.249-6.639,1.587a5.835,5.835,0,0,1-1.8-1.608Z" transform="translate(-155.5 -10.217)" fill="#263238"/>
          <path id="Trazado_226806" data-name="Trazado 226806" d="M359.177,21.914a8.32,8.32,0,0,0-6.364.762,4.328,4.328,0,0,0-2.117,2.657,2.482,2.482,0,0,0,1.429,2.855l.077.042a5.766,5.766,0,0,0,4.254-.5c1.323-.555,2.472-1.468,3.8-2.017a7.7,7.7,0,0,1,4.488-.421,12.564,12.564,0,0,0-5.565-3.374" transform="translate(-156.852 -9.666)" fill="#263238"/>
          <path id="Trazado_226807" data-name="Trazado 226807" d="M375.794,47.531c0-.015-.134.021-.384.014a1.947,1.947,0,0,1-1.011-.36,2.437,2.437,0,0,1-.962-1.374,4.6,4.6,0,0,1,.045-2.262c.187-.833.55-1.711.76-2.721a4.9,4.9,0,0,0,.083-1.6,3.051,3.051,0,0,0-.652-1.586,3.63,3.63,0,0,0-1.518-.962,9.569,9.569,0,0,1-1.654-.709,5.343,5.343,0,0,1-2.09-3.017c-.413-1.235-.575-2.517-.914-3.726a6.8,6.8,0,0,0-1.686-3.187,4.531,4.531,0,0,0-3.024-1.2,5.919,5.919,0,0,0-2.779.615,8.766,8.766,0,0,0-3.065,2.7c-.287.391-.486.71-.617.928a1.991,1.991,0,0,0-.183.343,2.136,2.136,0,0,0,.229-.313c.146-.208.359-.515.656-.893a8.968,8.968,0,0,1,3.065-2.593,5.764,5.764,0,0,1,2.686-.562,4.306,4.306,0,0,1,2.857,1.155,6.578,6.578,0,0,1,1.6,3.076c.329,1.184.49,2.472.912,3.74a5.583,5.583,0,0,0,2.21,3.16,9.668,9.668,0,0,0,1.7.725,3.39,3.39,0,0,1,1.419.881,2.813,2.813,0,0,1,.605,1.454,4.686,4.686,0,0,1-.067,1.526c-.193.982-.546,1.868-.726,2.723a4.706,4.706,0,0,0,0,2.347,2.523,2.523,0,0,0,1.049,1.421,1.921,1.921,0,0,0,1.07.327,1.113,1.113,0,0,0,.385-.069" transform="translate(-159.313 -11.11)" fill="#455a64"/>
          <path id="Trazado_226808" data-name="Trazado 226808" d="M355.542,22.071a2.364,2.364,0,0,0-1.146.173,4.39,4.39,0,0,0-2.987,4.379,2.368,2.368,0,0,0,.258,1.13c.046-.011-.076-.438-.064-1.133a4.547,4.547,0,0,1,2.861-4.2c.643-.265,1.084-.307,1.078-.354" transform="translate(-157.193 -9.865)" fill="#455a64"/>
          <path id="Trazado_226809" data-name="Trazado 226809" d="M344.877,28.947a2,2,0,0,0-.287,1.38,2,2,0,0,0,.452,1.335c.074-.032-.138-.611-.178-1.351s.09-1.34.013-1.363" transform="translate(-154.142 -12.949)" fill="#455a64"/>
          <path id="Trazado_226810" data-name="Trazado 226810" d="M371.337,84.853,357.575,80.5l-12.352,2.4-14.609,7.992,6.707,19.963H371.2l-.7-19.537Z" transform="translate(-147.894 -36.01)" fill="#1a76b7"/>
          <path id="Trazado_226811" data-name="Trazado 226811" d="M356.407,82.62V80.471l13.732-2.01L370,82.62l-13.853,1.487Z" transform="translate(-159.313 -35.098)" fill="#1a76b7"/>
          <path id="Trazado_226812" data-name="Trazado 226812" d="M410.176,92.847c-1.966-4.775-8.351-5.15-8.772-5.15l-.917,3.746,1.7,19.089.812,3.537h14.816c-2.317-7.563-6.363-18.124-7.639-21.222" transform="translate(-179.15 -39.229)" fill="#1a76b7"/>
          <path id="Trazado_226813" data-name="Trazado 226813" d="M328.252,99.294s-1.8,1.9-2.059,7.041-.861,12.922-.861,12.922h10.836l.71-7.651Z" transform="translate(-145.531 -44.417)" fill="#1a76b7"/>
          <path id="Trazado_226814" data-name="Trazado 226814" d="M340.2,126.3a57.3,57.3,0,0,1-2.061-5.361,57.369,57.369,0,0,1-1.791-5.459,57.306,57.306,0,0,1,2.062,5.362c1.064,2.988,1.865,5.432,1.791,5.458" transform="translate(-150.455 -51.658)" fill="#263238"/>
          <path id="Trazado_226815" data-name="Trazado 226815" d="M402.84,101.145c.08,0,.3,4.194.488,9.374s.279,9.383.2,9.385-.3-4.194-.488-9.375-.28-9.382-.2-9.384" transform="translate(-180.19 -45.245)" fill="#263238"/>
        </g>
      </g>
      <path id="Trazado_226816" data-name="Trazado 226816" d="M204.025,402.19l1.835,22.274h4.948l-.956-22.274Z" transform="translate(-91.266 -179.912)" fill="#263238"/>
      <path id="Trazado_226817" data-name="Trazado 226817" d="M294.845,402.19l-.956,22.274h4.948l1.835-22.274Z" transform="translate(-131.465 -179.912)" fill="#263238"/>
      <g id="Grupo_177598" data-name="Grupo 177598">
        <g id="Grupo_177597" data-name="Grupo 177597" clip-path="url(#clip-path)">
          <path id="Trazado_226818" data-name="Trazado 226818" d="M259.189,369.22,195.5,370.715l-1.939-41.136a7.065,7.065,0,0,1,7.057-7.4h54.263a7.065,7.065,0,0,1,7.048,7.554Z" transform="translate(-86.583 -144.122)" fill="#455a64"/>
          <path id="Trazado_226819" data-name="Trazado 226819" d="M262.461,335.169a.82.82,0,0,1-.178.015l-.522.016-2.008.03-7.383.027c-6.234.011-14.846-.059-24.352.161-9.511.316-18.13.263-24.363.168-3.117-.05-5.639-.111-7.381-.162l-2.006-.069-.521-.025a.809.809,0,0,1-.177-.018.8.8,0,0,1,.178-.011l.522,0,2.007.015,7.381.071c6.234.043,14.844.064,24.353-.251,9.513-.221,18.127-.118,24.36-.077l7.382.065,2.007.024.522.013a.8.8,0,0,1,.178.014" transform="translate(-86.59 -149.853)" fill="#263238"/>
          <path id="Trazado_226820" data-name="Trazado 226820" d="M229.479,323.319a12.037,12.037,0,0,0-7.567,3.861,3.827,3.827,0,0,1,.789-1.023,9.567,9.567,0,0,1,5.486-2.8,3.827,3.827,0,0,1,1.292-.038" transform="translate(-99.267 -144.616)" fill="#263238"/>
          <g id="Grupo_177590" data-name="Grupo 177590" transform="translate(122.045 176.438)" opacity="0.3">
            <g id="Grupo_177589" data-name="Grupo 177589">
              <g id="Grupo_177588" data-name="Grupo 177588" clip-path="url(#clip-path-6)">
                <path id="Trazado_226821" data-name="Trazado 226821" d="M220.828,320.869c1.885,2.106,4.968,3.03,7.762,3.455a47.913,47.913,0,0,0,15.2.322c3.216-.548,6.4-1.614,9.656-1.391,3.331.229,6.677,1.8,9.889.889a6.749,6.749,0,0,0,4.066-3.283c.268-.5.435-1.209,0-1.578-.22-.187-.7.461-.989.439-15.088-1.152-30.492,2.205-45.588,1.148" transform="translate(-220.828 -319.247)"/>
              </g>
            </g>
          </g>
          <g id="Grupo_177593" data-name="Grupo 177593" transform="translate(160.836 187.945)" opacity="0.3">
            <g id="Grupo_177592" data-name="Grupo 177592">
              <g id="Grupo_177591" data-name="Grupo 177591" clip-path="url(#clip-path-7)">
                <path id="Trazado_226822" data-name="Trazado 226822" d="M291.074,340.068a4.536,4.536,0,0,0,1.4,3.864,15.543,15.543,0,0,0,3.5,2.427,15.085,15.085,0,0,1,5.368,4.536c2.432,3.779,1.533,8.737,2.562,13.112,0,0,.858-18.874.68-18.4" transform="translate(-291.016 -340.068)"/>
              </g>
            </g>
          </g>
          <path id="Trazado_226823" data-name="Trazado 226823" d="M241.909,113.71a9.887,9.887,0,0,1,2.668,8.75c-.3,1.513-.925,3.207-.069,4.489s2.783,1.464,3.586,2.762c.945,1.529-.229,3.5-.037,5.287a3.558,3.558,0,0,0,3.449,3.068,13.88,13.88,0,0,1-7.186,2.162l-1.624-2.681a2.551,2.551,0,0,1-.536,3.088A5.818,5.818,0,0,1,239.1,142a17.62,17.62,0,0,1-15.042-4.3" transform="translate(-100.229 -50.866)" fill="#263238"/>
          <path id="Trazado_226824" data-name="Trazado 226824" d="M201.153,116.1a35.442,35.442,0,0,0,1.689-3.309c.858-2.523-.06-5.586,1.47-7.769,1.089-1.553,3.089-2.141,4.955-2.484s3.854-.585,5.353-1.749c1.1-.853,1.817-2.122,2.913-2.979a8.363,8.363,0,0,1,5.662-1.337A11.866,11.866,0,0,1,229,98.133a6.515,6.515,0,0,1,3.11,4.989,19.246,19.246,0,0,0,0,2.971,20.359,20.359,0,0,0,1.317,2.988,5.222,5.222,0,0,1-2.029,6.064l-15.964,16.269c-3.041.757-9.938-1.4-11.935-3.818s-3.663-8.649-2.348-11.493" transform="translate(-89.772 -43.145)" fill="#263238"/>
          <path id="Trazado_226825" data-name="Trazado 226825" d="M238.314,118.768c-.093-4.131-2.619-9.3-6.742-9.03L218.62,112.46a2.419,2.419,0,0,0-2.261,2.363l.12,30.972-.09.015s2.548,8.843,11.134,6.542c1.7-.456,2.548-2.262,2.962-4.137l.086.015c.013-.224.024-.433.036-.648a20.247,20.247,0,0,0,.232-4.242c.13-2.495.172-3.518.172-3.5,0,0,5.3-.661,6.669-7.485.681-3.394.736-9,.633-13.591" transform="translate(-96.784 -49.085)" fill="#ffbe9d"/>
          <path id="Trazado_226826" data-name="Trazado 226826" d="M235.617,135.686a.882.882,0,0,1-.885.854.844.844,0,0,1-.876-.831.882.882,0,0,1,.884-.855.844.844,0,0,1,.877.832" transform="translate(-104.611 -60.324)" fill="#263238"/>
          <path id="Trazado_226827" data-name="Trazado 226827" d="M251.867,135.686a.882.882,0,0,1-.885.854.844.844,0,0,1-.876-.831.883.883,0,0,1,.884-.855.844.844,0,0,1,.877.832" transform="translate(-111.88 -60.324)" fill="#263238"/>
          <path id="Trazado_226828" data-name="Trazado 226828" d="M251.237,130.591c-.114.149-.865-.46-1.9-.432-1.033.011-1.769.649-1.886.5-.058-.064.054-.331.373-.618a2.335,2.335,0,0,1,3.023-.058c.329.276.447.537.391.6" transform="translate(-110.686 -57.911)" fill="#263238"/>
          <path id="Trazado_226829" data-name="Trazado 226829" d="M233.741,130.4c-.137.133-.868-.541-1.967-.623-1.1-.1-1.948.444-2.057.291-.054-.069.092-.316.465-.563a2.671,2.671,0,0,1,1.659-.41,2.6,2.6,0,0,1,1.553.675c.317.3.414.571.348.631" transform="translate(-102.755 -57.745)" fill="#263238"/>
          <path id="Trazado_226830" data-name="Trazado 226830" d="M242.408,137.47a6.275,6.275,0,0,1,1.551-.216c.243-.015.474-.054.522-.217a1.231,1.231,0,0,0-.133-.724l-.641-1.872a31.789,31.789,0,0,1-1.413-4.886,31.785,31.785,0,0,1,1.8,4.761q.319.985.61,1.882a1.4,1.4,0,0,1,.087.955.606.606,0,0,1-.412.338,1.648,1.648,0,0,1-.413.041,6.163,6.163,0,0,1-1.561-.061" transform="translate(-108.38 -57.953)" fill="#263238"/>
          <path id="Trazado_226831" data-name="Trazado 226831" d="M235.508,161.933a17.486,17.486,0,0,1-9.1-2.826s2.04,4.809,8.941,4.445Z" transform="translate(-101.279 -71.173)" fill="#eb996e"/>
          <path id="Trazado_226832" data-name="Trazado 226832" d="M239.308,147.414a1.709,1.709,0,0,0-1.505-.7,1.56,1.56,0,0,0-1.1.534.99.99,0,0,0-.121,1.127,1.148,1.148,0,0,0,1.23.365,3.6,3.6,0,0,0,1.241-.674,1.047,1.047,0,0,0,.282-.269.317.317,0,0,0,.013-.353" transform="translate(-105.774 -65.63)" fill="#ff725e"/>
          <path id="Trazado_226833" data-name="Trazado 226833" d="M237.272,144.859c.154,0,.115,1.026.966,1.792s1.951.7,1.953.841c.012.065-.253.19-.716.184a2.565,2.565,0,0,1-1.633-.644,2.233,2.233,0,0,1-.744-1.5c-.022-.432.1-.682.174-.673" transform="translate(-106.06 -64.8)" fill="#263238"/>
          <path id="Trazado_226834" data-name="Trazado 226834" d="M234.011,125.017c-.1.254-1.046.093-2.163.182-1.12.067-2.03.356-2.168.119-.061-.113.1-.349.478-.584a3.769,3.769,0,0,1,3.3-.229c.4.181.6.392.554.512" transform="translate(-102.737 -55.571)" fill="#263238"/>
          <path id="Trazado_226835" data-name="Trazado 226835" d="M250.256,125.42c-.2.207-.937-.046-1.833-.093-.9-.075-1.664.077-1.829-.155-.072-.113.056-.323.4-.514a2.817,2.817,0,0,1,1.506-.292,2.776,2.776,0,0,1,1.445.492c.308.234.4.46.315.562" transform="translate(-110.3 -55.629)" fill="#263238"/>
          <path id="Trazado_226836" data-name="Trazado 226836" d="M213.622,113a5.617,5.617,0,0,1,3.056-1.547,63.178,63.178,0,0,1,14.863-1.977,2.567,2.567,0,0,1-1.249,3.025,11.449,11.449,0,0,1-3.4,1.063,4.448,4.448,0,0,0-2.956,1.829c-.623,1.1-.375,2.53-.941,3.665-.974,1.953-3.9,2.275-4.861,4.233-.728,1.481-.028,3.231.006,4.882a5.9,5.9,0,0,1-6.538,5.992l1.053-17.673a5.883,5.883,0,0,1,.966-3.491" transform="translate(-94.656 -48.973)" fill="#263238"/>
          <path id="Trazado_226837" data-name="Trazado 226837" d="M189.494,128.142c1.021-.72,2.264-1.3,2.772-2.441.74-1.663-.407-3.854.67-5.321.983-1.337,3.373-.983,4.3-2.358.726-1.074.166-2.166.509-3.145a2.759,2.759,0,0,1,2.881-1.451l6.628,12.522c.285,3.973.788,6.129-.314,8.3a18.62,18.62,0,0,0-1.678,3.633,3.8,3.8,0,0,0,.811,3.73c-4.822-.188-9-3.215-12.858-6.12l-4.078-3.075a3.221,3.221,0,0,1-1.085-1.144c-.517-1.137.419-2.413,1.441-3.133" transform="translate(-84.056 -50.718)" fill="#263238"/>
          <path id="Trazado_226838" data-name="Trazado 226838" d="M197.547,128.7a2.28,2.28,0,0,0,.5.158,4.379,4.379,0,0,0,1.5.07,4.644,4.644,0,0,0,2.207-.873,4.563,4.563,0,0,0,1.7-2.632,4.707,4.707,0,0,0,.059-1.851,7.521,7.521,0,0,0-.678-1.88,7.1,7.1,0,0,1-.7-1.95,2.392,2.392,0,0,1,.495-2,4.343,4.343,0,0,1,2.112-.793,2.2,2.2,0,0,0,1.108-.634,2.155,2.155,0,0,0,.476-1.214,13.7,13.7,0,0,0-.251-2.553,2.741,2.741,0,0,1,.137-1.221,1.714,1.714,0,0,1,.8-.888,4.813,4.813,0,0,1,2.493-.361,5.215,5.215,0,0,0,2.548-.434,4.671,4.671,0,0,0,1.9-1.629,7.7,7.7,0,0,0,.891-2.217,10.74,10.74,0,0,1,.721-2.092,4.8,4.8,0,0,1,1.323-1.561,5.4,5.4,0,0,1,6.368-.143,6.587,6.587,0,0,1,1.676,1.618,8.716,8.716,0,0,1,.946,1.764.485.485,0,0,0-.031-.129c-.028-.083-.059-.212-.124-.37a6.323,6.323,0,0,0-.7-1.328,6.551,6.551,0,0,0-1.676-1.685,5.643,5.643,0,0,0-2.967-1.033,5.736,5.736,0,0,0-3.629,1.12,5.033,5.033,0,0,0-1.4,1.633,10.932,10.932,0,0,0-.751,2.137,7.5,7.5,0,0,1-.866,2.138,4.412,4.412,0,0,1-1.793,1.528,4.948,4.948,0,0,1-2.425.4,5.047,5.047,0,0,0-2.635.395,1.994,1.994,0,0,0-.928,1.03,3,3,0,0,0-.154,1.346,13.855,13.855,0,0,1,.255,2.5,1.887,1.887,0,0,1-.408,1.063,1.938,1.938,0,0,1-.976.555c-.375.109-.77.166-1.159.28a2.284,2.284,0,0,0-1.065.59,2.631,2.631,0,0,0-.553,2.21,7.249,7.249,0,0,0,.732,2.014,7.367,7.367,0,0,1,.675,1.819,4.524,4.524,0,0,1-.039,1.769,4.419,4.419,0,0,1-1.6,2.551,4.588,4.588,0,0,1-2.127.89,5.2,5.2,0,0,1-1.985-.119" transform="translate(-88.369 -45.105)" fill="#455a64"/>
          <path id="Trazado_226839" data-name="Trazado 226839" d="M187.54,119.227a1.013,1.013,0,0,0-.2.372,1.725,1.725,0,0,0,.066,1.209,1.825,1.825,0,0,0,.536.715,1.919,1.919,0,0,0,.989.392,2.4,2.4,0,0,0,2.249-1.083,3.217,3.217,0,0,0,.512-1.416,4.5,4.5,0,0,0-.15-1.618,9.892,9.892,0,0,1-.7-3.377,2.221,2.221,0,0,1,.748-1.578,2.432,2.432,0,0,1,1.8-.338,5.91,5.91,0,0,0,2.094.029,1.813,1.813,0,0,0,.935-.617,2.584,2.584,0,0,0,.474-1.012,8.514,8.514,0,0,0,.077-2.145,4.691,4.691,0,0,1,.342-1.956,5.006,5.006,0,0,1,2.567-2.656,7.082,7.082,0,0,1,3.4-.366,9.843,9.843,0,0,0,3.081-.121,6.459,6.459,0,0,0,3.649-2.463,4.553,4.553,0,0,0,.747-1.449,8.8,8.8,0,0,1-.835,1.384,6.391,6.391,0,0,1-1.355,1.307,6.264,6.264,0,0,1-2.253,1.029,9.786,9.786,0,0,1-3.02.082,7.256,7.256,0,0,0-3.521.362,5.252,5.252,0,0,0-2.718,2.789,4.978,4.978,0,0,0-.367,2.064,8.391,8.391,0,0,1-.071,2.075,1.8,1.8,0,0,1-1.212,1.426,5.759,5.759,0,0,1-1.992-.034,2.686,2.686,0,0,0-1.992.4,2.475,2.475,0,0,0-.839,1.764,4.718,4.718,0,0,0,.228,1.832c.167.569.366,1.1.5,1.627a4.306,4.306,0,0,1,.16,1.538,3.027,3.027,0,0,1-.462,1.33,2.236,2.236,0,0,1-2.069,1.037,1.784,1.784,0,0,1-.922-.342,1.759,1.759,0,0,1-.629-1.8c.073-.262.163-.381.149-.389" transform="translate(-83.766 -44.62)" fill="#263238"/>
          <path id="Trazado_226840" data-name="Trazado 226840" d="M268.575,134.047a1.906,1.906,0,0,1-.163,1.247,1.659,1.659,0,0,1-1.112.89,1.738,1.738,0,0,1-1.7-.685,1.6,1.6,0,0,1-.293-1.049,3.321,3.321,0,0,1,.325-1.188,7.078,7.078,0,0,0,1.015-2.662,3.885,3.885,0,0,0-1.129-2.932,4.565,4.565,0,0,0-1.4-.959,6.688,6.688,0,0,0-1.673-.444,8.965,8.965,0,0,1-1.632-.368,2.212,2.212,0,0,1-1.192-.951,2.719,2.719,0,0,1-.3-1.468,5.444,5.444,0,0,1,.3-1.459,11.277,11.277,0,0,0,.758-2.745,4.267,4.267,0,0,0-.58-2.422,5.507,5.507,0,0,0-1.4-1.5,10.384,10.384,0,0,1-1.144-1.007,3.215,3.215,0,0,1-.664-1.1s0,.03.01.086a1.4,1.4,0,0,0,.068.245,2.574,2.574,0,0,0,.5.838,9.566,9.566,0,0,0,1.125,1.055,5.441,5.441,0,0,1,1.331,1.477,4.091,4.091,0,0,1,.52,2.306,11.272,11.272,0,0,1-.771,2.68,5.647,5.647,0,0,0-.319,1.526,2.977,2.977,0,0,0,.327,1.617,2.484,2.484,0,0,0,1.332,1.076,9.162,9.162,0,0,0,1.683.383,6.467,6.467,0,0,1,1.607.423,4.287,4.287,0,0,1,1.314.9,3.63,3.63,0,0,1,1.066,2.726,6.988,6.988,0,0,1-.969,2.581,3.512,3.512,0,0,0-.329,1.274,1.8,1.8,0,0,0,.35,1.176,1.9,1.9,0,0,0,1.89.721,1.834,1.834,0,0,0,1.336-1.963,1,1,0,0,0-.1-.328" transform="translate(-114.781 -50.659)" fill="#263238"/>
          <path id="Trazado_226841" data-name="Trazado 226841" d="M305.9,255.51l-2.442-3.691-3.92-1.966-.147-.107a5.258,5.258,0,0,0-4.446-.826c-1.6.424-3.726.954-5.574,1.269l-4.219-1.153v8.233l21.278-1.344Z" transform="translate(-127.556 -111.27)" fill="#ffbe9d"/>
          <path id="Trazado_226842" data-name="Trazado 226842" d="M316.656,257.5a5.565,5.565,0,0,0-.9-.822c-.576-.481-1.383-1.131-2.284-1.836l-.844-.655-.025-.019-.029-.006c-.873-.164-1.63-.3-2.172-.379a3.419,3.419,0,0,0-.872-.089,3.43,3.43,0,0,0,.841.248c.533.128,1.284.292,2.154.471l-.054-.025.838.662c.9.706,1.727,1.332,2.332,1.776a5.56,5.56,0,0,0,1.014.674" transform="translate(-138.463 -113.478)" fill="#eb996e"/>
          <path id="Trazado_226843" data-name="Trazado 226843" d="M314.092,259.979a24.237,24.237,0,0,0-3.061-1.847l-.746-.41-.026-.014-.028,0a16.673,16.673,0,0,0-2.724-.046,16.569,16.569,0,0,0,2.708.3l-.054-.015.742.416a24.215,24.215,0,0,0,3.189,1.616" transform="translate(-137.557 -115.243)" fill="#eb996e"/>
          <path id="Trazado_226844" data-name="Trazado 226844" d="M328.559,218.676a1.621,1.621,0,0,0-2.1.45l-17.138,23.21-27.117.368c-1.083.065-2.4,2.254-1.426,3.313L311.4,245.6l17.679-24.563a1.621,1.621,0,0,0-.522-2.36" transform="translate(-125.449 -97.727)" fill="#e0e0e0"/>
          <path id="Trazado_226845" data-name="Trazado 226845" d="M328.444,218.657a.942.942,0,0,1,.135.074,1.5,1.5,0,0,1,.342.3,1.64,1.64,0,0,1,.25,1.7,9.571,9.571,0,0,1-.723,1.085l-.9,1.271-2.242,3.144L311.39,245.653l-.037.052h-.064l-30.067.428-.555.008H280.6l-.044-.048a1.52,1.52,0,0,1-.374-1.093,2.671,2.671,0,0,1,.288-1.085,3.168,3.168,0,0,1,.657-.9,1.557,1.557,0,0,1,1.027-.481l4.189-.056,8.094-.106,14.766-.186-.1.05,13.478-18.167,3.8-5.075a1.637,1.637,0,0,1,1.527-.552,1.239,1.239,0,0,1,.535.206,2.158,2.158,0,0,0-.541-.167,1.6,1.6,0,0,0-1.462.562l-3.737,5.111-13.4,18.229-.036.05h-.062l-14.761.214-8.093.114-4.188.057a1.271,1.271,0,0,0-.842.4,2.877,2.877,0,0,0-.6.812,1.683,1.683,0,0,0,.04,1.857l-.108-.047.555-.007,30.068-.394-.1.053,14-19.36,2.269-3.124.918-1.26a9.916,9.916,0,0,0,.731-1.061,1.6,1.6,0,0,0-.21-1.641,2.062,2.062,0,0,0-.446-.4" transform="translate(-125.335 -97.708)" fill="#263238"/>
          <path id="Trazado_226846" data-name="Trazado 226846" d="M211.411,170.163a9.042,9.042,0,0,0-4.557,2.128,15.348,15.348,0,0,0-3.648,5.977c-.905,2.716-.5,13.43-.5,16.534s.789,14.763,1.179,16.7a12.26,12.26,0,0,1-1.151,6.7c-1.613,3.366.9,5.091.9,5.091l33.276-.249-.134-1.241c-.228-2.163.576-4.366-.247-6.378A20.726,20.726,0,0,1,235,206.1c.425-5.543,2.081-9.327,1.064-12.543-1.552-4.906-6.676-16.063-12.868-20.828,0,0-4.882-1.045-5.986-1.432-2.513-.88-3.842-1.355-5.8-1.136" transform="translate(-90.448 -76.095)" fill="#d2c1eb"/>
          <path id="Trazado_226847" data-name="Trazado 226847" d="M251.353,213.867l-28.429-5.935-.733-24.681s-.995-10.055-6.034-10.989l-12.132,15.1c.678,7.613.06,22.016,3.558,27.571s6.9,10.007,15.515,9.611,27.6-.577,27.6-.577Z" transform="translate(-91.266 -77.058)" fill="#d2c1eb"/>
          <path id="Trazado_226848" data-name="Trazado 226848" d="M236.609,236.974c.067.054-.614.943-1.187,2.184s-.826,2.331-.911,2.313a7.213,7.213,0,0,1,2.1-4.5" transform="translate(-104.895 -106.005)" fill="#263238"/>
          <g id="Grupo_177596" data-name="Grupo 177596" transform="translate(130.729 105.138)" opacity="0.3">
            <g id="Grupo_177595" data-name="Grupo 177595">
              <g id="Grupo_177594" data-name="Grupo 177594" clip-path="url(#clip-path-8)">
                <path id="Trazado_226849" data-name="Trazado 226849" d="M236.54,190.236c2.839,8.725,2.223,22.178,7.638,27.137l-6.709-1.4a34.016,34.016,0,0,0,.056-4.74c-.544-6.9-.61-13.913-.985-21" transform="translate(-236.54 -190.236)"/>
              </g>
            </g>
          </g>
          <path id="Trazado_226850" data-name="Trazado 226850" d="M221.364,184.6a15.691,15.691,0,0,1,.5,1.98,24.092,24.092,0,0,1,.346,2.442c.093.971.107,2.092.155,3.348.161,5.036.393,12.264.675,21.075l-.092-.109,28.434,5.91.12.025-.008.122c-.209,3.234-.429,6.636-.653,10.1l-.009.133-.133,0-3.457.039c-4.941.061-9.765.137-14.422.237q-3.493.075-6.855.183a36.654,36.654,0,0,1-6.588-.069,14.306,14.306,0,0,1-3.091-.8,13.178,13.178,0,0,1-2.729-1.491,18.54,18.54,0,0,1-4.1-4.261q-.831-1.168-1.571-2.333l-.369-.579c-.115-.2-.218-.4-.326-.6l-.319-.6-.244-.626a23.918,23.918,0,0,1-1.27-4.933,77.273,77.273,0,0,1-.832-8.7c-.128-2.57-.185-4.786-.249-6.594s-.122-3.214-.171-4.165c-.029-.469-.051-.828-.067-1.082s-.013-.37-.013-.37.019.124.043.367.054.613.1,1.081c.068.951.151,2.355.225,4.164s.155,4.023.3,6.59a78.4,78.4,0,0,0,.872,8.68,23.817,23.817,0,0,0,1.276,4.884l.243.615.314.586c.107.2.206.4.321.59l.369.576q.739,1.161,1.57,2.317a18.342,18.342,0,0,0,4.055,4.195,12.93,12.93,0,0,0,2.677,1.456,14.075,14.075,0,0,0,3.035.775,36.6,36.6,0,0,0,6.54.056q3.361-.114,6.858-.19c4.659-.1,9.483-.182,14.425-.243l3.457-.039-.142.134c.225-3.467.447-6.87.658-10.1l.112.148L222.9,213.565l-.089-.019,0-.091c-.241-8.812-.438-16.041-.576-21.078-.038-1.257-.042-2.377-.124-3.343s-.2-1.783-.313-2.439-.232-1.153-.313-1.486c-.039-.16-.07-.285-.092-.377a.754.754,0,0,1-.027-.129" transform="translate(-91.266 -82.578)" fill="#263238"/>
          <path id="Trazado_226851" data-name="Trazado 226851" d="M314.551,357.152l-4.221,31.1,11.042,1.811,7.855-27.593Z" transform="translate(-138.82 -159.765)" fill="#ffbe9d"/>
          <path id="Trazado_226852" data-name="Trazado 226852" d="M257.387,268.73s47.1-4.478,50.59-1.278,6.4,10.184,5.238,12.512-3.782,10.184-3.782,10.184L287.739,285.2Z" transform="translate(-115.137 -119.123)" fill="#263238"/>
          <path id="Trazado_226853" data-name="Trazado 226853" d="M305.233,309.452l-8.739,13.333,10.285,6.664,11.156-17.1Z" transform="translate(-132.63 -138.427)" fill="#ffbe9d"/>
          <path id="Trazado_226854" data-name="Trazado 226854" d="M205.252,266.107s-4.074,18.622,2.619,26.188,16.586,7.565,26.77,6.11S269,296.445,269,296.445s-1.079,6.61-1.868,14.135c-.791,7.543-.952,12.279-.952,12.279l15.135,1.262s8.432-25.667,9.73-30.749.859-11.911-3.627-14.444c-3.8-2.147-33.779-10.459-48.13-11.7l-1.559-1.339Z" transform="translate(-91.266 -118.942)" fill="#263238"/>
          <path id="Trazado_226855" data-name="Trazado 226855" d="M328.939,309.98c.008.052-.586.135-1.484.457a9.6,9.6,0,0,0-1.513.7,9.653,9.653,0,0,0-3.012,2.716,9.642,9.642,0,0,0-.855,1.434c-.412.859-.555,1.442-.607,1.429a1.2,1.2,0,0,1,.061-.418,6.166,6.166,0,0,1,.36-1.094,8.406,8.406,0,0,1,.824-1.5,9.022,9.022,0,0,1,3.1-2.795,8.4,8.4,0,0,1,1.579-.664,6.163,6.163,0,0,1,1.125-.246,1.2,1.2,0,0,1,.423-.018" transform="translate(-143.799 -138.658)" fill="#455a64"/>
          <path id="Trazado_226856" data-name="Trazado 226856" d="M331.73,279.609a6.946,6.946,0,0,1,1.963-2.882,23.327,23.327,0,0,1-1.963,2.882" transform="translate(-148.388 -123.787)" fill="#455a64"/>
          <path id="Trazado_226857" data-name="Trazado 226857" d="M320.228,287.308a.588.588,0,0,1-.045-.145c-.027-.113-.06-.255-.1-.431-.09-.378-.23-.934-.455-1.635a12.435,12.435,0,0,0-1.076-2.447,6.107,6.107,0,0,0-2.441-2.457,66.96,66.96,0,0,0-8.723-3.1c-3.347-1-7.038-2.062-10.935-3.092-7.794-2.07-14.948-3.551-20.16-4.415-2.6-.44-4.722-.741-6.185-.945l-1.686-.229-.438-.067a.076.076,0,1,1,0-.029l.442.038,1.693.176c1.468.17,3.592.44,6.2.855a204.574,204.574,0,0,1,20.2,4.338c3.9,1.031,7.593,2.1,10.938,3.117a64.547,64.547,0,0,1,8.738,3.172,6.236,6.236,0,0,1,2.489,2.558,12.084,12.084,0,0,1,1.043,2.494,16.877,16.877,0,0,1,.406,1.657c.03.178.055.322.075.437a.589.589,0,0,1,.015.15" transform="translate(-119.81 -120.023)" fill="#455a64"/>
          <path id="Trazado_226858" data-name="Trazado 226858" d="M319.267,409.892l.368-1.348a21,21,0,0,1-12.187-5.253l-3.741,8.088,24.95,11.094c.942-2.385-9.39-12.581-9.39-12.581" transform="translate(-135.857 -180.404)" fill="#d2c1eb"/>
          <path id="Trazado_226859" data-name="Trazado 226859" d="M303.707,416.326l.914-1.976,23.629,11.4s.89.964.407,1.671Z" transform="translate(-135.857 -185.351)" fill="#e0e0e0"/>
          <path id="Trazado_226860" data-name="Trazado 226860" d="M328.905,414.579c-.06.117-.694-.1-1.472.015-.782.1-1.331.471-1.422.375-.1-.073.413-.7,1.357-.825s1.614.338,1.536.435" transform="translate(-145.829 -185.249)" fill="#263238"/>
          <path id="Trazado_226861" data-name="Trazado 226861" d="M312.582,412.57a.728.728,0,0,1-.96.33.693.693,0,0,1-.339-.935.729.729,0,0,1,.96-.33.693.693,0,0,1,.339.935" transform="translate(-139.215 -184.106)" fill="#e0e0e0"/>
          <path id="Trazado_226862" data-name="Trazado 226862" d="M328.959,412.6a1.643,1.643,0,0,1-.565-.1,3.04,3.04,0,0,1-1.4-.747,2.083,2.083,0,0,1-.327-.43,1.306,1.306,0,0,1-.209-.574.615.615,0,0,1,.391-.616.952.952,0,0,1,.756.034,2.787,2.787,0,0,1,1.543,2.434l-.368-.053a2.964,2.964,0,0,1,.246-.559,3.07,3.07,0,0,1,2.7-1.529.94.94,0,0,1,.419.082.533.533,0,0,1,.283.369.961.961,0,0,1-.18.721,2.239,2.239,0,0,1-.956.768,3.864,3.864,0,0,1-1.713.255,2.219,2.219,0,0,1-.625-.051,1.933,1.933,0,0,1,.621-.091,4.215,4.215,0,0,0,1.6-.347,2,2,0,0,0,.808-.7.675.675,0,0,0,.12-.487c-.031-.14-.149-.186-.38-.183a2.751,2.751,0,0,0-2.373,1.369,2.662,2.662,0,0,0-.217.49.189.189,0,0,1-.368-.053,2.486,2.486,0,0,0-1.308-2.137c-.338-.181-.733-.025-.7.268a1.673,1.673,0,0,0,.424.849,3.22,3.22,0,0,0,1.256.785,2.023,2.023,0,0,1,.519.233" transform="translate(-146.032 -183.434)" fill="#263238"/>
          <path id="Trazado_226863" data-name="Trazado 226863" d="M332.158,417.88a4.788,4.788,0,0,0-3.163.786,2.6,2.6,0,0,1,3.163-.786" transform="translate(-147.167 -186.817)" fill="#263238"/>
          <path id="Trazado_226864" data-name="Trazado 226864" d="M334.929,420.856c-.007.085-.683.064-1.462.3s-1.337.612-1.389.544a2.871,2.871,0,0,1,2.851-.845" transform="translate(-148.547 -188.21)" fill="#263238"/>
          <path id="Trazado_226865" data-name="Trazado 226865" d="M306.026,336.038l.59-1.267a21.005,21.005,0,0,1-11.129-7.229l-5.05,7.343,22.727,15.136c1.33-2.193-7.138-13.983-7.138-13.983" transform="translate(-129.921 -146.519)" fill="#d2c1eb"/>
          <path id="Trazado_226866" data-name="Trazado 226866" d="M290.438,339.376l1.234-1.794L313.044,352.8s.715,1.1.12,1.715Z" transform="translate(-129.922 -151.01)" fill="#e0e0e0"/>
          <path id="Trazado_226867" data-name="Trazado 226867" d="M315.728,341.977c-.078.106-.667-.216-1.454-.233-.786-.038-1.392.24-1.465.13-.088-.089.525-.622,1.477-.584s1.534.6,1.441.688" transform="translate(-139.926 -152.668)" fill="#263238"/>
          <path id="Trazado_226868" data-name="Trazado 226868" d="M299.985,337.134a.729.729,0,0,1-1,.164.693.693,0,0,1-.177-.979.729.729,0,0,1,1-.164.693.693,0,0,1,.177.979" transform="translate(-133.607 -150.314)" fill="#e0e0e0"/>
          <path id="Trazado_226869" data-name="Trazado 226869" d="M316.133,339.917a1.63,1.63,0,0,1-.54-.2,3.035,3.035,0,0,1-1.255-.972,2.075,2.075,0,0,1-.25-.479,1.314,1.314,0,0,1-.11-.6.616.616,0,0,1,.49-.542.952.952,0,0,1,.739.161,2.787,2.787,0,0,1,1.111,2.66l-.354-.114a3.009,3.009,0,0,1,.337-.51,3.072,3.072,0,0,1,2.924-1.052.947.947,0,0,1,.4.151.535.535,0,0,1,.217.412.959.959,0,0,1-.3.68,2.234,2.234,0,0,1-1.072.6,3.876,3.876,0,0,1-1.731-.036,2.246,2.246,0,0,1-.607-.156,1.937,1.937,0,0,1,.627.014,4.21,4.21,0,0,0,1.636-.072,2,2,0,0,0,.914-.55.675.675,0,0,0,.2-.46c-.007-.143-.116-.209-.344-.244a2.753,2.753,0,0,0-2.57.95,2.694,2.694,0,0,0-.3.447.189.189,0,0,1-.253.08.186.186,0,0,1-.1-.194,2.487,2.487,0,0,0-.93-2.327c-.3-.235-.718-.148-.738.146a1.673,1.673,0,0,0,.275.909,3.217,3.217,0,0,0,1.105.985c.311.189.485.295.473.317" transform="translate(-140.45 -150.797)" fill="#263238"/>
          <path id="Trazado_226870" data-name="Trazado 226870" d="M318.35,345.835a4.782,4.782,0,0,0-3.25.243,2.6,2.6,0,0,1,3.25-.243" transform="translate(-140.952 -154.496)" fill="#263238"/>
          <path id="Trazado_226871" data-name="Trazado 226871" d="M320.591,349.243c-.021.082-.684-.052-1.491.05s-1.421.378-1.462.3a2.87,2.87,0,0,1,2.953-.353" transform="translate(-142.088 -156.11)" fill="#263238"/>
        </g>
      </g>
      <g id="Grupo_177600" data-name="Grupo 177600">
        <g id="Grupo_177599" data-name="Grupo 177599" clip-path="url(#clip-path)">
          <path id="Trazado_226872" data-name="Trazado 226872" d="M105.988,119.232,92.829,107.115V60.373H.261v88.972H92.829V119.232Z" transform="translate(-0.117 -27.007)" fill="#fff"/>
          <rect id="Rectángulo_57229" data-name="Rectángulo 57229" width="92.568" height="6.664" transform="translate(0.144 33.366)" fill="#f5f5f5"/>
          <path id="Trazado_226873" data-name="Trazado 226873" d="M.307,195.774v14.14H92.848v-14.14Z" transform="translate(-0.137 -87.575)" fill="#ebebeb"/>
          <path id="Trazado_226874" data-name="Trazado 226874" d="M21.935,65.829a1.245,1.245,0,1,1-1.246-1.245,1.246,1.246,0,0,1,1.246,1.245" transform="translate(-8.698 -28.89)" fill="#fff"/>
          <path id="Trazado_226875" data-name="Trazado 226875" d="M8.278,65.829a1.245,1.245,0,1,1-1.246-1.245,1.246,1.246,0,0,1,1.246,1.245" transform="translate(-2.589 -28.89)" fill="#fff"/>
          <path id="Trazado_226876" data-name="Trazado 226876" d="M15.106,65.829a1.245,1.245,0,1,1-1.246-1.245,1.246,1.246,0,0,1,1.246,1.245" transform="translate(-5.643 -28.89)" fill="#fff"/>
          <path id="Trazado_226877" data-name="Trazado 226877" d="M146.729,91.065h0A5.868,5.868,0,1,1,152.6,85.2a5.868,5.868,0,0,1-5.868,5.868" transform="translate(-63.011 -35.487)" fill="#ebebeb"/>
          <path id="Trazado_226878" data-name="Trazado 226878" d="M149.542,88.544a.936.936,0,1,0-.568-.006,1.631,1.631,0,0,0-1.368,1.609h3.265a1.632,1.632,0,0,0-1.329-1.6" transform="translate(-66.029 -38.79)" fill="#263238"/>
          <path id="Trazado_226879" data-name="Trazado 226879" d="M154.311,89.095a.135.135,0,0,1-.135-.135v-1.5a.135.135,0,1,1,.27,0v1.5a.135.135,0,0,1-.135.135" transform="translate(-68.968 -39.062)" fill="#263238"/>
          <path id="Trazado_226880" data-name="Trazado 226880" d="M154.454,88.952h-1.5a.135.135,0,1,1,0-.269h1.5a.135.135,0,1,1,0,.269" transform="translate(-68.36 -39.671)" fill="#263238"/>
          <path id="Trazado_226881" data-name="Trazado 226881" d="M114.682,204.334a4.4,4.4,0,1,1-4.4-4.4,4.4,4.4,0,0,1,4.4,4.4" transform="translate(-47.368 -89.439)" fill="#12263f"/>
          <path id="Trazado_226882" data-name="Trazado 226882" d="M112.474,208.279H111.7a.71.71,0,0,1-.71-.71V206.8a.71.71,0,0,1,.71-.71h.774a.71.71,0,0,1,.71.71v.774a.71.71,0,0,1-.71.71" transform="translate(-49.65 -92.188)" fill="#fff"/>
          <path id="Trazado_226883" data-name="Trazado 226883" d="M115.32,207.662v-.743l.554-.594a.119.119,0,0,1,.207.081v1.688a.119.119,0,0,1-.2.088Z" transform="translate(-51.586 -92.278)" fill="#fff"/>
          <path id="Trazado_226884" data-name="Trazado 226884" d="M83.327,207.561a4.333,4.333,0,1,1,6.128,0,4.333,4.333,0,0,1-6.128,0" transform="translate(-36.707 -89.539)" fill="#eeac3a"/>
          <path id="Trazado_226885" data-name="Trazado 226885" d="M86.2,208.086l.773-.182a.211.211,0,0,0,.163-.206v-.159s-.033-.271.222-.287c.183-.012,1.345,0,1.345,0s.306-.006.3.235v.232a.18.18,0,0,0,.128.173l.838.254a.182.182,0,0,0,.219-.1l.107-.259a.338.338,0,0,0,.027-.149.726.726,0,0,0-.144-.387,3.166,3.166,0,0,0-2.443-.644c-1.423.069-1.733.669-1.814.812a.61.61,0,0,0-.027.4c.015.034.039.092.062.148a.211.211,0,0,0,.243.124" transform="translate(-38.413 -92.416)" fill="#fff"/>
          <path id="Trazado_226886" data-name="Trazado 226886" d="M66.784,204.434a4.357,4.357,0,1,1-4.357-4.357,4.357,4.357,0,0,1,4.357,4.357" transform="translate(-25.976 -89.5)" fill="#43a99b"/>
          <path id="Trazado_226887" data-name="Trazado 226887" d="M63.1,208.043a.429.429,0,1,1,.429-.429.43.43,0,0,1-.429.429" transform="translate(-28.035 -92.68)" fill="#fff"/>
          <path id="Trazado_226888" data-name="Trazado 226888" d="M65.52,208.043a.429.429,0,1,1,.429-.429.43.43,0,0,1-.429.429" transform="translate(-29.117 -92.68)" fill="#fff"/>
          <path id="Trazado_226889" data-name="Trazado 226889" d="M68.108,208.043a.429.429,0,1,1,.429-.429.43.43,0,0,1-.429.429" transform="translate(-30.275 -92.68)" fill="#fff"/>
          <path id="Trazado_226890" data-name="Trazado 226890" d="M13.679,87.023a2.819,2.819,0,1,1-2.82-2.82,2.819,2.819,0,0,1,2.82,2.82" transform="translate(-3.597 -37.667)" fill="#455a64"/>
          <path id="Trazado_226891" data-name="Trazado 226891" d="M38.03,88.362c0,.08-3.517.144-7.853.144s-7.855-.064-7.855-.144,3.516-.144,7.855-.144,7.853.064,7.853.144" transform="translate(-9.985 -39.463)" fill="#455a64"/>
          <path id="Trazado_226892" data-name="Trazado 226892" d="M105.871,119.117l-13.159.052.052-.052c.009,7.218.022,17.463.039,30.113v.091h-.091l-92.568.047H.087l-.04-.041-.04-.04v-.057c0-17.2,0-35.842-.007-55.155C0,82.526,0,71.217,0,60.258v-.141H.144l92.568.034h.108v.108C92.8,79.986,92.784,95.98,92.773,107l-.019-.044,13.118,12.161-13.2-12.073-.019-.018V107c-.011-11.02-.028-27.014-.048-46.742l.108.108L.144,60.4l.141-.141c0,10.959,0,22.268,0,33.817,0,19.313,0,37.957-.006,55.155l-.04-.1-.1-.04,92.568.047-.091.091c.016-12.65.029-22.9.039-30.113v-.053h.052l13.159.052" transform="translate(0 -26.892)" fill="#263238"/>
          <path id="Trazado_226893" data-name="Trazado 226893" d="M71.126,99.639l1.765,23.235c.3,3.951,1.549,9.694,7.774,8.934,5.352-1.066,6.333-6.309,6.049-10-.135-1.749-.244-3.208-.245-3.388,0,0,5.873-1.006,5.855-6.892-.009-2.845-.5-8.7-1.012-14a10.964,10.964,0,0,0-11.086-9.908l-.568.008c-6.118.452-9.152,5.9-8.532,12" transform="translate(-31.781 -39.198)" fill="#ffd5bd"/>
          <path id="Trazado_226894" data-name="Trazado 226894" d="M92.728,141.529a13.686,13.686,0,0,1-7.706-2.063s1.879,4.208,7.743,3.588Z" transform="translate(-38.033 -62.387)" fill="#ffb294"/>
          <path id="Trazado_226895" data-name="Trazado 226895" d="M103.077,110.618c-.1.123-.932-.051-1.98.247s-1.726.884-1.862.826c-.066-.024.018-.219.311-.486a3.743,3.743,0,0,1,1.463-.771,3.421,3.421,0,0,1,1.6-.086c.365.082.515.213.465.27" transform="translate(-44.381 -49.336)" fill="#263238"/>
          <path id="Trazado_226896" data-name="Trazado 226896" d="M86.654,111.983c-.143.065-.809-.453-1.877-.649s-1.929.02-2.026-.09c-.048-.05.113-.185.491-.29a3.778,3.778,0,0,1,1.646-.036,3.448,3.448,0,0,1,1.47.626c.29.232.365.412.3.44" transform="translate(-37.014 -49.584)" fill="#263238"/>
          <path id="Trazado_226897" data-name="Trazado 226897" d="M89.247,115.261a.649.649,0,0,1-.616.664.62.62,0,0,1-.678-.575.649.649,0,0,1,.615-.665.621.621,0,0,1,.679.575" transform="translate(-39.344 -51.302)" fill="#263238"/>
          <path id="Trazado_226898" data-name="Trazado 226898" d="M104.753,114.136a.649.649,0,0,1-.616.664.62.62,0,0,1-.678-.575.649.649,0,0,1,.615-.665.621.621,0,0,1,.679.575" transform="translate(-46.28 -50.798)" fill="#263238"/>
          <path id="Trazado_226899" data-name="Trazado 226899" d="M95.114,117.319a5.985,5.985,0,0,1,1.465-.287c.23-.028.448-.077.485-.235a1.174,1.174,0,0,0-.165-.682l-.71-1.749a30.171,30.171,0,0,1-1.6-4.577,30.339,30.339,0,0,1,1.969,4.437q.356.921.681,1.759a1.338,1.338,0,0,1,.134.9.579.579,0,0,1-.375.343,1.575,1.575,0,0,1-.391.061,5.872,5.872,0,0,1-1.489.025" transform="translate(-42.306 -49.112)" fill="#263238"/>
          <path id="Trazado_226900" data-name="Trazado 226900" d="M85.739,104.412c-.075.226-.874.132-1.808.263-.937.112-1.687.406-1.814.207-.057-.1.072-.308.374-.531a2.978,2.978,0,0,1,1.34-.508,2.946,2.946,0,0,1,1.42.15c.345.138.521.311.489.418" transform="translate(-36.727 -46.441)" fill="#263238"/>
          <path id="Trazado_226901" data-name="Trazado 226901" d="M102.873,106.2c-.087.186-.868.057-1.8.111-.93.036-1.686.24-1.8.064-.05-.085.088-.256.4-.426a3.244,3.244,0,0,1,1.349-.348,3.346,3.346,0,0,1,1.391.215c.333.138.5.3.458.384" transform="translate(-44.405 -47.236)" fill="#263238"/>
          <path id="Trazado_226902" data-name="Trazado 226902" d="M69.042,117.1c-.1-.042-4.063-1.134-3.872,2.888s4.189,3,4.19,2.885-.318-5.773-.318-5.773" transform="translate(-29.149 -52.308)" fill="#ffd5bd"/>
          <path id="Trazado_226903" data-name="Trazado 226903" d="M68.891,122.481c-.018-.012-.068.053-.183.112a.7.7,0,0,1-.523.036,1.737,1.737,0,0,1-.876-1.518,2.332,2.332,0,0,1,.149-1.013.81.81,0,0,1,.5-.563.356.356,0,0,1,.422.172c.06.11.038.191.06.2s.083-.071.043-.236a.448.448,0,0,0-.17-.245.53.53,0,0,0-.392-.084.985.985,0,0,0-.7.658,2.38,2.38,0,0,0-.19,1.132,1.822,1.822,0,0,0,1.1,1.689.752.752,0,0,0,.636-.137c.12-.105.137-.2.123-.2" transform="translate(-29.981 -53.382)" fill="#ffb294"/>
          <path id="Trazado_226904" data-name="Trazado 226904" d="M92.387,126.647c.035-.105-.771-.271-1.388-.958a4.537,4.537,0,0,1-.647-1c-.143-.281-.247-.455-.289-.438s-.012.212.08.523a2.965,2.965,0,0,0,.62,1.126,2.408,2.408,0,0,0,1.093.694c.317.1.525.086.532.051" transform="translate(-40.28 -55.582)" fill="#263238"/>
          <path id="Trazado_226905" data-name="Trazado 226905" d="M94.158,88.683a.95.95,0,0,0-.494-.513,2.922,2.922,0,0,0-1.515-.11,8.474,8.474,0,0,1-4.512-.947,19.711,19.711,0,0,0-2.264-2.3,14.94,14.94,0,0,0-5.061-3.256,13.621,13.621,0,0,0-7.294.071,5.5,5.5,0,0,0-3.764,4.632,4.233,4.233,0,0,0-4.275-.022l-.036-.012c-1.5.688-2.231,2.4-2.548,4.017a19.7,19.7,0,0,1-1.072,4.808c-.148.311-.324.684-.145.978a.655.655,0,0,0,.709.237,1.924,1.924,0,0,0,.691-.389l-.408,1.284a3.666,3.666,0,0,0,1.672-.261,36.08,36.08,0,0,0,1.468,4.061,2.389,2.389,0,0,1,1.672.258c.585.439.908,1.334,1.777.906.442-.218.775-1.216.887-1.7a22.9,22.9,0,0,0,.134-9.74A7.361,7.361,0,0,1,71.9,88.857l-.064.069c1.583-.711,3.381-1.433,5-.8,1.254.489,2.071,1.673,3.057,2.589A9.211,9.211,0,0,0,86.7,93.152c.232,1.637.3,3.975.531,5.612l1.151-2.758,0,.013c.1-.2.173-.406.246-.609l.026-.061v-.008a10.3,10.3,0,0,1,.38-.977l.017.012a1.031,1.031,0,0,0,1.38-1.507,2.3,2.3,0,0,0-.541-.455,1.634,1.634,0,0,0,1.585.265,1.281,1.281,0,0,0,.791-1.342,1.089,1.089,0,0,0-.723-.813,3.68,3.68,0,0,0,2.043-.644c.391-.271.76-.693.575-1.2" transform="translate(-27.333 -36.277)" fill="#263238"/>
          <path id="Trazado_226906" data-name="Trazado 226906" d="M73.029,91.362a5.033,5.033,0,0,0-.539.588,4.209,4.209,0,0,0-.726,2.02,7.416,7.416,0,0,0-.018,1.5c.045.538.139,1.111.234,1.715a15.355,15.355,0,0,1,.213,1.913,6.787,6.787,0,0,1-.042,1.022,2.121,2.121,0,0,1-.326,1.017.886.886,0,0,1-.8.35,1.321,1.321,0,0,1-.779-.354,3.042,3.042,0,0,1-.694-1.436l.124,0a4.918,4.918,0,0,1-.6,1.288,1.747,1.747,0,0,1-1.082.72,1.128,1.128,0,0,1-.612-.052.98.98,0,0,1-.445-.367,1.008,1.008,0,0,1-.17-.507.728.728,0,0,1,.148-.471l.067.05a3.788,3.788,0,0,1-1.172,1.053,3.416,3.416,0,0,1-.376.186.607.607,0,0,1-.136.046.762.762,0,0,1,.127-.067c.083-.044.208-.107.362-.2a3.891,3.891,0,0,0,1.127-1.063l.067.05a.753.753,0,0,0,.038.872.876.876,0,0,0,.4.324,1.027,1.027,0,0,0,.554.041,1.638,1.638,0,0,0,1-.682,4.839,4.839,0,0,0,.579-1.259l.067-.195.056.2a2.943,2.943,0,0,0,.662,1.372,1.181,1.181,0,0,0,.7.316.746.746,0,0,0,.68-.3,2.008,2.008,0,0,0,.3-.951,6.727,6.727,0,0,0,.043-1,15.676,15.676,0,0,0-.2-1.9c-.091-.6-.182-1.179-.223-1.725a7.362,7.362,0,0,1,.035-1.519,4.153,4.153,0,0,1,.779-2.04,2.388,2.388,0,0,1,.581-.556" transform="translate(-29.208 -40.869)" fill="#455a64"/>
          <path id="Trazado_226907" data-name="Trazado 226907" d="M97.995,92.544s-.013.017-.043.044l-.137.119a1.872,1.872,0,0,1-.233.181,3.129,3.129,0,0,1-.339.218,5.2,5.2,0,0,1-2.462.671,6.649,6.649,0,0,1-3.643-.99A11.513,11.513,0,0,1,87.8,89.563c-.488-.67-.9-1.365-1.34-2A7.781,7.781,0,0,0,85,85.9a4,4,0,0,0-1.775-.873,2.874,2.874,0,0,0-.9-.024,3.152,3.152,0,0,0-.8.228,3.391,3.391,0,0,0-1.738,1.755,4.074,4.074,0,0,0-.224.9.228.228,0,0,1,0-.062c0-.049.007-.108.012-.181a2.972,2.972,0,0,1,.164-.68,3.351,3.351,0,0,1,.576-.945,3.442,3.442,0,0,1,1.172-.88,3.264,3.264,0,0,1,.824-.244,2.959,2.959,0,0,1,.932.017,4.1,4.1,0,0,1,1.834.886,7.838,7.838,0,0,1,1.494,1.686c.446.641.857,1.334,1.34,2a11.522,11.522,0,0,0,3.293,3.2,6.607,6.607,0,0,0,3.575,1,5.278,5.278,0,0,0,2.438-.621,8.27,8.27,0,0,0,.779-.516" transform="translate(-35.59 -37.964)" fill="#455a64"/>
          <path id="Trazado_226908" data-name="Trazado 226908" d="M108.467,94.024a.923.923,0,0,1-.2.165,4.538,4.538,0,0,1-.592.37,6,6,0,0,1-.954.41,6.38,6.38,0,0,1-2.515.3,6.059,6.059,0,0,1-1.024-.17,4.594,4.594,0,0,1-.664-.218.965.965,0,0,1-.23-.113c.009-.024.347.113.916.237a6.974,6.974,0,0,0,1.011.139,6.836,6.836,0,0,0,2.467-.3,6.927,6.927,0,0,0,.949-.376c.523-.255.819-.469.833-.448" transform="translate(-45.757 -42.059)" fill="#455a64"/>
          <path id="Trazado_226909" data-name="Trazado 226909" d="M55.982,146.956l-7.092,2.961A24.446,24.446,0,0,0,38,158.72c-.633.937-2.646,8.163-2.792,8.758-.586,2.375-1.547,6.459-1.547,6.459H90s-1.665-16.1-5.679-19.209c-2.605-2.019-14.532-7.526-14.532-7.526a5.26,5.26,0,0,1-4.829,3.037,12.957,12.957,0,0,1-8.98-3.283" transform="translate(-15.058 -65.738)" fill="#455a64"/>
        </g>
      </g>
    </g>
    <path id="Trazado_226910" data-name="Trazado 226910" d="M608.75,50.739,600.18,18.271a3.323,3.323,0,0,0-1.643-2.116L584.495,8.561a3.324,3.324,0,0,0-4.354,1.091l-8.8,13.32a3.324,3.324,0,0,0-.451,2.641l8.569,32.468a3.324,3.324,0,0,0,4.032,2.416l22.842-5.726a3.324,3.324,0,0,0,2.416-4.032M585.092,19.8a3.121,3.121,0,1,1,2.517-3.626,3.12,3.12,0,0,1-2.517,3.626" transform="translate(-477.131 -8.161)" fill="#e0e0e0"/>
    <path id="Trazado_226911" data-name="Trazado 226911" d="M608.75,50.739,600.18,18.271a3.323,3.323,0,0,0-1.643-2.116L584.495,8.561a3.324,3.324,0,0,0-4.354,1.091l-8.8,13.32a3.324,3.324,0,0,0-.451,2.641l8.569,32.468a3.324,3.324,0,0,0,4.032,2.416l22.842-5.726a3.324,3.324,0,0,0,2.416-4.032M585.092,19.8a3.121,3.121,0,1,1,2.517-3.626,3.12,3.12,0,0,1-2.517,3.626" transform="translate(-260.355 125.14)" fill="#e0e0e0"/>
    <path id="Trazado_226912" data-name="Trazado 226912" d="M608.75,50.739,600.18,18.271a3.323,3.323,0,0,0-1.643-2.116L584.495,8.561a3.324,3.324,0,0,0-4.354,1.091l-8.8,13.32a3.324,3.324,0,0,0-.451,2.641l8.569,32.468a3.324,3.324,0,0,0,4.032,2.416l22.842-5.726a3.324,3.324,0,0,0,2.416-4.032M585.092,19.8a3.121,3.121,0,1,1,2.517-3.626,3.12,3.12,0,0,1-2.517,3.626" transform="translate(-576.816 125.14)" fill="#e0e0e0"/>
    <path id="Trazado_226913" data-name="Trazado 226913" d="M583.346,53.159c-.839-3.167.644-5.6,3.34-6.318,2.722-.721,5.217.663,6.056,3.83.846,3.194-.644,5.6-3.366,6.325-2.7.714-5.184-.644-6.03-3.837m6.229-1.649c-.492-1.859-1.341-2.418-2.231-2.182-.838.222-1.35,1.141-.858,3s1.393,2.4,2.231,2.182c.89-.236,1.35-1.141.858-3m8.009-7.3,3.769-1-7.659,21.634-3.769,1Zm.978,14.166c-.839-3.166.618-5.6,3.34-6.318s5.218.663,6.056,3.83c.846,3.193-.644,5.6-3.366,6.325s-5.184-.644-6.03-3.837m6.229-1.65c-.492-1.858-1.367-2.41-2.23-2.182s-1.35,1.142-.858,3,1.367,2.411,2.231,2.182,1.35-1.142.858-3" transform="translate(-482.908 -24.593)" fill="#fff"/>
    <path id="Trazado_226914" data-name="Trazado 226914" d="M583.346,53.159c-.839-3.167.644-5.6,3.34-6.318,2.722-.721,5.217.663,6.056,3.83.846,3.194-.644,5.6-3.366,6.325-2.7.714-5.184-.644-6.03-3.837m6.229-1.649c-.492-1.859-1.341-2.418-2.231-2.182-.838.222-1.35,1.141-.858,3s1.393,2.4,2.231,2.182c.89-.236,1.35-1.141.858-3m8.009-7.3,3.769-1-7.659,21.634-3.769,1Zm.978,14.166c-.839-3.166.618-5.6,3.34-6.318s5.218.663,6.056,3.83c.846,3.193-.644,5.6-3.366,6.325s-5.184-.644-6.03-3.837m6.229-1.65c-.492-1.858-1.367-2.41-2.23-2.182s-1.35,1.142-.858,3,1.367,2.411,2.231,2.182,1.35-1.142.858-3" transform="translate(-266.132 108.707)" fill="#fff"/>
    <path id="Trazado_226915" data-name="Trazado 226915" d="M583.346,53.159c-.839-3.167.644-5.6,3.34-6.318,2.722-.721,5.217.663,6.056,3.83.846,3.194-.644,5.6-3.366,6.325-2.7.714-5.184-.644-6.03-3.837m6.229-1.649c-.492-1.859-1.341-2.418-2.231-2.182-.838.222-1.35,1.141-.858,3s1.393,2.4,2.231,2.182c.89-.236,1.35-1.141.858-3m8.009-7.3,3.769-1-7.659,21.634-3.769,1Zm.978,14.166c-.839-3.166.618-5.6,3.34-6.318s5.218.663,6.056,3.83c.846,3.193-.644,5.6-3.366,6.325s-5.184-.644-6.03-3.837m6.229-1.65c-.492-1.858-1.367-2.41-2.23-2.182s-1.35,1.142-.858,3,1.367,2.411,2.231,2.182,1.35-1.142.858-3" transform="translate(-582.593 108.707)" fill="#fff"/>
  </g>
</svg>
