<svg xmlns="http://www.w3.org/2000/svg" width="113.847" height="35.404" viewBox="0 0 113.847 35.404">
  <g id="Grupo_182936" data-name="Grupo 182936" transform="translate(0 35.404) rotate(-90)">
    <g id="Grupo_152551" data-name="Grupo 152551" transform="translate(0 113.847) rotate(-90)">
      <path id="Trazado_597118" data-name="Trazado 597118" d="M0,0H82.22V24.483H0Z" transform="translate(113.847 24.483) rotate(180)" fill="#fff"/>
      <g id="Grupo_152556" data-name="Grupo 152556" transform="translate(0 13.562)">
        <rect id="Rectángulo_45221" data-name="Rectángulo 45221" width="4.16" height="4.16" transform="translate(88.408 17.682)" fill="#12263f"/>
        <rect id="Rectángulo_45222" data-name="Rectángulo 45222" width="4.16" height="4.16" transform="translate(79.568 17.682)" fill="#12263f"/>
        <rect id="Rectángulo_45223" data-name="Rectángulo 45223" width="4.16" height="4.16" transform="translate(70.727 17.682)" fill="#12263f"/>
        <rect id="Rectángulo_45224" data-name="Rectángulo 45224" width="4.16" height="4.16" transform="translate(61.886 17.682)" fill="#12263f"/>
        <rect id="Rectángulo_45225" data-name="Rectángulo 45225" width="4.16" height="4.16" transform="translate(53.045 17.682)" fill="#12263f"/>
        <rect id="Rectángulo_45226" data-name="Rectángulo 45226" width="4.16" height="4.16" transform="translate(44.204 17.682)" fill="#12263f"/>
        <rect id="Rectángulo_45227" data-name="Rectángulo 45227" width="4.16" height="4.16" transform="translate(35.363 17.682)" fill="#12263f"/>
        <rect id="Rectángulo_45228" data-name="Rectángulo 45228" width="4.16" height="4.16" transform="translate(26.523 17.682)" fill="#12263f"/>
        <rect id="Rectángulo_45229" data-name="Rectángulo 45229" width="4.16" height="4.16" transform="translate(17.682 17.682)" fill="#12263f"/>
        <rect id="Rectángulo_45230" data-name="Rectángulo 45230" width="4.16" height="4.16" transform="translate(8.841 17.682)" fill="#12263f"/>
        <rect id="Rectángulo_45231" data-name="Rectángulo 45231" width="4.16" height="4.16" transform="translate(0 17.682)" fill="#12263f"/>
        <rect id="Rectángulo_45232" data-name="Rectángulo 45232" width="4.16" height="4.16" transform="translate(88.408 8.841)" fill="#12263f"/>
        <rect id="Rectángulo_45233" data-name="Rectángulo 45233" width="4.16" height="4.16" transform="translate(79.568 8.841)" fill="#12263f"/>
        <rect id="Rectángulo_45234" data-name="Rectángulo 45234" width="4.16" height="4.16" transform="translate(70.727 8.841)" fill="#12263f"/>
        <rect id="Rectángulo_45235" data-name="Rectángulo 45235" width="4.16" height="4.16" transform="translate(61.886 8.841)" fill="#12263f"/>
        <rect id="Rectángulo_45236" data-name="Rectángulo 45236" width="4.16" height="4.16" transform="translate(53.045 8.841)" fill="#12263f"/>
        <rect id="Rectángulo_45237" data-name="Rectángulo 45237" width="4.16" height="4.16" transform="translate(44.204 8.841)" fill="#12263f"/>
        <rect id="Rectángulo_45238" data-name="Rectángulo 45238" width="4.16" height="4.16" transform="translate(35.363 8.841)" fill="#12263f"/>
        <rect id="Rectángulo_45239" data-name="Rectángulo 45239" width="4.16" height="4.16" transform="translate(26.523 8.841)" fill="#12263f"/>
        <rect id="Rectángulo_45240" data-name="Rectángulo 45240" width="4.16" height="4.16" transform="translate(17.682 8.841)" fill="#12263f"/>
        <rect id="Rectángulo_45241" data-name="Rectángulo 45241" width="4.16" height="4.16" transform="translate(8.841 8.841)" fill="#12263f"/>
        <rect id="Rectángulo_45242" data-name="Rectángulo 45242" width="4.16" height="4.16" transform="translate(0 8.841)" fill="#12263f"/>
        <rect id="Rectángulo_45243" data-name="Rectángulo 45243" width="4.16" height="4.16" transform="translate(88.408)" fill="#12263f"/>
        <rect id="Rectángulo_45244" data-name="Rectángulo 45244" width="4.16" height="4.16" transform="translate(79.568)" fill="#12263f"/>
        <rect id="Rectángulo_45245" data-name="Rectángulo 45245" width="4.16" height="4.16" transform="translate(70.727)" fill="#12263f"/>
        <rect id="Rectángulo_45246" data-name="Rectángulo 45246" width="4.16" height="4.16" transform="translate(61.886)" fill="#12263f"/>
        <rect id="Rectángulo_45247" data-name="Rectángulo 45247" width="4.16" height="4.16" transform="translate(53.045)" fill="#12263f"/>
        <rect id="Rectángulo_45248" data-name="Rectángulo 45248" width="4.16" height="4.16" transform="translate(44.204)" fill="#12263f"/>
        <rect id="Rectángulo_45249" data-name="Rectángulo 45249" width="4.16" height="4.16" transform="translate(35.363)" fill="#12263f"/>
        <rect id="Rectángulo_45250" data-name="Rectángulo 45250" width="4.16" height="4.16" transform="translate(26.523)" fill="#12263f"/>
        <rect id="Rectángulo_45251" data-name="Rectángulo 45251" width="4.16" height="4.16" transform="translate(17.682)" fill="#12263f"/>
        <rect id="Rectángulo_45252" data-name="Rectángulo 45252" width="4.16" height="4.16" transform="translate(8.841)" fill="#12263f"/>
        <rect id="Rectángulo_45253" data-name="Rectángulo 45253" width="4.16" height="4.16" fill="#12263f"/>
      </g>
    </g>
  </g>
</svg>
