<svg xmlns="http://www.w3.org/2000/svg" xmlns:xlink="http://www.w3.org/1999/xlink" width="290.997" height="222.676" viewBox="0 0 290.997 222.676">
  <defs>
    <clipPath id="clip-path">
      <rect id="Rectángulo_295325" data-name="Rectángulo 295325" width="248.665" height="222.676" fill="none"/>
    </clipPath>
    <clipPath id="clip-path-2">
      <rect id="Rectángulo_295314" data-name="Rectángulo 295314" width="248.666" height="222.675" fill="none"/>
    </clipPath>
    <clipPath id="clip-path-3">
      <rect id="Rectángulo_295313" data-name="Rectángulo 295313" width="248.665" height="144.106" fill="none"/>
    </clipPath>
    <clipPath id="clip-path-5">
      <rect id="Rectángulo_295315" data-name="Rectángulo 295315" width="37.14" height="21.442" fill="none"/>
    </clipPath>
    <clipPath id="clip-path-6">
      <rect id="Rectángulo_295316" data-name="Rectángulo 295316" width="31.662" height="18.28" fill="none"/>
    </clipPath>
    <clipPath id="clip-path-7">
      <rect id="Rectángulo_295317" data-name="Rectángulo 295317" width="42.064" height="24.285" fill="none"/>
    </clipPath>
    <clipPath id="clip-path-8">
      <rect id="Rectángulo_295318" data-name="Rectángulo 295318" width="39.866" height="23.017" fill="none"/>
    </clipPath>
    <clipPath id="clip-path-9">
      <rect id="Rectángulo_295319" data-name="Rectángulo 295319" width="163.979" height="39.096" fill="none"/>
    </clipPath>
    <clipPath id="clip-path-10">
      <rect id="Rectángulo_295320" data-name="Rectángulo 295320" width="61.957" height="35.8" fill="none"/>
    </clipPath>
    <clipPath id="clip-path-11">
      <rect id="Rectángulo_295321" data-name="Rectángulo 295321" width="5.263" height="3.039" fill="none"/>
    </clipPath>
    <clipPath id="clip-path-12">
      <rect id="Rectángulo_295322" data-name="Rectángulo 295322" width="26.372" height="15.129" fill="none"/>
    </clipPath>
    <clipPath id="clip-path-13">
      <rect id="Rectángulo_295323" data-name="Rectángulo 295323" width="17.879" height="10.257" fill="none"/>
    </clipPath>
  </defs>
  <g id="Grupo_884948" data-name="Grupo 884948" transform="translate(-1071.003 -2854.839)">
    <rect id="Rectángulo_32196" data-name="Rectángulo 32196" width="282" height="187" transform="translate(1080 2861)" fill="#fb8c00" opacity="0.065"/>
    <g id="Grupo_879788" data-name="Grupo 879788" transform="translate(1071.003 2854.839)">
      <g id="Grupo_879787" data-name="Grupo 879787" clip-path="url(#clip-path)">
        <g id="Grupo_879757" data-name="Grupo 879757" transform="translate(0 0)">
          <g id="Grupo_879756" data-name="Grupo 879756" clip-path="url(#clip-path-2)">
            <g id="Grupo_879755" data-name="Grupo 879755" transform="translate(0 78.569)" opacity="0.17">
              <g id="Grupo_879754" data-name="Grupo 879754">
                <g id="Grupo_879753" data-name="Grupo 879753" clip-path="url(#clip-path-3)">
                  <path id="Trazado_597639" data-name="Trazado 597639" d="M248.666,889.962l-106.3-61.372L0,911.324,5.152,914.3,106.3,972.7l36.671-21.311c9.535.8,19.614-.923,26.986-5.179l.274-.16.078-.047.208-.125.069-.042.264-.163.046-.029.217-.138.076-.049.212-.138.047-.03.251-.168.061-.042.193-.133.069-.048.238-.169,0,0,.239-.174.064-.047.183-.137.057-.043.229-.176.032-.025.195-.154.061-.049.184-.15.038-.031.217-.181.046-.039.171-.147.055-.048.2-.181h0l.2-.187.049-.045.16-.15.045-.043.2-.189.017-.017.173-.172.047-.048.158-.163.028-.029.182-.193.032-.035.147-.161.042-.046q.086-.1.17-.192h0q.086-.1.169-.2l.036-.043.134-.162.034-.041q.081-.1.16-.2l.006-.008q.074-.095.147-.19l.035-.046.129-.172.021-.029q.074-.1.146-.2l.021-.031.12-.173.031-.046q.067-.1.132-.2v0a12.862,12.862,0,0,0,1.569-3.306,10.916,10.916,0,0,0,.465-2.685,10.7,10.7,0,0,0-.352-3.233l64.617-37.551Z" transform="translate(0 -828.59)" fill="#152f6b"/>
                </g>
              </g>
            </g>
          </g>
        </g>
        <path id="Trazado_597640" data-name="Trazado 597640" d="M106.3,1471.344,0,1409.973v5.968l106.3,61.372,142.366-82.734v-5.969Z" transform="translate(0 -1256.938)" fill="#bad4f5"/>
        <path id="Trazado_597641" data-name="Trazado 597641" d="M0,824.12l5.152,2.975,101.148,58.4,137.214-79.74,5.152-2.994-106.3-61.372Z" transform="translate(0 -671.085)" fill="#edf6ff"/>
        <path id="Trazado_597642" data-name="Trazado 597642" d="M1771.116,1179.8l-40.827-23.572-2.225,1.293,40.827,23.572Z" transform="translate(-1564.203 -1046.589)" fill="#bedffe"/>
        <path id="Trazado_597643" data-name="Trazado 597643" d="M1695.243,1190.076l-11.566-6.677-2.209,1.284,11.566,6.678Z" transform="translate(-1522.025 -1071.185)" fill="#bedffe"/>
        <path id="Trazado_597644" data-name="Trazado 597644" d="M1859.232,1284.755l-26.714-15.423-2.209,1.284,26.714,15.423Z" transform="translate(-1656.753 -1148.969)" fill="#bedffe"/>
        <path id="Trazado_597645" data-name="Trazado 597645" d="M1644.06,1237.268l-26.7-15.414-2.224,1.293,26.7,15.414Z" transform="translate(-1461.984 -1105.993)" fill="#bedffe"/>
        <path id="Trazado_597646" data-name="Trazado 597646" d="M1612.55,1272.033l-40.827-23.572-2.209,1.284,40.827,23.572Z" transform="translate(-1420.687 -1130.078)" fill="#bedffe"/>
        <path id="Trazado_597647" data-name="Trazado 597647" d="M1393.49,1399.335l-40.827-23.571-2.209,1.283,40.827,23.572Z" transform="translate(-1222.399 -1245.31)" fill="#bedffe"/>
        <path id="Trazado_597648" data-name="Trazado 597648" d="M1317.474,1409.612l-11.566-6.678-2.208,1.284,11.565,6.677Z" transform="translate(-1180.078 -1269.903)" fill="#bedffe"/>
        <path id="Trazado_597649" data-name="Trazado 597649" d="M1481.462,1504.29l-26.714-15.423-2.209,1.284,26.714,15.423Z" transform="translate(-1314.804 -1347.688)" fill="#bedffe"/>
        <path id="Trazado_597650" data-name="Trazado 597650" d="M1266.434,1456.8l-26.7-15.414-2.209,1.284,26.7,15.414Z" transform="translate(-1120.18 -1304.711)" fill="#bedffe"/>
        <path id="Trazado_597651" data-name="Trazado 597651" d="M1234.778,1491.569,1193.951,1468l-2.209,1.284,40.827,23.571Z" transform="translate(-1078.736 -1328.796)" fill="#bedffe"/>
        <path id="Trazado_597652" data-name="Trazado 597652" d="M1016.209,1619.154l-40.827-23.572-2.209,1.284L1014,1620.438Z" transform="translate(-880.893 -1444.284)" fill="#bedffe"/>
        <path id="Trazado_597653" data-name="Trazado 597653" d="M940.207,1629.337l-11.566-6.678-2.224,1.293,11.566,6.677Z" transform="translate(-838.57 -1468.793)" fill="#bedffe"/>
        <path id="Trazado_597654" data-name="Trazado 597654" d="M1104.193,1724.015l-26.714-15.423-2.225,1.293,26.714,15.423Z" transform="translate(-973.295 -1546.577)" fill="#bedffe"/>
        <path id="Trazado_597655" data-name="Trazado 597655" d="M889.15,1676.621l-26.7-15.415-2.209,1.284,26.7,15.414Z" transform="translate(-778.671 -1503.685)" fill="#bedffe"/>
        <path id="Trazado_597656" data-name="Trazado 597656" d="M857.51,1711.293l-40.828-23.572-2.225,1.293,40.827,23.572Z" transform="translate(-737.228 -1527.686)" fill="#bedffe"/>
        <path id="Trazado_597657" data-name="Trazado 597657" d="M1244.836,965l-20.2-11.661-20.082,11.67,20.2,11.661Z" transform="translate(-1090.337 -862.937)" fill="#ff9c00"/>
        <g id="Grupo_879786" data-name="Grupo 879786" transform="translate(0 0)">
          <g id="Grupo_879785" data-name="Grupo 879785" clip-path="url(#clip-path-2)">
            <path id="Trazado_597658" data-name="Trazado 597658" d="M1323,1024.969l15.861-1.353a3.582,3.582,0,0,1,2.044.392,1.349,1.349,0,0,1,.687.794c.22.767-.7,1.48-2.022,1.587l-18.384,1.578a3.734,3.734,0,0,1-1.864-.294,2.439,2.439,0,0,1-.222-.113,1.288,1.288,0,0,1-.692-.877s-.1-.713-.256-1.676c-.159-.945-.351-2.14-.541-3.085a10.392,10.392,0,0,0-.31-1.247c-.377-.511-.2-1.121.51-1.534a3.728,3.728,0,0,1,3.417,0,1.685,1.685,0,0,1,.572.49l.124.232.14.348a7.137,7.137,0,0,1,.22.838c.157.642.3,1.453.444,2.247.1.587.193,1.171.271,1.674" transform="translate(-1192.216 -922.127)" fill="#f1f1ff"/>
            <path id="Trazado_597659" data-name="Trazado 597659" d="M492.879,1413.473l-20.2-11.661-20.081,11.67,20.2,11.661Z" transform="translate(-409.682 -1268.888)" fill="#bedffe"/>
            <path id="Trazado_597660" data-name="Trazado 597660" d="M571.045,1473.446l15.861-1.353a3.583,3.583,0,0,1,2.044.392,1.35,1.35,0,0,1,.687.794c.22.767-.7,1.48-2.023,1.587l-18.384,1.578a3.731,3.731,0,0,1-1.864-.294,2.48,2.48,0,0,1-.222-.113,1.288,1.288,0,0,1-.692-.877s-.1-.713-.256-1.676c-.159-.946-.351-2.14-.541-3.085a10.4,10.4,0,0,0-.31-1.247c-.377-.511-.2-1.121.51-1.534a3.728,3.728,0,0,1,3.417,0,1.689,1.689,0,0,1,.572.49l.125.232.141.348a7.309,7.309,0,0,1,.22.838c.157.642.3,1.453.443,2.247.1.587.193,1.171.271,1.674" transform="translate(-511.563 -1328.078)" fill="#f1f1ff"/>
            <path id="Trazado_597661" data-name="Trazado 597661" d="M859.3,1189.045l-20.2-11.661-20.082,11.67,20.2,11.661Z" transform="translate(-741.357 -1065.74)" fill="#bedffe"/>
            <path id="Trazado_597662" data-name="Trazado 597662" d="M925.078,1239.025l6.285,0a3.479,3.479,0,0,1,1.707.412,1.225,1.225,0,0,1,.718.987c-.011.776-1.085,1.4-2.424,1.409h-6.274l.015,3.638c0,.766-1.07,1.391-2.409,1.4a3.473,3.473,0,0,1-1.707-.413,1.225,1.225,0,0,1-.718-.987l-.021-3.638h-6.28a3.48,3.48,0,0,1-1.707-.412,1.227,1.227,0,0,1-.718-.988c0-.784,1.069-1.409,2.408-1.4l6.28,0-.021-3.634c0-.785,1.07-1.409,2.424-1.409a3.477,3.477,0,0,1,1.707.412,1.226,1.226,0,0,1,.717.987Z" transform="translate(-825.111 -1116.975)" fill="#f1f1ff"/>
            <g id="Grupo_879760" data-name="Grupo 879760" transform="translate(160.325 101.115)" opacity="0.17">
              <g id="Grupo_879759" data-name="Grupo 879759">
                <g id="Grupo_879758" data-name="Grupo 879758" clip-path="url(#clip-path-5)">
                  <path id="Trazado_597663" data-name="Trazado 597663" d="M1722.522,1069.462c7.225,4.172,7.183,10.96-.1,15.162s-19.036,4.227-26.261.055-7.182-10.96.1-15.162,19.036-4.227,26.261-.055" transform="translate(-1690.774 -1066.35)" fill="#152f6b"/>
                </g>
              </g>
            </g>
            <path id="Trazado_597664" data-name="Trazado 597664" d="M1840.652,107.783a6.066,6.066,0,0,0,1.953,3.348l.584,3.288-7.211,5.82-5.862-4.245,1.906-11.355s8.611,1.1,8.63,3.144" transform="translate(-1656.578 -94.717)" fill="#daa782"/>
            <path id="Trazado_597665" data-name="Trazado 597665" d="M1722.927,1087.044c-.556,1.177-6.352,3.576-7.934,4.339s-.36,2.772.6,3.226c2.423,1.15,9.906-2.065,9.906-2.065s5.794.424,6.758-.3c.972-.741,0-4.136,0-4.136l-3.459-2.149s-5.506.508-5.874,1.084" transform="translate(-1551.683 -982.986)" fill="#05213f"/>
            <path id="Trazado_597666" data-name="Trazado 597666" d="M1778.473,516.906c-2.371,12.745.348,32.663.348,32.663s1.489,16.653,1.134,21.774c-.032,3.077,9.689,3.548,9.915.685.224-2.881-.847-18.575-1.859-22.8-.337-4.809,3.289-19.413,3.289-19.413l-4.055-7.874s-8.1-6.478-8.771-5.036" transform="translate(-1608.953 -467.702)" fill="#092a55"/>
            <path id="Trazado_597667" data-name="Trazado 597667" d="M1954.432,1152.941a15.138,15.138,0,0,1-1.4,4.653,4.414,4.414,0,0,0-.207,4.052c.433.935,8.14,1.813,8.341-3.725.071-2.006,0-6.535,0-6.535s-6.645-.053-6.732,1.554" transform="translate(-1767.302 -1042.209)" fill="#05213f"/>
            <path id="Trazado_597668" data-name="Trazado 597668" d="M1808.954,521.419c2.006,3.538.933,25.322,1.409,31.651,3.21,9.883,2.166,24.374,2.107,24.914-.416,3.8-8.272,3.884-8.439-.934-.846-21.024-4.982-30.062-6.843-44.657,0,0-4.812-2.607-9.446-14.178.589-.508,19.891,1.772,21.212,3.2" transform="translate(-1618.222 -469.01)" fill="#15406b"/>
            <path id="Trazado_597669" data-name="Trazado 597669" d="M1670.469,166.646c-3.591,7.758-5.547,12.829-3.9,14.966s5.444,1.551,6.917-.2,4.672-5.572,4.672-5.572l4.627-13.925-1.139-2.909s-7.838.7-9.945,7.273c-.354.554-.925-.293-1.23.365" transform="translate(-1508.003 -143.932)" fill="#b5d3f7"/>
            <path id="Trazado_597670" data-name="Trazado 597670" d="M1798.41,195.053c1.449-6.611,2.829-13.572,2.506-14.788a51.452,51.452,0,0,1-8.174-7.164,11.055,11.055,0,0,1-2.2,4.8c-1.916,2.074-5.093,3.006-6.63,1.944-2.873-1.984-.668-5.354-.668-5.354l-2.376-1.168s-4.1,1.657-5.052,4.962c-2.284,7.933,1.191,22.17.516,25.543a14.461,14.461,0,0,1-.1,2.065c16.208,11.9,21.212,3.205,21.212,3.205l-.267-1.572.053,0c-.657-3.891,1.213-12.482,1.213-12.482Z" transform="translate(-1606.714 -156.688)" fill="#4778b0"/>
            <path id="Trazado_597671" data-name="Trazado 597671" d="M1722.252,176.317c-.716-1.062-4.834-1.24-5.739-.047-1.646,2.2-4.343,3.672-4.65,5.74-.193,1.38,2.246,2.573,2.246,2.573s3.169-.754,4.686-2.492c0,0,2.492-.205,3.457-1.641a5.135,5.135,0,0,0,0-4.133" transform="translate(-1549.528 -158.81)" fill="#ffcda8"/>
            <path id="Trazado_597672" data-name="Trazado 597672" d="M1755.174,416.7s.276-2.454-1.24-2.778-3.885-1.891-4.81-.71-.428,5.03.377,5.955,3.725,1.61,3.725,1.61Z" transform="translate(-1582.813 -373.634)" fill="#f0c6b4"/>
            <path id="Trazado_597673" data-name="Trazado 597673" d="M1814.01,244.264c6.952.716,3.292,10.515,3.292,10.515s-3.182,17.9-6.53,19.36c-5.036,2.227-16.64-4.93-18.516-5.656s-.818-5.13,1.547-4.335c3.027,1.012,12.351,2.467,12.351,2.467l2.418-13.293s.5-9.556,5.438-9.057" transform="translate(-1621.442 -221.085)" fill="#b5d3f7"/>
            <path id="Trazado_597674" data-name="Trazado 597674" d="M1819.506,42.072c-1.245,2.774-1.028,3.17-.843,4.284-.136,2.324.439,3.234.737,7.142a3.391,3.391,0,0,0,2.2,1.985c1.575.184,6-1.993,6.511-2.571a4.812,4.812,0,0,0,.789-1.533l2.446-.413.773-2.68-2.889-5.936-5.291-2.078s-4.051,1.618-4.436,1.8" transform="translate(-1646.082 -36.454)" fill="#ffcda8"/>
            <path id="Trazado_597675" data-name="Trazado 597675" d="M1825.509,7.824a4.094,4.094,0,0,1,.617-5.851A11.889,11.889,0,0,1,1831.906,0h.071c3.043.034,5.249,2.325,6.188,3.51a7.039,7.039,0,0,1,.453.619l.049.075h0c2.671,4.218.462,10.419.005,10.818a2.252,2.252,0,0,1-3.521-.185s1.422-.653,1.361-1.33c-.057-.634-1.284-.786-2.1-.872a1.209,1.209,0,0,0-1.11.656,7.434,7.434,0,0,0-.248,1.045l-.8.23a9.141,9.141,0,0,0-.227-1.462h0a5.132,5.132,0,0,0-.385-1.413v0h0a.7.7,0,0,0-.059-.117.672.672,0,0,0-.065-.082.206.206,0,0,0-.017-.018h0c-.332-.339-.985-.351-1.376-.846-.428-.541.292-1.424.008-1.768-1.683-.955-2.729-.015-4.624-1.038" transform="translate(-1651.547 -0.004)" fill="#092a55"/>
            <path id="Trazado_597676" data-name="Trazado 597676" d="M670.542,809.357,631.8,831.8l-13.488-7.788,38.743-22.383Z" transform="translate(-559.681 -725.618)" fill="#ddecf2"/>
            <path id="Trazado_597677" data-name="Trazado 597677" d="M939.339,564.757l-9.088-5.282-.1-34.115,9.088,5.282Z" transform="translate(-841.955 -475.544)" fill="#ff9c00"/>
            <path id="Trazado_597678" data-name="Trazado 597678" d="M949.041,471l-9.8,5.658-9.088-5.282,9.8-5.655Z" transform="translate(-841.955 -421.564)" fill="#ffe59c"/>
            <path id="Trazado_597679" data-name="Trazado 597679" d="M1035.889,555.515l-9.8,5.658-.1-34.115,9.8-5.658Z" transform="translate(-928.708 -471.959)" fill="#ea6500"/>
            <path id="Trazado_597680" data-name="Trazado 597680" d="M804.745,716.214l-9.088-5.282-.074-26.444,9.088,5.279Z" transform="translate(-720.143 -619.583)" fill="#3679c1"/>
            <path id="Trazado_597681" data-name="Trazado 597681" d="M814.476,630.072l-9.8,5.66-9.088-5.279,9.8-5.661Z" transform="translate(-720.143 -565.548)" fill="#448be3"/>
            <path id="Trazado_597682" data-name="Trazado 597682" d="M901.3,706.915l-9.8,5.66-.074-26.446,9.8-5.661Z" transform="translate(-806.896 -615.944)" fill="#1d64bc"/>
            <path id="Trazado_597683" data-name="Trazado 597683" d="M670.914,905.38l-9.088-5.282-.042-14.722,9.088,5.282Z" transform="translate(-599.032 -801.422)" fill="#bad4f5"/>
            <path id="Trazado_597684" data-name="Trazado 597684" d="M680.67,830.994l-9.8,5.657-9.088-5.282,9.8-5.658Z" transform="translate(-599.032 -747.415)" fill="#edf6ff"/>
            <path id="Trazado_597685" data-name="Trazado 597685" d="M767.463,896.138l-9.8,5.658-.041-14.722,9.8-5.658Z" transform="translate(-685.784 -797.838)" fill="#d9e9ff"/>
            <path id="Trazado_597686" data-name="Trazado 597686" d="M1361.11,369.554l16.545,10.123v-.934L1361.11,368.62Z" transform="translate(-1232.045 -333.667)" fill="#bedffe" fill-rule="evenodd"/>
            <path id="Trazado_597687" data-name="Trazado 597687" d="M1361.11,393.9l3.35,2.05v-.934l-3.35-2.05Z" transform="translate(-1232.045 -355.705)" fill="#bedffe" fill-rule="evenodd"/>
            <path id="Trazado_597688" data-name="Trazado 597688" d="M1361.11,418.188l7.161,4.382v-.934l-7.161-4.382Z" transform="translate(-1232.045 -377.689)" fill="#bedffe" fill-rule="evenodd"/>
            <path id="Trazado_597689" data-name="Trazado 597689" d="M1380.065,454.136l5.855,3.583v-.934l-5.855-3.583Z" transform="translate(-1249.202 -410.229)" fill="#bedffe" fill-rule="evenodd"/>
            <path id="Trazado_597690" data-name="Trazado 597690" d="M1380.065,478.421,1385.92,482v-.934l-5.855-3.583Z" transform="translate(-1249.202 -432.211)" fill="#bedffe" fill-rule="evenodd"/>
            <path id="Trazado_597691" data-name="Trazado 597691" d="M1422.919,529l5.7,3.484v-.934l-5.7-3.484Z" transform="translate(-1287.993 -477.989)" fill="#bedffe" fill-rule="evenodd"/>
            <path id="Trazado_597692" data-name="Trazado 597692" d="M1418.516,429.037l10.612,6.491v-.934l-10.612-6.491Z" transform="translate(-1284.007 -387.51)" fill="#bedffe" fill-rule="evenodd"/>
            <path id="Trazado_597693" data-name="Trazado 597693" d="M1546.37,507.255l5.066,3.1v-.934l-5.066-3.1Z" transform="translate(-1399.738 -458.311)" fill="#bedffe" fill-rule="evenodd"/>
            <path id="Trazado_597694" data-name="Trazado 597694" d="M1620.1,552.362l6.84,4.186v-.934l-6.84-4.186Z" transform="translate(-1466.479 -499.14)" fill="#bedffe" fill-rule="evenodd"/>
            <path id="Trazado_597695" data-name="Trazado 597695" d="M1454.319,475.23l5.971,3.652v-.934l-5.971-3.652Z" transform="translate(-1316.415 -429.322)" fill="#bedffe" fill-rule="evenodd"/>
            <path id="Trazado_597696" data-name="Trazado 597696" d="M1460.662,503.44l3.417,2.091v-.936l-3.417-2.091Z" transform="translate(-1322.157 -454.855)" fill="#bedffe" fill-rule="evenodd"/>
            <path id="Trazado_597697" data-name="Trazado 597697" d="M1460.662,527.744l5.854,3.583v-.936l-5.854-3.581Z" transform="translate(-1322.157 -476.856)" fill="#bedffe" fill-rule="evenodd"/>
            <path id="Trazado_597698" data-name="Trazado 597698" d="M1513.853,536.005l6.506,3.981v-.934l-6.506-3.981Z" transform="translate(-1370.304 -484.335)" fill="#bedffe" fill-rule="evenodd"/>
            <path id="Trazado_597699" data-name="Trazado 597699" d="M1596.184,586.37l3.413,2.089v-.934l-3.413-2.089Z" transform="translate(-1444.828 -529.924)" fill="#bedffe" fill-rule="evenodd"/>
            <path id="Trazado_597700" data-name="Trazado 597700" d="M1647.642,617.857l4.229,2.586v-.934l-4.229-2.588Z" transform="translate(-1491.407 -558.423)" fill="#bedffe" fill-rule="evenodd"/>
            <path id="Trazado_597701" data-name="Trazado 597701" d="M1536.126,573.915l7.4,4.525v-.934l-7.4-4.525Z" transform="translate(-1390.465 -518.649)" fill="#bedffe" fill-rule="evenodd"/>
            <path id="Trazado_597702" data-name="Trazado 597702" d="M1625.757,628.766l2.208,1.351v-.936l-2.208-1.349Z" transform="translate(-1471.597 -568.299)" fill="#bedffe" fill-rule="evenodd"/>
            <path id="Trazado_597703" data-name="Trazado 597703" d="M1500.127,576.231l4.234,2.592v-.934l-4.234-2.592Z" transform="translate(-1357.879 -520.745)" fill="#bedffe" fill-rule="evenodd"/>
            <path id="Trazado_597704" data-name="Trazado 597704" d="M1380.065,551.4l5.855,3.583v-.934l-5.855-3.583Z" transform="translate(-1249.202 -498.272)" fill="#bedffe" fill-rule="evenodd"/>
            <path id="Trazado_597705" data-name="Trazado 597705" d="M1380.065,575.752l5.855,3.583V578.4l-5.855-3.583Z" transform="translate(-1249.202 -520.312)" fill="#bedffe" fill-rule="evenodd"/>
            <path id="Trazado_597706" data-name="Trazado 597706" d="M1460.662,600.725l3.417,2.091v-.934l-3.417-2.091Z" transform="translate(-1322.157 -542.917)" fill="#bedffe" fill-rule="evenodd"/>
            <path id="Trazado_597707" data-name="Trazado 597707" d="M1460.662,625.072l5.272,3.227v-.934l-5.272-3.227Z" transform="translate(-1322.157 -564.956)" fill="#bedffe" fill-rule="evenodd"/>
            <path id="Trazado_597708" data-name="Trazado 597708" d="M1513.853,633.272l5,3.06V635.4l-5-3.061Z" transform="translate(-1370.304 -572.378)" fill="#bedffe" fill-rule="evenodd"/>
            <path id="Trazado_597709" data-name="Trazado 597709" d="M1577.144,671.995l2.63,1.61v-.934l-2.63-1.611Z" transform="translate(-1427.593 -607.429)" fill="#bedffe" fill-rule="evenodd"/>
            <path id="Trazado_597710" data-name="Trazado 597710" d="M1616.764,696.239l3.253,1.99V697.3l-3.253-1.99Z" transform="translate(-1463.457 -629.375)" fill="#bedffe" fill-rule="evenodd"/>
            <path id="Trazado_597711" data-name="Trazado 597711" d="M1570.384,692.212l5.86,3.587v-.936l-5.86-3.585Z" transform="translate(-1421.475 -625.729)" fill="#bedffe" fill-rule="evenodd"/>
            <path id="Trazado_597712" data-name="Trazado 597712" d="M1380.065,600.058l5.855,3.581v-.934l-5.855-3.581Z" transform="translate(-1249.202 -542.314)" fill="#bedffe" fill-rule="evenodd"/>
            <path id="Trazado_597713" data-name="Trazado 597713" d="M1380.065,624.386l5.855,3.583v-.936l-5.855-3.583Z" transform="translate(-1249.202 -564.333)" fill="#bedffe" fill-rule="evenodd"/>
            <path id="Trazado_597714" data-name="Trazado 597714" d="M1460.662,649.359l3.417,2.091v-.934l-3.417-2.091Z" transform="translate(-1322.157 -586.94)" fill="#bedffe" fill-rule="evenodd"/>
            <path id="Trazado_597715" data-name="Trazado 597715" d="M1460.662,673.706l10.734,6.568v-.934l-10.734-6.568Z" transform="translate(-1322.157 -608.978)" fill="#bedffe" fill-rule="evenodd"/>
            <path id="Trazado_597716" data-name="Trazado 597716" d="M1513.853,681.906l6.506,3.983v-.934l-6.506-3.982Z" transform="translate(-1370.304 -616.4)" fill="#bedffe" fill-rule="evenodd"/>
            <path id="Trazado_597717" data-name="Trazado 597717" d="M1596.184,732.292l3.413,2.087v-.934l-3.413-2.087Z" transform="translate(-1444.828 -662.009)" fill="#bedffe" fill-rule="evenodd"/>
            <path id="Trazado_597718" data-name="Trazado 597718" d="M1647.642,763.775l4.229,2.588v-.934l-4.229-2.588Z" transform="translate(-1491.407 -690.506)" fill="#bedffe" fill-rule="evenodd"/>
            <path id="Trazado_597719" data-name="Trazado 597719" d="M1587.587,751.364l6.021,3.684v-.934l-6.021-3.686Z" transform="translate(-1437.046 -679.271)" fill="#bedffe" fill-rule="evenodd"/>
            <path id="Trazado_597720" data-name="Trazado 597720" d="M1528.635,666.675l2.493,1.525v-.934l-2.493-1.526Z" transform="translate(-1383.685 -602.614)" fill="#bedffe" fill-rule="evenodd"/>
            <path id="Trazado_597721" data-name="Trazado 597721" d="M1361.11,661.439l3.35,2.05v-.934l-3.35-2.05Z" transform="translate(-1232.045 -597.874)" fill="#bedffe" fill-rule="evenodd"/>
            <path id="Trazado_597722" data-name="Trazado 597722" d="M1361.11,685.724l7.161,4.382v-.934l-7.161-4.382Z" transform="translate(-1232.045 -619.856)" fill="#bedffe" fill-rule="evenodd"/>
            <path id="Trazado_597723" data-name="Trazado 597723" d="M1380.065,721.672l5.855,3.583v-.934l-5.855-3.583Z" transform="translate(-1249.202 -652.396)" fill="#bedffe" fill-rule="evenodd"/>
            <path id="Trazado_597724" data-name="Trazado 597724" d="M1380.065,745.965l5.855,3.583v-.94l-5.855-3.583Z" transform="translate(-1249.202 -674.38)" fill="#bedffe" fill-rule="evenodd"/>
            <path id="Trazado_597725" data-name="Trazado 597725" d="M1422.919,796.531l5.7,3.484v-.934l-5.7-3.484Z" transform="translate(-1287.993 -720.156)" fill="#bedffe" fill-rule="evenodd"/>
            <path id="Trazado_597726" data-name="Trazado 597726" d="M1418.516,696.573l5.888,3.6v-.936l-5.888-3.6Z" transform="translate(-1284.007 -629.676)" fill="#bedffe" fill-rule="evenodd"/>
            <path id="Trazado_597727" data-name="Trazado 597727" d="M1496.505,744.288l2.973,1.818v-.934l-2.973-1.818Z" transform="translate(-1354.601 -672.867)" fill="#bedffe" fill-rule="evenodd"/>
            <path id="Trazado_597728" data-name="Trazado 597728" d="M1548.154,775.878l9.457,5.785v-.934l-9.457-5.787Z" transform="translate(-1401.353 -701.46)" fill="#bedffe" fill-rule="evenodd"/>
            <path id="Trazado_597729" data-name="Trazado 597729" d="M1454.319,742.765l5.971,3.652v-.934l-5.971-3.652Z" transform="translate(-1316.415 -671.488)" fill="#bedffe" fill-rule="evenodd"/>
            <path id="Trazado_597730" data-name="Trazado 597730" d="M1460.662,770.974l6.67,4.083v-.934l-6.67-4.083Z" transform="translate(-1322.157 -697.023)" fill="#bedffe" fill-rule="evenodd"/>
            <path id="Trazado_597731" data-name="Trazado 597731" d="M1460.662,795.285l4.553,2.785v-.94l-4.553-2.786Z" transform="translate(-1322.157 -719.023)" fill="#bedffe" fill-rule="evenodd"/>
            <path id="Trazado_597732" data-name="Trazado 597732" d="M1548.154,824.531l4.958,3.033v-.934l-4.958-3.033Z" transform="translate(-1401.353 -745.502)" fill="#bedffe" fill-rule="evenodd"/>
            <path id="Trazado_597733" data-name="Trazado 597733" d="M1522.4,833.068l8.7,5.322v-.94l-8.7-5.32Z" transform="translate(-1378.038 -753.225)" fill="#bedffe" fill-rule="evenodd"/>
            <path id="Trazado_597734" data-name="Trazado 597734" d="M1625.757,896.29l2.208,1.351v-.94l-2.208-1.353Z" transform="translate(-1471.597 -810.449)" fill="#bedffe" fill-rule="evenodd"/>
            <path id="Trazado_597735" data-name="Trazado 597735" d="M1500.127,843.768l4.234,2.592v-.934l-4.234-2.592Z" transform="translate(-1357.879 -762.914)" fill="#bedffe" fill-rule="evenodd"/>
            <path id="Trazado_597736" data-name="Trazado 597736" d="M1554.675,877.15l7.881,4.821v-.932l-7.881-4.823Z" transform="translate(-1407.255 -793.131)" fill="#bedffe" fill-rule="evenodd"/>
            <path id="Trazado_597737" data-name="Trazado 597737" d="M1650.146,935.569l2.355,1.442v-.934l-2.355-1.442Z" transform="translate(-1493.673 -846.01)" fill="#bedffe" fill-rule="evenodd"/>
            <path id="Trazado_597738" data-name="Trazado 597738" d="M1256.5,315.482l-6.2-3.58c-.221-.127-.4-.026-.4.228v7.108a.881.881,0,0,0,.4.69l6.2,3.58c.221.128.4.026.4-.228v-7.108a.881.881,0,0,0-.4-.69" transform="translate(-1131.378 -282.278)" fill="#bedffe"/>
            <path id="Trazado_597739" data-name="Trazado 597739" d="M1265.5,361.662a.272.272,0,0,1,.05-.051q1.026-.586,2.053-1.17c.118-.068.251-.057.417.1.257.242.347.652.174.79a.492.492,0,0,1-.071.045l-2.317,1.3q-.289.162-.587-.323-.6-.981-1.21-1.961a.719.719,0,0,1-.135-.538c.061-.252.372-.2.573.111.216.331.418.672.626,1.009l.424.69" transform="translate(-1144.015 -325.586)" fill="#fff"/>
            <path id="Trazado_597740" data-name="Trazado 597740" d="M1256.594,479.655l-6.2-3.58c-.221-.128-.4-.026-.4.228v7.108a.882.882,0,0,0,.4.69l6.2,3.58c.221.128.4.026.4-.228v-7.108a.882.882,0,0,0-.4-.689" transform="translate(-1131.465 -430.883)" fill="#bedffe"/>
            <path id="Trazado_597741" data-name="Trazado 597741" d="M1265.591,525.835a.279.279,0,0,1,.05-.051q1.027-.586,2.054-1.17c.118-.068.251-.057.417.1.257.242.347.652.175.79a.532.532,0,0,1-.07.045l-2.317,1.3q-.289.162-.587-.323-.6-.981-1.21-1.961a.719.719,0,0,1-.135-.538c.061-.252.372-.2.573.111.216.331.418.672.626,1.009l.424.69" transform="translate(-1144.102 -474.191)" fill="#fff"/>
            <path id="Trazado_597742" data-name="Trazado 597742" d="M1256.307,628.462l-6.2-3.58c-.221-.127-.4-.026-.4.228v7.108a.882.882,0,0,0,.4.689l6.2,3.58c.221.127.4.025.4-.228v-7.108a.881.881,0,0,0-.4-.689" transform="translate(-1131.205 -565.579)" fill="#1d64bc"/>
            <path id="Trazado_597743" data-name="Trazado 597743" d="M1265.3,674.642a.286.286,0,0,1,.05-.051q1.027-.586,2.054-1.17c.118-.068.251-.057.417.1.257.243.347.652.175.79a.53.53,0,0,1-.071.045l-2.317,1.3q-.288.161-.587-.323-.6-.981-1.21-1.961a.72.72,0,0,1-.135-.538c.061-.252.372-.2.574.11.216.331.418.672.626,1.009l.425.69" transform="translate(-1143.842 -608.888)" fill="#fff"/>
            <g id="Grupo_879763" data-name="Grupo 879763" transform="translate(202.047 121.51)" opacity="0.17">
              <g id="Grupo_879762" data-name="Grupo 879762">
                <g id="Grupo_879761" data-name="Grupo 879761" clip-path="url(#clip-path-6)">
                  <path id="Trazado_597744" data-name="Trazado 597744" d="M2157.832,1284.1c6.16,3.556,6.124,9.344-.081,12.926s-16.229,3.6-22.388.047-6.124-9.344.081-12.926,16.229-3.6,22.388-.047" transform="translate(-2130.767 -1281.442)" fill="#152f6b"/>
                </g>
              </g>
            </g>
            <path id="Trazado_597745" data-name="Trazado 597745" d="M2192.68,1269.067c-3.009,2.9-5.745,4.512-7.79,6.445a1.723,1.723,0,0,0,.585,2.991c1.122.366,2.482.51,4.8-.735a24.288,24.288,0,0,0,4.465-3.235s3.891-.757,4.358-1.962c.484-1.2-.413-5.362-.413-5.362s-5.344,1.528-6,1.858" transform="translate(-1977.143 -1147.048)" fill="#05213f"/>
            <path id="Trazado_597746" data-name="Trazado 597746" d="M2223.659,985.966a10.359,10.359,0,0,0,1.553,5.671s2.2,5.516.614,21.7c-13.417,10.031,4.562,3.831,5.99-1.349a122.419,122.419,0,0,1,1.768-13.561l.423-3.045-1.037-5.778-1.954-3.9s-7.284-2.45-7.356.269" transform="translate(-2010.288 -891.314)" fill="#f7c39f"/>
            <path id="Trazado_597747" data-name="Trazado 597747" d="M2262.574,1308.088c-2.277,2.809-7.5,7.991-7.984,8.762a1.606,1.606,0,0,0,.736,2.131c.961.627,2.876,1.137,5.882-.111,3.432-1.428,6.262-5.287,6.829-6.467.574-1.2-.179-4.44-.179-4.44l-2.273-.394a18.2,18.2,0,0,1-3.01.52" transform="translate(-2040.631 -1183.581)" fill="#05213f"/>
            <path id="Trazado_597748" data-name="Trazado 597748" d="M2304.233,1004.3c-.118,2.991.8,3.6,1.066,5.534.265,1.958.592,15.39-.828,19.067a23.773,23.773,0,0,1-2.791,3.777c-4.5,5.444,4.444,3.849,7.852-3.1.688-9.437,3.977-15.821,3.676-19.522s-1.962-3.117-1.9-8.3c-.226-1.9-1.581-1.679-1.581-1.679l-4.014-.054a17.6,17.6,0,0,0-1.478,4.276" transform="translate(-2082.305 -905.196)" fill="#ffcda8"/>
            <path id="Trazado_597749" data-name="Trazado 597749" d="M2232.622,637.813s-2.579-5.036-6.563-6.477a21.515,21.515,0,0,0-4.635,0,80.508,80.508,0,0,1-10.773,3.218c-.317.4-1.921,2.535-1.991,4.448,0,.042,0,.082-.008.121a39.1,39.1,0,0,0,.4,5.728c-.057-.43,2.447,17.994,2.942,21.14s13.363,6.657,17.52,1.538c.513-3.583,2.64-17.546,3.11-22.5a27.446,27.446,0,0,0,0-7.213" transform="translate(-1999.22 -571.344)" fill="#29479d"/>
            <path id="Trazado_597750" data-name="Trazado 597750" d="M2182.912,480.108s-1.481-3.063-.918-3.389,2.277,2.869,2.826,2.511-.591-3.425-1.137-3.867c-.523-.43-3.5-2.79-3.5-2.79s1.982-12.509,1.915-15.01h0l1.348-3.4.535-6.567s-3.622-1.571-4.042-1.055a51.183,51.183,0,0,0-2.555,9.647,78.772,78.772,0,0,0-.165,16.729s.826,7.338,3.16,9.2c.4.187,4.329,2.36,4.863.764.384-1.151-2.334-2.773-2.334-2.773" transform="translate(-1970.436 -404.105)" fill="#ffcda8"/>
            <path id="Trazado_597751" data-name="Trazado 597751" d="M2203.958,343.155c3.693,1.05,2.217,5.572,2.217,5.572s-3.37,7.356-4.037,9.06c-.948,2.363-7.021-.656-6.3-2.408s2.656-8.322,2.656-8.322,1.773-4.941,5.459-3.9" transform="translate(-1987.571 -310.486)" fill="#ff8f01"/>
            <path id="Trazado_597752" data-name="Trazado 597752" d="M2312.47,312.994a8.735,8.735,0,0,0,1.426-3.623l6.407-1.054s.241,6.1,2.442,8.041c0,0-2.88,4.267-6.228,3.208-2.674-.846-5.4-3.867-4.047-6.571" transform="translate(-2092.869 -279.082)" fill="#daa782"/>
            <path id="Trazado_597753" data-name="Trazado 597753" d="M2187.274,514.5l.075.159a.231.231,0,0,1-.061,0c0-.052-.01-.107-.014-.164" transform="translate(-1979.869 -465.715)" fill="#fedda7"/>
            <path id="Trazado_597754" data-name="Trazado 597754" d="M2225.724,351.787l.653-.57c-1.739-2.04-4.665-1.09-4.665-1.09-1.963,2.466-6.051,3.723-8.234,1.826a6.336,6.336,0,0,1-1.885-5.439l-.129-.037-.9-.318-.958-.338a4.412,4.412,0,0,0-5.576,4.472l-.019,2.641-2.607,4.922a8.053,8.053,0,0,0-.779,5.191l.044.229s3.5,7.49,2.6,12.683c0,.007,0,.014,0,.021a3.572,3.572,0,0,0,1.654,1.481c7.023,3.033,12.949,2.474,15.411,1.273a3.593,3.593,0,0,0,1.7-1.82,3.973,3.973,0,0,0,.185-.523l3.343-15.4,1.39-5.068a4.039,4.039,0,0,0-1.223-4.138" transform="translate(-1991.835 -312.851)" fill="#ffc400"/>
            <path id="Trazado_597755" data-name="Trazado 597755" d="M2253.722,543.806c-1.34,6.186-14.9-2.489-14.9-2.489s12.476,6.46,14.9,2.489" transform="translate(-2026.531 -489.988)" fill="#ff8f01"/>
            <path id="Trazado_597756" data-name="Trazado 597756" d="M2237.355,560.943s.3,5.979.409,6.711c-4.265,2.439-9.72,8.235-13.081,10.186-.559.323-3.224-.255-3.851.193a2.939,2.939,0,0,0-.793,1.7,13.994,13.994,0,0,0-1.929,1.266c-.387.42-1.413,2.288-.824,3.016,1.044,1.27,3.568,1.392,4.666.825,1.094-.549,3.938-2.564,4.663-3.848,3.6-2.428,13.543-5.685,16.832-10.24.491-.682.459-10.215.459-10.215l-1.331-1.79-3.539,1.413Z" transform="translate(-2006.872 -505.766)" fill="#ffcda8"/>
            <path id="Trazado_597757" data-name="Trazado 597757" d="M2421.088,416.172c0-.037,0-.074,0-.112-.143-1.825-.545-12.535-.545-12.535a4.024,4.024,0,0,0-4.8-3.971c-3.8.448-3.138,5.929-3.138,5.929s.624,8.935.8,11.406a9.671,9.671,0,0,0,7.694-.718" transform="translate(-2183.787 -361.625)" fill="#ff8f01"/>
            <path id="Trazado_597758" data-name="Trazado 597758" d="M2260.8,214.663a9.9,9.9,0,0,0-1.515,5.7,23.231,23.231,0,0,0-1.748,3.009c-.031.4,1.149.837,1.149.837s-.068,4.707.861,4.8c7.24.672,7.675-2.845,7.675-2.845s2.785.062,2.528-2.4a14.179,14.179,0,0,0,.186-3.4s-8.5-6.371-9.136-5.7" transform="translate(-2043.474 -194.263)" fill="#ffcda8"/>
            <path id="Trazado_597759" data-name="Trazado 597759" d="M2455.936,212.124c.86,2.281-.763,9.412.01,11.327a11.708,11.708,0,0,0,2.328,3.431s4.917-6.993,4.4-11.789-6.109-6.948-6.109-6.948-1.132,3.415-.63,3.978" transform="translate(-2222.87 -188.409)" fill="#2a337c"/>
            <path id="Trazado_597760" data-name="Trazado 597760" d="M2438.131,207.958s2.574-.29,2.781,0c1.277,1.849-.906,3.88-.906,3.88l-.81-.224-1.065-.468Z" transform="translate(-2206.939 -188.122)" fill="#ffc400"/>
            <path id="Trazado_597761" data-name="Trazado 597761" d="M2291.822,181.494c.112,1.731,2.818,3.2,2.818,3.2a6.486,6.486,0,0,0,.6,3.224,14.121,14.121,0,0,1,1.541,3.145,3.115,3.115,0,0,1,3.109-1.47c.349.086.952.323.893.781-.349,2.568.887,2.568.887,2.568s5.089,0,6.162-3.817c.57-2.011-1.073-4.759-1.073-4.759l-.591-3.553a8.955,8.955,0,0,0-6.339-3.085c-3.825,0-8.117,2.014-8.006,3.764" transform="translate(-2074.501 -160.877)" fill="#2a337c"/>
            <g id="Grupo_879766" data-name="Grupo 879766" transform="translate(21.12 139.257)" opacity="0.17">
              <g id="Grupo_879765" data-name="Grupo 879765">
                <g id="Grupo_879764" data-name="Grupo 879764" clip-path="url(#clip-path-7)">
                  <path id="Trazado_597762" data-name="Trazado 597762" d="M258.682,1472.118c8.184,4.725,8.135,12.413-.108,17.172s-21.56,4.787-29.743.062-8.135-12.413.108-17.172,21.56-4.787,29.743-.062" transform="translate(-222.725 -1468.593)" fill="#152f6b"/>
                </g>
              </g>
            </g>
            <path id="Trazado_597763" data-name="Trazado 597763" d="M343.888,412.95a5.782,5.782,0,0,1-1.539,3.253l1.841,4.6,8.577,3.768,4.2-3.416-.942-10.719s-12.118.356-12.138,2.518" transform="translate(-309.886 -371.514)" fill="#daa782"/>
            <path id="Trazado_597764" data-name="Trazado 597764" d="M507.813,600.754a14.842,14.842,0,0,0,.315,2.841,18.615,18.615,0,0,1,1.956,8.41,51.476,51.476,0,0,0,2.267,15.033,6.385,6.385,0,0,1,1.48,4.559c-.221,1.5-2.586,2.794-4.076,3.628-1.508.83-3.585-1.665-2.432-3.1s-5.4-23.008-5.4-23.008l1.111-10.391,3.98-.36Z" transform="translate(-454.328 -541.625)" fill="#f2c09e"/>
            <path id="Trazado_597765" data-name="Trazado 597765" d="M469.99,424.07s5.762,1.7,5.9,8.769c.092,4.4.369,9.269.369,9.269a5.984,5.984,0,0,1-6.781.629c.013-1.8-1.343-11.24-1.343-11.24l-1.756-5.595,1.658-2.3Z" transform="translate(-422.152 -383.432)" fill="#b5d3f7"/>
            <path id="Trazado_597766" data-name="Trazado 597766" d="M446.731,1468.765c1.721,1.848,5.823,3.664,7.529,4.563s1.717,3.934-.041,4.39c-2.824.759-10.941-3.053-10.941-3.053s-4.752.007-6.138-1.561c-.886-1,.137-5.181.137-5.181l3.091-.579s5.99.773,6.364,1.42" transform="translate(-395.362 -1328.207)" fill="#05213f"/>
            <path id="Trazado_597767" data-name="Trazado 597767" d="M430.97,809.528c2.9,16.493-.708,28.685-1.258,39.767s.273,20.7.018,22.986c-.3,2.675-10.28,3.233-10.456-.374s-1.016-13.005,1.208-23.828c.181-3.959-1.368-14.152-1.368-14.152l-1.2-8.759,2.569-6.813s9.426-10.715,10.488-8.827" transform="translate(-378.285 -732.564)" fill="#092a55"/>
            <path id="Trazado_597768" data-name="Trazado 597768" d="M285.391,1515.392a16.147,16.147,0,0,0,1.521,5.088,4.9,4.9,0,0,1,.236,4.448c-.491,1.042-9.135,3.768-9.135-4.071v-7.14s7.268-.079,7.378,1.676" transform="translate(-251.651 -1370.181)" fill="#05213f"/>
            <path id="Trazado_597769" data-name="Trazado 597769" d="M269.8,811.159c-4.356,6.221-1.925,31.817-3.178,36.711-2.628,10.212-3.074,26.87-2.218,28.326,1.666,4.638,9.629,2.564,9.57-.7.4-24.1,7.468-49.324,7.468-49.324s9.009-5.045,10.219-17.866c-1.2-1.3-20.674,1.327-21.859,2.851" transform="translate(-238.975 -731.344)" fill="#15406b"/>
            <path id="Trazado_597770" data-name="Trazado 597770" d="M281.937,437.461c.62,3.265.926,8.471-.649,9.751-3.918,1.126-5.584-4.34-11.405-6.885-2.078,2.546-7.777,6.867-7.777,6.867a68.027,68.027,0,0,0,4.6,16.115c1.771,3.941,1.582,11.268,1.37,12.325,4.613,10.366,21.859-2.851,21.859-2.851s.4-21.922-.949-27.769c-1.422-6.167-7.98-8.414-7.051-7.555" transform="translate(-237.251 -395.821)" fill="#4778b0"/>
            <path id="Trazado_597771" data-name="Trazado 597771" d="M332.883,704.881s1.53,2.078,5.059-.683c3.385-2.66,1.312-5.264,1.312-5.264l-1.381-1.258-5.451,1.2-.717,1.866Z" transform="translate(-300.252 -631.519)" fill="#6695cc"/>
            <path id="Trazado_597772" data-name="Trazado 597772" d="M345.606,705.77a30.677,30.677,0,0,1,3.734,7.511c6.186,2.686,13.162,9.1,17.261,10.294.564.161,3.236-.137,4.439,1.161.419.594.2,2.607.2,2.607l1.65,1.532s2.629,1.4,2.661,1.888c.061,1.363-5.264,2.833-6.765,2.06-2.589-1.348-5.363-5.781-5.363-5.781-2.808-1.758-15.4-4.545-18.87-8.942-1.017-1.151-5.28-8.511-5.28-8.511l.41-3.818,3.84-.658a2.166,2.166,0,0,1,2.087.658" transform="translate(-307.098 -638.205)" fill="#ffcda8"/>
            <path id="Trazado_597773" data-name="Trazado 597773" d="M241.847,533.643c-6.517,3.24-.077,12.563-.077,12.563l7.135,9.823s.428-4.142,6.371-5.947L249.6,540.87s-2.718-9.733-7.749-7.227" transform="translate(-216.274 -482.668)" fill="#b5d3f7"/>
            <path id="Trazado_597774" data-name="Trazado 597774" d="M381.513,344.114c1.32,2.941,1.089,3.36.894,4.541.144,2.464-.465,3.427-.782,7.571a3.6,3.6,0,0,1-2.336,2.1c-1.669.195-6.364-2.112-6.9-2.725a5.094,5.094,0,0,1-.836-1.625l-2.593-.437-.819-2.841,3.063-6.292,5.608-2.2s4.294,1.715,4.7,1.908" transform="translate(-333.232 -309.757)" fill="#ffcda8"/>
            <path id="Trazado_597775" data-name="Trazado 597775" d="M356.923,307.811c2.6-3.79-.654-6.2-.654-6.2a12.6,12.6,0,0,0-6.127-2.087h-.076c-3.225.036-5.564,2.464-6.559,3.72a7.5,7.5,0,0,0-.48.656c-.034.051-.052.079-.052.079h0c-2.831,4.471-.49,11.044-.006,11.467a2.387,2.387,0,0,0,3.733-.2s-1.507-.692-1.443-1.41c.06-.672,1.361-.833,2.228-.924a1.283,1.283,0,0,1,1.177.7,7.89,7.89,0,0,1,.263,1.108l.844.244a9.694,9.694,0,0,1,.241-1.55h0a5.443,5.443,0,0,1,.408-1.5v0a.69.69,0,0,1,.062-.124.7.7,0,0,1,.069-.087.228.228,0,0,1,.018-.019h0c.351-.359,1.044-.372,1.459-.9.453-.574-.309-1.509-.008-1.874,1.784-1.012,2.892-.016,4.9-1.1" transform="translate(-309.21 -271.121)" fill="#092a55"/>
            <g id="Grupo_879769" data-name="Grupo 879769" transform="translate(73.949 176.272)" opacity="0.17">
              <g id="Grupo_879768" data-name="Grupo 879768">
                <g id="Grupo_879767" data-name="Grupo 879767" clip-path="url(#clip-path-8)">
                  <path id="Trazado_597776" data-name="Trazado 597776" d="M785.675,1862.311c7.762-4.481,20.462-4.481,28.224,0s7.762,11.814,0,16.3-20.463,4.481-28.224,0-7.762-11.814,0-16.3" transform="translate(-779.854 -1858.95)" fill="#152f6b"/>
                </g>
              </g>
            </g>
            <path id="Trazado_597777" data-name="Trazado 597777" d="M823.672,1852.66h-2.146a13.979,13.979,0,0,0-3.451-2.724c-7.462-4.308-19.673-4.308-27.135,0a13.984,13.984,0,0,0-3.451,2.724h-2.146v5.069h0c-.018,2.853,1.846,5.709,5.595,7.874,7.462,4.308,19.673,4.308,27.135,0,3.749-2.165,5.612-5.021,5.595-7.874h0Z" transform="translate(-710.875 -1671.595)" fill="#bad4f5"/>
            <path id="Trazado_597778" data-name="Trazado 597778" d="M790.94,1863.822a13.992,13.992,0,0,0-3.451,2.724h-2.146v5.068h0c-.018,2.853,1.846,5.71,5.595,7.874.115.066.235.129.352.193v-5.11l3.684-12.527a21.593,21.593,0,0,0-4.036,1.777" transform="translate(-710.874 -1685.48)" fill="#ea6500"/>
            <path id="Trazado_597779" data-name="Trazado 597779" d="M790.94,1796.052c7.462-4.308,19.673-4.308,27.135,0s7.462,11.358,0,15.667-19.673,4.309-27.135,0-7.462-11.358,0-15.667" transform="translate(-710.874 -1622.82)" fill="#f1f2f2"/>
            <path id="Trazado_597780" data-name="Trazado 597780" d="M804.508,1792.821a27.766,27.766,0,0,0-13.567,3.231c-7.462,4.309-7.462,11.358,0,15.667.115.067.235.129.352.193l13.215-6.29Z" transform="translate(-710.874 -1622.82)" fill="#ff9c00"/>
            <path id="Trazado_597781" data-name="Trazado 597781" d="M785.776,1805.622h18.909v-12.8a27.767,27.767,0,0,0-13.568,3.231c-4.495,2.6-6.262,6.184-5.342,9.57" transform="translate(-711.052 -1622.82)" fill="#092a55"/>
            <g id="Grupo_879772" data-name="Grupo 879772" transform="translate(41.264 129.625)" opacity="0.17">
              <g id="Grupo_879771" data-name="Grupo 879771">
                <g id="Grupo_879770" data-name="Grupo 879770" clip-path="url(#clip-path-9)">
                  <path id="Trazado_597782" data-name="Trazado 597782" d="M2153.382,1471.317h0Z" transform="translate(-1990.455 -1461.427)" fill="#152f6b"/>
                  <path id="Trazado_597783" data-name="Trazado 597783" d="M2164.335,1464.454a.069.069,0,0,1-.008.032.069.069,0,0,0,.008-.032" transform="translate(-2000.363 -1455.215)" fill="#152f6b"/>
                  <path id="Trazado_597784" data-name="Trazado 597784" d="M599.151,1376.2l-.014,0a.164.164,0,0,1,.008.052.164.164,0,0,0-.008-.052.468.468,0,0,0-.269-.267c-3-1.025-6.018-2.033-9.029-3.048q-4.039-1.361-8.074-2.726-3.773-1.271-7.555-2.532c-.6-.2-1.2-.389-1.889-.61-.017.161-.036.262-.038.363-.025,1.793-.059,3.587-.058,5.381,0,.268-.087.338-.573.336q-10.187-.028-20.374-.031-14.3-.021-28.594-.048-8.346-.015-16.692-.034c-3.845-.012-7.69-.043-11.769-.067-.053,7.118-.1,14.16-.157,21.251-10.363,0-32.4-.019-47.906-.029l-10.967,6.279c4.129,0,23.67.02,29.419.028-5.749-.007-25.29-.025-29.419-.028l-.02,5.6c4.44,0,26.711.023,30.469.029q18.225.03,36.45.066c1,0,2-.007,3.1-.011.062-7.073.123-14.1.185-21.166l66.833.1q0,.19-.007.381l.084-.028c-.037,1.9-.072,3.745-.108,5.626l18.882-6.245h0l3.525-1.139c.127-.038.237-.074.334-.108l3.15-1.019h0a3.11,3.11,0,0,0,.658-.286,1.267,1.267,0,0,0,.376-.324.125.125,0,0,0,0-.106Zm-.007.053a.092.092,0,0,1-.008.032.092.092,0,0,0,.008-.032m-1.045.651h0Z" transform="translate(-435.171 -1367.018)" fill="#152f6b"/>
                </g>
              </g>
            </g>
            <path id="Trazado_597785" data-name="Trazado 597785" d="M1885.013,1439.717a1.247,1.247,0,0,1-.376.324,3.047,3.047,0,0,1-.658.286h0l-3.15,1.018c-.1.035-.207.07-.334.108l-3.132,1.012-.393.127h0l-11.287,3.733-1.01.334-6.5,2.15c-.036,1.9-.072,3.745-.108,5.626l18.882-6.245h0l3.525-1.139c.127-.038.238-.073.334-.108l3.151-1.019h0a3.063,3.063,0,0,0,.658-.286,1.268,1.268,0,0,0,.376-.323.125.125,0,0,0,0-.106l.042-5.587-.014,0a.12.12,0,0,1,0,.1" transform="translate(-1681.874 -1303.112)" fill="#ffe59c"/>
            <path id="Trazado_597786" data-name="Trazado 597786" d="M443.853,1376.2q18.225.029,36.45.066c1,0,2-.007,3.1-.01.062-7.072.123-14.1.185-21.166l66.916.1c-.036,1.895-.072,3.732-.108,5.6q0,.19-.007.381l.084-.028,6.5-2.15,1.01-.334,11.287-3.733h0l.393-.127,3.132-1.012c.127-.038.238-.073.334-.108l3.15-1.018h0a3.064,3.064,0,0,0,.658-.286,1.274,1.274,0,0,0,.376-.324.119.119,0,0,0,0-.1.47.47,0,0,0-.269-.268c-3-1.025-6.018-2.033-9.029-3.047q-4.04-1.362-8.074-2.727-3.774-1.27-7.555-2.532c-.6-.2-1.2-.389-1.889-.61-.017.161-.036.261-.038.362-.025,1.794-.059,3.587-.058,5.381,0,.268-.087.338-.573.336q-10.187-.028-20.374-.031-14.3-.021-28.594-.048-8.346-.015-16.692-.034c-3.845-.013-7.69-.043-11.769-.067-.053,7.118-.1,14.16-.157,21.252-10.363,0-32.4-.02-47.906-.029l-10.967,6.279c4.441,0,26.714.023,30.474.029" transform="translate(-374.181 -1215.446)" fill="#ff9c00"/>
            <path id="Trazado_597787" data-name="Trazado 597787" d="M443.634,1499.407q18.225.029,36.45.066c1,0,2-.006,3.1-.011.062-7.073.123-14.1.185-21.166l66.833.1c.036-1.867.071-3.7.108-5.6l-66.916-.1c-.062,7.066-.123,14.094-.185,21.167-1.107,0-2.106.012-3.1.01q-18.225-.032-36.45-.066c-3.76-.006-26.033-.026-30.474-.029l-.02,5.6c4.44,0,26.711.023,30.469.03" transform="translate(-373.987 -1333.051)" fill="#ea6500"/>
            <g id="Grupo_879775" data-name="Grupo 879775" transform="translate(116.277 159.164)" opacity="0.17">
              <g id="Grupo_879774" data-name="Grupo 879774">
                <g id="Grupo_879773" data-name="Grupo 879773" clip-path="url(#clip-path-10)">
                  <path id="Trazado_597788" data-name="Trazado 597788" d="M1280.09,1683.808c-12.254-7.074-32.193-7.033-44.536.094-5.931,3.425-9.029,7.861-9.286,12.332a10.745,10.745,0,0,0,.458,3.767,12.671,12.671,0,0,0,1.47,3.139h0c.047.072.094.145.142.217l.009.013q.212.318.447.633l.027.036q.226.3.471.6l.044.053c.053.063.106.126.16.189l.012.015c.1.122.213.243.322.364l.063.069.157.168.077.081c.09.094.181.188.275.281l.093.093.151.147.115.11.146.139.233.214.139.124.15.132.136.118c.084.071.168.143.253.214l.123.1.2.158.127.1.237.184.1.08c.093.071.187.141.282.21l.116.085.25.18.09.064c.111.078.223.155.336.232l.1.066.276.183.1.064q.179.116.362.23l.069.042c.1.065.21.13.316.194l.1.063c.129.076.258.153.388.228a40.752,40.752,0,0,0,14.336,4.715l38.478-22.361c-1.357-2.993-4.062-5.82-8.116-8.161" transform="translate(-1226.25 -1678.529)" fill="#152f6b"/>
                </g>
              </g>
            </g>
            <path id="Trazado_597789" data-name="Trazado 597789" d="M1288.917,1771.08h-.01a10.906,10.906,0,0,1-.466,2.685,12.835,12.835,0,0,1-1.569,3.306v0c-.043.066-.088.132-.132.2l-.031.046-.119.172-.022.031q-.072.1-.146.2l-.021.029-.129.172-.035.046q-.072.1-.146.189l-.006.008q-.079.1-.16.2l-.034.041-.134.162-.036.043c-.056.066-.112.132-.17.2h0c-.056.064-.113.128-.17.192l-.042.046-.147.161-.032.034q-.09.1-.182.193l-.028.03-.158.162-.047.048c-.057.057-.114.115-.172.172l-.017.018-.195.189-.045.042-.16.15-.048.045-.2.187h0c-.067.061-.135.121-.2.181l-.055.047-.171.147-.046.038c-.071.061-.144.121-.217.181l-.038.031-.184.15-.061.049-.2.154-.032.025q-.114.088-.229.176l-.057.043-.183.137-.064.047c-.079.058-.158.116-.239.174l0,0c-.078.057-.158.112-.238.168l-.069.048-.193.133-.061.042-.251.168-.047.03-.212.138-.076.049-.217.138-.046.029-.264.163-.068.042-.208.125-.078.046-.275.161c-12.343,7.126-32.282,7.168-44.536.093q-.2-.113-.388-.228l-.1-.063c-.106-.064-.212-.129-.316-.194l-.068-.042q-.183-.115-.363-.231l-.1-.064-.276-.183-.1-.066q-.17-.115-.336-.231l-.091-.064c-.084-.059-.167-.12-.25-.18l-.116-.084-.282-.21-.1-.08-.237-.184-.127-.1-.2-.158-.123-.1c-.086-.071-.17-.142-.254-.214l-.136-.118-.15-.132-.139-.124q-.118-.107-.232-.214l-.147-.139-.115-.11-.151-.147-.093-.093c-.093-.093-.184-.187-.274-.281l-.077-.081-.157-.168-.063-.069q-.165-.181-.323-.364l-.013-.015-.16-.189-.044-.053q-.246-.3-.471-.6l-.027-.037q-.234-.314-.447-.633l-.009-.013q-.072-.108-.142-.217h0a12.667,12.667,0,0,1-1.471-3.139,10.747,10.747,0,0,1-.458-3.768l-.05.006v7.214l.037-.005c.123,4.534,3.167,9.036,9.139,12.484,12.254,7.075,32.193,7.033,44.536-.093,6.5-3.751,9.594-8.718,9.283-13.613Z" transform="translate(-1109.658 -1602.397)" fill="#ea6500"/>
            <path id="Trazado_597790" data-name="Trazado 597790" d="M1226.725,1605.024a12.658,12.658,0,0,0,1.471,3.139h0q.07.109.142.217l.009.013q.213.318.447.633l.027.036q.226.3.471.6l.044.053q.079.095.16.189l.013.015q.157.183.322.364l.063.069.157.169.077.081c.09.094.181.188.274.281l.093.093.151.147.114.11.147.139q.115.107.232.213l.139.124.15.132.136.118c.084.071.168.143.254.214l.123.1.2.159.127.1.237.184.1.08.282.21.116.084q.124.09.25.18l.09.064q.166.116.336.231l.1.066.276.183.1.064c.12.077.24.154.363.231l.069.042c.1.065.209.129.316.194l.1.063c.128.076.257.153.388.228,12.254,7.075,32.193,7.033,44.536-.093l.274-.161.078-.046.208-.126.068-.041.264-.163.046-.029.217-.138.076-.049.212-.138.047-.031.25-.167.062-.042.193-.133.069-.048.238-.168,0,0c.081-.058.16-.115.239-.174l.064-.047.183-.137.057-.043.23-.177.032-.025.195-.154.061-.049.184-.15.038-.031.216-.181.046-.039c.058-.049.115-.1.171-.147l.055-.048q.1-.09.2-.181h0q.1-.093.2-.187l.049-.045.16-.15.045-.043.2-.189.017-.017.173-.172.047-.048.158-.162.028-.029.182-.193.032-.035.147-.161.042-.047.17-.191h0c.057-.065.113-.131.169-.2l.036-.043.134-.162.033-.041q.081-.1.16-.2l.006-.008c.049-.063.1-.126.146-.189l.035-.046.129-.172.021-.029.146-.2.021-.031c.041-.057.08-.115.12-.173l.031-.046c.045-.066.089-.132.132-.2v0a12.849,12.849,0,0,0,1.569-3.306,10.913,10.913,0,0,0,.465-2.685c.216-4.789-2.825-9.606-9.131-13.247-12.254-7.074-32.193-7.032-44.536.094-5.931,3.424-9.029,7.861-9.287,12.332a10.748,10.748,0,0,0,.458,3.768" transform="translate(-1109.972 -1433.395)" fill="#ff9c00"/>
            <path id="Trazado_597791" data-name="Trazado 597791" d="M1329.615,1622.018c-10.073-5.815-26.464-5.781-36.61.077-4.875,2.815-7.422,6.462-7.634,10.137a8.839,8.839,0,0,0,.377,3.1,10.4,10.4,0,0,0,1.209,2.58h0c.038.06.077.119.117.178l.007.011q.175.262.367.52l.022.03q.185.248.387.491l.036.044.131.155.011.012c.086.1.175.2.265.3l.052.057.129.138.063.066q.111.116.226.231l.076.077.124.121.094.091.12.114.191.176.114.1.123.108.112.1q.1.088.208.176l.1.083.161.13.1.083.195.151.086.066c.076.058.154.115.232.173l.1.069.206.148.074.053q.136.1.276.19l.081.054c.075.05.15.1.227.15l.081.053c.1.063.2.127.3.19l.056.035.26.159.086.052q.158.094.319.188c10.073,5.816,26.464,5.781,36.61-.077l.226-.132.064-.038.171-.1.057-.034.217-.134.038-.024.178-.113.062-.04.174-.114.038-.025.206-.138.051-.034.159-.109.057-.04.2-.138,0,0,.2-.142.052-.039.151-.113.047-.036.188-.145.026-.021.16-.126.051-.041.152-.123.031-.025.178-.149.038-.032.14-.12.045-.04.168-.149h0c.057-.051.113-.1.168-.153l.041-.037.131-.123.037-.035.161-.155.015-.014.141-.141.039-.039.13-.134.023-.024.15-.159.026-.028.121-.133.034-.038.139-.157h0l.14-.163.029-.035.11-.133.027-.034c.045-.055.089-.109.132-.164l.005-.006c.041-.052.081-.1.12-.156l.029-.038c.036-.047.071-.094.106-.142l.017-.023.12-.167.018-.025.1-.142.026-.038.108-.163v0a10.56,10.56,0,0,0,1.289-2.717,8.941,8.941,0,0,0,.382-2.208c.178-3.937-2.322-7.9-7.506-10.889m3.143,10.841a7.48,7.48,0,0,1-.318,1.835,8.775,8.775,0,0,1-1.072,2.259v0l-.09.135-.021.031-.082.118-.014.021-.1.139-.014.02-.088.118-.024.031c-.033.043-.067.087-.1.13l0,.005-.11.137-.023.028-.092.11-.024.029-.116.135h0l-.116.131-.028.032c-.033.037-.066.074-.1.11l-.021.024-.124.132-.02.02-.108.111-.032.033-.118.118-.012.011q-.066.065-.133.129l-.031.029-.109.1-.033.031-.14.127h0l-.14.124-.038.033-.117.1-.031.027-.148.124-.026.021-.126.1-.042.033-.133.105-.022.017-.157.12-.039.029-.125.094-.044.032-.163.119,0,0-.163.115-.047.033-.132.091-.042.029-.171.115-.032.021-.145.094-.052.033-.149.094-.032.02-.18.111-.047.029-.142.085-.053.032-.187.11c-8.435,4.87-22.062,4.9-30.437.064-.089-.052-.177-.1-.265-.156l-.071-.043-.216-.132-.047-.029-.248-.157-.067-.044-.188-.125-.067-.045q-.116-.079-.23-.158l-.062-.044-.171-.123-.079-.058-.193-.144-.071-.055-.162-.126-.087-.069-.134-.109-.084-.069-.173-.146-.093-.081-.1-.091-.095-.084c-.053-.049-.107-.1-.159-.146l-.1-.095-.078-.075-.1-.1-.063-.063c-.063-.064-.126-.128-.187-.192l-.053-.055-.107-.115-.043-.047q-.113-.124-.22-.249l-.009-.01-.109-.129-.03-.037q-.167-.2-.322-.408l-.019-.025q-.16-.215-.3-.432l-.007-.009-.1-.148h0a8.645,8.645,0,0,1-1.005-2.145,7.346,7.346,0,0,1-.313-2.574c.177-3.056,2.293-6.088,6.347-8.428,8.436-4.87,22.062-4.9,30.437-.064,4.31,2.489,6.388,5.78,6.241,9.053" transform="translate(-1163.475 -1464.285)" fill="#fff"/>
            <path id="Trazado_597792" data-name="Trazado 597792" d="M1449.609,1702.426c-4.789-2.765-12.581-2.749-17.405.036-2.318,1.338-3.528,3.072-3.629,4.819a4.211,4.211,0,0,0,.179,1.473,4.971,4.971,0,0,0,.575,1.227h0l.055.085,0,.005q.083.125.175.247l.01.014q.088.118.184.234l.017.021.063.074,0,.006c.041.048.083.095.126.142l.025.027.061.066.03.031.107.11.036.036.059.058.045.043.057.054.091.083.054.049.059.052.053.046.1.083.048.039.076.062.05.039.093.072.041.031.11.082.045.033.1.07.035.025.131.09.039.026.108.071.039.025.141.09.027.017.124.076.041.025.152.089c4.788,2.765,12.581,2.748,17.4-.036l.107-.063.031-.018.081-.049.027-.016.1-.064.018-.011.085-.054.029-.019.083-.054.018-.012.1-.065.024-.016.075-.052.027-.018.093-.066h0l.093-.068.025-.018.072-.053.022-.017.09-.069.013-.01.076-.06.024-.019.072-.059.015-.012.084-.071.018-.015.067-.057.021-.018.08-.071h0l.08-.073.02-.018.062-.059.017-.017.076-.074.007-.007.068-.067.019-.019.062-.063.011-.011.071-.075.012-.014.058-.063.017-.018.066-.075h0l.066-.078.014-.017.052-.063.013-.016.063-.078,0,0,.057-.074.014-.018.05-.068.008-.011.057-.079.008-.012.047-.067.012-.018.051-.078h0a5.026,5.026,0,0,0,.613-1.292,4.27,4.27,0,0,0,.182-1.049c.084-1.872-1.1-3.754-3.568-5.177m-.535,5.132a2.835,2.835,0,0,1-.121.7,3.351,3.351,0,0,1-.409.861h0l-.034.052-.008.012-.031.045-.006.008-.038.052-.005.008-.034.045-.009.012c-.013.017-.025.033-.038.049v0l-.042.052-.009.011-.035.042-.01.012-.044.051h0l-.044.05-.011.012-.038.042-.009.009-.047.05-.008.008-.041.042-.012.013-.045.045,0,0-.051.049-.012.011-.041.039-.013.012-.053.049h0l-.053.047-.014.012-.045.039-.012.01-.056.047-.01.008-.048.04-.016.012-.051.04-.008.006-.06.046-.015.011-.048.036-.017.012-.062.045h0l-.062.044-.018.013-.05.035-.016.011-.065.044-.012.008-.055.036-.02.013-.056.036-.012.008-.069.042-.018.011-.054.032-.02.012-.071.042a12.82,12.82,0,0,1-11.6.025l-.1-.06-.027-.016-.083-.051-.018-.011-.094-.06-.026-.017-.072-.048-.026-.017-.088-.061-.024-.017-.065-.047-.03-.022-.073-.055-.027-.021-.062-.048-.033-.027-.051-.041-.032-.026-.066-.056-.035-.031-.039-.035-.036-.032-.061-.056-.038-.036-.03-.029-.039-.038-.024-.024-.071-.073-.02-.021-.041-.044-.016-.018-.084-.095,0,0-.042-.049-.012-.014c-.042-.052-.083-.1-.122-.155l-.007-.01c-.041-.054-.079-.109-.117-.165l0,0-.037-.057h0a3.319,3.319,0,0,1-.384-.818,2.8,2.8,0,0,1-.119-.981,4.205,4.205,0,0,1,2.419-3.212,12.819,12.819,0,0,1,11.6-.024c1.643.949,2.434,2.2,2.378,3.45" transform="translate(-1293.106 -1539.129)" fill="#fff"/>
            <g id="Grupo_879778" data-name="Grupo 879778" transform="translate(144.874 166.94)" opacity="0.51">
              <g id="Grupo_879777" data-name="Grupo 879777">
                <g id="Grupo_879776" data-name="Grupo 879776" clip-path="url(#clip-path-11)">
                  <path id="Trazado_597793" data-name="Trazado 597793" d="M1528.593,1760.978a1.134,1.134,0,0,0,.013,2.148,4.113,4.113,0,0,0,3.721.008,1.134,1.134,0,0,0-.013-2.149,4.112,4.112,0,0,0-3.721-.008" transform="translate(-1527.829 -1760.537)" fill="#bd135a"/>
                </g>
              </g>
            </g>
            <path id="Trazado_597794" data-name="Trazado 597794" d="M1553.3,1408.91l1.119-1.461a.924.924,0,0,1,1.627.793l-2.654,10.261Z" transform="translate(-1406.007 -1273.659)" fill="#b5d3f7"/>
            <path id="Trazado_597795" data-name="Trazado 597795" d="M1546.851,1448.237a.356.356,0,0,1-.209-.284l-.169-34.251c0-.105.073,0,.212-.077a1.116,1.116,0,0,1,1.011-.005c.138.079.212-.048.214.056l.163,34.268a.362.362,0,0,1-.21.288,1.117,1.117,0,0,1-1.011.006" transform="translate(-1399.831 -1279.468)" fill="#092a55"/>
            <path id="Trazado_597796" data-name="Trazado 597796" d="M1546.71,1411.717a.308.308,0,0,1,0-.583,1.118,1.118,0,0,1,1.011-.006.308.308,0,0,1,0,.584,1.116,1.116,0,0,1-1.011.006" transform="translate(-1399.856 -1277.213)" fill="#152f6b"/>
            <path id="Trazado_597797" data-name="Trazado 597797" d="M1560.563,1426.8l.027,9.76,3.748-5.46a2.854,2.854,0,0,0-2.746-4.443Z" transform="translate(-1412.585 -1291.35)" fill="#4778b0"/>
            <path id="Trazado_597798" data-name="Trazado 597798" d="M1513.8,1425.979l-.751-.19a2.387,2.387,0,0,0-2.7,3.425l3.412,6.488Z" transform="translate(-1366.879 -1290.521)" fill="#b5d3f7"/>
            <g id="Grupo_879781" data-name="Grupo 879781" transform="translate(132.897 116.312)" opacity="0.17">
              <g id="Grupo_879780" data-name="Grupo 879780">
                <g id="Grupo_879779" data-name="Grupo 879779" clip-path="url(#clip-path-12)">
                  <path id="Trazado_597799" data-name="Trazado 597799" d="M1427.892,1233.146c0-.328-.465-.594-1.037-.594h-2.212a1.39,1.39,0,0,1-.268-.025.83.83,0,0,1-.543-.307q-.117-.178-.254-.351c-.153-.191-.1-.415.162-.564l1.564-.9a.443.443,0,0,0,0-.841l-2.551-1.462a1.627,1.627,0,0,0-1.465,0l-1.576.9a1.355,1.355,0,0,1-.944.1c-.225-.055-.468-.111-.677-.158-.328-.073-.542-.254-.542-.457v-1.282c0-.328-.464-.595-1.036-.595h-3.6c-.573,0-1.036.266-1.036.595v1.27c0,.21-.236.39-.579.464q-.325.07-.641.154a1.389,1.389,0,0,1-.984-.091l-1.57-.9a1.629,1.629,0,0,0-1.465,0l-2.542,1.467a.49.49,0,0,0-.3.454.533.533,0,0,0,.3.386l1.581.9c.249.142.321.356.183.541-.1.129-.192.268-.273.389a.831.831,0,0,1-.551.291,1.449,1.449,0,0,1-.244.021l-2.236,0c-.572,0-1.035.268-1.033.6l.008,1.833v.235c0,.328.466.594,1.039.593l2.213,0a.979.979,0,0,1,.811.332q.118.177.255.35c.153.192.1.416-.16.564l-1.562.9a.443.443,0,0,0,0,.841l2.555,1.459a1.629,1.629,0,0,0,1.465,0l1.574-.907a1.357,1.357,0,0,1,.944-.1c.224.055.467.111.677.157.328.073.542.254.543.456l0,1.282c0,.329.465.594,1.038.594l3.605,0c.572,0,1.035-.268,1.034-.6l0-1.269c0-.21.236-.391.578-.465q.31-.067.611-.146a1.385,1.385,0,0,1,.983.093l1.567.9a1.628,1.628,0,0,0,1.465,0l2.547-1.464a.443.443,0,0,0,0-.841l-1.579-.9c-.248-.142-.32-.356-.182-.542.23-.309.467-.677.478-.7l2.827,0c.554,0,1-.25,1.033-.564,0-.01,0-.02,0-.031Zm-8.156,1.568a2.36,2.36,0,0,1-.572.908c-1.21,1.238-3.865,1.835-6.3,1.3a5.213,5.213,0,0,1-2.609-1.312,1.9,1.9,0,0,1-.572-1.949,2.265,2.265,0,0,1,.427-.748c1.131-1.346,3.908-2.017,6.442-1.457a5.033,5.033,0,0,1,2.731,1.445,1.842,1.842,0,0,1,.451,1.815" transform="translate(-1401.523 -1226.623)" fill="#152f6b"/>
                </g>
              </g>
            </g>
            <path id="Trazado_597800" data-name="Trazado 597800" d="M1425.669,1269.775l-2.827,0c-.012.022-.248.39-.478.7-.138.186-.067.4.181.542l1.579.9a.443.443,0,0,1,0,.841l-2.547,1.465a1.629,1.629,0,0,1-1.466,0l-1.567-.9a1.39,1.39,0,0,0-.983-.093q-.3.079-.611.146c-.343.074-.579.255-.578.465l0,1.269c0,.328-.462.595-1.034.6l-3.605,0c-.572,0-1.037-.265-1.038-.593l0-1.282c0-.2-.215-.383-.543-.456-.209-.047-.453-.1-.677-.157a1.355,1.355,0,0,0-.944.1l-1.574.907a1.628,1.628,0,0,1-1.465,0l-2.555-1.46a.443.443,0,0,1,0-.841l1.562-.9c.258-.149.313-.374.16-.564q-.137-.173-.255-.351a.981.981,0,0,0-.811-.331l-2.213,0c-.573,0-1.037-.265-1.039-.593v-.236a.357.357,0,0,0-.008.071l.009,3.021c0,.328.466.594,1.039.593l1.3,0-.031,2.494a.344.344,0,0,0,0,.129h0a.542.542,0,0,0,.295.362l2.555,1.46a1.572,1.572,0,0,0,.909.154l.017.009v-.011a1.393,1.393,0,0,0,.539-.153l1.574-.906a1.354,1.354,0,0,1,.944-.1c.224.055.468.11.677.157.328.073.542.254.543.456l0,1.282c0,.328.466.594,1.038.594l3.605,0c.572,0,1.036-.267,1.034-.6l0-1.27c0-.21.235-.391.578-.465q.31-.067.611-.146a1.389,1.389,0,0,1,.983.093l1.567.9a1.407,1.407,0,0,0,.538.152v.017l.027-.015a1.564,1.564,0,0,0,.9-.156l2.547-1.464a.554.554,0,0,0,.289-.343l.011-.006v-.059c0-.009,0-.018,0-.027l-.032-2.551h1.275c.572,0,1.036-.267,1.035-.595l0-2.825c-.028.314-.479.564-1.033.564" transform="translate(-1267.548 -1148.641)" fill="#092a55"/>
            <path id="Trazado_597801" data-name="Trazado 597801" d="M1633.849,1216.523l-1.564.9c-.259.149-.314.373-.161.564q.137.173.254.351a.832.832,0,0,0,.543.307l.929-.534a.53.53,0,0,0,.3-.382h.017l-.011-1.621a.513.513,0,0,1-.3.417" transform="translate(-1477.283 -1100.791)" fill="#092a55"/>
            <path id="Trazado_597802" data-name="Trazado 597802" d="M1495.2,1231.081h0a3.609,3.609,0,0,0-.784-.667l-.019-.011c-.045-.028-.09-.056-.136-.084l-.036-.021-.126-.071-.048-.025-.121-.062-.057-.028-.119-.056-.064-.028-.119-.051-.07-.028-.12-.046-.075-.028-.123-.042-.078-.026-.129-.04-.077-.023-.144-.039-.068-.019-.217-.052q-.108-.023-.217-.044l-.035-.007c-.069-.013-.138-.025-.208-.036l-.04-.006c-.071-.011-.141-.022-.211-.031l-.022,0-.206-.024-.027,0-.211-.019-.04,0-.21-.013-.031,0-.214-.007h-.258c-.07,0-.139,0-.209,0h-.034c-.072,0-.143.006-.214.01h-.006l-.214.016-.022,0-.209.022-.03,0c-.07.008-.139.017-.208.027l-.016,0-.214.034h0q-.105.018-.209.039l-.022,0c-.068.014-.135.028-.2.044l-.017,0q-.208.048-.408.106l-.009,0q-.1.029-.195.061l-.013,0q-.3.1-.571.218l-.007,0q-.091.04-.179.082h0a4.871,4.871,0,0,0-.5.28h0a3.915,3.915,0,0,0-.435.321h0a3.07,3.07,0,0,0-.359.359h0a2.258,2.258,0,0,0-.427.748,1.9,1.9,0,0,0,.572,1.948c1.21-1.239,3.866-1.835,6.3-1.3a5.218,5.218,0,0,1,2.609,1.312,2.356,2.356,0,0,0,.572-.908,1.841,1.841,0,0,0-.451-1.816" transform="translate(-1344.659 -1112.859)" fill="#092a55"/>
            <path id="Trazado_597803" data-name="Trazado 597803" d="M1426.057,1218.855c.081-.12.178-.26.273-.389.137-.185.066-.4-.183-.541l-1.582-.9a.533.533,0,0,1-.3-.386v1.535a.5.5,0,0,0,.3.438l.941.536a.83.83,0,0,0,.551-.291" transform="translate(-1289.209 -1101.272)" fill="#092a55"/>
            <path id="Trazado_597804" data-name="Trazado 597804" d="M1426.7,1187.107c0-.328-.465-.594-1.037-.594h-2.212a1.43,1.43,0,0,1-.268-.025.83.83,0,0,1-.543-.307q-.117-.178-.254-.35c-.152-.192-.1-.415.162-.564l1.564-.9a.515.515,0,0,0,.3-.417.51.51,0,0,0-.3-.424l-2.55-1.462a1.629,1.629,0,0,0-1.465,0l-1.576.905a1.353,1.353,0,0,1-.944.1c-.225-.055-.468-.111-.677-.158-.328-.073-.542-.255-.542-.457v-1.282c0-.328-.464-.594-1.036-.594h-3.6c-.573,0-1.037.266-1.037.594v1.27c0,.21-.236.39-.579.464q-.325.07-.64.154a1.388,1.388,0,0,1-.984-.091l-1.57-.9a1.628,1.628,0,0,0-1.465,0l-2.542,1.467a.49.49,0,0,0-.3.454.534.534,0,0,0,.3.386l1.582.9c.249.142.32.356.183.541-.1.129-.192.268-.273.389a.83.83,0,0,1-.55.291,1.445,1.445,0,0,1-.244.021l-2.236,0c-.572,0-1.035.268-1.033.6l.008,1.833v.235c0,.328.467.594,1.039.593l2.213,0a.979.979,0,0,1,.811.331q.117.178.255.35c.153.191.1.415-.16.565l-1.562.9a.443.443,0,0,0,0,.841l2.554,1.46a1.63,1.63,0,0,0,1.465,0l1.573-.907a1.359,1.359,0,0,1,.944-.1c.224.055.468.11.677.157.328.073.542.254.543.456l0,1.282c0,.328.465.594,1.038.594l3.605,0c.572,0,1.035-.267,1.034-.6l0-1.269c0-.21.236-.391.579-.465q.309-.067.611-.146a1.387,1.387,0,0,1,.983.092l1.567.9a1.626,1.626,0,0,0,1.465,0l2.547-1.464a.443.443,0,0,0,0-.841l-1.578-.9c-.249-.142-.32-.356-.182-.542.23-.309.466-.678.478-.7h2.827c.554,0,1.005-.25,1.033-.564,0-.01,0-.02,0-.031Zm-8.156,1.568a2.365,2.365,0,0,1-.572.908c-1.21,1.239-3.865,1.835-6.3,1.3a5.215,5.215,0,0,1-2.609-1.312,1.9,1.9,0,0,1-.572-1.948,2.264,2.264,0,0,1,.427-.748c1.131-1.346,3.908-2.017,6.443-1.457a5.037,5.037,0,0,1,2.731,1.445,1.842,1.842,0,0,1,.451,1.816" transform="translate(-1267.548 -1068.637)" fill="#15406b"/>
            <g id="Grupo_879784" data-name="Grupo 879784" transform="translate(65.324 123.135)" opacity="0.17">
              <g id="Grupo_879783" data-name="Grupo 879783">
                <g id="Grupo_879782" data-name="Grupo 879782" clip-path="url(#clip-path-13)">
                  <path id="Trazado_597805" data-name="Trazado 597805" d="M706.779,1302.994c0-.223-.315-.4-.7-.4h-1.5a.942.942,0,0,1-.181-.017.564.564,0,0,1-.368-.208q-.079-.121-.172-.238c-.1-.13-.066-.282.11-.383l1.061-.609a.3.3,0,0,0,0-.57l-1.729-.991a1.1,1.1,0,0,0-.993,0l-1.069.613a.92.92,0,0,1-.64.071c-.152-.038-.317-.075-.459-.107-.223-.049-.367-.172-.367-.309v-.869c0-.223-.315-.4-.7-.4H696.62c-.388,0-.7.18-.7.4v.861c0,.142-.16.264-.393.315q-.221.047-.435.1a.941.941,0,0,1-.667-.062l-1.064-.607a1.105,1.105,0,0,0-.993,0l-1.724.995a.331.331,0,0,0-.2.308.361.361,0,0,0,.205.262l1.072.612c.169.1.217.241.124.367-.065.088-.13.182-.185.264a.563.563,0,0,1-.373.2.991.991,0,0,1-.165.014l-1.516,0c-.388,0-.7.181-.7.4l.005,1.243v.16c0,.223.316.4.7.4l1.5,0a.664.664,0,0,1,.55.225q.08.12.173.237c.1.13.067.282-.109.383l-1.059.61a.3.3,0,0,0,0,.57l1.732.989a1.1,1.1,0,0,0,.993,0l1.067-.615a.921.921,0,0,1,.64-.071c.152.037.317.075.459.107.223.05.368.172.368.309l0,.869c0,.223.316.4.7.4l2.444,0c.388,0,.7-.181.7-.4l0-.861c0-.142.16-.265.392-.315q.21-.046.414-.1a.94.94,0,0,1,.667.063l1.062.608a1.1,1.1,0,0,0,.993,0l1.726-.993a.3.3,0,0,0,0-.57l-1.07-.613c-.168-.1-.216-.242-.123-.367.156-.209.316-.459.324-.474h1.917c.376,0,.681-.17.7-.382,0-.007,0-.014,0-.021Zm-5.53,1.063a1.6,1.6,0,0,1-.388.615,4.915,4.915,0,0,1-4.27.88,3.535,3.535,0,0,1-1.769-.89,1.286,1.286,0,0,1-.388-1.321,1.524,1.524,0,0,1,.289-.507c.767-.913,2.65-1.368,4.368-.988a3.415,3.415,0,0,1,1.851.98,1.249,1.249,0,0,1,.306,1.231" transform="translate(-688.901 -1298.571)" fill="#152f6b"/>
                </g>
              </g>
            </g>
            <path id="Trazado_597806" data-name="Trazado 597806" d="M705.271,1327.827h-1.916c-.008.015-.168.265-.324.474-.094.126-.045.271.123.367l1.07.612a.3.3,0,0,1,0,.57l-1.727.993a1.1,1.1,0,0,1-.993,0l-1.062-.608a.942.942,0,0,0-.667-.062c-.136.036-.274.068-.414.1-.232.051-.392.173-.392.316l0,.861c0,.223-.313.4-.7.4l-2.444,0c-.388,0-.7-.18-.7-.4l0-.869c0-.137-.145-.26-.368-.31-.142-.031-.307-.069-.459-.106a.915.915,0,0,0-.64.071l-1.067.615a1.1,1.1,0,0,1-.993,0l-1.732-.99a.3.3,0,0,1,0-.57l1.059-.61c.175-.1.212-.253.108-.382-.062-.078-.12-.157-.173-.237a.664.664,0,0,0-.55-.225l-1.5,0c-.388,0-.7-.179-.7-.4v-.16a.227.227,0,0,0-.005.049l.006,2.048c0,.222.316.4.7.4h.88l-.021,1.691a.238.238,0,0,0,0,.088h0a.369.369,0,0,0,.2.245l1.732.989a1.065,1.065,0,0,0,.616.1l.012.006v-.007a.959.959,0,0,0,.366-.1l1.067-.615a.918.918,0,0,1,.64-.071c.152.037.317.075.459.107.223.049.368.172.368.309l0,.87c0,.223.316.4.7.4l2.444,0c.388,0,.7-.181.7-.4l0-.861c0-.142.16-.265.392-.315q.21-.046.414-.1a.941.941,0,0,1,.667.063l1.063.608a.952.952,0,0,0,.364.1v.012l.018-.01a1.06,1.06,0,0,0,.611-.106l1.727-.993a.376.376,0,0,0,.2-.233l.008,0v-.04c0-.006,0-.012,0-.018l-.022-1.73h.864c.388,0,.7-.181.7-.4l0-1.915c-.019.213-.324.382-.7.383" transform="translate(-622.846 -1201.423)" fill="#092a55"/>
            <path id="Trazado_597807" data-name="Trazado 597807" d="M846.41,1291.724l-1.06.609c-.176.1-.213.253-.11.383q.093.117.172.237a.562.562,0,0,0,.368.208l.63-.362a.359.359,0,0,0,.2-.259h.011l-.007-1.1a.348.348,0,0,1-.205.282" transform="translate(-765.04 -1168.983)" fill="#092a55"/>
            <path id="Trazado_597808" data-name="Trazado 597808" d="M752.414,1301.594h0a2.444,2.444,0,0,0-.531-.453l-.013-.008-.092-.057-.024-.014-.086-.048-.032-.017-.082-.043-.038-.018-.081-.038-.044-.02-.081-.034-.048-.02-.081-.031-.051-.019-.083-.029-.053-.017-.088-.027-.052-.016-.1-.026-.046-.012c-.048-.013-.1-.024-.147-.035l-.147-.03-.024,0-.141-.024-.027,0-.144-.021-.015,0-.14-.016-.018,0-.143-.012-.027,0-.142-.009h-.021l-.145,0h-.175l-.141,0h-.023l-.145.007h0l-.145.011h-.015l-.142.015-.02,0-.141.019h-.011l-.145.023h0l-.142.026-.015,0-.137.03-.011,0c-.094.022-.186.046-.276.072l-.006,0-.132.041-.009,0c-.134.044-.264.093-.387.148l-.005,0q-.062.027-.121.056h0a3.314,3.314,0,0,0-.342.19h0a2.7,2.7,0,0,0-.3.217h0a2.123,2.123,0,0,0-.243.244h0a1.531,1.531,0,0,0-.29.507,1.287,1.287,0,0,0,.388,1.321,4.916,4.916,0,0,1,4.27-.88,3.533,3.533,0,0,1,1.769.889,1.6,1.6,0,0,0,.388-.615,1.248,1.248,0,0,0-.306-1.231" transform="translate(-675.125 -1177.164)" fill="#092a55"/>
            <path id="Trazado_597809" data-name="Trazado 597809" d="M705.534,1293.306c.055-.081.121-.176.185-.263.093-.125.045-.271-.124-.367l-1.072-.612a.362.362,0,0,1-.205-.262v1.04a.339.339,0,0,0,.205.3l.638.364a.561.561,0,0,0,.373-.2" transform="translate(-637.532 -1169.31)" fill="#092a55"/>
            <path id="Trazado_597810" data-name="Trazado 597810" d="M705.971,1271.781c0-.223-.315-.4-.7-.4h-1.5a.951.951,0,0,1-.181-.017.563.563,0,0,1-.368-.208q-.079-.12-.172-.237c-.1-.13-.066-.282.11-.383l1.06-.609a.3.3,0,0,0,0-.57l-1.729-.991a1.1,1.1,0,0,0-.994,0l-1.069.613a.919.919,0,0,1-.64.07c-.153-.037-.317-.075-.459-.107-.223-.05-.367-.172-.367-.309v-.869c0-.223-.315-.4-.7-.4h-2.444c-.388,0-.7.18-.7.4v.861c0,.142-.16.264-.393.315q-.22.048-.434.1a.941.941,0,0,1-.667-.062l-1.064-.607a1.1,1.1,0,0,0-.993,0l-1.724.995a.332.332,0,0,0-.2.308.361.361,0,0,0,.205.262l1.072.612c.169.1.217.241.124.367-.065.088-.13.182-.185.264a.564.564,0,0,1-.373.2.97.97,0,0,1-.165.014l-1.516,0c-.388,0-.7.182-.7.4l.005,1.243v.16c0,.223.316.4.7.4l1.5,0a.663.663,0,0,1,.55.225c.053.08.111.159.173.237.1.129.067.281-.108.383l-1.059.61a.3.3,0,0,0,0,.57l1.732.99a1.1,1.1,0,0,0,.993,0l1.067-.615a.919.919,0,0,1,.64-.071c.152.037.317.075.459.106.223.05.368.173.368.31l0,.869c0,.223.316.4.7.4l2.444,0c.388,0,.7-.181.7-.4l0-.861c0-.142.16-.265.392-.315q.21-.046.414-.1a.941.941,0,0,1,.667.063l1.062.608a1.1,1.1,0,0,0,.993,0l1.727-.993a.3.3,0,0,0,0-.57l-1.07-.613c-.169-.1-.217-.241-.123-.367.156-.21.316-.459.324-.474h1.916c.376,0,.681-.17.7-.382a.183.183,0,0,0,0-.021Zm-5.53,1.063a1.6,1.6,0,0,1-.388.616,4.916,4.916,0,0,1-4.269.88,3.536,3.536,0,0,1-1.769-.889,1.287,1.287,0,0,1-.388-1.321,1.534,1.534,0,0,1,.29-.507c.767-.913,2.649-1.368,4.368-.988a3.413,3.413,0,0,1,1.851.98,1.249,1.249,0,0,1,.306,1.231" transform="translate(-622.846 -1147.183)" fill="#15406b"/>
          </g>
        </g>
      </g>
    </g>
  </g>
</svg>
